<svg width="72" height="88" viewBox="0 0 72 88" fill="none" xmlns="http://www.w3.org/2000/svg">
<path d="M43.06 44.4093C46.2661 42.864 48.9269 40.381 50.69 37.2893C52.1539 34.7351 52.6942 31.7548 52.22 28.8493C51.6332 26.0988 50.2407 23.5853 48.22 21.6293C46.4344 19.9678 44.4452 18.5397 42.3 17.3793C39.9437 16.1084 37.7706 14.524 35.84 12.6693C35.2305 11.9967 34.6785 11.2742 34.19 10.5093C33.5685 9.40496 32.699 8.46012 31.65 7.74928C30.4139 7.12026 28.9879 6.9741 27.65 7.33927C26.5915 7.47151 25.5979 7.92126 24.8 8.62928L24.67 8.78929C24.4525 9.06347 24.2042 9.31176 23.93 9.52928L23.8 9.63928L23.65 9.70928C23.2032 9.92735 22.7048 10.0173 22.21 9.96928H21.96C21.6048 9.98911 21.2606 10.0993 20.96 10.2893C20.5545 10.4841 20.1693 10.7186 19.81 10.9893C19.3526 11.4111 18.9957 11.9302 18.7655 12.5082C18.5354 13.0862 18.4378 13.7085 18.48 14.3293C18.6184 15.8229 19.0428 17.2759 19.73 18.6093L20.08 19.3793C20.7238 20.6644 21.2364 22.0113 21.61 23.3993C21.9998 25.3751 22.0741 27.4002 21.83 29.3993C21.7165 30.5924 21.6831 31.7917 21.73 32.9893C21.9109 35.9107 22.9901 38.7048 24.82 40.9893C28.91 45.9893 36.59 47.4393 43.06 44.4093Z" fill="url(#paint0_linear)"/>
<path d="M54.2604 28.5624C53.6071 25.4097 52.0178 22.5275 49.7004 20.2924C47.7955 18.5107 45.6718 16.9784 43.3804 15.7324C41.1929 14.5483 39.1747 13.0751 37.3804 11.3524C36.8485 10.7601 36.3669 10.1246 35.9404 9.45238C35.1572 8.08441 34.0562 6.92508 32.7304 6.07238C31.0597 5.19917 29.1231 4.98162 27.3004 5.46238C25.8265 5.68505 24.4593 6.36342 23.3904 7.40238C22.4004 6.14238 20.8704 3.69238 21.7804 1.53238C21.8377 1.4106 21.8698 1.27851 21.8748 1.14402C21.8798 1.00953 21.8576 0.87541 21.8096 0.749697C21.7615 0.623984 21.6886 0.509264 21.5952 0.412409C21.5017 0.315553 21.3897 0.238556 21.2658 0.186029C21.1419 0.133503 21.0086 0.106528 20.8741 0.106721C20.7395 0.106914 20.6063 0.134271 20.4826 0.187153C20.3588 0.240034 20.247 0.317353 20.1538 0.414476C20.0607 0.511599 19.9881 0.626528 19.9404 0.752378C18.7404 3.58238 20.2604 6.50238 21.4704 8.14238C20.9544 8.21975 20.4565 8.3891 20.0004 8.64238C19.4568 8.89347 18.9435 9.20547 18.4704 9.57238C17.7784 10.1986 17.2385 10.9745 16.8919 11.841C16.5453 12.7075 16.4011 13.6417 16.4704 14.5724C16.6131 16.3157 17.0955 18.0143 17.8904 19.5724L18.2504 20.3524C18.8342 21.5 19.3031 22.7025 19.6504 23.9424C19.9905 25.7223 20.0479 27.5446 19.8204 29.3424C19.7008 30.6254 19.6674 31.9149 19.7204 33.2024C19.9235 36.5516 21.1603 39.7554 23.2604 42.3724C24.8252 44.2189 26.7809 45.6945 28.9859 46.6924C31.191 47.6903 33.5904 48.1856 36.0104 48.1424C38.7343 48.1408 41.4246 47.5399 43.8904 46.3824C47.4689 44.6596 50.44 41.8908 52.4104 38.4424C54.16 35.4654 54.8144 31.9707 54.2604 28.5624ZM50.6804 37.4424C48.9174 40.5341 46.2565 43.0171 43.0504 44.5624C36.5804 47.5924 28.9004 46.1424 24.8104 41.1424C22.9805 38.8579 21.9013 36.0638 21.7204 33.1424C21.6735 31.9448 21.7069 30.7455 21.8204 29.5524C22.0645 27.5533 21.9902 25.5282 21.6004 23.5524C21.2268 22.1644 20.7142 20.8175 20.0704 19.5324L19.7204 18.7624C19.0332 17.429 18.6088 15.976 18.4704 14.4824C18.4282 13.8616 18.5258 13.2393 18.756 12.6613C18.9861 12.0833 19.343 11.5642 19.8004 11.1424C20.1597 10.8717 20.5449 10.6372 20.9504 10.4424C21.2511 10.2524 21.5953 10.1422 21.9504 10.1224H22.2004C22.6952 10.1704 23.1936 10.0804 23.6404 9.86238L23.7904 9.79238L23.9204 9.68238C24.1946 9.46486 24.4429 9.21657 24.6604 8.94238L24.7904 8.78238C25.5883 8.07436 26.5819 7.62461 27.6404 7.49238C28.9783 7.1272 30.4043 7.27337 31.6404 7.90238C32.6894 8.61322 33.5589 9.55806 34.1804 10.6624C34.6689 11.4273 35.2209 12.1498 35.8304 12.8224C37.761 14.6771 39.9341 16.2615 42.2904 17.5324C44.4356 18.6928 46.4248 20.1209 48.2104 21.7824C50.2311 23.7384 51.6236 26.2519 52.2104 29.0024C52.6846 31.9079 52.1443 34.8882 50.6804 37.4424Z" fill="url(#paint1_linear)"/>
<mask id="mask0" mask-type="alpha" maskUnits="userSpaceOnUse" x="21" y="8" width="35" height="37">
<path d="M46.0166 8.71688C46.2233 9.4057 46.4299 10.1634 45.7411 9.81899C44.5701 9.19905 43.0547 8.51023 43.5369 8.99241C44.019 9.47458 44.2257 10.0256 43.468 9.95676C42.7103 9.88787 41.3326 9.68123 40.7127 10.5767C40.0928 11.4722 39.2662 11.2655 39.0595 11.6099C38.8529 11.9543 38.5085 13.4009 37.8885 12.9187C37.2686 12.5054 36.0287 10.9211 37.0619 11.3344C38.0952 11.7477 39.2662 11.2655 38.3018 10.1634C37.3375 9.06129 36.3731 9.47458 35.9598 8.85464C35.5465 8.2347 34.1689 7.477 33.1357 8.99241C32.1713 10.5078 31.2758 12.5054 30.7248 12.9187C30.1737 13.332 29.0027 14.0897 29.2094 14.7096C29.3471 15.3296 29.416 16.7761 30.036 16.3628C30.6559 15.9495 31.0003 15.7429 31.2758 16.1561C31.4825 16.5694 31.4136 17.396 31.8958 17.396C31.8958 17.396 32.8601 16.7072 32.929 16.0873C32.9979 15.4673 32.2402 15.1229 32.7912 14.2274C33.3423 13.332 34.5822 11.6099 34.3067 12.5054C34.0311 13.332 33.4112 14.5719 33.8934 15.1229C34.3067 15.674 36.7175 14.9852 35.6154 15.5362C34.5133 16.0873 33.9622 16.5006 33.7556 17.1894C33.549 17.8782 33.3423 18.4293 32.7912 18.1537C32.2402 17.8782 31.5514 18.016 31.2758 18.016C31.0003 18.016 30.8625 16.7761 30.3804 17.0516C29.9671 17.3271 30.5181 18.2226 30.036 18.2915C29.5538 18.3604 29.4849 18.9114 28.9338 19.3247C28.3828 19.738 27.6251 20.5646 27.1429 20.6335C26.6607 20.7024 27.9006 21.3223 27.694 21.8734C27.4873 22.4933 26.3852 22.4244 25.9719 22.4933C25.5586 22.5622 25.903 23.3888 25.6964 23.8709C25.4897 24.3531 25.903 24.8353 26.5919 24.8353C27.2807 24.8353 27.9695 24.6975 28.0384 24.0776C28.1073 23.4577 28.7272 22.4244 29.2094 22.6311C29.6227 22.8377 30.6559 22.2178 30.8625 22.5622C31.0692 22.9066 32.378 24.0776 32.2402 24.2154C32.1024 24.3531 31.3447 24.6975 31.6203 24.8353C31.6203 24.8353 31.8269 25.1797 31.9647 25.1108C32.1024 25.0419 32.4468 24.1465 32.6535 24.0087C32.8601 23.8709 32.8601 23.3888 32.5846 23.1821C32.2402 22.9755 31.0692 22.1489 31.3447 21.7356C31.6203 21.3223 32.2402 22.2178 32.5157 22.4933C32.7912 22.7688 33.2045 23.1132 33.2045 23.7332C33.2045 24.3531 33.6178 24.3531 33.6178 24.6286C33.6867 24.9731 33.8245 25.0419 34.1689 25.0419C34.5133 24.9731 34.6511 24.2154 34.5133 24.0087C34.3067 23.8021 34.3067 23.3888 34.7199 23.3888C35.1332 23.3888 35.6154 23.0444 35.6154 22.8377C35.6154 22.6311 36.0287 21.3912 36.3042 21.3912C36.5798 21.3912 36.7864 21.8734 36.8553 22.1489C36.9931 22.4244 37.6819 21.9422 37.5441 21.6667C37.4064 21.3912 37.613 21.3223 37.8196 21.3223C38.0263 21.3223 37.8885 21.8734 38.0263 22.0111C38.2329 22.1489 39.1973 22.7688 38.8529 23.1132C38.5085 23.4577 38.0263 23.251 37.6819 22.9755C37.3375 22.6999 36.442 22.8377 36.1665 23.1132C35.9598 23.3888 35.7532 23.5265 35.3399 23.5265C34.9266 23.5265 34.9955 24.2842 35.3399 24.5598C35.6843 24.9042 36.1665 24.6286 36.5109 24.8353C36.8553 25.0419 37.4064 24.5598 37.4752 24.9042C37.5441 25.2486 37.4064 26.2818 37.0619 26.3507C36.7175 26.4196 35.6154 26.6262 34.8577 26.2818C34.0311 25.9374 33.2734 25.7996 33.2045 26.1441C33.1357 26.5573 33.1357 26.8329 32.5846 26.4885C32.0335 26.1441 31.5514 25.9374 31.207 25.9374C30.8625 25.9374 30.8625 25.3175 30.9314 24.8353C31.0003 24.3531 30.1048 24.4909 29.5538 24.6286C29.0027 24.7664 27.9006 25.1108 27.2118 25.1108C26.523 25.1108 26.2474 25.2486 26.1097 25.5241C25.9719 25.7996 25.352 25.7996 25.352 26.3507C25.352 26.9018 25.4209 27.0395 24.8698 27.315C24.2499 27.5217 24.1121 28.6238 23.8366 28.8993C23.561 29.1749 24.1121 29.8637 23.8366 30.277C23.561 30.6214 23.2855 31.5857 23.7677 31.7924C24.2499 31.999 24.732 32.9634 24.9387 33.3078C25.1453 33.6522 25.903 33.9966 26.6607 33.8589C27.4184 33.7211 28.7961 33.3078 29.5538 33.6522C30.3115 33.9966 31.0692 33.9277 30.7248 34.6166C30.3115 35.3054 30.9314 36.2008 31.4136 36.683C31.8958 37.1652 31.758 38.4051 31.4825 38.7495C31.207 39.1628 31.2758 39.8516 31.5514 40.196C31.8269 40.5404 31.9647 41.367 31.9647 41.6425C31.9647 41.9869 32.5157 42.6069 32.5846 43.2268C32.6535 43.9156 32.1713 44.6733 32.7912 44.6733C33.4112 44.6733 34.9955 44.7422 35.1332 44.4667C35.271 44.1912 36.5109 43.0891 36.8553 42.6069C37.1997 42.1247 37.8885 41.2981 37.6819 40.8159C37.2686 40.4715 37.5441 40.1271 38.2329 39.8516C38.9218 39.5761 38.9218 37.6474 38.5773 37.1652C38.2329 36.683 38.8529 35.512 39.6106 35.1676C40.3683 34.8232 42.1592 31.6546 41.6082 31.9302C40.9882 32.2057 39.8172 32.4123 39.4039 32.1368C38.9906 31.8613 36.5798 27.7283 36.9242 27.4528C37.2686 27.1773 39.1973 31.2413 39.5417 31.7235C39.8861 32.2746 43.1236 30.277 43.5369 29.7948C43.8813 29.3126 43.3302 28.8305 43.1236 28.8305C42.9169 28.8305 42.1592 28.3483 41.9526 28.6238C41.7459 28.8993 40.3683 26.6262 40.8505 26.8329C41.3326 27.0395 42.3659 27.7283 43.3302 28.2794C44.2946 28.8305 45.3967 27.935 46.0166 28.9682C46.7054 30.0015 47.1187 29.3126 47.0498 29.7948C46.981 30.277 47.8764 32.2746 48.2208 32.8945C48.4964 33.5144 49.1163 32.619 49.1852 31.9302C49.2541 31.1724 50.7006 30.0015 51.2517 29.5882C51.7338 29.1749 52.6982 29.7948 52.8359 30.6214C52.9737 31.448 53.6625 30.4836 53.6625 31.1036C53.6625 31.7924 53.5248 32.6879 54.0069 33.5144C54.9713 31.1036 55.4535 28.6927 55.4535 26.0752C55.4535 18.7737 51.665 12.3676 46.0166 8.71688" fill="#3F6D3A"/>
<path d="M24.0432 11.3344C23.6299 11.4722 23.2167 11.9543 22.6656 11.6788C22.1145 11.4033 20.9435 11.8166 21.7012 12.4365C22.3901 13.1253 22.1145 13.5386 22.8034 13.6075C23.4922 13.6764 23.9055 12.712 24.3876 12.7809C24.8698 12.8498 24.5254 11.1966 24.0432 11.3344Z" fill="#3F6D3A"/>
<path d="M40.7816 38.2673C40.2994 38.3362 40.4372 39.3006 39.8861 39.4383C39.4039 39.5761 39.8172 39.9894 39.5417 40.3338C39.335 40.6782 39.1973 41.5048 39.5417 41.9181C39.8861 42.4002 40.0239 42.4002 40.4372 41.6425C40.8504 40.9537 41.8148 38.1984 40.7816 38.2673Z" fill="#3F6D3A"/>
<path d="M26.9363 15.9495C26.7296 15.9495 26.523 16.0873 26.3164 16.0873C26.1097 16.1561 25.9719 16.4317 25.9719 16.7072C25.9719 17.0516 26.523 17.1205 26.3164 17.3271C26.1097 17.5338 25.0076 17.7404 25.1454 18.0848C25.2831 18.4293 25.4898 18.7048 25.2831 19.0492C25.0765 19.3936 25.4898 19.4625 25.9031 19.3247C26.3164 19.187 26.5919 18.7048 26.523 18.4293C26.4541 18.0848 27.1429 18.016 26.9363 18.2915C26.7296 18.567 26.3852 19.2558 26.5919 19.4625C26.7985 19.6691 26.0408 20.0135 26.3164 20.1513C26.5919 20.2891 27.3496 19.6002 27.7629 19.738C28.1762 19.8758 28.3139 19.6002 28.3828 19.2558C28.4517 18.8425 27.8318 18.3604 27.6251 17.8782C27.4185 17.3271 27.5562 15.9495 26.9363 15.9495" fill="#3F6D3A"/>
</mask>
<g mask="url(#mask0)">
<path d="M43.06 44.4093C46.2661 42.8641 48.9269 40.381 50.69 37.2893C52.1539 34.7351 52.6942 31.7549 52.22 28.8493C51.6332 26.0988 50.2407 23.5854 48.22 21.6293C46.4344 19.9679 44.4452 18.5398 42.3 17.3793C39.9437 16.1085 37.7706 14.524 35.84 12.6693C35.2305 11.9968 34.6785 11.2742 34.19 10.5093C33.5685 9.40499 32.699 8.46015 31.65 7.74931C30.4139 7.12029 28.9879 6.97413 27.65 7.3393C26.5915 7.47154 25.5979 7.92129 24.8 8.62931L24.67 8.78932C24.4525 9.0635 24.2042 9.31179 23.93 9.52931L23.8 9.63931L23.65 9.70931C23.2032 9.92738 22.7048 10.0174 22.21 9.96931H21.96C21.6048 9.98915 21.2606 10.0993 20.96 10.2893C20.5545 10.4841 20.1693 10.7186 19.81 10.9893C19.3526 11.4111 18.9957 11.9302 18.7655 12.5082C18.5354 13.0863 18.4378 13.7086 18.48 14.3293C18.6184 15.8229 19.0428 17.276 19.73 18.6093L20.08 19.3793C20.7238 20.6645 21.2364 22.0113 21.61 23.3993C21.9998 25.3751 22.0741 27.4002 21.83 29.3993C21.7165 30.5924 21.6831 31.7918 21.73 32.9893C21.9109 35.9107 22.9901 38.7048 24.82 40.9893C28.91 45.9893 36.59 47.4393 43.06 44.4093Z" fill="#3F6D3A"/>
</g>
<path d="M21.3938 8.10672C20.1838 6.46672 18.7438 3.58238 19.9438 0.752378C19.9915 0.626531 20.0641 0.511602 20.1572 0.414476C20.2504 0.317353 20.3622 0.240037 20.486 0.187154C20.6097 0.134271 20.7429 0.106916 20.8775 0.106721C21.012 0.10653 21.1453 0.133504 21.2692 0.186029C21.3931 0.238557 21.5051 0.315553 21.5986 0.412408C21.692 0.509263 21.7649 0.623986 21.813 0.7497C21.861 0.875409 21.8832 1.00953 21.8782 1.14402C21.8732 1.2785 21.8411 1.4106 21.7838 1.53238C20.8738 3.69238 22.4038 5.84672 23.3938 7.10672C23.3938 7.10672 23.8122 7.84035 22.9569 8.14238C22.2508 8.39169 21.8938 8.60672 21.3938 8.10672Z" fill="#65370E"/>
<path d="M2.24517 57.8663V77.7738H11.0613C14.4741 77.7738 16.9483 75.7546 16.9483 72.3988C16.9483 69.498 15.0144 68.2751 13.564 67.877V67.5926C15.0144 67.166 16.863 66 16.863 63.1276C16.863 59.8855 14.4456 57.8663 11.0045 57.8663H2.24517ZM5.54413 60.8525H10.6632C12.4833 60.8525 13.7062 61.9047 13.7062 63.5542C13.7062 65.2037 12.5118 66.2844 10.6632 66.2844H5.54413V60.8525ZM5.54413 69.242H10.6632C12.6255 69.242 13.7915 70.2943 13.7915 72.0291C13.7915 73.707 12.6255 74.7877 10.7201 74.7877H5.54413V69.242ZM19.0303 65.4596V70.1805C19.0303 75.3281 22.1871 78.172 27.1071 78.172C32.0271 78.172 35.1554 75.3281 35.1554 70.1805V65.4596C35.1554 60.3121 32.0271 57.4682 27.1071 57.4682C22.1871 57.4682 19.0303 60.3121 19.0303 65.4596ZM22.3293 65.3459C22.3293 62.3313 24.0925 60.3974 27.1071 60.3974C30.0932 60.3974 31.8565 62.3313 31.8565 65.3459V70.2943C31.8565 73.3089 30.0932 75.2427 27.1071 75.2427C24.0925 75.2427 22.3293 73.3089 22.3293 70.2943V65.3459ZM44.5297 57.4682C40.3492 57.4682 37.619 59.6011 37.619 63.156C37.619 66.6825 39.951 68.076 43.9041 68.9577L44.8426 69.1567C47.4305 69.754 48.9094 70.4081 48.9094 72.2282C48.9094 74.0198 47.459 75.2712 44.7288 75.2712C41.9702 75.2712 40.2354 73.963 40.2354 71.2328V70.9768H36.9933V71.2328C36.9933 75.6978 40.207 78.172 44.7288 78.172C49.2507 78.172 52.1515 75.7262 52.1515 72.1429C52.1515 68.5595 49.4782 67.1091 45.4967 66.2559L44.5582 66.0284C42.0555 65.4596 40.8611 64.7486 40.8611 63.0423C40.8611 61.3644 42.1408 60.369 44.5297 60.369C46.9755 60.369 48.5681 61.3644 48.5681 63.8386V64.4642H51.8102V63.8386C51.8102 59.6011 48.7103 57.4682 44.5297 57.4682ZM54.0796 70.0952C54.0796 75.2712 57.2079 78.172 62.1563 78.172C67.0479 78.172 69.8918 75.3565 69.8918 71.0337V70.3512H66.6213V71.0906C66.6213 73.4226 65.1424 75.2427 62.1563 75.2427C59.1986 75.2427 57.3785 73.3089 57.3785 70.1521V65.4881C57.3785 62.3313 59.1702 60.3974 62.1563 60.3974C65.0856 60.3974 66.6213 62.246 66.6213 64.578V65.1183H69.8918V64.6349C69.8918 60.2837 67.1048 57.4682 62.1563 57.4682C57.2079 57.4682 54.0796 60.369 54.0796 65.5449V70.0952Z" fill="#3F6D3A"/>
<defs>
<linearGradient id="paint0_linear" x1="32.4535" y1="44.1067" x2="30.4535" y2="5.6067" gradientUnits="userSpaceOnUse">
<stop stop-color="#F7EBB8"/>
<stop offset="1" stop-color="#FFFEF7"/>
</linearGradient>
<linearGradient id="paint1_linear" x1="51.8819" y1="29.3178" x2="32.4535" y2="48.1067" gradientUnits="userSpaceOnUse">
<stop stop-color="#3F6D3A"/>
<stop offset="1" stop-color="#2E482B"/>
</linearGradient>
</defs>
</svg>
