<svg width="277" height="51" viewBox="0 0 277 51" fill="none" xmlns="http://www.w3.org/2000/svg">
<path d="M27.3314 45.2237C30.5375 43.6784 33.1984 41.1954 34.9614 38.1037C36.4254 35.5495 36.9656 32.5693 36.4914 29.6637C35.9047 26.9132 34.5122 24.3997 32.4914 22.4437C30.7059 20.7823 28.7167 19.3542 26.5714 18.1937C24.2151 16.9229 22.042 15.3384 20.1114 13.4837C19.5019 12.8112 18.95 12.0886 18.4614 11.3237C17.84 10.2194 16.9704 9.27455 15.9214 8.5637C14.6854 7.93469 13.2594 7.78852 11.9214 8.1537C10.8629 8.28593 9.86931 8.73568 9.07143 9.4437L8.94143 9.60371C8.72391 9.87789 8.47562 10.1262 8.20142 10.3437L8.07143 10.4537L7.92143 10.5237C7.47468 10.7418 6.97624 10.8318 6.48143 10.7837H6.23143C5.8763 10.8035 5.5321 10.9137 5.23143 11.1037C4.82594 11.2985 4.44074 11.533 4.08143 11.8037C3.62408 12.2255 3.26717 12.7446 3.037 13.3226C2.80682 13.9006 2.70924 14.523 2.75143 15.1437C2.88989 16.6373 3.31426 18.0904 4.00143 19.4237L4.35143 20.1937C4.99527 21.4789 5.50786 22.8257 5.88143 24.2137C6.27129 26.1895 6.34554 28.2146 6.10143 30.2137C5.98798 31.4068 5.95458 32.6061 6.00143 33.8037C6.18231 36.7251 7.26154 39.5192 9.09143 41.8037C13.1814 46.8037 20.8614 48.2537 27.3314 45.2237Z" fill="url(#paint0_linear)"/>
<path d="M38.5318 29.3768C37.8785 26.2241 36.2893 23.3419 33.9718 21.1068C32.067 19.3251 29.9433 17.7928 27.6518 16.5468C25.4643 15.3627 23.4462 13.8895 21.6518 12.1668C21.12 11.5745 20.6383 10.939 20.2118 10.2668C19.4286 8.89883 18.3276 7.7395 17.0018 6.8868C15.3312 6.01359 13.3946 5.79604 11.5718 6.2768C10.098 6.49947 8.73071 7.17784 7.66184 8.2168C6.67184 6.9568 5.14184 4.5068 6.05184 2.3468C6.10912 2.22502 6.14124 2.09293 6.14626 1.95844C6.15128 1.82395 6.1291 1.68983 6.08105 1.56412C6.033 1.43841 5.96007 1.32369 5.86663 1.22683C5.77319 1.12998 5.66116 1.05298 5.53725 1.00045C5.41334 0.947925 5.2801 0.920951 5.14552 0.921144C5.01094 0.921337 4.87778 0.948693 4.75402 1.00158C4.63026 1.05446 4.51845 1.13178 4.42529 1.2289C4.33213 1.32602 4.25953 1.44095 4.21184 1.5668C3.01184 4.3968 4.53184 7.3168 5.74184 8.9568C5.22587 9.03417 4.72797 9.20352 4.27184 9.4568C3.72828 9.70789 3.215 10.0199 2.74184 10.3868C2.04986 11.013 1.50998 11.7889 1.16338 12.6554C0.816783 13.5219 0.672604 14.4561 0.741837 15.3868C0.884549 17.1301 1.36694 18.8287 2.16184 20.3868L2.52184 21.1668C3.10565 22.3144 3.57459 23.5169 3.92184 24.7568C4.26195 26.5367 4.31932 28.3591 4.09184 30.1568C3.97222 31.4398 3.93881 32.7293 3.99184 34.0168C4.19494 37.366 5.43175 40.5699 7.53184 43.1868C9.09662 45.0333 11.0523 46.5089 13.2574 47.5069C15.4625 48.5048 17.8618 49 20.2818 48.9568C23.0058 48.9552 25.696 48.3543 28.1618 47.1968C31.7404 45.474 34.7114 42.7052 36.6818 39.2568C38.4314 36.2798 39.0858 32.7851 38.5318 29.3768ZM34.9518 38.2568C33.1888 41.3485 30.5279 43.8315 27.3218 45.3768C20.8518 48.4068 13.1718 46.9568 9.08184 41.9568C7.25195 39.6723 6.17272 36.8782 5.99184 33.9568C5.94498 32.7592 5.97839 31.5599 6.09184 30.3668C6.33595 28.3677 6.2617 26.3426 5.87184 24.3668C5.49827 22.9788 4.98568 21.632 4.34184 20.3468L3.99184 19.5768C3.30466 18.2435 2.88029 16.7904 2.74184 15.2968C2.69965 14.6761 2.79723 14.0537 3.02741 13.4757C3.25759 12.8977 3.61449 12.3786 4.07184 11.9568C4.43115 11.6861 4.81636 11.4516 5.22184 11.2568C5.52251 11.0668 5.8667 10.9566 6.22184 10.9368H6.47184C6.96664 10.9849 7.46508 10.8949 7.91184 10.6768L8.06184 10.6068L8.19184 10.4968C8.46603 10.2793 8.71432 10.031 8.93184 9.7568L9.06184 9.5968C9.85972 8.88878 10.8533 8.43903 11.9118 8.3068C13.2498 7.94162 14.6758 8.08779 15.9118 8.7168C16.9609 9.42765 17.8304 10.3725 18.4518 11.4768C18.9404 12.2417 19.4923 12.9643 20.1018 13.6368C22.0324 15.4915 24.2055 17.076 26.5618 18.3468C28.7071 19.5073 30.6963 20.9353 32.4818 22.5968C34.5026 24.5528 35.8951 27.0663 36.4818 29.8168C36.9561 32.7224 36.4158 35.7026 34.9518 38.2568Z" fill="url(#paint1_linear)"/>
<mask id="mask0" mask-type="alpha" maskUnits="userSpaceOnUse" x="5" y="8" width="35" height="38">
<path d="M30.2881 9.5313C30.4947 10.2201 30.7014 10.9778 30.0125 10.6334C28.8415 10.0135 27.3261 9.32465 27.8083 9.80683C28.2905 10.289 28.4971 10.8401 27.7394 10.7712C26.9817 10.7023 25.6041 10.4956 24.9841 11.3911C24.3642 12.2866 23.5376 12.0799 23.331 12.4243C23.1243 12.7688 22.7799 14.2153 22.16 13.7331C21.54 13.3198 20.3002 11.7355 21.3334 12.1488C22.3666 12.5621 23.5376 12.0799 22.5733 10.9778C21.6089 9.87571 20.6446 10.289 20.2313 9.66906C19.818 9.04913 18.4403 8.29142 17.4071 9.80683C16.4428 11.3222 15.5473 13.3198 14.9962 13.7331C14.4452 14.1464 13.2742 14.9041 13.4808 15.524C13.6186 16.144 13.6875 17.5905 14.3074 17.1772C14.9274 16.7639 15.2718 16.5573 15.5473 16.9706C15.7539 17.3839 15.6851 18.2104 16.1672 18.2104C16.1672 18.2104 17.1316 17.5216 17.2005 16.9017C17.2693 16.2817 16.5116 15.9373 17.0627 15.0419C17.6138 14.1464 18.8536 12.4243 18.5781 13.3198C18.3026 14.1464 17.6826 15.3863 18.1648 15.9373C18.5781 16.4884 20.989 15.7996 19.8869 16.3506C18.7848 16.9017 18.2337 17.315 18.0271 18.0038C17.8204 18.6926 17.6138 19.2437 17.0627 18.9682C16.5116 18.6926 15.8228 18.8304 15.5473 18.8304C15.2718 18.8304 15.134 17.5905 14.6518 17.866C14.2385 18.1416 14.7896 19.037 14.3074 19.1059C13.8252 19.1748 13.7564 19.7259 13.2053 20.1391C12.6542 20.5524 11.8965 21.379 11.4144 21.4479C10.9322 21.5168 12.1721 22.1367 11.9654 22.6878C11.7588 23.3077 10.6567 23.2388 10.2434 23.3077C9.83008 23.3766 10.1745 24.2032 9.96784 24.6854C9.7612 25.1675 10.1745 25.6497 10.8633 25.6497C11.5521 25.6497 12.241 25.512 12.3098 24.892C12.3787 24.2721 12.9987 23.2388 13.4808 23.4455C13.8941 23.6521 14.9274 23.0322 15.134 23.3766C15.3406 23.721 16.6494 24.892 16.5116 25.0298C16.3739 25.1675 15.6162 25.512 15.8917 25.6497C15.8917 25.6497 16.0984 25.9941 16.2361 25.9252C16.3739 25.8564 16.7183 24.9609 16.9249 24.8231C17.1316 24.6854 17.1316 24.2032 16.8561 23.9965C16.5116 23.7899 15.3406 22.9633 15.6162 22.55C15.8917 22.1367 16.5116 23.0322 16.7872 23.3077C17.0627 23.5833 17.476 23.9277 17.476 24.5476C17.476 25.1675 17.8893 25.1675 17.8893 25.4431C17.9582 25.7875 18.0959 25.8564 18.4403 25.8564C18.7848 25.7875 18.9225 25.0298 18.7848 24.8231C18.5781 24.6165 18.5781 24.2032 18.9914 24.2032C19.4047 24.2032 19.8869 23.8588 19.8869 23.6521C19.8869 23.4455 20.3002 22.2056 20.5757 22.2056C20.8512 22.2056 21.0579 22.6878 21.1267 22.9633C21.2645 23.2388 21.9533 22.7567 21.8156 22.4811C21.6778 22.2056 21.8845 22.1367 22.0911 22.1367C22.2977 22.1367 22.16 22.6878 22.2977 22.8255C22.5044 22.9633 23.4687 23.5833 23.1243 23.9277C22.7799 24.2721 22.2977 24.0654 21.9533 23.7899C21.6089 23.5144 20.7135 23.6521 20.4379 23.9277C20.2313 24.2032 20.0246 24.341 19.6113 24.341C19.198 24.341 19.2669 25.0987 19.6113 25.3742C19.9558 25.7186 20.4379 25.4431 20.7823 25.6497C21.1267 25.8564 21.6778 25.3742 21.7467 25.7186C21.8156 26.063 21.6778 27.0962 21.3334 27.1651C20.989 27.234 19.8869 27.4407 19.1292 27.0962C18.3026 26.7518 17.5449 26.6141 17.476 26.9585C17.4071 27.3718 17.4071 27.6473 16.8561 27.3029C16.305 26.9585 15.8228 26.7518 15.4784 26.7518C15.134 26.7518 15.134 26.1319 15.2029 25.6497C15.2718 25.1675 14.3763 25.3053 13.8252 25.4431C13.2742 25.5808 12.1721 25.9252 11.4833 25.9252C10.7944 25.9252 10.5189 26.063 10.3811 26.3385C10.2434 26.6141 9.62343 26.6141 9.62343 27.1651C9.62343 27.7162 9.69232 27.8539 9.14126 28.1295C8.52132 28.3361 8.38355 29.4382 8.10803 29.7138C7.8325 29.9893 8.38355 30.6781 8.10803 31.0914C7.8325 31.4358 7.55697 32.4002 8.03914 32.6068C8.52132 32.8135 9.00349 33.7778 9.21014 34.1222C9.41679 34.4666 10.1745 34.811 10.9322 34.6733C11.6899 34.5355 13.0675 34.1222 13.8252 34.4666C14.5829 34.811 15.3406 34.7422 14.9962 35.431C14.5829 36.1198 15.2029 37.0153 15.6851 37.4974C16.1672 37.9796 16.0295 39.2195 15.7539 39.5639C15.4784 39.9772 15.5473 40.666 15.8228 41.0104C16.0984 41.3548 16.2361 42.1814 16.2361 42.457C16.2361 42.8014 16.7872 43.4213 16.8561 44.0412C16.9249 44.7301 16.4428 45.4878 17.0627 45.4878C17.6826 45.4878 19.2669 45.5566 19.4047 45.2811C19.5425 45.0056 20.7823 43.9035 21.1267 43.4213C21.4712 42.9391 22.16 42.1125 21.9533 41.6304C21.54 41.286 21.8156 40.9415 22.5044 40.666C23.1932 40.3905 23.1932 38.4618 22.8488 37.9796C22.5044 37.4974 23.1243 36.3264 23.882 35.982C24.6397 35.6376 26.4307 32.469 25.8796 32.7446C25.2597 33.0201 24.0887 33.2267 23.6754 32.9512C23.2621 32.6757 20.8512 28.5428 21.1956 28.2672C21.54 27.9917 23.4687 32.0558 23.8132 32.5379C24.1576 33.089 27.395 31.0914 27.8083 30.6092C28.1527 30.1271 27.6017 29.6449 27.395 29.6449C27.1884 29.6449 26.4307 29.1627 26.224 29.4382C26.0174 29.7138 24.6397 27.4407 25.1219 27.6473C25.6041 27.8539 26.6373 28.5428 27.6017 29.0938C28.566 29.6449 29.6681 28.7494 30.2881 29.7826C30.9769 30.8159 31.3902 30.1271 31.3213 30.6092C31.2524 31.0914 32.1479 33.089 32.4923 33.7089C32.7678 34.3289 33.3878 33.4334 33.4567 32.7446C33.5255 31.9869 34.9721 30.8159 35.5231 30.4026C36.0053 29.9893 36.9696 30.6092 37.1074 31.4358C37.2452 32.2624 37.934 31.298 37.934 31.918C37.934 32.6068 37.7962 33.5023 38.2784 34.3289C39.2427 31.918 39.7249 29.5071 39.7249 26.8896C39.7249 19.5881 35.9364 13.1821 30.2881 9.5313" fill="#3F6D3A"/>
<path d="M8.31469 12.1488C7.9014 12.2866 7.48811 12.7688 6.93705 12.4932C6.38599 12.2177 5.215 12.631 5.9727 13.2509C6.66152 13.9398 6.38599 14.353 7.07482 14.4219C7.76364 14.4908 8.17693 13.5265 8.6591 13.5953C9.14128 13.6642 8.79687 12.0111 8.31469 12.1488Z" fill="#3F6D3A"/>
<path d="M25.0531 39.0817C24.5709 39.1506 24.7086 40.1149 24.1576 40.2527C23.6754 40.3905 24.0887 40.8038 23.8132 41.1482C23.6065 41.4926 23.4688 42.3192 23.8132 42.7325C24.1576 43.2146 24.2953 43.2146 24.7086 42.4569C25.1219 41.7681 26.0863 39.0128 25.0531 39.0817Z" fill="#3F6D3A"/>
<path d="M11.2077 16.7639C11.0011 16.7639 10.7945 16.9017 10.5878 16.9017C10.3812 16.9706 10.2434 17.2461 10.2434 17.5216C10.2434 17.866 10.7945 17.9349 10.5878 18.1416C10.3812 18.3482 9.27905 18.5549 9.41681 18.8993C9.55458 19.2437 9.76122 19.5192 9.55458 19.8636C9.34793 20.208 9.76122 20.2769 10.1745 20.1391C10.5878 20.0014 10.8633 19.5192 10.7945 19.2437C10.7256 18.8993 11.4144 18.8304 11.2077 19.1059C11.0011 19.3814 10.6567 20.0703 10.8633 20.2769C11.07 20.4836 10.3123 20.828 10.5878 20.9657C10.8633 21.1035 11.621 20.4147 12.0343 20.5524C12.4476 20.6902 12.5854 20.4147 12.6543 20.0703C12.7232 19.657 12.1032 19.1748 11.8966 18.6926C11.6899 18.1416 11.8277 16.7639 11.2077 16.7639" fill="#3F6D3A"/>
</mask>
<g mask="url(#mask0)">
<path d="M27.3314 45.2237C30.5375 43.6784 33.1984 41.1954 34.9614 38.1037C36.4254 35.5495 36.9656 32.5693 36.4914 29.6637C35.9047 26.9132 34.5122 24.3997 32.4914 22.4437C30.7059 20.7823 28.7167 19.3542 26.5714 18.1937C24.2151 16.9229 22.042 15.3384 20.1114 13.4837C19.5019 12.8112 18.95 12.0886 18.4614 11.3237C17.84 10.2194 16.9704 9.27455 15.9214 8.5637C14.6854 7.93469 13.2594 7.78852 11.9214 8.1537C10.8629 8.28593 9.86931 8.73568 9.07143 9.4437L8.94143 9.60371C8.72391 9.87789 8.47562 10.1262 8.20142 10.3437L8.07143 10.4537L7.92143 10.5237C7.47468 10.7418 6.97624 10.8318 6.48143 10.7837H6.23143C5.8763 10.8035 5.5321 10.9137 5.23143 11.1037C4.82594 11.2985 4.44074 11.533 4.08143 11.8037C3.62408 12.2255 3.26717 12.7446 3.037 13.3226C2.80682 13.9006 2.70924 14.523 2.75143 15.1437C2.88989 16.6373 3.31426 18.0904 4.00143 19.4237L4.35143 20.1937C4.99527 21.4789 5.50786 22.8257 5.88143 24.2137C6.27129 26.1895 6.34554 28.2146 6.10143 30.2137C5.98798 31.4068 5.95458 32.6061 6.00143 33.8037C6.18231 36.7251 7.26154 39.5192 9.09143 41.8037C13.1814 46.8037 20.8614 48.2537 27.3314 45.2237Z" fill="#3F6D3A"/>
</g>
<path d="M5.66525 8.92114C4.45525 7.28114 3.01524 4.3968 4.21523 1.5668C4.26292 1.44095 4.33552 1.32602 4.42869 1.2289C4.52184 1.13178 4.63366 1.05446 4.75742 1.00158C4.88117 0.948693 5.01434 0.921338 5.14892 0.921144C5.2835 0.920953 5.41674 0.947927 5.54064 1.00045C5.66454 1.05298 5.77657 1.12998 5.87002 1.22683C5.96346 1.32369 6.0364 1.43841 6.08445 1.56412C6.1325 1.68983 6.15467 1.82395 6.14965 1.95844C6.14463 2.09293 6.11253 2.22502 6.05523 2.3468C5.14523 4.5068 6.67526 6.66114 7.66525 7.92114C7.66525 7.92114 8.0837 8.65477 7.22833 8.9568C6.52228 9.20611 6.16525 9.42114 5.66525 8.92114Z" fill="#65370E"/>
<path d="M137.18 16.8707V24.2878H140.232C141.503 24.2878 142.446 23.5567 142.446 22.3064C142.446 21.2574 141.736 20.7594 141.175 20.6111V20.5051C141.726 20.325 142.436 19.8588 142.436 18.8098C142.436 17.6125 141.503 16.8707 140.253 16.8707H137.18ZM138.039 17.6442H140.168C141.037 17.6442 141.588 18.1528 141.588 18.884C141.588 19.6469 141.069 20.1661 140.179 20.1661H138.039V17.6442ZM138.039 20.9501H140.147C141.09 20.9501 141.609 21.4482 141.609 22.2216C141.609 22.974 141.09 23.5143 140.189 23.5143H138.039V20.9501ZM143.454 17.4959C143.454 17.8879 143.741 18.174 144.133 18.174C144.525 18.174 144.821 17.8879 144.821 17.4959C144.821 17.1144 144.525 16.8284 144.133 16.8284C143.741 16.8284 143.454 17.1144 143.454 17.4959ZM144.546 19.1171H143.73V24.2878H144.546V19.1171ZM145.75 21.7025C145.75 23.3236 146.821 24.4362 148.389 24.4362C149.957 24.4362 151.038 23.3236 151.038 21.7025C151.038 20.0707 149.957 18.9687 148.389 18.9687C146.821 18.9687 145.75 20.0707 145.75 21.7025ZM146.556 21.7025C146.556 20.5263 147.287 19.6892 148.389 19.6892C149.491 19.6892 150.222 20.4945 150.222 21.7025C150.222 22.8998 149.491 23.7157 148.389 23.7157C147.287 23.7157 146.556 22.9316 146.556 21.7025ZM151.97 17.4959C151.97 17.8879 152.257 18.174 152.649 18.174C153.041 18.174 153.337 17.8879 153.337 17.4959C153.337 17.1144 153.041 16.8284 152.649 16.8284C152.257 16.8284 151.97 17.1144 151.97 17.4959ZM153.062 19.1171H152.246V24.2878H153.062V19.1171ZM154.595 19.1171V24.2878H155.411V21.6707C155.411 20.378 156.121 19.7104 157.117 19.7104C158.007 19.7104 158.568 20.1661 158.568 21.2044V24.2878H159.374V21.1515C159.374 19.7634 158.462 19.0111 157.329 19.0111C156.258 19.0111 155.739 19.4985 155.496 19.9859H155.39V19.1171H154.595ZM160.201 19.1171V19.7952H161.811V24.2878H162.627V19.7952H164.269V19.1171H162.627V17.8668C162.627 17.6548 162.733 17.5489 162.924 17.5489H164.026V16.8707H162.659C162.14 16.8707 161.811 17.1992 161.811 17.7396V19.1171H160.201ZM164.945 21.7025C164.945 23.3236 166.015 24.4362 167.583 24.4362C169.152 24.4362 170.232 23.3236 170.232 21.7025C170.232 20.0707 169.152 18.9687 167.583 18.9687C166.015 18.9687 164.945 20.0707 164.945 21.7025ZM165.75 21.7025C165.75 20.5263 166.481 19.6892 167.583 19.6892C168.685 19.6892 169.416 20.4945 169.416 21.7025C169.416 22.8998 168.685 23.7157 167.583 23.7157C166.481 23.7157 165.75 22.9316 165.75 21.7025ZM172.235 19.1171H171.441V24.2878H172.256V21.1091C172.256 20.219 172.744 19.8058 173.507 19.8058H174.344V19.0959H173.634C172.945 19.0959 172.543 19.2972 172.341 19.7952H172.235V19.1171ZM175.311 19.1171V24.2878H176.126V21.1621C176.126 20.219 176.677 19.7104 177.43 19.7104C178.171 19.7104 178.595 20.1555 178.595 20.8442V24.2878H179.411V21.1621C179.411 20.219 179.962 19.7104 180.725 19.7104C181.456 19.7104 181.891 20.1555 181.891 20.8442V24.2878H182.696V20.7806C182.696 19.6892 181.965 19.0111 180.948 19.0111C180.111 19.0111 179.623 19.382 179.326 19.9541H179.22C178.998 19.4243 178.5 19.0111 177.695 19.0111C176.921 19.0111 176.455 19.3396 176.211 19.7952H176.105V19.1171H175.311ZM184.019 20.5475L184.782 20.7806C184.941 20.1237 185.418 19.6575 186.266 19.6575C187.124 19.6575 187.558 20.1237 187.558 20.8654V21.2468H185.789C184.687 21.2468 183.861 21.766 183.861 22.815C183.861 23.8534 184.687 24.4362 185.768 24.4362C186.785 24.4362 187.23 23.9594 187.463 23.5461H187.58V24.2878H188.364V20.9078C188.364 19.6892 187.58 18.9687 186.266 18.9687C184.963 18.9687 184.263 19.6786 184.019 20.5475ZM184.666 22.8044C184.666 22.2216 185.153 21.9144 185.821 21.9144H187.558V22.0415C187.558 23.1117 186.88 23.758 185.884 23.758C185.153 23.758 184.666 23.3872 184.666 22.8044ZM189.088 19.7952H190.688V23.419C190.688 23.9594 191.017 24.2878 191.536 24.2878H192.967V23.6097H191.79C191.6 23.6097 191.494 23.5037 191.494 23.2918V19.7952H193.2V19.1171H191.494V17.2628H190.688V19.1171H189.088V19.7952ZM194.075 17.4959C194.075 17.8879 194.361 18.174 194.753 18.174C195.145 18.174 195.441 17.8879 195.441 17.4959C195.441 17.1144 195.145 16.8284 194.753 16.8284C194.361 16.8284 194.075 17.1144 194.075 17.4959ZM195.166 19.1171H194.35V24.2878H195.166V19.1171ZM196.37 21.7025C196.37 23.3024 197.547 24.4362 199.051 24.4362C200.46 24.4362 201.298 23.5673 201.531 22.4654L200.736 22.2852C200.598 23.1117 200.058 23.7157 199.062 23.7157C198.002 23.7157 197.197 22.8892 197.197 21.7025C197.197 20.5157 197.992 19.6892 199.051 19.6892C199.994 19.6892 200.598 20.272 200.704 21.1091L201.499 20.9396C201.319 19.8482 200.429 18.9687 199.041 18.9687C197.547 18.9687 196.37 20.0919 196.37 21.7025ZM202.543 20.4521C202.543 21.374 203.305 21.7872 204.28 21.9462L204.81 22.0203C205.562 22.1475 206.007 22.3594 206.007 22.8786C206.007 23.419 205.509 23.7792 204.715 23.7792C203.92 23.7792 203.242 23.4508 203.072 22.3912L202.299 22.5713C202.49 23.8534 203.433 24.4362 204.715 24.4362C205.976 24.4362 206.802 23.8428 206.802 22.8362C206.802 21.819 205.997 21.5011 204.937 21.321L204.407 21.2468C203.793 21.1409 203.348 20.929 203.348 20.431C203.348 19.9118 203.793 19.6257 204.503 19.6257C205.202 19.6257 205.721 19.9223 205.87 20.6853L206.622 20.4839C206.41 19.5303 205.668 18.9687 204.503 18.9687C203.305 18.9687 202.543 19.5303 202.543 20.4521ZM211.035 19.7316V21.427C211.035 23.3872 212.169 24.4362 213.939 24.4362C215.708 24.4362 216.842 23.3872 216.842 21.427V19.7316C216.842 17.7714 215.708 16.7224 213.939 16.7224C212.169 16.7224 211.035 17.7714 211.035 19.7316ZM211.894 19.6892C211.894 18.3224 212.646 17.4853 213.939 17.4853C215.221 17.4853 215.973 18.3224 215.973 19.6892V21.4693C215.973 22.8362 215.221 23.6627 213.939 23.6627C212.646 23.6627 211.894 22.8362 211.894 21.4693V19.6892ZM218.17 26.407H218.986V23.419H219.092C219.389 23.9276 219.95 24.4362 221.02 24.4362C222.377 24.4362 223.468 23.366 223.468 21.7025C223.468 20.0283 222.377 18.9687 221.02 18.9687C219.95 18.9687 219.389 19.4773 219.071 20.0071H218.965V19.1171H218.17V26.407ZM220.819 23.7157C219.749 23.7157 218.975 22.9422 218.975 21.7025C218.975 20.4627 219.749 19.6786 220.819 19.6786C221.9 19.6786 222.641 20.4521 222.641 21.7025C222.641 22.9528 221.9 23.7157 220.819 23.7157ZM224.34 21.6601C224.34 23.2494 225.399 24.4362 227.01 24.4362C228.419 24.4362 229.012 23.6415 229.341 23.0269L228.641 22.6667C228.366 23.2389 227.91 23.7157 227.01 23.7157C225.971 23.7157 225.251 23.0163 225.177 21.9568H229.426V21.5223C229.426 19.9435 228.398 18.9687 226.936 18.9687C225.431 18.9687 224.34 20.1025 224.34 21.6601ZM225.187 21.2786C225.304 20.3038 225.961 19.6892 226.936 19.6892C227.889 19.6892 228.535 20.2508 228.588 21.2786H225.187ZM230.587 19.1171V24.2878H231.403V21.6707C231.403 20.378 232.113 19.7104 233.109 19.7104C233.999 19.7104 234.56 20.1661 234.56 21.2044V24.2878H235.366V21.1515C235.366 19.7634 234.454 19.0111 233.321 19.0111C232.251 19.0111 231.731 19.4985 231.488 19.9859H231.382V19.1171H230.587ZM242.554 16.7224C241.06 16.7224 240.032 17.4959 240.032 18.7356C240.032 19.9859 240.891 20.4945 242.194 20.8018L242.755 20.9396C243.751 21.1727 244.408 21.4693 244.408 22.2852C244.408 23.1011 243.741 23.6733 242.575 23.6733C241.42 23.6733 240.626 23.0905 240.626 21.7978V21.7236H239.767V21.7978C239.767 23.5673 240.965 24.4362 242.575 24.4362C244.196 24.4362 245.256 23.5673 245.256 22.2746C245.256 20.9713 244.292 20.4839 243.01 20.1872L242.438 20.0495C241.452 19.8164 240.891 19.5409 240.891 18.725C240.891 17.9303 241.548 17.4853 242.554 17.4853C243.582 17.4853 244.334 17.9303 244.334 19.0111V19.3608H245.192V19.0111C245.192 17.4959 244.048 16.7224 242.554 16.7224ZM246.183 21.7025C246.183 23.3236 247.254 24.4362 248.822 24.4362C250.39 24.4362 251.471 23.3236 251.471 21.7025C251.471 20.0707 250.39 18.9687 248.822 18.9687C247.254 18.9687 246.183 20.0707 246.183 21.7025ZM246.989 21.7025C246.989 20.5263 247.72 19.6892 248.822 19.6892C249.924 19.6892 250.655 20.4945 250.655 21.7025C250.655 22.8998 249.924 23.7157 248.822 23.7157C247.72 23.7157 246.989 22.9316 246.989 21.7025ZM257.426 24.2878V19.1171H256.621V21.7342C256.621 23.0269 255.9 23.6945 254.915 23.6945C254.014 23.6945 253.452 23.2389 253.452 22.2005V19.1171H252.647V22.2534C252.647 23.6415 253.558 24.3832 254.692 24.3832C255.762 24.3832 256.282 23.9064 256.536 23.419H256.642V24.2878H257.426ZM259.765 19.1171H258.97V24.2878H259.786V21.1091C259.786 20.219 260.274 19.8058 261.036 19.8058H261.874V19.0959H261.164C260.475 19.0959 260.072 19.2972 259.871 19.7952H259.765V19.1171ZM262.243 21.7025C262.243 23.3024 263.419 24.4362 264.923 24.4362C266.333 24.4362 267.17 23.5673 267.403 22.4654L266.608 22.2852C266.47 23.1117 265.93 23.7157 264.934 23.7157C263.874 23.7157 263.069 22.8892 263.069 21.7025C263.069 20.5157 263.864 19.6892 264.923 19.6892C265.866 19.6892 266.47 20.272 266.576 21.1091L267.371 20.9396C267.191 19.8482 266.301 18.9687 264.913 18.9687C263.419 18.9687 262.243 20.0919 262.243 21.7025ZM268.244 21.6601C268.244 23.2494 269.304 24.4362 270.914 24.4362C272.323 24.4362 272.917 23.6415 273.245 23.0269L272.546 22.6667C272.27 23.2389 271.815 23.7157 270.914 23.7157C269.876 23.7157 269.155 23.0163 269.081 21.9568H273.33V21.5223C273.33 19.9435 272.302 18.9687 270.84 18.9687C269.335 18.9687 268.244 20.1025 268.244 21.6601ZM269.092 21.2786C269.208 20.3038 269.865 19.6892 270.84 19.6892C271.794 19.6892 272.44 20.2508 272.493 21.2786H269.092ZM136.947 33.3528C136.947 35.313 138.049 36.4362 139.872 36.4362C141.588 36.4362 142.627 35.4296 142.627 33.7978V33.5859H141.768V33.8084C141.768 34.9316 141.164 35.6627 139.872 35.6627C138.579 35.6627 137.805 34.815 137.805 33.374V31.7846C137.805 30.3436 138.568 29.4853 139.872 29.4853C141.101 29.4853 141.768 30.2482 141.768 31.3714V31.5409H142.627V31.382C142.627 29.7502 141.652 28.7224 139.872 28.7224C138.07 28.7224 136.947 29.8456 136.947 31.8058V33.3528ZM143.536 33.7025C143.536 35.3236 144.606 36.4362 146.174 36.4362C147.743 36.4362 148.823 35.3236 148.823 33.7025C148.823 32.0707 147.743 30.9687 146.174 30.9687C144.606 30.9687 143.536 32.0707 143.536 33.7025ZM144.341 33.7025C144.341 32.5263 145.072 31.6892 146.174 31.6892C147.276 31.6892 148.007 32.4945 148.007 33.7025C148.007 34.8998 147.276 35.7157 146.174 35.7157C145.072 35.7157 144.341 34.9316 144.341 33.7025ZM150.032 31.1171V36.2878H150.847V33.6707C150.847 32.378 151.557 31.7104 152.553 31.7104C153.443 31.7104 154.005 32.1661 154.005 33.2044V36.2878H154.81V33.1515C154.81 31.7634 153.899 31.0111 152.765 31.0111C151.695 31.0111 151.176 31.4985 150.932 31.9859H150.826V31.1171H150.032ZM155.637 31.1171V31.7952H157.248V36.2878H158.064V31.7952H159.706V31.1171H158.064V29.8668C158.064 29.6548 158.17 29.5489 158.361 29.5489H159.462V28.8707H158.096C157.576 28.8707 157.248 29.1992 157.248 29.7396V31.1171H155.637ZM160.371 33.6601C160.371 35.2494 161.431 36.4362 163.041 36.4362C164.451 36.4362 165.044 35.6415 165.372 35.0269L164.673 34.6667C164.398 35.2389 163.942 35.7157 163.041 35.7157C162.003 35.7157 161.282 35.0163 161.208 33.9568H165.457V33.5223C165.457 31.9435 164.429 30.9687 162.967 30.9687C161.463 30.9687 160.371 32.1025 160.371 33.6601ZM161.219 33.2786C161.335 32.3038 161.992 31.6892 162.967 31.6892C163.921 31.6892 164.567 32.2508 164.62 33.2786H161.219ZM167.413 31.1171H166.619V36.2878H167.435V33.1091C167.435 32.219 167.922 31.8058 168.685 31.8058H169.522V31.0959H168.812C168.123 31.0959 167.721 31.2972 167.519 31.7952H167.413V31.1171ZM169.881 33.6601C169.881 35.2494 170.94 36.4362 172.551 36.4362C173.96 36.4362 174.553 35.6415 174.882 35.0269L174.182 34.6667C173.907 35.2389 173.451 35.7157 172.551 35.7157C171.512 35.7157 170.792 35.0163 170.718 33.9568H174.967V33.5223C174.967 31.9435 173.939 30.9687 172.477 30.9687C170.972 30.9687 169.881 32.1025 169.881 33.6601ZM170.728 33.2786C170.845 32.3038 171.502 31.6892 172.477 31.6892C173.43 31.6892 174.077 32.2508 174.129 33.2786H170.728ZM176.128 31.1171V36.2878H176.944V33.6707C176.944 32.378 177.654 31.7104 178.65 31.7104C179.54 31.7104 180.101 32.1661 180.101 33.2044V36.2878H180.907V33.1515C180.907 31.7634 179.996 31.0111 178.862 31.0111C177.792 31.0111 177.272 31.4985 177.029 31.9859H176.923V31.1171H176.128ZM182.06 33.7025C182.06 35.3024 183.236 36.4362 184.741 36.4362C186.15 36.4362 186.987 35.5673 187.22 34.4654L186.425 34.2852C186.288 35.1117 185.747 35.7157 184.751 35.7157C183.692 35.7157 182.886 34.8892 182.886 33.7025C182.886 32.5157 183.681 31.6892 184.741 31.6892C185.684 31.6892 186.288 32.272 186.394 33.1091L187.188 32.9396C187.008 31.8482 186.118 30.9687 184.73 30.9687C183.236 30.9687 182.06 32.0919 182.06 33.7025ZM188.061 33.6601C188.061 35.2494 189.121 36.4362 190.731 36.4362C192.141 36.4362 192.734 35.6415 193.062 35.0269L192.363 34.6667C192.088 35.2389 191.632 35.7157 190.731 35.7157C189.693 35.7157 188.972 35.0163 188.898 33.9568H193.147V33.5223C193.147 31.9435 192.119 30.9687 190.657 30.9687C189.153 30.9687 188.061 32.1025 188.061 33.6601ZM188.909 33.2786C189.025 32.3038 189.682 31.6892 190.657 31.6892C191.611 31.6892 192.257 32.2508 192.31 33.2786H188.909ZM197.282 31.276V31.5303H198.14V31.3184C198.14 30.1211 198.903 29.4853 199.963 29.4853C200.98 29.4853 201.668 30.0893 201.668 31.1065C201.668 32.1131 200.937 32.6217 199.719 32.929C198.257 33.2892 197.25 33.8614 197.25 35.3766V36.2878H202.537V35.5143H198.129V35.2918C198.129 34.2111 198.85 33.9462 200.132 33.6071C201.647 33.215 202.537 32.4945 202.537 31.1171C202.537 29.6654 201.435 28.7224 199.963 28.7224C198.468 28.7224 197.282 29.6442 197.282 31.276ZM203.502 31.7422V33.4164C203.502 35.3978 204.52 36.4362 206.204 36.4362C207.889 36.4362 208.906 35.3978 208.906 33.4164V31.7422C208.906 29.782 207.889 28.7224 206.204 28.7224C204.52 28.7224 203.502 29.782 203.502 31.7422ZM204.361 31.6892C204.361 30.333 204.996 29.4853 206.204 29.4853C207.412 29.4853 208.048 30.3224 208.048 31.6892V33.4693C208.048 34.8256 207.455 35.6627 206.204 35.6627C204.975 35.6627 204.361 34.8468 204.361 33.4693V31.6892ZM209.937 31.276V31.5303H210.795V31.3184C210.795 30.1211 211.558 29.4853 212.618 29.4853C213.635 29.4853 214.323 30.0893 214.323 31.1065C214.323 32.1131 213.592 32.6217 212.374 32.929C210.912 33.2892 209.905 33.8614 209.905 35.3766V36.2878H215.192V35.5143H210.784V35.2918C210.784 34.2111 211.505 33.9462 212.787 33.6071C214.302 33.215 215.192 32.4945 215.192 31.1171C215.192 29.6654 214.09 28.7224 212.618 28.7224C211.124 28.7224 209.937 29.6442 209.937 31.276ZM217.757 28.8707L215.681 32.0813H216.645L218.118 29.8032H218.245V36.2878H219.103L219.114 28.8707H217.757Z" fill="#3F6D3A"/>
<path d="M57.6751 16.2371V36.1447H66.4913C69.904 36.1447 72.3782 34.1255 72.3782 30.7696C72.3782 27.8688 70.4444 26.6459 68.994 26.2478V25.9634C70.4444 25.5368 72.2929 24.3708 72.2929 21.4984C72.2929 18.2563 69.8756 16.2371 66.4344 16.2371H57.6751ZM60.9741 19.2233H66.0932C67.9133 19.2233 69.1362 20.2755 69.1362 21.925C69.1362 23.5745 67.9417 24.6552 66.0932 24.6552H60.9741V19.2233ZM60.9741 27.6129H66.0932C68.0555 27.6129 69.2215 28.6651 69.2215 30.3999C69.2215 32.0778 68.0555 33.1585 66.15 33.1585H60.9741V27.6129ZM74.4603 23.8304V28.5514C74.4603 33.6989 77.6171 36.5428 82.5371 36.5428C87.4571 36.5428 90.5854 33.6989 90.5854 28.5514V23.8304C90.5854 18.6829 87.4571 15.839 82.5371 15.839C77.6171 15.839 74.4603 18.6829 74.4603 23.8304ZM77.7593 23.7167C77.7593 20.7021 79.5225 18.7682 82.5371 18.7682C85.5232 18.7682 87.2864 20.7021 87.2864 23.7167V28.6651C87.2864 31.6797 85.5232 33.6136 82.5371 33.6136C79.5225 33.6136 77.7593 31.6797 77.7593 28.6651V23.7167ZM99.9597 15.839C95.7791 15.839 93.0489 17.9719 93.0489 21.5269C93.0489 25.0533 95.381 26.4469 99.334 27.3285L100.273 27.5275C102.861 28.1248 104.339 28.7789 104.339 30.599C104.339 32.3907 102.889 33.642 100.159 33.642C97.4002 33.642 95.6654 32.3338 95.6654 29.6036V29.3477H92.4233V29.6036C92.4233 34.0686 95.6369 36.5428 100.159 36.5428C104.681 36.5428 107.581 34.097 107.581 30.5137C107.581 26.9303 104.908 25.4799 100.927 24.6267L99.9881 24.3992C97.4855 23.8304 96.291 23.1195 96.291 21.4131C96.291 19.7352 97.5708 18.7398 99.9597 18.7398C102.405 18.7398 103.998 19.7352 103.998 22.2094V22.8351H107.24V22.2094C107.24 17.9719 104.14 15.839 99.9597 15.839ZM109.51 28.466C109.51 33.642 112.638 36.5428 117.586 36.5428C122.478 36.5428 125.322 33.7273 125.322 29.4045V28.722H122.051V29.4614C122.051 31.7934 120.572 33.6136 117.586 33.6136C114.629 33.6136 112.808 31.6797 112.808 28.5229V23.8589C112.808 20.7021 114.6 18.7682 117.586 18.7682C120.516 18.7682 122.051 20.6168 122.051 22.9488V23.4892H125.322V23.0057C125.322 18.6545 122.535 15.839 117.586 15.839C112.638 15.839 109.51 18.7398 109.51 23.9158V28.466Z" fill="#3F6D3A"/>
<path d="M131.199 17.4714V36.9451" stroke="#3F6D3A"/>
<defs>
<linearGradient id="paint0_linear" x1="16.7249" y1="44.9211" x2="14.7249" y2="6.42113" gradientUnits="userSpaceOnUse">
<stop stop-color="#F7EBB8"/>
<stop offset="1" stop-color="#FFFEF7"/>
</linearGradient>
<linearGradient id="paint1_linear" x1="36.1534" y1="30.1322" x2="16.7249" y2="48.9211" gradientUnits="userSpaceOnUse">
<stop stop-color="#3F6D3A"/>
<stop offset="1" stop-color="#2E482B"/>
</linearGradient>
</defs>
</svg>
