<svg width="64" height="64" viewBox="0 0 64 64" fill="none" xmlns="http://www.w3.org/2000/svg">
<rect width="64" height="64" fill="#3F6D3A"/>
<path d="M47.5129 35.3959C47.0129 32.9827 45.7964 30.7765 44.0225 29.0657C42.5644 27.7019 40.9388 26.529 39.1849 25.5753C37.5104 24.6689 35.9657 23.5412 34.5922 22.2226C34.1851 21.7692 33.8164 21.2828 33.49 20.7683C32.8905 19.7212 32.0477 18.8338 31.0329 18.1811C29.7541 17.5127 28.2717 17.3461 26.8765 17.7141C25.7483 17.8846 24.7018 18.4038 23.8836 19.1991C23.1258 18.2346 21.9547 16.3593 22.6513 14.7059C22.6951 14.6127 22.7197 14.5116 22.7235 14.4087C22.7274 14.3057 22.7104 14.2031 22.6736 14.1068C22.6368 14.0106 22.581 13.9228 22.5095 13.8487C22.438 13.7745 22.3522 13.7156 22.2574 13.6754C22.1625 13.6352 22.0605 13.6145 21.9575 13.6147C21.8545 13.6148 21.7526 13.6358 21.6579 13.6762C21.5631 13.7167 21.4775 13.7759 21.4062 13.8502C21.3349 13.9246 21.2793 14.0126 21.2428 14.1089C20.3243 16.2751 21.4878 18.5102 22.414 19.7655C22.019 19.8248 21.6379 19.9544 21.2888 20.1483C20.8727 20.3405 20.4798 20.5793 20.1176 20.8601C19.588 21.3394 19.1747 21.9334 18.9094 22.5966C18.6441 23.2599 18.5338 23.975 18.5868 24.6873C18.696 26.0218 19.0652 27.3219 19.6737 28.5146L19.9492 29.1116C20.3961 29.9901 20.7551 30.9105 21.0209 31.8596C21.2812 33.222 21.3251 34.6169 21.151 35.993C21.0594 36.975 21.0339 37.9621 21.0744 38.9476C21.2299 41.5112 22.1766 43.9636 23.7841 45.9667C24.9819 47.3801 26.4789 48.5096 28.1667 49.2735C29.8546 50.0373 31.6912 50.4164 33.5435 50.3833C35.6286 50.3821 37.6878 49.9222 39.5753 49.0362C42.3144 47.7174 44.5886 45.5981 46.0968 42.9585C47.4361 40.6798 47.937 38.0048 47.5129 35.3959ZM44.7726 42.1931C43.4231 44.5596 41.3864 46.4602 38.9323 47.643C33.9799 49.9623 28.1012 48.8524 24.9706 45.0252C23.5699 43.2766 22.7438 41.1378 22.6053 38.9017C22.5695 37.985 22.595 37.067 22.6819 36.1537C22.8687 34.6235 22.8119 33.0734 22.5135 31.561C22.2275 30.4986 21.8352 29.4677 21.3424 28.4839L21.0744 27.8946C20.5485 26.874 20.2236 25.7617 20.1176 24.6185C20.0853 24.1433 20.16 23.667 20.3362 23.2245C20.5124 22.7821 20.7856 22.3848 21.1357 22.0619C21.4107 21.8547 21.7056 21.6752 22.0159 21.5261C22.2461 21.3806 22.5096 21.2963 22.7814 21.2811H22.9728C23.3515 21.3179 23.733 21.249 24.075 21.0821L24.1898 21.0285L24.2893 20.9443C24.4992 20.7778 24.6892 20.5878 24.8557 20.3779L24.9553 20.2554C25.566 19.7135 26.3266 19.3692 27.1368 19.268C28.1609 18.9885 29.2524 19.1003 30.1986 19.5818C31.0015 20.1259 31.6671 20.8492 32.1428 21.6945C32.5167 22.28 32.9392 22.833 33.4058 23.3478C34.8835 24.7675 36.5469 25.9803 38.3505 26.9531C39.9926 27.8413 41.5152 28.9344 42.882 30.2062C44.4287 31.7034 45.4946 33.6274 45.9438 35.7327C46.3067 37.9568 45.8932 40.238 44.7726 42.1931Z" fill="white"/>
<mask id="mask0" mask-type="alpha" maskUnits="userSpaceOnUse" x="22" y="19" width="27" height="29">
<path d="M41.2028 20.2053C41.3609 20.7325 41.5191 21.3125 40.9919 21.0489C40.0955 20.5744 38.9356 20.0471 39.3047 20.4162C39.6737 20.7853 39.8319 21.2071 39.2519 21.1543C38.6719 21.1016 37.6174 20.9434 37.1429 21.6289C36.6684 22.3143 36.0357 22.1561 35.8775 22.4197C35.7193 22.6834 35.4557 23.7906 34.9812 23.4215C34.5066 23.1052 33.5576 21.8925 34.3485 22.2088C35.1393 22.5252 36.0357 22.1561 35.2975 21.3125C34.5594 20.4689 33.8212 20.7853 33.5049 20.3107C33.1885 19.8362 32.134 19.2562 31.3431 20.4162C30.605 21.5761 29.9195 23.1052 29.4977 23.4215C29.0759 23.7379 28.1796 24.3179 28.3378 24.7924C28.4432 25.2669 28.4959 26.3742 28.9705 26.0578C29.445 25.7415 29.7086 25.5833 29.9195 25.8996C30.0777 26.216 30.025 26.8487 30.394 26.8487C30.394 26.8487 31.1322 26.3214 31.1849 25.8469C31.2377 25.3724 30.6577 25.1087 31.0795 24.4233C31.5013 23.7379 32.4503 22.4197 32.2394 23.1052C32.0285 23.7379 31.554 24.6869 31.9231 25.1087C32.2394 25.5306 34.0848 25.0033 33.2412 25.4251C32.3976 25.8469 31.9758 26.1633 31.8176 26.6905C31.6595 27.2178 31.5013 27.6396 31.0795 27.4287C30.6577 27.2178 30.1304 27.3232 29.9195 27.3232C29.7086 27.3232 29.6032 26.3742 29.2341 26.5851C28.9177 26.796 29.3395 27.4814 28.9705 27.5341C28.6014 27.5868 28.5487 28.0086 28.1269 28.325C27.705 28.6414 27.1251 29.2741 26.756 29.3268C26.3869 29.3795 27.336 29.854 27.1778 30.2758C27.0196 30.7504 26.176 30.6976 25.8597 30.7504C25.5433 30.8031 25.8069 31.4358 25.6488 31.8049C25.4906 32.174 25.8069 32.543 26.3342 32.543C26.8614 32.543 27.3887 32.4376 27.4414 31.9631C27.4941 31.4885 27.9687 30.6976 28.3378 30.8558C28.6541 31.014 29.445 30.5395 29.6032 30.8031C29.7613 31.0667 30.7631 31.9631 30.6577 32.0685C30.5522 32.174 29.9722 32.4376 30.1831 32.543C30.1831 32.543 30.3413 32.8067 30.4468 32.7539C30.5522 32.7012 30.8159 32.0158 30.974 31.9103C31.1322 31.8049 31.1322 31.4358 30.9213 31.2776C30.6577 31.1195 29.7613 30.4867 29.9722 30.1704C30.1831 29.854 30.6577 30.5395 30.8686 30.7504C31.0795 30.9613 31.3958 31.2249 31.3958 31.6994C31.3958 32.174 31.7122 32.174 31.7122 32.3849C31.7649 32.6485 31.8704 32.7012 32.134 32.7012C32.3976 32.6485 32.5031 32.0685 32.3976 31.9103C32.2394 31.7522 32.2394 31.4358 32.5558 31.4358C32.8721 31.4358 33.2412 31.1722 33.2412 31.014C33.2412 30.8558 33.5576 29.9068 33.7685 29.9068C33.9794 29.9068 34.1376 30.2758 34.1903 30.4867C34.2957 30.6976 34.823 30.3286 34.7175 30.1177C34.6121 29.9068 34.7703 29.854 34.9284 29.854C35.0866 29.854 34.9812 30.2758 35.0866 30.3813C35.2448 30.4867 35.983 30.9613 35.7193 31.2249C35.4557 31.4885 35.0866 31.3304 34.823 31.1195C34.5594 30.9086 33.8739 31.014 33.663 31.2249C33.5049 31.4358 33.3467 31.5413 33.0303 31.5413C32.714 31.5413 32.7667 32.1212 33.0303 32.3321C33.2939 32.5958 33.663 32.3849 33.9267 32.543C34.1903 32.7012 34.6121 32.3321 34.6648 32.5958C34.7175 32.8594 34.6121 33.6503 34.3485 33.703C34.0848 33.7557 33.2412 33.9139 32.6612 33.6503C32.0285 33.3866 31.4486 33.2812 31.3958 33.5448C31.3431 33.8612 31.3431 34.0721 30.9213 33.8085C30.4995 33.5448 30.1304 33.3866 29.8668 33.3866C29.6032 33.3866 29.6032 32.9121 29.6559 32.543C29.7086 32.174 29.0232 32.2794 28.6014 32.3849C28.1796 32.4903 27.336 32.7539 26.8087 32.7539C26.2815 32.7539 26.0706 32.8594 25.9651 33.0703C25.8597 33.2812 25.3851 33.2812 25.3851 33.703C25.3851 34.1248 25.4379 34.2303 25.016 34.4412C24.5415 34.5993 24.4361 35.4429 24.2252 35.6538C24.0143 35.8647 24.4361 36.392 24.2252 36.7084C24.0143 36.972 23.8034 37.7101 24.1724 37.8683C24.5415 38.0265 24.9106 38.7646 25.0688 39.0283C25.227 39.2919 25.8069 39.5555 26.3869 39.4501C26.9669 39.3446 28.0214 39.0283 28.6014 39.2919C29.1814 39.5555 29.7613 39.5028 29.4977 40.0301C29.1814 40.5573 29.6559 41.2427 30.025 41.6118C30.394 41.9809 30.2886 42.93 30.0777 43.1936C29.8668 43.5099 29.9195 44.0372 30.1304 44.3008C30.3413 44.5645 30.4468 45.1972 30.4468 45.4081C30.4468 45.6717 30.8686 46.1462 30.9213 46.6207C30.974 47.148 30.605 47.728 31.0795 47.728C31.554 47.728 32.7667 47.7807 32.8721 47.5698C32.9776 47.3589 33.9267 46.5153 34.1903 46.1462C34.4539 45.7771 34.9812 45.1444 34.823 44.7754C34.5066 44.5117 34.7175 44.2481 35.2448 44.0372C35.772 43.8263 35.772 42.35 35.5084 41.9809C35.2448 41.6118 35.7193 40.7155 36.2993 40.4519C36.8793 40.1882 38.2501 37.7629 37.8283 37.9738C37.3538 38.1847 36.4575 38.3428 36.1411 38.1319C35.8248 37.921 33.9794 34.7575 34.243 34.5466C34.5066 34.3357 35.983 37.4465 36.2466 37.8156C36.5102 38.2374 38.9883 36.7084 39.3047 36.3393C39.5683 35.9702 39.1465 35.6011 38.9883 35.6011C38.8301 35.6011 38.2501 35.232 38.092 35.4429C37.9338 35.6538 36.8793 33.9139 37.2484 34.0721C37.6174 34.2303 38.4083 34.7575 39.1465 35.1793C39.8846 35.6011 40.7282 34.9157 41.2028 35.7066C41.73 36.4975 42.0464 35.9702 41.9937 36.3393C41.9409 36.7084 42.6264 38.2374 42.89 38.7119C43.1009 39.1865 43.5754 38.501 43.6281 37.9738C43.6809 37.3938 44.7881 36.4975 45.2099 36.1811C45.579 35.8647 46.3171 36.3393 46.4226 36.972C46.528 37.6047 47.0553 36.8665 47.0553 37.3411C47.0553 37.8683 46.9499 38.5537 47.3189 39.1865C48.0571 37.3411 48.4262 35.4957 48.4262 33.4921C48.4262 27.9032 45.5263 22.9997 41.2028 20.2053" fill="white"/>
<path d="M24.3834 22.2088C24.067 22.3143 23.7507 22.6834 23.3288 22.4725C22.907 22.2616 22.0107 22.5779 22.5907 23.0525C23.1179 23.5797 22.907 23.8961 23.4343 23.9488C23.9616 24.0015 24.2779 23.2634 24.647 23.3161C25.0161 23.3688 24.7524 22.1034 24.3834 22.2088Z" fill="white"/>
<path d="M37.1956 42.8245C36.8266 42.8772 36.932 43.6154 36.5102 43.7208C36.1411 43.8263 36.4575 44.1426 36.2466 44.4063C36.0884 44.6699 35.983 45.3026 36.2466 45.619C36.5102 45.988 36.6157 45.988 36.932 45.4081C37.2484 44.8808 37.9865 42.7718 37.1956 42.8245Z" fill="white"/>
<path d="M26.5978 25.7415C26.4397 25.7415 26.2815 25.8469 26.1233 25.8469C25.9651 25.8996 25.8597 26.1105 25.8597 26.3214C25.8597 26.5851 26.2815 26.6378 26.1233 26.796C25.9651 26.9541 25.1215 27.1123 25.227 27.3759C25.3324 27.6396 25.4906 27.8505 25.3324 28.1141C25.1742 28.3777 25.4906 28.4305 25.807 28.325C26.1233 28.2196 26.3342 27.8505 26.2815 27.6396C26.2288 27.3759 26.756 27.3232 26.5978 27.5341C26.4397 27.745 26.176 28.2723 26.3342 28.4305C26.4924 28.5886 25.9124 28.8523 26.1233 28.9577C26.3342 29.0632 26.9142 28.5359 27.2305 28.6414C27.5469 28.7468 27.6523 28.5359 27.7051 28.2723C27.7578 27.9559 27.2833 27.5868 27.1251 27.2178C26.9669 26.796 27.0724 25.7415 26.5978 25.7415" fill="white"/>
</mask>
<g mask="url(#mask0)">
<path d="M38.9396 47.5259C41.3937 46.3431 43.4305 44.4424 44.78 42.0759C45.9005 40.1208 46.3141 37.8396 45.9511 35.6155C45.502 33.5102 44.4361 31.5863 42.8893 30.089C41.5226 28.8173 39.9999 27.7242 38.3579 26.8359C36.5543 25.8631 34.8909 24.6503 33.4131 23.2306C32.9466 22.7158 32.5241 22.1628 32.1501 21.5773C31.6744 20.732 31.0089 20.0088 30.2059 19.4646C29.2598 18.9832 28.1682 18.8713 27.1441 19.1508C26.3339 19.252 25.5733 19.5963 24.9626 20.1382L24.8631 20.2607C24.6966 20.4706 24.5065 20.6606 24.2967 20.8271L24.1972 20.9113L24.0823 20.9649C23.7404 21.1318 23.3588 21.2007 22.9801 21.1639H22.7887C22.5169 21.1791 22.2534 21.2634 22.0233 21.4089C21.7129 21.558 21.4181 21.7375 21.143 21.9447C20.7929 22.2676 20.5198 22.6649 20.3436 23.1073C20.1674 23.5498 20.0927 24.0261 20.125 24.5013C20.231 25.6445 20.5558 26.7568 21.0818 27.7774L21.3497 28.3668C21.8425 29.3505 22.2349 30.3814 22.5208 31.4439C22.8192 32.9562 22.8761 34.5064 22.6892 36.0365C22.6024 36.9498 22.5768 37.8678 22.6127 38.7845C22.7511 41.0207 23.5772 43.1594 24.9779 44.908C28.1086 48.7353 33.9872 49.8452 38.9396 47.5259Z" fill="white"/>
</g>
<path d="M22.3554 19.7382C21.4292 18.4829 20.3269 16.2751 21.2454 14.1089C21.2819 14.0126 21.3375 13.9246 21.4088 13.8502C21.4801 13.7759 21.5657 13.7167 21.6605 13.6762C21.7552 13.6358 21.8571 13.6148 21.9601 13.6147C22.0631 13.6145 22.1651 13.6352 22.26 13.6754C22.3548 13.7156 22.4406 13.7745 22.5121 13.8487C22.5836 13.9228 22.6394 14.0106 22.6762 14.1068C22.713 14.2031 22.73 14.3057 22.7261 14.4087C22.7223 14.5116 22.6977 14.6127 22.6539 14.7059C21.9573 16.3593 23.1285 18.0083 23.8862 18.9728C23.8862 18.9728 24.2065 19.5343 23.5518 19.7655C23.0114 19.9564 22.7381 20.121 22.3554 19.7382Z" fill="white"/>
</svg>
