<svg width="145" height="51" viewBox="0 0 145 51" fill="none" xmlns="http://www.w3.org/2000/svg">
<path d="M50.615 16.0654V37.0654H59.915C63.515 37.0654 66.125 34.9354 66.125 31.3954C66.125 28.3354 64.085 27.0454 62.555 26.6254V26.3254C64.085 25.8754 66.035 24.6454 66.035 21.6154C66.035 18.1954 63.485 16.0654 59.855 16.0654H50.615ZM54.095 19.2154H59.495C61.415 19.2154 62.705 20.3254 62.705 22.0654C62.705 23.8054 61.445 24.9454 59.495 24.9454H54.095V19.2154ZM54.095 28.0654H59.495C61.565 28.0654 62.795 29.1754 62.795 31.0054C62.795 32.7754 61.565 33.9154 59.555 33.9154H54.095V28.0654ZM68.3213 24.0754V29.0554C68.3213 34.4854 71.6513 37.4854 76.8413 37.4854C82.0313 37.4854 85.3313 34.4854 85.3313 29.0554V24.0754C85.3313 18.6454 82.0313 15.6454 76.8413 15.6454C71.6513 15.6454 68.3213 18.6454 68.3213 24.0754ZM71.8013 23.9554C71.8013 20.7754 73.6613 18.7354 76.8413 18.7354C79.9913 18.7354 81.8513 20.7754 81.8513 23.9554V29.1754C81.8513 32.3554 79.9913 34.3954 76.8413 34.3954C73.6613 34.3954 71.8013 32.3554 71.8013 29.1754V23.9554ZM95.22 15.6454C90.81 15.6454 87.93 17.8954 87.93 21.6454C87.93 25.3654 90.39 26.8354 94.56 27.7654L95.55 27.9754C98.28 28.6054 99.84 29.2954 99.84 31.2154C99.84 33.1054 98.31 34.4254 95.43 34.4254C92.52 34.4254 90.69 33.0454 90.69 30.1654V29.8954H87.27V30.1654C87.27 34.8754 90.66 37.4854 95.43 37.4854C100.2 37.4854 103.26 34.9054 103.26 31.1254C103.26 27.3454 100.44 25.8154 96.24 24.9154L95.25 24.6754C92.61 24.0754 91.35 23.3254 91.35 21.5254C91.35 19.7554 92.7 18.7054 95.22 18.7054C97.8 18.7054 99.48 19.7554 99.48 22.3654V23.0254H102.9V22.3654C102.9 17.8954 99.63 15.6454 95.22 15.6454ZM105.294 28.9654C105.294 34.4254 108.594 37.4854 113.814 37.4854C118.974 37.4854 121.974 34.5154 121.974 29.9554V29.2354H118.524V30.0154C118.524 32.4754 116.964 34.3954 113.814 34.3954C110.694 34.3954 108.774 32.3554 108.774 29.0254V24.1054C108.774 20.7754 110.664 18.7354 113.814 18.7354C116.904 18.7354 118.524 20.6854 118.524 23.1454V23.7154H121.974V23.2054C121.974 18.6154 119.034 15.6454 113.814 15.6454C108.594 15.6454 105.294 18.7054 105.294 24.1654V28.9654Z" fill="#3F6D3A"/>
<path d="M27.264 45.2237C30.4701 43.6784 33.131 41.1954 34.894 38.1037C36.3579 35.5495 36.8982 32.5693 36.424 29.6637C35.8372 26.9132 34.4447 24.3997 32.424 22.4437C30.6384 20.7823 28.6492 19.3542 26.504 18.1937C24.1477 16.9229 21.9746 15.3384 20.044 13.4837C19.4345 12.8112 18.8826 12.0886 18.394 11.3237C17.7725 10.2194 16.903 9.27455 15.854 8.5637C14.6179 7.93469 13.1919 7.78852 11.854 8.1537C10.7955 8.28593 9.80187 8.73568 9.00399 9.4437L8.87399 9.60371C8.65647 9.87789 8.40818 10.1262 8.13399 10.3437L8.00399 10.4537L7.85399 10.5237C7.40724 10.7418 6.9088 10.8318 6.41399 10.7837H6.16399C5.80886 10.8035 5.46466 10.9137 5.16399 11.1037C4.75851 11.2985 4.3733 11.533 4.01399 11.8037C3.55664 12.2255 3.19974 12.7446 2.96957 13.3226C2.73939 13.9006 2.6418 14.523 2.68399 15.1437C2.82245 16.6373 3.24682 18.0904 3.93399 19.4237L4.28399 20.1937C4.92783 21.4789 5.44042 22.8257 5.814 24.2137C6.20385 26.1895 6.27811 28.2146 6.03399 30.2137C5.92055 31.4068 5.88714 32.6061 5.93399 33.8037C6.11487 36.7251 7.1941 39.5192 9.024 41.8037C13.114 46.8037 20.794 48.2537 27.264 45.2237Z" fill="url(#paint0_linear)"/>
<path d="M38.4645 29.3768C37.8112 26.2241 36.2219 23.3419 33.9045 21.1068C31.9996 19.3251 29.8759 17.7928 27.5845 16.5468C25.3969 15.3627 23.3788 13.8895 21.5845 12.1668C21.0526 11.5745 20.5709 10.939 20.1445 10.2668C19.3612 8.89883 18.2602 7.7395 16.9345 6.8868C15.2638 6.01359 13.3272 5.79604 11.5045 6.2768C10.0306 6.49947 8.66334 7.17784 7.59446 8.2168C6.60446 6.9568 5.07446 4.5068 5.98446 2.3468C6.04175 2.22502 6.07386 2.09293 6.07888 1.95844C6.0839 1.82395 6.06172 1.68983 6.01367 1.56412C5.96562 1.43841 5.89269 1.32369 5.79925 1.22683C5.70581 1.12998 5.59378 1.05298 5.46987 1.00045C5.34596 0.947925 5.21273 0.920951 5.07814 0.921144C4.94356 0.921337 4.8104 0.948693 4.68665 1.00158C4.56289 1.05446 4.45108 1.13178 4.35791 1.2289C4.26475 1.32602 4.19215 1.44095 4.14446 1.5668C2.94446 4.3968 4.46446 7.3168 5.67446 8.9568C5.15849 9.03417 4.6606 9.20352 4.20446 9.4568C3.66091 9.70789 3.14762 10.0199 2.67446 10.3868C1.98248 11.013 1.44261 11.7889 1.09601 12.6554C0.749408 13.5219 0.605229 14.4561 0.674462 15.3868C0.817174 17.1301 1.29957 18.8287 2.09446 20.3868L2.45446 21.1668C3.03827 22.3144 3.50722 23.5169 3.85446 24.7568C4.19457 26.5367 4.25194 28.3591 4.02446 30.1568C3.90485 31.4398 3.87144 32.7293 3.92446 34.0168C4.12757 37.366 5.36438 40.5699 7.46446 43.1868C9.02925 45.0333 10.9849 46.5089 13.19 47.5069C15.3951 48.5048 17.7945 49 20.2145 48.9568C22.9384 48.9552 25.6287 48.3543 28.0945 47.1968C31.673 45.474 34.644 42.7052 36.6145 39.2568C38.3641 36.2798 39.0184 32.7851 38.4645 29.3768ZM34.8845 38.2568C33.1214 41.3485 30.4606 43.8315 27.2545 45.3768C20.7845 48.4068 13.1045 46.9568 9.01446 41.9568C7.18457 39.6723 6.10534 36.8782 5.92446 33.9568C5.87761 32.7592 5.91102 31.5599 6.02446 30.3668C6.26858 28.3677 6.19432 26.3426 5.80446 24.3668C5.4309 22.9788 4.9183 21.632 4.27446 20.3468L3.92446 19.5768C3.23729 18.2435 2.81292 16.7904 2.67446 15.2968C2.63227 14.6761 2.72986 14.0537 2.96003 13.4757C3.19021 12.8977 3.54711 12.3786 4.00446 11.9568C4.36377 11.6861 4.74898 11.4516 5.15446 11.2568C5.45514 11.0668 5.79933 10.9566 6.15446 10.9368H6.40446C6.89927 10.9849 7.39771 10.8949 7.84446 10.6768L7.99446 10.6068L8.12446 10.4968C8.39865 10.2793 8.64695 10.031 8.86446 9.7568L8.99446 9.5968C9.79234 8.88878 10.786 8.43903 11.8445 8.3068C13.1824 7.94162 14.6084 8.08779 15.8445 8.7168C16.8935 9.42765 17.763 10.3725 18.3845 11.4768C18.873 12.2417 19.425 12.9643 20.0345 13.6368C21.965 15.4915 24.1382 17.076 26.4945 18.3468C28.6397 19.5073 30.6289 20.9353 32.4145 22.5968C34.4352 24.5528 35.8277 27.0663 36.4145 29.8168C36.8887 32.7224 36.3484 35.7026 34.8845 38.2568Z" fill="url(#paint1_linear)"/>
<mask id="mask0" mask-type="alpha" maskUnits="userSpaceOnUse" x="5" y="8" width="35" height="38">
<path d="M30.2207 9.5313C30.4273 10.2201 30.634 10.9778 29.9452 10.6334C28.7742 10.0135 27.2588 9.32465 27.7409 9.80683C28.2231 10.289 28.4298 10.8401 27.6721 10.7712C26.9144 10.7023 25.5367 10.4956 24.9168 11.3911C24.2968 12.2866 23.4702 12.0799 23.2636 12.4243C23.057 12.7688 22.7125 14.2153 22.0926 13.7331C21.4727 13.3198 20.2328 11.7355 21.266 12.1488C22.2993 12.5621 23.4702 12.0799 22.5059 10.9778C21.5415 9.87571 20.5772 10.289 20.1639 9.66906C19.7506 9.04913 18.373 8.29142 17.3397 9.80683C16.3754 11.3222 15.4799 13.3198 14.9289 13.7331C14.3778 14.1464 13.2068 14.9041 13.4135 15.524C13.5512 16.144 13.6201 17.5905 14.24 17.1772C14.86 16.7639 15.2044 16.5573 15.4799 16.9706C15.6866 17.3839 15.6177 18.2104 16.0999 18.2104C16.0999 18.2104 17.0642 17.5216 17.1331 16.9017C17.202 16.2817 16.4443 15.9373 16.9953 15.0419C17.5464 14.1464 18.7863 12.4243 18.5107 13.3198C18.2352 14.1464 17.6153 15.3863 18.0974 15.9373C18.5107 16.4884 20.9216 15.7996 19.8195 16.3506C18.7174 16.9017 18.1663 17.315 17.9597 18.0038C17.753 18.6926 17.5464 19.2437 16.9953 18.9682C16.4443 18.6926 15.7554 18.8304 15.4799 18.8304C15.2044 18.8304 15.0666 17.5905 14.5845 17.866C14.1712 18.1416 14.7222 19.037 14.24 19.1059C13.7579 19.1748 13.689 19.7259 13.1379 20.1391C12.5869 20.5524 11.8292 21.379 11.347 21.4479C10.8648 21.5168 12.1047 22.1367 11.8981 22.6878C11.6914 23.3077 10.5893 23.2388 10.176 23.3077C9.7627 23.3766 10.1071 24.2032 9.90047 24.6854C9.69382 25.1675 10.1071 25.6497 10.7959 25.6497C11.4848 25.6497 12.1736 25.512 12.2425 24.892C12.3113 24.2721 12.9313 23.2388 13.4135 23.4455C13.8267 23.6521 14.86 23.0322 15.0666 23.3766C15.2733 23.721 16.582 24.892 16.4443 25.0298C16.3065 25.1675 15.5488 25.512 15.8243 25.6497C15.8243 25.6497 16.031 25.9941 16.1687 25.9252C16.3065 25.8564 16.6509 24.9609 16.8576 24.8231C17.0642 24.6854 17.0642 24.2032 16.7887 23.9965C16.4443 23.7899 15.2733 22.9633 15.5488 22.55C15.8243 22.1367 16.4443 23.0322 16.7198 23.3077C16.9953 23.5833 17.4086 23.9277 17.4086 24.5476C17.4086 25.1675 17.8219 25.1675 17.8219 25.4431C17.8908 25.7875 18.0286 25.8564 18.373 25.8564C18.7174 25.7875 18.8551 25.0298 18.7174 24.8231C18.5107 24.6165 18.5107 24.2032 18.924 24.2032C19.3373 24.2032 19.8195 23.8588 19.8195 23.6521C19.8195 23.4455 20.2328 22.2056 20.5083 22.2056C20.7838 22.2056 20.9905 22.6878 21.0594 22.9633C21.1971 23.2388 21.886 22.7567 21.7482 22.4811C21.6104 22.2056 21.8171 22.1367 22.0237 22.1367C22.2304 22.1367 22.0926 22.6878 22.2304 22.8255C22.437 22.9633 23.4014 23.5833 23.057 23.9277C22.7125 24.2721 22.2304 24.0654 21.886 23.7899C21.5415 23.5144 20.6461 23.6521 20.3706 23.9277C20.1639 24.2032 19.9573 24.341 19.544 24.341C19.1307 24.341 19.1996 25.0987 19.544 25.3742C19.8884 25.7186 20.3706 25.4431 20.715 25.6497C21.0594 25.8564 21.6104 25.3742 21.6793 25.7186C21.7482 26.063 21.6104 27.0962 21.266 27.1651C20.9216 27.234 19.8195 27.4407 19.0618 27.0962C18.2352 26.7518 17.4775 26.6141 17.4086 26.9585C17.3397 27.3718 17.3397 27.6473 16.7887 27.3029C16.2376 26.9585 15.7554 26.7518 15.411 26.7518C15.0666 26.7518 15.0666 26.1319 15.1355 25.6497C15.2044 25.1675 14.3089 25.3053 13.7579 25.4431C13.2068 25.5808 12.1047 25.9252 11.4159 25.9252C10.7271 25.9252 10.4515 26.063 10.3138 26.3385C10.176 26.6141 9.55606 26.6141 9.55606 27.1651C9.55606 27.7162 9.62494 27.8539 9.07388 28.1295C8.45394 28.3361 8.31618 29.4382 8.04065 29.7138C7.76512 29.9893 8.31618 30.6781 8.04065 31.0914C7.76512 31.4358 7.48959 32.4002 7.97177 32.6068C8.45394 32.8135 8.93612 33.7778 9.14277 34.1222C9.34941 34.4666 10.1071 34.811 10.8648 34.6733C11.6225 34.5355 13.0002 34.1222 13.7579 34.4666C14.5156 34.811 15.2733 34.7422 14.9289 35.431C14.5156 36.1198 15.1355 37.0153 15.6177 37.4974C16.0999 37.9796 15.9621 39.2195 15.6866 39.5639C15.411 39.9772 15.4799 40.666 15.7554 41.0104C16.031 41.3548 16.1687 42.1814 16.1687 42.457C16.1687 42.8014 16.7198 43.4213 16.7887 44.0412C16.8576 44.7301 16.3754 45.4878 16.9953 45.4878C17.6153 45.4878 19.1996 45.5566 19.3373 45.2811C19.4751 45.0056 20.715 43.9035 21.0594 43.4213C21.4038 42.9391 22.0926 42.1125 21.886 41.6304C21.4727 41.286 21.7482 40.9415 22.437 40.666C23.1258 40.3905 23.1258 38.4618 22.7814 37.9796C22.437 37.4974 23.057 36.3264 23.8147 35.982C24.5724 35.6376 26.3633 32.469 25.8122 32.7446C25.1923 33.0201 24.0213 33.2267 23.608 32.9512C23.1947 32.6757 20.7838 28.5428 21.1283 28.2672C21.4727 27.9917 23.4014 32.0558 23.7458 32.5379C24.0902 33.089 27.3276 31.0914 27.7409 30.6092C28.0853 30.1271 27.5343 29.6449 27.3276 29.6449C27.121 29.6449 26.3633 29.1627 26.1567 29.4382C25.95 29.7138 24.5724 27.4407 25.0545 27.6473C25.5367 27.8539 26.5699 28.5428 27.5343 29.0938C28.4986 29.6449 29.6008 28.7494 30.2207 29.7826C30.9095 30.8159 31.3228 30.1271 31.2539 30.6092C31.185 31.0914 32.0805 33.089 32.4249 33.7089C32.7005 34.3289 33.3204 33.4334 33.3893 32.7446C33.4582 31.9869 34.9047 30.8159 35.4557 30.4026C35.9379 29.9893 36.9023 30.6092 37.04 31.4358C37.1778 32.2624 37.8666 31.298 37.8666 31.918C37.8666 32.6068 37.7288 33.5023 38.211 34.3289C39.1754 31.918 39.6575 29.5071 39.6575 26.8896C39.6575 19.5881 35.869 13.1821 30.2207 9.5313" fill="#3F6D3A"/>
<path d="M8.24732 12.1488C7.83402 12.2866 7.42073 12.7688 6.86968 12.4932C6.31862 12.2177 5.14762 12.631 5.90533 13.2509C6.59415 13.9398 6.31862 14.353 7.00744 14.4219C7.69626 14.4908 8.10955 13.5265 8.59173 13.5953C9.0739 13.6642 8.72949 12.0111 8.24732 12.1488Z" fill="#3F6D3A"/>
<path d="M24.9857 39.0817C24.5035 39.1506 24.6413 40.1149 24.0902 40.2527C23.608 40.3905 24.0213 40.8038 23.7458 41.1482C23.5392 41.4926 23.4014 42.3192 23.7458 42.7325C24.0902 43.2146 24.228 43.2146 24.6413 42.4569C25.0546 41.7681 26.0189 39.0128 24.9857 39.0817Z" fill="#3F6D3A"/>
<path d="M11.1404 16.7639C10.9337 16.7639 10.7271 16.9017 10.5204 16.9017C10.3138 16.9706 10.176 17.2461 10.176 17.5216C10.176 17.866 10.7271 17.9349 10.5204 18.1416C10.3138 18.3482 9.21167 18.5549 9.34944 18.8993C9.4872 19.2437 9.69385 19.5192 9.4872 19.8636C9.28056 20.208 9.69385 20.2769 10.1071 20.1391C10.5204 20.0014 10.796 19.5192 10.7271 19.2437C10.6582 18.8993 11.347 18.8304 11.1404 19.1059C10.9337 19.3814 10.5893 20.0703 10.796 20.2769C11.0026 20.4836 10.2449 20.828 10.5204 20.9657C10.796 21.1035 11.5537 20.4147 11.967 20.5524C12.3803 20.6902 12.518 20.4147 12.5869 20.0703C12.6558 19.657 12.0358 19.1748 11.8292 18.6926C11.6225 18.1416 11.7603 16.7639 11.1404 16.7639" fill="#3F6D3A"/>
</mask>
<g mask="url(#mask0)">
<path d="M27.2641 45.2237C30.4702 43.6784 33.131 41.1954 34.8941 38.1037C36.358 35.5495 36.8983 32.5693 36.4241 29.6637C35.8373 26.9132 34.4448 24.3997 32.4241 22.4437C30.6385 20.7823 28.6493 19.3542 26.504 18.1937C24.1478 16.9229 21.9746 15.3384 20.0441 13.4837C19.4346 12.8112 18.8826 12.0886 18.3941 11.3237C17.7726 10.2194 16.9031 9.27455 15.8541 8.5637C14.618 7.93469 13.192 7.78852 11.8541 8.1537C10.7956 8.28593 9.80193 8.73568 9.00405 9.4437L8.87405 9.60371C8.65653 9.87789 8.40824 10.1262 8.13405 10.3437L8.00405 10.4537L7.85405 10.5237C7.4073 10.7418 6.90886 10.8318 6.41406 10.7837H6.16406C5.80892 10.8035 5.46472 10.9137 5.16406 11.1037C4.75857 11.2985 4.37336 11.533 4.01405 11.8037C3.5567 12.2255 3.1998 12.7446 2.96963 13.3226C2.73945 13.9006 2.64186 14.523 2.68405 15.1437C2.82251 16.6373 3.24688 18.0904 3.93405 19.4237L4.28405 20.1937C4.9279 21.4789 5.44048 22.8257 5.81406 24.2137C6.20391 26.1895 6.27817 28.2146 6.03405 30.2137C5.92061 31.4068 5.8872 32.6061 5.93405 33.8037C6.11493 36.7251 7.19416 39.5192 9.02406 41.8037C13.1141 46.8037 20.7941 48.2537 27.2641 45.2237Z" fill="#3F6D3A"/>
</g>
<path d="M5.59788 8.92114C4.38787 7.28114 2.94786 4.3968 4.14786 1.5668C4.19554 1.44095 4.26814 1.32602 4.36131 1.2289C4.45447 1.13178 4.56629 1.05446 4.69005 1.00158C4.8138 0.948693 4.94696 0.921338 5.08154 0.921144C5.21613 0.920953 5.34937 0.947927 5.47327 1.00045C5.59717 1.05298 5.7092 1.12998 5.80264 1.22683C5.89609 1.32369 5.96903 1.43841 6.01708 1.56412C6.06513 1.68983 6.0873 1.82395 6.08228 1.95844C6.07726 2.09293 6.04515 2.22502 5.98786 2.3468C5.07785 4.5068 6.60789 6.66114 7.59788 7.92114C7.59788 7.92114 8.01632 8.65477 7.16096 8.9568C6.4549 9.20611 6.09788 9.42114 5.59788 8.92114Z" fill="#65370E"/>
<defs>
<linearGradient id="paint0_linear" x1="16.6575" y1="44.9211" x2="14.6575" y2="6.42113" gradientUnits="userSpaceOnUse">
<stop stop-color="#F7EBB8"/>
<stop offset="1" stop-color="#FFFEF7"/>
</linearGradient>
<linearGradient id="paint1_linear" x1="36.086" y1="30.1322" x2="16.6576" y2="48.9211" gradientUnits="userSpaceOnUse">
<stop stop-color="#3F6D3A"/>
<stop offset="1" stop-color="#2E482B"/>
</linearGradient>
</defs>
</svg>
