<svg width="72" height="89" viewBox="0 0 72 89" fill="none" xmlns="http://www.w3.org/2000/svg">
<path d="M2.24504 58.6274V78.5349H11.0612C14.4739 78.5349 16.9482 76.5157 16.9482 73.1599C16.9482 70.2591 15.0143 69.0362 13.5639 68.6381V68.3537C15.0143 67.9271 16.8628 66.7611 16.8628 63.8887C16.8628 60.6466 14.4455 58.6274 11.0043 58.6274H2.24504ZM5.544 61.6135H10.6631C12.4832 61.6135 13.7061 62.6658 13.7061 64.3153C13.7061 65.9648 12.5116 67.0455 10.6631 67.0455H5.544V61.6135ZM5.544 70.0031H10.6631C12.6254 70.0031 13.7914 71.0554 13.7914 72.7902C13.7914 74.4681 12.6254 75.5488 10.72 75.5488H5.544V70.0031ZM19.0302 66.2207V70.9416C19.0302 76.0891 22.187 78.9331 27.107 78.9331C32.027 78.9331 35.1553 76.0891 35.1553 70.9416V66.2207C35.1553 61.0732 32.027 58.2293 27.107 58.2293C22.187 58.2293 19.0302 61.0732 19.0302 66.2207ZM22.3292 66.107C22.3292 63.0924 24.0924 61.1585 27.107 61.1585C30.0931 61.1585 31.8564 63.0924 31.8564 66.107V71.0554C31.8564 74.07 30.0931 76.0038 27.107 76.0038C24.0924 76.0038 22.3292 74.07 22.3292 71.0554V66.107ZM44.5296 58.2293C40.349 58.2293 37.6189 60.3622 37.6189 63.9171C37.6189 67.4436 39.9509 68.8371 43.9039 69.7187L44.8424 69.9178C47.4304 70.515 48.9093 71.1691 48.9093 72.9893C48.9093 74.7809 47.4589 76.0323 44.7287 76.0323C41.9701 76.0323 40.2353 74.7241 40.2353 71.9939V71.7379H36.9932V71.9939C36.9932 76.4589 40.2068 78.9331 44.7287 78.9331C49.2505 78.9331 52.1513 76.4873 52.1513 72.9039C52.1513 69.3206 49.4781 67.8702 45.4965 67.017L44.5581 66.7895C42.0554 66.2207 40.8609 65.5097 40.8609 63.8034C40.8609 62.1255 42.1407 61.1301 44.5296 61.1301C46.9754 61.1301 48.568 62.1255 48.568 64.5997V65.2253H51.8101V64.5997C51.8101 60.3622 48.7102 58.2293 44.5296 58.2293ZM54.0794 70.8563C54.0794 76.0323 57.2078 78.9331 62.1562 78.9331C67.0478 78.9331 69.8917 76.1176 69.8917 71.7948V71.1123H66.6212V71.8517C66.6212 74.1837 65.1423 76.0038 62.1562 76.0038C59.1985 76.0038 57.3784 74.07 57.3784 70.9132V66.2492C57.3784 63.0924 59.1701 61.1585 62.1562 61.1585C65.0854 61.1585 66.6212 63.0071 66.6212 65.3391V65.8794H69.8917V65.396C69.8917 61.0448 67.1046 58.2293 62.1562 58.2293C57.2078 58.2293 54.0794 61.1301 54.0794 66.306V70.8563Z" fill="black"/>
<path d="M54.2603 29.3235C53.607 26.1708 52.0177 23.2885 49.7003 21.0535C47.7954 19.2718 45.6717 17.7395 43.3803 16.4935C41.1927 15.3094 39.1746 13.8362 37.3803 12.1135C36.8484 11.5212 36.3667 10.8856 35.9403 10.2135C35.157 8.8455 34.056 7.68617 32.7303 6.83347C31.0596 5.96026 29.123 5.74271 27.3003 6.22347C25.8264 6.44614 24.4591 7.12452 23.3903 8.16347C22.4003 6.90347 20.8703 4.45347 21.7803 2.29347C21.8375 2.17169 21.8697 2.0396 21.8747 1.90511C21.8797 1.77062 21.8575 1.6365 21.8095 1.51079C21.7614 1.38508 21.6885 1.27036 21.5951 1.1735C21.5016 1.07665 21.3896 0.999649 21.2657 0.947122C21.1418 0.894596 21.0085 0.867621 20.8739 0.867814C20.7394 0.868007 20.6062 0.895364 20.4824 0.948246C20.3587 1.00113 20.2469 1.07845 20.1537 1.17557C20.0606 1.27269 19.9879 1.38762 19.9403 1.51347C18.7403 4.34347 20.2603 7.26347 21.4703 8.90347C20.9543 8.98084 20.4564 9.15019 20.0003 9.40347C19.4567 9.65457 18.9434 9.96656 18.4703 10.3335C17.7783 10.9597 17.2384 11.7356 16.8918 12.6021C16.5452 13.4686 16.401 14.4028 16.4703 15.3335C16.613 17.0768 17.0954 18.7754 17.8903 20.3335L18.2503 21.1135C18.8341 22.2611 19.303 23.4636 19.6503 24.7035C19.9904 26.4833 20.0477 28.3057 19.8203 30.1035C19.7006 31.3865 19.6672 32.676 19.7203 33.9635C19.9234 37.3127 21.1602 40.5165 23.2603 43.1335C24.825 44.98 26.7807 46.4556 28.9858 47.4535C31.1909 48.4514 33.5903 48.9467 36.0103 48.9035C38.7342 48.9018 41.4245 48.301 43.8903 47.1435C47.4688 45.4207 50.4398 42.6519 52.4103 39.2035C54.1599 36.2265 54.8142 32.7318 54.2603 29.3235ZM50.6803 38.2035C48.9172 41.2952 46.2564 43.7782 43.0503 45.3235C36.5803 48.3535 28.9003 46.9035 24.8103 41.9035C22.9804 39.619 21.9011 36.8249 21.7203 33.9035C21.6734 32.7059 21.7068 31.5066 21.8203 30.3135C22.0644 28.3144 21.9901 26.2893 21.6003 24.3135C21.2267 22.9254 20.7141 21.5786 20.0703 20.2935L19.7203 19.5235C19.0331 18.1901 18.6087 16.7371 18.4703 15.2435C18.4281 14.6227 18.5257 14.0004 18.7558 13.4224C18.986 12.8443 19.3429 12.3253 19.8003 11.9035C20.1596 11.6328 20.5448 11.3983 20.9503 11.2035C21.2509 11.0134 21.5951 10.9033 21.9503 10.8835H22.2003C22.6951 10.9315 23.1935 10.8415 23.6403 10.6235L23.7903 10.5535L23.9203 10.4435C24.1945 10.226 24.4427 9.97766 24.6603 9.70347L24.7903 9.54347C25.5881 8.83545 26.5818 8.3857 27.6403 8.25347C28.9782 7.88829 30.4042 8.03446 31.6403 8.66347C32.6893 9.37432 33.5588 10.3192 34.1803 11.4235C34.6688 12.1884 35.2208 12.9109 35.8303 13.5835C37.7608 15.4382 39.934 17.0226 42.2903 18.2935C44.4355 19.4539 46.4247 20.882 48.2103 22.5435C50.231 24.4995 51.6235 27.013 52.2103 29.7635C52.6845 32.669 52.1442 35.6493 50.6803 38.2035Z" fill="black"/>
<mask id="mask0" mask-type="alpha" maskUnits="userSpaceOnUse" x="21" y="8" width="35" height="38">
<path d="M46.0165 9.47797C46.2231 10.1668 46.4298 10.9245 45.741 10.5801C44.57 9.96015 43.0546 9.27132 43.5367 9.7535C44.0189 10.2357 44.2256 10.7867 43.4679 10.7178C42.7102 10.649 41.3325 10.4423 40.7126 11.3378C40.0926 12.2333 39.266 12.0266 39.0594 12.371C38.8528 12.7154 38.5083 14.162 37.8884 13.6798C37.2685 13.2665 36.0286 11.6822 37.0618 12.0955C38.095 12.5088 39.266 12.0266 38.3017 10.9245C37.3373 9.82238 36.373 10.2357 35.9597 9.61573C35.5464 8.9958 34.1688 8.23809 33.1355 9.7535C32.1712 11.2689 31.2757 13.2665 30.7247 13.6798C30.1736 14.0931 29.0026 14.8508 29.2093 15.4707C29.347 16.0907 29.4159 17.5372 30.0358 17.1239C30.6558 16.7106 31.0002 16.5039 31.2757 16.9172C31.4824 17.3305 31.4135 18.1571 31.8957 18.1571C31.8957 18.1571 32.86 17.4683 32.9289 16.8484C32.9978 16.2284 32.2401 15.884 32.7911 14.9885C33.3422 14.0931 34.5821 12.371 34.3065 13.2665C34.031 14.0931 33.4111 15.333 33.8932 15.884C34.3065 16.4351 36.7174 15.7462 35.6153 16.2973C34.5132 16.8484 33.9621 17.2617 33.7555 17.9505C33.5488 18.6393 33.3422 19.1903 32.7911 18.9148C32.2401 18.6393 31.5512 18.7771 31.2757 18.7771C31.0002 18.7771 30.8624 17.5372 30.3803 17.8127C29.967 18.0882 30.518 18.9837 30.0358 19.0526C29.5537 19.1215 29.4848 19.6725 28.9337 20.0858C28.3827 20.4991 27.625 21.3257 27.1428 21.3946C26.6606 21.4635 27.9005 22.0834 27.6938 22.6345C27.4872 23.2544 26.3851 23.1855 25.9718 23.2544C25.5585 23.3233 25.9029 24.1499 25.6963 24.632C25.4896 25.1142 25.9029 25.5964 26.5917 25.5964C27.2806 25.5964 27.9694 25.4586 28.0383 24.8387C28.1071 24.2187 28.7271 23.1855 29.2093 23.3922C29.6225 23.5988 30.6558 22.9789 30.8624 23.3233C31.0691 23.6677 32.3778 24.8387 32.2401 24.9764C32.1023 25.1142 31.3446 25.4586 31.6201 25.5964C31.6201 25.5964 31.8268 25.9408 31.9645 25.8719C32.1023 25.803 32.4467 24.9076 32.6534 24.7698C32.86 24.632 32.86 24.1499 32.5845 23.9432C32.2401 23.7366 31.0691 22.91 31.3446 22.4967C31.6201 22.0834 32.2401 22.9789 32.5156 23.2544C32.7911 23.5299 33.2044 23.8743 33.2044 24.4943C33.2044 25.1142 33.6177 25.1142 33.6177 25.3897C33.6866 25.7342 33.8244 25.803 34.1688 25.803C34.5132 25.7342 34.6509 24.9764 34.5132 24.7698C34.3065 24.5632 34.3065 24.1499 34.7198 24.1499C35.1331 24.1499 35.6153 23.8055 35.6153 23.5988C35.6153 23.3922 36.0286 22.1523 36.3041 22.1523C36.5796 22.1523 36.7863 22.6345 36.8552 22.91C36.9929 23.1855 37.6818 22.7033 37.544 22.4278C37.4062 22.1523 37.6129 22.0834 37.8195 22.0834C38.0262 22.0834 37.8884 22.6345 38.0262 22.7722C38.2328 22.91 39.1972 23.5299 38.8528 23.8743C38.5083 24.2187 38.0262 24.0121 37.6818 23.7366C37.3373 23.461 36.4419 23.5988 36.1664 23.8743C35.9597 24.1499 35.7531 24.2876 35.3398 24.2876C34.9265 24.2876 34.9954 25.0453 35.3398 25.3209C35.6842 25.6653 36.1664 25.3897 36.5108 25.5964C36.8552 25.803 37.4062 25.3209 37.4751 25.6653C37.544 26.0097 37.4062 27.0429 37.0618 27.1118C36.7174 27.1807 35.6153 27.3873 34.8576 27.0429C34.031 26.6985 33.2733 26.5607 33.2044 26.9051C33.1355 27.3184 33.1355 27.594 32.5845 27.2496C32.0334 26.9051 31.5512 26.6985 31.2068 26.6985C30.8624 26.6985 30.8624 26.0786 30.9313 25.5964C31.0002 25.1142 30.1047 25.252 29.5537 25.3897C29.0026 25.5275 27.9005 25.8719 27.2117 25.8719C26.5229 25.8719 26.2473 26.0097 26.1096 26.2852C25.9718 26.5607 25.3519 26.5607 25.3519 27.1118C25.3519 27.6629 25.4207 27.8006 24.8697 28.0761C24.2497 28.2828 24.112 29.3849 23.8365 29.6604C23.5609 29.936 24.112 30.6248 23.8365 31.0381C23.5609 31.3825 23.2854 32.3468 23.7676 32.5535C24.2497 32.7601 24.7319 33.7245 24.9386 34.0689C25.1452 34.4133 25.9029 34.7577 26.6606 34.6199C27.4183 34.4822 28.796 34.0689 29.5537 34.4133C30.3114 34.7577 31.0691 34.6888 30.7247 35.3776C30.3114 36.0665 30.9313 36.9619 31.4135 37.4441C31.8957 37.9263 31.7579 39.1662 31.4824 39.5106C31.2068 39.9239 31.2757 40.6127 31.5512 40.9571C31.8268 41.3015 31.9645 42.1281 31.9645 42.4036C31.9645 42.748 32.5156 43.368 32.5845 43.9879C32.6534 44.6767 32.1712 45.4344 32.7911 45.4344C33.4111 45.4344 34.9954 45.5033 35.1331 45.2278C35.2709 44.9523 36.5108 43.8501 36.8552 43.368C37.1996 42.8858 37.8884 42.0592 37.6818 41.577C37.2685 41.2326 37.544 40.8882 38.2328 40.6127C38.9216 40.3372 38.9216 38.4085 38.5772 37.9263C38.2328 37.4441 38.8528 36.2731 39.6105 35.9287C40.3682 35.5843 42.1591 32.4157 41.608 32.6912C40.9881 32.9668 39.8171 33.1734 39.4038 32.8979C38.9905 32.6224 36.5796 28.4894 36.9241 28.2139C37.2685 27.9384 39.1972 32.0024 39.5416 32.4846C39.886 33.0357 43.1234 31.0381 43.5367 30.5559C43.8811 30.0737 43.3301 29.5915 43.1234 29.5915C42.9168 29.5915 42.1591 29.1094 41.9525 29.3849C41.7458 29.6604 40.3682 27.3873 40.8503 27.594C41.3325 27.8006 42.3657 28.4894 43.3301 29.0405C44.2944 29.5916 45.3966 28.6961 46.0165 29.7293C46.7053 30.7625 47.1186 30.0737 47.0497 30.5559C46.9808 31.0381 47.8763 33.0357 48.2207 33.6556C48.4963 34.2755 49.1162 33.3801 49.1851 32.6912C49.254 31.9335 50.7005 30.7625 51.2515 30.3493C51.7337 29.936 52.6981 30.5559 52.8358 31.3825C52.9736 32.2091 53.6624 31.2447 53.6624 31.8647C53.6624 32.5535 53.5246 33.4489 54.0068 34.2755C54.9712 31.8647 55.4533 29.4538 55.4533 26.8363C55.4533 19.5348 51.6648 13.1287 46.0165 9.47797" fill="black"/>
<path d="M24.0431 12.0955C23.6298 12.2333 23.2165 12.7154 22.6655 12.4399C22.1144 12.1644 20.9434 12.5777 21.7011 13.1976C22.3899 13.8864 22.1144 14.2997 22.8032 14.3686C23.4921 14.4375 23.9054 13.4731 24.3875 13.542C24.8697 13.6109 24.5253 11.9577 24.0431 12.0955Z" fill="black"/>
<path d="M40.7814 39.0284C40.2993 39.0973 40.437 40.0616 39.886 40.1994C39.4038 40.3372 39.8171 40.7505 39.5416 41.0949C39.3349 41.4393 39.1972 42.2659 39.5416 42.6792C39.886 43.1613 40.0237 43.1613 40.437 42.4036C40.8503 41.7148 41.8147 38.9595 40.7814 39.0284Z" fill="black"/>
<path d="M26.9362 16.7106C26.7295 16.7106 26.5229 16.8484 26.3162 16.8484C26.1096 16.9172 25.9718 17.1928 25.9718 17.4683C25.9718 17.8127 26.5229 17.8816 26.3162 18.0882C26.1096 18.2949 25.0075 18.5015 25.1452 18.8459C25.283 19.1904 25.4896 19.4659 25.283 19.8103C25.0764 20.1547 25.4896 20.2236 25.9029 20.0858C26.3162 19.9481 26.5918 19.4659 26.5229 19.1904C26.454 18.8459 27.1428 18.7771 26.9362 19.0526C26.7295 19.3281 26.3851 20.0169 26.5918 20.2236C26.7984 20.4302 26.0407 20.7746 26.3162 20.9124C26.5918 21.0502 27.3495 20.3614 27.7628 20.4991C28.1761 20.6369 28.3138 20.3614 28.3827 20.0169C28.4516 19.6037 27.8316 19.1215 27.625 18.6393C27.4183 18.0882 27.5561 16.7106 26.9362 16.7106" fill="black"/>
</mask>
<g mask="url(#mask0)">
<path d="M43.0599 45.1704C46.266 43.6251 48.9268 41.1421 50.6899 38.0504C52.1538 35.4962 52.6941 32.5159 52.2199 29.6104C51.6331 26.8599 50.2406 24.3464 48.2199 22.3904C46.4343 20.7289 44.4451 19.3009 42.2998 18.1404C39.9436 16.8695 37.7704 15.2851 35.8399 13.4304C35.2304 12.7579 34.6784 12.0353 34.1899 11.2704C33.5684 10.1661 32.6989 9.22123 31.6498 8.51039C30.4138 7.88137 28.9878 7.73521 27.6498 8.10038C26.5914 8.23261 25.5977 8.68237 24.7999 9.39039L24.6699 9.55039C24.4523 9.82458 24.204 10.0729 23.9298 10.2904L23.7999 10.4004L23.6498 10.4704C23.2031 10.6885 22.7047 10.7785 22.2099 10.7304H21.9599C21.6047 10.7502 21.2605 10.8604 20.9599 11.0504C20.5544 11.2452 20.1692 11.4797 19.8099 11.7504C19.3525 12.1722 18.9956 12.6913 18.7654 13.2693C18.5352 13.8473 18.4377 14.4696 18.4799 15.0904C18.6183 16.584 19.0427 18.037 19.7299 19.3704L20.0799 20.1404C20.7237 21.4255 21.2363 22.7724 21.6099 24.1604C21.9997 26.1362 22.074 28.1613 21.8299 30.1604C21.7164 31.3535 21.683 32.5528 21.7299 33.7504C21.9107 36.6718 22.99 39.4659 24.8199 41.7504C28.9099 46.7504 36.5899 48.2004 43.0599 45.1704Z" fill="black"/>
</g>
</svg>
