<svg width="84" height="119" viewBox="0 0 84 119" fill="none" xmlns="http://www.w3.org/2000/svg">
<path d="M2.67564 85.2383V91.5383H5.26764C6.34764 91.5383 7.14864 90.9173 7.14864 89.8553C7.14864 88.9643 6.54564 88.5413 6.06864 88.4153V88.3253C6.53664 88.1723 7.13964 87.7763 7.13964 86.8853C7.13964 85.8683 6.34764 85.2383 5.28564 85.2383H2.67564ZM3.40464 85.8953H5.21364C5.95164 85.8953 6.41964 86.3273 6.41964 86.9483C6.41964 87.5963 5.97864 88.0373 5.22264 88.0373H3.40464V85.8953ZM3.40464 88.7033H5.19564C5.99664 88.7033 6.43764 89.1263 6.43764 89.7833C6.43764 90.4223 5.99664 90.8813 5.23164 90.8813H3.40464V88.7033ZM8.00491 85.7693C8.00491 86.1023 8.24791 86.3453 8.58091 86.3453C8.91391 86.3453 9.16591 86.1023 9.16591 85.7693C9.16591 85.4453 8.91391 85.2023 8.58091 85.2023C8.24791 85.2023 8.00491 85.4453 8.00491 85.7693ZM8.93191 87.1463H8.23891V91.5383H8.93191V87.1463ZM9.95503 89.3423C9.95503 90.7193 10.864 91.6643 12.196 91.6643C13.528 91.6643 14.446 90.7193 14.446 89.3423C14.446 87.9563 13.528 87.0203 12.196 87.0203C10.864 87.0203 9.95503 87.9563 9.95503 89.3423ZM10.639 89.3423C10.639 88.3433 11.26 87.6323 12.196 87.6323C13.132 87.6323 13.753 88.3163 13.753 89.3423C13.753 90.3593 13.132 91.0523 12.196 91.0523C11.26 91.0523 10.639 90.3863 10.639 89.3423ZM15.2383 85.7693C15.2383 86.1023 15.4813 86.3453 15.8143 86.3453C16.1473 86.3453 16.3993 86.1023 16.3993 85.7693C16.3993 85.4453 16.1473 85.2023 15.8143 85.2023C15.4813 85.2023 15.2383 85.4453 15.2383 85.7693ZM16.1653 87.1463H15.4723V91.5383H16.1653V87.1463ZM17.4674 87.1463V91.5383H18.1604V89.3153C18.1604 88.2173 18.7634 87.6503 19.6094 87.6503C20.3654 87.6503 20.8424 88.0373 20.8424 88.9193V91.5383H21.5264V88.8743C21.5264 87.6953 20.7524 87.0563 19.7894 87.0563C18.8804 87.0563 18.4394 87.4703 18.2324 87.8843H18.1424V87.1463H17.4674ZM22.2289 87.1463V87.7223H23.5969V91.5383H24.2899V87.7223H25.6849V87.1463H24.2899V86.0843C24.2899 85.9043 24.3799 85.8143 24.5419 85.8143H25.4779V85.2383H24.3169C23.8759 85.2383 23.5969 85.5173 23.5969 85.9763V87.1463H22.2289ZM26.2587 89.3423C26.2587 90.7193 27.1677 91.6643 28.4997 91.6643C29.8317 91.6643 30.7497 90.7193 30.7497 89.3423C30.7497 87.9563 29.8317 87.0203 28.4997 87.0203C27.1677 87.0203 26.2587 87.9563 26.2587 89.3423ZM26.9427 89.3423C26.9427 88.3433 27.5637 87.6323 28.4997 87.6323C29.4357 87.6323 30.0567 88.3163 30.0567 89.3423C30.0567 90.3593 29.4357 91.0523 28.4997 91.0523C27.5637 91.0523 26.9427 90.3863 26.9427 89.3423ZM32.451 87.1463H31.776V91.5383H32.469V88.8383C32.469 88.0823 32.883 87.7313 33.531 87.7313H34.242V87.1283H33.639C33.054 87.1283 32.712 87.2993 32.541 87.7223H32.451V87.1463ZM35.0631 87.1463V91.5383H35.7561V88.8833C35.7561 88.0823 36.2241 87.6503 36.8631 87.6503C37.4931 87.6503 37.8531 88.0283 37.8531 88.6133V91.5383H38.5461V88.8833C38.5461 88.0823 39.0141 87.6503 39.6621 87.6503C40.2831 87.6503 40.6521 88.0283 40.6521 88.6133V91.5383H41.3361V88.5593C41.3361 87.6323 40.7151 87.0563 39.8511 87.0563C39.1401 87.0563 38.7261 87.3713 38.4741 87.8573H38.3841C38.1951 87.4073 37.7721 87.0563 37.0881 87.0563C36.4311 87.0563 36.0351 87.3353 35.8281 87.7223H35.7381V87.1463H35.0631ZM42.4604 88.3613L43.1084 88.5593C43.2434 88.0013 43.6484 87.6053 44.3684 87.6053C45.0974 87.6053 45.4664 88.0013 45.4664 88.6313V88.9553H43.9634C43.0274 88.9553 42.3254 89.3963 42.3254 90.2873C42.3254 91.1693 43.0274 91.6643 43.9454 91.6643C44.8094 91.6643 45.1874 91.2593 45.3854 90.9083H45.4844V91.5383H46.1504V88.6673C46.1504 87.6323 45.4844 87.0203 44.3684 87.0203C43.2614 87.0203 42.6674 87.6233 42.4604 88.3613ZM43.0094 90.2783C43.0094 89.7833 43.4234 89.5223 43.9904 89.5223H45.4664V89.6303C45.4664 90.5393 44.8904 91.0883 44.0444 91.0883C43.4234 91.0883 43.0094 90.7733 43.0094 90.2783ZM46.7659 87.7223H48.1249V90.8003C48.1249 91.2593 48.4039 91.5383 48.8449 91.5383H50.0599V90.9623H49.0609C48.8989 90.9623 48.8089 90.8723 48.8089 90.6923V87.7223H50.2579V87.1463H48.8089V85.5713H48.1249V87.1463H46.7659V87.7223ZM51.001 85.7693C51.001 86.1023 51.244 86.3453 51.577 86.3453C51.91 86.3453 52.162 86.1023 52.162 85.7693C52.162 85.4453 51.91 85.2023 51.577 85.2023C51.244 85.2023 51.001 85.4453 51.001 85.7693ZM51.928 87.1463H51.235V91.5383H51.928V87.1463ZM52.9511 89.3423C52.9511 90.7013 53.9501 91.6643 55.2281 91.6643C56.4251 91.6643 57.1361 90.9263 57.3341 89.9903L56.6591 89.8373C56.5421 90.5393 56.0831 91.0523 55.2371 91.0523C54.3371 91.0523 53.6531 90.3503 53.6531 89.3423C53.6531 88.3343 54.3281 87.6323 55.2281 87.6323C56.0291 87.6323 56.5421 88.1273 56.6321 88.8383L57.3071 88.6943C57.1541 87.7673 56.3981 87.0203 55.2191 87.0203C53.9501 87.0203 52.9511 87.9743 52.9511 89.3423ZM58.1936 88.2803C58.1936 89.0633 58.8416 89.4143 59.6696 89.5493L60.1196 89.6123C60.7586 89.7203 61.1366 89.9003 61.1366 90.3413C61.1366 90.8003 60.7136 91.1063 60.0386 91.1063C59.3636 91.1063 58.7876 90.8273 58.6436 89.9273L57.9866 90.0803C58.1486 91.1693 58.9496 91.6643 60.0386 91.6643C61.1096 91.6643 61.8116 91.1603 61.8116 90.3053C61.8116 89.4413 61.1276 89.1713 60.2276 89.0183L59.7776 88.9553C59.2556 88.8653 58.8776 88.6853 58.8776 88.2623C58.8776 87.8213 59.2556 87.5783 59.8586 87.5783C60.4526 87.5783 60.8936 87.8303 61.0196 88.4783L61.6586 88.3073C61.4786 87.4973 60.8486 87.0203 59.8586 87.0203C58.8416 87.0203 58.1936 87.4973 58.1936 88.2803ZM2.47764 97.6683V99.1083C2.47764 100.773 3.44064 101.664 4.94364 101.664C6.44664 101.664 7.40964 100.773 7.40964 99.1083V97.6683C7.40964 96.0033 6.44664 95.1123 4.94364 95.1123C3.44064 95.1123 2.47764 96.0033 2.47764 97.6683ZM3.20664 97.6323C3.20664 96.4713 3.84564 95.7603 4.94364 95.7603C6.03264 95.7603 6.67164 96.4713 6.67164 97.6323V99.1443C6.67164 100.305 6.03264 101.007 4.94364 101.007C3.84564 101.007 3.20664 100.305 3.20664 99.1443V97.6323ZM8.53774 103.338H9.23074V100.8H9.32074C9.57274 101.232 10.0497 101.664 10.9587 101.664C12.1107 101.664 13.0377 100.755 13.0377 99.3423C13.0377 97.9203 12.1107 97.0203 10.9587 97.0203C10.0497 97.0203 9.57274 97.4523 9.30274 97.9023H9.21274V97.1463H8.53774V103.338ZM10.7877 101.052C9.87874 101.052 9.22174 100.395 9.22174 99.3423C9.22174 98.2893 9.87874 97.6233 10.7877 97.6233C11.7057 97.6233 12.3357 98.2803 12.3357 99.3423C12.3357 100.404 11.7057 101.052 10.7877 101.052ZM13.7781 99.3063C13.7781 100.656 14.6781 101.664 16.0461 101.664C17.2431 101.664 17.7471 100.989 18.0261 100.467L17.4321 100.161C17.1981 100.647 16.8111 101.052 16.0461 101.052C15.1641 101.052 14.5521 100.458 14.4891 99.5583H18.0981V99.1893C18.0981 97.8483 17.2251 97.0203 15.9831 97.0203C14.7051 97.0203 13.7781 97.9833 13.7781 99.3063ZM14.4981 98.9823C14.5971 98.1543 15.1551 97.6323 15.9831 97.6323C16.7931 97.6323 17.3421 98.1093 17.3871 98.9823H14.4981ZM19.0846 97.1463V101.538H19.7776V99.3153C19.7776 98.2173 20.3806 97.6503 21.2266 97.6503C21.9826 97.6503 22.4596 98.0373 22.4596 98.9193V101.538H23.1436V98.8743C23.1436 97.6953 22.3696 97.0563 21.4066 97.0563C20.4976 97.0563 20.0566 97.4703 19.8496 97.8843H19.7596V97.1463H19.0846ZM29.2493 95.1123C27.9803 95.1123 27.1073 95.7693 27.1073 96.8223C27.1073 97.8843 27.8363 98.3163 28.9433 98.5773L29.4203 98.6943C30.2663 98.8923 30.8243 99.1443 30.8243 99.8373C30.8243 100.53 30.2573 101.016 29.2673 101.016C28.2863 101.016 27.6113 100.521 27.6113 99.4233V99.3603H26.8823V99.4233C26.8823 100.926 27.8993 101.664 29.2673 101.664C30.6443 101.664 31.5443 100.926 31.5443 99.8283C31.5443 98.7213 30.7253 98.3073 29.6363 98.0553L29.1503 97.9383C28.3133 97.7403 27.8363 97.5063 27.8363 96.8133C27.8363 96.1383 28.3943 95.7603 29.2493 95.7603C30.1223 95.7603 30.7613 96.1383 30.7613 97.0563V97.3533H31.4903V97.0563C31.4903 95.7693 30.5183 95.1123 29.2493 95.1123ZM32.332 99.3423C32.332 100.719 33.241 101.664 34.573 101.664C35.905 101.664 36.823 100.719 36.823 99.3423C36.823 97.9563 35.905 97.0203 34.573 97.0203C33.241 97.0203 32.332 97.9563 32.332 99.3423ZM33.016 99.3423C33.016 98.3433 33.637 97.6323 34.573 97.6323C35.509 97.6323 36.13 98.3163 36.13 99.3423C36.13 100.359 35.509 101.052 34.573 101.052C33.637 101.052 33.016 100.386 33.016 99.3423ZM41.8813 101.538V97.1463H41.1973V99.3693C41.1973 100.467 40.5853 101.034 39.7483 101.034C38.9833 101.034 38.5063 100.647 38.5063 99.7653V97.1463H37.8223V99.8103C37.8223 100.989 38.5963 101.619 39.5593 101.619C40.4683 101.619 40.9093 101.214 41.1253 100.8H41.2153V101.538H41.8813ZM43.868 97.1463H43.193V101.538H43.886V98.8383C43.886 98.0823 44.3 97.7313 44.948 97.7313H45.659V97.1283H45.056C44.471 97.1283 44.129 97.2993 43.958 97.7223H43.868V97.1463ZM45.9726 99.3423C45.9726 100.701 46.9716 101.664 48.2496 101.664C49.4466 101.664 50.1576 100.926 50.3556 99.9903L49.6806 99.8373C49.5636 100.539 49.1046 101.052 48.2586 101.052C47.3586 101.052 46.6746 100.35 46.6746 99.3423C46.6746 98.3343 47.3496 97.6323 48.2496 97.6323C49.0506 97.6323 49.5636 98.1273 49.6536 98.8383L50.3286 98.6943C50.1756 97.7673 49.4196 97.0203 48.2406 97.0203C46.9716 97.0203 45.9726 97.9743 45.9726 99.3423ZM51.07 99.3063C51.07 100.656 51.97 101.664 53.338 101.664C54.5351 101.664 55.0391 100.989 55.318 100.467L54.7241 100.161C54.4901 100.647 54.103 101.052 53.338 101.052C52.456 101.052 51.844 100.458 51.781 99.5583H55.3901V99.1893C55.3901 97.8483 54.5171 97.0203 53.275 97.0203C51.997 97.0203 51.07 97.9833 51.07 99.3063ZM51.79 98.9823C51.889 98.1543 52.447 97.6323 53.275 97.6323C54.085 97.6323 54.634 98.1093 54.6791 98.9823H51.79ZM2.47764 109.045C2.47764 110.71 3.41364 111.664 4.96164 111.664C6.41964 111.664 7.30164 110.809 7.30164 109.423V109.243H6.57264V109.432C6.57264 110.386 6.05964 111.007 4.96164 111.007C3.86364 111.007 3.20664 110.287 3.20664 109.063V107.713C3.20664 106.489 3.85464 105.76 4.96164 105.76C6.00564 105.76 6.57264 106.408 6.57264 107.362V107.506H7.30164V107.371C7.30164 105.985 6.47364 105.112 4.96164 105.112C3.43164 105.112 2.47764 106.066 2.47764 107.731V109.045ZM8.07417 109.342C8.07417 110.719 8.98317 111.664 10.3152 111.664C11.6472 111.664 12.5652 110.719 12.5652 109.342C12.5652 107.956 11.6472 107.02 10.3152 107.02C8.98317 107.02 8.07417 107.956 8.07417 109.342ZM8.75817 109.342C8.75817 108.343 9.37917 107.632 10.3152 107.632C11.2512 107.632 11.8722 108.316 11.8722 109.342C11.8722 110.359 11.2512 111.052 10.3152 111.052C9.37917 111.052 8.75817 110.386 8.75817 109.342ZM13.5914 107.146V111.538H14.2844V109.315C14.2844 108.217 14.8874 107.65 15.7334 107.65C16.4894 107.65 16.9664 108.037 16.9664 108.919V111.538H17.6504V108.874C17.6504 107.695 16.8764 107.056 15.9134 107.056C15.0044 107.056 14.5634 107.47 14.3564 107.884H14.2664V107.146H13.5914ZM18.3529 107.146V107.722H19.7209V111.538H20.4139V107.722H21.8089V107.146H20.4139V106.084C20.4139 105.904 20.5039 105.814 20.6659 105.814H21.6019V105.238H20.4409C19.9999 105.238 19.7209 105.517 19.7209 105.976V107.146H18.3529ZM22.3738 109.306C22.3738 110.656 23.2738 111.664 24.6418 111.664C25.8388 111.664 26.3428 110.989 26.6218 110.467L26.0278 110.161C25.7938 110.647 25.4068 111.052 24.6418 111.052C23.7598 111.052 23.1478 110.458 23.0848 109.558H26.6938V109.189C26.6938 107.848 25.8208 107.02 24.5788 107.02C23.3008 107.02 22.3738 107.983 22.3738 109.306ZM23.0938 108.982C23.1928 108.154 23.7508 107.632 24.5788 107.632C25.3888 107.632 25.9378 108.109 25.9828 108.982H23.0938ZM28.3553 107.146H27.6803V111.538H28.3733V108.838C28.3733 108.082 28.7873 107.731 29.4353 107.731H30.1463V107.128H29.5433C28.9583 107.128 28.6163 107.299 28.4453 107.722H28.3553V107.146ZM30.4509 109.306C30.4509 110.656 31.3509 111.664 32.7189 111.664C33.9159 111.664 34.4199 110.989 34.6989 110.467L34.1049 110.161C33.8709 110.647 33.4839 111.052 32.7189 111.052C31.8369 111.052 31.2249 110.458 31.1619 109.558H34.7709V109.189C34.7709 107.848 33.8979 107.02 32.6559 107.02C31.3779 107.02 30.4509 107.983 30.4509 109.306ZM31.1709 108.982C31.2699 108.154 31.8279 107.632 32.6559 107.632C33.4659 107.632 34.0149 108.109 34.0599 108.982H31.1709ZM35.7575 107.146V111.538H36.4505V109.315C36.4505 108.217 37.0535 107.65 37.8995 107.65C38.6555 107.65 39.1325 108.037 39.1325 108.919V111.538H39.8165V108.874C39.8165 107.695 39.0425 107.056 38.0795 107.056C37.1705 107.056 36.7295 107.47 36.5225 107.884H36.4325V107.146H35.7575ZM40.7958 109.342C40.7958 110.701 41.7948 111.664 43.0728 111.664C44.2698 111.664 44.9808 110.926 45.1788 109.99L44.5038 109.837C44.3868 110.539 43.9278 111.052 43.0818 111.052C42.1818 111.052 41.4978 110.35 41.4978 109.342C41.4978 108.334 42.1728 107.632 43.0728 107.632C43.8738 107.632 44.3868 108.127 44.4768 108.838L45.1518 108.694C44.9988 107.767 44.2428 107.02 43.0638 107.02C41.7948 107.02 40.7958 107.974 40.7958 109.342ZM45.8933 109.306C45.8933 110.656 46.7933 111.664 48.1613 111.664C49.3583 111.664 49.8623 110.989 50.1413 110.467L49.5473 110.161C49.3133 110.647 48.9263 111.052 48.1613 111.052C47.2793 111.052 46.6673 110.458 46.6043 109.558H50.2133V109.189C50.2133 107.848 49.3403 107.02 48.0983 107.02C46.8203 107.02 45.8933 107.983 45.8933 109.306ZM46.6133 108.982C46.7123 108.154 47.2703 107.632 48.0983 107.632C48.9083 107.632 49.4573 108.109 49.5023 108.982H46.6133ZM53.7252 107.281V107.497H54.4542V107.317C54.4542 106.3 55.1022 105.76 56.0022 105.76C56.8662 105.76 57.4512 106.273 57.4512 107.137C57.4512 107.992 56.8302 108.424 55.7952 108.685C54.5532 108.991 53.6982 109.477 53.6982 110.764V111.538H58.1892V110.881H54.4452V110.692C54.4452 109.774 55.0572 109.549 56.1462 109.261C57.4332 108.928 58.1892 108.316 58.1892 107.146C58.1892 105.913 57.2532 105.112 56.0022 105.112C54.7332 105.112 53.7252 105.895 53.7252 107.281ZM59.0089 107.677V109.099C59.0089 110.782 59.8729 111.664 61.3039 111.664C62.7349 111.664 63.5989 110.782 63.5989 109.099V107.677C63.5989 106.012 62.7349 105.112 61.3039 105.112C59.8729 105.112 59.0089 106.012 59.0089 107.677ZM59.7379 107.632C59.7379 106.48 60.2779 105.76 61.3039 105.76C62.3299 105.76 62.8699 106.471 62.8699 107.632V109.144C62.8699 110.296 62.3659 111.007 61.3039 111.007C60.2599 111.007 59.7379 110.314 59.7379 109.144V107.632ZM64.4742 107.281V107.497H65.2032V107.317C65.2032 106.3 65.8512 105.76 66.7512 105.76C67.6152 105.76 68.2002 106.273 68.2002 107.137C68.2002 107.992 67.5792 108.424 66.5442 108.685C65.3022 108.991 64.4472 109.477 64.4472 110.764V111.538H68.9382V110.881H65.1942V110.692C65.1942 109.774 65.8062 109.549 66.8952 109.261C68.1822 108.928 68.9382 108.316 68.9382 107.146C68.9382 105.913 68.0022 105.112 66.7512 105.112C65.4822 105.112 64.4742 105.895 64.4742 107.281ZM71.1169 105.238L69.3529 107.965H70.1719L71.4229 106.03H71.5309V111.538H72.2599L72.2689 105.238H71.1169Z" fill="black"/>
<path d="M2.24504 58.5207V78.4282H11.0612C14.4739 78.4282 16.9482 76.409 16.9482 73.0532C16.9482 70.1524 15.0143 68.9295 13.5639 68.5313V68.2469C15.0143 67.8203 16.8628 66.6543 16.8628 63.782C16.8628 60.5399 14.4455 58.5207 11.0043 58.5207H2.24504ZM5.544 61.5068H10.6631C12.4832 61.5068 13.7061 62.5591 13.7061 64.2086C13.7061 65.858 12.5116 66.9387 10.6631 66.9387H5.544V61.5068ZM5.544 69.8964H10.6631C12.6254 69.8964 13.7914 70.9487 13.7914 72.6835C13.7914 74.3614 12.6254 75.4421 10.72 75.4421H5.544V69.8964ZM19.0302 66.114V70.8349C19.0302 75.9824 22.187 78.8264 27.107 78.8264C32.027 78.8264 35.1553 75.9824 35.1553 70.8349V66.114C35.1553 60.9665 32.027 58.1225 27.107 58.1225C22.187 58.1225 19.0302 60.9665 19.0302 66.114ZM22.3292 66.0002C22.3292 62.9857 24.0924 61.0518 27.107 61.0518C30.0931 61.0518 31.8564 62.9857 31.8564 66.0002V70.9487C31.8564 73.9632 30.0931 75.8971 27.107 75.8971C24.0924 75.8971 22.3292 73.9632 22.3292 70.9487V66.0002ZM44.5296 58.1225C40.349 58.1225 37.6189 60.2555 37.6189 63.8104C37.6189 67.3369 39.9509 68.7304 43.9039 69.612L44.8424 69.8111C47.4304 70.4083 48.9093 71.0624 48.9093 72.8825C48.9093 74.6742 47.4589 75.9255 44.7287 75.9255C41.9701 75.9255 40.2353 74.6173 40.2353 71.8872V71.6312H36.9932V71.8872C36.9932 76.3521 40.2068 78.8264 44.7287 78.8264C49.2505 78.8264 52.1513 76.3806 52.1513 72.7972C52.1513 69.2139 49.4781 67.7635 45.4965 66.9103L44.5581 66.6828C42.0554 66.114 40.8609 65.403 40.8609 63.6967C40.8609 62.0187 42.1407 61.0234 44.5296 61.0234C46.9754 61.0234 48.568 62.0187 48.568 64.493V65.1186H51.8101V64.493C51.8101 60.2555 48.7102 58.1225 44.5296 58.1225ZM54.0794 70.7496C54.0794 75.9255 57.2078 78.8264 62.1562 78.8264C67.0478 78.8264 69.8917 76.0109 69.8917 71.6881V71.0056H66.6212V71.745C66.6212 74.077 65.1423 75.8971 62.1562 75.8971C59.1985 75.8971 57.3784 73.9632 57.3784 70.8065V66.1424C57.3784 62.9857 59.1701 61.0518 62.1562 61.0518C65.0854 61.0518 66.6212 62.9004 66.6212 65.2324V65.7727H69.8917V65.2893C69.8917 60.938 67.1046 58.1225 62.1562 58.1225C57.2078 58.1225 54.0794 61.0234 54.0794 66.1993V70.7496Z" fill="black"/>
<path d="M54.2603 29.2168C53.607 26.0641 52.0177 23.1818 49.7003 20.9468C47.7954 19.165 45.6717 17.6327 43.3803 16.3868C41.1927 15.2027 39.1746 13.7294 37.3803 12.0068C36.8484 11.4145 36.3667 10.7789 35.9403 10.1068C35.157 8.73878 34.056 7.57945 32.7303 6.72675C31.0596 5.85354 29.123 5.63599 27.3003 6.11675C25.8264 6.33942 24.4591 7.0178 23.3903 8.05675C22.4003 6.79675 20.8703 4.34675 21.7803 2.18675C21.8375 2.06497 21.8697 1.93288 21.8747 1.79839C21.8797 1.6639 21.8575 1.52978 21.8095 1.40407C21.7614 1.27836 21.6885 1.16364 21.5951 1.06678C21.5016 0.969926 21.3896 0.892929 21.2657 0.840402C21.1418 0.787876 21.0085 0.760901 20.8739 0.761094C20.7394 0.761287 20.6062 0.788644 20.4824 0.841526C20.3587 0.894407 20.2469 0.971726 20.1537 1.06885C20.0606 1.16597 19.9879 1.2809 19.9403 1.40675C18.7403 4.23675 20.2603 7.15675 21.4703 8.79675C20.9543 8.87412 20.4564 9.04347 20.0003 9.29675C19.4567 9.54785 18.9434 9.85984 18.4703 10.2268C17.7783 10.8529 17.2384 11.6289 16.8918 12.4954C16.5452 13.3619 16.401 14.2961 16.4703 15.2268C16.613 16.9701 17.0954 18.6686 17.8903 20.2268L18.2503 21.0068C18.8341 22.1544 19.303 23.3569 19.6503 24.5968C19.9904 26.3766 20.0477 28.199 19.8203 29.9968C19.7006 31.2797 19.6672 32.5693 19.7203 33.8568C19.9234 37.206 21.1602 40.4098 23.2603 43.0268C24.825 44.8733 26.7807 46.3489 28.9858 47.3468C31.1909 48.3447 33.5903 48.84 36.0103 48.7968C38.7342 48.7951 41.4245 48.1943 43.8903 47.0368C47.4688 45.3139 50.4398 42.5451 52.4103 39.0968C54.1599 36.1198 54.8142 32.625 54.2603 29.2168ZM50.6803 38.0968C48.9172 41.1885 46.2564 43.6715 43.0503 45.2168C36.5803 48.2468 28.9003 46.7968 24.8103 41.7968C22.9804 39.5123 21.9011 36.7182 21.7203 33.7968C21.6734 32.5992 21.7068 31.3998 21.8203 30.2068C22.0644 28.2077 21.9901 26.1826 21.6003 24.2068C21.2267 22.8187 20.7141 21.4719 20.0703 20.1868L19.7203 19.4168C19.0331 18.0834 18.6087 16.6304 18.4703 15.1368C18.4281 14.516 18.5257 13.8937 18.7558 13.3157C18.986 12.7376 19.3429 12.2186 19.8003 11.7968C20.1596 11.5261 20.5448 11.2916 20.9503 11.0968C21.2509 10.9067 21.5951 10.7966 21.9503 10.7768H22.2003C22.6951 10.8248 23.1935 10.7348 23.6403 10.5168L23.7903 10.4468L23.9203 10.3368C24.1945 10.1192 24.4427 9.87094 24.6603 9.59675L24.7903 9.43675C25.5881 8.72873 26.5818 8.27898 27.6403 8.14675C28.9782 7.78157 30.4042 7.92774 31.6403 8.55675C32.6893 9.2676 33.5588 10.2124 34.1803 11.3168C34.6688 12.0817 35.2208 12.8042 35.8303 13.4768C37.7608 15.3315 39.934 16.9159 42.2903 18.1868C44.4355 19.3472 46.4247 20.7753 48.2103 22.4368C50.231 24.3928 51.6235 26.9063 52.2103 29.6568C52.6845 32.5623 52.1442 35.5425 50.6803 38.0968Z" fill="black"/>
<mask id="mask0" mask-type="alpha" maskUnits="userSpaceOnUse" x="21" y="8" width="35" height="38">
<path d="M46.0165 9.37125C46.2231 10.0601 46.4298 10.8178 45.741 10.4734C44.57 9.85343 43.0546 9.1646 43.5367 9.64678C44.0189 10.129 44.2256 10.68 43.4679 10.6111C42.7102 10.5422 41.3325 10.3356 40.7126 11.2311C40.0926 12.1265 39.266 11.9199 39.0594 12.2643C38.8528 12.6087 38.5083 14.0552 37.8884 13.5731C37.2685 13.1598 36.0286 11.5755 37.0618 11.9888C38.095 12.4021 39.266 11.9199 38.3017 10.8178C37.3373 9.71566 36.373 10.129 35.9597 9.50901C35.5464 8.88908 34.1688 8.13137 33.1355 9.64678C32.1712 11.1622 31.2757 13.1598 30.7247 13.5731C30.1736 13.9864 29.0026 14.7441 29.2093 15.364C29.347 15.9839 29.4159 17.4305 30.0358 17.0172C30.6558 16.6039 31.0002 16.3972 31.2757 16.8105C31.4824 17.2238 31.4135 18.0504 31.8957 18.0504C31.8957 18.0504 32.86 17.3616 32.9289 16.7416C32.9978 16.1217 32.2401 15.7773 32.7911 14.8818C33.3422 13.9864 34.5821 12.2643 34.3065 13.1598C34.031 13.9864 33.4111 15.2262 33.8932 15.7773C34.3065 16.3283 36.7174 15.6395 35.6153 16.1906C34.5132 16.7416 33.9621 17.1549 33.7555 17.8438C33.5488 18.5326 33.3422 19.0836 32.7911 18.8081C32.2401 18.5326 31.5512 18.6703 31.2757 18.6703C31.0002 18.6703 30.8624 17.4305 30.3803 17.706C29.967 17.9815 30.518 18.877 30.0358 18.9459C29.5537 19.0147 29.4848 19.5658 28.9337 19.9791C28.3827 20.3924 27.625 21.219 27.1428 21.2879C26.6606 21.3567 27.9005 21.9767 27.6938 22.5277C27.4872 23.1477 26.3851 23.0788 25.9718 23.1477C25.5585 23.2166 25.9029 24.0431 25.6963 24.5253C25.4896 25.0075 25.9029 25.4897 26.5917 25.4897C27.2806 25.4897 27.9694 25.3519 28.0383 24.732C28.1071 24.112 28.7271 23.0788 29.2093 23.2854C29.6225 23.4921 30.6558 22.8721 30.8624 23.2166C31.0691 23.561 32.3778 24.732 32.2401 24.8697C32.1023 25.0075 31.3446 25.3519 31.6201 25.4897C31.6201 25.4897 31.8268 25.8341 31.9645 25.7652C32.1023 25.6963 32.4467 24.8008 32.6534 24.6631C32.86 24.5253 32.86 24.0431 32.5845 23.8365C32.2401 23.6298 31.0691 22.8033 31.3446 22.39C31.6201 21.9767 32.2401 22.8721 32.5156 23.1477C32.7911 23.4232 33.2044 23.7676 33.2044 24.3876C33.2044 25.0075 33.6177 25.0075 33.6177 25.283C33.6866 25.6274 33.8244 25.6963 34.1688 25.6963C34.5132 25.6274 34.6509 24.8697 34.5132 24.6631C34.3065 24.4564 34.3065 24.0431 34.7198 24.0431C35.1331 24.0431 35.6153 23.6987 35.6153 23.4921C35.6153 23.2854 36.0286 22.0456 36.3041 22.0456C36.5796 22.0456 36.7863 22.5277 36.8552 22.8033C36.9929 23.0788 37.6818 22.5966 37.544 22.3211C37.4062 22.0456 37.6129 21.9767 37.8195 21.9767C38.0262 21.9767 37.8884 22.5277 38.0262 22.6655C38.2328 22.8033 39.1972 23.4232 38.8528 23.7676C38.5083 24.112 38.0262 23.9054 37.6818 23.6298C37.3373 23.3543 36.4419 23.4921 36.1664 23.7676C35.9597 24.0431 35.7531 24.1809 35.3398 24.1809C34.9265 24.1809 34.9954 24.9386 35.3398 25.2141C35.6842 25.5585 36.1664 25.283 36.5108 25.4897C36.8552 25.6963 37.4062 25.2141 37.4751 25.5585C37.544 25.903 37.4062 26.9362 37.0618 27.0051C36.7174 27.074 35.6153 27.2806 34.8576 26.9362C34.031 26.5918 33.2733 26.454 33.2044 26.7984C33.1355 27.2117 33.1355 27.4872 32.5845 27.1428C32.0334 26.7984 31.5512 26.5918 31.2068 26.5918C30.8624 26.5918 30.8624 25.9718 30.9313 25.4897C31.0002 25.0075 30.1047 25.1453 29.5537 25.283C29.0026 25.4208 27.9005 25.7652 27.2117 25.7652C26.5229 25.7652 26.2473 25.903 26.1096 26.1785C25.9718 26.454 25.3519 26.454 25.3519 27.0051C25.3519 27.5561 25.4207 27.6939 24.8697 27.9694C24.2497 28.1761 24.112 29.2782 23.8365 29.5537C23.5609 29.8292 24.112 30.5181 23.8365 30.9314C23.5609 31.2758 23.2854 32.2401 23.7676 32.4468C24.2497 32.6534 24.7319 33.6178 24.9386 33.9622C25.1452 34.3066 25.9029 34.651 26.6606 34.5132C27.4183 34.3755 28.796 33.9622 29.5537 34.3066C30.3114 34.651 31.0691 34.5821 30.7247 35.2709C30.3114 35.9598 30.9313 36.8552 31.4135 37.3374C31.8957 37.8196 31.7579 39.0594 31.4824 39.4039C31.2068 39.8171 31.2757 40.506 31.5512 40.8504C31.8268 41.1948 31.9645 42.0214 31.9645 42.2969C31.9645 42.6413 32.5156 43.2613 32.5845 43.8812C32.6534 44.57 32.1712 45.3277 32.7911 45.3277C33.4111 45.3277 34.9954 45.3966 35.1331 45.1211C35.2709 44.8455 36.5108 43.7434 36.8552 43.2613C37.1996 42.7791 37.8884 41.9525 37.6818 41.4703C37.2685 41.1259 37.544 40.7815 38.2328 40.506C38.9216 40.2304 38.9216 38.3017 38.5772 37.8196C38.2328 37.3374 38.8528 36.1664 39.6105 35.822C40.3682 35.4776 42.1591 32.309 41.608 32.5845C40.9881 32.8601 39.8171 33.0667 39.4038 32.7912C38.9905 32.5156 36.5796 28.3827 36.9241 28.1072C37.2685 27.8317 39.1972 31.8957 39.5416 32.3779C39.886 32.9289 43.1234 30.9314 43.5367 30.4492C43.8811 29.967 43.3301 29.4848 43.1234 29.4848C42.9168 29.4848 42.1591 29.0027 41.9525 29.2782C41.7458 29.5537 40.3682 27.2806 40.8503 27.4872C41.3325 27.6939 42.3657 28.3827 43.3301 28.9338C44.2944 29.4848 45.3966 28.5894 46.0165 29.6226C46.7053 30.6558 47.1186 29.967 47.0497 30.4492C46.9808 30.9314 47.8763 32.9289 48.2207 33.5489C48.4963 34.1688 49.1162 33.2733 49.1851 32.5845C49.254 31.8268 50.7005 30.6558 51.2515 30.2425C51.7337 29.8292 52.6981 30.4492 52.8358 31.2758C52.9736 32.1023 53.6624 31.138 53.6624 31.7579C53.6624 32.4468 53.5246 33.3422 54.0068 34.1688C54.9712 31.7579 55.4533 29.3471 55.4533 26.7295C55.4533 19.428 51.6648 13.022 46.0165 9.37125" fill="black"/>
<path d="M24.0431 11.9888C23.6298 12.1265 23.2165 12.6087 22.6655 12.3332C22.1144 12.0577 20.9434 12.471 21.7011 13.0909C22.3899 13.7797 22.1144 14.193 22.8032 14.2619C23.4921 14.3308 23.9054 13.3664 24.3875 13.4353C24.8697 13.5042 24.5253 11.851 24.0431 11.9888Z" fill="black"/>
<path d="M40.7814 38.9217C40.2993 38.9906 40.437 39.9549 39.886 40.0927C39.4038 40.2304 39.8171 40.6437 39.5416 40.9881C39.3349 41.3326 39.1972 42.1591 39.5416 42.5724C39.886 43.0546 40.0237 43.0546 40.437 42.2969C40.8503 41.6081 41.8147 38.8528 40.7814 38.9217Z" fill="black"/>
<path d="M26.9362 16.6039C26.7295 16.6039 26.5229 16.7416 26.3162 16.7416C26.1096 16.8105 25.9718 17.0861 25.9718 17.3616C25.9718 17.706 26.5229 17.7749 26.3162 17.9815C26.1096 18.1882 25.0075 18.3948 25.1452 18.7392C25.283 19.0836 25.4896 19.3592 25.283 19.7036C25.0764 20.048 25.4896 20.1169 25.9029 19.9791C26.3162 19.8413 26.5918 19.3592 26.5229 19.0836C26.454 18.7392 27.1428 18.6703 26.9362 18.9459C26.7295 19.2214 26.3851 19.9102 26.5918 20.1169C26.7984 20.3235 26.0407 20.6679 26.3162 20.8057C26.5918 20.9435 27.3495 20.2546 27.7628 20.3924C28.1761 20.5302 28.3138 20.2546 28.3827 19.9102C28.4516 19.4969 27.8316 19.0148 27.625 18.5326C27.4183 17.9815 27.5561 16.6039 26.9362 16.6039" fill="black"/>
</mask>
<g mask="url(#mask0)">
<path d="M43.0599 45.0637C46.266 43.5184 48.9268 41.0354 50.6899 37.9437C52.1538 35.3895 52.6941 32.4092 52.2199 29.5037C51.6331 26.7532 50.2406 24.2397 48.2199 22.2837C46.4343 20.6222 44.4451 19.1941 42.2998 18.0337C39.9436 16.7628 37.7704 15.1784 35.8399 13.3237C35.2304 12.6511 34.6784 11.9286 34.1899 11.1637C33.5684 10.0594 32.6989 9.11451 31.6498 8.40367C30.4138 7.77465 28.9878 7.62849 27.6498 7.99366C26.5914 8.12589 25.5977 8.57565 24.7999 9.28367L24.6699 9.44367C24.4523 9.71786 24.204 9.96615 23.9298 10.1837L23.7999 10.2937L23.6498 10.3637C23.2031 10.5817 22.7047 10.6717 22.2099 10.6237H21.9599C21.6047 10.6435 21.2605 10.7536 20.9599 10.9437C20.5544 11.1385 20.1692 11.373 19.8099 11.6437C19.3525 12.0655 18.9956 12.5845 18.7654 13.1626C18.5352 13.7406 18.4377 14.3629 18.4799 14.9837C18.6183 16.4773 19.0427 17.9303 19.7299 19.2637L20.0799 20.0337C20.7237 21.3188 21.2363 22.6656 21.6099 24.0537C21.9997 26.0295 22.074 28.0546 21.8299 30.0537C21.7164 31.2468 21.683 32.4461 21.7299 33.6437C21.9107 36.5651 22.99 39.3592 24.8199 41.6437C28.9099 46.6437 36.5899 48.0937 43.0599 45.0637Z" fill="black"/>
</g>
</svg>
