<svg width="277" height="51" viewBox="0 0 277 51" fill="none" xmlns="http://www.w3.org/2000/svg">
<path d="M137.18 16.6318V24.0489H140.232C141.503 24.0489 142.446 23.3178 142.446 22.0675C142.446 21.0185 141.736 20.5205 141.175 20.3722V20.2662C141.726 20.0861 142.436 19.6199 142.436 18.5709C142.436 17.3735 141.503 16.6318 140.253 16.6318H137.18ZM138.038 17.4053H140.168C141.037 17.4053 141.588 17.9139 141.588 18.645C141.588 19.4079 141.069 19.9271 140.179 19.9271H138.038V17.4053ZM138.038 20.7112H140.147C141.09 20.7112 141.609 21.2092 141.609 21.9827C141.609 22.735 141.09 23.2754 140.189 23.2754H138.038V20.7112ZM143.454 17.257C143.454 17.649 143.741 17.9351 144.133 17.9351C144.525 17.9351 144.821 17.649 144.821 17.257C144.821 16.8755 144.525 16.5895 144.133 16.5895C143.741 16.5895 143.454 16.8755 143.454 17.257ZM144.546 18.8782H143.73V24.0489H144.546V18.8782ZM145.75 21.4635C145.75 23.0847 146.821 24.1973 148.389 24.1973C149.957 24.1973 151.038 23.0847 151.038 21.4635C151.038 19.8318 149.957 18.7298 148.389 18.7298C146.821 18.7298 145.75 19.8318 145.75 21.4635ZM146.556 21.4635C146.556 20.2874 147.287 19.4503 148.389 19.4503C149.491 19.4503 150.222 20.2556 150.222 21.4635C150.222 22.6609 149.491 23.4768 148.389 23.4768C147.287 23.4768 146.556 22.6927 146.556 21.4635ZM151.97 17.257C151.97 17.649 152.257 17.9351 152.649 17.9351C153.041 17.9351 153.337 17.649 153.337 17.257C153.337 16.8755 153.041 16.5895 152.649 16.5895C152.257 16.5895 151.97 16.8755 151.97 17.257ZM153.062 18.8782H152.246V24.0489H153.062V18.8782ZM154.595 18.8782V24.0489H155.411V21.4318C155.411 20.1391 156.121 19.4715 157.117 19.4715C158.007 19.4715 158.568 19.9271 158.568 20.9655V24.0489H159.374V20.9126C159.374 19.5245 158.462 18.7722 157.329 18.7722C156.258 18.7722 155.739 19.2596 155.495 19.747H155.389V18.8782H154.595ZM160.201 18.8782V19.5563H161.811V24.0489H162.627V19.5563H164.269V18.8782H162.627V17.6278C162.627 17.4159 162.733 17.31 162.924 17.31H164.026V16.6318H162.659C162.14 16.6318 161.811 16.9603 161.811 17.5007V18.8782H160.201ZM164.945 21.4635C164.945 23.0847 166.015 24.1973 167.583 24.1973C169.152 24.1973 170.232 23.0847 170.232 21.4635C170.232 19.8318 169.152 18.7298 167.583 18.7298C166.015 18.7298 164.945 19.8318 164.945 21.4635ZM165.75 21.4635C165.75 20.2874 166.481 19.4503 167.583 19.4503C168.685 19.4503 169.416 20.2556 169.416 21.4635C169.416 22.6609 168.685 23.4768 167.583 23.4768C166.481 23.4768 165.75 22.6927 165.75 21.4635ZM172.235 18.8782H171.441V24.0489H172.256V20.8702C172.256 19.9801 172.744 19.5669 173.507 19.5669H174.344V18.857H173.634C172.945 18.857 172.543 19.0583 172.341 19.5563H172.235V18.8782ZM175.311 18.8782V24.0489H176.126V20.9232C176.126 19.9801 176.677 19.4715 177.43 19.4715C178.171 19.4715 178.595 19.9166 178.595 20.6053V24.0489H179.411V20.9232C179.411 19.9801 179.962 19.4715 180.725 19.4715C181.456 19.4715 181.891 19.9166 181.891 20.6053V24.0489H182.696V20.5417C182.696 19.4503 181.965 18.7722 180.948 18.7722C180.11 18.7722 179.623 19.1431 179.326 19.7152H179.22C178.998 19.1854 178.5 18.7722 177.695 18.7722C176.921 18.7722 176.455 19.1007 176.211 19.5563H176.105V18.8782H175.311ZM184.019 20.3086L184.782 20.5417C184.941 19.8848 185.418 19.4185 186.266 19.4185C187.124 19.4185 187.558 19.8848 187.558 20.6265V21.0079H185.789C184.687 21.0079 183.86 21.5271 183.86 22.5761C183.86 23.6145 184.687 24.1973 185.768 24.1973C186.785 24.1973 187.23 23.7205 187.463 23.3072H187.58V24.0489H188.364V20.6689C188.364 19.4503 187.58 18.7298 186.266 18.7298C184.962 18.7298 184.263 19.4397 184.019 20.3086ZM184.666 22.5655C184.666 21.9827 185.153 21.6755 185.821 21.6755H187.558V21.8026C187.558 22.8728 186.88 23.5191 185.884 23.5191C185.153 23.5191 184.666 23.1483 184.666 22.5655ZM189.088 19.5563H190.688V23.1801C190.688 23.7205 191.017 24.0489 191.536 24.0489H192.966V23.3708H191.79C191.6 23.3708 191.494 23.2648 191.494 23.0529V19.5563H193.2V18.8782H191.494V17.0239H190.688V18.8782H189.088V19.5563ZM194.074 17.257C194.074 17.649 194.361 17.9351 194.753 17.9351C195.145 17.9351 195.441 17.649 195.441 17.257C195.441 16.8755 195.145 16.5895 194.753 16.5895C194.361 16.5895 194.074 16.8755 194.074 17.257ZM195.166 18.8782H194.35V24.0489H195.166V18.8782ZM196.37 21.4635C196.37 23.0635 197.547 24.1973 199.051 24.1973C200.46 24.1973 201.297 23.3284 201.531 22.2264L200.736 22.0463C200.598 22.8728 200.058 23.4768 199.062 23.4768C198.002 23.4768 197.197 22.6503 197.197 21.4635C197.197 20.2768 197.992 19.4503 199.051 19.4503C199.994 19.4503 200.598 20.0331 200.704 20.8702L201.499 20.7006C201.319 19.6093 200.429 18.7298 199.041 18.7298C197.547 18.7298 196.37 19.853 196.37 21.4635ZM202.542 20.2132C202.542 21.1351 203.305 21.5483 204.28 21.7073L204.81 21.7814C205.562 21.9086 206.007 22.1205 206.007 22.6397C206.007 23.1801 205.509 23.5403 204.715 23.5403C203.92 23.5403 203.242 23.2119 203.072 22.1523L202.299 22.3324C202.489 23.6145 203.433 24.1973 204.715 24.1973C205.976 24.1973 206.802 23.6039 206.802 22.5973C206.802 21.5801 205.997 21.2622 204.937 21.0821L204.407 21.0079C203.793 20.902 203.348 20.69 203.348 20.192C203.348 19.6728 203.793 19.3868 204.503 19.3868C205.202 19.3868 205.721 19.6834 205.87 20.4463L206.622 20.245C206.41 19.2914 205.668 18.7298 204.503 18.7298C203.305 18.7298 202.542 19.2914 202.542 20.2132ZM211.035 19.4927V21.1881C211.035 23.1483 212.169 24.1973 213.939 24.1973C215.708 24.1973 216.842 23.1483 216.842 21.1881V19.4927C216.842 17.5325 215.708 16.4835 213.939 16.4835C212.169 16.4835 211.035 17.5325 211.035 19.4927ZM211.894 19.4503C211.894 18.0835 212.646 17.2464 213.939 17.2464C215.221 17.2464 215.973 18.0835 215.973 19.4503V21.2304C215.973 22.5973 215.221 23.4238 213.939 23.4238C212.646 23.4238 211.894 22.5973 211.894 21.2304V19.4503ZM218.17 26.1681H218.986V23.1801H219.092C219.388 23.6887 219.95 24.1973 221.02 24.1973C222.376 24.1973 223.468 23.1271 223.468 21.4635C223.468 19.7894 222.376 18.7298 221.02 18.7298C219.95 18.7298 219.388 19.2384 219.071 19.7682H218.965V18.8782H218.17V26.1681ZM220.819 23.4768C219.749 23.4768 218.975 22.7033 218.975 21.4635C218.975 20.2238 219.749 19.4397 220.819 19.4397C221.9 19.4397 222.641 20.2132 222.641 21.4635C222.641 22.7139 221.9 23.4768 220.819 23.4768ZM224.339 21.4212C224.339 23.0105 225.399 24.1973 227.01 24.1973C228.419 24.1973 229.012 23.4026 229.341 22.788L228.641 22.4278C228.366 22.9999 227.91 23.4768 227.01 23.4768C225.971 23.4768 225.251 22.7774 225.177 21.7178H229.425V21.2834C229.425 19.7046 228.398 18.7298 226.935 18.7298C225.431 18.7298 224.339 19.8636 224.339 21.4212ZM225.187 21.0397C225.304 20.0649 225.961 19.4503 226.935 19.4503C227.889 19.4503 228.535 20.0119 228.588 21.0397H225.187ZM230.587 18.8782V24.0489H231.403V21.4318C231.403 20.1391 232.113 19.4715 233.109 19.4715C233.999 19.4715 234.56 19.9271 234.56 20.9655V24.0489H235.366V20.9126C235.366 19.5245 234.454 18.7722 233.321 18.7722C232.251 18.7722 231.731 19.2596 231.488 19.747H231.382V18.8782H230.587ZM242.554 16.4835C241.06 16.4835 240.032 17.257 240.032 18.4967C240.032 19.747 240.891 20.2556 242.194 20.5629L242.755 20.7006C243.751 20.9338 244.408 21.2304 244.408 22.0463C244.408 22.8622 243.741 23.4344 242.575 23.4344C241.42 23.4344 240.626 22.8516 240.626 21.5589V21.4847H239.767V21.5589C239.767 23.3284 240.965 24.1973 242.575 24.1973C244.196 24.1973 245.256 23.3284 245.256 22.0357C245.256 20.7324 244.292 20.245 243.01 19.9483L242.438 19.8106C241.452 19.5775 240.891 19.302 240.891 18.4861C240.891 17.6914 241.547 17.2464 242.554 17.2464C243.582 17.2464 244.334 17.6914 244.334 18.7722V19.1219H245.192V18.7722C245.192 17.257 244.048 16.4835 242.554 16.4835ZM246.183 21.4635C246.183 23.0847 247.253 24.1973 248.822 24.1973C250.39 24.1973 251.471 23.0847 251.471 21.4635C251.471 19.8318 250.39 18.7298 248.822 18.7298C247.253 18.7298 246.183 19.8318 246.183 21.4635ZM246.989 21.4635C246.989 20.2874 247.72 19.4503 248.822 19.4503C249.924 19.4503 250.655 20.2556 250.655 21.4635C250.655 22.6609 249.924 23.4768 248.822 23.4768C247.72 23.4768 246.989 22.6927 246.989 21.4635ZM257.426 24.0489V18.8782H256.621V21.4953C256.621 22.788 255.9 23.4556 254.915 23.4556C254.014 23.4556 253.452 22.9999 253.452 21.9616V18.8782H252.647V22.0145C252.647 23.4026 253.558 24.1443 254.692 24.1443C255.762 24.1443 256.281 23.6675 256.536 23.1801H256.642V24.0489H257.426ZM259.765 18.8782H258.97V24.0489H259.786V20.8702C259.786 19.9801 260.273 19.5669 261.036 19.5669H261.873V18.857H261.164C260.475 18.857 260.072 19.0583 259.871 19.5563H259.765V18.8782ZM262.243 21.4635C262.243 23.0635 263.419 24.1973 264.923 24.1973C266.333 24.1973 267.17 23.3284 267.403 22.2264L266.608 22.0463C266.47 22.8728 265.93 23.4768 264.934 23.4768C263.874 23.4768 263.069 22.6503 263.069 21.4635C263.069 20.2768 263.864 19.4503 264.923 19.4503C265.866 19.4503 266.47 20.0331 266.576 20.8702L267.371 20.7006C267.191 19.6093 266.301 18.7298 264.913 18.7298C263.419 18.7298 262.243 19.853 262.243 21.4635ZM268.244 21.4212C268.244 23.0105 269.304 24.1973 270.914 24.1973C272.323 24.1973 272.917 23.4026 273.245 22.788L272.546 22.4278C272.27 22.9999 271.815 23.4768 270.914 23.4768C269.876 23.4768 269.155 22.7774 269.081 21.7178H273.33V21.2834C273.33 19.7046 272.302 18.7298 270.84 18.7298C269.335 18.7298 268.244 19.8636 268.244 21.4212ZM269.092 21.0397C269.208 20.0649 269.865 19.4503 270.84 19.4503C271.794 19.4503 272.44 20.0119 272.493 21.0397H269.092ZM136.947 33.1139C136.947 35.0741 138.049 36.1973 139.872 36.1973C141.588 36.1973 142.626 35.1907 142.626 33.5589V33.347H141.768V33.5695C141.768 34.6927 141.164 35.4238 139.872 35.4238C138.579 35.4238 137.805 34.5761 137.805 33.1351V31.5457C137.805 30.1047 138.568 29.2464 139.872 29.2464C141.101 29.2464 141.768 30.0093 141.768 31.1325V31.302H142.626V31.1431C142.626 29.5113 141.652 28.4835 139.872 28.4835C138.07 28.4835 136.947 29.6067 136.947 31.5669V33.1139ZM143.536 33.4635C143.536 35.0847 144.606 36.1973 146.174 36.1973C147.743 36.1973 148.823 35.0847 148.823 33.4635C148.823 31.8318 147.743 30.7298 146.174 30.7298C144.606 30.7298 143.536 31.8318 143.536 33.4635ZM144.341 33.4635C144.341 32.2874 145.072 31.4503 146.174 31.4503C147.276 31.4503 148.007 32.2556 148.007 33.4635C148.007 34.6609 147.276 35.4768 146.174 35.4768C145.072 35.4768 144.341 34.6927 144.341 33.4635ZM150.032 30.8782V36.0489H150.847V33.4318C150.847 32.1391 151.557 31.4715 152.553 31.4715C153.443 31.4715 154.005 31.9271 154.005 32.9655V36.0489H154.81V32.9126C154.81 31.5245 153.899 30.7722 152.765 30.7722C151.695 30.7722 151.176 31.2596 150.932 31.747H150.826V30.8782H150.032ZM155.637 30.8782V31.5563H157.248V36.0489H158.064V31.5563H159.706V30.8782H158.064V29.6278C158.064 29.4159 158.17 29.31 158.36 29.31H159.462V28.6318H158.096C157.576 28.6318 157.248 28.9603 157.248 29.5007V30.8782H155.637ZM160.371 33.4212C160.371 35.0105 161.431 36.1973 163.041 36.1973C164.451 36.1973 165.044 35.4026 165.372 34.788L164.673 34.4278C164.398 34.9999 163.942 35.4768 163.041 35.4768C162.003 35.4768 161.282 34.7774 161.208 33.7178H165.457V33.2834C165.457 31.7046 164.429 30.7298 162.967 30.7298C161.462 30.7298 160.371 31.8636 160.371 33.4212ZM161.219 33.0397C161.335 32.0649 161.992 31.4503 162.967 31.4503C163.921 31.4503 164.567 32.0119 164.62 33.0397H161.219ZM167.413 30.8782H166.619V36.0489H167.434V32.8702C167.434 31.9801 167.922 31.5669 168.685 31.5669H169.522V30.857H168.812C168.123 30.857 167.721 31.0583 167.519 31.5563H167.413V30.8782ZM169.88 33.4212C169.88 35.0105 170.94 36.1973 172.551 36.1973C173.96 36.1973 174.553 35.4026 174.882 34.788L174.182 34.4278C173.907 34.9999 173.451 35.4768 172.551 35.4768C171.512 35.4768 170.792 34.7774 170.718 33.7178H174.966V33.2834C174.966 31.7046 173.939 30.7298 172.476 30.7298C170.972 30.7298 169.88 31.8636 169.88 33.4212ZM170.728 33.0397C170.845 32.0649 171.502 31.4503 172.476 31.4503C173.43 31.4503 174.076 32.0119 174.129 33.0397H170.728ZM176.128 30.8782V36.0489H176.944V33.4318C176.944 32.1391 177.654 31.4715 178.65 31.4715C179.54 31.4715 180.101 31.9271 180.101 32.9655V36.0489H180.907V32.9126C180.907 31.5245 179.995 30.7722 178.862 30.7722C177.792 30.7722 177.272 31.2596 177.029 31.747H176.923V30.8782H176.128ZM182.06 33.4635C182.06 35.0635 183.236 36.1973 184.741 36.1973C186.15 36.1973 186.987 35.3284 187.22 34.2264L186.425 34.0463C186.288 34.8728 185.747 35.4768 184.751 35.4768C183.692 35.4768 182.886 34.6503 182.886 33.4635C182.886 32.2768 183.681 31.4503 184.741 31.4503C185.684 31.4503 186.288 32.0331 186.393 32.8702L187.188 32.7006C187.008 31.6093 186.118 30.7298 184.73 30.7298C183.236 30.7298 182.06 31.853 182.06 33.4635ZM188.061 33.4212C188.061 35.0105 189.121 36.1973 190.731 36.1973C192.14 36.1973 192.734 35.4026 193.062 34.788L192.363 34.4278C192.087 34.9999 191.632 35.4768 190.731 35.4768C189.693 35.4768 188.972 34.7774 188.898 33.7178H193.147V33.2834C193.147 31.7046 192.119 30.7298 190.657 30.7298C189.152 30.7298 188.061 31.8636 188.061 33.4212ZM188.909 33.0397C189.025 32.0649 189.682 31.4503 190.657 31.4503C191.611 31.4503 192.257 32.0119 192.31 33.0397H188.909ZM197.282 31.0371V31.2914H198.14V31.0795C198.14 29.8821 198.903 29.2464 199.962 29.2464C200.98 29.2464 201.668 29.8504 201.668 30.8676C201.668 31.8742 200.937 32.3828 199.719 32.69C198.257 33.0503 197.25 33.6225 197.25 35.1377V36.0489H202.537V35.2754H198.129V35.0529C198.129 33.9721 198.85 33.7073 200.132 33.3682C201.647 32.9761 202.537 32.2556 202.537 30.8782C202.537 29.4265 201.435 28.4835 199.962 28.4835C198.468 28.4835 197.282 29.4053 197.282 31.0371ZM203.502 31.5033V33.1775C203.502 35.1589 204.519 36.1973 206.204 36.1973C207.889 36.1973 208.906 35.1589 208.906 33.1775V31.5033C208.906 29.5431 207.889 28.4835 206.204 28.4835C204.519 28.4835 203.502 29.5431 203.502 31.5033ZM204.361 31.4503C204.361 30.0941 204.996 29.2464 206.204 29.2464C207.412 29.2464 208.048 30.0835 208.048 31.4503V33.2304C208.048 34.5867 207.455 35.4238 206.204 35.4238C204.975 35.4238 204.361 34.6079 204.361 33.2304V31.4503ZM209.937 31.0371V31.2914H210.795V31.0795C210.795 29.8821 211.558 29.2464 212.617 29.2464C213.635 29.2464 214.323 29.8504 214.323 30.8676C214.323 31.8742 213.592 32.3828 212.374 32.69C210.912 33.0503 209.905 33.6225 209.905 35.1377V36.0489H215.192V35.2754H210.784V35.0529C210.784 33.9721 211.505 33.7073 212.787 33.3682C214.302 32.9761 215.192 32.2556 215.192 30.8782C215.192 29.4265 214.09 28.4835 212.617 28.4835C211.123 28.4835 209.937 29.4053 209.937 31.0371ZM217.757 28.6318L215.68 31.8424H216.645L218.118 29.5643H218.245V36.0489H219.103L219.114 28.6318H217.757Z" fill="black"/>
<path d="M57.6751 15.9982V35.9057H66.4913C69.904 35.9057 72.3782 33.8866 72.3782 30.5307C72.3782 27.6299 70.4443 26.407 68.9939 26.0089V25.7245C70.4443 25.2979 72.2929 24.1319 72.2929 21.2595C72.2929 18.0174 69.8755 15.9982 66.4344 15.9982H57.6751ZM60.974 18.9844H66.0931C67.9132 18.9844 69.1361 20.0366 69.1361 21.6861C69.1361 23.3356 67.9417 24.4163 66.0931 24.4163H60.974V18.9844ZM60.974 27.374H66.0931C68.0554 27.374 69.2214 28.4262 69.2214 30.161C69.2214 31.8389 68.0554 32.9196 66.15 32.9196H60.974V27.374ZM74.4603 23.5915V28.3125C74.4603 33.46 77.617 36.3039 82.537 36.3039C87.457 36.3039 90.5853 33.46 90.5853 28.3125V23.5915C90.5853 18.444 87.457 15.6001 82.537 15.6001C77.617 15.6001 74.4603 18.444 74.4603 23.5915ZM77.7592 23.4778C77.7592 20.4632 79.5224 18.5293 82.537 18.5293C85.5231 18.5293 87.2864 20.4632 87.2864 23.4778V28.4262C87.2864 31.4408 85.5231 33.3746 82.537 33.3746C79.5224 33.3746 77.7592 31.4408 77.7592 28.4262V23.4778ZM99.9596 15.6001C95.7791 15.6001 93.0489 17.733 93.0489 21.2879C93.0489 24.8144 95.3809 26.2079 99.334 27.0896L100.272 27.2886C102.86 27.8859 104.339 28.54 104.339 30.3601C104.339 32.1518 102.889 33.4031 100.159 33.4031C97.4001 33.4031 95.6653 32.0949 95.6653 29.3647V29.1088H92.4232V29.3647C92.4232 33.8297 95.6369 36.3039 100.159 36.3039C104.681 36.3039 107.581 33.8581 107.581 30.2748C107.581 26.6914 104.908 25.241 100.927 24.3878L99.9881 24.1603C97.4854 23.5915 96.291 22.8805 96.291 21.1742C96.291 19.4963 97.5707 18.5009 99.9596 18.5009C102.405 18.5009 103.998 19.4963 103.998 21.9705V22.5962H107.24V21.9705C107.24 17.733 104.14 15.6001 99.9596 15.6001ZM109.509 28.2271C109.509 33.4031 112.638 36.3039 117.586 36.3039C122.478 36.3039 125.322 33.4884 125.322 29.1656V28.4831H122.051V29.2225C122.051 31.5545 120.572 33.3746 117.586 33.3746C114.629 33.3746 112.808 31.4408 112.808 28.284V23.62C112.808 20.4632 114.6 18.5293 117.586 18.5293C120.515 18.5293 122.051 20.3779 122.051 22.7099V23.2503H125.322V22.7668C125.322 18.4156 122.535 15.6001 117.586 15.6001C112.638 15.6001 109.509 18.5009 109.509 23.6768V28.2271Z" fill="black"/>
<path d="M131.199 17.2325V36.7062" stroke="black"/>
<path d="M38.5318 29.1379C37.8785 25.9852 36.2893 23.103 33.9718 20.8679C32.067 19.0862 29.9433 17.5539 27.6518 16.3079C25.4643 15.1238 23.4462 13.6506 21.6518 11.9279C21.12 11.3356 20.6383 10.7001 20.2118 10.0279C19.4286 8.65992 18.3276 7.50059 17.0018 6.64789C15.3312 5.77469 13.3946 5.55713 11.5718 6.03789C10.098 6.26056 8.73071 6.93894 7.66184 7.97789C6.67184 6.71789 5.14184 4.26789 6.05184 2.10789C6.10912 1.98611 6.14124 1.85402 6.14626 1.71953C6.15128 1.58504 6.1291 1.45093 6.08105 1.32521C6.033 1.1995 5.96007 1.08478 5.86663 0.987924C5.77319 0.891069 5.66116 0.814071 5.53725 0.761545C5.41334 0.709018 5.2801 0.682044 5.14552 0.682237C5.01094 0.68243 4.87778 0.709787 4.75402 0.762668C4.63026 0.81555 4.51845 0.892869 4.42529 0.989992C4.33213 1.08711 4.25953 1.20204 4.21184 1.32789C3.01184 4.15789 4.53184 7.07789 5.74184 8.71789C5.22587 8.79526 4.72797 8.96462 4.27184 9.21789C3.72828 9.46899 3.215 9.78099 2.74184 10.1479C2.04986 10.7741 1.50998 11.55 1.16338 12.4165C0.816783 13.283 0.672604 14.2172 0.741837 15.1479C0.884549 16.8912 1.36694 18.5898 2.16184 20.1479L2.52184 20.9279C3.10565 22.0755 3.57459 23.278 3.92184 24.5179C4.26195 26.2978 4.31932 28.1201 4.09184 29.9179C3.97222 31.2009 3.93881 32.4904 3.99184 33.7779C4.19494 37.1271 5.43175 40.331 7.53184 42.9479C9.09662 44.7944 11.0523 46.27 13.2574 47.268C15.4625 48.2659 17.8618 48.7611 20.2818 48.7179C23.0058 48.7163 25.696 48.1154 28.1618 46.9579C31.7404 45.2351 34.7114 42.4663 36.6818 39.0179C38.4314 36.0409 39.0858 32.5462 38.5318 29.1379ZM34.9518 38.0179C33.1888 41.1096 30.5279 43.5926 27.3218 45.1379C20.8518 48.1679 13.1718 46.7179 9.08184 41.7179C7.25195 39.4334 6.17272 36.6393 5.99184 33.7179C5.94498 32.5203 5.97839 31.321 6.09184 30.1279C6.33595 28.1288 6.2617 26.1037 5.87184 24.1279C5.49827 22.7399 4.98568 21.3931 4.34184 20.1079L3.99184 19.3379C3.30466 18.0045 2.88029 16.5515 2.74184 15.0579C2.69965 14.4371 2.79723 13.8148 3.02741 13.2368C3.25759 12.6588 3.61449 12.1397 4.07184 11.7179C4.43115 11.4472 4.81636 11.2127 5.22184 11.0179C5.52251 10.8279 5.8667 10.7177 6.22184 10.6979H6.47184C6.96664 10.746 7.46508 10.656 7.91184 10.4379L8.06184 10.3679L8.19184 10.2579C8.46603 10.0404 8.71432 9.79208 8.93184 9.51789L9.06184 9.35789C9.85972 8.64987 10.8533 8.20013 11.9118 8.06789C13.2498 7.70272 14.6758 7.84888 15.9118 8.47789C16.9609 9.18874 17.8304 10.1336 18.4518 11.2379C18.9404 12.0028 19.4923 12.7254 20.1018 13.3979C22.0324 15.2526 24.2055 16.837 26.5618 18.1079C28.7071 19.2684 30.6963 20.6964 32.4818 22.3579C34.5026 24.3139 35.8951 26.8274 36.4818 29.5779C36.9561 32.4834 36.4158 35.4637 34.9518 38.0179Z" fill="black"/>
<mask id="mask0" mask-type="alpha" maskUnits="userSpaceOnUse" x="5" y="8" width="35" height="38">
<path d="M30.2881 9.29239C30.4947 9.98121 30.7014 10.7389 30.0125 10.3945C28.8415 9.77457 27.3261 9.08575 27.8083 9.56792C28.2905 10.0501 28.4971 10.6012 27.7394 10.5323C26.9817 10.4634 25.6041 10.2567 24.9841 11.1522C24.3642 12.0477 23.5376 11.841 23.331 12.1854C23.1243 12.5299 22.7799 13.9764 22.16 13.4942C21.54 13.0809 20.3002 11.4966 21.3334 11.9099C22.3666 12.3232 23.5376 11.841 22.5733 10.7389C21.6089 9.6368 20.6446 10.0501 20.2313 9.43016C19.818 8.81022 18.4403 8.05252 17.4071 9.56792C16.4428 11.0833 15.5473 13.0809 14.9962 13.4942C14.4452 13.9075 13.2742 14.6652 13.4808 15.2851C13.6186 15.9051 13.6875 17.3516 14.3074 16.9383C14.9274 16.525 15.2718 16.3184 15.5473 16.7317C15.7539 17.145 15.6851 17.9715 16.1672 17.9715C16.1672 17.9715 17.1316 17.2827 17.2005 16.6628C17.2693 16.0428 16.5116 15.6984 17.0627 14.803C17.6138 13.9075 18.8536 12.1854 18.5781 13.0809C18.3026 13.9075 17.6826 15.1474 18.1648 15.6984C18.5781 16.2495 20.989 15.5607 19.8869 16.1117C18.7848 16.6628 18.2337 17.0761 18.0271 17.7649C17.8204 18.4537 17.6138 19.0048 17.0627 18.7292C16.5116 18.4537 15.8228 18.5915 15.5473 18.5915C15.2718 18.5915 15.134 17.3516 14.6518 17.6271C14.2385 17.9027 14.7896 18.7981 14.3074 18.867C13.8252 18.9359 13.7564 19.4869 13.2053 19.9002C12.6542 20.3135 11.8965 21.1401 11.4144 21.209C10.9322 21.2779 12.1721 21.8978 11.9654 22.4489C11.7588 23.0688 10.6567 22.9999 10.2434 23.0688C9.83008 23.1377 10.1745 23.9643 9.96784 24.4465C9.7612 24.9286 10.1745 25.4108 10.8633 25.4108C11.5521 25.4108 12.241 25.273 12.3098 24.6531C12.3787 24.0332 12.9987 22.9999 13.4808 23.2066C13.8941 23.4132 14.9274 22.7933 15.134 23.1377C15.3406 23.4821 16.6494 24.6531 16.5116 24.7909C16.3739 24.9286 15.6162 25.273 15.8917 25.4108C15.8917 25.4108 16.0984 25.7552 16.2361 25.6863C16.3739 25.6175 16.7183 24.722 16.9249 24.5842C17.1316 24.4465 17.1316 23.9643 16.8561 23.7576C16.5116 23.551 15.3406 22.7244 15.6162 22.3111C15.8917 21.8978 16.5116 22.7933 16.7872 23.0688C17.0627 23.3443 17.476 23.6888 17.476 24.3087C17.476 24.9286 17.8893 24.9286 17.8893 25.2042C17.9582 25.5486 18.0959 25.6175 18.4403 25.6175C18.7848 25.5486 18.9225 24.7909 18.7848 24.5842C18.5781 24.3776 18.5781 23.9643 18.9914 23.9643C19.4047 23.9643 19.8869 23.6199 19.8869 23.4132C19.8869 23.2066 20.3002 21.9667 20.5757 21.9667C20.8512 21.9667 21.0579 22.4489 21.1267 22.7244C21.2645 22.9999 21.9533 22.5178 21.8156 22.2422C21.6778 21.9667 21.8845 21.8978 22.0911 21.8978C22.2977 21.8978 22.16 22.4489 22.2977 22.5866C22.5044 22.7244 23.4687 23.3443 23.1243 23.6888C22.7799 24.0332 22.2977 23.8265 21.9533 23.551C21.6089 23.2755 20.7135 23.4132 20.4379 23.6888C20.2313 23.9643 20.0246 24.102 19.6113 24.102C19.198 24.102 19.2669 24.8598 19.6113 25.1353C19.9558 25.4797 20.4379 25.2042 20.7823 25.4108C21.1267 25.6175 21.6778 25.1353 21.7467 25.4797C21.8156 25.8241 21.6778 26.8573 21.3334 26.9262C20.989 26.9951 19.8869 27.2017 19.1292 26.8573C18.3026 26.5129 17.5449 26.3752 17.476 26.7196C17.4071 27.1329 17.4071 27.4084 16.8561 27.064C16.305 26.7196 15.8228 26.5129 15.4784 26.5129C15.134 26.5129 15.134 25.893 15.2029 25.4108C15.2718 24.9286 14.3763 25.0664 13.8252 25.2042C13.2742 25.3419 12.1721 25.6863 11.4833 25.6863C10.7944 25.6863 10.5189 25.8241 10.3811 26.0996C10.2434 26.3752 9.62343 26.3752 9.62343 26.9262C9.62343 27.4773 9.69232 27.615 9.14126 27.8906C8.52132 28.0972 8.38355 29.1993 8.10803 29.4749C7.8325 29.7504 8.38355 30.4392 8.10803 30.8525C7.8325 31.1969 7.55697 32.1613 8.03914 32.3679C8.52132 32.5745 9.00349 33.5389 9.21014 33.8833C9.41679 34.2277 10.1745 34.5721 10.9322 34.4344C11.6899 34.2966 13.0675 33.8833 13.8252 34.2277C14.5829 34.5721 15.3406 34.5033 14.9962 35.1921C14.5829 35.8809 15.2029 36.7764 15.6851 37.2585C16.1672 37.7407 16.0295 38.9806 15.7539 39.325C15.4784 39.7383 15.5473 40.4271 15.8228 40.7715C16.0984 41.1159 16.2361 41.9425 16.2361 42.218C16.2361 42.5625 16.7872 43.1824 16.8561 43.8023C16.9249 44.4912 16.4428 45.2489 17.0627 45.2489C17.6826 45.2489 19.2669 45.3177 19.4047 45.0422C19.5425 44.7667 20.7823 43.6646 21.1267 43.1824C21.4712 42.7002 22.16 41.8736 21.9533 41.3915C21.54 41.0471 21.8156 40.7026 22.5044 40.4271C23.1932 40.1516 23.1932 38.2229 22.8488 37.7407C22.5044 37.2585 23.1243 36.0875 23.882 35.7431C24.6397 35.3987 26.4307 32.2301 25.8796 32.5057C25.2597 32.7812 24.0887 32.9878 23.6754 32.7123C23.2621 32.4368 20.8512 28.3039 21.1956 28.0283C21.54 27.7528 23.4687 31.8168 23.8132 32.299C24.1576 32.8501 27.395 30.8525 27.8083 30.3703C28.1527 29.8881 27.6017 29.406 27.395 29.406C27.1884 29.406 26.4307 28.9238 26.224 29.1993C26.0174 29.4749 24.6397 27.2017 25.1219 27.4084C25.6041 27.615 26.6373 28.3039 27.6017 28.8549C28.566 29.406 29.6681 28.5105 30.2881 29.5437C30.9769 30.577 31.3902 29.8881 31.3213 30.3703C31.2524 30.8525 32.1479 32.8501 32.4923 33.47C32.7678 34.09 33.3878 33.1945 33.4567 32.5057C33.5255 31.748 34.9721 30.577 35.5231 30.1637C36.0053 29.7504 36.9696 30.3703 37.1074 31.1969C37.2452 32.0235 37.934 31.0591 37.934 31.6791C37.934 32.3679 37.7962 33.2634 38.2784 34.09C39.2427 31.6791 39.7249 29.2682 39.7249 26.6507C39.7249 19.3492 35.9364 12.9431 30.2881 9.29239" fill="black"/>
<path d="M8.31469 11.9099C7.9014 12.0477 7.48811 12.5299 6.93705 12.2543C6.38599 11.9788 5.215 12.3921 5.9727 13.012C6.66152 13.7009 6.38599 14.1141 7.07482 14.183C7.76364 14.2519 8.17693 13.2876 8.6591 13.3564C9.14128 13.4253 8.79687 11.7722 8.31469 11.9099Z" fill="black"/>
<path d="M25.0531 38.8428C24.5709 38.9117 24.7086 39.8761 24.1576 40.0138C23.6754 40.1516 24.0887 40.5649 23.8132 40.9093C23.6065 41.2537 23.4688 42.0803 23.8132 42.4936C24.1576 42.9757 24.2953 42.9757 24.7086 42.218C25.1219 41.5292 26.0863 38.7739 25.0531 38.8428Z" fill="black"/>
<path d="M11.2077 16.525C11.0011 16.525 10.7945 16.6628 10.5878 16.6628C10.3812 16.7317 10.2434 17.0072 10.2434 17.2827C10.2434 17.6271 10.7945 17.696 10.5878 17.9027C10.3812 18.1093 9.27905 18.316 9.41681 18.6604C9.55458 19.0048 9.76122 19.2803 9.55458 19.6247C9.34793 19.9691 9.76122 20.038 10.1745 19.9002C10.5878 19.7625 10.8633 19.2803 10.7945 19.0048C10.7256 18.6604 11.4144 18.5915 11.2077 18.867C11.0011 19.1425 10.6567 19.8314 10.8633 20.038C11.07 20.2447 10.3123 20.5891 10.5878 20.7268C10.8633 20.8646 11.621 20.1758 12.0343 20.3135C12.4476 20.4513 12.5854 20.1758 12.6543 19.8314C12.7232 19.4181 12.1032 18.9359 11.8966 18.4537C11.6899 17.9027 11.8277 16.525 11.2077 16.525" fill="black"/>
</mask>
<g mask="url(#mask0)">
<path d="M27.3314 44.9848C30.5375 43.4396 33.1984 40.9565 34.9614 37.8648C36.4254 35.3106 36.9656 32.3304 36.4914 29.4248C35.9047 26.6743 34.5122 24.1609 32.4914 22.2048C30.7059 20.5434 28.7167 19.1153 26.5714 17.9548C24.2151 16.684 22.042 15.0995 20.1114 13.2448C19.5019 12.5723 18.95 11.8497 18.4614 11.0848C17.84 9.98049 16.9704 9.03565 15.9214 8.32481C14.6854 7.6958 13.2594 7.54963 11.9214 7.9148C10.8629 8.04704 9.86931 8.49679 9.07143 9.20481L8.94143 9.36482C8.72391 9.639 8.47562 9.88729 8.20142 10.1048L8.07143 10.2148L7.92143 10.2848C7.47468 10.5029 6.97624 10.5929 6.48143 10.5448H6.23143C5.8763 10.5646 5.5321 10.6748 5.23143 10.8648C4.82594 11.0596 4.44074 11.2941 4.08143 11.5648C3.62408 11.9866 3.26717 12.5057 3.037 13.0837C2.80682 13.6618 2.70924 14.2841 2.75143 14.9048C2.88989 16.3984 3.31426 17.8515 4.00143 19.1848L4.35143 19.9548C4.99527 21.24 5.50786 22.5868 5.88143 23.9748C6.27129 25.9506 6.34554 27.9757 6.10143 29.9748C5.98798 31.1679 5.95458 32.3673 6.00143 33.5648C6.18231 36.4862 7.26154 39.2803 9.09143 41.5648C13.1814 46.5648 20.8614 48.0148 27.3314 44.9848Z" fill="black"/>
</g>
</svg>
