<svg width="277" height="51" viewBox="0 0 277 51" fill="none" xmlns="http://www.w3.org/2000/svg">
<path d="M137.18 16.7513V24.1684H140.232C141.503 24.1684 142.446 23.4373 142.446 22.187C142.446 21.138 141.736 20.64 141.175 20.4916V20.3857C141.726 20.2055 142.436 19.7393 142.436 18.6903C142.436 17.493 141.503 16.7513 140.253 16.7513H137.18ZM138.038 17.5248H140.168C141.037 17.5248 141.588 18.0334 141.588 18.7645C141.588 19.5274 141.069 20.0466 140.179 20.0466H138.038V17.5248ZM138.038 20.8307H140.147C141.09 20.8307 141.609 21.3287 141.609 22.1022C141.609 22.8545 141.09 23.3949 140.189 23.3949H138.038V20.8307ZM143.454 17.3765C143.454 17.7685 143.741 18.0546 144.133 18.0546C144.525 18.0546 144.821 17.7685 144.821 17.3765C144.821 16.995 144.525 16.7089 144.133 16.7089C143.741 16.7089 143.454 16.995 143.454 17.3765ZM144.546 18.9976H143.73V24.1684H144.546V18.9976ZM145.75 21.583C145.75 23.2042 146.821 24.3167 148.389 24.3167C149.957 24.3167 151.038 23.2042 151.038 21.583C151.038 19.9512 149.957 18.8493 148.389 18.8493C146.821 18.8493 145.75 19.9512 145.75 21.583ZM146.556 21.583C146.556 20.4069 147.287 19.5698 148.389 19.5698C149.491 19.5698 150.222 20.3751 150.222 21.583C150.222 22.7803 149.491 23.5962 148.389 23.5962C147.287 23.5962 146.556 22.8121 146.556 21.583ZM151.97 17.3765C151.97 17.7685 152.257 18.0546 152.649 18.0546C153.041 18.0546 153.337 17.7685 153.337 17.3765C153.337 16.995 153.041 16.7089 152.649 16.7089C152.257 16.7089 151.97 16.995 151.97 17.3765ZM153.062 18.9976H152.246V24.1684H153.062V18.9976ZM154.595 18.9976V24.1684H155.411V21.5512C155.411 20.2585 156.121 19.591 157.117 19.591C158.007 19.591 158.568 20.0466 158.568 21.085V24.1684H159.374V21.032C159.374 19.644 158.462 18.8917 157.329 18.8917C156.258 18.8917 155.739 19.3791 155.495 19.8665H155.389V18.9976H154.595ZM160.201 18.9976V19.6758H161.811V24.1684H162.627V19.6758H164.269V18.9976H162.627V17.7473C162.627 17.5354 162.733 17.4294 162.924 17.4294H164.026V16.7513H162.659C162.14 16.7513 161.811 17.0798 161.811 17.6202V18.9976H160.201ZM164.945 21.583C164.945 23.2042 166.015 24.3167 167.583 24.3167C169.152 24.3167 170.232 23.2042 170.232 21.583C170.232 19.9512 169.152 18.8493 167.583 18.8493C166.015 18.8493 164.945 19.9512 164.945 21.583ZM165.75 21.583C165.75 20.4069 166.481 19.5698 167.583 19.5698C168.685 19.5698 169.416 20.3751 169.416 21.583C169.416 22.7803 168.685 23.5962 167.583 23.5962C166.481 23.5962 165.75 22.8121 165.75 21.583ZM172.235 18.9976H171.441V24.1684H172.256V20.9896C172.256 20.0996 172.744 19.6863 173.507 19.6863H174.344V18.9764H173.634C172.945 18.9764 172.543 19.1777 172.341 19.6758H172.235V18.9976ZM175.311 18.9976V24.1684H176.126V21.0426C176.126 20.0996 176.677 19.591 177.43 19.591C178.171 19.591 178.595 20.036 178.595 20.7247V24.1684H179.411V21.0426C179.411 20.0996 179.962 19.591 180.725 19.591C181.456 19.591 181.891 20.036 181.891 20.7247V24.1684H182.696V20.6612C182.696 19.5698 181.965 18.8917 180.948 18.8917C180.11 18.8917 179.623 19.2625 179.326 19.8347H179.22C178.998 19.3049 178.5 18.8917 177.695 18.8917C176.921 18.8917 176.455 19.2201 176.211 19.6758H176.105V18.9976H175.311ZM184.019 20.4281L184.782 20.6612C184.941 20.0042 185.418 19.538 186.266 19.538C187.124 19.538 187.558 20.0042 187.558 20.7459V21.1274H185.789C184.687 21.1274 183.86 21.6466 183.86 22.6956C183.86 23.734 184.687 24.3167 185.768 24.3167C186.785 24.3167 187.23 23.8399 187.463 23.4267H187.58V24.1684H188.364V20.7883C188.364 19.5698 187.58 18.8493 186.266 18.8493C184.962 18.8493 184.263 19.5592 184.019 20.4281ZM184.666 22.685C184.666 22.1022 185.153 21.7949 185.821 21.7949H187.558V21.9221C187.558 22.9923 186.88 23.6386 185.884 23.6386C185.153 23.6386 184.666 23.2677 184.666 22.685ZM189.088 19.6758H190.688V23.2995C190.688 23.8399 191.017 24.1684 191.536 24.1684H192.966V23.4903H191.79C191.6 23.4903 191.494 23.3843 191.494 23.1724V19.6758H193.2V18.9976H191.494V17.1433H190.688V18.9976H189.088V19.6758ZM194.074 17.3765C194.074 17.7685 194.361 18.0546 194.753 18.0546C195.145 18.0546 195.441 17.7685 195.441 17.3765C195.441 16.995 195.145 16.7089 194.753 16.7089C194.361 16.7089 194.074 16.995 194.074 17.3765ZM195.166 18.9976H194.35V24.1684H195.166V18.9976ZM196.37 21.583C196.37 23.183 197.547 24.3167 199.051 24.3167C200.46 24.3167 201.297 23.4479 201.531 22.3459L200.736 22.1658C200.598 22.9923 200.058 23.5962 199.062 23.5962C198.002 23.5962 197.197 22.7697 197.197 21.583C197.197 20.3963 197.992 19.5698 199.051 19.5698C199.994 19.5698 200.598 20.1526 200.704 20.9896L201.499 20.8201C201.319 19.7287 200.429 18.8493 199.041 18.8493C197.547 18.8493 196.37 19.9724 196.37 21.583ZM202.542 20.3327C202.542 21.2545 203.305 21.6678 204.28 21.8267L204.81 21.9009C205.562 22.028 206.007 22.24 206.007 22.7591C206.007 23.2995 205.509 23.6598 204.715 23.6598C203.92 23.6598 203.242 23.3313 203.072 22.2717L202.299 22.4519C202.489 23.734 203.433 24.3167 204.715 24.3167C205.976 24.3167 206.802 23.7234 206.802 22.7168C206.802 21.6996 205.997 21.3817 204.937 21.2016L204.407 21.1274C203.793 21.0214 203.348 20.8095 203.348 20.3115C203.348 19.7923 203.793 19.5062 204.503 19.5062C205.202 19.5062 205.721 19.8029 205.87 20.5658L206.622 20.3645C206.41 19.4109 205.668 18.8493 204.503 18.8493C203.305 18.8493 202.542 19.4109 202.542 20.3327ZM211.035 19.6122V21.3075C211.035 23.2677 212.169 24.3167 213.939 24.3167C215.708 24.3167 216.842 23.2677 216.842 21.3075V19.6122C216.842 17.6519 215.708 16.603 213.939 16.603C212.169 16.603 211.035 17.6519 211.035 19.6122ZM211.894 19.5698C211.894 18.2029 212.646 17.3659 213.939 17.3659C215.221 17.3659 215.973 18.2029 215.973 19.5698V21.3499C215.973 22.7168 215.221 23.5432 213.939 23.5432C212.646 23.5432 211.894 22.7168 211.894 21.3499V19.5698ZM218.17 26.2876H218.986V23.2995H219.092C219.388 23.8081 219.95 24.3167 221.02 24.3167C222.376 24.3167 223.468 23.2466 223.468 21.583C223.468 19.9089 222.376 18.8493 221.02 18.8493C219.95 18.8493 219.388 19.3579 219.071 19.8877H218.965V18.9976H218.17V26.2876ZM220.819 23.5962C219.749 23.5962 218.975 22.8227 218.975 21.583C218.975 20.3433 219.749 19.5592 220.819 19.5592C221.9 19.5592 222.641 20.3327 222.641 21.583C222.641 22.8333 221.9 23.5962 220.819 23.5962ZM224.339 21.5406C224.339 23.13 225.399 24.3167 227.01 24.3167C228.419 24.3167 229.012 23.522 229.341 22.9075L228.641 22.5472C228.366 23.1194 227.91 23.5962 227.01 23.5962C225.971 23.5962 225.251 22.8969 225.177 21.8373H229.425V21.4029C229.425 19.8241 228.398 18.8493 226.935 18.8493C225.431 18.8493 224.339 19.983 224.339 21.5406ZM225.187 21.1592C225.304 20.1844 225.961 19.5698 226.935 19.5698C227.889 19.5698 228.535 20.1314 228.588 21.1592H225.187ZM230.587 18.9976V24.1684H231.403V21.5512C231.403 20.2585 232.113 19.591 233.109 19.591C233.999 19.591 234.56 20.0466 234.56 21.085V24.1684H235.366V21.032C235.366 19.644 234.454 18.8917 233.321 18.8917C232.251 18.8917 231.731 19.3791 231.488 19.8665H231.382V18.9976H230.587ZM242.554 16.603C241.06 16.603 240.032 17.3765 240.032 18.6162C240.032 19.8665 240.891 20.3751 242.194 20.6824L242.755 20.8201C243.751 21.0532 244.408 21.3499 244.408 22.1658C244.408 22.9817 243.741 23.5538 242.575 23.5538C241.42 23.5538 240.626 22.9711 240.626 21.6784V21.6042H239.767V21.6784C239.767 23.4479 240.965 24.3167 242.575 24.3167C244.196 24.3167 245.256 23.4479 245.256 22.1552C245.256 20.8519 244.292 20.3645 243.01 20.0678L242.438 19.9301C241.452 19.6969 240.891 19.4215 240.891 18.6056C240.891 17.8109 241.547 17.3659 242.554 17.3659C243.582 17.3659 244.334 17.8109 244.334 18.8917V19.2413H245.192V18.8917C245.192 17.3765 244.048 16.603 242.554 16.603ZM246.183 21.583C246.183 23.2042 247.253 24.3167 248.822 24.3167C250.39 24.3167 251.471 23.2042 251.471 21.583C251.471 19.9512 250.39 18.8493 248.822 18.8493C247.253 18.8493 246.183 19.9512 246.183 21.583ZM246.989 21.583C246.989 20.4069 247.72 19.5698 248.822 19.5698C249.924 19.5698 250.655 20.3751 250.655 21.583C250.655 22.7803 249.924 23.5962 248.822 23.5962C247.72 23.5962 246.989 22.8121 246.989 21.583ZM257.426 24.1684V18.9976H256.621V21.6148C256.621 22.9075 255.9 23.575 254.915 23.575C254.014 23.575 253.452 23.1194 253.452 22.081V18.9976H252.647V22.134C252.647 23.522 253.558 24.2638 254.692 24.2638C255.762 24.2638 256.281 23.7869 256.536 23.2995H256.642V24.1684H257.426ZM259.765 18.9976H258.97V24.1684H259.786V20.9896C259.786 20.0996 260.273 19.6863 261.036 19.6863H261.873V18.9764H261.164C260.475 18.9764 260.072 19.1777 259.871 19.6758H259.765V18.9976ZM262.243 21.583C262.243 23.183 263.419 24.3167 264.923 24.3167C266.333 24.3167 267.17 23.4479 267.403 22.3459L266.608 22.1658C266.47 22.9923 265.93 23.5962 264.934 23.5962C263.874 23.5962 263.069 22.7697 263.069 21.583C263.069 20.3963 263.864 19.5698 264.923 19.5698C265.866 19.5698 266.47 20.1526 266.576 20.9896L267.371 20.8201C267.191 19.7287 266.301 18.8493 264.913 18.8493C263.419 18.8493 262.243 19.9724 262.243 21.583ZM268.244 21.5406C268.244 23.13 269.304 24.3167 270.914 24.3167C272.323 24.3167 272.917 23.522 273.245 22.9075L272.546 22.5472C272.27 23.1194 271.815 23.5962 270.914 23.5962C269.876 23.5962 269.155 22.8969 269.081 21.8373H273.33V21.4029C273.33 19.8241 272.302 18.8493 270.84 18.8493C269.335 18.8493 268.244 19.983 268.244 21.5406ZM269.092 21.1592C269.208 20.1844 269.865 19.5698 270.84 19.5698C271.794 19.5698 272.44 20.1314 272.493 21.1592H269.092ZM136.947 33.2333C136.947 35.1936 138.049 36.3167 139.872 36.3167C141.588 36.3167 142.626 35.3101 142.626 33.6784V33.4665H141.768V33.689C141.768 34.8121 141.164 35.5432 139.872 35.5432C138.579 35.5432 137.805 34.6956 137.805 33.2545V31.6652C137.805 30.2241 138.568 29.3659 139.872 29.3659C141.101 29.3659 141.768 30.1288 141.768 31.2519V31.4215H142.626V31.2625C142.626 29.6308 141.652 28.603 139.872 28.603C138.07 28.603 136.947 29.7261 136.947 31.6863V33.2333ZM143.536 33.583C143.536 35.2042 144.606 36.3167 146.174 36.3167C147.743 36.3167 148.823 35.2042 148.823 33.583C148.823 31.9512 147.743 30.8493 146.174 30.8493C144.606 30.8493 143.536 31.9512 143.536 33.583ZM144.341 33.583C144.341 32.4069 145.072 31.5698 146.174 31.5698C147.276 31.5698 148.007 32.3751 148.007 33.583C148.007 34.7803 147.276 35.5962 146.174 35.5962C145.072 35.5962 144.341 34.8121 144.341 33.583ZM150.032 30.9976V36.1684H150.847V33.5512C150.847 32.2585 151.557 31.591 152.553 31.591C153.443 31.591 154.005 32.0466 154.005 33.085V36.1684H154.81V33.032C154.81 31.644 153.899 30.8917 152.765 30.8917C151.695 30.8917 151.176 31.3791 150.932 31.8665H150.826V30.9976H150.032ZM155.637 30.9976V31.6758H157.248V36.1684H158.064V31.6758H159.706V30.9976H158.064V29.7473C158.064 29.5354 158.17 29.4294 158.36 29.4294H159.462V28.7513H158.096C157.576 28.7513 157.248 29.0798 157.248 29.6202V30.9976H155.637ZM160.371 33.5406C160.371 35.13 161.431 36.3167 163.041 36.3167C164.451 36.3167 165.044 35.522 165.372 34.9075L164.673 34.5472C164.398 35.1194 163.942 35.5962 163.041 35.5962C162.003 35.5962 161.282 34.8969 161.208 33.8373H165.457V33.4029C165.457 31.8241 164.429 30.8493 162.967 30.8493C161.462 30.8493 160.371 31.983 160.371 33.5406ZM161.219 33.1592C161.335 32.1844 161.992 31.5698 162.967 31.5698C163.921 31.5698 164.567 32.1314 164.62 33.1592H161.219ZM167.413 30.9976H166.619V36.1684H167.434V32.9896C167.434 32.0996 167.922 31.6863 168.685 31.6863H169.522V30.9764H168.812C168.123 30.9764 167.721 31.1777 167.519 31.6758H167.413V30.9976ZM169.88 33.5406C169.88 35.13 170.94 36.3167 172.551 36.3167C173.96 36.3167 174.553 35.522 174.882 34.9075L174.182 34.5472C173.907 35.1194 173.451 35.5962 172.551 35.5962C171.512 35.5962 170.792 34.8969 170.718 33.8373H174.966V33.4029C174.966 31.8241 173.939 30.8493 172.476 30.8493C170.972 30.8493 169.88 31.983 169.88 33.5406ZM170.728 33.1592C170.845 32.1844 171.502 31.5698 172.476 31.5698C173.43 31.5698 174.076 32.1314 174.129 33.1592H170.728ZM176.128 30.9976V36.1684H176.944V33.5512C176.944 32.2585 177.654 31.591 178.65 31.591C179.54 31.591 180.101 32.0466 180.101 33.085V36.1684H180.907V33.032C180.907 31.644 179.995 30.8917 178.862 30.8917C177.792 30.8917 177.272 31.3791 177.029 31.8665H176.923V30.9976H176.128ZM182.06 33.583C182.06 35.183 183.236 36.3167 184.741 36.3167C186.15 36.3167 186.987 35.4479 187.22 34.3459L186.425 34.1658C186.288 34.9923 185.747 35.5962 184.751 35.5962C183.692 35.5962 182.886 34.7697 182.886 33.583C182.886 32.3963 183.681 31.5698 184.741 31.5698C185.684 31.5698 186.288 32.1526 186.393 32.9896L187.188 32.8201C187.008 31.7287 186.118 30.8493 184.73 30.8493C183.236 30.8493 182.06 31.9724 182.06 33.583ZM188.061 33.5406C188.061 35.13 189.121 36.3167 190.731 36.3167C192.14 36.3167 192.734 35.522 193.062 34.9075L192.363 34.5472C192.087 35.1194 191.632 35.5962 190.731 35.5962C189.693 35.5962 188.972 34.8969 188.898 33.8373H193.147V33.4029C193.147 31.8241 192.119 30.8493 190.657 30.8493C189.152 30.8493 188.061 31.983 188.061 33.5406ZM188.909 33.1592C189.025 32.1844 189.682 31.5698 190.657 31.5698C191.611 31.5698 192.257 32.1314 192.31 33.1592H188.909ZM197.282 31.1566V31.4109H198.14V31.1989C198.14 30.0016 198.903 29.3659 199.962 29.3659C200.98 29.3659 201.668 29.9698 201.668 30.987C201.668 31.9936 200.937 32.5022 199.719 32.8095C198.257 33.1698 197.25 33.7419 197.25 35.2572V36.1684H202.537V35.3949H198.129V35.1724C198.129 34.0916 198.85 33.8267 200.132 33.4876C201.647 33.0956 202.537 32.3751 202.537 30.9976C202.537 29.546 201.435 28.603 199.962 28.603C198.468 28.603 197.282 29.5248 197.282 31.1566ZM203.502 31.6228V33.2969C203.502 35.2783 204.519 36.3167 206.204 36.3167C207.889 36.3167 208.906 35.2783 208.906 33.2969V31.6228C208.906 29.6625 207.889 28.603 206.204 28.603C204.519 28.603 203.502 29.6625 203.502 31.6228ZM204.361 31.5698C204.361 30.2135 204.996 29.3659 206.204 29.3659C207.412 29.3659 208.048 30.2029 208.048 31.5698V33.3499C208.048 34.7062 207.455 35.5432 206.204 35.5432C204.975 35.5432 204.361 34.7274 204.361 33.3499V31.5698ZM209.937 31.1566V31.4109H210.795V31.1989C210.795 30.0016 211.558 29.3659 212.617 29.3659C213.635 29.3659 214.323 29.9698 214.323 30.987C214.323 31.9936 213.592 32.5022 212.374 32.8095C210.912 33.1698 209.905 33.7419 209.905 35.2572V36.1684H215.192V35.3949H210.784V35.1724C210.784 34.0916 211.505 33.8267 212.787 33.4876C214.302 33.0956 215.192 32.3751 215.192 30.9976C215.192 29.546 214.09 28.603 212.617 28.603C211.123 28.603 209.937 29.5248 209.937 31.1566ZM217.757 28.7513L215.68 31.9618H216.645L218.118 29.6837H218.245V36.1684H219.103L219.114 28.7513H217.757Z" fill="white"/>
<path d="M57.6751 16.1177V36.0252H66.4913C69.904 36.0252 72.3782 34.006 72.3782 30.6502C72.3782 27.7494 70.4443 26.5265 68.9939 26.1283V25.8439C70.4443 25.4173 72.2929 24.2513 72.2929 21.379C72.2929 18.1369 69.8755 16.1177 66.4344 16.1177H57.6751ZM60.974 19.1038H66.0931C67.9132 19.1038 69.1361 20.1561 69.1361 21.8056C69.1361 23.455 67.9417 24.5357 66.0931 24.5357H60.974V19.1038ZM60.974 27.4934H66.0931C68.0554 27.4934 69.2214 28.5457 69.2214 30.2805C69.2214 31.9584 68.0554 33.0391 66.15 33.0391H60.974V27.4934ZM74.4603 23.711V28.4319C74.4603 33.5794 77.617 36.4234 82.537 36.4234C87.457 36.4234 90.5853 33.5794 90.5853 28.4319V23.711C90.5853 18.5635 87.457 15.7195 82.537 15.7195C77.617 15.7195 74.4603 18.5635 74.4603 23.711ZM77.7592 23.5972C77.7592 20.5827 79.5224 18.6488 82.537 18.6488C85.5231 18.6488 87.2864 20.5827 87.2864 23.5972V28.5457C87.2864 31.5602 85.5231 33.4941 82.537 33.4941C79.5224 33.4941 77.7592 31.5602 77.7592 28.5457V23.5972ZM99.9596 15.7195C95.7791 15.7195 93.0489 17.8525 93.0489 21.4074C93.0489 24.9339 95.3809 26.3274 99.334 27.209L100.272 27.4081C102.86 28.0053 104.339 28.6594 104.339 30.4795C104.339 32.2712 102.889 33.5225 100.159 33.5225C97.4001 33.5225 95.6653 32.2143 95.6653 29.4842V29.2282H92.4232V29.4842C92.4232 33.9491 95.6369 36.4234 100.159 36.4234C104.681 36.4234 107.581 33.9776 107.581 30.3942C107.581 26.8109 104.908 25.3605 100.927 24.5073L99.9881 24.2798C97.4854 23.711 96.291 23 96.291 21.2937C96.291 19.6157 97.5707 18.6204 99.9596 18.6204C102.405 18.6204 103.998 19.6157 103.998 22.09V22.7156H107.24V22.09C107.24 17.8525 104.14 15.7195 99.9596 15.7195ZM109.509 28.3466C109.509 33.5225 112.638 36.4234 117.586 36.4234C122.478 36.4234 125.322 33.6079 125.322 29.2851V28.6026H122.051V29.342C122.051 31.674 120.572 33.4941 117.586 33.4941C114.629 33.4941 112.808 31.5602 112.808 28.4035V23.7394C112.808 20.5827 114.6 18.6488 117.586 18.6488C120.515 18.6488 122.051 20.4974 122.051 22.8294V23.3697H125.322V22.8863C125.322 18.535 122.535 15.7195 117.586 15.7195C112.638 15.7195 109.509 18.6204 109.509 23.7963V28.3466Z" fill="white"/>
<path d="M131.199 17.352V36.8256" stroke="white"/>
<path d="M38.5318 29.2574C37.8785 26.1047 36.2893 23.2224 33.9718 20.9874C32.067 19.2056 29.9433 17.6733 27.6518 16.4274C25.4643 15.2433 23.4462 13.77 21.6518 12.0474C21.12 11.4551 20.6383 10.8195 20.2118 10.1474C19.4286 8.77938 18.3276 7.62006 17.0018 6.76735C15.3312 5.89415 13.3946 5.67659 11.5718 6.15736C10.098 6.38002 8.73071 7.0584 7.66184 8.09736C6.67184 6.83736 5.14184 4.38736 6.05184 2.22736C6.10912 2.10557 6.14124 1.97348 6.14626 1.83899C6.15128 1.7045 6.1291 1.57039 6.08105 1.44467C6.033 1.31896 5.96007 1.20424 5.86663 1.10739C5.77319 1.01053 5.66116 0.933532 5.53725 0.881006C5.41334 0.82848 5.2801 0.801505 5.14552 0.801698C5.01094 0.801891 4.87778 0.829248 4.75402 0.882129C4.63026 0.935011 4.51845 1.01233 4.42529 1.10945C4.33213 1.20658 4.25953 1.3215 4.21184 1.44735C3.01184 4.27735 4.53184 7.19735 5.74184 8.83735C5.22587 8.91473 4.72797 9.08408 4.27184 9.33735C3.72828 9.58845 3.215 9.90045 2.74184 10.2674C2.04986 10.8935 1.50998 11.6695 1.16338 12.536C0.816783 13.4025 0.672604 14.3367 0.741837 15.2674C0.884549 17.0107 1.36694 18.7092 2.16184 20.2674L2.52184 21.0474C3.10565 22.195 3.57459 23.3975 3.92184 24.6374C4.26195 26.4172 4.31932 28.2396 4.09184 30.0374C3.97222 31.3203 3.93881 32.6099 3.99184 33.8974C4.19494 37.2466 5.43175 40.4504 7.53184 43.0674C9.09662 44.9139 11.0523 46.3895 13.2574 47.3874C15.4625 48.3853 17.8618 48.8806 20.2818 48.8374C23.0058 48.8357 25.696 48.2349 28.1618 47.0774C31.7404 45.3545 34.7114 42.5857 36.6818 39.1374C38.4314 36.1604 39.0858 32.6657 38.5318 29.2574ZM34.9518 38.1374C33.1888 41.2291 30.5279 43.7121 27.3218 45.2574C20.8518 48.2874 13.1718 46.8374 9.08184 41.8374C7.25195 39.5529 6.17272 36.7588 5.99184 33.8374C5.94498 32.6398 5.97839 31.4404 6.09184 30.2474C6.33595 28.2483 6.2617 26.2232 5.87184 24.2474C5.49827 22.8593 4.98568 21.5125 4.34184 20.2274L3.99184 19.4574C3.30466 18.124 2.88029 16.671 2.74184 15.1774C2.69965 14.5566 2.79723 13.9343 3.02741 13.3563C3.25759 12.7782 3.61449 12.2592 4.07184 11.8374C4.43115 11.5667 4.81636 11.3322 5.22184 11.1374C5.52251 10.9473 5.8667 10.8372 6.22184 10.8174H6.47184C6.96664 10.8654 7.46508 10.7754 7.91184 10.5574L8.06184 10.4874L8.19184 10.3774C8.46603 10.1598 8.71432 9.91154 8.93184 9.63735L9.06184 9.47736C9.85972 8.76933 10.8533 8.31959 11.9118 8.18736C13.2498 7.82218 14.6758 7.96834 15.9118 8.59736C16.9609 9.3082 17.8304 10.253 18.4518 11.3574C18.9404 12.1223 19.4923 12.8448 20.1018 13.5174C22.0324 15.3721 24.2055 16.9565 26.5618 18.2274C28.7071 19.3878 30.6963 20.8159 32.4818 22.4774C34.5026 24.4334 35.8951 26.9469 36.4818 29.6974C36.9561 32.6029 36.4158 35.5832 34.9518 38.1374Z" fill="white"/>
<mask id="mask0" mask-type="alpha" maskUnits="userSpaceOnUse" x="5" y="8" width="35" height="38">
<path d="M30.2881 9.41185C30.4947 10.1007 30.7014 10.8584 30.0125 10.514C28.8415 9.89403 27.3261 9.20521 27.8083 9.68738C28.2905 10.1696 28.4971 10.7206 27.7394 10.6517C26.9817 10.5829 25.6041 10.3762 24.9841 11.2717C24.3642 12.1671 23.5376 11.9605 23.331 12.3049C23.1243 12.6493 22.7799 14.0958 22.16 13.6137C21.54 13.2004 20.3002 11.6161 21.3334 12.0294C22.3666 12.4427 23.5376 11.9605 22.5733 10.8584C21.6089 9.75626 20.6446 10.1696 20.2313 9.54962C19.818 8.92968 18.4403 8.17198 17.4071 9.68738C16.4428 11.2028 15.5473 13.2004 14.9962 13.6137C14.4452 14.027 13.2742 14.7847 13.4808 15.4046C13.6186 16.0245 13.6875 17.4711 14.3074 17.0578C14.9274 16.6445 15.2718 16.4378 15.5473 16.8511C15.7539 17.2644 15.6851 18.091 16.1672 18.091C16.1672 18.091 17.1316 17.4022 17.2005 16.7822C17.2693 16.1623 16.5116 15.8179 17.0627 14.9224C17.6138 14.027 18.8536 12.3049 18.5781 13.2004C18.3026 14.027 17.6826 15.2668 18.1648 15.8179C18.5781 16.3689 20.989 15.6801 19.8869 16.2312C18.7848 16.7822 18.2337 17.1955 18.0271 17.8844C17.8204 18.5732 17.6138 19.1242 17.0627 18.8487C16.5116 18.5732 15.8228 18.7109 15.5473 18.7109C15.2718 18.7109 15.134 17.4711 14.6518 17.7466C14.2385 18.0221 14.7896 18.9176 14.3074 18.9865C13.8252 19.0554 13.7564 19.6064 13.2053 20.0197C12.6542 20.433 11.8965 21.2596 11.4144 21.3285C10.9322 21.3973 12.1721 22.0173 11.9654 22.5683C11.7588 23.1883 10.6567 23.1194 10.2434 23.1883C9.83008 23.2572 10.1745 24.0837 9.96784 24.5659C9.7612 25.0481 10.1745 25.5303 10.8633 25.5303C11.5521 25.5303 12.241 25.3925 12.3098 24.7726C12.3787 24.1526 12.9987 23.1194 13.4808 23.326C13.8941 23.5327 14.9274 22.9127 15.134 23.2572C15.3406 23.6016 16.6494 24.7726 16.5116 24.9103C16.3739 25.0481 15.6162 25.3925 15.8917 25.5303C15.8917 25.5303 16.0984 25.8747 16.2361 25.8058C16.3739 25.7369 16.7183 24.8414 16.9249 24.7037C17.1316 24.5659 17.1316 24.0837 16.8561 23.8771C16.5116 23.6705 15.3406 22.8439 15.6162 22.4306C15.8917 22.0173 16.5116 22.9127 16.7872 23.1883C17.0627 23.4638 17.476 23.8082 17.476 24.4282C17.476 25.0481 17.8893 25.0481 17.8893 25.3236C17.9582 25.668 18.0959 25.7369 18.4403 25.7369C18.7848 25.668 18.9225 24.9103 18.7848 24.7037C18.5781 24.497 18.5781 24.0837 18.9914 24.0837C19.4047 24.0837 19.8869 23.7393 19.8869 23.5327C19.8869 23.326 20.3002 22.0862 20.5757 22.0862C20.8512 22.0862 21.0579 22.5683 21.1267 22.8439C21.2645 23.1194 21.9533 22.6372 21.8156 22.3617C21.6778 22.0862 21.8845 22.0173 22.0911 22.0173C22.2977 22.0173 22.16 22.5683 22.2977 22.7061C22.5044 22.8439 23.4687 23.4638 23.1243 23.8082C22.7799 24.1526 22.2977 23.946 21.9533 23.6705C21.6089 23.3949 20.7135 23.5327 20.4379 23.8082C20.2313 24.0837 20.0246 24.2215 19.6113 24.2215C19.198 24.2215 19.2669 24.9792 19.6113 25.2547C19.9558 25.5992 20.4379 25.3236 20.7823 25.5303C21.1267 25.7369 21.6778 25.2547 21.7467 25.5992C21.8156 25.9436 21.6778 26.9768 21.3334 27.0457C20.989 27.1146 19.8869 27.3212 19.1292 26.9768C18.3026 26.6324 17.5449 26.4946 17.476 26.839C17.4071 27.2523 17.4071 27.5279 16.8561 27.1834C16.305 26.839 15.8228 26.6324 15.4784 26.6324C15.134 26.6324 15.134 26.0124 15.2029 25.5303C15.2718 25.0481 14.3763 25.1859 13.8252 25.3236C13.2742 25.4614 12.1721 25.8058 11.4833 25.8058C10.7944 25.8058 10.5189 25.9436 10.3811 26.2191C10.2434 26.4946 9.62343 26.4946 9.62343 27.0457C9.62343 27.5967 9.69232 27.7345 9.14126 28.01C8.52132 28.2167 8.38355 29.3188 8.10803 29.5943C7.8325 29.8698 8.38355 30.5587 8.10803 30.972C7.8325 31.3164 7.55697 32.2807 8.03914 32.4874C8.52132 32.694 9.00349 33.6584 9.21014 34.0028C9.41679 34.3472 10.1745 34.6916 10.9322 34.5538C11.6899 34.4161 13.0675 34.0028 13.8252 34.3472C14.5829 34.6916 15.3406 34.6227 14.9962 35.3115C14.5829 36.0004 15.2029 36.8958 15.6851 37.378C16.1672 37.8602 16.0295 39.1 15.7539 39.4445C15.4784 39.8578 15.5473 40.5466 15.8228 40.891C16.0984 41.2354 16.2361 42.062 16.2361 42.3375C16.2361 42.6819 16.7872 43.3019 16.8561 43.9218C16.9249 44.6106 16.4428 45.3683 17.0627 45.3683C17.6826 45.3683 19.2669 45.4372 19.4047 45.1617C19.5425 44.8861 20.7823 43.784 21.1267 43.3019C21.4712 42.8197 22.16 41.9931 21.9533 41.5109C21.54 41.1665 21.8156 40.8221 22.5044 40.5466C23.1932 40.271 23.1932 38.3423 22.8488 37.8602C22.5044 37.378 23.1243 36.207 23.882 35.8626C24.6397 35.5182 26.4307 32.3496 25.8796 32.6251C25.2597 32.9007 24.0887 33.1073 23.6754 32.8318C23.2621 32.5562 20.8512 28.4233 21.1956 28.1478C21.54 27.8723 23.4687 31.9363 23.8132 32.4185C24.1576 32.9695 27.395 30.972 27.8083 30.4898C28.1527 30.0076 27.6017 29.5254 27.395 29.5254C27.1884 29.5254 26.4307 29.0433 26.224 29.3188C26.0174 29.5943 24.6397 27.3212 25.1219 27.5279C25.6041 27.7345 26.6373 28.4233 27.6017 28.9744C28.566 29.5254 29.6681 28.63 30.2881 29.6632C30.9769 30.6964 31.3902 30.0076 31.3213 30.4898C31.2524 30.972 32.1479 32.9695 32.4923 33.5895C32.7678 34.2094 33.3878 33.314 33.4567 32.6251C33.5255 31.8674 34.9721 30.6964 35.5231 30.2831C36.0053 29.8698 36.9696 30.4898 37.1074 31.3164C37.2452 32.143 37.934 31.1786 37.934 31.7985C37.934 32.4874 37.7962 33.3828 38.2784 34.2094C39.2427 31.7985 39.7249 29.3877 39.7249 26.7701C39.7249 19.4686 35.9364 13.0626 30.2881 9.41185" fill="black"/>
<path d="M8.31469 12.0294C7.9014 12.1671 7.48811 12.6493 6.93705 12.3738C6.38599 12.0983 5.215 12.5115 5.9727 13.1315C6.66152 13.8203 6.38599 14.2336 7.07482 14.3025C7.76364 14.3714 8.17693 13.407 8.6591 13.4759C9.14128 13.5448 8.79687 11.8916 8.31469 12.0294Z" fill="black"/>
<path d="M25.0531 38.9623C24.5709 39.0312 24.7086 39.9955 24.1576 40.1333C23.6754 40.271 24.0887 40.6843 23.8132 41.0287C23.6065 41.3732 23.4688 42.1997 23.8132 42.613C24.1576 43.0952 24.2953 43.0952 24.7086 42.3375C25.1219 41.6487 26.0863 38.8934 25.0531 38.9623Z" fill="black"/>
<path d="M11.2077 16.6445C11.0011 16.6445 10.7945 16.7822 10.5878 16.7822C10.3812 16.8511 10.2434 17.1266 10.2434 17.4022C10.2434 17.7466 10.7945 17.8155 10.5878 18.0221C10.3812 18.2288 9.27905 18.4354 9.41681 18.7798C9.55458 19.1242 9.76122 19.3998 9.55458 19.7442C9.34793 20.0886 9.76122 20.1575 10.1745 20.0197C10.5878 19.8819 10.8633 19.3998 10.7945 19.1242C10.7256 18.7798 11.4144 18.7109 11.2077 18.9865C11.0011 19.262 10.6567 19.9508 10.8633 20.1575C11.07 20.3641 10.3123 20.7085 10.5878 20.8463C10.8633 20.984 11.621 20.2952 12.0343 20.433C12.4476 20.5708 12.5854 20.2952 12.6543 19.9508C12.7232 19.5375 12.1032 19.0553 11.8966 18.5732C11.6899 18.0221 11.8277 16.6445 11.2077 16.6445" fill="black"/>
</mask>
<g mask="url(#mask0)">
<path d="M27.3314 45.1043C30.5375 43.559 33.1984 41.076 34.9614 37.9843C36.4254 35.4301 36.9656 32.4498 36.4914 29.5443C35.9047 26.7938 34.5122 24.2803 32.4914 22.3243C30.7059 20.6628 28.7167 19.2347 26.5714 18.0743C24.2151 16.8034 22.042 15.219 20.1114 13.3643C19.5019 12.6917 18.95 11.9692 18.4614 11.2043C17.84 10.0999 16.9704 9.1551 15.9214 8.44425C14.6854 7.81524 13.2594 7.66908 11.9214 8.03425C10.8629 8.16648 9.86931 8.61624 9.07143 9.32426L8.94143 9.48426C8.72391 9.75845 8.47562 10.0067 8.20142 10.2243L8.07143 10.3343L7.92143 10.4043C7.47468 10.6223 6.97624 10.7123 6.48143 10.6643H6.23143C5.8763 10.6841 5.5321 10.7942 5.23143 10.9843C4.82594 11.1791 4.44074 11.4136 4.08143 11.6843C3.62408 12.1061 3.26717 12.6251 3.037 13.2032C2.80682 13.7812 2.70924 14.4035 2.75143 15.0243C2.88989 16.5179 3.31426 17.9709 4.00143 19.3043L4.35143 20.0743C4.99527 21.3594 5.50786 22.7062 5.88143 24.0943C6.27129 26.0701 6.34554 28.0952 6.10143 30.0942C5.98798 31.2874 5.95458 32.4867 6.00143 33.6842C6.18231 36.6057 7.26154 39.3998 9.09143 41.6842C13.1814 46.6842 20.8614 48.1343 27.3314 45.1043Z" fill="white"/>
</g>
</svg>
