<?xml version="1.0" encoding="utf-8"?>
<!-- Generator: Adobe Illustrator 26.2.1, SVG Export Plug-In . SVG Version: 6.00 Build 0)  -->
<svg version="1.1" id="Layer_1" xmlns="http://www.w3.org/2000/svg" xmlns:xlink="http://www.w3.org/1999/xlink" x="0px" y="0px"
	 viewBox="0 0 277 51" style="enable-background:new 0 0 277 51;" xml:space="preserve">
<style type="text/css">
	.st0{fill:url(#SVGID_1_);}
	.st1{fill:url(#SVGID_00000152958423913088051070000001533743930502893471_);}
	.st2{fill:#3F6D3A;filter:url(#Adobe_OpacityMaskFilter);}
	.st3{fill:#3F6D3A;}
	.st4{mask:url(#mask0_00000067208937631151538090000005559406256053067426_);}
	.st5{fill:#65370E;}
	.st6{fill:none;stroke:#3F6D3A;}
</style>
<linearGradient id="SVGID_1_" gradientUnits="userSpaceOnUse" x1="20.8186" y1="7.2916" x2="18.8186" y2="45.7915" gradientTransform="matrix(1 0 0 -1 0 52)">
	<stop  offset="0" style="stop-color:#F7EBB8"/>
	<stop  offset="1" style="stop-color:#FFFEF7"/>
</linearGradient>
<path class="st0" d="M27.3,45.2c3.2-1.5,5.9-4,7.6-7.1c1.5-2.6,2-5.5,1.5-8.4c-0.6-2.8-2-5.3-4-7.2c-1.8-1.7-3.8-3.1-5.9-4.2
	c-2.4-1.3-4.5-2.9-6.5-4.7c-0.6-0.7-1.2-1.4-1.7-2.2c-0.6-1.1-1.5-2-2.5-2.8c-1.2-0.6-2.7-0.8-4-0.4c-1.1,0.1-2.1,0.6-2.8,1.3
	L8.9,9.6c-0.2,0.3-0.5,0.5-0.7,0.7l-0.1,0.1l-0.2,0.1c-0.4,0.2-0.9,0.3-1.4,0.3H6.2c-0.4,0-0.7,0.1-1,0.3c-0.4,0.2-0.8,0.4-1.2,0.7
	c-0.5,0.4-0.8,0.9-1,1.5c-0.2,0.6-0.3,1.2-0.3,1.8c0.1,1.5,0.6,2.9,1.2,4.3l0.3,0.8c0.6,1.3,1.2,2.6,1.5,4c0.4,2,0.5,4,0.2,6
	C6,31.4,6,32.6,6,33.8c0.2,2.9,1.3,5.7,3.1,8C13.2,46.8,20.9,48.3,27.3,45.2z"/>
<linearGradient id="SVGID_00000151509708474858027450000001480854546632987787_" gradientUnits="userSpaceOnUse" x1="23.9435" y1="34.4934" x2="4.515" y2="15.7045" gradientTransform="matrix(1 0 0 -1 0 52)">
	<stop  offset="0" style="stop-color:#3F6D3A"/>
	<stop  offset="1" style="stop-color:#2E482B"/>
</linearGradient>
<path style="fill:url(#SVGID_00000151509708474858027450000001480854546632987787_);" d="M38.5,29.4c-0.7-3.2-2.2-6-4.6-8.3
	c-1.9-1.8-4-3.3-6.3-4.6c-2.2-1.2-4.2-2.7-6-4.4c-0.5-0.6-1-1.2-1.4-1.9c-0.8-1.4-1.9-2.5-3.2-3.4c-1.7-0.9-3.6-1.1-5.4-0.6
	c-1.5,0.2-2.8,0.9-3.9,1.9C6.7,7,5.1,4.5,6.1,2.3C6.1,2.2,6.1,2.1,6.1,2c0-0.1,0-0.3-0.1-0.4S6,1.3,5.9,1.2C5.8,1.1,5.7,1.1,5.5,1
	C5.4,0.9,5.3,0.9,5.1,0.9C5,0.9,4.9,0.9,4.8,1C4.6,1.1,4.5,1.1,4.4,1.2C4.3,1.3,4.3,1.4,4.2,1.6C3,4.4,4.5,7.3,5.7,9
	C5.2,9,4.7,9.2,4.3,9.5C3.7,9.7,3.2,10,2.7,10.4C2,11,1.5,11.8,1.2,12.7c-0.3,0.9-0.5,1.8-0.4,2.7c0.1,1.7,0.6,3.4,1.4,5l0.4,0.8
	c0.6,1.1,1.1,2.4,1.4,3.6c0.3,1.8,0.4,3.6,0.2,5.4C4,31.4,3.9,32.7,4,34c0.2,3.3,1.4,6.6,3.5,9.2c1.6,1.8,3.5,3.3,5.7,4.3
	c2.2,1,4.6,1.5,7,1.4c2.7,0,5.4-0.6,7.9-1.8c3.6-1.7,6.5-4.5,8.5-7.9C38.4,36.3,39.1,32.8,38.5,29.4z M35,38.3
	c-1.8,3.1-4.4,5.6-7.6,7.1c-6.5,3-14.2,1.6-18.2-3.4c-1.8-2.3-2.9-5.1-3.1-8c0-1.2,0-2.4,0.1-3.6c0.2-2,0.2-4-0.2-6
	c-0.4-1.4-0.9-2.7-1.5-4L4,19.6c-0.7-1.3-1.1-2.8-1.2-4.3c0-0.6,0.1-1.2,0.3-1.8s0.6-1.1,1-1.5c0.4-0.3,0.7-0.5,1.2-0.7
	c0.3-0.2,0.6-0.3,1-0.3h0.2c0.5,0,1,0,1.4-0.3l0.2-0.1l0.1-0.1c0.3-0.2,0.5-0.5,0.7-0.7l0.1-0.2c0.8-0.7,1.8-1.2,2.8-1.3
	c1.3-0.4,2.8-0.2,4,0.4c1,0.7,1.9,1.7,2.5,2.8c0.5,0.8,1,1.5,1.7,2.2c1.9,1.9,4.1,3.4,6.5,4.7c2.1,1.2,4.1,2.6,5.9,4.2
	c2,2,3.4,4.5,4,7.2C37,32.7,36.4,35.7,35,38.3z"/>
<defs>
	<filter id="Adobe_OpacityMaskFilter" filterUnits="userSpaceOnUse" x="2.7" y="8" width="33.9" height="38.8">
		<feColorMatrix  type="matrix" values="1 0 0 0 0  0 1 0 0 0  0 0 1 0 0  0 0 0 1 0"/>
	</filter>
</defs>
<mask maskUnits="userSpaceOnUse" x="2.7" y="8" width="33.9" height="38.8" id="mask0_00000067208937631151538090000005559406256053067426_">
	<path class="st2" d="M30.3,9.5c0.2,0.7,0.4,1.4-0.3,1.1c-1.2-0.6-2.7-1.3-2.2-0.8c0.5,0.5,0.7,1-0.1,1s-2.1-0.3-2.8,0.6
		c-0.6,0.9-1.4,0.7-1.7,1c-0.2,0.3-0.6,1.8-1.2,1.3c-0.6-0.4-1.9-2-0.8-1.6c1,0.4,2.2-0.1,1.2-1.2c-1-1.1-1.9-0.7-2.3-1.3
		c-0.4-0.6-1.8-1.4-2.8,0.1c-1,1.5-1.9,3.5-2.4,3.9c-0.6,0.4-1.7,1.2-1.5,1.8c0.1,0.6,0.2,2.1,0.8,1.7c0.6-0.4,1-0.6,1.2-0.2
		c0.2,0.4,0.1,1.2,0.6,1.2c0,0,1-0.7,1-1.3c0.1-0.6-0.7-1-0.1-1.9c0.6-0.9,1.8-2.6,1.5-1.7c-0.3,0.8-0.9,2.1-0.4,2.6
		c0.4,0.6,2.8-0.1,1.7,0.4c-1.1,0.6-1.7,1-1.9,1.7c-0.2,0.7-0.4,1.2-1,1c-0.6-0.3-1.2-0.1-1.5-0.1c-0.3,0-0.4-1.2-0.9-1
		c-0.4,0.3,0.1,1.2-0.3,1.2c-0.5,0.1-0.6,0.6-1.1,1c-0.6,0.4-1.3,1.2-1.8,1.3c-0.5,0.1,0.8,0.7,0.6,1.2c-0.2,0.6-1.3,0.6-1.7,0.6
		c-0.4,0.1-0.1,0.9-0.3,1.4c-0.2,0.5,0.2,1,0.9,1s1.4-0.1,1.4-0.8c0.1-0.6,0.7-1.7,1.2-1.4c0.4,0.2,1.4-0.4,1.7-0.1s1.5,1.5,1.4,1.7
		c-0.1,0.1-0.9,0.5-0.6,0.6c0,0,0.2,0.3,0.3,0.3c0.1-0.1,0.5-1,0.7-1.1c0.2-0.1,0.2-0.6-0.1-0.8c-0.3-0.2-1.5-1-1.2-1.4
		c0.3-0.4,0.9,0.5,1.2,0.8c0.3,0.3,0.7,0.6,0.7,1.2s0.4,0.6,0.4,0.9c0.1,0.3,0.2,0.4,0.6,0.4c0.3-0.1,0.5-0.8,0.3-1
		c-0.2-0.2-0.2-0.6,0.2-0.6s0.9-0.3,0.9-0.6c0-0.2,0.4-1.4,0.7-1.4c0.3,0,0.5,0.5,0.6,0.8c0.1,0.3,0.8-0.2,0.7-0.5
		c-0.1-0.3,0.1-0.3,0.3-0.3s0.1,0.6,0.2,0.7c0.2,0.1,1.2,0.8,0.8,1.1s-0.8,0.1-1.2-0.1s-1.2-0.1-1.5,0.1c-0.2,0.3-0.4,0.4-0.8,0.4
		s-0.3,0.8,0,1c0.3,0.3,0.8,0.1,1.2,0.3c0.3,0.2,0.9-0.3,1,0.1c0.1,0.3-0.1,1.4-0.4,1.4c-0.3,0.1-1.4,0.3-2.2-0.1
		c-0.8-0.3-1.6-0.5-1.7-0.1c-0.1,0.4-0.1,0.7-0.6,0.3c-0.6-0.3-1-0.6-1.4-0.6c-0.3,0-0.3-0.6-0.3-1.1s-0.8-0.3-1.4-0.2
		c-0.6,0.1-1.7,0.5-2.3,0.5c-0.7,0-1,0.1-1.1,0.4c-0.1,0.3-0.8,0.3-0.8,0.8c0,0.6,0.1,0.7-0.5,1c-0.6,0.2-0.8,1.3-1,1.6
		c-0.3,0.3,0.3,1,0,1.4c-0.3,0.3-0.6,1.3-0.1,1.5c0.5,0.2,1,1.2,1.2,1.5s1,0.7,1.7,0.6c0.8-0.1,2.1-0.6,2.9-0.2
		c0.8,0.3,1.5,0.3,1.2,1c-0.4,0.7,0.2,1.6,0.7,2.1c0.5,0.5,0.3,1.7,0.1,2.1c-0.3,0.4-0.2,1.1,0.1,1.4c0.3,0.3,0.4,1.2,0.4,1.4
		c0,0.3,0.6,1,0.6,1.6c0.1,0.7-0.4,1.4,0.2,1.4s2.2,0.1,2.3-0.2c0.1-0.3,1.4-1.4,1.7-1.9c0.3-0.5,1-1.3,0.8-1.8
		c-0.4-0.3-0.1-0.7,0.6-1c0.7-0.3,0.7-2.2,0.3-2.7c-0.3-0.5,0.3-1.7,1-2c0.8-0.3,2.5-3.5,2-3.2c-0.6,0.3-1.8,0.5-2.2,0.2
		c-0.4-0.3-2.8-4.4-2.5-4.7c0.3-0.3,2.3,3.8,2.6,4.3c0.3,0.6,3.6-1.4,4-1.9c0.3-0.5-0.2-1-0.4-1c-0.2,0-1-0.5-1.2-0.2
		c-0.2,0.3-1.6-2-1.1-1.8c0.5,0.2,1.5,0.9,2.5,1.4c1,0.6,2.1-0.3,2.7,0.7c0.7,1,1.1,0.3,1,0.8c-0.1,0.5,0.8,2.5,1.2,3.1
		c0.3,0.6,0.9-0.3,1-1c0.1-0.8,1.5-1.9,2.1-2.3c0.5-0.4,1.4,0.2,1.6,1c0.1,0.8,0.8-0.1,0.8,0.5c0,0.7-0.1,1.6,0.3,2.4
		c1-2.4,1.4-4.8,1.4-7.4C39.7,19.6,35.9,13.2,30.3,9.5"/>
	<path class="st3" d="M8.3,12.1c-0.4,0.1-0.8,0.6-1.4,0.3c-0.6-0.3-1.7,0.1-1,0.8c0.7,0.7,0.4,1.1,1.1,1.2c0.7,0.1,1.1-0.9,1.6-0.8
		C9.1,13.7,8.8,12,8.3,12.1z"/>
	<path class="st3" d="M25.1,39.1c-0.5,0.1-0.3,1-0.9,1.2c-0.5,0.1-0.1,0.6-0.3,0.9c-0.2,0.3-0.3,1.2,0,1.6c0.3,0.5,0.5,0.5,0.9-0.3
		C25.1,41.8,26.1,39,25.1,39.1z"/>
	<path class="st3" d="M11.2,16.8c-0.2,0-0.4,0.1-0.6,0.1c-0.2,0.1-0.3,0.3-0.3,0.6c0,0.3,0.6,0.4,0.3,0.6c-0.2,0.2-1.3,0.4-1.2,0.8
		c0.1,0.3,0.3,0.6,0.1,1c-0.2,0.3,0.2,0.4,0.6,0.3c0.4-0.1,0.7-0.6,0.6-0.9c-0.1-0.3,0.6-0.4,0.4-0.1c-0.2,0.3-0.6,1-0.3,1.2
		c0.2,0.2-0.6,0.6-0.3,0.7c0.3,0.1,1-0.6,1.4-0.4c0.4,0.1,0.6-0.1,0.6-0.5c0.1-0.4-0.6-0.9-0.8-1.4C11.7,18.1,11.8,16.8,11.2,16.8"
		/>
</mask>
<g class="st4">
	<path class="st3" d="M27.3,45.2c3.2-1.5,5.9-4,7.6-7.1c1.5-2.6,2-5.5,1.5-8.4c-0.6-2.8-2-5.3-4-7.2c-1.8-1.7-3.8-3.1-5.9-4.2
		c-2.4-1.3-4.5-2.9-6.5-4.7c-0.6-0.7-1.2-1.4-1.7-2.2c-0.6-1.1-1.5-2-2.5-2.8c-1.2-0.6-2.7-0.8-4-0.4c-1.1,0.1-2.1,0.6-2.8,1.3
		L8.9,9.6c-0.2,0.3-0.5,0.5-0.7,0.7l-0.1,0.1l-0.2,0.1c-0.4,0.2-0.9,0.3-1.4,0.3H6.2c-0.4,0-0.7,0.1-1,0.3c-0.4,0.2-0.8,0.4-1.2,0.7
		c-0.5,0.4-0.8,0.9-1,1.5c-0.2,0.6-0.3,1.2-0.3,1.8c0.1,1.5,0.6,2.9,1.2,4.3l0.3,0.8c0.6,1.3,1.2,2.6,1.5,4c0.4,2,0.5,4,0.2,6
		C6,31.4,6,32.6,6,33.8c0.2,2.9,1.3,5.7,3.1,8C13.2,46.8,20.9,48.3,27.3,45.2z"/>
</g>
<path class="st5" d="M5.7,8.9C4.5,7.3,3,4.4,4.2,1.6c0-0.1,0.1-0.2,0.2-0.3C4.5,1.1,4.6,1.1,4.8,1C4.9,0.9,5,0.9,5.1,0.9
	c0.1,0,0.3,0,0.4,0.1c0.1,0.1,0.2,0.1,0.3,0.2C6,1.3,6,1.4,6.1,1.6c0,0.1,0.1,0.3,0.1,0.4c0,0.1,0,0.3-0.1,0.4
	C5.1,4.5,6.7,6.7,7.7,7.9c0,0,0.4,0.7-0.4,1C6.5,9.2,6.2,9.4,5.7,8.9z"/>
<path class="st3" d="M137.2,16.9v7.4h3.1c1.3,0,2.2-0.7,2.2-2c0-1-0.7-1.5-1.3-1.7v-0.1c0.6-0.2,1.3-0.6,1.3-1.7
	c0-1.2-0.9-1.9-2.2-1.9H137.2z M138,17.6h2.1c0.9,0,1.4,0.5,1.4,1.2c0,0.8-0.5,1.3-1.4,1.3H138V17.6z M138,21h2.1
	c0.9,0,1.5,0.5,1.5,1.3c0,0.8-0.5,1.3-1.4,1.3H138V21z M143.5,17.5c0,0.4,0.3,0.7,0.7,0.7s0.7-0.3,0.7-0.7c0-0.4-0.3-0.7-0.7-0.7
	S143.5,17.1,143.5,17.5z M144.5,19.1h-0.8v5.2h0.8V19.1z M145.8,21.7c0,1.6,1.1,2.7,2.6,2.7c1.6,0,2.6-1.1,2.6-2.7
	c0-1.6-1.1-2.7-2.6-2.7C146.8,19,145.8,20.1,145.8,21.7z M146.6,21.7c0-1.2,0.7-2,1.8-2c1.1,0,1.8,0.8,1.8,2c0,1.2-0.7,2-1.8,2
	C147.3,23.7,146.6,22.9,146.6,21.7z M152,17.5c0,0.4,0.3,0.7,0.7,0.7s0.7-0.3,0.7-0.7c0-0.4-0.3-0.7-0.7-0.7S152,17.1,152,17.5z
	 M153.1,19.1h-0.8v5.2h0.8V19.1z M154.6,19.1v5.2h0.8v-2.6c0-1.3,0.7-2,1.7-2c0.9,0,1.5,0.5,1.5,1.5v3.1h0.8v-3.1
	c0-1.4-0.9-2.1-2-2.1c-1.1,0-1.6,0.5-1.8,1h-0.1v-0.9H154.6z M160.2,19.1v0.7h1.6v4.5h0.8v-4.5h1.6v-0.7h-1.6v-1.3
	c0-0.2,0.1-0.3,0.3-0.3h1.1v-0.7h-1.4c-0.5,0-0.8,0.3-0.8,0.9v1.4H160.2z M164.9,21.7c0,1.6,1.1,2.7,2.6,2.7c1.6,0,2.6-1.1,2.6-2.7
	c0-1.6-1.1-2.7-2.6-2.7C166,19,164.9,20.1,164.9,21.7z M165.8,21.7c0-1.2,0.7-2,1.8-2c1.1,0,1.8,0.8,1.8,2c0,1.2-0.7,2-1.8,2
	C166.5,23.7,165.8,22.9,165.8,21.7z M172.2,19.1h-0.8v5.2h0.8v-3.2c0-0.9,0.5-1.3,1.3-1.3h0.8v-0.7h-0.7c-0.7,0-1.1,0.2-1.3,0.7
	h-0.1V19.1z M175.3,19.1v5.2h0.8v-3.1c0-0.9,0.6-1.5,1.3-1.5c0.7,0,1.2,0.4,1.2,1.1v3.4h0.8v-3.1c0-0.9,0.6-1.5,1.3-1.5
	c0.7,0,1.2,0.4,1.2,1.1v3.4h0.8v-3.5c0-1.1-0.7-1.8-1.7-1.8c-0.8,0-1.3,0.4-1.6,0.9h-0.1c-0.2-0.5-0.7-0.9-1.5-0.9
	c-0.8,0-1.2,0.3-1.5,0.8h-0.1v-0.7H175.3z M184,20.5l0.8,0.2c0.2-0.7,0.6-1.1,1.5-1.1c0.9,0,1.3,0.5,1.3,1.2v0.4h-1.8
	c-1.1,0-1.9,0.5-1.9,1.6c0,1,0.8,1.6,1.9,1.6c1,0,1.5-0.5,1.7-0.9h0.1v0.7h0.8v-3.4c0-1.2-0.8-1.9-2.1-1.9
	C185,19,184.3,19.7,184,20.5z M184.7,22.8c0-0.6,0.5-0.9,1.2-0.9h1.7V22c0,1.1-0.7,1.7-1.7,1.7C185.2,23.8,184.7,23.4,184.7,22.8z
	 M189.1,19.8h1.6v3.6c0,0.5,0.3,0.9,0.8,0.9h1.4v-0.7h-1.2c-0.2,0-0.3-0.1-0.3-0.3v-3.5h1.7v-0.7h-1.7v-1.9h-0.8v1.9h-1.6V19.8z
	 M194.1,17.5c0,0.4,0.3,0.7,0.7,0.7c0.4,0,0.7-0.3,0.7-0.7c0-0.4-0.3-0.7-0.7-0.7C194.4,16.8,194.1,17.1,194.1,17.5z M195.2,19.1
	h-0.8v5.2h0.8V19.1z M196.4,21.7c0,1.6,1.2,2.7,2.7,2.7c1.4,0,2.2-0.9,2.5-2l-0.8-0.2c-0.1,0.8-0.7,1.4-1.7,1.4
	c-1.1,0-1.9-0.8-1.9-2c0-1.2,0.8-2,1.9-2c0.9,0,1.5,0.6,1.7,1.4l0.8-0.2c-0.2-1.1-1.1-2-2.5-2C197.5,19,196.4,20.1,196.4,21.7z
	 M202.5,20.5c0,0.9,0.8,1.3,1.7,1.5l0.5,0.1c0.8,0.1,1.2,0.3,1.2,0.9c0,0.5-0.5,0.9-1.3,0.9c-0.8,0-1.5-0.3-1.6-1.4l-0.8,0.2
	c0.2,1.3,1.1,1.9,2.4,1.9c1.3,0,2.1-0.6,2.1-1.6c0-1-0.8-1.3-1.9-1.5l-0.5-0.1c-0.6-0.1-1.1-0.3-1.1-0.8c0-0.5,0.4-0.8,1.2-0.8
	c0.7,0,1.2,0.3,1.4,1.1l0.8-0.2c-0.2-1-1-1.5-2.1-1.5C203.3,19,202.5,19.5,202.5,20.5z M211,19.7v1.7c0,2,1.1,3,2.9,3
	c1.8,0,2.9-1,2.9-3v-1.7c0-2-1.1-3-2.9-3C212.2,16.7,211,17.8,211,19.7z M211.9,19.7c0-1.4,0.8-2.2,2-2.2c1.3,0,2,0.8,2,2.2v1.8
	c0,1.4-0.8,2.2-2,2.2c-1.3,0-2-0.8-2-2.2V19.7z M218.2,26.4h0.8v-3h0.1c0.3,0.5,0.9,1,1.9,1c1.4,0,2.4-1.1,2.4-2.7
	c0-1.7-1.1-2.7-2.4-2.7c-1.1,0-1.6,0.5-1.9,1H219v-0.9h-0.8V26.4z M220.8,23.7c-1.1,0-1.8-0.8-1.8-2c0-1.2,0.8-2,1.8-2
	c1.1,0,1.8,0.8,1.8,2C222.6,23,221.9,23.7,220.8,23.7z M224.3,21.7c0,1.6,1.1,2.8,2.7,2.8c1.4,0,2-0.8,2.3-1.4l-0.7-0.4
	c-0.3,0.6-0.7,1-1.6,1c-1,0-1.8-0.7-1.8-1.8h4.2v-0.4c0-1.6-1-2.6-2.5-2.6C225.4,19,224.3,20.1,224.3,21.7z M225.2,21.3
	c0.1-1,0.8-1.6,1.7-1.6c1,0,1.6,0.6,1.7,1.6H225.2z M230.6,19.1v5.2h0.8v-2.6c0-1.3,0.7-2,1.7-2c0.9,0,1.5,0.5,1.5,1.5v3.1h0.8v-3.1
	c0-1.4-0.9-2.1-2-2.1c-1.1,0-1.6,0.5-1.8,1h-0.1v-0.9H230.6z M242.6,16.7c-1.5,0-2.5,0.8-2.5,2c0,1.3,0.9,1.8,2.2,2.1l0.6,0.1
	c1,0.2,1.7,0.5,1.7,1.3s-0.7,1.4-1.8,1.4c-1.2,0-1.9-0.6-1.9-1.9v-0.1h-0.9v0.1c0,1.8,1.2,2.6,2.8,2.6c1.6,0,2.7-0.9,2.7-2.2
	c0-1.3-1-1.8-2.2-2.1l-0.6-0.1c-1-0.2-1.5-0.5-1.5-1.3c0-0.8,0.7-1.2,1.7-1.2c1,0,1.8,0.4,1.8,1.5v0.3h0.9V19
	C245.2,17.5,244,16.7,242.6,16.7z M246.2,21.7c0,1.6,1.1,2.7,2.6,2.7c1.6,0,2.6-1.1,2.6-2.7c0-1.6-1.1-2.7-2.6-2.7
	C247.3,19,246.2,20.1,246.2,21.7z M247,21.7c0-1.2,0.7-2,1.8-2c1.1,0,1.8,0.8,1.8,2c0,1.2-0.7,2-1.8,2C247.7,23.7,247,22.9,247,21.7
	z M257.4,24.3v-5.2h-0.8v2.6c0,1.3-0.7,2-1.7,2c-0.9,0-1.5-0.5-1.5-1.5v-3.1h-0.8v3.1c0,1.4,0.9,2.1,2,2.1c1.1,0,1.6-0.5,1.8-1h0.1
	v0.9H257.4z M259.8,19.1H259v5.2h0.8v-3.2c0-0.9,0.5-1.3,1.2-1.3h0.8v-0.7h-0.7c-0.7,0-1.1,0.2-1.3,0.7h-0.1V19.1z M262.2,21.7
	c0,1.6,1.2,2.7,2.7,2.7c1.4,0,2.2-0.9,2.5-2l-0.8-0.2c-0.1,0.8-0.7,1.4-1.7,1.4c-1.1,0-1.9-0.8-1.9-2c0-1.2,0.8-2,1.9-2
	c0.9,0,1.5,0.6,1.7,1.4l0.8-0.2c-0.2-1.1-1.1-2-2.5-2C263.4,19,262.2,20.1,262.2,21.7z M268.2,21.7c0,1.6,1.1,2.8,2.7,2.8
	c1.4,0,2-0.8,2.3-1.4l-0.7-0.4c-0.3,0.6-0.7,1-1.6,1c-1,0-1.8-0.7-1.8-1.8h4.2v-0.4c0-1.6-1-2.6-2.5-2.6
	C269.3,19,268.2,20.1,268.2,21.7z M269.1,21.3c0.1-1,0.8-1.6,1.7-1.6c1,0,1.6,0.6,1.7,1.6H269.1z M136.9,33.4c0,2,1.1,3.1,2.9,3.1
	c1.7,0,2.8-1,2.8-2.6v-0.2h-0.9v0.2c0,1.1-0.6,1.9-1.9,1.9c-1.3,0-2.1-0.8-2.1-2.3v-1.6c0-1.4,0.8-2.3,2.1-2.3
	c1.2,0,1.9,0.8,1.9,1.9v0.2h0.9v-0.2c0-1.6-1-2.7-2.8-2.7c-1.8,0-2.9,1.1-2.9,3.1V33.4z M143.5,33.7c0,1.6,1.1,2.7,2.6,2.7
	c1.6,0,2.6-1.1,2.6-2.7c0-1.6-1.1-2.7-2.6-2.7C144.6,31,143.5,32.1,143.5,33.7z M144.3,33.7c0-1.2,0.7-2,1.8-2c1.1,0,1.8,0.8,1.8,2
	c0,1.2-0.7,2-1.8,2C145.1,35.7,144.3,34.9,144.3,33.7z M150,31.1v5.2h0.8v-2.6c0-1.3,0.7-2,1.7-2c0.9,0,1.5,0.5,1.5,1.5v3.1h0.8
	v-3.1c0-1.4-0.9-2.1-2-2.1c-1.1,0-1.6,0.5-1.8,1h-0.1v-0.9H150z M155.6,31.1v0.7h1.6v4.5h0.8v-4.5h1.6v-0.7h-1.6v-1.3
	c0-0.2,0.1-0.3,0.3-0.3h1.1v-0.7h-1.4c-0.5,0-0.8,0.3-0.8,0.9v1.4H155.6z M160.4,33.7c0,1.6,1.1,2.8,2.7,2.8c1.4,0,2-0.8,2.3-1.4
	l-0.7-0.4c-0.3,0.6-0.7,1-1.6,1c-1,0-1.8-0.7-1.8-1.8h4.2v-0.4c0-1.6-1-2.6-2.5-2.6C161.5,31,160.4,32.1,160.4,33.7z M161.2,33.3
	c0.1-1,0.8-1.6,1.7-1.6c1,0,1.6,0.6,1.7,1.6H161.2z M167.4,31.1h-0.8v5.2h0.8v-3.2c0-0.9,0.5-1.3,1.2-1.3h0.8v-0.7h-0.7
	c-0.7,0-1.1,0.2-1.3,0.7h-0.1V31.1z M169.9,33.7c0,1.6,1.1,2.8,2.7,2.8c1.4,0,2-0.8,2.3-1.4l-0.7-0.4c-0.3,0.6-0.7,1-1.6,1
	c-1,0-1.8-0.7-1.8-1.8h4.2v-0.4c0-1.6-1-2.6-2.5-2.6C171,31,169.9,32.1,169.9,33.7z M170.7,33.3c0.1-1,0.8-1.6,1.7-1.6
	c1,0,1.6,0.6,1.7,1.6H170.7z M176.1,31.1v5.2h0.8v-2.6c0-1.3,0.7-2,1.7-2c0.9,0,1.5,0.5,1.5,1.5v3.1h0.8v-3.1c0-1.4-0.9-2.1-2-2.1
	c-1.1,0-1.6,0.5-1.8,1h-0.1v-0.9H176.1z M182.1,33.7c0,1.6,1.2,2.7,2.7,2.7c1.4,0,2.2-0.9,2.5-2l-0.8-0.2c-0.1,0.8-0.7,1.4-1.7,1.4
	c-1.1,0-1.9-0.8-1.9-2c0-1.2,0.8-2,1.9-2c0.9,0,1.5,0.6,1.7,1.4l0.8-0.2c-0.2-1.1-1.1-2-2.5-2C183.2,31,182.1,32.1,182.1,33.7z
	 M188.1,33.7c0,1.6,1.1,2.8,2.7,2.8c1.4,0,2-0.8,2.3-1.4l-0.7-0.4c-0.3,0.6-0.7,1-1.6,1c-1,0-1.8-0.7-1.8-1.8h4.2v-0.4
	c0-1.6-1-2.6-2.5-2.6C189.2,31,188.1,32.1,188.1,33.7z M188.9,33.3c0.1-1,0.8-1.6,1.7-1.6c1,0,1.6,0.6,1.7,1.6H188.9z M197.3,31.3
	v0.3h0.9v-0.2c0-1.2,0.8-1.8,1.8-1.8c1,0,1.7,0.6,1.7,1.6c0,1-0.7,1.5-1.9,1.8c-1.5,0.4-2.5,0.9-2.5,2.4v0.9h5.3v-0.8h-4.4v-0.2
	c0-1.1,0.7-1.3,2-1.7c1.5-0.4,2.4-1.1,2.4-2.5c0-1.5-1.1-2.4-2.6-2.4C198.5,28.7,197.3,29.6,197.3,31.3z M203.5,31.7v1.7
	c0,2,1,3,2.7,3c1.7,0,2.7-1,2.7-3v-1.7c0-2-1-3-2.7-3C204.5,28.7,203.5,29.8,203.5,31.7z M204.4,31.7c0-1.4,0.6-2.2,1.8-2.2
	c1.2,0,1.8,0.8,1.8,2.2v1.8c0,1.4-0.6,2.2-1.8,2.2c-1.2,0-1.8-0.8-1.8-2.2V31.7z M209.9,31.3v0.3h0.9v-0.2c0-1.2,0.8-1.8,1.8-1.8
	c1,0,1.7,0.6,1.7,1.6c0,1-0.7,1.5-1.9,1.8c-1.5,0.4-2.5,0.9-2.5,2.4v0.9h5.3v-0.8h-4.4v-0.2c0-1.1,0.7-1.3,2-1.7
	c1.5-0.4,2.4-1.1,2.4-2.5c0-1.5-1.1-2.4-2.6-2.4C211.1,28.7,209.9,29.6,209.9,31.3z M216,31.3v0.3h0.9v-0.2c0-1.2,0.8-1.8,1.8-1.8
	c1,0,1.7,0.6,1.7,1.6c0,1-0.7,1.5-1.9,1.8c-1.5,0.4-2.5,0.9-2.5,2.4v0.9h5.3v-0.8h-4.4v-0.2c0-1.1,0.7-1.3,2-1.7
	c1.5-0.4,2.4-1.1,2.4-2.5c0-1.5-1.1-2.4-2.6-2.4C217.2,28.7,216,29.6,216,31.3z"/>
<path class="st3" d="M57.7,16.2v19.9h8.8c3.4,0,5.9-2,5.9-5.4c0-2.9-1.9-4.1-3.4-4.5V26c1.5-0.4,3.3-1.6,3.3-4.5
	c0-3.2-2.4-5.3-5.9-5.3H57.7z M61,19.2h5.1c1.8,0,3,1.1,3,2.7s-1.2,2.7-3,2.7H61V19.2z M61,27.6h5.1c2,0,3.1,1.1,3.1,2.8
	c0,1.7-1.2,2.8-3.1,2.8H61V27.6z M74.5,23.8v4.7c0,5.1,3.2,8,8.1,8s8-2.8,8-8v-4.7c0-5.1-3.1-8-8-8S74.5,18.7,74.5,23.8z M77.8,23.7
	c0-3,1.8-4.9,4.8-4.9c3,0,4.7,1.9,4.7,4.9v4.9c0,3-1.8,4.9-4.7,4.9c-3,0-4.8-1.9-4.8-4.9V23.7z M100,15.8c-4.2,0-6.9,2.1-6.9,5.7
	c0,3.5,2.3,4.9,6.3,5.8l0.9,0.2c2.6,0.6,4.1,1.3,4.1,3.1c0,1.8-1.4,3-4.2,3c-2.8,0-4.5-1.3-4.5-4v-0.3h-3.2v0.3
	c0,4.5,3.2,6.9,7.7,6.9c4.5,0,7.4-2.4,7.4-6c0-3.6-2.7-5-6.7-5.9l-0.9-0.2c-2.5-0.6-3.7-1.3-3.7-3c0-1.7,1.3-2.7,3.7-2.7
	c2.4,0,4,1,4,3.5v0.6h3.2v-0.6C107.2,18,104.1,15.8,100,15.8z M109.5,28.5c0,5.2,3.1,8.1,8.1,8.1c4.9,0,7.7-2.8,7.7-7.1v-0.7h-3.3
	v0.7c0,2.3-1.5,4.2-4.5,4.2c-3,0-4.8-1.9-4.8-5.1v-4.7c0-3.2,1.8-5.1,4.8-5.1c2.9,0,4.5,1.8,4.5,4.2v0.5h3.3V23
	c0-4.4-2.8-7.2-7.7-7.2c-4.9,0-8.1,2.9-8.1,8.1V28.5z"/>
<path class="st6" d="M131.2,17.5v19.5"/>
</svg>
