<?xml version="1.0" encoding="utf-8"?>
<!-- Generator: Adobe Illustrator 26.2.1, SVG Export Plug-In . SVG Version: 6.00 Build 0)  -->
<svg version="1.1" id="Layer_1" xmlns="http://www.w3.org/2000/svg" xmlns:xlink="http://www.w3.org/1999/xlink" x="0px" y="0px"
	 viewBox="0 0 84 118" style="enable-background:new 0 0 84 118;" xml:space="preserve">
<style type="text/css">
	.st0{fill:url(#SVGID_1_);}
	.st1{fill:url(#SVGID_00000044881873928551708680000003103299615433553807_);}
	.st2{fill:#3F6D3A;filter:url(#Adobe_OpacityMaskFilter);}
	.st3{fill:#3F6D3A;}
	.st4{mask:url(#mask0_00000008860188814445459620000011989338176765627834_);}
	.st5{fill:#65370E;}
</style>
<linearGradient id="SVGID_1_" gradientUnits="userSpaceOnUse" x1="36.5471" y1="76.2127" x2="34.5471" y2="114.7127" gradientTransform="matrix(1 0 0 -1 0 120)">
	<stop  offset="0" style="stop-color:#F7EBB8"/>
	<stop  offset="1" style="stop-color:#FFFEF7"/>
</linearGradient>
<path class="st0" d="M43.1,44.3c3.2-1.5,5.9-4,7.6-7.1c1.5-2.6,2-5.5,1.5-8.4c-0.6-2.8-2-5.3-4-7.2c-1.8-1.7-3.8-3.1-5.9-4.2
	c-2.4-1.3-4.5-2.9-6.5-4.7c-0.6-0.7-1.2-1.4-1.7-2.2c-0.6-1.1-1.5-2-2.5-2.8c-1.2-0.6-2.7-0.8-4-0.4c-1.1,0.1-2.1,0.6-2.9,1.3
	l-0.1,0.2c-0.2,0.3-0.5,0.5-0.7,0.7l-0.1,0.1l-0.1,0.1c-0.4,0.2-0.9,0.3-1.4,0.3H22c-0.4,0-0.7,0.1-1,0.3c-0.4,0.2-0.8,0.4-1.1,0.7
	c-0.5,0.4-0.8,0.9-1,1.5c-0.2,0.6-0.3,1.2-0.3,1.8c0.1,1.5,0.6,2.9,1.2,4.3l0.4,0.8c0.6,1.3,1.2,2.6,1.5,4c0.4,2,0.5,4,0.2,6
	c-0.1,1.2-0.1,2.4-0.1,3.6c0.2,2.9,1.3,5.7,3.1,8C28.9,45.9,36.6,47.3,43.1,44.3z"/>
<linearGradient id="SVGID_00000172440388074809708160000016806806192128986293_" gradientUnits="userSpaceOnUse" x1="39.6719" y1="103.4145" x2="20.2435" y2="84.6256" gradientTransform="matrix(1 0 0 -1 0 120)">
	<stop  offset="0" style="stop-color:#3F6D3A"/>
	<stop  offset="1" style="stop-color:#2E482B"/>
</linearGradient>
<path style="fill:url(#SVGID_00000172440388074809708160000016806806192128986293_);" d="M54.3,28.5c-0.7-3.2-2.2-6-4.6-8.3
	c-1.9-1.8-4-3.3-6.3-4.6c-2.2-1.2-4.2-2.7-6-4.4c-0.5-0.6-1-1.2-1.4-1.9C35.2,8,34.1,6.8,32.7,6c-1.7-0.9-3.6-1.1-5.4-0.6
	c-1.5,0.2-2.8,0.9-3.9,1.9c-1-1.3-2.5-3.7-1.6-5.9c0.1-0.1,0.1-0.3,0.1-0.4c0-0.1,0-0.3-0.1-0.4c0-0.1-0.1-0.2-0.2-0.3
	c-0.1-0.1-0.2-0.2-0.3-0.2C21.1,0,21,0,20.9,0c-0.1,0-0.3,0-0.4,0.1c-0.1,0.1-0.2,0.1-0.3,0.2c-0.1,0.1-0.2,0.2-0.2,0.3
	c-1.2,2.8,0.3,5.8,1.5,7.4c-0.5,0.1-1,0.2-1.5,0.5c-0.5,0.3-1.1,0.6-1.5,0.9c-0.7,0.6-1.2,1.4-1.6,2.3c-0.3,0.9-0.5,1.8-0.4,2.7
	c0.1,1.7,0.6,3.4,1.4,5l0.4,0.8c0.6,1.1,1.1,2.4,1.4,3.6c0.3,1.8,0.4,3.6,0.2,5.4c-0.1,1.3-0.2,2.6-0.1,3.9c0.2,3.3,1.4,6.6,3.5,9.2
	c1.6,1.8,3.5,3.3,5.7,4.3c2.2,1,4.6,1.5,7,1.5c2.7,0,5.4-0.6,7.9-1.8c3.6-1.7,6.5-4.5,8.5-7.9C54.2,35.4,54.8,31.9,54.3,28.5z
	 M50.7,37.3c-1.8,3.1-4.4,5.6-7.6,7.1c-6.5,3-14.1,1.6-18.2-3.4c-1.8-2.3-2.9-5.1-3.1-8c0-1.2,0-2.4,0.1-3.6c0.2-2,0.2-4-0.2-6
	c-0.4-1.4-0.9-2.7-1.5-4l-0.4-0.8c-0.7-1.3-1.1-2.8-1.2-4.3c0-0.6,0.1-1.2,0.3-1.8c0.2-0.6,0.6-1.1,1-1.5c0.4-0.3,0.7-0.5,1.1-0.7
	c0.3-0.2,0.6-0.3,1-0.3h0.2c0.5,0,1,0,1.4-0.3l0.1-0.1l0.1-0.1c0.3-0.2,0.5-0.5,0.7-0.7l0.1-0.2c0.8-0.7,1.8-1.2,2.9-1.3
	c1.3-0.4,2.8-0.2,4,0.4c1,0.7,1.9,1.7,2.5,2.8c0.5,0.8,1,1.5,1.6,2.2c1.9,1.9,4.1,3.4,6.5,4.7c2.1,1.2,4.1,2.6,5.9,4.2
	c2,2,3.4,4.5,4,7.2C52.7,31.8,52.1,34.8,50.7,37.3z"/>
<defs>
	<filter id="Adobe_OpacityMaskFilter" filterUnits="userSpaceOnUse" x="18.5" y="7" width="33.9" height="38.8">
		<feColorMatrix  type="matrix" values="1 0 0 0 0  0 1 0 0 0  0 0 1 0 0  0 0 0 1 0"/>
	</filter>
</defs>
<mask maskUnits="userSpaceOnUse" x="18.5" y="7" width="33.9" height="38.8" id="mask0_00000008860188814445459620000011989338176765627834_">
	<path class="st2" d="M46,8.6c0.2,0.7,0.4,1.4-0.3,1.1c-1.2-0.6-2.7-1.3-2.2-0.8c0.5,0.5,0.7,1-0.1,1c-0.8-0.1-2.1-0.3-2.8,0.6
		c-0.6,0.9-1.4,0.7-1.7,1c-0.2,0.3-0.6,1.8-1.2,1.3c-0.6-0.4-1.9-2-0.8-1.6c1,0.4,2.2-0.1,1.2-1.2c-1-1.1-1.9-0.7-2.3-1.3
		s-1.8-1.4-2.8,0.1c-1,1.5-1.9,3.5-2.4,3.9c-0.6,0.4-1.7,1.2-1.5,1.8c0.1,0.6,0.2,2.1,0.8,1.7c0.6-0.4,1-0.6,1.2-0.2
		c0.2,0.4,0.1,1.2,0.6,1.2c0,0,1-0.7,1-1.3c0.1-0.6-0.7-1-0.1-1.9c0.6-0.9,1.8-2.6,1.5-1.7c-0.3,0.8-0.9,2.1-0.4,2.6
		c0.4,0.6,2.8-0.1,1.7,0.4c-1.1,0.6-1.7,1-1.9,1.7c-0.2,0.7-0.4,1.2-1,1c-0.6-0.3-1.2-0.1-1.5-0.1c-0.3,0-0.4-1.2-0.9-1
		c-0.4,0.3,0.1,1.2-0.3,1.2c-0.5,0.1-0.6,0.6-1.1,1c-0.6,0.4-1.3,1.2-1.8,1.3c-0.5,0.1,0.8,0.7,0.6,1.2c-0.2,0.6-1.3,0.6-1.7,0.6
		c-0.4,0.1-0.1,0.9-0.3,1.4c-0.2,0.5,0.2,1,0.9,1c0.7,0,1.4-0.1,1.4-0.8c0.1-0.6,0.7-1.7,1.2-1.4c0.4,0.2,1.4-0.4,1.7-0.1
		c0.2,0.3,1.5,1.5,1.4,1.7c-0.1,0.1-0.9,0.5-0.6,0.6c0,0,0.2,0.3,0.3,0.3c0.1-0.1,0.5-1,0.7-1.1c0.2-0.1,0.2-0.6-0.1-0.8
		c-0.3-0.2-1.5-1-1.2-1.4c0.3-0.4,0.9,0.5,1.2,0.8c0.3,0.3,0.7,0.6,0.7,1.2c0,0.6,0.4,0.6,0.4,0.9c0.1,0.3,0.2,0.4,0.6,0.4
		c0.3-0.1,0.5-0.8,0.3-1c-0.2-0.2-0.2-0.6,0.2-0.6c0.4,0,0.9-0.3,0.9-0.6c0-0.2,0.4-1.4,0.7-1.4c0.3,0,0.5,0.5,0.6,0.8
		c0.1,0.3,0.8-0.2,0.7-0.5c-0.1-0.3,0.1-0.3,0.3-0.3c0.2,0,0.1,0.6,0.2,0.7c0.2,0.1,1.2,0.8,0.8,1.1c-0.3,0.3-0.8,0.1-1.2-0.1
		c-0.3-0.3-1.2-0.1-1.5,0.1c-0.2,0.3-0.4,0.4-0.8,0.4s-0.3,0.8,0,1c0.3,0.3,0.8,0.1,1.2,0.3c0.3,0.2,0.9-0.3,1,0.1
		c0.1,0.3-0.1,1.4-0.4,1.4c-0.3,0.1-1.4,0.3-2.2-0.1c-0.8-0.3-1.6-0.5-1.7-0.1c-0.1,0.4-0.1,0.7-0.6,0.3c-0.6-0.3-1-0.6-1.4-0.6
		c-0.3,0-0.3-0.6-0.3-1.1c0.1-0.5-0.8-0.3-1.4-0.2C29,24.7,27.9,25,27.2,25c-0.7,0-1,0.1-1.1,0.4c-0.1,0.3-0.8,0.3-0.8,0.8
		c0,0.6,0.1,0.7-0.5,1c-0.6,0.2-0.8,1.3-1,1.6c-0.3,0.3,0.3,1,0,1.4c-0.3,0.3-0.6,1.3-0.1,1.5c0.5,0.2,1,1.2,1.2,1.5
		c0.2,0.3,1,0.7,1.7,0.6c0.8-0.1,2.1-0.6,2.9-0.2c0.8,0.3,1.5,0.3,1.2,1c-0.4,0.7,0.2,1.6,0.7,2.1c0.5,0.5,0.3,1.7,0.1,2.1
		c-0.3,0.4-0.2,1.1,0.1,1.4c0.3,0.3,0.4,1.2,0.4,1.4c0,0.3,0.6,1,0.6,1.6c0.1,0.7-0.4,1.4,0.2,1.4c0.6,0,2.2,0.1,2.3-0.2
		c0.1-0.3,1.4-1.4,1.7-1.9c0.3-0.5,1-1.3,0.8-1.8c-0.4-0.3-0.1-0.7,0.6-1c0.7-0.3,0.7-2.2,0.3-2.7c-0.3-0.5,0.3-1.7,1-2
		c0.8-0.3,2.5-3.5,2-3.2c-0.6,0.3-1.8,0.5-2.2,0.2c-0.4-0.3-2.8-4.4-2.5-4.7c0.3-0.3,2.3,3.8,2.6,4.3c0.3,0.6,3.6-1.4,4-1.9
		c0.3-0.5-0.2-1-0.4-1c-0.2,0-1-0.5-1.2-0.2c-0.2,0.3-1.6-2-1.1-1.8c0.5,0.2,1.5,0.9,2.5,1.4c1,0.6,2.1-0.3,2.7,0.7
		c0.7,1,1.1,0.3,1,0.8c-0.1,0.5,0.8,2.5,1.2,3.1c0.3,0.6,0.9-0.3,1-1c0.1-0.8,1.5-1.9,2.1-2.3c0.5-0.4,1.4,0.2,1.6,1
		c0.1,0.8,0.8-0.1,0.8,0.5c0,0.7-0.1,1.6,0.3,2.4c1-2.4,1.4-4.8,1.4-7.4C55.5,18.7,51.7,12.3,46,8.6"/>
	<path class="st3" d="M24,11.2c-0.4,0.1-0.8,0.6-1.4,0.3c-0.6-0.3-1.7,0.1-1,0.8c0.7,0.7,0.4,1.1,1.1,1.2c0.7,0.1,1.1-0.9,1.6-0.8
		C24.9,12.7,24.5,11.1,24,11.2z"/>
	<path class="st3" d="M40.8,38.2c-0.5,0.1-0.3,1-0.9,1.2c-0.5,0.1-0.1,0.6-0.3,0.9c-0.2,0.3-0.3,1.2,0,1.6c0.3,0.5,0.5,0.5,0.9-0.3
		C40.9,40.8,41.8,38.1,40.8,38.2z"/>
	<path class="st3" d="M26.9,15.8c-0.2,0-0.4,0.1-0.6,0.1C26.1,16,26,16.3,26,16.6c0,0.3,0.6,0.4,0.3,0.6c-0.2,0.2-1.3,0.4-1.2,0.8
		c0.1,0.3,0.3,0.6,0.1,1c-0.2,0.3,0.2,0.4,0.6,0.3c0.4-0.1,0.7-0.6,0.6-0.9c-0.1-0.3,0.6-0.4,0.4-0.1c-0.2,0.3-0.6,1-0.3,1.2
		c0.2,0.2-0.6,0.6-0.3,0.7c0.3,0.1,1-0.6,1.4-0.4c0.4,0.1,0.6-0.1,0.6-0.5c0.1-0.4-0.6-0.9-0.8-1.4C27.4,17.2,27.6,15.8,26.9,15.8"
		/>
</mask>
<g class="st4">
	<path class="st3" d="M43.1,44.3c3.2-1.5,5.9-4,7.6-7.1c1.5-2.6,2-5.5,1.5-8.4c-0.6-2.8-2-5.3-4-7.2c-1.8-1.7-3.8-3.1-5.9-4.2
		c-2.4-1.3-4.5-2.9-6.5-4.7c-0.6-0.7-1.2-1.4-1.7-2.2c-0.6-1.1-1.5-2-2.5-2.8c-1.2-0.6-2.7-0.8-4-0.4c-1.1,0.1-2.1,0.6-2.9,1.3
		l-0.1,0.2c-0.2,0.3-0.5,0.5-0.7,0.7l-0.1,0.1l-0.1,0.1c-0.4,0.2-0.9,0.3-1.4,0.3H22c-0.4,0-0.7,0.1-1,0.3c-0.4,0.2-0.8,0.4-1.1,0.7
		c-0.5,0.4-0.8,0.9-1,1.5c-0.2,0.6-0.3,1.2-0.3,1.8c0.1,1.5,0.6,2.9,1.2,4.3l0.4,0.8c0.6,1.3,1.2,2.6,1.5,4c0.4,2,0.5,4,0.2,6
		c-0.1,1.2-0.1,2.4-0.1,3.6c0.2,2.9,1.3,5.7,3.1,8C28.9,45.9,36.6,47.3,43.1,44.3z"/>
</g>
<path class="st5" d="M21.4,8c-1.2-1.6-2.7-4.5-1.5-7.4c0-0.1,0.1-0.2,0.2-0.3c0.1-0.1,0.2-0.2,0.3-0.2C20.6,0,20.7,0,20.9,0
	c0.1,0,0.3,0,0.4,0.1c0.1,0.1,0.2,0.1,0.3,0.2c0.1,0.1,0.2,0.2,0.2,0.3c0,0.1,0.1,0.3,0.1,0.4c0,0.1,0,0.3-0.1,0.4
	c-0.9,2.2,0.6,4.3,1.6,5.6c0,0,0.4,0.7-0.4,1C22.3,8.3,21.9,8.5,21.4,8z"/>
<path class="st3" d="M2.7,84.5v6.3h2.6c1.1,0,1.9-0.6,1.9-1.7c0-0.9-0.6-1.3-1.1-1.4v-0.1c0.5-0.2,1.1-0.5,1.1-1.4
	c0-1-0.8-1.6-1.9-1.6H2.7z M3.4,85.1h1.8c0.7,0,1.2,0.4,1.2,1.1c0,0.6-0.4,1.1-1.2,1.1H3.4V85.1z M3.4,87.9h1.8
	c0.8,0,1.2,0.4,1.2,1.1c0,0.6-0.4,1.1-1.2,1.1H3.4V87.9z M8,85c0,0.3,0.2,0.6,0.6,0.6s0.6-0.2,0.6-0.6c0-0.3-0.3-0.6-0.6-0.6
	S8,84.7,8,85z M8.9,86.4H8.2v4.4h0.7V86.4z M10,88.6c0,1.4,0.9,2.3,2.2,2.3s2.2-0.9,2.2-2.3c0-1.4-0.9-2.3-2.2-2.3S10,87.2,10,88.6z
	 M10.6,88.6c0-1,0.6-1.7,1.6-1.7s1.6,0.7,1.6,1.7c0,1-0.6,1.7-1.6,1.7S10.6,89.6,10.6,88.6z M15.2,85c0,0.3,0.2,0.6,0.6,0.6
	s0.6-0.2,0.6-0.6c0-0.3-0.3-0.6-0.6-0.6S15.2,84.7,15.2,85z M16.2,86.4h-0.7v4.4h0.7V86.4z M17.5,86.4v4.4h0.7v-2.2
	c0-1.1,0.6-1.7,1.4-1.7c0.8,0,1.2,0.4,1.2,1.3v2.6h0.7v-2.7c0-1.2-0.8-1.8-1.7-1.8c-0.9,0-1.3,0.4-1.6,0.8h-0.1v-0.7H17.5z
	 M22.2,86.4V87h1.4v3.8h0.7V87h1.4v-0.6h-1.4v-1.1c0-0.2,0.1-0.3,0.3-0.3h0.9v-0.6h-1.2c-0.4,0-0.7,0.3-0.7,0.7v1.2H22.2z
	 M26.3,88.6c0,1.4,0.9,2.3,2.2,2.3c1.3,0,2.2-0.9,2.2-2.3c0-1.4-0.9-2.3-2.2-2.3C27.2,86.3,26.3,87.2,26.3,88.6z M26.9,88.6
	c0-1,0.6-1.7,1.6-1.7c0.9,0,1.6,0.7,1.6,1.7c0,1-0.6,1.7-1.6,1.7C27.6,90.3,26.9,89.6,26.9,88.6z M32.5,86.4h-0.7v4.4h0.7v-2.7
	c0-0.8,0.4-1.1,1.1-1.1h0.7v-0.6h-0.6c-0.6,0-0.9,0.2-1.1,0.6h-0.1V86.4z M35.1,86.4v4.4h0.7v-2.7c0-0.8,0.5-1.2,1.1-1.2
	c0.6,0,1,0.4,1,1v2.9h0.7v-2.7c0-0.8,0.5-1.2,1.1-1.2c0.6,0,1,0.4,1,1v2.9h0.7v-3c0-0.9-0.6-1.5-1.5-1.5c-0.7,0-1.1,0.3-1.4,0.8
	h-0.1c-0.2-0.4-0.6-0.8-1.3-0.8c-0.7,0-1.1,0.3-1.3,0.7h-0.1v-0.6H35.1z M42.5,87.6l0.6,0.2c0.1-0.6,0.5-1,1.3-1
	c0.7,0,1.1,0.4,1.1,1v0.3H44c-0.9,0-1.6,0.4-1.6,1.3c0,0.9,0.7,1.4,1.6,1.4c0.9,0,1.2-0.4,1.4-0.8h0.1v0.6h0.7v-2.9
	c0-1-0.7-1.6-1.8-1.6C43.3,86.3,42.7,86.9,42.5,87.6z M43,89.5c0-0.5,0.4-0.8,1-0.8h1.5v0.1c0,0.9-0.6,1.5-1.4,1.5
	C43.4,90.3,43,90,43,89.5z M46.8,87h1.4V90c0,0.5,0.3,0.7,0.7,0.7h1.2v-0.6h-1c-0.2,0-0.3-0.1-0.3-0.3v-3h1.4v-0.6h-1.4v-1.6h-0.7
	v1.6h-1.4V87z M51,85c0,0.3,0.2,0.6,0.6,0.6s0.6-0.2,0.6-0.6c0-0.3-0.3-0.6-0.6-0.6S51,84.7,51,85z M51.9,86.4h-0.7v4.4h0.7V86.4z
	 M53,88.6c0,1.4,1,2.3,2.3,2.3c1.2,0,1.9-0.7,2.1-1.7l-0.7-0.2c-0.1,0.7-0.6,1.2-1.4,1.2c-0.9,0-1.6-0.7-1.6-1.7s0.7-1.7,1.6-1.7
	c0.8,0,1.3,0.5,1.4,1.2l0.7-0.1c-0.2-0.9-0.9-1.7-2.1-1.7C54,86.3,53,87.2,53,88.6z M58.2,87.5c0,0.8,0.6,1.1,1.5,1.3l0.5,0.1
	c0.6,0.1,1,0.3,1,0.7c0,0.5-0.4,0.8-1.1,0.8s-1.3-0.3-1.4-1.2L58,89.3c0.2,1.1,1,1.6,2.1,1.6c1.1,0,1.8-0.5,1.8-1.4
	c0-0.9-0.7-1.1-1.6-1.3l-0.5-0.1c-0.5-0.1-0.9-0.3-0.9-0.7c0-0.4,0.4-0.7,1-0.7c0.6,0,1,0.3,1.2,0.9l0.6-0.2
	c-0.2-0.8-0.8-1.3-1.8-1.3C58.8,86.3,58.2,86.7,58.2,87.5z M2.5,96.9v1.4c0,1.7,1,2.6,2.5,2.6s2.5-0.9,2.5-2.6v-1.4
	c0-1.7-1-2.6-2.5-2.6S2.5,95.2,2.5,96.9z M3.2,96.9c0-1.2,0.6-1.9,1.7-1.9c1.1,0,1.7,0.7,1.7,1.9v1.5c0,1.2-0.6,1.9-1.7,1.9
	c-1.1,0-1.7-0.7-1.7-1.9V96.9z M8.5,102.6h0.7V100h0.1c0.3,0.4,0.7,0.9,1.6,0.9c1.2,0,2.1-0.9,2.1-2.3c0-1.4-0.9-2.3-2.1-2.3
	c-0.9,0-1.4,0.4-1.7,0.9H9.2v-0.8H8.5V102.6z M10.8,100.3c-0.9,0-1.6-0.7-1.6-1.7s0.7-1.7,1.6-1.7c0.9,0,1.5,0.7,1.5,1.7
	C12.3,99.6,11.7,100.3,10.8,100.3z M13.8,98.5c0,1.4,0.9,2.4,2.3,2.4c1.2,0,1.7-0.7,2-1.2l-0.6-0.3c-0.2,0.5-0.6,0.9-1.4,0.9
	c-0.9,0-1.5-0.6-1.6-1.5h3.6v-0.4c0-1.3-0.9-2.2-2.1-2.2C14.7,96.3,13.8,97.2,13.8,98.5z M14.5,98.2c0.1-0.8,0.7-1.3,1.5-1.3
	c0.8,0,1.4,0.5,1.4,1.3H14.5z M19.1,96.4v4.4h0.7v-2.2c0-1.1,0.6-1.7,1.4-1.7c0.8,0,1.2,0.4,1.2,1.3v2.6h0.7v-2.7
	c0-1.2-0.8-1.8-1.7-1.8c-0.9,0-1.4,0.4-1.6,0.8h-0.1v-0.7H19.1z M29.2,94.4c-1.3,0-2.1,0.7-2.1,1.7c0,1.1,0.7,1.5,1.8,1.8l0.5,0.1
	c0.8,0.2,1.4,0.5,1.4,1.1s-0.6,1.2-1.6,1.2c-1,0-1.7-0.5-1.7-1.6v-0.1h-0.7v0.1c0,1.5,1,2.2,2.4,2.2c1.4,0,2.3-0.7,2.3-1.8
	c0-1.1-0.8-1.5-1.9-1.8l-0.5-0.1c-0.8-0.2-1.3-0.4-1.3-1.1c0-0.7,0.6-1.1,1.4-1.1c0.9,0,1.5,0.4,1.5,1.3v0.3h0.7v-0.3
	C31.5,95,30.5,94.4,29.2,94.4z M32.3,98.6c0,1.4,0.9,2.3,2.2,2.3s2.2-0.9,2.2-2.3c0-1.4-0.9-2.3-2.2-2.3S32.3,97.2,32.3,98.6z
	 M33,98.6c0-1,0.6-1.7,1.6-1.7s1.6,0.7,1.6,1.7c0,1-0.6,1.7-1.6,1.7S33,99.6,33,98.6z M41.9,100.8v-4.4h-0.7v2.2
	c0,1.1-0.6,1.7-1.4,1.7c-0.8,0-1.2-0.4-1.2-1.3v-2.6h-0.7V99c0,1.2,0.8,1.8,1.7,1.8c0.9,0,1.4-0.4,1.6-0.8h0.1v0.7H41.9z M43.9,96.4
	h-0.7v4.4h0.7v-2.7c0-0.8,0.4-1.1,1.1-1.1h0.7v-0.6h-0.6c-0.6,0-0.9,0.2-1.1,0.6h-0.1V96.4z M46,98.6c0,1.4,1,2.3,2.3,2.3
	c1.2,0,1.9-0.7,2.1-1.7l-0.7-0.2c-0.1,0.7-0.6,1.2-1.4,1.2c-0.9,0-1.6-0.7-1.6-1.7s0.7-1.7,1.6-1.7c0.8,0,1.3,0.5,1.4,1.2l0.7-0.1
	c-0.2-0.9-0.9-1.7-2.1-1.7C47,96.3,46,97.2,46,98.6z M51.1,98.5c0,1.4,0.9,2.4,2.3,2.4c1.2,0,1.7-0.7,2-1.2l-0.6-0.3
	c-0.2,0.5-0.6,0.9-1.4,0.9c-0.9,0-1.5-0.6-1.6-1.5h3.6v-0.4c0-1.3-0.9-2.2-2.1-2.2C52,96.3,51.1,97.2,51.1,98.5z M51.8,98.2
	c0.1-0.8,0.7-1.3,1.5-1.3c0.8,0,1.4,0.5,1.4,1.3H51.8z M2.5,108.3c0,1.7,0.9,2.6,2.5,2.6c1.5,0,2.3-0.9,2.3-2.2v-0.2H6.6v0.2
	c0,1-0.5,1.6-1.6,1.6s-1.8-0.7-1.8-1.9V107c0-1.2,0.6-2,1.8-2c1,0,1.6,0.6,1.6,1.6v0.1h0.7v-0.1c0-1.4-0.8-2.3-2.3-2.3
	c-1.5,0-2.5,1-2.5,2.6V108.3z M8.1,108.6c0,1.4,0.9,2.3,2.2,2.3c1.3,0,2.2-0.9,2.2-2.3c0-1.4-0.9-2.3-2.2-2.3
	C9,106.3,8.1,107.2,8.1,108.6z M8.8,108.6c0-1,0.6-1.7,1.6-1.7c0.9,0,1.6,0.7,1.6,1.7c0,1-0.6,1.7-1.6,1.7
	C9.4,110.3,8.8,109.6,8.8,108.6z M13.6,106.4v4.4h0.7v-2.2c0-1.1,0.6-1.7,1.4-1.7c0.8,0,1.2,0.4,1.2,1.3v2.6h0.7v-2.7
	c0-1.2-0.8-1.8-1.7-1.8c-0.9,0-1.4,0.4-1.6,0.8h-0.1v-0.7H13.6z M18.4,106.4v0.6h1.4v3.8h0.7V107h1.4v-0.6h-1.4v-1.1
	c0-0.2,0.1-0.3,0.3-0.3h0.9v-0.6h-1.2c-0.4,0-0.7,0.3-0.7,0.7v1.2H18.4z M22.4,108.5c0,1.3,0.9,2.4,2.3,2.4c1.2,0,1.7-0.7,2-1.2
	l-0.6-0.3c-0.2,0.5-0.6,0.9-1.4,0.9c-0.9,0-1.5-0.6-1.6-1.5h3.6v-0.4c0-1.3-0.9-2.2-2.1-2.2C23.3,106.3,22.4,107.2,22.4,108.5z
	 M23.1,108.2c0.1-0.8,0.7-1.3,1.5-1.3c0.8,0,1.4,0.5,1.4,1.3H23.1z M28.4,106.4h-0.7v4.4h0.7v-2.7c0-0.8,0.4-1.1,1.1-1.1h0.7v-0.6
	h-0.6c-0.6,0-0.9,0.2-1.1,0.6h-0.1V106.4z M30.5,108.5c0,1.3,0.9,2.4,2.3,2.4c1.2,0,1.7-0.7,2-1.2l-0.6-0.3
	c-0.2,0.5-0.6,0.9-1.4,0.9c-0.9,0-1.5-0.6-1.6-1.5h3.6v-0.4c0-1.3-0.9-2.2-2.1-2.2C31.4,106.3,30.5,107.2,30.5,108.5z M31.2,108.2
	c0.1-0.8,0.7-1.3,1.5-1.3c0.8,0,1.4,0.5,1.4,1.3H31.2z M35.8,106.4v4.4h0.7v-2.2c0-1.1,0.6-1.7,1.4-1.7c0.8,0,1.2,0.4,1.2,1.3v2.6
	h0.7v-2.7c0-1.2-0.8-1.8-1.7-1.8c-0.9,0-1.4,0.4-1.6,0.8h-0.1v-0.7H35.8z M40.8,108.6c0,1.4,1,2.3,2.3,2.3c1.2,0,1.9-0.7,2.1-1.7
	l-0.7-0.2c-0.1,0.7-0.6,1.2-1.4,1.2c-0.9,0-1.6-0.7-1.6-1.7c0-1,0.7-1.7,1.6-1.7c0.8,0,1.3,0.5,1.4,1.2l0.7-0.1
	c-0.2-0.9-0.9-1.7-2.1-1.7C41.8,106.3,40.8,107.2,40.8,108.6z M45.9,108.5c0,1.3,0.9,2.4,2.3,2.4c1.2,0,1.7-0.7,2-1.2l-0.6-0.3
	c-0.2,0.5-0.6,0.9-1.4,0.9c-0.9,0-1.5-0.6-1.6-1.5h3.6v-0.4c0-1.3-0.9-2.2-2.1-2.2C46.8,106.3,45.9,107.2,45.9,108.5z M46.6,108.2
	c0.1-0.8,0.7-1.3,1.5-1.3c0.8,0,1.4,0.5,1.4,1.3H46.6z M53.7,106.5v0.2h0.7v-0.2c0-1,0.6-1.6,1.5-1.6c0.9,0,1.4,0.5,1.4,1.4
	c0,0.9-0.6,1.3-1.7,1.5c-1.2,0.3-2.1,0.8-2.1,2.1v0.8h4.5v-0.7h-3.7v-0.2c0-0.9,0.6-1.1,1.7-1.4c1.3-0.3,2-0.9,2-2.1
	c0-1.2-0.9-2-2.2-2C54.7,104.4,53.7,105.1,53.7,106.5z M59,106.9v1.4c0,1.7,0.9,2.6,2.3,2.6s2.3-0.9,2.3-2.6v-1.4
	c0-1.7-0.9-2.6-2.3-2.6S59,105.3,59,106.9z M59.7,106.9c0-1.2,0.5-1.9,1.6-1.9s1.6,0.7,1.6,1.9v1.5c0,1.2-0.5,1.9-1.6,1.9
	c-1,0-1.6-0.7-1.6-1.9V106.9z M64.5,106.5v0.2h0.7v-0.2c0-1,0.6-1.6,1.5-1.6c0.9,0,1.4,0.5,1.4,1.4c0,0.9-0.6,1.3-1.7,1.5
	c-1.2,0.3-2.1,0.8-2.1,2.1v0.8h4.5v-0.7h-3.7v-0.2c0-0.9,0.6-1.1,1.7-1.4c1.3-0.3,2-0.9,2-2.1c0-1.2-0.9-2-2.2-2
	C65.5,104.4,64.5,105.1,64.5,106.5z M69.6,106.5v0.2h0.7v-0.2c0-1,0.6-1.6,1.5-1.6c0.9,0,1.4,0.5,1.4,1.4c0,0.9-0.6,1.3-1.7,1.5
	c-1.2,0.3-2.1,0.8-2.1,2.1v0.8h4.5v-0.7h-3.7v-0.2c0-0.9,0.6-1.1,1.7-1.4c1.3-0.3,2-0.9,2-2.1c0-1.2-0.9-2-2.2-2
	C70.6,104.4,69.6,105.1,69.6,106.5z"/>
<path class="st3" d="M2.2,57.8v19.9h8.8c3.4,0,5.9-2,5.9-5.4c0-2.9-1.9-4.1-3.4-4.5v-0.3c1.5-0.4,3.3-1.6,3.3-4.5
	c0-3.2-2.4-5.3-5.9-5.3H2.2z M5.5,60.7h5.1c1.8,0,3,1.1,3,2.7c0,1.6-1.2,2.7-3,2.7H5.5V60.7z M5.5,69.1h5.1c2,0,3.1,1.1,3.1,2.8
	c0,1.7-1.2,2.8-3.1,2.8H5.5V69.1z M19,65.4v4.7c0,5.1,3.2,8,8.1,8s8-2.8,8-8v-4.7c0-5.1-3.1-8-8-8S19,60.2,19,65.4z M22.3,65.2
	c0-3,1.8-4.9,4.8-4.9c3,0,4.7,1.9,4.7,4.9v4.9c0,3-1.8,4.9-4.7,4.9c-3,0-4.8-1.9-4.8-4.9V65.2z M44.5,57.4c-4.2,0-6.9,2.1-6.9,5.7
	c0,3.5,2.3,4.9,6.3,5.8l0.9,0.2c2.6,0.6,4.1,1.3,4.1,3.1c0,1.8-1.5,3-4.2,3c-2.8,0-4.5-1.3-4.5-4v-0.3H37v0.3c0,4.5,3.2,6.9,7.7,6.9
	c4.5,0,7.4-2.4,7.4-6c0-3.6-2.7-5-6.7-5.9l-0.9-0.2c-2.5-0.6-3.7-1.3-3.7-3c0-1.7,1.3-2.7,3.7-2.7c2.4,0,4,1,4,3.5v0.6h3.2v-0.6
	C51.8,59.5,48.7,57.4,44.5,57.4z M54.1,70c0,5.2,3.1,8.1,8.1,8.1c4.9,0,7.7-2.8,7.7-7.1v-0.7h-3.3V71c0,2.3-1.5,4.2-4.5,4.2
	c-3,0-4.8-1.9-4.8-5.1v-4.7c0-3.2,1.8-5.1,4.8-5.1c2.9,0,4.5,1.8,4.5,4.2V65h3.3v-0.5c0-4.4-2.8-7.2-7.7-7.2c-4.9,0-8.1,2.9-8.1,8.1
	V70z"/>
</svg>
