<svg width="84" height="118" viewBox="0 0 84 118" fill="none" xmlns="http://www.w3.org/2000/svg">
<path d="M43.06 44.3026C46.2661 42.7573 48.9269 40.2743 50.69 37.1826C52.1539 34.6284 52.6942 31.6481 52.22 28.7426C51.6332 25.9921 50.2407 23.4786 48.22 21.5226C46.4344 19.8611 44.4452 18.433 42.3 17.2726C39.9437 16.0017 37.7706 14.4173 35.84 12.5626C35.2305 11.89 34.6785 11.1675 34.19 10.4026C33.5685 9.29824 32.699 8.3534 31.65 7.64256C30.4139 7.01354 28.9879 6.86738 27.65 7.23255C26.5915 7.36479 25.5979 7.81454 24.8 8.52256L24.67 8.68257C24.4525 8.95675 24.2042 9.20504 23.93 9.42256L23.8 9.53256L23.65 9.60256C23.2032 9.82063 22.7048 9.91062 22.21 9.86256H21.96C21.6048 9.8824 21.2606 9.99253 20.96 10.1826C20.5545 10.3774 20.1693 10.6119 19.81 10.8826C19.3526 11.3044 18.9957 11.8234 18.7655 12.4015C18.5354 12.9795 18.4378 13.6018 18.48 14.2226C18.6184 15.7162 19.0428 17.1692 19.73 18.5026L20.08 19.2726C20.7238 20.5577 21.2364 21.9045 21.61 23.2926C21.9998 25.2684 22.0741 27.2935 21.83 29.2926C21.7165 30.4857 21.6831 31.685 21.73 32.8825C21.9109 35.804 22.9901 38.5981 24.82 40.8825C28.91 45.8825 36.59 47.3326 43.06 44.3026Z" fill="url(#paint0_linear)"/>
<path d="M54.2604 28.4557C53.6071 25.303 52.0178 22.4207 49.7004 20.1857C47.7955 18.4039 45.6718 16.8717 43.3804 15.6257C41.1929 14.4416 39.1747 12.9683 37.3804 11.2457C36.8485 10.6534 36.3669 10.0178 35.9404 9.34566C35.1572 7.97769 34.0562 6.81836 32.7304 5.96566C31.0597 5.09245 29.1231 4.8749 27.3004 5.35566C25.8265 5.57833 24.4593 6.2567 23.3904 7.29566C22.4004 6.03566 20.8704 3.58566 21.7804 1.42566C21.8377 1.30388 21.8698 1.17179 21.8748 1.0373C21.8798 0.902808 21.8576 0.76869 21.8096 0.642977C21.7615 0.517264 21.6886 0.402544 21.5952 0.305689C21.5017 0.208833 21.3897 0.131836 21.2658 0.0793092C21.1419 0.0267827 21.0086 -0.000192007 20.8741 1.02876e-06C20.7395 0.000194065 20.6063 0.0275509 20.4826 0.0804326C20.3588 0.133314 20.247 0.210633 20.1538 0.307756C20.0607 0.404879 19.9881 0.519808 19.9404 0.645658C18.7404 3.47566 20.2604 6.39566 21.4704 8.03566C20.9544 8.11303 20.4565 8.28238 20.0004 8.53566C19.4568 8.78675 18.9435 9.09875 18.4704 9.46566C17.7784 10.0919 17.2385 10.8678 16.8919 11.7343C16.5453 12.6008 16.4011 13.535 16.4704 14.4657C16.6131 16.209 17.0955 17.9076 17.8904 19.4657L18.2504 20.2457C18.8342 21.3933 19.3031 22.5958 19.6504 23.8357C19.9905 25.6155 20.0479 27.4379 19.8204 29.2357C19.7008 30.5186 19.6674 31.8082 19.7204 33.0957C19.9235 36.4449 21.1603 39.6487 23.2604 42.2657C24.8252 44.1122 26.7809 45.5878 28.9859 46.5857C31.191 47.5836 33.5904 48.0789 36.0104 48.0357C38.7343 48.034 41.4246 47.4332 43.8904 46.2757C47.4689 44.5528 50.44 41.784 52.4104 38.3357C54.16 35.3587 54.8144 31.864 54.2604 28.4557ZM50.6804 37.3357C48.9174 40.4274 46.2565 42.9104 43.0504 44.4557C36.5804 47.4857 28.9004 46.0357 24.8104 41.0357C22.9805 38.7512 21.9013 35.9571 21.7204 33.0357C21.6735 31.8381 21.7069 30.6387 21.8204 29.4457C22.0645 27.4466 21.9902 25.4215 21.6004 23.4457C21.2268 22.0576 20.7142 20.7108 20.0704 19.4257L19.7204 18.6557C19.0332 17.3223 18.6088 15.8693 18.4704 14.3757C18.4282 13.7549 18.5258 13.1326 18.756 12.5546C18.9861 11.9765 19.343 11.4575 19.8004 11.0357C20.1597 10.765 20.5449 10.5305 20.9504 10.3357C21.2511 10.1456 21.5953 10.0355 21.9504 10.0157H22.2004C22.6952 10.0637 23.1936 9.97372 23.6404 9.75566L23.7904 9.68566L23.9204 9.57566C24.1946 9.35814 24.4429 9.10985 24.6604 8.83566L24.7904 8.67566C25.5883 7.96764 26.5819 7.51789 27.6404 7.38566C28.9783 7.02048 30.4043 7.16665 31.6404 7.79566C32.6894 8.5065 33.5589 9.45134 34.1804 10.5557C34.6689 11.3206 35.2209 12.0431 35.8304 12.7157C37.761 14.5704 39.9341 16.1548 42.2904 17.4257C44.4356 18.5861 46.4248 20.0142 48.2104 21.6757C50.2311 23.6317 51.6236 26.1452 52.2104 28.8957C52.6846 31.8012 52.1443 34.7815 50.6804 37.3357Z" fill="url(#paint1_linear)"/>
<mask id="mask0" mask-type="alpha" maskUnits="userSpaceOnUse" x="21" y="8" width="35" height="37">
<path d="M46.0166 8.61016C46.2233 9.29898 46.4299 10.0567 45.7411 9.71227C44.5701 9.09233 43.0547 8.40351 43.5369 8.88569C44.019 9.36786 44.2257 9.91892 43.468 9.85004C42.7103 9.78115 41.3326 9.57451 40.7127 10.47C40.0928 11.3654 39.2662 11.1588 39.0595 11.5032C38.8529 11.8476 38.5085 13.2941 37.8885 12.812C37.2686 12.3987 36.0287 10.8144 37.0619 11.2277C38.0952 11.641 39.2662 11.1588 38.3018 10.0567C37.3375 8.95457 36.3731 9.36786 35.9598 8.74792C35.5465 8.12798 34.1689 7.37028 33.1357 8.88569C32.1713 10.4011 31.2758 12.3987 30.7248 12.812C30.1737 13.2253 29.0027 13.983 29.2094 14.6029C29.3471 15.2228 29.416 16.6694 30.036 16.2561C30.6559 15.8428 31.0003 15.6361 31.2758 16.0494C31.4825 16.4627 31.4136 17.2893 31.8958 17.2893C31.8958 17.2893 32.8601 16.6005 32.929 15.9805C32.9979 15.3606 32.2402 15.0162 32.7912 14.1207C33.3423 13.2253 34.5822 11.5032 34.3067 12.3987C34.0311 13.2253 33.4112 14.4651 33.8934 15.0162C34.3067 15.5673 36.7175 14.8784 35.6154 15.4295C34.5133 15.9805 33.9622 16.3938 33.7556 17.0827C33.549 17.7715 33.3423 18.3225 32.7912 18.047C32.2402 17.7715 31.5514 17.9092 31.2758 17.9092C31.0003 17.9092 30.8625 16.6694 30.3804 16.9449C29.9671 17.2204 30.5181 18.1159 30.036 18.1848C29.5538 18.2537 29.4849 18.8047 28.9338 19.218C28.3828 19.6313 27.6251 20.4579 27.1429 20.5268C26.6607 20.5956 27.9006 21.2156 27.694 21.7666C27.4873 22.3866 26.3852 22.3177 25.9719 22.3866C25.5586 22.4555 25.903 23.282 25.6964 23.7642C25.4897 24.2464 25.903 24.7286 26.5919 24.7286C27.2807 24.7286 27.9695 24.5908 28.0384 23.9709C28.1073 23.3509 28.7272 22.3177 29.2094 22.5243C29.6227 22.731 30.6559 22.1111 30.8625 22.4555C31.0692 22.7999 32.378 23.9709 32.2402 24.1086C32.1024 24.2464 31.3447 24.5908 31.6203 24.7286C31.6203 24.7286 31.8269 25.073 31.9647 25.0041C32.1024 24.9352 32.4468 24.0398 32.6535 23.902C32.8601 23.7642 32.8601 23.282 32.5846 23.0754C32.2402 22.8688 31.0692 22.0422 31.3447 21.6289C31.6203 21.2156 32.2402 22.1111 32.5157 22.3866C32.7912 22.6621 33.2045 23.0065 33.2045 23.6265C33.2045 24.2464 33.6178 24.2464 33.6178 24.5219C33.6867 24.8663 33.8245 24.9352 34.1689 24.9352C34.5133 24.8663 34.6511 24.1086 34.5133 23.902C34.3067 23.6953 34.3067 23.282 34.7199 23.282C35.1332 23.282 35.6154 22.9376 35.6154 22.731C35.6154 22.5243 36.0287 21.2845 36.3042 21.2845C36.5798 21.2845 36.7864 21.7666 36.8553 22.0422C36.9931 22.3177 37.6819 21.8355 37.5441 21.56C37.4064 21.2845 37.613 21.2156 37.8196 21.2156C38.0263 21.2156 37.8885 21.7666 38.0263 21.9044C38.2329 22.0422 39.1973 22.6621 38.8529 23.0065C38.5085 23.3509 38.0263 23.1443 37.6819 22.8688C37.3375 22.5932 36.442 22.731 36.1665 23.0065C35.9598 23.282 35.7532 23.4198 35.3399 23.4198C34.9266 23.4198 34.9955 24.1775 35.3399 24.453C35.6843 24.7975 36.1665 24.5219 36.5109 24.7286C36.8553 24.9352 37.4064 24.453 37.4752 24.7975C37.5441 25.1419 37.4064 26.1751 37.0619 26.244C36.7175 26.3129 35.6154 26.5195 34.8577 26.1751C34.0311 25.8307 33.2734 25.6929 33.2045 26.0373C33.1357 26.4506 33.1357 26.7262 32.5846 26.3817C32.0335 26.0373 31.5514 25.8307 31.207 25.8307C30.8625 25.8307 30.8625 25.2107 30.9314 24.7286C31.0003 24.2464 30.1048 24.3842 29.5538 24.5219C29.0027 24.6597 27.9006 25.0041 27.2118 25.0041C26.523 25.0041 26.2474 25.1419 26.1097 25.4174C25.9719 25.6929 25.352 25.6929 25.352 26.244C25.352 26.795 25.4209 26.9328 24.8698 27.2083C24.2499 27.415 24.1121 28.5171 23.8366 28.7926C23.561 29.0681 24.1121 29.757 23.8366 30.1703C23.561 30.5147 23.2855 31.479 23.7677 31.6857C24.2499 31.8923 24.732 32.8567 24.9387 33.2011C25.1453 33.5455 25.903 33.8899 26.6607 33.7521C27.4184 33.6144 28.7961 33.2011 29.5538 33.5455C30.3115 33.8899 31.0692 33.821 30.7248 34.5098C30.3115 35.1987 30.9314 36.0941 31.4136 36.5763C31.8958 37.0585 31.758 38.2984 31.4825 38.6428C31.207 39.0561 31.2758 39.7449 31.5514 40.0893C31.8269 40.4337 31.9647 41.2603 31.9647 41.5358C31.9647 41.8802 32.5157 42.5002 32.5846 43.1201C32.6535 43.8089 32.1713 44.5666 32.7912 44.5666C33.4112 44.5666 34.9955 44.6355 35.1332 44.36C35.271 44.0845 36.5109 42.9823 36.8553 42.5002C37.1997 42.018 37.8885 41.1914 37.6819 40.7092C37.2686 40.3648 37.5441 40.0204 38.2329 39.7449C38.9218 39.4693 38.9218 37.5406 38.5773 37.0585C38.2329 36.5763 38.8529 35.4053 39.6106 35.0609C40.3683 34.7165 42.1592 31.5479 41.6082 31.8234C40.9882 32.099 39.8172 32.3056 39.4039 32.0301C38.9906 31.7545 36.5798 27.6216 36.9242 27.3461C37.2686 27.0706 39.1973 31.1346 39.5417 31.6168C39.8861 32.1678 43.1236 30.1703 43.5369 29.6881C43.8813 29.2059 43.3302 28.7237 43.1236 28.7237C42.9169 28.7237 42.1592 28.2416 41.9526 28.5171C41.7459 28.7926 40.3683 26.5195 40.8505 26.7262C41.3326 26.9328 42.3659 27.6216 43.3302 28.1727C44.2946 28.7237 45.3967 27.8283 46.0166 28.8615C46.7054 29.8947 47.1187 29.2059 47.0498 29.6881C46.981 30.1703 47.8764 32.1678 48.2208 32.7878C48.4964 33.4077 49.1163 32.5123 49.1852 31.8234C49.2541 31.0657 50.7006 29.8947 51.2517 29.4814C51.7338 29.0681 52.6982 29.6881 52.8359 30.5147C52.9737 31.3413 53.6625 30.3769 53.6625 30.9968C53.6625 31.6857 53.5248 32.5811 54.0069 33.4077C54.9713 30.9968 55.4535 28.586 55.4535 25.9685C55.4535 18.6669 51.665 12.2609 46.0166 8.61016" fill="#3F6D3A"/>
<path d="M24.0432 11.2277C23.6299 11.3654 23.2167 11.8476 22.6656 11.5721C22.1145 11.2966 20.9435 11.7098 21.7012 12.3298C22.3901 13.0186 22.1145 13.4319 22.8034 13.5008C23.4922 13.5697 23.9055 12.6053 24.3876 12.6742C24.8698 12.7431 24.5254 11.0899 24.0432 11.2277Z" fill="#3F6D3A"/>
<path d="M40.7816 38.1606C40.2994 38.2295 40.4372 39.1938 39.8861 39.3316C39.4039 39.4693 39.8172 39.8826 39.5417 40.227C39.335 40.5714 39.1973 41.398 39.5417 41.8113C39.8861 42.2935 40.0239 42.2935 40.4372 41.5358C40.8504 40.847 41.8148 38.0917 40.7816 38.1606Z" fill="#3F6D3A"/>
<path d="M26.9363 15.8428C26.7296 15.8428 26.523 15.9805 26.3164 15.9805C26.1097 16.0494 25.9719 16.3249 25.9719 16.6005C25.9719 16.9449 26.523 17.0138 26.3164 17.2204C26.1097 17.4271 25.0076 17.6337 25.1454 17.9781C25.2831 18.3225 25.4898 18.5981 25.2831 18.9425C25.0765 19.2869 25.4898 19.3558 25.9031 19.218C26.3164 19.0802 26.5919 18.5981 26.523 18.3225C26.4541 17.9781 27.1429 17.9092 26.9363 18.1848C26.7296 18.4603 26.3852 19.1491 26.5919 19.3558C26.7985 19.5624 26.0408 19.9068 26.3164 20.0446C26.5919 20.1823 27.3496 19.4935 27.7629 19.6313C28.1762 19.7691 28.3139 19.4935 28.3828 19.1491C28.4517 18.7358 27.8318 18.2536 27.6251 17.7715C27.4185 17.2204 27.5562 15.8428 26.9363 15.8428" fill="#3F6D3A"/>
</mask>
<g mask="url(#mask0)">
<path d="M43.06 44.3026C46.2661 42.7573 48.9269 40.2743 50.69 37.1826C52.1539 34.6284 52.6942 31.6481 52.22 28.7426C51.6332 25.9921 50.2407 23.4786 48.22 21.5226C46.4344 19.8611 44.4452 18.433 42.3 17.2726C39.9437 16.0017 37.7706 14.4173 35.84 12.5626C35.2305 11.89 34.6785 11.1675 34.19 10.4026C33.5685 9.29824 32.699 8.3534 31.65 7.64256C30.4139 7.01354 28.9879 6.86738 27.65 7.23255C26.5915 7.36479 25.5979 7.81454 24.8 8.52256L24.67 8.68257C24.4525 8.95675 24.2042 9.20504 23.93 9.42256L23.8 9.53256L23.65 9.60256C23.2032 9.82063 22.7048 9.91062 22.21 9.86256H21.96C21.6048 9.8824 21.2606 9.99253 20.96 10.1826C20.5545 10.3774 20.1693 10.6119 19.81 10.8826C19.3526 11.3044 18.9957 11.8234 18.7655 12.4015C18.5354 12.9795 18.4378 13.6018 18.48 14.2226C18.6184 15.7162 19.0428 17.1692 19.73 18.5026L20.08 19.2726C20.7238 20.5577 21.2364 21.9045 21.61 23.2926C21.9998 25.2684 22.0741 27.2935 21.83 29.2926C21.7165 30.4857 21.6831 31.685 21.73 32.8825C21.9109 35.804 22.9901 38.5981 24.82 40.8825C28.91 45.8825 36.59 47.3326 43.06 44.3026Z" fill="#3F6D3A"/>
</g>
<path d="M21.3938 8C20.1838 6.36 18.7438 3.47566 19.9438 0.645658C19.9915 0.519811 20.0641 0.404882 20.1572 0.307756C20.2504 0.210633 20.3622 0.133317 20.486 0.0804339C20.6097 0.0275507 20.7429 0.000195554 20.8775 1.0045e-06C21.012 -0.00018973 21.1453 0.026784 21.2692 0.0793086C21.3931 0.131837 21.5051 0.208833 21.5986 0.305688C21.692 0.402543 21.7649 0.517266 21.813 0.64298C21.861 0.768689 21.8832 0.90281 21.8782 1.0373C21.8732 1.17178 21.8411 1.30388 21.7838 1.42566C20.8738 3.58566 22.4038 5.74 23.3938 7C23.3938 7 23.8122 7.73363 22.9569 8.03566C22.2508 8.28497 21.8938 8.5 21.3938 8Z" fill="#65370E"/>
<path d="M2.67577 84.4772V90.7772H5.26777C6.34777 90.7772 7.14877 90.1562 7.14877 89.0942C7.14877 88.2032 6.54577 87.7802 6.06877 87.6542V87.5642C6.53677 87.4112 7.13977 87.0152 7.13977 86.1242C7.13977 85.1072 6.34777 84.4772 5.28577 84.4772H2.67577ZM3.40477 85.1342H5.21377C5.95177 85.1342 6.41977 85.5662 6.41977 86.1872C6.41977 86.8352 5.97877 87.2762 5.22277 87.2762H3.40477V85.1342ZM3.40477 87.9422H5.19577C5.99677 87.9422 6.43777 88.3652 6.43777 89.0222C6.43777 89.6612 5.99677 90.1202 5.23177 90.1202H3.40477V87.9422ZM8.00503 85.0082C8.00503 85.3412 8.24803 85.5842 8.58103 85.5842C8.91403 85.5842 9.16603 85.3412 9.16603 85.0082C9.16603 84.6842 8.91403 84.4412 8.58103 84.4412C8.24803 84.4412 8.00503 84.6842 8.00503 85.0082ZM8.93203 86.3852H8.23903V90.7772H8.93203V86.3852ZM9.95515 88.5812C9.95515 89.9582 10.8641 90.9032 12.1961 90.9032C13.5281 90.9032 14.4461 89.9582 14.4461 88.5812C14.4461 87.1952 13.5281 86.2592 12.1961 86.2592C10.8641 86.2592 9.95515 87.1952 9.95515 88.5812ZM10.6391 88.5812C10.6391 87.5822 11.2601 86.8712 12.1961 86.8712C13.1321 86.8712 13.7531 87.5552 13.7531 88.5812C13.7531 89.5982 13.1321 90.2912 12.1961 90.2912C11.2601 90.2912 10.6391 89.6252 10.6391 88.5812ZM15.2384 85.0082C15.2384 85.3412 15.4814 85.5842 15.8144 85.5842C16.1474 85.5842 16.3994 85.3412 16.3994 85.0082C16.3994 84.6842 16.1474 84.4412 15.8144 84.4412C15.4814 84.4412 15.2384 84.6842 15.2384 85.0082ZM16.1654 86.3852H15.4724V90.7772H16.1654V86.3852ZM17.4675 86.3852V90.7772H18.1605V88.5542C18.1605 87.4562 18.7635 86.8892 19.6095 86.8892C20.3655 86.8892 20.8425 87.2762 20.8425 88.1582V90.7772H21.5265V88.1132C21.5265 86.9342 20.7525 86.2952 19.7895 86.2952C18.8805 86.2952 18.4395 86.7092 18.2325 87.1232H18.1425V86.3852H17.4675ZM22.229 86.3852V86.9612H23.597V90.7772H24.29V86.9612H25.685V86.3852H24.29V85.3232C24.29 85.1432 24.38 85.0532 24.542 85.0532H25.478V84.4772H24.317C23.876 84.4772 23.597 84.7562 23.597 85.2152V86.3852H22.229ZM26.2589 88.5812C26.2589 89.9582 27.1679 90.9032 28.4999 90.9032C29.8319 90.9032 30.7499 89.9582 30.7499 88.5812C30.7499 87.1952 29.8319 86.2592 28.4999 86.2592C27.1679 86.2592 26.2589 87.1952 26.2589 88.5812ZM26.9429 88.5812C26.9429 87.5822 27.5639 86.8712 28.4999 86.8712C29.4359 86.8712 30.0569 87.5552 30.0569 88.5812C30.0569 89.5982 29.4359 90.2912 28.4999 90.2912C27.5639 90.2912 26.9429 89.6252 26.9429 88.5812ZM32.4511 86.3852H31.7761V90.7772H32.4691V88.0772C32.4691 87.3212 32.8831 86.9702 33.5311 86.9702H34.2421V86.3672H33.6391C33.0541 86.3672 32.7121 86.5382 32.5411 86.9612H32.4511V86.3852ZM35.0633 86.3852V90.7772H35.7563V88.1222C35.7563 87.3212 36.2243 86.8892 36.8633 86.8892C37.4933 86.8892 37.8533 87.2672 37.8533 87.8522V90.7772H38.5463V88.1222C38.5463 87.3212 39.0143 86.8892 39.6623 86.8892C40.2833 86.8892 40.6523 87.2672 40.6523 87.8522V90.7772H41.3363V87.7982C41.3363 86.8712 40.7153 86.2952 39.8513 86.2952C39.1403 86.2952 38.7263 86.6102 38.4743 87.0962H38.3843C38.1953 86.6462 37.7723 86.2952 37.0883 86.2952C36.4313 86.2952 36.0353 86.5742 35.8283 86.9612H35.7383V86.3852H35.0633ZM42.4605 87.6002L43.1085 87.7982C43.2435 87.2402 43.6485 86.8442 44.3685 86.8442C45.0975 86.8442 45.4665 87.2402 45.4665 87.8702V88.1942H43.9635C43.0275 88.1942 42.3255 88.6352 42.3255 89.5262C42.3255 90.4082 43.0275 90.9032 43.9455 90.9032C44.8095 90.9032 45.1875 90.4982 45.3855 90.1472H45.4845V90.7772H46.1505V87.9062C46.1505 86.8712 45.4845 86.2592 44.3685 86.2592C43.2615 86.2592 42.6675 86.8622 42.4605 87.6002ZM43.0095 89.5172C43.0095 89.0222 43.4235 88.7612 43.9905 88.7612H45.4665V88.8692C45.4665 89.7782 44.8905 90.3272 44.0445 90.3272C43.4235 90.3272 43.0095 90.0122 43.0095 89.5172ZM46.766 86.9612H48.125V90.0392C48.125 90.4982 48.404 90.7772 48.845 90.7772H50.06V90.2012H49.061C48.899 90.2012 48.809 90.1112 48.809 89.9312V86.9612H50.258V86.3852H48.809V84.8102H48.125V86.3852H46.766V86.9612ZM51.0011 85.0082C51.0011 85.3412 51.2441 85.5842 51.5771 85.5842C51.9101 85.5842 52.1621 85.3412 52.1621 85.0082C52.1621 84.6842 51.9101 84.4412 51.5771 84.4412C51.2441 84.4412 51.0011 84.6842 51.0011 85.0082ZM51.9281 86.3852H51.2351V90.7772H51.9281V86.3852ZM52.9512 88.5812C52.9512 89.9402 53.9502 90.9032 55.2282 90.9032C56.4252 90.9032 57.1362 90.1652 57.3342 89.2292L56.6592 89.0762C56.5422 89.7782 56.0832 90.2912 55.2372 90.2912C54.3372 90.2912 53.6532 89.5892 53.6532 88.5812C53.6532 87.5732 54.3282 86.8712 55.2282 86.8712C56.0292 86.8712 56.5422 87.3662 56.6322 88.0772L57.3072 87.9332C57.1542 87.0062 56.3982 86.2592 55.2192 86.2592C53.9502 86.2592 52.9512 87.2132 52.9512 88.5812ZM58.1937 87.5192C58.1937 88.3022 58.8417 88.6532 59.6697 88.7882L60.1197 88.8512C60.7587 88.9592 61.1367 89.1392 61.1367 89.5802C61.1367 90.0392 60.7137 90.3452 60.0387 90.3452C59.3637 90.3452 58.7877 90.0662 58.6437 89.1662L57.9867 89.3192C58.1487 90.4082 58.9497 90.9032 60.0387 90.9032C61.1097 90.9032 61.8117 90.3992 61.8117 89.5442C61.8117 88.6802 61.1277 88.4102 60.2277 88.2572L59.7777 88.1942C59.2557 88.1042 58.8777 87.9242 58.8777 87.5012C58.8777 87.0602 59.2557 86.8172 59.8587 86.8172C60.4527 86.8172 60.8937 87.0692 61.0197 87.7172L61.6587 87.5462C61.4787 86.7362 60.8487 86.2592 59.8587 86.2592C58.8417 86.2592 58.1937 86.7362 58.1937 87.5192ZM2.47777 96.9072V98.3472C2.47777 100.012 3.44077 100.903 4.94377 100.903C6.44677 100.903 7.40977 100.012 7.40977 98.3472V96.9072C7.40977 95.2422 6.44677 94.3512 4.94377 94.3512C3.44077 94.3512 2.47777 95.2422 2.47777 96.9072ZM3.20677 96.8712C3.20677 95.7102 3.84577 94.9992 4.94377 94.9992C6.03277 94.9992 6.67177 95.7102 6.67177 96.8712V98.3832C6.67177 99.5442 6.03277 100.246 4.94377 100.246C3.84577 100.246 3.20677 99.5442 3.20677 98.3832V96.8712ZM8.53786 102.577H9.23086V100.039H9.32086C9.57286 100.471 10.0499 100.903 10.9589 100.903C12.1109 100.903 13.0379 99.9942 13.0379 98.5812C13.0379 97.1592 12.1109 96.2592 10.9589 96.2592C10.0499 96.2592 9.57286 96.6912 9.30286 97.1412H9.21286V96.3852H8.53786V102.577ZM10.7879 100.291C9.87886 100.291 9.22186 99.6342 9.22186 98.5812C9.22186 97.5282 9.87886 96.8622 10.7879 96.8622C11.7059 96.8622 12.3359 97.5192 12.3359 98.5812C12.3359 99.6432 11.7059 100.291 10.7879 100.291ZM13.7782 98.5452C13.7782 99.8952 14.6782 100.903 16.0462 100.903C17.2432 100.903 17.7472 100.228 18.0262 99.7062L17.4322 99.4002C17.1982 99.8862 16.8112 100.291 16.0462 100.291C15.1642 100.291 14.5522 99.6972 14.4892 98.7972H18.0982V98.4282C18.0982 97.0872 17.2252 96.2592 15.9832 96.2592C14.7052 96.2592 13.7782 97.2222 13.7782 98.5452ZM14.4982 98.2212C14.5972 97.3932 15.1552 96.8712 15.9832 96.8712C16.7932 96.8712 17.3422 97.3482 17.3872 98.2212H14.4982ZM19.0847 96.3852V100.777H19.7777V98.5542C19.7777 97.4562 20.3807 96.8892 21.2267 96.8892C21.9827 96.8892 22.4597 97.2762 22.4597 98.1582V100.777H23.1437V98.1132C23.1437 96.9342 22.3697 96.2952 21.4067 96.2952C20.4977 96.2952 20.0567 96.7092 19.8497 97.1232H19.7597V96.3852H19.0847ZM29.2495 94.3512C27.9805 94.3512 27.1075 95.0082 27.1075 96.0612C27.1075 97.1232 27.8365 97.5552 28.9435 97.8162L29.4205 97.9332C30.2665 98.1312 30.8245 98.3832 30.8245 99.0762C30.8245 99.7692 30.2575 100.255 29.2675 100.255C28.2865 100.255 27.6115 99.7602 27.6115 98.6622V98.5992H26.8825V98.6622C26.8825 100.165 27.8995 100.903 29.2675 100.903C30.6445 100.903 31.5445 100.165 31.5445 99.0672C31.5445 97.9602 30.7255 97.5462 29.6365 97.2942L29.1505 97.1772C28.3135 96.9792 27.8365 96.7452 27.8365 96.0522C27.8365 95.3772 28.3945 94.9992 29.2495 94.9992C30.1225 94.9992 30.7615 95.3772 30.7615 96.2952V96.5922H31.4905V96.2952C31.4905 95.0082 30.5185 94.3512 29.2495 94.3512ZM32.3321 98.5812C32.3321 99.9582 33.2411 100.903 34.5731 100.903C35.9051 100.903 36.8231 99.9582 36.8231 98.5812C36.8231 97.1952 35.9051 96.2592 34.5731 96.2592C33.2411 96.2592 32.3321 97.1952 32.3321 98.5812ZM33.0161 98.5812C33.0161 97.5822 33.6371 96.8712 34.5731 96.8712C35.5091 96.8712 36.1301 97.5552 36.1301 98.5812C36.1301 99.5982 35.5091 100.291 34.5731 100.291C33.6371 100.291 33.0161 99.6252 33.0161 98.5812ZM41.8814 100.777V96.3852H41.1974V98.6082C41.1974 99.7062 40.5854 100.273 39.7484 100.273C38.9834 100.273 38.5064 99.8862 38.5064 99.0042V96.3852H37.8224V99.0492C37.8224 100.228 38.5964 100.858 39.5594 100.858C40.4684 100.858 40.9094 100.453 41.1254 100.039H41.2154V100.777H41.8814ZM43.8681 96.3852H43.1931V100.777H43.8861V98.0772C43.8861 97.3212 44.3001 96.9702 44.9481 96.9702H45.6591V96.3672H45.0561C44.4711 96.3672 44.1291 96.5382 43.9581 96.9612H43.8681V96.3852ZM45.9727 98.5812C45.9727 99.9402 46.9717 100.903 48.2497 100.903C49.4467 100.903 50.1577 100.165 50.3557 99.2292L49.6807 99.0762C49.5637 99.7782 49.1047 100.291 48.2587 100.291C47.3587 100.291 46.6747 99.5892 46.6747 98.5812C46.6747 97.5732 47.3497 96.8712 48.2497 96.8712C49.0507 96.8712 49.5637 97.3662 49.6537 98.0772L50.3287 97.9332C50.1757 97.0062 49.4197 96.2592 48.2407 96.2592C46.9717 96.2592 45.9727 97.2132 45.9727 98.5812ZM51.0702 98.5452C51.0702 99.8952 51.9702 100.903 53.3382 100.903C54.5352 100.903 55.0392 100.228 55.3182 99.7062L54.7242 99.4002C54.4902 99.8862 54.1032 100.291 53.3382 100.291C52.4562 100.291 51.8442 99.6972 51.7812 98.7972H55.3902V98.4282C55.3902 97.0872 54.5172 96.2592 53.2752 96.2592C51.9972 96.2592 51.0702 97.2222 51.0702 98.5452ZM51.7902 98.2212C51.8892 97.3932 52.4472 96.8712 53.2752 96.8712C54.0852 96.8712 54.6342 97.3482 54.6792 98.2212H51.7902ZM2.47777 108.284C2.47777 109.949 3.41377 110.903 4.96177 110.903C6.41977 110.903 7.30177 110.048 7.30177 108.662V108.482H6.57277V108.671C6.57277 109.625 6.05977 110.246 4.96177 110.246C3.86377 110.246 3.20677 109.526 3.20677 108.302V106.952C3.20677 105.728 3.85477 104.999 4.96177 104.999C6.00577 104.999 6.57277 105.647 6.57277 106.601V106.745H7.30177V106.61C7.30177 105.224 6.47377 104.351 4.96177 104.351C3.43177 104.351 2.47777 105.305 2.47777 106.97V108.284ZM8.07429 108.581C8.07429 109.958 8.98329 110.903 10.3153 110.903C11.6473 110.903 12.5653 109.958 12.5653 108.581C12.5653 107.195 11.6473 106.259 10.3153 106.259C8.98329 106.259 8.07429 107.195 8.07429 108.581ZM8.75829 108.581C8.75829 107.582 9.37929 106.871 10.3153 106.871C11.2513 106.871 11.8723 107.555 11.8723 108.581C11.8723 109.598 11.2513 110.291 10.3153 110.291C9.37929 110.291 8.75829 109.625 8.75829 108.581ZM13.5916 106.385V110.777H14.2846V108.554C14.2846 107.456 14.8876 106.889 15.7336 106.889C16.4896 106.889 16.9666 107.276 16.9666 108.158V110.777H17.6506V108.113C17.6506 106.934 16.8766 106.295 15.9136 106.295C15.0046 106.295 14.5636 106.709 14.3566 107.123H14.2666V106.385H13.5916ZM18.3531 106.385V106.961H19.7211V110.777H20.4141V106.961H21.8091V106.385H20.4141V105.323C20.4141 105.143 20.5041 105.053 20.6661 105.053H21.6021V104.477H20.4411C20.0001 104.477 19.7211 104.756 19.7211 105.215V106.385H18.3531ZM22.3739 108.545C22.3739 109.895 23.2739 110.903 24.6419 110.903C25.8389 110.903 26.3429 110.228 26.6219 109.706L26.0279 109.4C25.7939 109.886 25.4069 110.291 24.6419 110.291C23.7599 110.291 23.1479 109.697 23.0849 108.797H26.6939V108.428C26.6939 107.087 25.8209 106.259 24.5789 106.259C23.3009 106.259 22.3739 107.222 22.3739 108.545ZM23.0939 108.221C23.1929 107.393 23.7509 106.871 24.5789 106.871C25.3889 106.871 25.9379 107.348 25.9829 108.221H23.0939ZM28.3554 106.385H27.6804V110.777H28.3734V108.077C28.3734 107.321 28.7874 106.97 29.4354 106.97H30.1464V106.367H29.5434C28.9584 106.367 28.6164 106.538 28.4454 106.961H28.3554V106.385ZM30.451 108.545C30.451 109.895 31.351 110.903 32.719 110.903C33.916 110.903 34.42 110.228 34.699 109.706L34.105 109.4C33.871 109.886 33.484 110.291 32.719 110.291C31.837 110.291 31.225 109.697 31.162 108.797H34.771V108.428C34.771 107.087 33.898 106.259 32.656 106.259C31.378 106.259 30.451 107.222 30.451 108.545ZM31.171 108.221C31.27 107.393 31.828 106.871 32.656 106.871C33.466 106.871 34.015 107.348 34.06 108.221H31.171ZM35.7576 106.385V110.777H36.4506V108.554C36.4506 107.456 37.0536 106.889 37.8996 106.889C38.6556 106.889 39.1326 107.276 39.1326 108.158V110.777H39.8166V108.113C39.8166 106.934 39.0426 106.295 38.0796 106.295C37.1706 106.295 36.7296 106.709 36.5226 107.123H36.4326V106.385H35.7576ZM40.796 108.581C40.796 109.94 41.795 110.903 43.073 110.903C44.27 110.903 44.981 110.165 45.179 109.229L44.504 109.076C44.387 109.778 43.928 110.291 43.082 110.291C42.182 110.291 41.498 109.589 41.498 108.581C41.498 107.573 42.173 106.871 43.073 106.871C43.874 106.871 44.387 107.366 44.477 108.077L45.152 107.933C44.999 107.006 44.243 106.259 43.064 106.259C41.795 106.259 40.796 107.213 40.796 108.581ZM45.8934 108.545C45.8934 109.895 46.7934 110.903 48.1614 110.903C49.3584 110.903 49.8624 110.228 50.1414 109.706L49.5474 109.4C49.3134 109.886 48.9264 110.291 48.1614 110.291C47.2794 110.291 46.6674 109.697 46.6044 108.797H50.2134V108.428C50.2134 107.087 49.3404 106.259 48.0984 106.259C46.8204 106.259 45.8934 107.222 45.8934 108.545ZM46.6134 108.221C46.7124 107.393 47.2704 106.871 48.0984 106.871C48.9084 106.871 49.4574 107.348 49.5024 108.221H46.6134ZM53.7253 106.52V106.736H54.4543V106.556C54.4543 105.539 55.1023 104.999 56.0023 104.999C56.8663 104.999 57.4513 105.512 57.4513 106.376C57.4513 107.231 56.8303 107.663 55.7953 107.924C54.5533 108.23 53.6983 108.716 53.6983 110.003V110.777H58.1893V110.12H54.4453V109.931C54.4453 109.013 55.0573 108.788 56.1463 108.5C57.4333 108.167 58.1893 107.555 58.1893 106.385C58.1893 105.152 57.2533 104.351 56.0023 104.351C54.7333 104.351 53.7253 105.134 53.7253 106.52ZM59.009 106.916V108.338C59.009 110.021 59.873 110.903 61.304 110.903C62.735 110.903 63.599 110.021 63.599 108.338V106.916C63.599 105.251 62.735 104.351 61.304 104.351C59.873 104.351 59.009 105.251 59.009 106.916ZM59.738 106.871C59.738 105.719 60.278 104.999 61.304 104.999C62.33 104.999 62.87 105.71 62.87 106.871V108.383C62.87 109.535 62.366 110.246 61.304 110.246C60.26 110.246 59.738 109.553 59.738 108.383V106.871ZM64.4743 106.52V106.736H65.2033V106.556C65.2033 105.539 65.8513 104.999 66.7513 104.999C67.6153 104.999 68.2003 105.512 68.2003 106.376C68.2003 107.231 67.5793 107.663 66.5443 107.924C65.3023 108.23 64.4473 108.716 64.4473 110.003V110.777H68.9383V110.12H65.1943V109.931C65.1943 109.013 65.8063 108.788 66.8953 108.5C68.1823 108.167 68.9383 107.555 68.9383 106.385C68.9383 105.152 68.0023 104.351 66.7513 104.351C65.4823 104.351 64.4743 105.134 64.4743 106.52ZM71.117 104.477L69.353 107.204H70.172L71.423 105.269H71.531V110.777H72.26L72.269 104.477H71.117Z" fill="#3F6D3A"/>
<path d="M2.24517 57.7596V77.6671H11.0613C14.4741 77.6671 16.9483 75.6479 16.9483 72.2921C16.9483 69.3913 15.0144 68.1684 13.564 67.7702V67.4858C15.0144 67.0593 16.863 65.8932 16.863 63.0209C16.863 59.7788 14.4456 57.7596 11.0045 57.7596H2.24517ZM5.54413 60.7457H10.6632C12.4833 60.7457 13.7062 61.798 13.7062 63.4475C13.7062 65.0969 12.5118 66.1776 10.6632 66.1776H5.54413V60.7457ZM5.54413 69.1353H10.6632C12.6255 69.1353 13.7915 70.1876 13.7915 71.9224C13.7915 73.6003 12.6255 74.681 10.7201 74.681H5.54413V69.1353ZM19.0303 65.3529V70.0738C19.0303 75.2213 22.1871 78.0653 27.1071 78.0653C32.0271 78.0653 35.1554 75.2213 35.1554 70.0738V65.3529C35.1554 60.2054 32.0271 57.3615 27.1071 57.3615C22.1871 57.3615 19.0303 60.2054 19.0303 65.3529ZM22.3293 65.2391C22.3293 62.2246 24.0925 60.2907 27.1071 60.2907C30.0932 60.2907 31.8565 62.2246 31.8565 65.2391V70.1876C31.8565 73.2021 30.0932 75.136 27.1071 75.136C24.0925 75.136 22.3293 73.2021 22.3293 70.1876V65.2391ZM44.5297 57.3615C40.3492 57.3615 37.619 59.4944 37.619 63.0493C37.619 66.5758 39.951 67.9693 43.9041 68.8509L44.8426 69.05C47.4305 69.6472 48.9094 70.3013 48.9094 72.1215C48.9094 73.9131 47.459 75.1645 44.7288 75.1645C41.9702 75.1645 40.2354 73.8562 40.2354 71.1261V70.8701H36.9933V71.1261C36.9933 75.591 40.207 78.0653 44.7288 78.0653C49.2507 78.0653 52.1515 75.6195 52.1515 72.0361C52.1515 68.4528 49.4782 67.0024 45.4967 66.1492L44.5582 65.9217C42.0555 65.3529 40.8611 64.6419 40.8611 62.9356C40.8611 61.2576 42.1408 60.2623 44.5297 60.2623C46.9755 60.2623 48.5681 61.2576 48.5681 63.7319V64.3575H51.8102V63.7319C51.8102 59.4944 48.7103 57.3615 44.5297 57.3615ZM54.0796 69.9885C54.0796 75.1645 57.2079 78.0653 62.1563 78.0653C67.0479 78.0653 69.8918 75.2498 69.8918 70.927V70.2445H66.6213V70.9839C66.6213 73.3159 65.1424 75.136 62.1563 75.136C59.1986 75.136 57.3785 73.2021 57.3785 70.0454V65.3813C57.3785 62.2246 59.1702 60.2907 62.1563 60.2907C65.0856 60.2907 66.6213 62.1393 66.6213 64.4713V65.0116H69.8918V64.5282C69.8918 60.1769 67.1048 57.3615 62.1563 57.3615C57.2079 57.3615 54.0796 60.2623 54.0796 65.4382V69.9885Z" fill="#3F6D3A"/>
<defs>
<linearGradient id="paint0_linear" x1="32.4535" y1="44" x2="30.4535" y2="5.49998" gradientUnits="userSpaceOnUse">
<stop stop-color="#F7EBB8"/>
<stop offset="1" stop-color="#FFFEF7"/>
</linearGradient>
<linearGradient id="paint1_linear" x1="51.8819" y1="29.2111" x2="32.4535" y2="48" gradientUnits="userSpaceOnUse">
<stop stop-color="#3F6D3A"/>
<stop offset="1" stop-color="#2E482B"/>
</linearGradient>
</defs>
</svg>
