<?xml version="1.0" standalone="no"?><!-- Generator: Gravit.io --><svg xmlns="http://www.w3.org/2000/svg" xmlns:xlink="http://www.w3.org/1999/xlink" style="isolation:isolate" viewBox="-3150 2658.333 7300 2308.333" width="7300" height="2308.333"><defs><clipPath id="_clipPath_aZrVaA9YimONdZ7yKNCWFr2ic4XM8hFE"><rect x="-3150" y="2658.333" width="7300" height="2308.333"/></clipPath></defs><g clip-path="url(#_clipPath_aZrVaA9YimONdZ7yKNCWFr2ic4XM8hFE)"><g opacity="0.85"><rect x="-3150" y="2658.333" width="7300" height="2308.333" transform="matrix(1,0,0,1,0,0)" fill="rgb(102,189,126)"/></g><g><g><g><path d=" M -2525.459 3650.369 C -2474.514 3571.638 -2374.44 3580.735 -2280.163 3543.024 C -2185.887 3505.313 -2104.009 3423.435 -2066.959 3330.809 C -2029.909 3238.183 -2039.071 3137.4 -1959.484 3085.903 C -1879.897 3034.406 -1714.979 3034.406 -1636.247 3085.35 C -1557.515 3136.294 -1566.777 3238.183 -1529.727 3330.809 C -1492.677 3423.436 -1410.499 3505.613 -1316.555 3543.191 C -1222.61 3580.768 -1122.172 3571.638 -1071.228 3650.37 C -1020.283 3729.103 -1020.283 3895.827 -1071.228 3974.56 C -1122.172 4053.294 -1224.06 4044.031 -1316.686 4081.081 C -1409.312 4118.131 -1492.676 4201.495 -1529.727 4294.121 C -1566.778 4386.747 -1557.515 4488.634 -1636.249 4539.58 C -1714.982 4590.526 -1881.705 4590.526 -1960.438 4539.581 C -2039.171 4488.636 -2029.908 4386.747 -2066.959 4294.121 C -2104.009 4201.496 -2187.374 4118.131 -2279.999 4081.081 C -2372.624 4044.031 -2474.513 4053.294 -2525.458 3974.561 C -2576.403 3895.828 -2576.403 3729.1 -2525.459 3650.369 Z " fill-rule="evenodd" fill="none" vector-effect="non-scaling-stroke" stroke-width="27.788" stroke="rgb(255,255,255)" stroke-linejoin="miter" stroke-linecap="butt" stroke-miterlimit="4"/><path d=" M -2197.847 3183.707 C -2106.153 3164.059 -2041.823 3241.256 -1948.493 3281.253 C -1855.164 3321.251 -1739.371 3321.251 -1647.676 3281.953 C -1555.981 3242.655 -1491.195 3164.912 -1398.505 3184.774 C -1305.815 3204.637 -1189.2 3321.252 -1169.551 3412.947 C -1149.902 3504.641 -1228.498 3570.138 -1267.796 3661.833 C -1307.094 3753.529 -1307.094 3869.745 -1267.237 3962.745 C -1227.379 4055.746 -1149.903 4120.31 -1169.552 4212.005 C -1189.201 4303.701 -1307.092 4421.592 -1398.789 4441.242 C -1490.485 4460.892 -1555.981 4382.296 -1647.676 4342.998 C -1739.37 4303.7 -1857.265 4303.7 -1948.96 4342.998 C -2040.656 4382.296 -2106.151 4460.89 -2197.848 4441.241 C -2289.545 4421.592 -2407.436 4303.701 -2427.085 4212.005 C -2446.734 4120.309 -2368.138 4054.813 -2328.841 3963.118 C -2289.543 3871.423 -2289.543 3753.528 -2328.841 3661.834 C -2368.138 3570.139 -2446.734 3504.642 -2427.085 3412.946 C -2407.436 3321.25 -2289.541 3203.356 -2197.847 3183.707 L -2197.847 3183.707 Z " fill-rule="evenodd" fill="none" vector-effect="non-scaling-stroke" stroke-width="83.364" stroke="rgb(255,255,255)" stroke-linejoin="miter" stroke-linecap="butt" stroke-miterlimit="4"/></g></g><g><linearGradient id="_lgradient_25" x1="0.3764485132505324" y1="1.0425847643096884" x2="0.638516668577901" y2="0.07551902024893475" gradientTransform="matrix(521.667,0,0,410.563,-2070.66,3597.984)" gradientUnits="userSpaceOnUse"><stop offset="0%" stop-opacity="1" style="stop-color:rgb(243,219,81)"/><stop offset="10%" stop-opacity="1" style="stop-color:rgb(244,222,97)"/><stop offset="20%" stop-opacity="1" style="stop-color:rgb(245,224,113)"/><stop offset="30.000000000000004%" stop-opacity="1" style="stop-color:rgb(245,227,127)"/><stop offset="40%" stop-opacity="1" style="stop-color:rgb(246,229,141)"/><stop offset="50%" stop-opacity="1" style="stop-color:rgb(247,231,154)"/><stop offset="60%" stop-opacity="1" style="stop-color:rgb(248,233,165)"/><stop offset="70%" stop-opacity="1" style="stop-color:rgb(248,235,175)"/><stop offset="80%" stop-opacity="1" style="stop-color:rgb(249,236,184)"/><stop offset="89.99999999999999%" stop-opacity="1" style="stop-color:rgb(249,238,191)"/><stop offset="99.99999999999999%" stop-opacity="1" style="stop-color:rgb(250,238,195)"/></linearGradient><path d=" M -1889.323 3599.185 C -1901.193 3601.793 -1914.926 3598.82 -1928.105 3605.585 L -1928.105 3605.585 C -1941.255 3612.332 -1952.949 3618.906 -1955.429 3619.556 L -1955.429 3619.556 C -1960.692 3620.929 -1982.186 3629.607 -1995.523 3644.035 L -1995.523 3644.035 C -2003.41 3652.554 -2014.267 3664.801 -2021.867 3673.539 L -2021.867 3673.539 C -2034.352 3687.873 -2032.961 3700.658 -2036.533 3704.071 L -2036.533 3704.071 C -2043.804 3711.041 -2061.788 3747.264 -2068.252 3777.844 L -2068.252 3777.844 C -2073.671 3803.477 -2068.252 3823.785 -2068.252 3832.507 L -2068.252 3832.507 C -2068.252 3836.378 -2069.072 3860.179 -2062.956 3880.028 L -2062.956 3880.028 C -2055.388 3904.618 -2040.438 3926.065 -2038.731 3930.299 L -2038.731 3930.299 C -2035.333 3938.739 -2006.824 3967.281 -1983.419 3983.288 L -1983.419 3983.288 C -1970.618 3992.029 -1958.907 3991.727 -1954.688 3994.635 L -1954.688 3994.635 C -1949.504 3998.176 -1930.651 4011.276 -1910.184 4008.036 L -1910.184 4008.036 C -1901.319 4006.647 -1889.656 4006.284 -1880.158 4002.252 L -1880.158 4002.252 C -1874.706 3999.929 -1871.166 3993.371 -1866.22 3992.424 L -1866.22 3992.424 C -1849.721 3989.277 -1838.216 3979.843 -1832.43 3979.843 L -1832.43 3979.843 C -1821.101 3979.843 -1810.544 3982.009 -1800.823 3978.01 L -1800.823 3978.01 C -1796.019 3976.034 -1779.378 3981.771 -1750.57 3989.074 L -1750.57 3989.074 C -1749.147 3989.436 -1736.313 3994.984 -1734.245 3995.931 L -1734.245 3995.931 C -1725.252 4000.025 -1721.001 3998.254 -1714.222 3999.615 L -1714.222 3999.615 C -1701.926 4002.078 -1695.131 3996.215 -1683.152 3994.352 L -1683.152 3994.352 C -1661.264 3990.938 -1640.244 3977.806 -1622.038 3974.327 L -1622.038 3974.327 C -1596.248 3969.397 -1579.242 3926.379 -1576.857 3922.444 L -1576.857 3922.444 C -1574.566 3918.669 -1542.169 3910.054 -1550.371 3886.886 L -1550.371 3886.886 C -1556.25 3870.279 -1544.634 3831.953 -1550.922 3815.235 L -1550.922 3815.235 C -1559.614 3792.099 -1588.329 3762.939 -1588.329 3758.342 L -1588.329 3758.342 C -1588.329 3747.642 -1718.346 3712.544 -1722.961 3703.425 L -1722.961 3703.425 C -1726.485 3696.487 -1725.63 3672.37 -1746.364 3664.578 L -1746.364 3664.578 C -1759.657 3659.569 -1756.765 3645.788 -1761.111 3642.977 L -1761.111 3642.977 C -1765.63 3640.067 -1769.629 3631.533 -1777.973 3624.55 L -1777.973 3624.55 C -1781.669 3621.451 -1789.415 3618.513 -1793.239 3613.486 L -1793.239 3613.486 C -1804.995 3598.031 -1855.695 3599.185 -1863.802 3599.185 L -1863.802 3599.185 C -1865.414 3599.185 -1870.741 3597.984 -1877.766 3597.984 L -1877.766 3597.984 C -1881.277 3597.984 -1885.216 3598.284 -1889.323 3599.185 Z " fill="url(#_lgradient_25)"/><clipPath id="_clipPath_nU1LmA5pQARu0QatSsLFELCWj56PkgRo"><path d=" M -2216.102 3538.885 L -1425.673 3538.885 L -1425.673 4099.467 L -2216.102 4099.467 L -2216.102 3538.885 Z " fill="rgb(255,255,255)"/></clipPath><g clip-path="url(#_clipPath_nU1LmA5pQARu0QatSsLFELCWj56PkgRo)"><path d=" M -2087.84 3808.936 C -2086.577 3815.265 -2086.577 3826.881 -2087.84 3833.21 L -2087.84 3808.936 Z " fill-rule="evenodd" fill="rgb(254,254,254)"/><path d=" M -1531.817 3836.237 L -1531.817 3869.63 C -1532.813 3869.883 -1533.002 3870.957 -1534.077 3871.147 C -1555.159 3875.114 -1551.761 3854.237 -1553.041 3836.237 C -1554.859 3811.03 -1565.115 3794.863 -1576.573 3779.344 C -1582.894 3770.779 -1589.595 3761.028 -1598.571 3755.07 C -1621.297 3739.978 -1659.905 3736.169 -1687.308 3724.727 C -1702.336 3718.469 -1716.924 3709.951 -1727.528 3696.66 C -1731.811 3691.287 -1733.312 3686.562 -1737.389 3679.972 C -1744.295 3668.815 -1753.114 3658.716 -1760.905 3647.353 C -1772.031 3631.123 -1783.046 3622.51 -1801.093 3613.976 C -1805.487 3611.906 -1809.485 3609.267 -1813.246 3607.908 C -1837.852 3599.026 -1878.752 3596.45 -1904.259 3601.081 C -1916.348 3603.277 -1929.149 3609.109 -1941.429 3613.976 C -1972.23 3626.208 -1994.307 3646.152 -2014.267 3670.869 C -2020.019 3678.012 -2025.661 3686.151 -2030.197 3695.143 C -2037.403 3709.493 -2046.048 3721.598 -2051.437 3737.623 C -2053.065 3742.506 -2052.954 3747.484 -2054.455 3752.036 C -2055.688 3755.718 -2058.77 3758.974 -2059.781 3762.656 C -2061.267 3768.14 -2061.583 3775.125 -2062.815 3781.62 C -2065.439 3795.527 -2068.046 3819.138 -2065.85 3836.994 C -2065.091 3843.096 -2062.199 3849.322 -2061.298 3855.958 C -2058.485 3876.536 -2052.48 3892.355 -2044.61 3908.301 C -2037.688 3922.319 -2025.124 3937.648 -2012.75 3950.022 C -2000.012 3962.76 -1987.559 3976.319 -1974.063 3984.158 C -1969.037 3987.082 -1963.095 3988.946 -1958.133 3991.742 C -1947.402 3997.812 -1929.971 4009.096 -1911.102 4006.915 C -1906.218 4006.36 -1901.888 4002.68 -1896.689 4001.605 C -1892.248 4000.704 -1887.08 4002.063 -1882.276 4000.862 C -1877.898 3999.756 -1874.343 3995.932 -1870.139 3994.019 C -1866.931 3992.581 -1863.075 3992.407 -1859.519 3990.985 C -1854.651 3989.073 -1850.527 3985.596 -1845.849 3984.158 C -1827.169 3978.421 -1802.751 3971.531 -1778.352 3976.572 C -1774.148 3977.441 -1770.261 3980.743 -1766.215 3981.898 C -1762.564 3982.909 -1758.756 3982.435 -1755.579 3983.415 C -1744.09 3986.908 -1733.818 3993.545 -1722.202 3995.536 C -1700.423 3999.282 -1673.069 3990.527 -1655.464 3984.158 C -1643.485 3979.844 -1635.741 3974.407 -1625.864 3968.228 C -1602.046 3953.309 -1582.894 3937.522 -1568.971 3912.094 C -1566.711 3907.953 -1563.819 3904.682 -1562.16 3901.474 C -1559.284 3895.974 -1560.358 3890.443 -1556.09 3889.337 C -1552.22 3888.355 -1543.749 3893.462 -1542.421 3896.921 C -1540.018 3903.228 -1544.776 3911.62 -1547.747 3917.404 C -1556.803 3935.167 -1562.713 3941.961 -1577.331 3956.091 C -1584.141 3962.697 -1592.092 3969.84 -1599.314 3974.297 C -1615.054 3984.016 -1632.881 3987.888 -1646.345 3997.812 C -1650.184 3998.365 -1650.596 3995.489 -1654.705 3996.295 C -1657.359 4001.224 -1664.693 4001.479 -1669.118 4004.639 C -1675.865 4004.053 -1682.488 4003.454 -1688.825 4004.639 C -1691.417 4005.129 -1693.819 4007.294 -1696.427 4007.672 C -1707.173 4009.27 -1717.24 4004.26 -1728.287 4006.156 C -1732.933 3999.329 -1739.776 3998.65 -1750.285 3998.571 C -1752.638 3996.595 -1755.39 3992.423 -1759.388 3990.985 C -1762.754 3989.784 -1767.827 3991.617 -1771.509 3990.225 C -1774.528 3989.103 -1776.503 3985.643 -1779.095 3984.932 C -1790.916 3981.629 -1802.879 3985.391 -1813.246 3984.932 C -1826.663 3992.344 -1844.758 3991.981 -1859.519 3997.812 C -1861.874 3998.76 -1864.055 4001.147 -1866.33 4002.379 C -1873.047 4005.983 -1880 4007.832 -1884.536 4013.742 C -1895.693 4009.38 -1908.225 4018.309 -1918.687 4019.052 L -1936.893 4019.052 C -1944.02 4017.345 -1949.457 4013.93 -1958.133 4013.742 C -1992.031 3997.543 -2020.904 3974.676 -2043.851 3946.229 C -2047.328 3941.915 -2049.335 3937.585 -2052.195 3933.332 C -2053.713 3931.074 -2056.257 3930.284 -2057.49 3928.04 C -2058.659 3925.922 -2058.327 3922.793 -2059.781 3920.438 C -2061.409 3917.799 -2064.222 3916.155 -2065.85 3913.611 C -2068.536 3909.36 -2071.476 3904.066 -2073.42 3899.198 C -2075.521 3893.983 -2078.682 3887.551 -2080.262 3881.751 C -2083.755 3868.824 -2082.728 3854.996 -2087.848 3841.547 L -2087.848 3833.219 C -2086.584 3826.881 -2086.584 3815.266 -2087.848 3808.929 L -2087.848 3798.309 C -2085.241 3787.768 -2084.34 3770.589 -2081.021 3758.104 C -2080.057 3754.501 -2077.892 3750.772 -2076.454 3746.726 C -2073.514 3738.382 -2071.191 3732.234 -2068.125 3724.727 C -2062.104 3710.062 -2055.814 3694.748 -2048.403 3680.73 C -2037.735 3660.628 -2019.15 3642.438 -2002.888 3627.631 C -1990.261 3616.157 -1974.885 3607.355 -1957.374 3598.805 C -1951.543 3595.976 -1946.343 3591.741 -1941.429 3590.461 C -1936.751 3589.26 -1931.33 3590.034 -1926.257 3588.944 C -1912.255 3585.957 -1899.881 3582.116 -1884.536 3582.116 C -1857.954 3582.116 -1833.174 3583.934 -1812.472 3591.219 C -1804.254 3594.127 -1798.328 3600.085 -1788.956 3601.839 C -1764.428 3621.214 -1749.019 3647.685 -1730.562 3673.145 C -1725.377 3680.288 -1721.031 3689.375 -1714.616 3695.902 C -1711.359 3699.236 -1705.608 3701.86 -1700.978 3705.005 C -1685.41 3715.561 -1666.763 3722.878 -1644.828 3728.52 C -1629.941 3732.36 -1613.632 3733.988 -1600.088 3740.657 C -1593.451 3743.929 -1586.355 3750.914 -1578.848 3755.829 C -1571.103 3760.902 -1563.345 3765.753 -1558.367 3771.759 C -1544.065 3789.032 -1538.123 3812.563 -1531.817 3836.237 Z " fill="rgb(55,53,53)"/><path d=" M -1560.79 3829.255 C -1557.469 3826.254 -1551.181 3826.221 -1551.687 3819.394 C -1557.212 3819.694 -1562.282 3824.462 -1560.79 3829.255 Z " fill-rule="evenodd" fill="rgb(55,53,53)"/><path d=" M -1858.842 4005.018 C -1850.445 4008.833 -1841.031 4006.054 -1837.602 3998.95 C -1833.338 4002.069 -1828.638 3998.923 -1823.948 4000.467 C -1810.654 3990.846 -1792.183 3998.283 -1776.915 3995.157 C -1771.99 3998.577 -1763.106 3998.035 -1759.468 4002.744 C -1754.226 3999.718 -1751.414 4005.02 -1746.574 4006.536 C -1739.813 4005.235 -1734.441 4008.103 -1730.644 4011.846 C -1721.666 4011.48 -1716.024 4014.7 -1707.885 4017.914 C -1705.022 4018.249 -1704.326 4016.419 -1702.575 4015.638 C -1695.645 4021.196 -1682.615 4017.947 -1678.303 4011.846 C -1661.462 4019.787 -1656.892 4001.99 -1638.857 4004.26 C -1632.861 4000.126 -1627.916 3993.558 -1617.615 3995.916 C -1623.758 4007.474 -1633.942 4014.99 -1644.165 4022.465 C -1648.138 4022.391 -1645.905 4016.114 -1649.477 4015.638 C -1661.508 4019.03 -1666.05 4029.914 -1676.785 4034.603 C -1679.107 4034.143 -1680.738 4032.992 -1682.854 4032.327 C -1690.577 4038.536 -1698.687 4048.315 -1707.885 4050.533 C -1705.715 4042.335 -1701.028 4036.659 -1698.024 4029.293 C -1702.093 4027.03 -1704.348 4032.368 -1708.645 4032.327 C -1710.325 4034.691 -1712.252 4036.81 -1713.197 4039.913 C -1723.373 4045.918 -1729.432 4056.042 -1740.504 4061.153 C -1738.991 4048.733 -1725.697 4041.592 -1721.539 4029.293 C -1739.966 4033.13 -1747.792 4054.109 -1767.055 4059.635 C -1767.757 4053.118 -1764.459 4050.599 -1760.228 4049.015 C -1757.292 4040.573 -1750.114 4036.371 -1746.574 4028.534 C -1752.077 4028.901 -1757.887 4033.28 -1762.504 4036.878 C -1767.096 4040.461 -1771.665 4044.526 -1774.641 4049.015 C -1778.582 4051.143 -1782.65 4053.143 -1784.502 4057.36 C -1789.482 4057.587 -1792.698 4063.118 -1796.639 4061.911 C -1791.056 4045.494 -1774.805 4039.748 -1769.329 4023.224 C -1787.883 4027.235 -1798.534 4046.405 -1813.326 4057.36 C -1817.74 4060.628 -1823.769 4064.057 -1829.256 4064.945 C -1827.888 4060.358 -1824.487 4055.424 -1821.67 4052.05 C -1815.384 4044.515 -1807.616 4037.98 -1800.432 4031.568 C -1799.877 4025.798 -1793.768 4025.588 -1793.605 4019.431 C -1804.114 4020.313 -1811.755 4029.131 -1819.396 4035.361 C -1830.927 4044.764 -1841.363 4057.069 -1852.772 4065.704 C -1857.342 4069.163 -1863.374 4073.125 -1869.462 4073.29 C -1861.186 4052.992 -1840.184 4045.42 -1831.533 4025.5 C -1839.715 4023.976 -1845.385 4031.503 -1850.498 4036.12 C -1860.803 4045.43 -1870.622 4054.681 -1881.597 4063.428 C -1886.623 4067.433 -1892.1 4070.704 -1897.527 4074.807 C -1900.75 4077.24 -1902.815 4082.884 -1908.149 4081.634 C -1909.114 4075.611 -1904.565 4075.104 -1901.322 4073.29 C -1897.812 4066.685 -1892.932 4061.45 -1886.909 4057.36 C -1884.118 4049.173 -1875.965 4045.872 -1870.979 4039.913 C -1869.844 4038.558 -1869.802 4036.099 -1868.702 4034.603 C -1866.865 4032.099 -1861.103 4030.879 -1863.393 4026.258 C -1884.485 4039.555 -1902.64 4055.789 -1919.526 4073.29 C -1926.648 4074.579 -1929.738 4083.723 -1937.731 4081.634 C -1937.577 4076.732 -1934.291 4074.962 -1930.906 4073.29 C -1920.676 4061.521 -1909.344 4050.855 -1900.562 4037.637 C -1910.036 4036.815 -1915.028 4046.899 -1923.32 4049.774 C -1931.263 4059.74 -1944.802 4067.711 -1955.937 4075.565 C -1960 4078.43 -1962.753 4082.854 -1970.352 4083.151 C -1967.641 4070.69 -1954.234 4068.925 -1949.112 4058.877 C -1947.212 4058.248 -1946.133 4056.799 -1943.802 4056.601 C -1942.052 4051.523 -1937.496 4049.252 -1935.456 4044.464 C -1941.972 4042.013 -1948.634 4047.762 -1953.663 4051.291 C -1963.913 4058.486 -1974.892 4065.57 -1985.523 4073.29 C -1998.294 4076.973 -2007.077 4088.624 -2021.176 4088.461 C -2010.338 4074.521 -1993.967 4066.108 -1979.454 4055.842 C -1978.824 4053.945 -1977.375 4052.864 -1977.179 4050.533 C -1973.978 4048.674 -1968.277 4049.32 -1968.076 4044.464 C -1972.276 4038.131 -1977.272 4046.297 -1980.971 4048.257 C -1983.291 4049.486 -1986.618 4049.553 -1988.557 4050.533 C -1991.427 4051.985 -1993.181 4054.823 -1996.141 4056.601 C -2002.346 4060.329 -2010.061 4062.802 -2016.624 4066.462 C -2028.249 4072.944 -2042.847 4083.666 -2058.346 4086.944 C -2057.911 4082.968 -2054.496 4078.742 -2051.517 4076.324 C -2041.981 4068.579 -2027.571 4063.286 -2016.624 4055.842 C -2013.998 4054.057 -2012.264 4050.825 -2009.797 4049.015 C -2004.109 4044.843 -1995.77 4043.712 -1993.107 4036.878 C -1998.3 4030.775 -2005.761 4039.111 -2009.039 4042.188 C -2042.343 4051.615 -2062.298 4074.393 -2099.308 4080.117 C -2091.169 4068.466 -2076.823 4064.117 -2064.414 4057.36 C -2053.86 4051.612 -2044.623 4043.097 -2033.311 4039.154 C -2030.38 4035.511 -2026.285 4033.035 -2023.451 4029.293 C -2033.047 4026.408 -2042.899 4032.417 -2050.758 4036.12 C -2060.18 4040.557 -2069.814 4046.779 -2080.344 4050.533 C -2094.55 4055.596 -2105.729 4064.158 -2122.824 4064.187 C -2122.328 4059.12 -2117.511 4058.374 -2112.962 4057.36 C -2094.327 4042.365 -2067.962 4035.1 -2048.484 4020.948 C -2050.309 4015.555 -2056.299 4018.007 -2059.104 4018.673 C -2069.357 4021.105 -2081.148 4028.288 -2090.204 4032.327 C -2099.378 4036.418 -2110.059 4039.178 -2119.79 4042.188 C -2129.837 4045.297 -2139.342 4051.31 -2150.132 4049.774 C -2149.578 4042.917 -2141.968 4044.157 -2137.995 4042.188 C -2134.893 4040.652 -2133.091 4037.506 -2130.41 4036.12 C -2127.543 4034.639 -2123.979 4035.088 -2120.548 4033.844 C -2116.958 4032.543 -2114.299 4029.274 -2110.687 4027.775 C -2105.905 4025.794 -2101.725 4026.145 -2097.791 4023.983 C -2095.895 4022.941 -2094.555 4020.547 -2092.481 4019.431 C -2089.404 4017.777 -2085.515 4017.949 -2082.62 4016.397 C -2080.165 4015.082 -2078.749 4012.347 -2076.551 4011.087 C -2071.984 4008.473 -2066.277 4010.26 -2062.897 4005.777 C -2069.602 3999.62 -2076.706 4005.796 -2081.861 4008.053 C -2086.786 4010.208 -2093.635 4010.066 -2098.55 4011.846 C -2101.249 4012.822 -2103.31 4015.368 -2106.134 4016.397 C -2111.621 4018.396 -2117.925 4017.503 -2122.824 4019.431 C -2126.942 4021.053 -2129.434 4024.961 -2134.202 4025.5 C -2140.965 4026.263 -2146.891 4023.768 -2152.408 4027.775 C -2146.339 4019.72 -2134.743 4015.215 -2123.582 4011.087 C -2119.638 4009.628 -2115.181 4010.15 -2111.445 4008.811 C -2109.061 4007.956 -2107.107 4005.444 -2104.618 4004.26 C -2097.533 4000.894 -2090.76 4001.379 -2087.17 3994.397 C -2082.536 3994.481 -2078.909 3993.558 -2076.551 3991.363 C -2080.055 3985.079 -2091.062 3989.507 -2093.24 3993.64 C -2107.964 3991.943 -2122.629 4000.206 -2134.202 4002.744 C -2138.959 4003.787 -2143.743 4003.062 -2147.855 4004.26 C -2155.107 4006.371 -2164.134 4013.84 -2172.131 4007.294 C -2169.367 4000.617 -2161.573 4002.91 -2156.201 4001.226 C -2152.821 4000.167 -2150.526 3997.041 -2147.096 3995.916 C -2143.196 3994.636 -2138.757 3994.958 -2134.961 3993.64 C -2131.731 3992.519 -2129.128 3989.618 -2125.857 3988.328 C -2113.651 3983.526 -2098.692 3985.078 -2090.204 3975.433 C -2105.832 3964.34 -2125.269 3983.878 -2147.096 3976.951 C -2139.18 3969.445 -2119.665 3973.536 -2117.514 3960.263 C -2127.955 3953.376 -2142.823 3965.491 -2154.684 3959.504 C -2151.333 3952.936 -2141.872 3957.078 -2136.478 3954.953 C -2130.707 3952.679 -2125.722 3947.867 -2118.272 3946.609 C -2112.381 3945.615 -2106.73 3948.097 -2101.584 3943.574 C -2105.555 3936.422 -2122.067 3941.806 -2126.615 3935.23 C -2116.057 3931.63 -2101.872 3931.655 -2090.204 3929.162 C -2086.405 3910.27 -2076.561 3912.652 -2068.205 3926.127 C -2063.657 3933.466 -2058.608 3937.711 -2055.311 3945.091 C -2040.383 3966.069 -2019.235 3980.825 -2000.694 3998.191 C -1993.983 4000.582 -1989.527 4005.232 -1985.523 4010.328 C -1981.883 4010.735 -1980.399 4013.298 -1975.66 4012.604 C -1974.844 4014.57 -1972.918 4015.425 -1972.627 4017.914 C -1969.237 4020.593 -1964.675 4019.502 -1961.249 4020.948 C -1958.393 4022.154 -1956.947 4025.073 -1954.42 4026.258 C -1944.909 4030.718 -1937.526 4027.51 -1924.837 4028.534 C -1917.512 4029.125 -1909.205 4028.416 -1900.562 4026.258 C -1895.487 4022.484 -1888.796 4020.326 -1880.84 4019.431 C -1878.933 4018.557 -1878.452 4016.255 -1877.048 4014.88 C -1869.051 4013.521 -1862.913 4010.303 -1858.842 4005.018 Z " fill-rule="evenodd" fill="rgb(55,53,53)"/><radialGradient id="_rgradient_5" fx="0.5" fy="0.5" cx="0.5" cy="0.5" r="0.5" gradientTransform="matrix(469.309,0,0,348.335,-2056.039,3648.87)" gradientUnits="userSpaceOnUse"><stop offset="0%" stop-opacity="1" style="stop-color:rgb(221,226,107)"/><stop offset="10%" stop-opacity="1" style="stop-color:rgb(200,213,100)"/><stop offset="20%" stop-opacity="1" style="stop-color:rgb(89,148,66)"/><stop offset="30.000000000000004%" stop-opacity="1" style="stop-color:rgb(88,148,66)"/><stop offset="40%" stop-opacity="1" style="stop-color:rgb(87,146,66)"/><stop offset="50%" stop-opacity="1" style="stop-color:rgb(82,142,64)"/><stop offset="60%" stop-opacity="1" style="stop-color:rgb(74,134,60)"/><stop offset="70%" stop-opacity="1" style="stop-color:rgb(61,122,55)"/><stop offset="80%" stop-opacity="1" style="stop-color:rgb(44,105,47)"/><stop offset="89.99999999999999%" stop-opacity="1" style="stop-color:rgb(44,105,47)"/><stop offset="99.99999999999999%" stop-opacity="1" style="stop-color:rgb(44,105,47)"/></radialGradient><path d=" M -1596.373 3919.679 C -1596.373 3919.552 -1591.16 3914.054 -1587.999 3915.886 C -1583.685 3918.416 -1591.555 3929.682 -1594.067 3932.576 C -1598.176 3937.317 -1602.807 3942.325 -1606.963 3945.486 C -1610.865 3948.427 -1616.556 3950.385 -1621.376 3953.814 C -1632.77 3961.953 -1648.321 3973.016 -1662.339 3978.865 C -1665.593 3980.206 -1669.64 3980.254 -1673.733 3981.897 C -1679.61 3984.236 -1684.448 3988.078 -1688.889 3988.709 C -1697.233 3989.911 -1708.358 3992.58 -1716.466 3992.849 C -1717.398 3992.882 -1719.31 3992.17 -1721.349 3991.348 L -1721.507 3992.122 C -1721.08 3992.408 -1731.967 3992.565 -1731.967 3992.833 L -1732.757 3992.596 C -1739.065 3989.957 -1737.167 3987.209 -1738.97 3984.157 C -1741.23 3980.333 -1746.317 3981.614 -1753.383 3981.123 L -1754.71 3979.987 L -1756.417 3980.382 C -1765.978 3967.202 -1786.728 3971.309 -1802.674 3971.261 C -1825.524 3971.216 -1845.264 3977.03 -1863.375 3984.157 C -1871.103 3987.209 -1878.594 3991.618 -1884.615 3993.262 C -1888.044 3994.21 -1892.074 3993.467 -1895.994 3994.019 C -1907.625 3995.711 -1924.029 3999.818 -1938.473 3994.779 C -1941.618 3993.687 -1944.163 3991 -1947.56 3989.469 C -1950.294 3988.25 -1953.692 3988.377 -1955.921 3987.191 C -1959.555 3985.249 -1966.43 3979.811 -1971.076 3976.571 C -1984.809 3967.075 -2001.387 3952.677 -2012.055 3940.16 C -2015.957 3935.561 -2017.586 3929.572 -2021.142 3925.005 C -2022.848 3922.809 -2025.614 3921.86 -2027.21 3919.679 C -2029.77 3916.249 -2032.884 3910.781 -2034.812 3906.783 C -2035.902 3904.509 -2035.902 3901.299 -2037.072 3899.197 C -2038.842 3896.07 -2042.587 3894.678 -2043.899 3890.853 C -2045.242 3887.013 -2044.152 3882.145 -2045.416 3877.957 C -2047.897 3869.898 -2052.164 3862.756 -2053.017 3853.699 C -2053.602 3847.3 -2052.891 3840.236 -2053.776 3833.96 C -2054.25 3830.594 -2055.988 3827.261 -2056.036 3824.101 C -2056.146 3816.924 -2053.57 3808.454 -2053.017 3800.583 C -2052.543 3794.167 -2053.934 3787.561 -2053.017 3781.619 C -2052.354 3777.479 -2048.735 3772.565 -2046.933 3767.206 C -2045.084 3761.675 -2045.052 3755.322 -2043.14 3750.518 C -2042.192 3748.116 -2039.821 3746.347 -2038.589 3743.691 C -2034.638 3735.158 -2032.631 3724.11 -2027.969 3715.624 C -2024.397 3709.114 -2018.74 3702.839 -2015.089 3696.66 C -2006.318 3681.853 -1994.56 3670.742 -1979.436 3659.49 C -1972.656 3654.466 -1971.471 3648.903 -1961.973 3648.87 L -1962.368 3652.41 L -1958.955 3653.421 C -1964.328 3662.714 -1978.156 3669.62 -1986.247 3678.454 C -1990.609 3683.211 -1998.938 3693.847 -1996.125 3696.66 C -1991.399 3701.385 -1979.373 3681.741 -1974.126 3683.007 L -1971.85 3686.041 L -1968.8 3688.315 C -1982.66 3708.607 -2002.999 3726.435 -2005.97 3755.069 C -1998.558 3755.434 -1995.856 3743.833 -1992.332 3741.417 C -1990.767 3740.358 -1985.442 3738.002 -1983.972 3739.141 C -1977.998 3743.85 -1991.684 3760.822 -1994.608 3767.206 C -1996.836 3772.121 -1997.8 3778.538 -1999.143 3783.136 C -2000.803 3788.796 -2003.363 3793.695 -2004.453 3797.551 C -2006.176 3803.586 -2007.235 3814.285 -2002.936 3814.998 C -1998.669 3815.725 -1997.658 3805.008 -1996.125 3802.101 C -1993.912 3797.977 -1986.216 3789.681 -1982.455 3791.481 C -1979.91 3792.715 -1979.879 3802.987 -1980.938 3807.411 C -1982.47 3813.718 -1988.318 3820.259 -1990.04 3827.892 C -1993.596 3843.602 -1997.721 3858.993 -1994.608 3872.663 C -1987.401 3865.664 -1986.453 3853.778 -1980.938 3843.065 C -1979.608 3840.472 -1970.112 3823.137 -1965.766 3825.618 C -1959.587 3829.189 -1968.342 3847.899 -1969.559 3852.182 C -1974.679 3870.024 -1977.872 3891.281 -1976.402 3913.612 C -1967.378 3911.935 -1968.453 3901.491 -1965.766 3891.628 C -1964.897 3888.389 -1961.878 3884.579 -1960.472 3880.233 C -1959.002 3875.747 -1959.271 3871.209 -1957.438 3867.338 C -1955.352 3862.992 -1944.51 3839.997 -1937.715 3845.339 C -1934.365 3847.978 -1938.379 3858.742 -1939.991 3864.303 C -1944.084 3878.479 -1947.734 3886.318 -1949.836 3903.008 C -1950.705 3909.817 -1951.701 3923.6 -1949.078 3925.005 C -1942.835 3928.341 -1940.812 3907.464 -1939.991 3904.525 C -1938.979 3900.983 -1935.882 3893.194 -1933.148 3885.561 C -1930.998 3879.506 -1928.659 3872.679 -1926.321 3867.338 C -1924.535 3863.244 -1915.306 3847.427 -1911.149 3850.665 C -1905.776 3854.854 -1912.161 3869.615 -1913.425 3874.923 C -1914.515 3879.492 -1914.089 3884.706 -1914.958 3889.336 C -1915.906 3894.505 -1918.308 3899.008 -1918.751 3903.008 C -1919.667 3911.524 -1918.119 3920.976 -1918.751 3928.039 C -1919.446 3935.941 -1920.521 3937.932 -1917.992 3945.486 C -1917.36 3947.321 -1917.692 3952.125 -1914.183 3951.54 C -1910.738 3925.937 -1903.959 3888.974 -1894.461 3867.338 C -1893.479 3865.093 -1890.178 3862.154 -1888.392 3858.235 C -1885.69 3852.277 -1885.626 3844.233 -1880.064 3846.115 C -1874.343 3848.027 -1878.42 3863.323 -1879.305 3868.112 C -1883.114 3889.067 -1890.368 3925.054 -1880.822 3945.486 C -1872.873 3922.46 -1873.932 3898.33 -1865.651 3871.146 C -1863.944 3865.568 -1860.989 3849.416 -1855.774 3850.665 C -1850.258 3851.978 -1853.166 3875.619 -1853.498 3883.267 C -1854.098 3896.827 -1854.146 3908.616 -1853.498 3918.922 C -1853.356 3921.338 -1852.534 3940.776 -1848.188 3940.936 C -1844.806 3941.047 -1840.097 3905.93 -1839.101 3900.715 C -1835.308 3881.166 -1833.317 3862.503 -1822.412 3852.182 L -1819.378 3854.442 L -1815.569 3854.442 C -1820.642 3877.025 -1826.679 3918.922 -1811.792 3935.609 C -1809.169 3910.167 -1807.399 3894.094 -1799.64 3872.663 C -1797.964 3868.001 -1791.058 3858.489 -1786.742 3862.786 C -1784.326 3865.22 -1787.186 3876.899 -1787.518 3881.75 C -1788.356 3894.188 -1789.84 3917.341 -1789.035 3924.23 C -1788.735 3926.713 -1787.06 3939.639 -1781.45 3937.886 C -1776.962 3936.494 -1775.776 3902.5 -1773.864 3896.922 C -1772.679 3893.526 -1766.53 3882.62 -1761.711 3884.785 C -1755.862 3887.44 -1762.406 3916.313 -1761.711 3924.23 C -1761.393 3927.928 -1759.91 3931.689 -1758.677 3935.609 C -1758.582 3935.941 -1757.476 3945.598 -1753.383 3943.969 C -1750.457 3942.799 -1751.834 3934.518 -1751.107 3931.059 C -1750.394 3927.786 -1746.492 3914.007 -1742.747 3905.266 C -1741.167 3901.554 -1735.981 3893.745 -1732.143 3894.648 C -1723.688 3896.653 -1731.021 3911.208 -1732.143 3921.196 C -1732.947 3928.497 -1732.996 3948.283 -1726.074 3947.746 C -1717.983 3947.129 -1723.212 3930.79 -1719.231 3920.439 C -1717.714 3916.455 -1709.842 3905.947 -1707.11 3906.783 C -1703.379 3907.938 -1704.706 3918.889 -1704.818 3922.713 C -1704.992 3928.277 -1706.304 3956.943 -1701.041 3959.124 C -1694.641 3961.797 -1696.141 3947.178 -1694.214 3938.643 C -1693.614 3936.004 -1687.956 3919.284 -1683.594 3919.679 C -1673.844 3920.595 -1684.351 3952.504 -1674.474 3953.814 C -1667.236 3954.794 -1669.324 3935.737 -1664.63 3928.782 L -1661.359 3930.236 L -1658.562 3928.039 C -1655.59 3932.292 -1656.855 3942.989 -1652.476 3942.453 C -1647.167 3941.789 -1651.954 3919.728 -1644.149 3918.162 C -1632.754 3915.903 -1637.1 3940.381 -1628.962 3939.403 C -1620.696 3938.423 -1629.673 3911.967 -1619.859 3909.817 C -1610.693 3907.826 -1611.07 3921.417 -1605.446 3922.713 C -1602.522 3923.41 -1599.504 3921.275 -1596.373 3919.679 Z " fill="url(#_rgradient_5)"/><path d=" M -1866.014 3995.157 C -1857.417 3991.506 -1849.167 3987.049 -1840.222 3984.157" fill="none" vector-effect="non-scaling-stroke" stroke-width="0.65" stroke="rgb(55,53,53)" stroke-linejoin="miter" stroke-linecap="square" stroke-miterlimit="3"/><path d=" M -1731.952 3992.849 C -1731.968 3992.849 -1731.968 3992.834 -1731.968 3992.834 C -1731.968 3992.565 -1721.079 3992.408 -1721.508 3992.122" fill="none" vector-effect="non-scaling-stroke" stroke-width="0.65" stroke="rgb(55,53,53)" stroke-linejoin="miter" stroke-linecap="square" stroke-miterlimit="3"/><path d=" M -1732.758 3992.596 C -1739.064 3989.957 -1737.167 3987.209 -1738.97 3984.157 C -1741.229 3980.333 -1746.317 3981.614 -1753.383 3981.123" fill="none" vector-effect="non-scaling-stroke" stroke-width="0.65" stroke="rgb(55,53,53)" stroke-linejoin="miter" stroke-linecap="square" stroke-miterlimit="3"/><line x1="-1753.383" y1="3981.123" x2="-1754.71" y2="3979.985" vector-effect="non-scaling-stroke" stroke-width="0.65" stroke="rgb(55,53,53)" stroke-linejoin="miter" stroke-linecap="square" stroke-miterlimit="3"/><line x1="-1754.71" y1="3979.986" x2="-1756.417" y2="3980.381" vector-effect="non-scaling-stroke" stroke-width="0.65" stroke="rgb(55,53,53)" stroke-linejoin="miter" stroke-linecap="square" stroke-miterlimit="3"/><path d=" M -1756.417 3980.381 C -1765.978 3967.201 -1786.728 3971.31 -1802.674 3971.261 C -1825.524 3971.215 -1845.264 3977.031 -1863.375 3984.158 C -1871.103 3987.208 -1878.594 3991.617 -1884.615 3993.261 C -1888.044 3994.209 -1892.074 3993.466 -1895.994 3994.019 C -1907.625 3995.71 -1924.029 3999.819 -1938.473 3994.778 C -1941.618 3993.687 -1944.163 3991.001 -1947.56 3989.468 C -1950.294 3988.249 -1953.692 3988.377 -1955.921 3987.192 C -1959.555 3985.248 -1966.43 3979.812 -1971.076 3976.572 C -1984.809 3967.074 -2001.387 3952.677 -2012.055 3940.161 C -2015.957 3935.562 -2017.586 3929.573 -2021.142 3925.005 C -2022.848 3922.809 -2025.614 3921.86 -2027.21 3919.68 C -2029.77 3916.25 -2032.884 3910.782 -2034.812 3906.784 C -2035.902 3904.508 -2035.902 3901.3 -2037.072 3899.198 C -2038.842 3896.069 -2042.587 3894.678 -2043.899 3890.854 C -2045.242 3887.014 -2044.152 3882.146 -2045.416 3877.957 C -2047.897 3869.898 -2052.164 3862.755 -2053.017 3853.7 C -2053.602 3847.299 -2052.891 3840.235 -2053.776 3833.961 C -2054.25 3830.595 -2055.988 3827.261 -2056.036 3824.1 C -2056.146 3816.925 -2053.57 3808.454 -2053.017 3800.584 C -2052.543 3794.168 -2053.934 3787.562 -2053.017 3781.62 C -2052.354 3777.48 -2048.735 3772.565 -2046.933 3767.207 C -2045.084 3761.676 -2045.052 3755.323 -2043.14 3750.519 C -2042.192 3748.117 -2039.821 3746.347 -2038.589 3743.692 C -2034.638 3735.158 -2032.631 3724.111 -2027.969 3715.625 C -2024.397 3709.113 -2018.74 3702.84 -2015.089 3696.66 C -2006.318 3681.852 -1994.56 3670.743 -1979.436 3659.49 C -1972.656 3654.465 -1971.471 3648.902 -1961.973 3648.87" fill="none" vector-effect="non-scaling-stroke" stroke-width="0.65" stroke="rgb(55,53,53)" stroke-linejoin="miter" stroke-linecap="square" stroke-miterlimit="3"/><line x1="-1961.973" y1="3648.87" x2="-1962.368" y2="3652.41" vector-effect="non-scaling-stroke" stroke-width="0.65" stroke="rgb(55,53,53)" stroke-linejoin="miter" stroke-linecap="square" stroke-miterlimit="3"/><line x1="-1962.368" y1="3652.41" x2="-1958.955" y2="3653.421" vector-effect="non-scaling-stroke" stroke-width="0.65" stroke="rgb(55,53,53)" stroke-linejoin="miter" stroke-linecap="square" stroke-miterlimit="3"/><path d=" M -1958.954 3653.422 C -1964.328 3662.714 -1978.156 3669.62 -1986.247 3678.455 C -1990.609 3683.211 -1998.937 3693.847 -1996.124 3696.66 C -1991.399 3701.385 -1979.372 3681.742 -1974.126 3683.006" fill="none" vector-effect="non-scaling-stroke" stroke-width="0.65" stroke="rgb(55,53,53)" stroke-linejoin="miter" stroke-linecap="square" stroke-miterlimit="3"/><line x1="-1974.126" y1="3683.006" x2="-1971.85" y2="3686.041" vector-effect="non-scaling-stroke" stroke-width="0.65" stroke="rgb(55,53,53)" stroke-linejoin="miter" stroke-linecap="square" stroke-miterlimit="3"/><path d=" M -1971.85 3686.04 C -1971.329 3685.708 -1970.855 3685.313 -1970.459 3684.871" fill="none" vector-effect="non-scaling-stroke" stroke-width="0.65" stroke="rgb(55,53,53)" stroke-linejoin="miter" stroke-linecap="square" stroke-miterlimit="3"/><line x1="-1971.85" y1="3686.04" x2="-1968.8" y2="3688.316" vector-effect="non-scaling-stroke" stroke-width="0.65" stroke="rgb(55,53,53)" stroke-linejoin="miter" stroke-linecap="square" stroke-miterlimit="3"/><path d=" M -1968.8 3688.316 C -1982.659 3708.608 -2002.999 3726.434 -2005.97 3755.07 C -1998.558 3755.433 -1995.855 3743.834 -1992.331 3741.416 C -1990.767 3740.357 -1985.441 3738.002 -1983.971 3739.14 C -1977.997 3743.849 -1991.683 3760.822 -1994.607 3767.207 C -1996.835 3772.122 -1997.799 3778.538 -1999.143 3783.137 C -2000.802 3788.795 -2003.362 3793.694 -2004.453 3797.55 C -2006.175 3803.587 -2007.234 3814.286 -2002.935 3814.997 C -1998.668 3815.724 -1997.657 3805.009 -1996.124 3802.101 C -1993.912 3797.977 -1986.215 3789.68 -1982.454 3791.481 C -1979.91 3792.714 -1979.878 3802.986 -1980.937 3807.411 C -1982.47 3813.717 -1988.317 3820.259 -1990.04 3827.893 C -1993.596 3843.601 -1997.72 3858.994 -1994.607 3872.664 C -1987.401 3865.663 -1986.452 3853.779 -1980.937 3843.064 C -1979.609 3840.472 -1970.111 3823.136 -1965.766 3825.617 C -1959.586 3829.188 -1968.341 3847.9 -1969.558 3852.183 C -1974.679 3870.025 -1977.871 3891.28 -1976.401 3913.611 C -1967.377 3911.936 -1968.452 3901.49 -1965.766 3891.628 C -1964.896 3888.388 -1961.878 3884.58 -1960.471 3880.234 C -1959.002 3875.746 -1959.27 3871.21 -1957.437 3867.338 C -1955.351 3862.992 -1944.51 3839.998 -1937.714 3845.34 C -1934.364 3847.979 -1938.378 3858.741 -1939.99 3864.304 C -1944.083 3878.48 -1947.734 3886.318 -1949.836 3903.007 C -1950.705 3909.818 -1951.7 3923.599 -1949.077 3925.005 C -1942.835 3928.34 -1940.812 3907.463 -1939.99 3904.524 C -1938.979 3900.984 -1935.881 3893.193 -1933.147 3885.56 C -1930.998 3879.507 -1928.659 3872.68 -1926.32 3867.338 C -1924.534 3863.245 -1915.305 3847.426 -1911.149 3850.665 C -1905.775 3854.853 -1912.16 3869.614 -1913.424 3874.924 C -1914.515 3879.491 -1914.088 3884.706 -1914.957 3889.337 C -1915.905 3894.504 -1918.308 3899.008 -1918.75 3903.007 C -1919.667 3911.525 -1918.118 3920.975 -1918.75 3928.039 C -1919.445 3935.941 -1920.52 3937.932 -1917.991 3945.487 C -1917.359 3947.32 -1917.691 3952.124 -1914.183 3951.539 C -1910.738 3925.938 -1903.958 3888.973 -1894.46 3867.338 C -1893.48 3865.094 -1890.177 3862.155 -1888.391 3858.235 C -1885.689 3852.277 -1885.626 3844.233 -1880.063 3846.114 C -1874.342 3848.026 -1878.419 3863.324 -1879.304 3868.113 C -1883.113 3889.068 -1890.367 3925.053 -1880.822 3945.487 C -1872.872 3922.461 -1873.931 3898.329 -1865.65 3871.147 C -1863.943 3865.568 -1860.988 3849.417 -1855.773 3850.665 C -1850.258 3851.977 -1853.165 3875.619 -1853.497 3883.268 C -1854.098 3896.828 -1854.145 3908.617 -1853.497 3918.921 C -1853.355 3921.339 -1852.533 3940.777 -1848.187 3940.935 C -1844.805 3941.046 -1840.096 3905.93 -1839.1 3900.715 C -1835.307 3881.166 -1833.316 3862.502 -1822.412 3852.183" fill="none" vector-effect="non-scaling-stroke" stroke-width="0.65" stroke="rgb(55,53,53)" stroke-linejoin="miter" stroke-linecap="square" stroke-miterlimit="3"/><line x1="-1822.412" y1="3852.183" x2="-1819.378" y2="3854.442" vector-effect="non-scaling-stroke" stroke-width="0.65" stroke="rgb(55,53,53)" stroke-linejoin="miter" stroke-linecap="square" stroke-miterlimit="3"/><path d=" M -1819.378 3854.442 C -1819.125 3853.48 -1818.983 3852.816 -1818.886 3852.547" fill="none" vector-effect="non-scaling-stroke" stroke-width="0.65" stroke="rgb(55,53,53)" stroke-linejoin="miter" stroke-linecap="square" stroke-miterlimit="3"/><line x1="-1819.378" y1="3854.442" x2="-1815.569" y2="3854.442" vector-effect="non-scaling-stroke" stroke-width="0.65" stroke="rgb(55,53,53)" stroke-linejoin="miter" stroke-linecap="square" stroke-miterlimit="3"/><path d=" M -1815.569 3854.442 C -1820.642 3877.025 -1826.679 3918.922 -1811.792 3935.609 C -1809.169 3910.167 -1807.399 3894.095 -1799.639 3872.663 C -1797.964 3868.001 -1791.058 3858.489 -1786.743 3862.786 C -1784.325 3865.22 -1787.186 3876.899 -1787.518 3881.75 C -1788.355 3894.188 -1789.841 3917.342 -1789.035 3924.23 C -1788.736 3926.712 -1787.059 3939.639 -1781.449 3937.886 C -1776.961 3936.494 -1775.776 3902.501 -1773.864 3896.922 C -1772.678 3893.524 -1766.531 3882.62 -1761.711 3884.785 C -1755.863 3887.44 -1762.406 3916.313 -1761.711 3924.23 C -1761.395 3927.928 -1759.909 3931.69 -1758.676 3935.609 C -1758.582 3935.941 -1757.475 3945.598 -1753.382 3943.969 C -1750.459 3942.799 -1751.833 3934.518 -1751.106 3931.057 C -1750.395 3927.786 -1746.492 3914.005 -1742.746 3905.266 C -1741.166 3901.554 -1735.983 3893.745 -1732.142 3894.646 C -1723.687 3896.653 -1731.02 3911.208 -1732.142 3921.196 C -1732.948 3928.497 -1732.996 3948.283 -1726.074 3947.746 C -1717.982 3947.13 -1723.213 3930.79 -1719.231 3920.439 C -1717.714 3916.455 -1709.843 3905.947 -1707.11 3906.783 C -1703.38 3907.938 -1704.707 3918.889 -1704.818 3922.713 C -1704.992 3928.278 -1706.304 3956.944 -1701.041 3959.125 C -1694.641 3961.797 -1696.142 3947.179 -1694.214 3938.643 C -1693.613 3936.004 -1687.956 3919.284 -1683.594 3919.679 C -1673.843 3920.596 -1684.352 3952.504 -1674.475 3953.815 C -1667.237 3954.794 -1669.323 3935.735 -1664.63 3928.782" fill="none" vector-effect="non-scaling-stroke" stroke-width="0.65" stroke="rgb(55,53,53)" stroke-linejoin="miter" stroke-linecap="square" stroke-miterlimit="3"/><line x1="-1664.63" y1="3928.782" x2="-1661.359" y2="3930.236" vector-effect="non-scaling-stroke" stroke-width="0.65" stroke="rgb(55,53,53)" stroke-linejoin="miter" stroke-linecap="square" stroke-miterlimit="3"/><path d=" M -1661.358 3930.236 C -1661.421 3929.542 -1661.295 3929.004 -1661.216 3928.404" fill="none" vector-effect="non-scaling-stroke" stroke-width="0.65" stroke="rgb(55,53,53)" stroke-linejoin="miter" stroke-linecap="square" stroke-miterlimit="3"/><line x1="-1661.358" y1="3930.236" x2="-1658.561" y2="3928.039" vector-effect="non-scaling-stroke" stroke-width="0.65" stroke="rgb(55,53,53)" stroke-linejoin="miter" stroke-linecap="square" stroke-miterlimit="3"/><path d=" M -1596.358 3919.679 L -1596.374 3919.679 C -1596.374 3919.553 -1591.159 3914.053 -1587.998 3915.887 C -1583.684 3918.415 -1591.554 3929.683 -1594.067 3932.575 C -1598.176 3937.316 -1602.806 3942.326 -1606.963 3945.487 C -1610.866 3948.426 -1616.555 3950.386 -1621.375 3953.815 C -1632.77 3961.954 -1648.32 3973.016 -1662.338 3978.864 C -1665.594 3980.207 -1669.639 3980.254 -1673.732 3981.898 C -1679.611 3984.237 -1684.447 3988.077 -1688.888 3988.709 C -1697.232 3989.91 -1708.358 3992.581 -1716.465 3992.85 C -1717.398 3992.881 -1719.31 3992.17 -1721.348 3991.348 C -1725.631 3989.643 -1730.515 3987.54 -1728.318 3991.111" fill="none" vector-effect="non-scaling-stroke" stroke-width="0.65" stroke="rgb(55,53,53)" stroke-linejoin="miter" stroke-linecap="square" stroke-miterlimit="3"/><path d=" M -1658.562 3928.039 C -1655.591 3932.291 -1656.855 3942.99 -1652.476 3942.452 C -1647.167 3941.789 -1651.954 3919.727 -1644.149 3918.162 C -1632.755 3915.902 -1637.101 3940.382 -1628.962 3939.402 C -1620.696 3938.422 -1629.673 3911.967 -1619.859 3909.818 C -1610.693 3907.827 -1611.071 3921.418 -1605.446 3922.714 C -1602.522 3923.409 -1599.504 3921.276 -1596.373 3919.679" fill="none" vector-effect="non-scaling-stroke" stroke-width="0.65" stroke="rgb(55,53,53)" stroke-linejoin="miter" stroke-linecap="square" stroke-miterlimit="3"/><path d=" M -1612.986 3849.954 C -1611.829 3849.967 -1611.325 3855.575 -1613.745 3854.505 C -1614.295 3852.187 -1612.97 3851.741 -1612.986 3849.954 Z " fill-rule="evenodd" fill="rgb(254,254,254)"/><path d=" M -1600.849 3853.747 C -1601.208 3855.933 -1604.137 3857.825 -1606.161 3856.022 C -1604.522 3855.13 -1602.676 3854.448 -1600.849 3853.747 Z " fill-rule="evenodd" fill="rgb(254,254,254)"/><path d=" M -1603.127 3865.884 C -1605.479 3865.706 -1610.572 3867.115 -1608.436 3871.192 C -1613.017 3868.553 -1606.184 3861.11 -1603.127 3865.884 Z " fill-rule="evenodd" fill="rgb(254,254,254)"/></g><linearGradient id="_lgradient_26" x1="0.000013965237904756123" y1="0.4999901228089154" x2="0.9999948773361851" y2="0.4999901228089154" gradientTransform="matrix(45.782,0,0,66.874,-1622.358,3824.983)" gradientUnits="userSpaceOnUse"><stop offset="0%" stop-opacity="1" style="stop-color:rgb(150,190,64)"/><stop offset="10%" stop-opacity="1" style="stop-color:rgb(94,99,82)"/><stop offset="20%" stop-opacity="1" style="stop-color:rgb(55,58,60)"/><stop offset="30.000000000000004%" stop-opacity="1" style="stop-color:rgb(44,47,53)"/><stop offset="40%" stop-opacity="1" style="stop-color:rgb(43,46,52)"/><stop offset="50%" stop-opacity="1" style="stop-color:rgb(54,56,59)"/><stop offset="60%" stop-opacity="1" style="stop-color:rgb(90,92,79)"/><stop offset="70%" stop-opacity="1" style="stop-color:rgb(121,126,90)"/><stop offset="80%" stop-opacity="1" style="stop-color:rgb(148,157,91)"/><stop offset="89.99999999999999%" stop-opacity="1" style="stop-color:rgb(171,186,83)"/><stop offset="99.99999999999999%" stop-opacity="1" style="stop-color:rgb(189,213,66)"/></linearGradient><path d=" M -1606.919 3830.296 C -1609.686 3839.413 -1620.304 3844.72 -1620.573 3853.81 L -1620.573 3853.81 C -1620.205 3852.915 -1619.764 3852.09 -1619.058 3851.536 L -1619.058 3851.536 C -1620.997 3855.411 -1618.116 3864.107 -1622.092 3865.945 L -1622.092 3865.945 C -1620.598 3863.899 -1621.638 3859.319 -1621.332 3856.085 L -1621.332 3856.085 C -1623.046 3853.652 -1621.675 3861.035 -1622.092 3863.671 L -1622.092 3863.671 C -1623.805 3874.595 -1617.156 3893.532 -1604.643 3891.738 L -1604.643 3891.738 C -1600.596 3887.583 -1604.066 3881.369 -1602.367 3877.325 L -1602.367 3877.325 C -1599.733 3878.231 -1596.904 3878.94 -1594.782 3880.361 L -1594.782 3880.361 C -1596.165 3877.425 -1603.091 3876.048 -1600.849 3872.014 L -1600.849 3872.014 C -1599.875 3875.592 -1596.809 3877.076 -1593.265 3878.086 L -1593.265 3878.086 C -1597.923 3872.369 -1603.418 3858.557 -1594.025 3856.085 L -1594.025 3856.085 C -1591.311 3855.373 -1589.518 3856.413 -1587.751 3857.454 L -1587.751 3857.454 C -1585.712 3858.652 -1583.71 3859.851 -1580.369 3858.363 L -1580.369 3858.363 C -1582.545 3856.997 -1584.603 3855.513 -1586.437 3853.81 L -1586.437 3853.81 C -1584.825 3853.783 -1583.465 3854.695 -1582.172 3855.608 L -1582.172 3855.608 C -1580.353 3856.893 -1578.664 3858.178 -1576.576 3856.842 L -1576.576 3856.842 C -1585.018 3853.827 -1595.18 3844.878 -1603.885 3853.051 L -1603.885 3853.051 C -1604.877 3843.432 -1590.047 3833.586 -1594.782 3824.983 L -1594.782 3824.983 C -1600.12 3825.458 -1603.02 3828.379 -1606.919 3830.296 Z " fill="url(#_lgradient_26)"/><linearGradient id="_lgradient_27" x1="0.000013965237904756123" y1="0.4999901228089154" x2="0.9999948773361851" y2="0.4999901228089154" gradientTransform="matrix(45.782,0,0,66.874,-1622.358,3826.563)" gradientUnits="userSpaceOnUse"><stop offset="0%" stop-opacity="1" style="stop-color:rgb(150,190,64)"/><stop offset="10%" stop-opacity="1" style="stop-color:rgb(94,99,82)"/><stop offset="20%" stop-opacity="1" style="stop-color:rgb(55,58,60)"/><stop offset="30.000000000000004%" stop-opacity="1" style="stop-color:rgb(44,47,53)"/><stop offset="40%" stop-opacity="1" style="stop-color:rgb(43,46,52)"/><stop offset="50%" stop-opacity="1" style="stop-color:rgb(54,56,59)"/><stop offset="60%" stop-opacity="1" style="stop-color:rgb(90,92,79)"/><stop offset="70%" stop-opacity="1" style="stop-color:rgb(121,126,90)"/><stop offset="80%" stop-opacity="1" style="stop-color:rgb(148,157,91)"/><stop offset="89.99999999999999%" stop-opacity="1" style="stop-color:rgb(171,186,83)"/><stop offset="99.99999999999999%" stop-opacity="1" style="stop-color:rgb(189,213,66)"/></linearGradient><path d=" M -1606.919 3831.876 C -1609.686 3840.995 -1620.304 3846.3 -1620.573 3855.39 L -1620.573 3855.39 C -1620.205 3854.496 -1619.764 3853.671 -1619.058 3853.116 L -1619.058 3853.116 C -1620.997 3856.991 -1618.116 3865.688 -1622.092 3867.526 L -1622.092 3867.526 C -1620.598 3865.479 -1621.638 3860.899 -1621.332 3857.666 L -1621.332 3857.666 C -1623.046 3855.232 -1621.675 3862.615 -1622.092 3865.251 L -1622.092 3865.251 C -1623.805 3876.175 -1617.156 3895.112 -1604.643 3893.319 L -1604.643 3893.319 C -1600.596 3889.164 -1604.066 3882.95 -1602.367 3878.906 L -1602.367 3878.906 C -1599.733 3879.811 -1596.904 3880.521 -1594.782 3881.942 L -1594.782 3881.942 C -1596.165 3879.005 -1603.091 3877.629 -1600.849 3873.596 L -1600.849 3873.596 C -1599.875 3877.172 -1596.809 3878.658 -1593.265 3879.666 L -1593.265 3879.666 C -1597.923 3873.95 -1603.418 3860.137 -1594.025 3857.666 L -1594.025 3857.666 C -1591.31 3856.953 -1589.516 3857.993 -1587.749 3859.033 L -1587.749 3859.033 C -1585.712 3860.232 -1583.71 3861.432 -1580.369 3859.943 L -1580.369 3859.943 C -1582.545 3858.578 -1584.603 3857.094 -1586.437 3855.39 L -1586.437 3855.39 C -1584.825 3855.363 -1583.465 3856.275 -1582.172 3857.189 L -1582.172 3857.189 C -1580.353 3858.473 -1578.664 3859.757 -1576.576 3858.423 L -1576.576 3858.423 C -1585.018 3855.407 -1595.18 3846.458 -1603.885 3854.631 L -1603.885 3854.631 C -1604.877 3845.012 -1590.047 3835.166 -1594.782 3826.563 L -1594.782 3826.563 C -1600.12 3827.039 -1603.02 3829.959 -1606.919 3831.876 Z " fill="url(#_lgradient_27)"/><linearGradient id="_lgradient_28" x1="0.000013965237904756123" y1="0.4999915666276431" x2="0.9999948773361851" y2="0.4999915666276431" gradientTransform="matrix(45.782,0,0,66.874,-1620.777,3823.402)" gradientUnits="userSpaceOnUse"><stop offset="0%" stop-opacity="1" style="stop-color:rgb(150,190,64)"/><stop offset="10%" stop-opacity="1" style="stop-color:rgb(94,99,82)"/><stop offset="20%" stop-opacity="1" style="stop-color:rgb(55,58,60)"/><stop offset="30.000000000000004%" stop-opacity="1" style="stop-color:rgb(44,47,53)"/><stop offset="40%" stop-opacity="1" style="stop-color:rgb(43,46,52)"/><stop offset="50%" stop-opacity="1" style="stop-color:rgb(54,56,59)"/><stop offset="60%" stop-opacity="1" style="stop-color:rgb(90,92,79)"/><stop offset="70%" stop-opacity="1" style="stop-color:rgb(121,126,90)"/><stop offset="80%" stop-opacity="1" style="stop-color:rgb(148,157,91)"/><stop offset="89.99999999999999%" stop-opacity="1" style="stop-color:rgb(171,186,83)"/><stop offset="99.99999999999999%" stop-opacity="1" style="stop-color:rgb(189,213,66)"/></linearGradient><path d=" M -1605.338 3828.715 C -1608.106 3837.832 -1618.724 3843.139 -1618.993 3852.229 L -1618.993 3852.229 C -1618.624 3851.335 -1618.184 3850.51 -1617.477 3849.954 L -1617.477 3849.954 C -1619.416 3853.83 -1616.535 3862.525 -1620.511 3864.365 L -1620.511 3864.365 C -1619.018 3862.318 -1620.058 3857.738 -1619.751 3854.505 L -1619.751 3854.505 C -1621.466 3852.071 -1620.094 3859.455 -1620.511 3862.091 L -1620.511 3862.091 C -1622.225 3873.014 -1615.576 3891.95 -1603.063 3890.158 L -1603.063 3890.158 C -1599.015 3886.003 -1602.486 3879.789 -1600.787 3875.745 L -1600.787 3875.745 C -1598.153 3876.651 -1595.325 3877.36 -1593.201 3878.779 L -1593.201 3878.779 C -1594.584 3875.845 -1601.511 3874.468 -1599.268 3870.433 L -1599.268 3870.433 C -1598.293 3874.011 -1595.229 3875.495 -1591.686 3876.505 L -1591.686 3876.505 C -1596.343 3870.789 -1601.838 3856.977 -1592.444 3854.505 L -1592.444 3854.505 C -1589.731 3853.792 -1587.937 3854.832 -1586.17 3855.874 L -1586.17 3855.874 C -1584.133 3857.072 -1582.129 3858.271 -1578.789 3856.782 L -1578.789 3856.782 C -1580.965 3855.417 -1583.022 3853.933 -1584.859 3852.229 L -1584.859 3852.229 C -1583.245 3852.202 -1581.884 3853.116 -1580.592 3854.028 L -1580.592 3854.028 C -1578.773 3855.313 -1577.083 3856.597 -1574.996 3855.264 L -1574.996 3855.264 C -1583.438 3852.247 -1593.6 3843.296 -1602.304 3851.471 L -1602.304 3851.471 C -1603.297 3841.851 -1588.467 3832.006 -1593.201 3823.402 L -1593.201 3823.402 C -1598.54 3823.878 -1601.44 3826.798 -1605.338 3828.715 Z " fill="url(#_lgradient_28)"/><clipPath id="_clipPath_RKlCfcIethAU6niu9Hb6OKs7TkShlOV3"><path d=" M -2217.682 3538.885 L -1427.253 3538.885 L -1427.253 4099.467 L -2217.682 4099.467 L -2217.682 3538.885 Z " fill="rgb(255,255,255)"/></clipPath><g clip-path="url(#_clipPath_RKlCfcIethAU6niu9Hb6OKs7TkShlOV3)"><path d=" M -1577.397 3856.782 C -1573.767 3854.694 -1570.264 3859.239 -1567.536 3860.574 C -1567.557 3861.85 -1573.622 3856.739 -1577.397 3856.782 Z " fill-rule="evenodd" fill="rgb(55,53,53)"/><path d=" M -1592.571 3881.055 C -1587.471 3883.836 -1570.604 3889.383 -1566.78 3890.916 C -1576.943 3889.197 -1585.298 3885.669 -1592.571 3881.055 Z " fill-rule="evenodd" fill="rgb(55,53,53)"/><linearGradient id="_lgradient_29" x1="0" y1="0.5000101517462905" x2="1.0000001415511444" y2="0.5000101517462905" gradientTransform="matrix(130.572,0,0,40.05,-1599.962,3856.54)" gradientUnits="userSpaceOnUse"><stop offset="0%" stop-opacity="1" style="stop-color:rgb(55,55,23)"/><stop offset="10%" stop-opacity="1" style="stop-color:rgb(62,60,25)"/><stop offset="20%" stop-opacity="1" style="stop-color:rgb(131,116,39)"/><stop offset="30.000000000000004%" stop-opacity="1" style="stop-color:rgb(135,112,38)"/><stop offset="40%" stop-opacity="1" style="stop-color:rgb(139,109,37)"/><stop offset="50%" stop-opacity="1" style="stop-color:rgb(143,105,36)"/><stop offset="60%" stop-opacity="1" style="stop-color:rgb(147,102,35)"/><stop offset="70%" stop-opacity="1" style="stop-color:rgb(151,98,34)"/><stop offset="80%" stop-opacity="1" style="stop-color:rgb(155,94,33)"/><stop offset="89.99999999999999%" stop-opacity="1" style="stop-color:rgb(159,90,32)"/><stop offset="99.99999999999999%" stop-opacity="1" style="stop-color:rgb(163,85,31)"/></linearGradient><path d=" M -1535.484 3893.887 C -1541.252 3896.321 -1540.968 3894.267 -1544.158 3896.59 C -1546.894 3893.808 -1547.319 3892.639 -1553.358 3891.849 C -1557.275 3891.471 -1559.63 3889.101 -1561.275 3886.302 C -1578.58 3883.884 -1593.53 3879.111 -1599.962 3865.82 L -1599.962 3863.546 L -1599.204 3863.546 C -1599.204 3858.788 -1597.306 3857.367 -1593.894 3856.719 C -1582.229 3854.489 -1567.849 3873.961 -1553.689 3866.581 C -1553.61 3866.405 -1552.188 3863.134 -1549.343 3864.684 C -1545.012 3867.055 -1536.525 3868.351 -1533.208 3869.615 C -1529.953 3870.846 -1529.145 3873.708 -1527.139 3874.166 C -1508.776 3878.463 -1490.444 3861.411 -1476.315 3858.993 C -1471.638 3860.528 -1474.182 3865.836 -1473.281 3870.372 C -1472.349 3875.097 -1468.76 3879.569 -1469.487 3883.267 C -1471.559 3893.793 -1491.661 3894.442 -1504.382 3895.405 C -1516.565 3896.339 -1529.447 3891.345 -1535.484 3893.887 Z " fill="url(#_lgradient_29)"/></g></g></g><path d=" M -342.482 4167.414 L -342.482 4167.414 L -342.482 4167.414 Q -393.687 4167.414 -421.776 4205.891 L -421.776 4205.891 L -421.776 4205.891 Q -449.866 4244.368 -449.866 4313.129 L -449.866 4313.129 L -449.866 4313.129 Q -449.866 4456.21 -342.482 4456.21 L -342.482 4456.21 L -342.482 4456.21 Q -297.421 4456.21 -233.342 4433.68 L -233.342 4433.68 L -233.342 4509.756 L -233.342 4509.756 Q -286.01 4531.701 -350.967 4531.701 L -350.967 4531.701 L -350.967 4531.701 Q -444.306 4531.701 -493.756 4475.083 L -493.756 4475.083 L -493.756 4475.083 Q -543.205 4418.465 -543.205 4312.543 L -543.205 4312.543 L -543.205 4312.543 Q -543.205 4245.831 -518.919 4195.65 L -518.919 4195.65 L -518.919 4195.65 Q -494.634 4145.469 -449.134 4118.696 L -449.134 4118.696 L -449.134 4118.696 Q -403.635 4091.923 -342.482 4091.923 L -342.482 4091.923 L -342.482 4091.923 Q -280.158 4091.923 -217.249 4122.061 L -217.249 4122.061 L -246.509 4195.796 L -246.509 4195.796 Q -270.502 4184.385 -294.788 4175.899 L -294.788 4175.899 L -294.788 4175.899 Q -319.074 4167.414 -342.482 4167.414 Z  M 265.911 4311.373 L 265.911 4311.373 L 265.911 4311.373 Q 265.911 4417.587 213.243 4474.644 L 213.243 4474.644 L 213.243 4474.644 Q 160.575 4531.701 62.262 4531.701 L 62.262 4531.701 L 62.262 4531.701 Q -36.052 4531.701 -88.72 4474.644 L -88.72 4474.644 L -88.72 4474.644 Q -141.388 4417.587 -141.388 4310.788 L -141.388 4310.788 L -141.388 4310.788 Q -141.388 4203.989 -88.573 4147.663 L -88.573 4147.663 L -88.573 4147.663 Q -35.759 4091.338 62.847 4091.338 L 62.847 4091.338 L 62.847 4091.338 Q 161.453 4091.338 213.682 4148.102 L 213.682 4148.102 L 213.682 4148.102 Q 265.911 4204.867 265.911 4311.373 Z  M -46.293 4311.373 L -46.293 4311.373 L -46.293 4311.373 Q -46.293 4383.06 -19.081 4419.342 L -19.081 4419.342 L -19.081 4419.342 Q 8.131 4455.625 62.262 4455.625 L 62.262 4455.625 L 62.262 4455.625 Q 170.816 4455.625 170.816 4311.373 L 170.816 4311.373 L 170.816 4311.373 Q 170.816 4166.829 62.847 4166.829 L 62.847 4166.829 L 62.847 4166.829 Q 8.716 4166.829 -18.788 4203.257 L -18.788 4203.257 L -18.788 4203.257 Q -46.293 4239.686 -46.293 4311.373 Z  M 754.046 4098.068 L 754.046 4525.849 L 638.761 4525.849 L 452.668 4202.233 L 450.034 4202.233 L 450.034 4202.233 Q 455.594 4287.965 455.594 4324.54 L 455.594 4324.54 L 455.594 4525.849 L 374.544 4525.849 L 374.544 4098.068 L 488.95 4098.068 L 674.751 4418.465 L 676.799 4418.465 L 676.799 4418.465 Q 672.41 4335.074 672.41 4300.547 L 672.41 4300.547 L 672.41 4098.068 L 754.046 4098.068 L 754.046 4098.068 Z  M 970.94 4356.726 L 970.94 4525.849 L 881.697 4525.849 L 881.697 4098.068 L 1126.896 4098.068 L 1126.896 4172.388 L 970.94 4172.388 L 970.94 4282.698 L 1116.069 4282.698 L 1116.069 4356.726 L 970.94 4356.726 L 970.94 4356.726 Z  M 1476.923 4450.943 L 1476.923 4525.849 L 1230.554 4525.849 L 1230.554 4098.068 L 1476.923 4098.068 L 1476.923 4172.388 L 1321.26 4172.388 L 1321.26 4266.313 L 1466.097 4266.313 L 1466.097 4340.633 L 1321.26 4340.633 L 1321.26 4450.943 L 1476.923 4450.943 L 1476.923 4450.943 Z  M 1676.847 4172.388 L 1676.847 4287.965 L 1706.106 4287.965 L 1706.106 4287.965 Q 1749.119 4287.965 1769.601 4273.628 L 1769.601 4273.628 L 1769.601 4273.628 Q 1790.083 4259.29 1790.083 4228.567 L 1790.083 4228.567 L 1790.083 4228.567 Q 1790.083 4198.137 1769.162 4185.263 L 1769.162 4185.263 L 1769.162 4185.263 Q 1748.241 4172.388 1704.351 4172.388 L 1704.351 4172.388 L 1676.847 4172.388 L 1676.847 4172.388 Z  M 1725.125 4361.7 L 1676.847 4361.7 L 1676.847 4525.849 L 1586.141 4525.849 L 1586.141 4098.068 L 1710.788 4098.068 L 1710.788 4098.068 Q 1797.983 4098.068 1839.825 4129.815 L 1839.825 4129.815 L 1839.825 4129.815 Q 1881.666 4161.562 1881.666 4226.226 L 1881.666 4226.226 L 1881.666 4226.226 Q 1881.666 4263.972 1860.892 4293.378 L 1860.892 4293.378 L 1860.892 4293.378 Q 1840.117 4322.784 1802.079 4339.463 L 1802.079 4339.463 L 1802.079 4339.463 Q 1898.637 4483.714 1927.897 4525.849 L 1927.897 4525.849 L 1827.243 4525.849 L 1725.125 4361.7 L 1725.125 4361.7 Z  M 2248.079 4450.943 L 2248.079 4525.849 L 2001.71 4525.849 L 2001.71 4098.068 L 2248.079 4098.068 L 2248.079 4172.388 L 2092.416 4172.388 L 2092.416 4266.313 L 2237.253 4266.313 L 2237.253 4340.633 L 2092.416 4340.633 L 2092.416 4450.943 L 2248.079 4450.943 L 2248.079 4450.943 Z  M 2736.799 4098.068 L 2736.799 4525.849 L 2621.514 4525.849 L 2435.421 4202.233 L 2432.788 4202.233 L 2432.788 4202.233 Q 2438.347 4287.965 2438.347 4324.54 L 2438.347 4324.54 L 2438.347 4525.849 L 2357.297 4525.849 L 2357.297 4098.068 L 2471.703 4098.068 L 2657.504 4418.465 L 2659.552 4418.465 L 2659.552 4418.465 Q 2655.163 4335.074 2655.163 4300.547 L 2655.163 4300.547 L 2655.163 4098.068 L 2736.799 4098.068 L 2736.799 4098.068 Z  M 3046.155 4167.414 L 3046.155 4167.414 L 3046.155 4167.414 Q 2994.95 4167.414 2966.86 4205.891 L 2966.86 4205.891 L 2966.86 4205.891 Q 2938.771 4244.368 2938.771 4313.129 L 2938.771 4313.129 L 2938.771 4313.129 Q 2938.771 4456.21 3046.155 4456.21 L 3046.155 4456.21 L 3046.155 4456.21 Q 3091.215 4456.21 3155.294 4433.68 L 3155.294 4433.68 L 3155.294 4509.756 L 3155.294 4509.756 Q 3102.626 4531.701 3037.669 4531.701 L 3037.669 4531.701 L 3037.669 4531.701 Q 2944.33 4531.701 2894.881 4475.083 L 2894.881 4475.083 L 2894.881 4475.083 Q 2845.431 4418.465 2845.431 4312.543 L 2845.431 4312.543 L 2845.431 4312.543 Q 2845.431 4245.831 2869.717 4195.65 L 2869.717 4195.65 L 2869.717 4195.65 Q 2894.003 4145.469 2939.502 4118.696 L 2939.502 4118.696 L 2939.502 4118.696 Q 2985.001 4091.923 3046.155 4091.923 L 3046.155 4091.923 L 3046.155 4091.923 Q 3108.478 4091.923 3171.387 4122.061 L 3171.387 4122.061 L 3142.127 4195.796 L 3142.127 4195.796 Q 3118.134 4184.385 3093.848 4175.899 L 3093.848 4175.899 L 3093.848 4175.899 Q 3069.563 4167.414 3046.155 4167.414 Z  M 3512.637 4450.943 L 3512.637 4525.849 L 3266.268 4525.849 L 3266.268 4098.068 L 3512.637 4098.068 L 3512.637 4172.388 L 3356.974 4172.388 L 3356.974 4266.313 L 3501.81 4266.313 L 3501.81 4340.633 L 3356.974 4340.633 L 3356.974 4450.943 L 3512.637 4450.943 L 3512.637 4450.943 Z  M 1519.119 3838.012 L 1519.119 3838.012 L 1519.119 3838.012 Q 1519.119 3893.372 1479.277 3925.246 L 1479.277 3925.246 L 1479.277 3925.246 Q 1439.434 3957.12 1368.417 3957.12 L 1368.417 3957.12 L 1368.417 3957.12 Q 1302.992 3957.12 1252.665 3932.516 L 1252.665 3932.516 L 1252.665 3851.992 L 1252.665 3851.992 Q 1294.045 3870.445 1322.703 3877.994 L 1322.703 3877.994 L 1322.703 3877.994 Q 1351.362 3885.544 1375.127 3885.544 L 1375.127 3885.544 L 1375.127 3885.544 Q 1403.646 3885.544 1418.884 3874.639 L 1418.884 3874.639 L 1418.884 3874.639 Q 1434.122 3863.735 1434.122 3842.206 L 1434.122 3842.206 L 1434.122 3842.206 Q 1434.122 3830.184 1427.412 3820.817 L 1427.412 3820.817 L 1427.412 3820.817 Q 1420.701 3811.451 1407.7 3802.783 L 1407.7 3802.783 L 1407.7 3802.783 Q 1394.699 3794.116 1354.717 3775.103 L 1354.717 3775.103 L 1354.717 3775.103 Q 1317.251 3757.489 1298.518 3741.272 L 1298.518 3741.272 L 1298.518 3741.272 Q 1279.785 3725.056 1268.602 3703.527 L 1268.602 3703.527 L 1268.602 3703.527 Q 1257.418 3681.998 1257.418 3653.2 L 1257.418 3653.2 L 1257.418 3653.2 Q 1257.418 3598.958 1294.185 3567.923 L 1294.185 3567.923 L 1294.185 3567.923 Q 1330.951 3536.888 1395.818 3536.888 L 1395.818 3536.888 L 1395.818 3536.888 Q 1427.691 3536.888 1456.629 3544.437 L 1456.629 3544.437 L 1456.629 3544.437 Q 1485.568 3551.986 1517.162 3565.687 L 1517.162 3565.687 L 1489.202 3633.069 L 1489.202 3633.069 Q 1456.49 3619.648 1435.101 3614.336 L 1435.101 3614.336 L 1435.101 3614.336 Q 1413.712 3609.024 1393.022 3609.024 L 1393.022 3609.024 L 1393.022 3609.024 Q 1368.417 3609.024 1355.276 3620.487 L 1355.276 3620.487 L 1355.276 3620.487 Q 1342.135 3631.951 1342.135 3650.404 L 1342.135 3650.404 L 1342.135 3650.404 Q 1342.135 3661.867 1347.448 3670.395 L 1347.448 3670.395 L 1347.448 3670.395 Q 1352.76 3678.923 1364.363 3686.891 L 1364.363 3686.891 L 1364.363 3686.891 Q 1375.966 3694.86 1419.304 3715.55 L 1419.304 3715.55 L 1419.304 3715.55 Q 1476.621 3742.95 1497.87 3770.49 L 1497.87 3770.49 L 1497.87 3770.49 Q 1519.119 3798.03 1519.119 3838.012 Z  M 1970.893 3746.585 L 1970.893 3746.585 L 1970.893 3746.585 Q 1970.893 3848.078 1920.566 3902.599 L 1920.566 3902.599 L 1920.566 3902.599 Q 1870.239 3957.12 1776.295 3957.12 L 1776.295 3957.12 L 1776.295 3957.12 Q 1682.351 3957.12 1632.023 3902.599 L 1632.023 3902.599 L 1632.023 3902.599 Q 1581.696 3848.078 1581.696 3746.025 L 1581.696 3746.025 L 1581.696 3746.025 Q 1581.696 3643.973 1632.163 3590.151 L 1632.163 3590.151 L 1632.163 3590.151 Q 1682.63 3536.329 1776.854 3536.329 L 1776.854 3536.329 L 1776.854 3536.329 Q 1871.077 3536.329 1920.985 3590.571 L 1920.985 3590.571 L 1920.985 3590.571 Q 1970.893 3644.812 1970.893 3746.585 Z  M 1672.565 3746.585 L 1672.565 3746.585 L 1672.565 3746.585 Q 1672.565 3815.086 1698.567 3849.755 L 1698.567 3849.755 L 1698.567 3849.755 Q 1724.57 3884.425 1776.295 3884.425 L 1776.295 3884.425 L 1776.295 3884.425 Q 1880.025 3884.425 1880.025 3746.585 L 1880.025 3746.585 L 1880.025 3746.585 Q 1880.025 3608.465 1776.854 3608.465 L 1776.854 3608.465 L 1776.854 3608.465 Q 1725.129 3608.465 1698.847 3643.274 L 1698.847 3643.274 L 1698.847 3643.274 Q 1672.565 3678.084 1672.565 3746.585 Z  M 2308.592 3542.76 L 2394.987 3542.76 L 2394.987 3807.257 L 2394.987 3807.257 Q 2394.987 3852.551 2374.716 3886.662 L 2374.716 3886.662 L 2374.716 3886.662 Q 2354.446 3920.773 2316.141 3938.946 L 2316.141 3938.946 L 2316.141 3938.946 Q 2277.837 3957.12 2225.552 3957.12 L 2225.552 3957.12 L 2225.552 3957.12 Q 2146.706 3957.12 2103.09 3916.718 L 2103.09 3916.718 L 2103.09 3916.718 Q 2059.473 3876.317 2059.473 3806.138 L 2059.473 3806.138 L 2059.473 3542.76 L 2145.868 3542.76 L 2145.868 3792.997 L 2145.868 3792.997 Q 2145.868 3840.249 2164.88 3862.337 L 2164.88 3862.337 L 2164.88 3862.337 Q 2183.893 3884.425 2227.789 3884.425 L 2227.789 3884.425 L 2227.789 3884.425 Q 2270.288 3884.425 2289.44 3862.197 L 2289.44 3862.197 L 2289.44 3862.197 Q 2308.592 3839.97 2308.592 3792.438 L 2308.592 3792.438 L 2308.592 3542.76 L 2308.592 3542.76 Z  M 2588.415 3613.777 L 2588.415 3724.217 L 2616.374 3724.217 L 2616.374 3724.217 Q 2657.475 3724.217 2677.047 3710.517 L 2677.047 3710.517 L 2677.047 3710.517 Q 2696.618 3696.817 2696.618 3667.459 L 2696.618 3667.459 L 2696.618 3667.459 Q 2696.618 3638.381 2676.627 3626.079 L 2676.627 3626.079 L 2676.627 3626.079 Q 2656.636 3613.777 2614.697 3613.777 L 2614.697 3613.777 L 2588.415 3613.777 L 2588.415 3613.777 Z  M 2634.548 3794.675 L 2588.415 3794.675 L 2588.415 3951.528 L 2501.74 3951.528 L 2501.74 3542.76 L 2620.848 3542.76 L 2620.848 3542.76 Q 2704.167 3542.76 2744.15 3573.096 L 2744.15 3573.096 L 2744.15 3573.096 Q 2784.132 3603.432 2784.132 3665.222 L 2784.132 3665.222 L 2784.132 3665.222 Q 2784.132 3701.29 2764.28 3729.39 L 2764.28 3729.39 L 2764.28 3729.39 Q 2744.429 3757.489 2708.082 3773.426 L 2708.082 3773.426 L 2708.082 3773.426 Q 2800.348 3911.266 2828.308 3951.528 L 2828.308 3951.528 L 2732.127 3951.528 L 2634.548 3794.675 L 2634.548 3794.675 Z  M 3060.04 3609.024 L 3060.04 3609.024 L 3060.04 3609.024 Q 3011.111 3609.024 2984.27 3645.791 L 2984.27 3645.791 L 2984.27 3645.791 Q 2957.429 3682.557 2957.429 3748.262 L 2957.429 3748.262 L 2957.429 3748.262 Q 2957.429 3884.984 3060.04 3884.984 L 3060.04 3884.984 L 3060.04 3884.984 Q 3103.098 3884.984 3164.329 3863.456 L 3164.329 3863.456 L 3164.329 3936.15 L 3164.329 3936.15 Q 3114.002 3957.12 3051.932 3957.12 L 3051.932 3957.12 L 3051.932 3957.12 Q 2962.741 3957.12 2915.489 3903.018 L 2915.489 3903.018 L 2915.489 3903.018 Q 2868.238 3848.917 2868.238 3747.703 L 2868.238 3747.703 L 2868.238 3747.703 Q 2868.238 3683.955 2891.444 3636.005 L 2891.444 3636.005 L 2891.444 3636.005 Q 2914.651 3588.054 2958.128 3562.471 L 2958.128 3562.471 L 2958.128 3562.471 Q 3001.605 3536.888 3060.04 3536.888 L 3060.04 3536.888 L 3060.04 3536.888 Q 3119.594 3536.888 3179.707 3565.687 L 3179.707 3565.687 L 3151.747 3636.145 L 3151.747 3636.145 Q 3128.821 3625.24 3105.614 3617.132 L 3105.614 3617.132 L 3105.614 3617.132 Q 3082.408 3609.024 3060.04 3609.024 Z  M 3493.361 3879.952 L 3493.361 3951.528 L 3257.942 3951.528 L 3257.942 3542.76 L 3493.361 3542.76 L 3493.361 3613.777 L 3344.616 3613.777 L 3344.616 3703.527 L 3483.016 3703.527 L 3483.016 3774.544 L 3344.616 3774.544 L 3344.616 3879.952 L 3493.361 3879.952 L 3493.361 3879.952 Z  M -134.707 3746.585 L -134.707 3746.585 L -134.707 3746.585 Q -134.707 3848.078 -185.034 3902.599 L -185.034 3902.599 L -185.034 3902.599 Q -235.361 3957.12 -329.305 3957.12 L -329.305 3957.12 L -329.305 3957.12 Q -423.249 3957.12 -473.576 3902.599 L -473.576 3902.599 L -473.576 3902.599 Q -523.903 3848.078 -523.903 3746.025 L -523.903 3746.025 L -523.903 3746.025 Q -523.903 3643.973 -473.436 3590.151 L -473.436 3590.151 L -473.436 3590.151 Q -422.969 3536.329 -328.746 3536.329 L -328.746 3536.329 L -328.746 3536.329 Q -234.522 3536.329 -184.614 3590.571 L -184.614 3590.571 L -184.614 3590.571 Q -134.707 3644.812 -134.707 3746.585 Z  M -433.035 3746.585 L -433.035 3746.585 L -433.035 3746.585 Q -433.035 3815.086 -407.032 3849.755 L -407.032 3849.755 L -407.032 3849.755 Q -381.03 3884.425 -329.305 3884.425 L -329.305 3884.425 L -329.305 3884.425 Q -225.575 3884.425 -225.575 3746.585 L -225.575 3746.585 L -225.575 3746.585 Q -225.575 3608.465 -328.746 3608.465 L -328.746 3608.465 L -328.746 3608.465 Q -380.471 3608.465 -406.753 3643.274 L -406.753 3643.274 L -406.753 3643.274 Q -433.035 3678.084 -433.035 3746.585 Z  M 43.344 3613.777 L 43.344 3735.121 L 71.862 3735.121 L 71.862 3735.121 Q 111.844 3735.121 131.696 3719.324 L 131.696 3719.324 L 131.696 3719.324 Q 151.547 3703.527 151.547 3673.331 L 151.547 3673.331 L 151.547 3673.331 Q 151.547 3642.855 134.911 3628.316 L 134.911 3628.316 L 134.911 3628.316 Q 118.275 3613.777 82.767 3613.777 L 82.767 3613.777 L 43.344 3613.777 L 43.344 3613.777 Z  M 239.06 3670.255 L 239.06 3670.255 L 239.06 3670.255 Q 239.06 3736.24 197.82 3771.189 L 197.82 3771.189 L 197.82 3771.189 Q 156.58 3806.138 80.53 3806.138 L 80.53 3806.138 L 43.344 3806.138 L 43.344 3951.528 L -43.331 3951.528 L -43.331 3542.76 L 87.24 3542.76 L 87.24 3542.76 Q 161.612 3542.76 200.336 3574.773 L 200.336 3574.773 L 200.336 3574.773 Q 239.06 3606.787 239.06 3670.255 Z  M 558.306 3879.952 L 558.306 3951.528 L 322.887 3951.528 L 322.887 3542.76 L 558.306 3542.76 L 558.306 3613.777 L 409.561 3613.777 L 409.561 3703.527 L 547.961 3703.527 L 547.961 3774.544 L 409.561 3774.544 L 409.561 3879.952 L 558.306 3879.952 L 558.306 3879.952 Z  M 1012.876 3542.76 L 1012.876 3951.528 L 902.715 3951.528 L 724.893 3642.296 L 722.376 3642.296 L 722.376 3642.296 Q 727.689 3724.217 727.689 3759.166 L 727.689 3759.166 L 727.689 3951.528 L 650.241 3951.528 L 650.241 3542.76 L 759.563 3542.76 L 937.106 3848.917 L 939.063 3848.917 L 939.063 3848.917 Q 934.869 3769.232 934.869 3736.24 L 934.869 3736.24 L 934.869 3542.76 L 1012.876 3542.76 L 1012.876 3542.76 Z  M -517.238 3394.901 L -517.238 3062.182 L -413.691 3062.182 L -413.691 3062.182 Q -342.914 3062.182 -310.939 3082.323 L -310.939 3082.323 L -310.939 3082.323 Q -278.965 3102.463 -278.965 3146.386 L -278.965 3146.386 L -278.965 3146.386 Q -278.965 3176.199 -292.961 3195.315 L -292.961 3195.315 L -292.961 3195.315 Q -306.957 3214.432 -330.17 3218.3 L -330.17 3218.3 L -330.17 3220.576 L -330.17 3220.576 Q -298.536 3227.631 -284.54 3246.975 L -284.54 3246.975 L -284.54 3246.975 Q -270.544 3266.319 -270.544 3298.408 L -270.544 3298.408 L -270.544 3298.408 Q -270.544 3343.923 -303.429 3369.412 L -303.429 3369.412 L -303.429 3369.412 Q -336.314 3394.901 -392.754 3394.901 L -392.754 3394.901 L -517.238 3394.901 L -517.238 3394.901 Z  M -446.689 3119.987 L -446.689 3193.95 L -405.725 3193.95 L -405.725 3193.95 Q -377.051 3193.95 -364.193 3185.074 L -364.193 3185.074 L -364.193 3185.074 Q -351.334 3176.199 -351.334 3155.717 L -351.334 3155.717 L -351.334 3155.717 Q -351.334 3136.6 -365.33 3128.294 L -365.33 3128.294 L -365.33 3128.294 Q -379.326 3119.987 -409.594 3119.987 L -409.594 3119.987 L -446.689 3119.987 L -446.689 3119.987 Z  M -402.995 3249.934 L -446.689 3249.934 L -446.689 3336.641 L -400.719 3336.641 L -400.719 3336.641 Q -371.589 3336.641 -357.707 3325.489 L -357.707 3325.489 L -357.707 3325.489 Q -343.824 3314.338 -343.824 3291.353 L -343.824 3291.353 L -343.824 3291.353 Q -343.824 3249.934 -402.995 3249.934 L -402.995 3249.934 L -402.995 3249.934 Z  M -130.214 3394.901 L -200.763 3394.901 L -200.763 3062.182 L -130.214 3062.182 L -130.214 3394.901 L -130.214 3394.901 Z  M 258.86 3228.086 L 258.86 3228.086 L 258.86 3228.086 Q 258.86 3310.697 217.896 3355.075 L 217.896 3355.075 L 217.896 3355.075 Q 176.932 3399.452 100.466 3399.452 L 100.466 3399.452 L 100.466 3399.452 Q 23.999 3399.452 -16.964 3355.075 L -16.964 3355.075 L -16.964 3355.075 Q -57.928 3310.697 -57.928 3227.631 L -57.928 3227.631 L -57.928 3227.631 Q -57.928 3144.565 -16.851 3100.757 L -16.851 3100.757 L -16.851 3100.757 Q 24.227 3056.948 100.921 3056.948 L 100.921 3056.948 L 100.921 3056.948 Q 177.614 3056.948 218.237 3101.098 L 218.237 3101.098 L 218.237 3101.098 Q 258.86 3145.248 258.86 3228.086 Z  M 16.034 3228.086 L 16.034 3228.086 L 16.034 3228.086 Q 16.034 3283.843 37.199 3312.062 L 37.199 3312.062 L 37.199 3312.062 Q 58.364 3340.282 100.466 3340.282 L 100.466 3340.282 L 100.466 3340.282 Q 184.897 3340.282 184.897 3228.086 L 184.897 3228.086 L 184.897 3228.086 Q 184.897 3115.663 100.921 3115.663 L 100.921 3115.663 L 100.921 3115.663 Q 58.819 3115.663 37.427 3143.996 L 37.427 3143.996 L 37.427 3143.996 Q 16.034 3172.33 16.034 3228.086 Z  M 401.694 3394.901 L 331.145 3394.901 L 331.145 3062.182 L 401.694 3062.182 L 401.694 3394.901 L 401.694 3394.901 Z  M 783.939 3062.182 L 783.939 3394.901 L 694.274 3394.901 L 549.535 3143.2 L 547.486 3143.2 L 547.486 3143.2 Q 551.81 3209.88 551.81 3238.327 L 551.81 3238.327 L 551.81 3394.901 L 488.771 3394.901 L 488.771 3062.182 L 577.754 3062.182 L 722.266 3311.38 L 723.859 3311.38 L 723.859 3311.38 Q 720.445 3246.52 720.445 3219.666 L 720.445 3219.666 L 720.445 3062.182 L 783.939 3062.182 L 783.939 3062.182 Z  M 940.428 3263.361 L 940.428 3394.901 L 871.017 3394.901 L 871.017 3062.182 L 1061.727 3062.182 L 1061.727 3119.987 L 940.428 3119.987 L 940.428 3205.784 L 1053.307 3205.784 L 1053.307 3263.361 L 940.428 3263.361 L 940.428 3263.361 Z  M 1432.139 3228.086 L 1432.139 3228.086 L 1432.139 3228.086 Q 1432.139 3310.697 1391.175 3355.075 L 1391.175 3355.075 L 1391.175 3355.075 Q 1350.211 3399.452 1273.745 3399.452 L 1273.745 3399.452 L 1273.745 3399.452 Q 1197.279 3399.452 1156.315 3355.075 L 1156.315 3355.075 L 1156.315 3355.075 Q 1115.351 3310.697 1115.351 3227.631 L 1115.351 3227.631 L 1115.351 3227.631 Q 1115.351 3144.565 1156.429 3100.757 L 1156.429 3100.757 L 1156.429 3100.757 Q 1197.506 3056.948 1274.2 3056.948 L 1274.2 3056.948 L 1274.2 3056.948 Q 1350.894 3056.948 1391.516 3101.098 L 1391.516 3101.098 L 1391.516 3101.098 Q 1432.139 3145.248 1432.139 3228.086 Z  M 1189.314 3228.086 L 1189.314 3228.086 L 1189.314 3228.086 Q 1189.314 3283.843 1210.478 3312.062 L 1210.478 3312.062 L 1210.478 3312.062 Q 1231.643 3340.282 1273.745 3340.282 L 1273.745 3340.282 L 1273.745 3340.282 Q 1358.176 3340.282 1358.176 3228.086 L 1358.176 3228.086 L 1358.176 3228.086 Q 1358.176 3115.663 1274.2 3115.663 L 1274.2 3115.663 L 1274.2 3115.663 Q 1232.098 3115.663 1210.706 3143.996 L 1210.706 3143.996 L 1210.706 3143.996 Q 1189.314 3172.33 1189.314 3228.086 Z  M 1574.973 3119.987 L 1574.973 3209.88 L 1597.731 3209.88 L 1597.731 3209.88 Q 1631.185 3209.88 1647.115 3198.729 L 1647.115 3198.729 L 1647.115 3198.729 Q 1663.046 3187.577 1663.046 3163.682 L 1663.046 3163.682 L 1663.046 3163.682 Q 1663.046 3140.014 1646.774 3130 L 1646.774 3130 L 1646.774 3130 Q 1630.502 3119.987 1596.365 3119.987 L 1596.365 3119.987 L 1574.973 3119.987 L 1574.973 3119.987 Z  M 1612.523 3267.23 L 1574.973 3267.23 L 1574.973 3394.901 L 1504.424 3394.901 L 1504.424 3062.182 L 1601.372 3062.182 L 1601.372 3062.182 Q 1669.19 3062.182 1701.734 3086.874 L 1701.734 3086.874 L 1701.734 3086.874 Q 1734.277 3111.567 1734.277 3161.861 L 1734.277 3161.861 L 1734.277 3161.861 Q 1734.277 3191.219 1718.119 3214.09 L 1718.119 3214.09 L 1718.119 3214.09 Q 1701.961 3236.962 1672.376 3249.934 L 1672.376 3249.934 L 1672.376 3249.934 Q 1747.477 3362.129 1770.235 3394.901 L 1770.235 3394.901 L 1691.948 3394.901 L 1612.523 3267.23 L 1612.523 3267.23 Z  M 2020.941 3394.901 L 1956.309 3394.901 L 1876.201 3133.869 L 1874.153 3133.869 L 1874.153 3133.869 Q 1878.477 3213.521 1878.477 3240.148 L 1878.477 3240.148 L 1878.477 3394.901 L 1815.438 3394.901 L 1815.438 3062.182 L 1911.476 3062.182 L 1990.218 3316.614 L 1991.583 3316.614 L 2075.104 3062.182 L 2171.142 3062.182 L 2171.142 3394.901 L 2105.372 3394.901 L 2105.372 3237.417 L 2105.372 3237.417 Q 2105.372 3226.266 2105.713 3211.701 L 2105.713 3211.701 L 2105.713 3211.701 Q 2106.055 3197.136 2108.785 3134.324 L 2108.785 3134.324 L 2106.737 3134.324 L 2020.941 3394.901 L 2020.941 3394.901 Z  M 2537.912 3394.901 L 2461.901 3394.901 L 2437.778 3315.704 L 2316.479 3315.704 L 2292.356 3394.901 L 2216.345 3394.901 L 2333.775 3060.817 L 2420.027 3060.817 L 2537.912 3394.901 L 2537.912 3394.901 Z  M 2334.23 3256.533 L 2420.937 3256.533 L 2420.937 3256.533 Q 2387.483 3148.889 2383.273 3134.779 L 2383.273 3134.779 L 2383.273 3134.779 Q 2379.063 3120.67 2377.242 3112.477 L 2377.242 3112.477 L 2377.242 3112.477 Q 2369.732 3141.607 2334.23 3256.533 L 2334.23 3256.533 L 2334.23 3256.533 Z  M 2711.469 3120.897 L 2711.469 3394.901 L 2640.92 3394.901 L 2640.92 3120.897 L 2550.572 3120.897 L 2550.572 3062.182 L 2801.818 3062.182 L 2801.818 3120.897 L 2711.469 3120.897 L 2711.469 3120.897 Z  M 2926.901 3394.901 L 2856.352 3394.901 L 2856.352 3062.182 L 2926.901 3062.182 L 2926.901 3394.901 L 2926.901 3394.901 Z  M 3155.304 3116.118 L 3155.304 3116.118 L 3155.304 3116.118 Q 3115.478 3116.118 3093.631 3146.045 L 3093.631 3146.045 L 3093.631 3146.045 Q 3071.783 3175.971 3071.783 3229.452 L 3071.783 3229.452 L 3071.783 3229.452 Q 3071.783 3340.737 3155.304 3340.737 L 3155.304 3340.737 L 3155.304 3340.737 Q 3190.351 3340.737 3240.191 3323.214 L 3240.191 3323.214 L 3240.191 3382.384 L 3240.191 3382.384 Q 3199.227 3399.452 3148.704 3399.452 L 3148.704 3399.452 L 3148.704 3399.452 Q 3076.107 3399.452 3037.647 3355.416 L 3037.647 3355.416 L 3037.647 3355.416 Q 2999.186 3311.38 2999.186 3228.997 L 2999.186 3228.997 L 2999.186 3228.997 Q 2999.186 3177.109 3018.075 3138.079 L 3018.075 3138.079 L 3018.075 3138.079 Q 3036.964 3099.05 3072.352 3078.226 L 3072.352 3078.226 L 3072.352 3078.226 Q 3107.74 3057.403 3155.304 3057.403 L 3155.304 3057.403 L 3155.304 3057.403 Q 3203.778 3057.403 3252.707 3080.844 L 3252.707 3080.844 L 3229.95 3138.193 L 3229.95 3138.193 Q 3211.288 3129.318 3192.399 3122.718 L 3192.399 3122.718 L 3192.399 3122.718 Q 3173.51 3116.118 3155.304 3116.118 Z  M 3510.696 3302.504 L 3510.696 3302.504 L 3510.696 3302.504 Q 3510.696 3347.564 3478.266 3373.508 L 3478.266 3373.508 L 3478.266 3373.508 Q 3445.836 3399.452 3388.031 3399.452 L 3388.031 3399.452 L 3388.031 3399.452 Q 3334.778 3399.452 3293.814 3379.425 L 3293.814 3379.425 L 3293.814 3313.883 L 3293.814 3313.883 Q 3327.496 3328.903 3350.823 3335.048 L 3350.823 3335.048 L 3350.823 3335.048 Q 3374.149 3341.192 3393.493 3341.192 L 3393.493 3341.192 L 3393.493 3341.192 Q 3416.706 3341.192 3429.109 3332.317 L 3429.109 3332.317 L 3429.109 3332.317 Q 3441.512 3323.441 3441.512 3305.918 L 3441.512 3305.918 L 3441.512 3305.918 Q 3441.512 3296.132 3436.05 3288.508 L 3436.05 3288.508 L 3436.05 3288.508 Q 3430.588 3280.884 3420.006 3273.829 L 3420.006 3273.829 L 3420.006 3273.829 Q 3409.424 3266.774 3376.88 3251.299 L 3376.88 3251.299 L 3376.88 3251.299 Q 3346.385 3236.962 3331.137 3223.762 L 3331.137 3223.762 L 3331.137 3223.762 Q 3315.889 3210.563 3306.786 3193.039 L 3306.786 3193.039 L 3306.786 3193.039 Q 3297.683 3175.516 3297.683 3152.075 L 3297.683 3152.075 L 3297.683 3152.075 Q 3297.683 3107.925 3327.61 3082.664 L 3327.61 3082.664 L 3327.61 3082.664 Q 3357.536 3057.403 3410.334 3057.403 L 3410.334 3057.403 L 3410.334 3057.403 Q 3436.278 3057.403 3459.832 3063.548 L 3459.832 3063.548 L 3459.832 3063.548 Q 3483.386 3069.692 3509.103 3080.844 L 3509.103 3080.844 L 3486.345 3135.69 L 3486.345 3135.69 Q 3459.718 3124.766 3442.309 3120.442 L 3442.309 3120.442 L 3442.309 3120.442 Q 3424.899 3116.118 3408.058 3116.118 L 3408.058 3116.118 L 3408.058 3116.118 Q 3388.031 3116.118 3377.335 3125.449 L 3377.335 3125.449 L 3377.335 3125.449 Q 3366.639 3134.779 3366.639 3149.8 L 3366.639 3149.8 L 3366.639 3149.8 Q 3366.639 3159.13 3370.963 3166.071 L 3370.963 3166.071 L 3370.963 3166.071 Q 3375.287 3173.013 3384.732 3179.498 L 3384.732 3179.498 L 3384.732 3179.498 Q 3394.176 3185.984 3429.451 3202.825 L 3429.451 3202.825 L 3429.451 3202.825 Q 3476.104 3225.128 3493.4 3247.544 L 3493.4 3247.544 L 3493.4 3247.544 Q 3510.696 3269.961 3510.696 3302.504 Z " fill="rgb(255,255,255)"/></g></svg>