<svg width="145" height="51" viewBox="0 0 145 51" fill="none" xmlns="http://www.w3.org/2000/svg">
<path d="M50.615 15.8265V36.8265H59.915C63.515 36.8265 66.125 34.6965 66.125 31.1565C66.125 28.0965 64.085 26.8065 62.555 26.3865V26.0865C64.085 25.6365 66.035 24.4065 66.035 21.3765C66.035 17.9565 63.485 15.8265 59.855 15.8265H50.615ZM54.095 18.9765H59.495C61.415 18.9765 62.705 20.0865 62.705 21.8265C62.705 23.5665 61.445 24.7065 59.495 24.7065H54.095V18.9765ZM54.095 27.8265H59.495C61.565 27.8265 62.795 28.9365 62.795 30.7665C62.795 32.5365 61.565 33.6765 59.555 33.6765H54.095V27.8265ZM68.3213 23.8365V28.8165C68.3213 34.2465 71.6513 37.2465 76.8413 37.2465C82.0313 37.2465 85.3313 34.2465 85.3313 28.8165V23.8365C85.3313 18.4065 82.0313 15.4065 76.8413 15.4065C71.6513 15.4065 68.3213 18.4065 68.3213 23.8365ZM71.8013 23.7165C71.8013 20.5365 73.6613 18.4965 76.8413 18.4965C79.9913 18.4965 81.8513 20.5365 81.8513 23.7165V28.9365C81.8513 32.1165 79.9913 34.1565 76.8413 34.1565C73.6613 34.1565 71.8013 32.1165 71.8013 28.9365V23.7165ZM95.22 15.4065C90.81 15.4065 87.93 17.6565 87.93 21.4065C87.93 25.1265 90.39 26.5965 94.56 27.5265L95.55 27.7365C98.28 28.3665 99.84 29.0565 99.84 30.9765C99.84 32.8665 98.31 34.1865 95.43 34.1865C92.52 34.1865 90.69 32.8065 90.69 29.9265V29.6565H87.27V29.9265C87.27 34.6365 90.66 37.2465 95.43 37.2465C100.2 37.2465 103.26 34.6665 103.26 30.8865C103.26 27.1065 100.44 25.5765 96.24 24.6765L95.25 24.4365C92.61 23.8365 91.35 23.0865 91.35 21.2865C91.35 19.5165 92.7 18.4665 95.22 18.4665C97.8 18.4665 99.48 19.5165 99.48 22.1265V22.7865H102.9V22.1265C102.9 17.6565 99.63 15.4065 95.22 15.4065ZM105.294 28.7265C105.294 34.1865 108.594 37.2465 113.814 37.2465C118.974 37.2465 121.974 34.2765 121.974 29.7165V28.9965H118.524V29.7765C118.524 32.2365 116.964 34.1565 113.814 34.1565C110.694 34.1565 108.774 32.1165 108.774 28.7865V23.8665C108.774 20.5365 110.664 18.4965 113.814 18.4965C116.904 18.4965 118.524 20.4465 118.524 22.9065V23.4765H121.974V22.9665C121.974 18.3765 119.034 15.4065 113.814 15.4065C108.594 15.4065 105.294 18.4665 105.294 23.9265V28.7265Z" fill="black"/>
<path d="M38.4645 29.1379C37.8112 25.9852 36.2219 23.103 33.9045 20.8679C31.9996 19.0862 29.8759 17.5539 27.5845 16.3079C25.3969 15.1238 23.3788 13.6506 21.5845 11.9279C21.0526 11.3356 20.5709 10.7001 20.1445 10.0279C19.3612 8.65992 18.2602 7.50059 16.9345 6.64789C15.2638 5.77469 13.3272 5.55713 11.5045 6.03789C10.0306 6.26056 8.66334 6.93894 7.59446 7.97789C6.60446 6.71789 5.07446 4.26789 5.98446 2.10789C6.04175 1.98611 6.07386 1.85402 6.07888 1.71953C6.0839 1.58504 6.06172 1.45093 6.01367 1.32521C5.96562 1.1995 5.89269 1.08478 5.79925 0.987924C5.70581 0.891069 5.59378 0.814071 5.46987 0.761545C5.34596 0.709018 5.21273 0.682044 5.07814 0.682237C4.94356 0.68243 4.8104 0.709787 4.68665 0.762668C4.56289 0.81555 4.45108 0.892869 4.35791 0.989992C4.26475 1.08711 4.19215 1.20204 4.14446 1.32789C2.94446 4.15789 4.46446 7.07789 5.67446 8.71789C5.15849 8.79526 4.6606 8.96462 4.20446 9.21789C3.66091 9.46899 3.14762 9.78099 2.67446 10.1479C1.98248 10.7741 1.44261 11.55 1.09601 12.4165C0.749408 13.283 0.605229 14.2172 0.674462 15.1479C0.817174 16.8912 1.29957 18.5898 2.09446 20.1479L2.45446 20.9279C3.03827 22.0755 3.50722 23.278 3.85446 24.5179C4.19457 26.2978 4.25194 28.1201 4.02446 29.9179C3.90485 31.2009 3.87144 32.4904 3.92446 33.7779C4.12757 37.1271 5.36438 40.331 7.46446 42.9479C9.02925 44.7944 10.9849 46.27 13.19 47.268C15.3951 48.2659 17.7945 48.7611 20.2145 48.7179C22.9384 48.7163 25.6287 48.1154 28.0945 46.9579C31.673 45.2351 34.644 42.4663 36.6145 39.0179C38.3641 36.0409 39.0184 32.5462 38.4645 29.1379ZM34.8845 38.0179C33.1214 41.1096 30.4606 43.5926 27.2545 45.1379C20.7845 48.1679 13.1045 46.7179 9.01446 41.7179C7.18457 39.4334 6.10534 36.6393 5.92446 33.7179C5.87761 32.5203 5.91102 31.321 6.02446 30.1279C6.26858 28.1288 6.19432 26.1037 5.80446 24.1279C5.4309 22.7399 4.9183 21.3931 4.27446 20.1079L3.92446 19.3379C3.23729 18.0045 2.81292 16.5515 2.67446 15.0579C2.63227 14.4371 2.72986 13.8148 2.96003 13.2368C3.19021 12.6588 3.54711 12.1397 4.00446 11.7179C4.36377 11.4472 4.74898 11.2127 5.15446 11.0179C5.45514 10.8279 5.79933 10.7177 6.15446 10.6979H6.40446C6.89927 10.746 7.39771 10.656 7.84446 10.4379L7.99446 10.3679L8.12446 10.2579C8.39865 10.0404 8.64695 9.79208 8.86446 9.51789L8.99446 9.35789C9.79234 8.64987 10.786 8.20013 11.8445 8.06789C13.1824 7.70272 14.6084 7.84888 15.8445 8.47789C16.8935 9.18874 17.763 10.1336 18.3845 11.2379C18.873 12.0028 19.425 12.7254 20.0345 13.3979C21.965 15.2526 24.1382 16.837 26.4945 18.1079C28.6397 19.2684 30.6289 20.6964 32.4145 22.3579C34.4352 24.3139 35.8277 26.8274 36.4145 29.5779C36.8887 32.4834 36.3484 35.4637 34.8845 38.0179Z" fill="black"/>
<mask id="mask0" mask-type="alpha" maskUnits="userSpaceOnUse" x="5" y="8" width="35" height="38">
<path d="M30.2207 9.29239C30.4273 9.98121 30.634 10.7389 29.9452 10.3945C28.7742 9.77457 27.2588 9.08575 27.7409 9.56792C28.2231 10.0501 28.4298 10.6012 27.6721 10.5323C26.9144 10.4634 25.5367 10.2567 24.9168 11.1522C24.2968 12.0477 23.4702 11.841 23.2636 12.1854C23.057 12.5299 22.7125 13.9764 22.0926 13.4942C21.4727 13.0809 20.2328 11.4966 21.266 11.9099C22.2993 12.3232 23.4702 11.841 22.5059 10.7389C21.5415 9.6368 20.5772 10.0501 20.1639 9.43016C19.7506 8.81022 18.373 8.05252 17.3397 9.56792C16.3754 11.0833 15.4799 13.0809 14.9289 13.4942C14.3778 13.9075 13.2068 14.6652 13.4135 15.2851C13.5512 15.9051 13.6201 17.3516 14.24 16.9383C14.86 16.525 15.2044 16.3184 15.4799 16.7317C15.6866 17.145 15.6177 17.9715 16.0999 17.9715C16.0999 17.9715 17.0642 17.2827 17.1331 16.6628C17.202 16.0428 16.4443 15.6984 16.9953 14.803C17.5464 13.9075 18.7863 12.1854 18.5107 13.0809C18.2352 13.9075 17.6153 15.1474 18.0974 15.6984C18.5107 16.2495 20.9216 15.5607 19.8195 16.1117C18.7174 16.6628 18.1663 17.0761 17.9597 17.7649C17.753 18.4537 17.5464 19.0048 16.9953 18.7292C16.4443 18.4537 15.7554 18.5915 15.4799 18.5915C15.2044 18.5915 15.0666 17.3516 14.5845 17.6271C14.1712 17.9027 14.7222 18.7981 14.24 18.867C13.7579 18.9359 13.689 19.4869 13.1379 19.9002C12.5869 20.3135 11.8292 21.1401 11.347 21.209C10.8648 21.2779 12.1047 21.8978 11.8981 22.4489C11.6914 23.0688 10.5893 22.9999 10.176 23.0688C9.7627 23.1377 10.1071 23.9643 9.90047 24.4465C9.69382 24.9286 10.1071 25.4108 10.7959 25.4108C11.4848 25.4108 12.1736 25.273 12.2425 24.6531C12.3113 24.0332 12.9313 22.9999 13.4135 23.2066C13.8267 23.4132 14.86 22.7933 15.0666 23.1377C15.2733 23.4821 16.582 24.6531 16.4443 24.7909C16.3065 24.9286 15.5488 25.273 15.8243 25.4108C15.8243 25.4108 16.031 25.7552 16.1687 25.6863C16.3065 25.6175 16.6509 24.722 16.8576 24.5842C17.0642 24.4465 17.0642 23.9643 16.7887 23.7576C16.4443 23.551 15.2733 22.7244 15.5488 22.3111C15.8243 21.8978 16.4443 22.7933 16.7198 23.0688C16.9953 23.3443 17.4086 23.6888 17.4086 24.3087C17.4086 24.9286 17.8219 24.9286 17.8219 25.2042C17.8908 25.5486 18.0286 25.6175 18.373 25.6175C18.7174 25.5486 18.8551 24.7909 18.7174 24.5842C18.5107 24.3776 18.5107 23.9643 18.924 23.9643C19.3373 23.9643 19.8195 23.6199 19.8195 23.4132C19.8195 23.2066 20.2328 21.9667 20.5083 21.9667C20.7838 21.9667 20.9905 22.4489 21.0594 22.7244C21.1971 22.9999 21.886 22.5178 21.7482 22.2422C21.6104 21.9667 21.8171 21.8978 22.0237 21.8978C22.2304 21.8978 22.0926 22.4489 22.2304 22.5866C22.437 22.7244 23.4014 23.3443 23.057 23.6888C22.7125 24.0332 22.2304 23.8265 21.886 23.551C21.5415 23.2755 20.6461 23.4132 20.3706 23.6888C20.1639 23.9643 19.9573 24.102 19.544 24.102C19.1307 24.102 19.1996 24.8598 19.544 25.1353C19.8884 25.4797 20.3706 25.2042 20.715 25.4108C21.0594 25.6175 21.6104 25.1353 21.6793 25.4797C21.7482 25.8241 21.6104 26.8573 21.266 26.9262C20.9216 26.9951 19.8195 27.2017 19.0618 26.8573C18.2352 26.5129 17.4775 26.3752 17.4086 26.7196C17.3397 27.1329 17.3397 27.4084 16.7887 27.064C16.2376 26.7196 15.7554 26.5129 15.411 26.5129C15.0666 26.5129 15.0666 25.893 15.1355 25.4108C15.2044 24.9286 14.3089 25.0664 13.7579 25.2042C13.2068 25.3419 12.1047 25.6863 11.4159 25.6863C10.7271 25.6863 10.4515 25.8241 10.3138 26.0996C10.176 26.3752 9.55606 26.3752 9.55606 26.9262C9.55606 27.4773 9.62494 27.615 9.07388 27.8906C8.45394 28.0972 8.31618 29.1993 8.04065 29.4749C7.76512 29.7504 8.31618 30.4392 8.04065 30.8525C7.76512 31.1969 7.48959 32.1613 7.97177 32.3679C8.45394 32.5745 8.93612 33.5389 9.14277 33.8833C9.34941 34.2277 10.1071 34.5721 10.8648 34.4344C11.6225 34.2966 13.0002 33.8833 13.7579 34.2277C14.5156 34.5721 15.2733 34.5033 14.9289 35.1921C14.5156 35.8809 15.1355 36.7764 15.6177 37.2585C16.0999 37.7407 15.9621 38.9806 15.6866 39.325C15.411 39.7383 15.4799 40.4271 15.7554 40.7715C16.031 41.1159 16.1687 41.9425 16.1687 42.218C16.1687 42.5625 16.7198 43.1824 16.7887 43.8023C16.8576 44.4912 16.3754 45.2489 16.9953 45.2489C17.6153 45.2489 19.1996 45.3177 19.3373 45.0422C19.4751 44.7667 20.715 43.6646 21.0594 43.1824C21.4038 42.7002 22.0926 41.8736 21.886 41.3915C21.4727 41.0471 21.7482 40.7026 22.437 40.4271C23.1258 40.1516 23.1258 38.2229 22.7814 37.7407C22.437 37.2585 23.057 36.0875 23.8147 35.7431C24.5724 35.3987 26.3633 32.2301 25.8122 32.5057C25.1923 32.7812 24.0213 32.9878 23.608 32.7123C23.1947 32.4368 20.7838 28.3039 21.1283 28.0283C21.4727 27.7528 23.4014 31.8168 23.7458 32.299C24.0902 32.8501 27.3276 30.8525 27.7409 30.3703C28.0853 29.8881 27.5343 29.406 27.3276 29.406C27.121 29.406 26.3633 28.9238 26.1567 29.1993C25.95 29.4749 24.5724 27.2017 25.0545 27.4084C25.5367 27.615 26.5699 28.3039 27.5343 28.8549C28.4986 29.406 29.6008 28.5105 30.2207 29.5437C30.9095 30.577 31.3228 29.8881 31.2539 30.3703C31.185 30.8525 32.0805 32.8501 32.4249 33.47C32.7005 34.09 33.3204 33.1945 33.3893 32.5057C33.4582 31.748 34.9047 30.577 35.4557 30.1637C35.9379 29.7504 36.9023 30.3703 37.04 31.1969C37.1778 32.0235 37.8666 31.0591 37.8666 31.6791C37.8666 32.3679 37.7288 33.2634 38.211 34.09C39.1754 31.6791 39.6575 29.2682 39.6575 26.6507C39.6575 19.3492 35.869 12.9431 30.2207 9.29239" fill="black"/>
<path d="M8.24732 11.9099C7.83402 12.0477 7.42073 12.5299 6.86968 12.2543C6.31862 11.9788 5.14762 12.3921 5.90533 13.012C6.59415 13.7009 6.31862 14.1141 7.00744 14.183C7.69626 14.2519 8.10955 13.2876 8.59173 13.3564C9.0739 13.4253 8.72949 11.7722 8.24732 11.9099Z" fill="black"/>
<path d="M24.9857 38.8428C24.5035 38.9117 24.6413 39.8761 24.0902 40.0138C23.608 40.1516 24.0213 40.5649 23.7458 40.9093C23.5392 41.2537 23.4014 42.0803 23.7458 42.4936C24.0902 42.9757 24.228 42.9757 24.6413 42.218C25.0546 41.5292 26.0189 38.7739 24.9857 38.8428Z" fill="black"/>
<path d="M11.1404 16.525C10.9337 16.525 10.7271 16.6628 10.5204 16.6628C10.3138 16.7317 10.176 17.0072 10.176 17.2827C10.176 17.6271 10.7271 17.696 10.5204 17.9027C10.3138 18.1093 9.21167 18.316 9.34944 18.6604C9.4872 19.0048 9.69385 19.2803 9.4872 19.6247C9.28056 19.9691 9.69385 20.038 10.1071 19.9002C10.5204 19.7625 10.796 19.2803 10.7271 19.0048C10.6582 18.6604 11.347 18.5915 11.1404 18.867C10.9337 19.1425 10.5893 19.8314 10.796 20.038C11.0026 20.2447 10.2449 20.5891 10.5204 20.7268C10.796 20.8646 11.5537 20.1758 11.967 20.3135C12.3803 20.4513 12.518 20.1758 12.5869 19.8314C12.6558 19.4181 12.0358 18.9359 11.8292 18.4537C11.6225 17.9027 11.7603 16.525 11.1404 16.525" fill="black"/>
</mask>
<g mask="url(#mask0)">
<path d="M27.2641 44.9848C30.4702 43.4396 33.131 40.9565 34.8941 37.8648C36.358 35.3106 36.8983 32.3304 36.4241 29.4248C35.8373 26.6743 34.4448 24.1609 32.4241 22.2048C30.6385 20.5434 28.6493 19.1153 26.504 17.9548C24.1478 16.684 21.9746 15.0995 20.0441 13.2448C19.4346 12.5723 18.8826 11.8497 18.3941 11.0848C17.7726 9.98049 16.9031 9.03565 15.8541 8.32481C14.618 7.6958 13.192 7.54963 11.8541 7.9148C10.7956 8.04704 9.80193 8.49679 9.00405 9.20481L8.87405 9.36482C8.65653 9.639 8.40824 9.88729 8.13405 10.1048L8.00405 10.2148L7.85405 10.2848C7.4073 10.5029 6.90886 10.5929 6.41406 10.5448H6.16406C5.80892 10.5646 5.46472 10.6748 5.16406 10.8648C4.75857 11.0596 4.37336 11.2941 4.01405 11.5648C3.5567 11.9866 3.1998 12.5057 2.96963 13.0837C2.73945 13.6618 2.64186 14.2841 2.68405 14.9048C2.82251 16.3984 3.24688 17.8515 3.93405 19.1848L4.28405 19.9548C4.9279 21.24 5.44048 22.5868 5.81406 23.9748C6.20391 25.9506 6.27817 27.9757 6.03405 29.9748C5.92061 31.1679 5.8872 32.3673 5.93405 33.5648C6.11493 36.4862 7.19416 39.2803 9.02406 41.5648C13.1141 46.5648 20.7941 48.0148 27.2641 44.9848Z" fill="black"/>
</g>
</svg>
