<svg width="40" height="51" viewBox="0 0 40 51" fill="none" xmlns="http://www.w3.org/2000/svg">
<path d="M38.4645 29.1379C37.8112 25.9852 36.2219 23.103 33.9045 20.8679C31.9996 19.0862 29.8759 17.5539 27.5845 16.3079C25.397 15.1238 23.3788 13.6506 21.5845 11.9279C21.0526 11.3356 20.571 10.7001 20.1445 10.0279C19.3613 8.65992 18.2603 7.50059 16.9345 6.64789C15.2638 5.77469 13.3272 5.55713 11.5045 6.03789C10.0306 6.26056 8.66336 6.93894 7.59449 7.97789C6.60449 6.71789 5.07449 4.26789 5.98449 2.10789C6.04177 1.98611 6.07389 1.85402 6.07891 1.71953C6.08392 1.58504 6.06175 1.45093 6.0137 1.32521C5.96565 1.1995 5.89272 1.08478 5.79928 0.987924C5.70583 0.891069 5.5938 0.814071 5.46989 0.761545C5.34599 0.709018 5.21275 0.682044 5.07817 0.682237C4.94358 0.68243 4.81043 0.709787 4.68667 0.762668C4.56291 0.81555 4.4511 0.892869 4.35794 0.989992C4.26477 1.08711 4.19217 1.20204 4.14449 1.32789C2.94449 4.15789 4.46449 7.07789 5.67449 8.71789C5.15852 8.79526 4.66062 8.96462 4.20448 9.21789C3.66093 9.46899 3.14764 9.78099 2.67449 10.1479C1.9825 10.7741 1.44263 11.55 1.09603 12.4165C0.749431 13.283 0.605252 14.2172 0.674485 15.1479C0.817196 16.8912 1.29959 18.5898 2.09449 20.1479L2.45449 20.9279C3.03829 22.0755 3.50724 23.278 3.85449 24.5179C4.19459 26.2978 4.25197 28.1201 4.02449 29.9179C3.90487 31.2009 3.87146 32.4904 3.92449 33.7779C4.12759 37.1271 5.3644 40.331 7.46449 42.9479C9.02927 44.7944 10.985 46.27 13.1901 47.268C15.3951 48.2659 17.7945 48.7611 20.2145 48.7179C22.9384 48.7163 25.6287 48.1154 28.0945 46.9579C31.673 45.2351 34.6441 42.4663 36.6145 39.0179C38.3641 36.0409 39.0185 32.5462 38.4645 29.1379ZM34.8845 38.0179C33.1215 41.1096 30.4606 43.5926 27.2545 45.1379C20.7845 48.1679 13.1045 46.7179 9.01449 41.7179C7.1846 39.4334 6.10536 36.6393 5.92449 33.7179C5.87763 32.5203 5.91104 31.321 6.02449 30.1279C6.2686 28.1288 6.19434 26.1037 5.80449 24.1279C5.43092 22.7399 4.91832 21.3931 4.27449 20.1079L3.92449 19.3379C3.23731 18.0045 2.81294 16.5515 2.67449 15.0579C2.63229 14.4371 2.72988 13.8148 2.96006 13.2368C3.19023 12.6588 3.54714 12.1397 4.00449 11.7179C4.36379 11.4472 4.749 11.2127 5.15448 11.0179C5.45516 10.8279 5.79935 10.7177 6.15448 10.6979H6.40448C6.89929 10.746 7.39773 10.656 7.84449 10.4379L7.99448 10.3679L8.12449 10.2579C8.39867 10.0404 8.64697 9.79208 8.86448 9.51789L8.99448 9.35789C9.79236 8.64987 10.786 8.20013 11.8445 8.06789C13.1824 7.70272 14.6084 7.84888 15.8445 8.47789C16.8935 9.18874 17.763 10.1336 18.3845 11.2379C18.873 12.0028 19.425 12.7254 20.0345 13.3979C21.9651 15.2526 24.1382 16.837 26.4945 18.1079C28.6397 19.2684 30.6289 20.6964 32.4145 22.3579C34.4352 24.3139 35.8277 26.8274 36.4145 29.5779C36.8887 32.4834 36.3484 35.4637 34.8845 38.0179Z" fill="black"/>
<mask id="mask0" mask-type="alpha" maskUnits="userSpaceOnUse" x="5" y="8" width="35" height="38">
<path d="M30.2207 9.29239C30.4274 9.98121 30.634 10.7389 29.9452 10.3945C28.7742 9.77457 27.2588 9.08575 27.741 9.56792C28.2231 10.0501 28.4298 10.6012 27.6721 10.5323C26.9144 10.4634 25.5367 10.2567 24.9168 11.1522C24.2969 12.0477 23.4703 11.841 23.2636 12.1854C23.057 12.5299 22.7126 13.9764 22.0926 13.4942C21.4727 13.0809 20.2328 11.4966 21.266 11.9099C22.2993 12.3232 23.4703 11.841 22.5059 10.7389C21.5416 9.6368 20.5772 10.0501 20.1639 9.43016C19.7506 8.81022 18.373 8.05252 17.3398 9.56792C16.3754 11.0833 15.4799 13.0809 14.9289 13.4942C14.3778 13.9075 13.2068 14.6652 13.4135 15.2851C13.5512 15.9051 13.6201 17.3516 14.2401 16.9383C14.86 16.525 15.2044 16.3184 15.4799 16.7317C15.6866 17.145 15.6177 17.9715 16.0999 17.9715C16.0999 17.9715 17.0642 17.2827 17.1331 16.6628C17.202 16.0428 16.4443 15.6984 16.9954 14.803C17.5464 13.9075 18.7863 12.1854 18.5108 13.0809C18.2352 13.9075 17.6153 15.1474 18.0975 15.6984C18.5108 16.2495 20.9216 15.5607 19.8195 16.1117C18.7174 16.6628 18.1663 17.0761 17.9597 17.7649C17.7531 18.4537 17.5464 19.0048 16.9954 18.7292C16.4443 18.4537 15.7555 18.5915 15.4799 18.5915C15.2044 18.5915 15.0667 17.3516 14.5845 17.6271C14.1712 17.9027 14.7222 18.7981 14.2401 18.867C13.7579 18.9359 13.689 19.4869 13.138 19.9002C12.5869 20.3135 11.8292 21.1401 11.347 21.209C10.8648 21.2779 12.1047 21.8978 11.8981 22.4489C11.6914 23.0688 10.5893 22.9999 10.176 23.0688C9.76273 23.1377 10.1071 23.9643 9.90049 24.4465C9.69384 24.9286 10.1071 25.4108 10.796 25.4108C11.4848 25.4108 12.1736 25.273 12.2425 24.6531C12.3114 24.0332 12.9313 22.9999 13.4135 23.2066C13.8268 23.4132 14.86 22.7933 15.0666 23.1377C15.2733 23.4821 16.5821 24.6531 16.4443 24.7909C16.3065 24.9286 15.5488 25.273 15.8244 25.4108C15.8244 25.4108 16.031 25.7552 16.1688 25.6863C16.3065 25.6175 16.6509 24.722 16.8576 24.5842C17.0642 24.4465 17.0642 23.9643 16.7887 23.7576C16.4443 23.551 15.2733 22.7244 15.5488 22.3111C15.8244 21.8978 16.4443 22.7933 16.7198 23.0688C16.9954 23.3443 17.4086 23.6888 17.4086 24.3087C17.4086 24.9286 17.8219 24.9286 17.8219 25.2042C17.8908 25.5486 18.0286 25.6175 18.373 25.6175C18.7174 25.5486 18.8552 24.7909 18.7174 24.5842C18.5108 24.3776 18.5108 23.9643 18.924 23.9643C19.3373 23.9643 19.8195 23.6199 19.8195 23.4132C19.8195 23.2066 20.2328 21.9667 20.5083 21.9667C20.7839 21.9667 20.9905 22.4489 21.0594 22.7244C21.1972 22.9999 21.886 22.5178 21.7482 22.2422C21.6105 21.9667 21.8171 21.8978 22.0237 21.8978C22.2304 21.8978 22.0926 22.4489 22.2304 22.5866C22.437 22.7244 23.4014 23.3443 23.057 23.6888C22.7126 24.0332 22.2304 23.8265 21.886 23.551C21.5416 23.2755 20.6461 23.4132 20.3706 23.6888C20.1639 23.9643 19.9573 24.102 19.544 24.102C19.1307 24.102 19.1996 24.8598 19.544 25.1353C19.8884 25.4797 20.3706 25.2042 20.715 25.4108C21.0594 25.6175 21.6105 25.1353 21.6793 25.4797C21.7482 25.8241 21.6105 26.8573 21.266 26.9262C20.9216 26.9951 19.8195 27.2017 19.0618 26.8573C18.2352 26.5129 17.4775 26.3752 17.4086 26.7196C17.3398 27.1329 17.3398 27.4084 16.7887 27.064C16.2376 26.7196 15.7555 26.5129 15.4111 26.5129C15.0666 26.5129 15.0667 25.893 15.1355 25.4108C15.2044 24.9286 14.3089 25.0664 13.7579 25.2042C13.2068 25.3419 12.1047 25.6863 11.4159 25.6863C10.7271 25.6863 10.4515 25.8241 10.3138 26.0996C10.176 26.3752 9.55608 26.3752 9.55608 26.9262C9.55608 27.4773 9.62496 27.615 9.07391 27.8906C8.45397 28.0972 8.3162 29.1993 8.04067 29.4749C7.76515 29.7504 8.3162 30.4392 8.04067 30.8525C7.76515 31.1969 7.48962 32.1613 7.97179 32.3679C8.45397 32.5745 8.93614 33.5389 9.14279 33.8833C9.34943 34.2277 10.1071 34.5721 10.8648 34.4344C11.6225 34.2966 13.0002 33.8833 13.7579 34.2277C14.5156 34.5721 15.2733 34.5033 14.9289 35.1921C14.5156 35.8809 15.1355 36.7764 15.6177 37.2585C16.0999 37.7407 15.9621 38.9806 15.6866 39.325C15.4111 39.7383 15.4799 40.4271 15.7555 40.7715C16.031 41.1159 16.1688 41.9425 16.1688 42.218C16.1688 42.5625 16.7198 43.1824 16.7887 43.8023C16.8576 44.4912 16.3754 45.2489 16.9954 45.2489C17.6153 45.2489 19.1996 45.3177 19.3373 45.0422C19.4751 44.7667 20.715 43.6646 21.0594 43.1824C21.4038 42.7002 22.0926 41.8736 21.886 41.3915C21.4727 41.0471 21.7482 40.7026 22.437 40.4271C23.1259 40.1516 23.1259 38.2229 22.7814 37.7407C22.437 37.2585 23.057 36.0875 23.8147 35.7431C24.5724 35.3987 26.3633 32.2301 25.8123 32.5057C25.1923 32.7812 24.0213 32.9878 23.608 32.7123C23.1947 32.4368 20.7839 28.3039 21.1283 28.0283C21.4727 27.7528 23.4014 31.8168 23.7458 32.299C24.0902 32.8501 27.3277 30.8525 27.741 30.3703C28.0854 29.8881 27.5343 29.406 27.3277 29.406C27.121 29.406 26.3633 28.9238 26.1567 29.1993C25.95 29.4749 24.5724 27.2017 25.0546 27.4084C25.5367 27.615 26.57 28.3039 27.5343 28.8549C28.4987 29.406 29.6008 28.5105 30.2207 29.5437C30.9095 30.577 31.3228 29.8881 31.254 30.3703C31.1851 30.8525 32.0805 32.8501 32.4249 33.47C32.7005 34.09 33.3204 33.1945 33.3893 32.5057C33.4582 31.748 34.9047 30.577 35.4558 30.1637C35.9379 29.7504 36.9023 30.3703 37.0401 31.1969C37.1778 32.0235 37.8666 31.0591 37.8666 31.6791C37.8666 32.3679 37.7289 33.2634 38.211 34.09C39.1754 31.6791 39.6576 29.2682 39.6576 26.6507C39.6576 19.3492 35.8691 12.9431 30.2207 9.29239" fill="black"/>
<path d="M8.24734 11.9099C7.83405 12.0477 7.42076 12.5299 6.8697 12.2543C6.31864 11.9788 5.14765 12.3921 5.90535 13.012C6.59417 13.7009 6.31864 14.1141 7.00746 14.183C7.69628 14.2519 8.10958 13.2876 8.59175 13.3564C9.07393 13.4253 8.72952 11.7722 8.24734 11.9099Z" fill="black"/>
<path d="M24.9857 38.8428C24.5035 38.9117 24.6413 39.8761 24.0902 40.0138C23.6081 40.1516 24.0214 40.5649 23.7458 40.9093C23.5392 41.2537 23.4014 42.0803 23.7458 42.4936C24.0902 42.9757 24.228 42.9757 24.6413 42.218C25.0546 41.5292 26.0189 38.7739 24.9857 38.8428Z" fill="black"/>
<path d="M11.1404 16.525C10.9338 16.525 10.7271 16.6628 10.5205 16.6628C10.3138 16.7317 10.176 17.0072 10.176 17.2827C10.176 17.6271 10.7271 17.696 10.5205 17.9027C10.3138 18.1093 9.2117 18.316 9.34946 18.6604C9.48723 19.0048 9.69387 19.2803 9.48723 19.6247C9.28058 19.9691 9.69387 20.038 10.1072 19.9002C10.5205 19.7625 10.796 19.2803 10.7271 19.0048C10.6582 18.6604 11.347 18.5915 11.1404 18.867C10.9338 19.1425 10.5893 19.8314 10.796 20.038C11.0026 20.2447 10.2449 20.5891 10.5205 20.7268C10.796 20.8646 11.5537 20.1758 11.967 20.3135C12.3803 20.4513 12.518 20.1758 12.5869 19.8314C12.6558 19.4181 12.0359 18.9359 11.8292 18.4537C11.6226 17.9027 11.7603 16.525 11.1404 16.525" fill="black"/>
</mask>
<g mask="url(#mask0)">
<path d="M27.2641 44.9848C30.4702 43.4396 33.1311 40.9565 34.8941 37.8648C36.358 35.3106 36.8983 32.3304 36.4241 29.4248C35.8373 26.6743 34.4448 24.1609 32.4241 22.2048C30.6385 20.5434 28.6493 19.1153 26.5041 17.9548C24.1478 16.684 21.9747 15.0995 20.0441 13.2448C19.4346 12.5723 18.8826 11.8497 18.3941 11.0848C17.7726 9.98049 16.9031 9.03565 15.8541 8.32481C14.618 7.6958 13.192 7.54963 11.8541 7.9148C10.7956 8.04704 9.80196 8.49679 9.00408 9.20481L8.87408 9.36482C8.65656 9.639 8.40827 9.88729 8.13407 10.1048L8.00408 10.2148L7.85407 10.2848C7.40733 10.5029 6.90888 10.5929 6.41408 10.5448H6.16408C5.80895 10.5646 5.46475 10.6748 5.16408 10.8648C4.75859 11.0596 4.37338 11.2941 4.01408 11.5648C3.55673 11.9866 3.19982 12.5057 2.96965 13.0837C2.73947 13.6618 2.64188 14.2841 2.68408 14.9048C2.82253 16.3984 3.2469 17.8515 3.93408 19.1848L4.28407 19.9548C4.92792 21.24 5.44051 22.5868 5.81408 23.9748C6.20393 25.9506 6.27819 27.9757 6.03407 29.9748C5.92063 31.1679 5.88722 32.3673 5.93408 33.5648C6.11495 36.4862 7.19418 39.2803 9.02408 41.5648C13.1141 46.5648 20.7941 48.0148 27.2641 44.9848Z" fill="black"/>
</g>
</svg>
