<svg width="72" height="89" viewBox="0 0 72 89" fill="none" xmlns="http://www.w3.org/2000/svg">
<path d="M2.24504 58.7469V78.6544H11.0612C14.4739 78.6544 16.9482 76.6352 16.9482 73.2794C16.9482 70.3786 15.0143 69.1557 13.5639 68.7575V68.4731C15.0143 68.0465 16.8628 66.8805 16.8628 64.0082C16.8628 60.7661 14.4455 58.7469 11.0043 58.7469H2.24504ZM5.544 61.733H10.6631C12.4832 61.733 13.7061 62.7853 13.7061 64.4347C13.7061 66.0842 12.5116 67.1649 10.6631 67.1649H5.544V61.733ZM5.544 70.1226H10.6631C12.6254 70.1226 13.7914 71.1749 13.7914 72.9097C13.7914 74.5876 12.6254 75.6683 10.72 75.6683H5.544V70.1226ZM19.0302 66.3402V71.0611C19.0302 76.2086 22.187 79.0525 27.107 79.0525C32.027 79.0525 35.1553 76.2086 35.1553 71.0611V66.3402C35.1553 61.1927 32.027 58.3487 27.107 58.3487C22.187 58.3487 19.0302 61.1927 19.0302 66.3402ZM22.3292 66.2264C22.3292 63.2119 24.0924 61.278 27.107 61.278C30.0931 61.278 31.8564 63.2119 31.8564 66.2264V71.1749C31.8564 74.1894 30.0931 76.1233 27.107 76.1233C24.0924 76.1233 22.3292 74.1894 22.3292 71.1749V66.2264ZM44.5296 58.3487C40.349 58.3487 37.6189 60.4817 37.6189 64.0366C37.6189 67.5631 39.9509 68.9566 43.9039 69.8382L44.8424 70.0373C47.4304 70.6345 48.9093 71.2886 48.9093 73.1087C48.9093 74.9004 47.4589 76.1517 44.7287 76.1517C41.9701 76.1517 40.2353 74.8435 40.2353 72.1134V71.8574H36.9932V72.1134C36.9932 76.5783 40.2068 79.0525 44.7287 79.0525C49.2505 79.0525 52.1513 76.6068 52.1513 73.0234C52.1513 69.4401 49.4781 67.9897 45.4965 67.1365L44.5581 66.909C42.0554 66.3402 40.8609 65.6292 40.8609 63.9228C40.8609 62.2449 42.1407 61.2495 44.5296 61.2495C46.9754 61.2495 48.568 62.2449 48.568 64.7191V65.3448H51.8101V64.7191C51.8101 60.4817 48.7102 58.3487 44.5296 58.3487ZM54.0794 70.9758C54.0794 76.1517 57.2078 79.0525 62.1562 79.0525C67.0478 79.0525 69.8917 76.237 69.8917 71.9143V71.2317H66.6212V71.9712C66.6212 74.3032 65.1423 76.1233 62.1562 76.1233C59.1985 76.1233 57.3784 74.1894 57.3784 71.0327V66.3686C57.3784 63.2119 59.1701 61.278 62.1562 61.278C65.0854 61.278 66.6212 63.1265 66.6212 65.4586V65.9989H69.8917V65.5154C69.8917 61.1642 67.1046 58.3487 62.1562 58.3487C57.2078 58.3487 54.0794 61.2495 54.0794 66.4255V70.9758Z" fill="white"/>
<path d="M54.2603 29.4429C53.607 26.2903 52.0177 23.408 49.7003 21.1729C47.7954 19.3912 45.6717 17.8589 43.3803 16.6129C41.1927 15.4288 39.1746 13.9556 37.3803 12.2329C36.8484 11.6406 36.3667 11.0051 35.9403 10.3329C35.157 8.96496 34.056 7.80563 32.7303 6.95293C31.0596 6.07973 29.123 5.86217 27.3003 6.34293C25.8264 6.5656 24.4591 7.24398 23.3903 8.28293C22.4003 7.02293 20.8703 4.57293 21.7803 2.41293C21.8375 2.29115 21.8697 2.15906 21.8747 2.02457C21.8797 1.89008 21.8575 1.75596 21.8095 1.63025C21.7614 1.50454 21.6885 1.38982 21.5951 1.29296C21.5016 1.19611 21.3896 1.11911 21.2657 1.06658C21.1418 1.01406 21.0085 0.987082 20.8739 0.987275C20.7394 0.987468 20.6062 1.01483 20.4824 1.06771C20.3587 1.12059 20.2469 1.19791 20.1537 1.29503C20.0606 1.39215 19.9879 1.50708 19.9403 1.63293C18.7403 4.46293 20.2603 7.38293 21.4703 9.02293C20.9543 9.1003 20.4564 9.26965 20.0003 9.52293C19.4567 9.77403 18.9434 10.086 18.4703 10.4529C17.7783 11.0791 17.2384 11.855 16.8918 12.7216C16.5452 13.5881 16.401 14.5223 16.4703 15.4529C16.613 17.1963 17.0954 18.8948 17.8903 20.4529L18.2503 21.2329C18.8341 22.3805 19.303 23.5831 19.6503 24.8229C19.9904 26.6028 20.0477 28.4252 19.8203 30.2229C19.7006 31.5059 19.6672 32.7955 19.7203 34.0829C19.9234 37.4322 21.1602 40.636 23.2603 43.2529C24.825 45.0995 26.7807 46.5751 28.9858 47.573C31.1909 48.5709 33.5903 49.0662 36.0103 49.0229C38.7342 49.0213 41.4245 48.4204 43.8903 47.2629C47.4688 45.5401 50.4398 42.7713 52.4103 39.3229C54.1599 36.346 54.8142 32.8512 54.2603 29.4429ZM50.6803 38.3229C48.9172 41.4147 46.2564 43.8977 43.0503 45.4429C36.5803 48.4729 28.9003 47.0229 24.8103 42.0229C22.9804 39.7385 21.9011 36.9443 21.7203 34.0229C21.6734 32.8254 21.7068 31.626 21.8203 30.4329C22.0644 28.4339 21.9901 26.4087 21.6003 24.4329C21.2267 23.0449 20.7141 21.6981 20.0703 20.4129L19.7203 19.6429C19.0331 18.3096 18.6087 16.8565 18.4703 15.3629C18.4281 14.7422 18.5257 14.1199 18.7558 13.5418C18.986 12.9638 19.3429 12.4448 19.8003 12.0229C20.1596 11.7522 20.5448 11.5178 20.9503 11.3229C21.2509 11.1329 21.5951 11.0228 21.9503 11.0029H22.2003C22.6951 11.051 23.1935 10.961 23.6403 10.7429L23.7903 10.6729L23.9203 10.5629C24.1945 10.3454 24.4427 10.0971 24.6603 9.82293L24.7903 9.66293C25.5881 8.95491 26.5818 8.50516 27.6403 8.37293C28.9782 8.00776 30.4042 8.15392 31.6403 8.78293C32.6893 9.49378 33.5588 10.4386 34.1803 11.5429C34.6688 12.3079 35.2208 13.0304 35.8303 13.7029C37.7608 15.5577 39.934 17.1421 42.2903 18.4129C44.4355 19.5734 46.4247 21.0015 48.2103 22.6629C50.231 24.619 51.6235 27.1324 52.2103 29.8829C52.6845 32.7885 52.1442 35.7687 50.6803 38.3229Z" fill="white"/>
<mask id="mask0" mask-type="alpha" maskUnits="userSpaceOnUse" x="21" y="8" width="35" height="38">
<path d="M46.0165 9.59743C46.2231 10.2863 46.4298 11.044 45.741 10.6995C44.57 10.0796 43.0546 9.39079 43.5367 9.87296C44.0189 10.3551 44.2256 10.9062 43.4679 10.8373C42.7102 10.7684 41.3325 10.5618 40.7126 11.4572C40.0926 12.3527 39.266 12.1461 39.0594 12.4905C38.8528 12.8349 38.5083 14.2814 37.8884 13.7992C37.2685 13.3859 36.0286 11.8017 37.0618 12.215C38.095 12.6282 39.266 12.1461 38.3017 11.044C37.3373 9.94184 36.373 10.3551 35.9597 9.7352C35.5464 9.11526 34.1688 8.35755 33.1355 9.87296C32.1712 11.3884 31.2757 13.3859 30.7247 13.7992C30.1736 14.2125 29.0026 14.9702 29.2093 15.5902C29.347 16.2101 29.4159 17.6566 30.0358 17.2433C30.6558 16.8301 31.0002 16.6234 31.2757 17.0367C31.4824 17.45 31.4135 18.2766 31.8957 18.2766C31.8957 18.2766 32.86 17.5878 32.9289 16.9678C32.9978 16.3479 32.2401 16.0035 32.7911 15.108C33.3422 14.2125 34.5821 12.4905 34.3065 13.3859C34.031 14.2125 33.4111 15.4524 33.8932 16.0035C34.3065 16.5545 36.7174 15.8657 35.6153 16.4168C34.5132 16.9678 33.9621 17.3811 33.7555 18.0699C33.5488 18.7588 33.3422 19.3098 32.7911 19.0343C32.2401 18.7588 31.5512 18.8965 31.2757 18.8965C31.0002 18.8965 30.8624 17.6566 30.3803 17.9322C29.967 18.2077 30.518 19.1032 30.0358 19.172C29.5537 19.2409 29.4848 19.792 28.9337 20.2053C28.3827 20.6186 27.625 21.4452 27.1428 21.514C26.6606 21.5829 27.9005 22.2029 27.6938 22.7539C27.4872 23.3739 26.3851 23.305 25.9718 23.3739C25.5585 23.4427 25.9029 24.2693 25.6963 24.7515C25.4896 25.2337 25.9029 25.7158 26.5917 25.7158C27.2806 25.7158 27.9694 25.5781 28.0383 24.9581C28.1071 24.3382 28.7271 23.305 29.2093 23.5116C29.6225 23.7183 30.6558 23.0983 30.8624 23.4427C31.0691 23.7871 32.3778 24.9581 32.2401 25.0959C32.1023 25.2337 31.3446 25.5781 31.6201 25.7158C31.6201 25.7158 31.8268 26.0603 31.9645 25.9914C32.1023 25.9225 32.4467 25.027 32.6534 24.8893C32.86 24.7515 32.86 24.2693 32.5845 24.0627C32.2401 23.856 31.0691 23.0294 31.3446 22.6162C31.6201 22.2029 32.2401 23.0983 32.5156 23.3739C32.7911 23.6494 33.2044 23.9938 33.2044 24.6137C33.2044 25.2337 33.6177 25.2337 33.6177 25.5092C33.6866 25.8536 33.8244 25.9225 34.1688 25.9225C34.5132 25.8536 34.6509 25.0959 34.5132 24.8893C34.3065 24.6826 34.3065 24.2693 34.7198 24.2693C35.1331 24.2693 35.6153 23.9249 35.6153 23.7183C35.6153 23.5116 36.0286 22.2717 36.3041 22.2717C36.5796 22.2717 36.7863 22.7539 36.8552 23.0294C36.9929 23.305 37.6818 22.8228 37.544 22.5473C37.4062 22.2717 37.6129 22.2029 37.8195 22.2029C38.0262 22.2029 37.8884 22.7539 38.0262 22.8917C38.2328 23.0294 39.1972 23.6494 38.8528 23.9938C38.5083 24.3382 38.0262 24.1316 37.6818 23.856C37.3373 23.5805 36.4419 23.7183 36.1664 23.9938C35.9597 24.2693 35.7531 24.4071 35.3398 24.4071C34.9265 24.4071 34.9954 25.1648 35.3398 25.4403C35.6842 25.7847 36.1664 25.5092 36.5108 25.7158C36.8552 25.9225 37.4062 25.4403 37.4751 25.7847C37.544 26.1291 37.4062 27.1624 37.0618 27.2313C36.7174 27.3001 35.6153 27.5068 34.8576 27.1624C34.031 26.818 33.2733 26.6802 33.2044 27.0246C33.1355 27.4379 33.1355 27.7134 32.5845 27.369C32.0334 27.0246 31.5512 26.818 31.2068 26.818C30.8624 26.818 30.8624 26.198 30.9313 25.7158C31.0002 25.2337 30.1047 25.3714 29.5537 25.5092C29.0026 25.647 27.9005 25.9914 27.2117 25.9914C26.5229 25.9914 26.2473 26.1291 26.1096 26.4047C25.9718 26.6802 25.3519 26.6802 25.3519 27.2313C25.3519 27.7823 25.4207 27.9201 24.8697 28.1956C24.2497 28.4023 24.112 29.5044 23.8365 29.7799C23.5609 30.0554 24.112 30.7442 23.8365 31.1575C23.5609 31.5019 23.2854 32.4663 23.7676 32.6729C24.2497 32.8796 24.7319 33.8439 24.9386 34.1883C25.1452 34.5328 25.9029 34.8772 26.6606 34.7394C27.4183 34.6016 28.796 34.1883 29.5537 34.5328C30.3114 34.8772 31.0691 34.8083 30.7247 35.4971C30.3114 36.1859 30.9313 37.0814 31.4135 37.5636C31.8957 38.0457 31.7579 39.2856 31.4824 39.63C31.2068 40.0433 31.2757 40.7322 31.5512 41.0766C31.8268 41.421 31.9645 42.2476 31.9645 42.5231C31.9645 42.8675 32.5156 43.4874 32.5845 44.1074C32.6534 44.7962 32.1712 45.5539 32.7911 45.5539C33.4111 45.5539 34.9954 45.6228 35.1331 45.3473C35.2709 45.0717 36.5108 43.9696 36.8552 43.4874C37.1996 43.0053 37.8884 42.1787 37.6818 41.6965C37.2685 41.3521 37.544 41.0077 38.2328 40.7322C38.9216 40.4566 38.9216 38.5279 38.5772 38.0457C38.2328 37.5636 38.8528 36.3926 39.6105 36.0482C40.3682 35.7038 42.1591 32.5352 41.608 32.8107C40.9881 33.0862 39.8171 33.2929 39.4038 33.0174C38.9905 32.7418 36.5796 28.6089 36.9241 28.3334C37.2685 28.0578 39.1972 32.1219 39.5416 32.6041C39.886 33.1551 43.1234 31.1575 43.5367 30.6754C43.8811 30.1932 43.3301 29.711 43.1234 29.711C42.9168 29.711 42.1591 29.2288 41.9525 29.5044C41.7458 29.7799 40.3682 27.5068 40.8503 27.7134C41.3325 27.9201 42.3657 28.6089 43.3301 29.16C44.2944 29.711 45.3966 28.8155 46.0165 29.8488C46.7053 30.882 47.1186 30.1932 47.0497 30.6754C46.9808 31.1575 47.8763 33.1551 48.2207 33.7751C48.4963 34.395 49.1162 33.4995 49.1851 32.8107C49.254 32.053 50.7005 30.882 51.2515 30.4687C51.7337 30.0554 52.6981 30.6754 52.8358 31.5019C52.9736 32.3285 53.6624 31.3642 53.6624 31.9841C53.6624 32.6729 53.5246 33.5684 54.0068 34.395C54.9712 31.9841 55.4533 29.5732 55.4533 26.9557C55.4533 19.6542 51.6648 13.2482 46.0165 9.59743" fill="black"/>
<path d="M24.0431 12.2149C23.6298 12.3527 23.2165 12.8349 22.6655 12.5594C22.1144 12.2838 20.9434 12.6971 21.7011 13.3171C22.3899 14.0059 22.1144 14.4192 22.8032 14.4881C23.4921 14.5569 23.9054 13.5926 24.3875 13.6615C24.8697 13.7304 24.5253 12.0772 24.0431 12.2149Z" fill="black"/>
<path d="M40.7814 39.1479C40.2993 39.2168 40.437 40.1811 39.886 40.3189C39.4038 40.4566 39.8171 40.8699 39.5416 41.2143C39.3349 41.5587 39.1972 42.3853 39.5416 42.7986C39.886 43.2808 40.0237 43.2808 40.437 42.5231C40.8503 41.8343 41.8147 39.079 40.7814 39.1479Z" fill="black"/>
<path d="M26.9362 16.83C26.7295 16.83 26.5229 16.9678 26.3162 16.9678C26.1096 17.0367 25.9718 17.3122 25.9718 17.5878C25.9718 17.9322 26.5229 18.001 26.3162 18.2077C26.1096 18.4143 25.0075 18.621 25.1452 18.9654C25.283 19.3098 25.4896 19.5853 25.283 19.9297C25.0764 20.2742 25.4896 20.343 25.9029 20.2053C26.3162 20.0675 26.5918 19.5853 26.5229 19.3098C26.454 18.9654 27.1428 18.8965 26.9362 19.172C26.7295 19.4476 26.3851 20.1364 26.5918 20.343C26.7984 20.5497 26.0407 20.8941 26.3162 21.0319C26.5918 21.1696 27.3495 20.4808 27.7628 20.6186C28.1761 20.7563 28.3138 20.4808 28.3827 20.1364C28.4516 19.7231 27.8316 19.2409 27.625 18.7587C27.4183 18.2077 27.5561 16.83 26.9362 16.83" fill="black"/>
</mask>
<g mask="url(#mask0)">
<path d="M43.0599 45.2899C46.266 43.7446 48.9268 41.2616 50.6899 38.1699C52.1538 35.6157 52.6941 32.6354 52.2199 29.7299C51.6331 26.9794 50.2406 24.4659 48.2199 22.5099C46.4343 20.8484 44.4451 19.4203 42.2998 18.2599C39.9436 16.989 37.7704 15.4046 35.8399 13.5499C35.2304 12.8773 34.6784 12.1548 34.1899 11.3899C33.5684 10.2855 32.6989 9.34071 31.6498 8.62986C30.4138 8.00085 28.9878 7.85469 27.6498 8.21986C26.5914 8.35209 25.5977 8.80184 24.7999 9.50987L24.6699 9.66987C24.4523 9.94406 24.204 10.1923 23.9298 10.4099L23.7999 10.5199L23.6498 10.5899C23.2031 10.8079 22.7047 10.8979 22.2099 10.8499H21.9599C21.6047 10.8697 21.2605 10.9798 20.9599 11.1699C20.5544 11.3647 20.1692 11.5992 19.8099 11.8699C19.3525 12.2917 18.9956 12.8107 18.7654 13.3888C18.5352 13.9668 18.4377 14.5891 18.4799 15.2099C18.6183 16.7035 19.0427 18.1565 19.7299 19.4899L20.0799 20.2599C20.7237 21.545 21.2363 22.8918 21.6099 24.2799C21.9997 26.2557 22.074 28.2808 21.8299 30.2799C21.7164 31.473 21.683 32.6723 21.7299 33.8699C21.9107 36.7913 22.99 39.5854 24.8199 41.8699C28.9099 46.8699 36.5899 48.3199 43.0599 45.2899Z" fill="white"/>
</g>
</svg>
