<svg width="40" height="51" viewBox="0 0 40 51" fill="none" xmlns="http://www.w3.org/2000/svg">
<path d="M38.4645 29.2574C37.8112 26.1047 36.2219 23.2224 33.9045 20.9874C31.9996 19.2056 29.8759 17.6733 27.5845 16.4274C25.397 15.2433 23.3788 13.77 21.5845 12.0474C21.0526 11.4551 20.571 10.8195 20.1445 10.1474C19.3613 8.77938 18.2603 7.62006 16.9345 6.76735C15.2638 5.89415 13.3272 5.67659 11.5045 6.15736C10.0306 6.38002 8.66336 7.0584 7.59449 8.09736C6.60449 6.83736 5.07449 4.38736 5.98449 2.22736C6.04177 2.10557 6.07389 1.97348 6.07891 1.83899C6.08392 1.7045 6.06175 1.57039 6.0137 1.44467C5.96565 1.31896 5.89272 1.20424 5.79928 1.10739C5.70583 1.01053 5.5938 0.933532 5.46989 0.881006C5.34599 0.82848 5.21275 0.801505 5.07817 0.801698C4.94358 0.801891 4.81043 0.829248 4.68667 0.882129C4.56291 0.935011 4.4511 1.01233 4.35794 1.10945C4.26477 1.20658 4.19217 1.3215 4.14449 1.44735C2.94449 4.27735 4.46449 7.19735 5.67449 8.83735C5.15852 8.91473 4.66062 9.08408 4.20448 9.33735C3.66093 9.58845 3.14764 9.90045 2.67449 10.2674C1.9825 10.8935 1.44263 11.6695 1.09603 12.536C0.749431 13.4025 0.605252 14.3367 0.674485 15.2674C0.817196 17.0107 1.29959 18.7092 2.09449 20.2674L2.45449 21.0474C3.03829 22.195 3.50724 23.3975 3.85449 24.6374C4.19459 26.4172 4.25197 28.2396 4.02449 30.0374C3.90487 31.3203 3.87146 32.6099 3.92449 33.8974C4.12759 37.2466 5.3644 40.4504 7.46449 43.0674C9.02927 44.9139 10.985 46.3895 13.1901 47.3874C15.3951 48.3853 17.7945 48.8806 20.2145 48.8374C22.9384 48.8357 25.6287 48.2349 28.0945 47.0774C31.673 45.3545 34.6441 42.5857 36.6145 39.1374C38.3641 36.1604 39.0185 32.6657 38.4645 29.2574ZM34.8845 38.1374C33.1215 41.2291 30.4606 43.7121 27.2545 45.2574C20.7845 48.2874 13.1045 46.8374 9.01449 41.8374C7.1846 39.5529 6.10536 36.7588 5.92449 33.8374C5.87763 32.6398 5.91104 31.4404 6.02449 30.2474C6.2686 28.2483 6.19434 26.2232 5.80449 24.2474C5.43092 22.8593 4.91832 21.5125 4.27449 20.2274L3.92449 19.4574C3.23731 18.124 2.81294 16.671 2.67449 15.1774C2.63229 14.5566 2.72988 13.9343 2.96006 13.3563C3.19023 12.7782 3.54714 12.2592 4.00449 11.8374C4.36379 11.5667 4.749 11.3322 5.15448 11.1374C5.45516 10.9473 5.79935 10.8372 6.15448 10.8174H6.40448C6.89929 10.8654 7.39773 10.7754 7.84449 10.5574L7.99448 10.4874L8.12449 10.3774C8.39867 10.1598 8.64697 9.91154 8.86448 9.63735L8.99448 9.47736C9.79236 8.76933 10.786 8.31959 11.8445 8.18736C13.1824 7.82218 14.6084 7.96834 15.8445 8.59736C16.8935 9.3082 17.763 10.253 18.3845 11.3574C18.873 12.1223 19.425 12.8448 20.0345 13.5174C21.9651 15.3721 24.1382 16.9565 26.4945 18.2274C28.6397 19.3878 30.6289 20.8159 32.4145 22.4774C34.4352 24.4334 35.8277 26.9469 36.4145 29.6974C36.8887 32.6029 36.3484 35.5832 34.8845 38.1374Z" fill="white"/>
<mask id="mask0" mask-type="alpha" maskUnits="userSpaceOnUse" x="5" y="8" width="35" height="38">
<path d="M30.2207 9.41185C30.4274 10.1007 30.634 10.8584 29.9452 10.514C28.7742 9.89403 27.2588 9.20521 27.741 9.68738C28.2231 10.1696 28.4298 10.7206 27.6721 10.6517C26.9144 10.5829 25.5367 10.3762 24.9168 11.2717C24.2969 12.1671 23.4703 11.9605 23.2636 12.3049C23.057 12.6493 22.7126 14.0958 22.0926 13.6137C21.4727 13.2004 20.2328 11.6161 21.266 12.0294C22.2993 12.4427 23.4703 11.9605 22.5059 10.8584C21.5416 9.75626 20.5772 10.1696 20.1639 9.54962C19.7506 8.92968 18.373 8.17198 17.3398 9.68738C16.3754 11.2028 15.4799 13.2004 14.9289 13.6137C14.3778 14.027 13.2068 14.7847 13.4135 15.4046C13.5512 16.0245 13.6201 17.4711 14.2401 17.0578C14.86 16.6445 15.2044 16.4378 15.4799 16.8511C15.6866 17.2644 15.6177 18.091 16.0999 18.091C16.0999 18.091 17.0642 17.4022 17.1331 16.7822C17.202 16.1623 16.4443 15.8179 16.9954 14.9224C17.5464 14.027 18.7863 12.3049 18.5108 13.2004C18.2352 14.027 17.6153 15.2668 18.0975 15.8179C18.5108 16.3689 20.9216 15.6801 19.8195 16.2312C18.7174 16.7822 18.1663 17.1955 17.9597 17.8844C17.7531 18.5732 17.5464 19.1242 16.9954 18.8487C16.4443 18.5732 15.7555 18.7109 15.4799 18.7109C15.2044 18.7109 15.0667 17.4711 14.5845 17.7466C14.1712 18.0221 14.7222 18.9176 14.2401 18.9865C13.7579 19.0554 13.689 19.6064 13.138 20.0197C12.5869 20.433 11.8292 21.2596 11.347 21.3285C10.8648 21.3973 12.1047 22.0173 11.8981 22.5683C11.6914 23.1883 10.5893 23.1194 10.176 23.1883C9.76273 23.2572 10.1071 24.0837 9.90049 24.5659C9.69384 25.0481 10.1071 25.5303 10.796 25.5303C11.4848 25.5303 12.1736 25.3925 12.2425 24.7726C12.3114 24.1526 12.9313 23.1194 13.4135 23.326C13.8268 23.5327 14.86 22.9127 15.0666 23.2572C15.2733 23.6016 16.5821 24.7726 16.4443 24.9103C16.3065 25.0481 15.5488 25.3925 15.8244 25.5303C15.8244 25.5303 16.031 25.8747 16.1688 25.8058C16.3065 25.7369 16.6509 24.8414 16.8576 24.7037C17.0642 24.5659 17.0642 24.0837 16.7887 23.8771C16.4443 23.6705 15.2733 22.8439 15.5488 22.4306C15.8244 22.0173 16.4443 22.9127 16.7198 23.1883C16.9954 23.4638 17.4086 23.8082 17.4086 24.4282C17.4086 25.0481 17.8219 25.0481 17.8219 25.3236C17.8908 25.668 18.0286 25.7369 18.373 25.7369C18.7174 25.668 18.8552 24.9103 18.7174 24.7037C18.5108 24.497 18.5108 24.0837 18.924 24.0837C19.3373 24.0837 19.8195 23.7393 19.8195 23.5327C19.8195 23.326 20.2328 22.0862 20.5083 22.0862C20.7839 22.0862 20.9905 22.5683 21.0594 22.8439C21.1972 23.1194 21.886 22.6372 21.7482 22.3617C21.6105 22.0862 21.8171 22.0173 22.0237 22.0173C22.2304 22.0173 22.0926 22.5683 22.2304 22.7061C22.437 22.8439 23.4014 23.4638 23.057 23.8082C22.7126 24.1526 22.2304 23.946 21.886 23.6705C21.5416 23.3949 20.6461 23.5327 20.3706 23.8082C20.1639 24.0837 19.9573 24.2215 19.544 24.2215C19.1307 24.2215 19.1996 24.9792 19.544 25.2547C19.8884 25.5992 20.3706 25.3236 20.715 25.5303C21.0594 25.7369 21.6105 25.2547 21.6793 25.5992C21.7482 25.9436 21.6105 26.9768 21.266 27.0457C20.9216 27.1146 19.8195 27.3212 19.0618 26.9768C18.2352 26.6324 17.4775 26.4946 17.4086 26.839C17.3398 27.2523 17.3398 27.5279 16.7887 27.1834C16.2376 26.839 15.7555 26.6324 15.4111 26.6324C15.0666 26.6324 15.0667 26.0124 15.1355 25.5303C15.2044 25.0481 14.3089 25.1859 13.7579 25.3236C13.2068 25.4614 12.1047 25.8058 11.4159 25.8058C10.7271 25.8058 10.4515 25.9436 10.3138 26.2191C10.176 26.4946 9.55608 26.4946 9.55608 27.0457C9.55608 27.5967 9.62496 27.7345 9.07391 28.01C8.45397 28.2167 8.3162 29.3188 8.04067 29.5943C7.76515 29.8698 8.3162 30.5587 8.04067 30.972C7.76515 31.3164 7.48962 32.2807 7.97179 32.4874C8.45397 32.694 8.93614 33.6584 9.14279 34.0028C9.34943 34.3472 10.1071 34.6916 10.8648 34.5538C11.6225 34.4161 13.0002 34.0028 13.7579 34.3472C14.5156 34.6916 15.2733 34.6227 14.9289 35.3115C14.5156 36.0004 15.1355 36.8958 15.6177 37.378C16.0999 37.8602 15.9621 39.1 15.6866 39.4445C15.4111 39.8578 15.4799 40.5466 15.7555 40.891C16.031 41.2354 16.1688 42.062 16.1688 42.3375C16.1688 42.6819 16.7198 43.3019 16.7887 43.9218C16.8576 44.6106 16.3754 45.3683 16.9954 45.3683C17.6153 45.3683 19.1996 45.4372 19.3373 45.1617C19.4751 44.8861 20.715 43.784 21.0594 43.3019C21.4038 42.8197 22.0926 41.9931 21.886 41.5109C21.4727 41.1665 21.7482 40.8221 22.437 40.5466C23.1259 40.271 23.1259 38.3423 22.7814 37.8602C22.437 37.378 23.057 36.207 23.8147 35.8626C24.5724 35.5182 26.3633 32.3496 25.8123 32.6251C25.1923 32.9007 24.0213 33.1073 23.608 32.8318C23.1947 32.5562 20.7839 28.4233 21.1283 28.1478C21.4727 27.8723 23.4014 31.9363 23.7458 32.4185C24.0902 32.9695 27.3277 30.972 27.741 30.4898C28.0854 30.0076 27.5343 29.5254 27.3277 29.5254C27.121 29.5254 26.3633 29.0433 26.1567 29.3188C25.95 29.5943 24.5724 27.3212 25.0546 27.5279C25.5367 27.7345 26.57 28.4233 27.5343 28.9744C28.4987 29.5254 29.6008 28.63 30.2207 29.6632C30.9095 30.6964 31.3228 30.0076 31.254 30.4898C31.1851 30.972 32.0805 32.9695 32.4249 33.5895C32.7005 34.2094 33.3204 33.314 33.3893 32.6251C33.4582 31.8674 34.9047 30.6964 35.4558 30.2831C35.9379 29.8698 36.9023 30.4898 37.0401 31.3164C37.1778 32.143 37.8666 31.1786 37.8666 31.7985C37.8666 32.4874 37.7289 33.3828 38.211 34.2094C39.1754 31.7985 39.6576 29.3877 39.6576 26.7701C39.6576 19.4686 35.8691 13.0626 30.2207 9.41185" fill="black"/>
<path d="M8.24734 12.0294C7.83405 12.1671 7.42076 12.6493 6.8697 12.3738C6.31864 12.0983 5.14765 12.5115 5.90535 13.1315C6.59417 13.8203 6.31864 14.2336 7.00746 14.3025C7.69628 14.3714 8.10958 13.407 8.59175 13.4759C9.07393 13.5448 8.72952 11.8916 8.24734 12.0294Z" fill="black"/>
<path d="M24.9857 38.9623C24.5035 39.0312 24.6413 39.9955 24.0902 40.1333C23.6081 40.271 24.0214 40.6843 23.7458 41.0287C23.5392 41.3732 23.4014 42.1997 23.7458 42.613C24.0902 43.0952 24.228 43.0952 24.6413 42.3375C25.0546 41.6487 26.0189 38.8934 24.9857 38.9623Z" fill="black"/>
<path d="M11.1404 16.6445C10.9338 16.6445 10.7271 16.7822 10.5205 16.7822C10.3138 16.8511 10.176 17.1266 10.176 17.4022C10.176 17.7466 10.7271 17.8155 10.5205 18.0221C10.3138 18.2288 9.2117 18.4354 9.34946 18.7798C9.48723 19.1242 9.69387 19.3998 9.48723 19.7442C9.28058 20.0886 9.69387 20.1575 10.1072 20.0197C10.5205 19.8819 10.796 19.3998 10.7271 19.1242C10.6582 18.7798 11.347 18.7109 11.1404 18.9865C10.9338 19.262 10.5893 19.9508 10.796 20.1575C11.0026 20.3641 10.2449 20.7085 10.5205 20.8463C10.796 20.984 11.5537 20.2952 11.967 20.433C12.3803 20.5708 12.518 20.2952 12.5869 19.9508C12.6558 19.5375 12.0359 19.0553 11.8292 18.5732C11.6226 18.0221 11.7603 16.6445 11.1404 16.6445" fill="black"/>
</mask>
<g mask="url(#mask0)">
<path d="M27.2641 45.1043C30.4702 43.559 33.1311 41.076 34.8941 37.9843C36.358 35.4301 36.8983 32.4498 36.4241 29.5443C35.8373 26.7938 34.4448 24.2803 32.4241 22.3243C30.6385 20.6628 28.6493 19.2347 26.5041 18.0743C24.1478 16.8034 21.9747 15.219 20.0441 13.3643C19.4346 12.6917 18.8826 11.9692 18.3941 11.2043C17.7726 10.0999 16.9031 9.1551 15.8541 8.44425C14.618 7.81524 13.192 7.66908 11.8541 8.03425C10.7956 8.16648 9.80196 8.61624 9.00408 9.32426L8.87408 9.48426C8.65656 9.75845 8.40827 10.0067 8.13407 10.2243L8.00408 10.3343L7.85407 10.4043C7.40733 10.6223 6.90888 10.7123 6.41408 10.6643H6.16408C5.80895 10.6841 5.46475 10.7942 5.16408 10.9843C4.75859 11.1791 4.37338 11.4136 4.01408 11.6843C3.55673 12.1061 3.19982 12.6251 2.96965 13.2032C2.73947 13.7812 2.64188 14.4035 2.68408 15.0243C2.82253 16.5179 3.2469 17.9709 3.93408 19.3043L4.28407 20.0743C4.92792 21.3594 5.44051 22.7062 5.81408 24.0943C6.20393 26.0701 6.27819 28.0952 6.03407 30.0942C5.92063 31.2874 5.88722 32.4867 5.93408 33.6842C6.11495 36.6057 7.19418 39.3998 9.02408 41.6842C13.1141 46.6842 20.7941 48.1343 27.2641 45.1043Z" fill="white"/>
</g>
</svg>
