<svg width="84" height="119" viewBox="0 0 84 119" fill="none" xmlns="http://www.w3.org/2000/svg">
<path d="M2.67577 85.3577V91.6577H5.26777C6.34777 91.6577 7.14877 91.0367 7.14877 89.9747C7.14877 89.0837 6.54577 88.6607 6.06877 88.5347V88.4447C6.53677 88.2917 7.13977 87.8957 7.13977 87.0047C7.13977 85.9877 6.34777 85.3577 5.28577 85.3577H2.67577ZM3.40477 86.0147H5.21377C5.95177 86.0147 6.41977 86.4467 6.41977 87.0677C6.41977 87.7157 5.97877 88.1567 5.22277 88.1567H3.40477V86.0147ZM3.40477 88.8227H5.19577C5.99677 88.8227 6.43777 89.2457 6.43777 89.9027C6.43777 90.5417 5.99677 91.0007 5.23177 91.0007H3.40477V88.8227ZM8.00503 85.8887C8.00503 86.2217 8.24803 86.4647 8.58103 86.4647C8.91403 86.4647 9.16603 86.2217 9.16603 85.8887C9.16603 85.5647 8.91403 85.3217 8.58103 85.3217C8.24803 85.3217 8.00503 85.5647 8.00503 85.8887ZM8.93203 87.2657H8.23903V91.6577H8.93203V87.2657ZM9.95515 89.4617C9.95515 90.8387 10.8641 91.7837 12.1961 91.7837C13.5281 91.7837 14.4461 90.8387 14.4461 89.4617C14.4461 88.0757 13.5281 87.1397 12.1961 87.1397C10.8641 87.1397 9.95515 88.0757 9.95515 89.4617ZM10.6391 89.4617C10.6391 88.4627 11.2601 87.7517 12.1961 87.7517C13.1321 87.7517 13.7531 88.4357 13.7531 89.4617C13.7531 90.4787 13.1321 91.1717 12.1961 91.1717C11.2601 91.1717 10.6391 90.5057 10.6391 89.4617ZM15.2384 85.8887C15.2384 86.2217 15.4814 86.4647 15.8144 86.4647C16.1474 86.4647 16.3994 86.2217 16.3994 85.8887C16.3994 85.5647 16.1474 85.3217 15.8144 85.3217C15.4814 85.3217 15.2384 85.5647 15.2384 85.8887ZM16.1654 87.2657H15.4724V91.6577H16.1654V87.2657ZM17.4675 87.2657V91.6577H18.1605V89.4347C18.1605 88.3367 18.7635 87.7697 19.6095 87.7697C20.3655 87.7697 20.8425 88.1567 20.8425 89.0387V91.6577H21.5265V88.9937C21.5265 87.8147 20.7525 87.1757 19.7895 87.1757C18.8805 87.1757 18.4395 87.5897 18.2325 88.0037H18.1425V87.2657H17.4675ZM22.229 87.2657V87.8417H23.597V91.6577H24.29V87.8417H25.685V87.2657H24.29V86.2037C24.29 86.0237 24.38 85.9337 24.542 85.9337H25.478V85.3577H24.317C23.876 85.3577 23.597 85.6367 23.597 86.0957V87.2657H22.229ZM26.2589 89.4617C26.2589 90.8387 27.1679 91.7837 28.4999 91.7837C29.8319 91.7837 30.7499 90.8387 30.7499 89.4617C30.7499 88.0757 29.8319 87.1397 28.4999 87.1397C27.1679 87.1397 26.2589 88.0757 26.2589 89.4617ZM26.9429 89.4617C26.9429 88.4627 27.5639 87.7517 28.4999 87.7517C29.4359 87.7517 30.0569 88.4357 30.0569 89.4617C30.0569 90.4787 29.4359 91.1717 28.4999 91.1717C27.5639 91.1717 26.9429 90.5057 26.9429 89.4617ZM32.4511 87.2657H31.7761V91.6577H32.4691V88.9577C32.4691 88.2017 32.8831 87.8507 33.5311 87.8507H34.2421V87.2477H33.6391C33.0541 87.2477 32.7121 87.4187 32.5411 87.8417H32.4511V87.2657ZM35.0633 87.2657V91.6577H35.7563V89.0027C35.7563 88.2017 36.2243 87.7697 36.8633 87.7697C37.4933 87.7697 37.8533 88.1477 37.8533 88.7327V91.6577H38.5463V89.0027C38.5463 88.2017 39.0143 87.7697 39.6623 87.7697C40.2833 87.7697 40.6523 88.1477 40.6523 88.7327V91.6577H41.3363V88.6787C41.3363 87.7517 40.7153 87.1757 39.8513 87.1757C39.1403 87.1757 38.7263 87.4907 38.4743 87.9767H38.3843C38.1953 87.5267 37.7723 87.1757 37.0883 87.1757C36.4313 87.1757 36.0353 87.4547 35.8283 87.8417H35.7383V87.2657H35.0633ZM42.4605 88.4807L43.1085 88.6787C43.2435 88.1207 43.6485 87.7247 44.3685 87.7247C45.0975 87.7247 45.4665 88.1207 45.4665 88.7507V89.0747H43.9635C43.0275 89.0747 42.3255 89.5157 42.3255 90.4067C42.3255 91.2887 43.0275 91.7837 43.9455 91.7837C44.8095 91.7837 45.1875 91.3787 45.3855 91.0277H45.4845V91.6577H46.1505V88.7867C46.1505 87.7517 45.4845 87.1397 44.3685 87.1397C43.2615 87.1397 42.6675 87.7427 42.4605 88.4807ZM43.0095 90.3977C43.0095 89.9027 43.4235 89.6417 43.9905 89.6417H45.4665V89.7497C45.4665 90.6587 44.8905 91.2077 44.0445 91.2077C43.4235 91.2077 43.0095 90.8927 43.0095 90.3977ZM46.766 87.8417H48.125V90.9197C48.125 91.3787 48.404 91.6577 48.845 91.6577H50.06V91.0817H49.061C48.899 91.0817 48.809 90.9917 48.809 90.8117V87.8417H50.258V87.2657H48.809V85.6907H48.125V87.2657H46.766V87.8417ZM51.0011 85.8887C51.0011 86.2217 51.2441 86.4647 51.5771 86.4647C51.9101 86.4647 52.1621 86.2217 52.1621 85.8887C52.1621 85.5647 51.9101 85.3217 51.5771 85.3217C51.2441 85.3217 51.0011 85.5647 51.0011 85.8887ZM51.9281 87.2657H51.2351V91.6577H51.9281V87.2657ZM52.9512 89.4617C52.9512 90.8207 53.9502 91.7837 55.2282 91.7837C56.4252 91.7837 57.1362 91.0457 57.3342 90.1097L56.6592 89.9567C56.5422 90.6587 56.0832 91.1717 55.2372 91.1717C54.3372 91.1717 53.6532 90.4697 53.6532 89.4617C53.6532 88.4537 54.3282 87.7517 55.2282 87.7517C56.0292 87.7517 56.5422 88.2467 56.6322 88.9577L57.3072 88.8137C57.1542 87.8867 56.3982 87.1397 55.2192 87.1397C53.9502 87.1397 52.9512 88.0937 52.9512 89.4617ZM58.1937 88.3997C58.1937 89.1827 58.8417 89.5337 59.6697 89.6687L60.1197 89.7317C60.7587 89.8397 61.1367 90.0197 61.1367 90.4607C61.1367 90.9197 60.7137 91.2257 60.0387 91.2257C59.3637 91.2257 58.7877 90.9467 58.6437 90.0467L57.9867 90.1997C58.1487 91.2887 58.9497 91.7837 60.0387 91.7837C61.1097 91.7837 61.8117 91.2797 61.8117 90.4247C61.8117 89.5607 61.1277 89.2907 60.2277 89.1377L59.7777 89.0747C59.2557 88.9847 58.8777 88.8047 58.8777 88.3817C58.8777 87.9407 59.2557 87.6977 59.8587 87.6977C60.4527 87.6977 60.8937 87.9497 61.0197 88.5977L61.6587 88.4267C61.4787 87.6167 60.8487 87.1397 59.8587 87.1397C58.8417 87.1397 58.1937 87.6167 58.1937 88.3997ZM2.47777 97.7877V99.2277C2.47777 100.893 3.44077 101.784 4.94377 101.784C6.44677 101.784 7.40977 100.893 7.40977 99.2277V97.7877C7.40977 96.1227 6.44677 95.2317 4.94377 95.2317C3.44077 95.2317 2.47777 96.1227 2.47777 97.7877ZM3.20677 97.7517C3.20677 96.5907 3.84577 95.8797 4.94377 95.8797C6.03277 95.8797 6.67177 96.5907 6.67177 97.7517V99.2637C6.67177 100.425 6.03277 101.127 4.94377 101.127C3.84577 101.127 3.20677 100.425 3.20677 99.2637V97.7517ZM8.53786 103.458H9.23086V100.92H9.32086C9.57286 101.352 10.0499 101.784 10.9589 101.784C12.1109 101.784 13.0379 100.875 13.0379 99.4617C13.0379 98.0397 12.1109 97.1397 10.9589 97.1397C10.0499 97.1397 9.57286 97.5717 9.30286 98.0217H9.21286V97.2657H8.53786V103.458ZM10.7879 101.172C9.87886 101.172 9.22186 100.515 9.22186 99.4617C9.22186 98.4087 9.87886 97.7427 10.7879 97.7427C11.7059 97.7427 12.3359 98.3997 12.3359 99.4617C12.3359 100.524 11.7059 101.172 10.7879 101.172ZM13.7782 99.4257C13.7782 100.776 14.6782 101.784 16.0462 101.784C17.2432 101.784 17.7472 101.109 18.0262 100.587L17.4322 100.281C17.1982 100.767 16.8112 101.172 16.0462 101.172C15.1642 101.172 14.5522 100.578 14.4892 99.6777H18.0982V99.3087C18.0982 97.9677 17.2252 97.1397 15.9832 97.1397C14.7052 97.1397 13.7782 98.1027 13.7782 99.4257ZM14.4982 99.1017C14.5972 98.2737 15.1552 97.7517 15.9832 97.7517C16.7932 97.7517 17.3422 98.2287 17.3872 99.1017H14.4982ZM19.0847 97.2657V101.658H19.7777V99.4347C19.7777 98.3367 20.3807 97.7697 21.2267 97.7697C21.9827 97.7697 22.4597 98.1567 22.4597 99.0387V101.658H23.1437V98.9937C23.1437 97.8147 22.3697 97.1757 21.4067 97.1757C20.4977 97.1757 20.0567 97.5897 19.8497 98.0037H19.7597V97.2657H19.0847ZM29.2495 95.2317C27.9805 95.2317 27.1075 95.8887 27.1075 96.9417C27.1075 98.0037 27.8365 98.4357 28.9435 98.6967L29.4205 98.8137C30.2665 99.0117 30.8245 99.2637 30.8245 99.9567C30.8245 100.65 30.2575 101.136 29.2675 101.136C28.2865 101.136 27.6115 100.641 27.6115 99.5427V99.4797H26.8825V99.5427C26.8825 101.046 27.8995 101.784 29.2675 101.784C30.6445 101.784 31.5445 101.046 31.5445 99.9477C31.5445 98.8407 30.7255 98.4267 29.6365 98.1747L29.1505 98.0577C28.3135 97.8597 27.8365 97.6257 27.8365 96.9327C27.8365 96.2577 28.3945 95.8797 29.2495 95.8797C30.1225 95.8797 30.7615 96.2577 30.7615 97.1757V97.4727H31.4905V97.1757C31.4905 95.8887 30.5185 95.2317 29.2495 95.2317ZM32.3321 99.4617C32.3321 100.839 33.2411 101.784 34.5731 101.784C35.9051 101.784 36.8231 100.839 36.8231 99.4617C36.8231 98.0757 35.9051 97.1397 34.5731 97.1397C33.2411 97.1397 32.3321 98.0757 32.3321 99.4617ZM33.0161 99.4617C33.0161 98.4627 33.6371 97.7517 34.5731 97.7517C35.5091 97.7517 36.1301 98.4357 36.1301 99.4617C36.1301 100.479 35.5091 101.172 34.5731 101.172C33.6371 101.172 33.0161 100.506 33.0161 99.4617ZM41.8814 101.658V97.2657H41.1974V99.4887C41.1974 100.587 40.5854 101.154 39.7484 101.154C38.9834 101.154 38.5064 100.767 38.5064 99.8847V97.2657H37.8224V99.9297C37.8224 101.109 38.5964 101.739 39.5594 101.739C40.4684 101.739 40.9094 101.334 41.1254 100.92H41.2154V101.658H41.8814ZM43.8681 97.2657H43.1931V101.658H43.8861V98.9577C43.8861 98.2017 44.3001 97.8507 44.9481 97.8507H45.6591V97.2477H45.0561C44.4711 97.2477 44.1291 97.4187 43.9581 97.8417H43.8681V97.2657ZM45.9727 99.4617C45.9727 100.821 46.9717 101.784 48.2497 101.784C49.4467 101.784 50.1577 101.046 50.3557 100.11L49.6807 99.9567C49.5637 100.659 49.1047 101.172 48.2587 101.172C47.3587 101.172 46.6747 100.47 46.6747 99.4617C46.6747 98.4537 47.3497 97.7517 48.2497 97.7517C49.0507 97.7517 49.5637 98.2467 49.6537 98.9577L50.3287 98.8137C50.1757 97.8867 49.4197 97.1397 48.2407 97.1397C46.9717 97.1397 45.9727 98.0937 45.9727 99.4617ZM51.0702 99.4257C51.0702 100.776 51.9702 101.784 53.3382 101.784C54.5352 101.784 55.0392 101.109 55.3182 100.587L54.7242 100.281C54.4902 100.767 54.1032 101.172 53.3382 101.172C52.4562 101.172 51.8442 100.578 51.7812 99.6777H55.3902V99.3087C55.3902 97.9677 54.5172 97.1397 53.2752 97.1397C51.9972 97.1397 51.0702 98.1027 51.0702 99.4257ZM51.7902 99.1017C51.8892 98.2737 52.4472 97.7517 53.2752 97.7517C54.0852 97.7517 54.6342 98.2287 54.6792 99.1017H51.7902ZM2.47777 109.165C2.47777 110.83 3.41377 111.784 4.96177 111.784C6.41977 111.784 7.30177 110.929 7.30177 109.543V109.363H6.57277V109.552C6.57277 110.506 6.05977 111.127 4.96177 111.127C3.86377 111.127 3.20677 110.407 3.20677 109.183V107.833C3.20677 106.609 3.85477 105.88 4.96177 105.88C6.00577 105.88 6.57277 106.528 6.57277 107.482V107.626H7.30177V107.491C7.30177 106.105 6.47377 105.232 4.96177 105.232C3.43177 105.232 2.47777 106.186 2.47777 107.851V109.165ZM8.07429 109.462C8.07429 110.839 8.98329 111.784 10.3153 111.784C11.6473 111.784 12.5653 110.839 12.5653 109.462C12.5653 108.076 11.6473 107.14 10.3153 107.14C8.98329 107.14 8.07429 108.076 8.07429 109.462ZM8.75829 109.462C8.75829 108.463 9.37929 107.752 10.3153 107.752C11.2513 107.752 11.8723 108.436 11.8723 109.462C11.8723 110.479 11.2513 111.172 10.3153 111.172C9.37929 111.172 8.75829 110.506 8.75829 109.462ZM13.5916 107.266V111.658H14.2846V109.435C14.2846 108.337 14.8876 107.77 15.7336 107.77C16.4896 107.77 16.9666 108.157 16.9666 109.039V111.658H17.6506V108.994C17.6506 107.815 16.8766 107.176 15.9136 107.176C15.0046 107.176 14.5636 107.59 14.3566 108.004H14.2666V107.266H13.5916ZM18.3531 107.266V107.842H19.7211V111.658H20.4141V107.842H21.8091V107.266H20.4141V106.204C20.4141 106.024 20.5041 105.934 20.6661 105.934H21.6021V105.358H20.4411C20.0001 105.358 19.7211 105.637 19.7211 106.096V107.266H18.3531ZM22.3739 109.426C22.3739 110.776 23.2739 111.784 24.6419 111.784C25.8389 111.784 26.3429 111.109 26.6219 110.587L26.0279 110.281C25.7939 110.767 25.4069 111.172 24.6419 111.172C23.7599 111.172 23.1479 110.578 23.0849 109.678H26.6939V109.309C26.6939 107.968 25.8209 107.14 24.5789 107.14C23.3009 107.14 22.3739 108.103 22.3739 109.426ZM23.0939 109.102C23.1929 108.274 23.7509 107.752 24.5789 107.752C25.3889 107.752 25.9379 108.229 25.9829 109.102H23.0939ZM28.3554 107.266H27.6804V111.658H28.3734V108.958C28.3734 108.202 28.7874 107.851 29.4354 107.851H30.1464V107.248H29.5434C28.9584 107.248 28.6164 107.419 28.4454 107.842H28.3554V107.266ZM30.451 109.426C30.451 110.776 31.351 111.784 32.719 111.784C33.916 111.784 34.42 111.109 34.699 110.587L34.105 110.281C33.871 110.767 33.484 111.172 32.719 111.172C31.837 111.172 31.225 110.578 31.162 109.678H34.771V109.309C34.771 107.968 33.898 107.14 32.656 107.14C31.378 107.14 30.451 108.103 30.451 109.426ZM31.171 109.102C31.27 108.274 31.828 107.752 32.656 107.752C33.466 107.752 34.015 108.229 34.06 109.102H31.171ZM35.7576 107.266V111.658H36.4506V109.435C36.4506 108.337 37.0536 107.77 37.8996 107.77C38.6556 107.77 39.1326 108.157 39.1326 109.039V111.658H39.8166V108.994C39.8166 107.815 39.0426 107.176 38.0796 107.176C37.1706 107.176 36.7296 107.59 36.5226 108.004H36.4326V107.266H35.7576ZM40.796 109.462C40.796 110.821 41.795 111.784 43.073 111.784C44.27 111.784 44.981 111.046 45.179 110.11L44.504 109.957C44.387 110.659 43.928 111.172 43.082 111.172C42.182 111.172 41.498 110.47 41.498 109.462C41.498 108.454 42.173 107.752 43.073 107.752C43.874 107.752 44.387 108.247 44.477 108.958L45.152 108.814C44.999 107.887 44.243 107.14 43.064 107.14C41.795 107.14 40.796 108.094 40.796 109.462ZM45.8934 109.426C45.8934 110.776 46.7934 111.784 48.1614 111.784C49.3584 111.784 49.8624 111.109 50.1414 110.587L49.5474 110.281C49.3134 110.767 48.9264 111.172 48.1614 111.172C47.2794 111.172 46.6674 110.578 46.6044 109.678H50.2134V109.309C50.2134 107.968 49.3404 107.14 48.0984 107.14C46.8204 107.14 45.8934 108.103 45.8934 109.426ZM46.6134 109.102C46.7124 108.274 47.2704 107.752 48.0984 107.752C48.9084 107.752 49.4574 108.229 49.5024 109.102H46.6134ZM53.7253 107.401V107.617H54.4543V107.437C54.4543 106.42 55.1023 105.88 56.0023 105.88C56.8663 105.88 57.4513 106.393 57.4513 107.257C57.4513 108.112 56.8303 108.544 55.7953 108.805C54.5533 109.111 53.6983 109.597 53.6983 110.884V111.658H58.1893V111.001H54.4453V110.812C54.4453 109.894 55.0573 109.669 56.1463 109.381C57.4333 109.048 58.1893 108.436 58.1893 107.266C58.1893 106.033 57.2533 105.232 56.0023 105.232C54.7333 105.232 53.7253 106.015 53.7253 107.401ZM59.009 107.797V109.219C59.009 110.902 59.873 111.784 61.304 111.784C62.735 111.784 63.599 110.902 63.599 109.219V107.797C63.599 106.132 62.735 105.232 61.304 105.232C59.873 105.232 59.009 106.132 59.009 107.797ZM59.738 107.752C59.738 106.6 60.278 105.88 61.304 105.88C62.33 105.88 62.87 106.591 62.87 107.752V109.264C62.87 110.416 62.366 111.127 61.304 111.127C60.26 111.127 59.738 110.434 59.738 109.264V107.752ZM64.4743 107.401V107.617H65.2033V107.437C65.2033 106.42 65.8513 105.88 66.7513 105.88C67.6153 105.88 68.2003 106.393 68.2003 107.257C68.2003 108.112 67.5793 108.544 66.5443 108.805C65.3023 109.111 64.4473 109.597 64.4473 110.884V111.658H68.9383V111.001H65.1943V110.812C65.1943 109.894 65.8063 109.669 66.8953 109.381C68.1823 109.048 68.9383 108.436 68.9383 107.266C68.9383 106.033 68.0023 105.232 66.7513 105.232C65.4823 105.232 64.4743 106.015 64.4743 107.401ZM71.117 105.358L69.353 108.085H70.172L71.423 106.15H71.531V111.658H72.26L72.269 105.358H71.117Z" fill="white"/>
<path d="M2.24504 58.6402V78.5477H11.0612C14.4739 78.5477 16.9482 76.5285 16.9482 73.1726C16.9482 70.2718 15.0143 69.0489 13.5639 68.6508V68.3664C15.0143 67.9398 16.8628 66.7738 16.8628 63.9014C16.8628 60.6594 14.4455 58.6402 11.0043 58.6402H2.24504ZM5.544 61.6263H10.6631C12.4832 61.6263 13.7061 62.6785 13.7061 64.328C13.7061 65.9775 12.5116 67.0582 10.6631 67.0582H5.544V61.6263ZM5.544 70.0159H10.6631C12.6254 70.0159 13.7914 71.0681 13.7914 72.8029C13.7914 74.4808 12.6254 75.5615 10.72 75.5615H5.544V70.0159ZM19.0302 66.2335V70.9544C19.0302 76.1019 22.187 78.9458 27.107 78.9458C32.027 78.9458 35.1553 76.1019 35.1553 70.9544V66.2335C35.1553 61.0859 32.027 58.242 27.107 58.242C22.187 58.242 19.0302 61.0859 19.0302 66.2335ZM22.3292 66.1197C22.3292 63.1051 24.0924 61.1713 27.107 61.1713C30.0931 61.1713 31.8564 63.1051 31.8564 66.1197V71.0681C31.8564 74.0827 30.0931 76.0166 27.107 76.0166C24.0924 76.0166 22.3292 74.0827 22.3292 71.0681V66.1197ZM44.5296 58.242C40.349 58.242 37.6189 60.375 37.6189 63.9299C37.6189 67.4563 39.9509 68.8499 43.9039 69.7315L44.8424 69.9306C47.4304 70.5278 48.9093 71.1819 48.9093 73.002C48.9093 74.7937 47.4589 76.045 44.7287 76.045C41.9701 76.045 40.2353 74.7368 40.2353 72.0066V71.7507H36.9932V72.0066C36.9932 76.4716 40.2068 78.9458 44.7287 78.9458C49.2505 78.9458 52.1513 76.5 52.1513 72.9167C52.1513 69.3333 49.4781 67.8829 45.4965 67.0298L44.5581 66.8022C42.0554 66.2335 40.8609 65.5225 40.8609 63.8161C40.8609 62.1382 42.1407 61.1428 44.5296 61.1428C46.9754 61.1428 48.568 62.1382 48.568 64.6124V65.2381H51.8101V64.6124C51.8101 60.375 48.7102 58.242 44.5296 58.242ZM54.0794 70.8691C54.0794 76.045 57.2078 78.9458 62.1562 78.9458C67.0478 78.9458 69.8917 76.1303 69.8917 71.8076V71.125H66.6212V71.8644C66.6212 74.1965 65.1423 76.0166 62.1562 76.0166C59.1985 76.0166 57.3784 74.0827 57.3784 70.9259V66.2619C57.3784 63.1051 59.1701 61.1713 62.1562 61.1713C65.0854 61.1713 66.6212 63.0198 66.6212 65.3518V65.8922H69.8917V65.4087C69.8917 61.0575 67.1046 58.242 62.1562 58.242C57.2078 58.242 54.0794 61.1428 54.0794 66.3188V70.8691Z" fill="white"/>
<path d="M54.2603 29.3362C53.607 26.1835 52.0177 23.3013 49.7003 21.0662C47.7954 19.2845 45.6717 17.7522 43.3803 16.5062C41.1927 15.3221 39.1746 13.8489 37.3803 12.1262C36.8484 11.5339 36.3667 10.8984 35.9403 10.2262C35.157 8.85824 34.056 7.69891 32.7303 6.84621C31.0596 5.97301 29.123 5.75545 27.3003 6.23621C25.8264 6.45888 24.4591 7.13726 23.3903 8.17621C22.4003 6.91621 20.8703 4.46621 21.7803 2.30621C21.8375 2.18443 21.8697 2.05234 21.8747 1.91785C21.8797 1.78336 21.8575 1.64924 21.8095 1.52353C21.7614 1.39782 21.6885 1.2831 21.5951 1.18624C21.5016 1.08939 21.3896 1.01239 21.2657 0.959863C21.1418 0.907337 21.0085 0.880362 20.8739 0.880555C20.7394 0.880748 20.6062 0.908105 20.4824 0.960987C20.3587 1.01387 20.2469 1.09119 20.1537 1.18831C20.0606 1.28543 19.9879 1.40036 19.9403 1.52621C18.7403 4.35621 20.2603 7.27621 21.4703 8.91621C20.9543 8.99358 20.4564 9.16293 20.0003 9.41621C19.4567 9.66731 18.9434 9.9793 18.4703 10.3462C17.7783 10.9724 17.2384 11.7483 16.8918 12.6148C16.5452 13.4813 16.401 14.4155 16.4703 15.3462C16.613 17.0895 17.0954 18.7881 17.8903 20.3462L18.2503 21.1262C18.8341 22.2738 19.303 23.4763 19.6503 24.7162C19.9904 26.4961 20.0477 28.3185 19.8203 30.1162C19.7006 31.3992 19.6672 32.6888 19.7203 33.9762C19.9234 37.3255 21.1602 40.5293 23.2603 43.1462C24.825 44.9928 26.7807 46.4684 28.9858 47.4663C31.1909 48.4642 33.5903 48.9594 36.0103 48.9162C38.7342 48.9146 41.4245 48.3137 43.8903 47.1562C47.4688 45.4334 50.4398 42.6646 52.4103 39.2162C54.1599 36.2393 54.8142 32.7445 54.2603 29.3362ZM50.6803 38.2162C48.9172 41.3079 46.2564 43.7909 43.0503 45.3362C36.5803 48.3662 28.9003 46.9162 24.8103 41.9162C22.9804 39.6317 21.9011 36.8376 21.7203 33.9162C21.6734 32.7187 21.7068 31.5193 21.8203 30.3262C22.0644 28.3271 21.9901 26.302 21.6003 24.3262C21.2267 22.9382 20.7141 21.5914 20.0703 20.3062L19.7203 19.5362C19.0331 18.2029 18.6087 16.7498 18.4703 15.2562C18.4281 14.6355 18.5257 14.0132 18.7558 13.4351C18.986 12.8571 19.3429 12.338 19.8003 11.9162C20.1596 11.6455 20.5448 11.411 20.9503 11.2162C21.2509 11.0262 21.5951 10.916 21.9503 10.8962H22.2003C22.6951 10.9443 23.1935 10.8543 23.6403 10.6362L23.7903 10.5662L23.9203 10.4562C24.1945 10.2387 24.4427 9.9904 24.6603 9.71621L24.7903 9.55621C25.5881 8.84819 26.5818 8.39844 27.6403 8.26621C28.9782 7.90104 30.4042 8.0472 31.6403 8.67621C32.6893 9.38706 33.5588 10.3319 34.1803 11.4362C34.6688 12.2011 35.2208 12.9237 35.8303 13.5962C37.7608 15.4509 39.934 17.0354 42.2903 18.3062C44.4355 19.4667 46.4247 20.8948 48.2103 22.5562C50.231 24.5122 51.6235 27.0257 52.2103 29.7762C52.6845 32.6818 52.1442 35.662 50.6803 38.2162Z" fill="white"/>
<mask id="mask0" mask-type="alpha" maskUnits="userSpaceOnUse" x="21" y="8" width="35" height="38">
<path d="M46.0165 9.49071C46.2231 10.1795 46.4298 10.9372 45.741 10.5928C44.57 9.97289 43.0546 9.28407 43.5367 9.76624C44.0189 10.2484 44.2256 10.7995 43.4679 10.7306C42.7102 10.6617 41.3325 10.4551 40.7126 11.3505C40.0926 12.246 39.266 12.0394 39.0594 12.3838C38.8528 12.7282 38.5083 14.1747 37.8884 13.6925C37.2685 13.2792 36.0286 11.6949 37.0618 12.1082C38.095 12.5215 39.266 12.0393 38.3017 10.9372C37.3373 9.83512 36.373 10.2484 35.9597 9.62848C35.5464 9.00854 34.1688 8.25083 33.1355 9.76624C32.1712 11.2816 31.2757 13.2792 30.7247 13.6925C30.1736 14.1058 29.0026 14.8635 29.2093 15.4835C29.347 16.1034 29.4159 17.5499 30.0358 17.1366C30.6558 16.7233 31.0002 16.5167 31.2757 16.93C31.4824 17.3433 31.4135 18.1699 31.8957 18.1699C31.8957 18.1699 32.86 17.481 32.9289 16.8611C32.9978 16.2412 32.2401 15.8967 32.7911 15.0013C33.3422 14.1058 34.5821 12.3838 34.3065 13.2792C34.031 14.1058 33.4111 15.3457 33.8932 15.8967C34.3065 16.4478 36.7174 15.759 35.6153 16.31C34.5132 16.8611 33.9621 17.2744 33.7555 17.9632C33.5488 18.652 33.3422 19.2031 32.7911 18.9276C32.2401 18.652 31.5512 18.7898 31.2757 18.7898C31.0002 18.7898 30.8624 17.5499 30.3803 17.8254C29.967 18.101 30.518 18.9964 30.0358 19.0653C29.5537 19.1342 29.4848 19.6853 28.9337 20.0986C28.3827 20.5119 27.625 21.3384 27.1428 21.4073C26.6606 21.4762 27.9005 22.0961 27.6938 22.6472C27.4872 23.2671 26.3851 23.1983 25.9718 23.2671C25.5585 23.336 25.9029 24.1626 25.6963 24.6448C25.4896 25.127 25.9029 25.6091 26.5917 25.6091C27.2806 25.6091 27.9694 25.4714 28.0383 24.8514C28.1071 24.2315 28.7271 23.1983 29.2093 23.4049C29.6225 23.6115 30.6558 22.9916 30.8624 23.336C31.0691 23.6804 32.3778 24.8514 32.2401 24.9892C32.1023 25.127 31.3446 25.4714 31.6201 25.6091C31.6201 25.6091 31.8268 25.9535 31.9645 25.8847C32.1023 25.8158 32.4467 24.9203 32.6534 24.7825C32.86 24.6448 32.86 24.1626 32.5845 23.956C32.2401 23.7493 31.0691 22.9227 31.3446 22.5094C31.6201 22.0961 32.2401 22.9916 32.5156 23.2671C32.7911 23.5427 33.2044 23.8871 33.2044 24.507C33.2044 25.127 33.6177 25.127 33.6177 25.4025C33.6866 25.7469 33.8244 25.8158 34.1688 25.8158C34.5132 25.7469 34.6509 24.9892 34.5132 24.7825C34.3065 24.5759 34.3065 24.1626 34.7198 24.1626C35.1331 24.1626 35.6153 23.8182 35.6153 23.6115C35.6153 23.4049 36.0286 22.165 36.3041 22.165C36.5796 22.165 36.7863 22.6472 36.8552 22.9227C36.9929 23.1983 37.6818 22.7161 37.544 22.4406C37.4062 22.165 37.6129 22.0961 37.8195 22.0961C38.0262 22.0961 37.8884 22.6472 38.0262 22.785C38.2328 22.9227 39.1972 23.5427 38.8528 23.8871C38.5083 24.2315 38.0262 24.0248 37.6818 23.7493C37.3373 23.4738 36.4419 23.6115 36.1664 23.8871C35.9597 24.1626 35.7531 24.3004 35.3398 24.3004C34.9265 24.3004 34.9954 25.0581 35.3398 25.3336C35.6842 25.678 36.1664 25.4025 36.5108 25.6091C36.8552 25.8158 37.4062 25.3336 37.4751 25.678C37.544 26.0224 37.4062 27.0557 37.0618 27.1245C36.7174 27.1934 35.6153 27.4001 34.8576 27.0557C34.031 26.7112 33.2733 26.5735 33.2044 26.9179C33.1355 27.3312 33.1355 27.6067 32.5845 27.2623C32.0334 26.9179 31.5512 26.7112 31.2068 26.7112C30.8624 26.7112 30.8624 26.0913 30.9313 25.6091C31.0002 25.127 30.1047 25.2647 29.5537 25.4025C29.0026 25.5402 27.9005 25.8847 27.2117 25.8847C26.5229 25.8847 26.2473 26.0224 26.1096 26.2979C25.9718 26.5735 25.3519 26.5735 25.3519 27.1245C25.3519 27.6756 25.4207 27.8134 24.8697 28.0889C24.2497 28.2955 24.112 29.3976 23.8365 29.6732C23.5609 29.9487 24.112 30.6375 23.8365 31.0508C23.5609 31.3952 23.2854 32.3596 23.7676 32.5662C24.2497 32.7729 24.7319 33.7372 24.9386 34.0816C25.1452 34.426 25.9029 34.7704 26.6606 34.6327C27.4183 34.4949 28.796 34.0816 29.5537 34.426C30.3114 34.7705 31.0691 34.7016 30.7247 35.3904C30.3114 36.0792 30.9313 36.9747 31.4135 37.4569C31.8957 37.939 31.7579 39.1789 31.4824 39.5233C31.2068 39.9366 31.2757 40.6254 31.5512 40.9698C31.8268 41.3143 31.9645 42.1408 31.9645 42.4164C31.9645 42.7608 32.5156 43.3807 32.5845 44.0007C32.6534 44.6895 32.1712 45.4472 32.7911 45.4472C33.4111 45.4472 34.9954 45.5161 35.1331 45.2405C35.2709 44.965 36.5108 43.8629 36.8552 43.3807C37.1996 42.8985 37.8884 42.072 37.6818 41.5898C37.2685 41.2454 37.544 40.901 38.2328 40.6254C38.9216 40.3499 38.9216 38.4212 38.5772 37.939C38.2328 37.4569 38.8528 36.2859 39.6105 35.9414C40.3682 35.597 42.1591 32.4285 41.608 32.704C40.9881 32.9795 39.8171 33.1862 39.4038 32.9106C38.9905 32.6351 36.5796 28.5022 36.9241 28.2266C37.2685 27.9511 39.1972 32.0152 39.5416 32.4973C39.886 33.0484 43.1234 31.0508 43.5367 30.5686C43.8811 30.0865 43.3301 29.6043 43.1234 29.6043C42.9168 29.6043 42.1591 29.1221 41.9525 29.3976C41.7458 29.6732 40.3682 27.4001 40.8503 27.6067C41.3325 27.8134 42.3657 28.5022 43.3301 29.0532C44.2944 29.6043 45.3966 28.7088 46.0165 29.7421C46.7053 30.7753 47.1186 30.0865 47.0497 30.5686C46.9808 31.0508 47.8763 33.0484 48.2207 33.6683C48.4963 34.2883 49.1162 33.3928 49.1851 32.704C49.254 31.9463 50.7005 30.7753 51.2515 30.362C51.7337 29.9487 52.6981 30.5686 52.8358 31.3952C52.9736 32.2218 53.6624 31.2575 53.6624 31.8774C53.6624 32.5662 53.5246 33.4617 54.0068 34.2883C54.9712 31.8774 55.4533 29.4665 55.4533 26.849C55.4533 19.5475 51.6648 13.1415 46.0165 9.49071" fill="black"/>
<path d="M24.0431 12.1082C23.6298 12.246 23.2165 12.7282 22.6655 12.4526C22.1144 12.1771 20.9434 12.5904 21.7011 13.2103C22.3899 13.8992 22.1144 14.3125 22.8032 14.3813C23.4921 14.4502 23.9054 13.4859 24.3875 13.5548C24.8697 13.6236 24.5253 11.9705 24.0431 12.1082Z" fill="black"/>
<path d="M40.7814 39.0411C40.2993 39.11 40.437 40.0744 39.886 40.2121C39.4038 40.3499 39.8171 40.7632 39.5416 41.1076C39.3349 41.452 39.1972 42.2786 39.5416 42.6919C39.886 43.1741 40.0237 43.1741 40.437 42.4163C40.8503 41.7275 41.8147 38.9722 40.7814 39.0411Z" fill="black"/>
<path d="M26.9362 16.7233C26.7295 16.7233 26.5229 16.8611 26.3162 16.8611C26.1096 16.93 25.9718 17.2055 25.9718 17.481C25.9718 17.8254 26.5229 17.8943 26.3162 18.101C26.1096 18.3076 25.0075 18.5143 25.1452 18.8587C25.283 19.2031 25.4896 19.4786 25.283 19.823C25.0764 20.1674 25.4896 20.2363 25.9029 20.0986C26.3162 19.9608 26.5918 19.4786 26.5229 19.2031C26.454 18.8587 27.1428 18.7898 26.9362 19.0653C26.7295 19.3408 26.3851 20.0297 26.5918 20.2363C26.7984 20.443 26.0407 20.7874 26.3162 20.9251C26.5918 21.0629 27.3495 20.3741 27.7628 20.5118C28.1761 20.6496 28.3138 20.3741 28.3827 20.0297C28.4516 19.6164 27.8316 19.1342 27.625 18.652C27.4183 18.101 27.5561 16.7233 26.9362 16.7233" fill="black"/>
</mask>
<g mask="url(#mask0)">
<path d="M43.0599 45.1831C46.266 43.6379 48.9268 41.1548 50.6899 38.0631C52.1538 35.5089 52.6941 32.5287 52.2199 29.6231C51.6331 26.8726 50.2406 24.3592 48.2199 22.4031C46.4343 20.7417 44.4451 19.3136 42.2998 18.1531C39.9436 16.8823 37.7704 15.2978 35.8399 13.4431C35.2304 12.7706 34.6784 12.048 34.1899 11.2831C33.5684 10.1788 32.6989 9.23396 31.6498 8.52311C30.4138 7.8941 28.9878 7.74793 27.6498 8.11311C26.5914 8.24534 25.5977 8.69509 24.7999 9.40312L24.6699 9.56312C24.4523 9.83731 24.204 10.0856 23.9298 10.3031L23.7999 10.4131L23.6498 10.4831C23.2031 10.7012 22.7047 10.7912 22.2099 10.7431H21.9599C21.6047 10.7629 21.2605 10.8731 20.9599 11.0631C20.5544 11.2579 20.1692 11.4924 19.8099 11.7631C19.3525 12.1849 18.9956 12.704 18.7654 13.282C18.5352 13.8601 18.4377 14.4824 18.4799 15.1031C18.6183 16.5967 19.0427 18.0498 19.7299 19.3831L20.0799 20.1531C20.7237 21.4383 21.2363 22.7851 21.6099 24.1731C21.9997 26.1489 22.074 28.1741 21.8299 30.1731C21.7164 31.3662 21.683 32.5656 21.7299 33.7631C21.9107 36.6845 22.99 39.4786 24.8199 41.7631C28.9099 46.7631 36.5899 48.2131 43.0599 45.1831Z" fill="white"/>
</g>
</svg>
