<?xml version="1.0" standalone="no"?><!-- Generator: Gravit.io --><svg xmlns="http://www.w3.org/2000/svg" xmlns:xlink="http://www.w3.org/1999/xlink" style="isolation:isolate" viewBox="-1323 -991.667 5958.333 5958.333" width="5958.333" height="5958.333"><defs><clipPath id="_clipPath_h8mvbBiOmsmEZ7VQjpus3MFZXKsujyGR"><rect x="-1323" y="-991.667" width="5958.333" height="5958.333"/></clipPath></defs><g clip-path="url(#_clipPath_h8mvbBiOmsmEZ7VQjpus3MFZXKsujyGR)"><g opacity="0.85"><rect x="-1323" y="-991.667" width="5958.333" height="5958.333" transform="matrix(1,0,0,1,0,0)" fill="rgb(102,189,126)"/></g><g><g><g><path d=" M 108.335 798.018 C 216.781 630.421 429.813 649.788 630.502 569.511 C 831.191 489.235 1005.487 314.938 1084.357 117.762 C 1163.226 -79.414 1143.723 -293.954 1313.142 -403.577 C 1482.561 -513.2 1833.627 -513.2 2001.225 -404.754 C 2168.824 -296.307 2149.107 -79.414 2227.977 117.763 C 2306.848 314.94 2481.781 489.873 2681.763 569.866 C 2881.746 649.858 3095.551 630.421 3203.998 798.022 C 3312.445 965.622 3312.445 1320.532 3203.998 1488.134 C 3095.55 1655.736 2878.658 1636.019 2681.483 1714.888 C 2484.308 1793.757 2306.849 1971.217 2227.978 2168.393 C 2149.107 2365.568 2168.824 2582.458 2001.222 2690.908 C 1833.62 2799.357 1478.711 2799.357 1311.11 2690.909 C 1143.509 2582.461 1163.227 2365.568 1084.356 2168.393 C 1005.486 1971.218 828.026 1793.758 630.852 1714.888 C 433.679 1636.019 216.784 1655.736 108.336 1488.136 C -0.112 1320.535 -0.112 965.615 108.335 798.018 Z " fill-rule="evenodd" fill="none" vector-effect="non-scaling-stroke" stroke-width="59.153" stroke="rgb(255,255,255)" stroke-linejoin="miter" stroke-linecap="butt" stroke-miterlimit="4"/><path d=" M 805.73 -195.377 C 1000.922 -237.203 1137.864 -72.873 1336.537 12.272 C 1535.21 97.417 1781.702 97.417 1976.896 13.761 C 2172.09 -69.894 2310.002 -235.388 2507.314 -193.106 C 2704.626 -150.823 2952.867 97.418 2994.695 292.611 C 3036.522 487.804 2869.213 627.229 2785.557 822.423 C 2701.902 1017.618 2701.902 1265.012 2786.747 1462.984 C 2871.593 1660.956 3036.52 1798.395 2994.693 1993.59 C 2952.865 2188.785 2701.906 2439.744 2506.709 2481.573 C 2311.513 2523.402 2172.089 2356.094 1976.896 2272.439 C 1781.704 2188.784 1530.738 2188.784 1335.543 2272.438 C 1140.349 2356.092 1000.927 2523.398 805.729 2481.571 C 610.531 2439.744 359.572 2188.786 317.745 1993.59 C 275.918 1798.394 443.227 1658.97 526.881 1463.776 C 610.534 1268.583 610.534 1017.616 526.881 822.424 C 443.228 627.232 275.918 487.807 317.745 292.611 C 359.572 97.415 610.538 -153.551 805.73 -195.377 L 805.73 -195.377 Z " fill-rule="evenodd" fill="none" vector-effect="non-scaling-stroke" stroke-width="177.458" stroke="rgb(255,255,255)" stroke-linejoin="miter" stroke-linecap="butt" stroke-miterlimit="4"/></g></g><g><linearGradient id="_lgradient_20" x1="0.3764485132505324" y1="1.0425847643096884" x2="0.638516668577901" y2="0.07551902024893475" gradientTransform="matrix(1110.487,0,0,873.977,1076.477,686.505)" gradientUnits="userSpaceOnUse"><stop offset="0%" stop-opacity="1" style="stop-color:rgb(243,219,81)"/><stop offset="10%" stop-opacity="1" style="stop-color:rgb(244,222,97)"/><stop offset="20%" stop-opacity="1" style="stop-color:rgb(245,224,113)"/><stop offset="30.000000000000004%" stop-opacity="1" style="stop-color:rgb(245,227,127)"/><stop offset="40%" stop-opacity="1" style="stop-color:rgb(246,229,141)"/><stop offset="50%" stop-opacity="1" style="stop-color:rgb(247,231,154)"/><stop offset="60%" stop-opacity="1" style="stop-color:rgb(248,233,165)"/><stop offset="70%" stop-opacity="1" style="stop-color:rgb(248,235,175)"/><stop offset="80%" stop-opacity="1" style="stop-color:rgb(249,236,184)"/><stop offset="89.99999999999999%" stop-opacity="1" style="stop-color:rgb(249,238,191)"/><stop offset="99.99999999999999%" stop-opacity="1" style="stop-color:rgb(250,238,195)"/></linearGradient><path d=" M 1462.495 689.062 C 1437.227 694.613 1407.993 688.285 1379.939 702.687 L 1379.939 702.687 C 1351.946 717.048 1327.051 731.043 1321.773 732.426 L 1321.773 732.426 C 1310.57 735.349 1264.815 753.822 1236.425 784.536 L 1236.425 784.536 C 1219.634 802.669 1196.523 828.741 1180.345 847.341 L 1180.345 847.341 C 1153.768 877.854 1156.728 905.07 1149.125 912.337 L 1149.125 912.337 C 1133.647 927.173 1095.363 1004.282 1081.604 1069.378 L 1081.604 1069.378 C 1070.068 1123.944 1081.604 1167.174 1081.604 1185.74 L 1081.604 1185.74 C 1081.604 1193.983 1079.858 1244.646 1092.877 1286.9 L 1092.877 1286.9 C 1108.988 1339.246 1140.813 1384.901 1144.446 1393.913 L 1144.446 1393.913 C 1151.679 1411.881 1212.368 1472.638 1262.191 1506.713 L 1262.191 1506.713 C 1289.44 1525.32 1314.369 1524.678 1323.351 1530.868 L 1323.351 1530.868 C 1334.385 1538.407 1374.519 1566.292 1418.088 1559.395 L 1418.088 1559.395 C 1436.958 1556.438 1461.785 1555.665 1482.004 1547.083 L 1482.004 1547.083 C 1493.61 1542.137 1501.146 1528.176 1511.675 1526.161 L 1511.675 1526.161 C 1546.797 1519.463 1571.288 1499.379 1583.604 1499.379 L 1583.604 1499.379 C 1607.722 1499.379 1630.194 1503.991 1650.887 1495.477 L 1650.887 1495.477 C 1661.114 1491.272 1696.538 1503.483 1757.863 1519.029 L 1757.863 1519.029 C 1760.891 1519.8 1788.211 1531.611 1792.615 1533.626 L 1792.615 1533.626 C 1811.757 1542.343 1820.806 1538.571 1835.238 1541.468 L 1835.238 1541.468 C 1861.411 1546.713 1875.877 1534.232 1901.377 1530.265 L 1901.377 1530.265 C 1947.971 1522.999 1992.717 1495.043 2031.472 1487.638 L 2031.472 1487.638 C 2086.372 1477.142 2122.573 1385.57 2127.649 1377.194 L 2127.649 1377.194 C 2132.528 1369.157 2201.492 1350.819 2184.033 1301.5 L 2184.033 1301.5 C 2171.518 1266.147 2196.244 1184.563 2182.858 1148.974 L 2182.858 1148.974 C 2164.356 1099.723 2103.229 1037.651 2103.229 1027.865 L 2103.229 1027.865 C 2103.229 1005.086 1826.458 930.372 1816.635 910.961 L 1816.635 910.961 C 1809.133 896.192 1810.953 844.852 1766.815 828.267 L 1766.815 828.267 C 1738.519 817.602 1744.676 788.267 1735.424 782.282 L 1735.424 782.282 C 1725.803 776.089 1717.292 757.923 1699.529 743.057 L 1699.529 743.057 C 1691.66 736.459 1675.173 730.205 1667.031 719.504 L 1667.031 719.504 C 1642.005 686.606 1534.081 689.062 1516.823 689.062 L 1516.823 689.062 C 1513.391 689.062 1502.051 686.505 1487.097 686.505 L 1487.097 686.505 C 1479.622 686.505 1471.238 687.144 1462.495 689.062 Z " fill="url(#_lgradient_20)"/><clipPath id="_clipPath_FiavwB7oDtlWtMpdo8HCBdTTBNikzrs6"><path d=" M 766.871 560.7 L 2449.48 560.7 L 2449.48 1754.028 L 766.871 1754.028 L 766.871 560.7 Z " fill="rgb(255,255,255)"/></clipPath><g clip-path="url(#_clipPath_FiavwB7oDtlWtMpdo8HCBdTTBNikzrs6)"><path d=" M 1039.906 1135.565 C 1042.594 1149.038 1042.594 1173.765 1039.906 1187.238 L 1039.906 1135.565 Z " fill-rule="evenodd" fill="rgb(254,254,254)"/><path d=" M 2223.528 1193.681 L 2223.528 1264.766 C 2221.408 1265.304 2221.005 1267.592 2218.717 1267.995 C 2173.839 1276.439 2181.072 1231.999 2178.347 1193.681 C 2174.479 1140.023 2152.645 1105.608 2128.255 1072.572 C 2114.799 1054.339 2100.535 1033.582 2081.427 1020.899 C 2033.05 988.772 1950.864 980.664 1892.53 956.308 C 1860.54 942.986 1829.486 924.853 1806.913 896.561 C 1797.796 885.122 1794.6 875.064 1785.92 861.035 C 1771.219 837.284 1752.447 815.788 1735.862 791.599 C 1712.178 757.05 1688.73 738.715 1650.312 720.549 C 1640.96 716.142 1632.448 710.524 1624.442 707.63 C 1572.062 688.724 1484.998 683.24 1430.701 693.097 C 1404.965 697.773 1377.716 710.187 1351.576 720.549 C 1286.009 746.587 1239.012 789.043 1196.523 841.658 C 1184.278 856.864 1172.268 874.189 1162.612 893.331 C 1147.272 923.877 1128.87 949.647 1117.398 983.759 C 1113.933 994.154 1114.169 1004.751 1110.973 1014.44 C 1108.349 1022.278 1101.789 1029.209 1099.636 1037.047 C 1096.473 1048.721 1095.801 1063.59 1093.177 1077.417 C 1087.592 1107.021 1082.041 1157.281 1086.717 1195.293 C 1088.332 1208.282 1094.489 1221.537 1096.406 1235.663 C 1102.394 1279.467 1115.178 1313.142 1131.932 1347.086 C 1146.666 1376.926 1173.411 1409.558 1199.753 1435.9 C 1226.868 1463.015 1253.377 1491.879 1282.107 1508.565 C 1292.805 1514.789 1305.454 1518.758 1316.017 1524.71 C 1338.86 1537.631 1375.966 1561.651 1416.134 1557.009 C 1426.529 1555.828 1435.747 1547.993 1446.815 1545.705 C 1456.268 1543.788 1467.269 1546.681 1477.496 1544.124 C 1486.815 1541.769 1494.384 1533.628 1503.333 1529.557 C 1510.162 1526.496 1518.37 1526.126 1525.94 1523.098 C 1536.301 1519.027 1545.082 1511.626 1555.039 1508.565 C 1594.804 1496.353 1646.783 1481.686 1698.722 1492.417 C 1707.671 1494.267 1715.946 1501.295 1724.559 1503.754 C 1732.33 1505.907 1740.437 1504.898 1747.199 1506.984 C 1771.656 1514.419 1793.523 1528.548 1818.25 1532.787 C 1864.611 1540.76 1922.841 1522.122 1960.317 1508.565 C 1985.818 1499.381 2002.302 1487.808 2023.328 1474.654 C 2074.029 1442.897 2114.799 1409.289 2144.437 1355.16 C 2149.248 1346.346 2155.404 1339.382 2158.936 1332.553 C 2165.059 1320.846 2162.771 1309.071 2171.858 1306.717 C 2180.097 1304.627 2198.129 1315.497 2200.954 1322.861 C 2206.071 1336.287 2195.942 1354.151 2189.617 1366.464 C 2170.341 1404.277 2157.759 1418.739 2126.641 1448.818 C 2112.145 1462.88 2095.22 1478.086 2079.845 1487.573 C 2046.339 1508.262 2008.391 1516.504 1979.729 1537.631 C 1971.557 1538.809 1970.679 1532.686 1961.932 1534.402 C 1956.284 1544.894 1940.671 1545.436 1931.251 1552.164 C 1916.89 1550.916 1902.791 1549.641 1889.3 1552.164 C 1883.783 1553.207 1878.67 1557.816 1873.119 1558.62 C 1850.243 1562.021 1828.813 1551.357 1805.298 1555.394 C 1795.407 1540.861 1780.841 1539.414 1758.469 1539.246 C 1753.46 1535.041 1747.603 1526.159 1739.092 1523.098 C 1731.926 1520.541 1721.127 1524.444 1713.289 1521.48 C 1706.863 1519.091 1702.658 1511.727 1697.141 1510.213 C 1671.977 1503.182 1646.51 1511.189 1624.442 1510.213 C 1595.88 1525.991 1557.361 1525.217 1525.94 1537.631 C 1520.927 1539.65 1516.285 1544.729 1511.44 1547.353 C 1497.143 1555.024 1482.34 1558.96 1472.685 1571.542 C 1448.934 1562.257 1422.257 1581.264 1399.986 1582.845 L 1361.231 1582.845 C 1346.059 1579.212 1334.486 1571.942 1316.017 1571.542 C 1243.856 1537.059 1182.394 1488.38 1133.546 1427.826 C 1126.145 1418.642 1121.873 1409.424 1115.784 1400.371 C 1112.554 1395.563 1107.138 1393.881 1104.514 1389.104 C 1102.024 1384.596 1102.731 1377.935 1099.636 1372.923 C 1096.171 1367.305 1090.183 1363.806 1086.717 1358.39 C 1080.998 1349.34 1074.741 1338.07 1070.603 1327.709 C 1066.129 1316.607 1059.401 1302.915 1056.037 1290.569 C 1048.602 1263.05 1050.788 1233.614 1039.889 1204.985 L 1039.889 1187.256 C 1042.58 1173.766 1042.58 1149.039 1039.889 1135.549 L 1039.889 1112.942 C 1045.439 1090.503 1047.357 1053.935 1054.422 1027.358 C 1056.474 1019.688 1061.083 1011.749 1064.144 1003.137 C 1070.401 985.374 1075.347 972.287 1081.873 956.308 C 1094.69 925.088 1108.08 892.49 1123.858 862.65 C 1146.566 819.858 1186.128 781.137 1220.745 749.615 C 1247.624 725.191 1280.357 706.453 1317.632 688.253 C 1330.046 682.231 1341.114 673.215 1351.576 670.49 C 1361.534 667.934 1373.073 669.582 1383.872 667.261 C 1413.678 660.903 1440.02 652.728 1472.685 652.728 C 1529.27 652.728 1582.02 656.596 1626.09 672.105 C 1643.584 678.295 1656.199 690.978 1676.149 694.712 C 1728.363 735.956 1761.164 792.306 1800.454 846.502 C 1811.491 861.708 1820.743 881.052 1834.398 894.946 C 1841.331 902.044 1853.573 907.629 1863.43 914.323 C 1896.57 936.796 1936.264 952.372 1982.958 964.382 C 2014.648 972.556 2049.366 976.022 2078.197 990.218 C 2092.326 997.182 2107.431 1012.051 2123.411 1022.514 C 2139.899 1033.313 2156.413 1043.641 2167.01 1056.425 C 2197.456 1093.195 2210.105 1143.287 2223.528 1193.681 Z " fill="rgb(55,53,53)"/><path d=" M 2161.853 1178.819 C 2168.921 1172.43 2182.307 1172.36 2181.23 1157.827 C 2169.469 1158.466 2158.677 1168.616 2161.853 1178.819 Z " fill-rule="evenodd" fill="rgb(55,53,53)"/><path d=" M 1527.381 1552.971 C 1545.255 1561.092 1565.295 1555.175 1572.595 1540.053 C 1581.671 1546.694 1591.676 1539.996 1601.661 1543.283 C 1629.96 1522.802 1669.28 1538.633 1701.781 1531.979 C 1712.264 1539.259 1731.177 1538.105 1738.921 1548.13 C 1750.08 1541.688 1756.065 1552.975 1766.369 1556.201 C 1780.761 1553.432 1792.196 1559.538 1800.28 1567.504 C 1819.392 1566.727 1831.402 1573.58 1848.727 1580.423 C 1854.823 1581.136 1856.303 1577.24 1860.03 1575.578 C 1874.782 1587.41 1902.52 1580.493 1911.7 1567.504 C 1947.549 1584.409 1957.278 1546.526 1995.669 1551.357 C 2008.433 1542.556 2018.959 1528.575 2040.887 1533.594 C 2027.81 1558.199 2006.132 1574.199 1984.369 1590.111 C 1975.912 1589.953 1980.665 1576.591 1973.062 1575.578 C 1947.451 1582.798 1937.782 1605.967 1914.93 1615.948 C 1909.988 1614.969 1906.516 1612.52 1902.012 1611.104 C 1885.571 1624.321 1868.306 1645.139 1848.727 1649.859 C 1853.346 1632.409 1863.324 1620.325 1869.719 1604.644 C 1861.057 1599.827 1856.256 1611.191 1847.109 1611.104 C 1843.533 1616.136 1839.432 1620.648 1837.42 1627.252 C 1815.758 1640.035 1802.86 1661.586 1779.291 1672.466 C 1782.511 1646.027 1810.81 1630.828 1819.661 1604.644 C 1780.435 1612.813 1763.776 1657.472 1722.77 1669.236 C 1721.276 1655.362 1728.297 1650 1737.303 1646.629 C 1743.554 1628.658 1758.834 1619.712 1766.369 1603.03 C 1754.655 1603.81 1742.285 1613.132 1732.459 1620.792 C 1722.683 1628.419 1712.957 1637.071 1706.622 1646.629 C 1698.232 1651.157 1689.573 1655.416 1685.63 1664.392 C 1675.03 1664.876 1668.184 1676.651 1659.793 1674.08 C 1671.679 1639.134 1706.272 1626.902 1717.929 1591.726 C 1678.434 1600.264 1655.76 1641.071 1624.271 1664.392 C 1614.875 1671.349 1602.041 1678.649 1590.361 1680.54 C 1593.274 1670.773 1600.514 1660.271 1606.509 1653.088 C 1619.891 1637.048 1636.426 1623.137 1651.719 1609.489 C 1652.9 1597.206 1665.906 1596.759 1666.253 1583.652 C 1643.881 1585.529 1627.615 1604.301 1611.35 1617.563 C 1586.805 1637.579 1564.588 1663.773 1540.303 1682.154 C 1530.573 1689.518 1517.732 1697.952 1504.774 1698.302 C 1522.392 1655.093 1567.098 1638.976 1585.513 1596.571 C 1568.097 1593.327 1556.027 1609.351 1545.144 1619.178 C 1523.206 1638.996 1502.305 1658.689 1478.941 1677.31 C 1468.243 1685.835 1456.583 1692.798 1445.03 1701.532 C 1438.171 1706.713 1433.774 1718.726 1422.42 1716.065 C 1420.364 1703.244 1430.05 1702.164 1436.953 1698.302 C 1444.425 1684.243 1454.813 1673.098 1467.634 1664.392 C 1473.575 1646.965 1490.93 1639.938 1501.544 1627.252 C 1503.96 1624.368 1504.051 1619.134 1506.392 1615.948 C 1510.301 1610.619 1522.567 1608.022 1517.692 1598.185 C 1472.794 1626.491 1434.147 1661.048 1398.201 1698.302 C 1383.039 1701.047 1376.462 1720.512 1359.446 1716.065 C 1359.776 1705.629 1366.77 1701.861 1373.976 1698.302 C 1395.752 1673.249 1419.876 1650.545 1438.571 1622.407 C 1418.403 1620.658 1407.776 1642.124 1390.124 1648.244 C 1373.216 1669.458 1344.395 1686.427 1320.691 1703.147 C 1312.042 1709.246 1306.182 1718.662 1290.007 1719.294 C 1295.777 1692.768 1324.318 1689.01 1335.221 1667.621 C 1339.265 1666.282 1341.563 1663.197 1346.525 1662.777 C 1350.249 1651.968 1359.948 1647.134 1364.291 1636.94 C 1350.42 1631.723 1336.237 1643.961 1325.532 1651.473 C 1303.713 1666.79 1280.342 1681.868 1257.711 1698.302 C 1230.526 1706.144 1211.828 1730.944 1181.816 1730.598 C 1204.888 1700.923 1239.737 1683.015 1270.63 1661.162 C 1271.972 1657.122 1275.057 1654.821 1275.474 1649.859 C 1282.286 1645.902 1294.424 1647.278 1294.851 1636.94 C 1285.91 1623.46 1275.276 1640.843 1267.4 1645.014 C 1262.462 1647.632 1255.38 1647.773 1251.252 1649.859 C 1245.143 1652.95 1241.409 1658.992 1235.108 1662.777 C 1221.9 1670.713 1205.476 1675.978 1191.505 1683.769 C 1166.758 1697.565 1135.684 1720.391 1102.692 1727.368 C 1103.617 1718.904 1110.887 1709.908 1117.228 1704.761 C 1137.527 1688.274 1168.202 1677.007 1191.505 1661.162 C 1197.096 1657.361 1200.787 1650.481 1206.038 1646.629 C 1218.146 1637.748 1235.898 1635.339 1241.567 1620.792 C 1230.512 1607.8 1214.63 1625.546 1207.653 1632.096 C 1136.757 1652.163 1094.278 1700.65 1015.493 1712.835 C 1032.819 1688.035 1063.358 1678.777 1089.773 1664.392 C 1112.239 1652.156 1131.903 1634.03 1155.983 1625.637 C 1162.224 1617.882 1170.94 1612.611 1176.972 1604.644 C 1156.545 1598.505 1135.573 1611.295 1118.843 1619.178 C 1098.786 1628.624 1078.278 1641.869 1055.863 1649.859 C 1025.623 1660.637 1001.825 1678.864 965.435 1678.925 C 966.491 1668.139 976.745 1666.551 986.427 1664.392 C 1026.097 1632.473 1082.221 1617.008 1123.684 1586.882 C 1119.798 1575.4 1107.048 1580.621 1101.077 1582.037 C 1079.25 1587.215 1054.151 1602.505 1034.874 1611.104 C 1015.345 1619.813 992.607 1625.687 971.894 1632.096 C 950.505 1638.713 930.273 1651.514 907.302 1648.244 C 908.483 1633.647 924.682 1636.288 933.139 1632.096 C 939.743 1628.826 943.578 1622.128 949.287 1619.178 C 955.39 1616.025 962.976 1616.981 970.279 1614.333 C 977.923 1611.565 983.581 1604.604 991.271 1601.415 C 1001.451 1597.196 1010.349 1597.943 1018.723 1593.341 C 1022.76 1591.124 1025.613 1586.027 1030.026 1583.652 C 1036.576 1580.13 1044.855 1580.497 1051.019 1577.193 C 1056.243 1574.394 1059.257 1568.571 1063.937 1565.89 C 1073.659 1560.325 1085.807 1564.13 1093.003 1554.586 C 1078.729 1541.479 1063.607 1554.626 1052.633 1559.43 C 1042.151 1564.019 1027.571 1563.716 1017.108 1567.504 C 1011.362 1569.583 1006.975 1575.003 1000.964 1577.193 C 989.283 1581.449 975.864 1579.548 965.435 1583.652 C 956.668 1587.104 951.363 1595.423 941.213 1596.571 C 926.818 1598.195 914.202 1592.883 902.458 1601.415 C 915.376 1584.268 940.062 1574.677 963.82 1565.89 C 972.217 1562.785 981.704 1563.895 989.657 1561.045 C 994.733 1559.225 998.891 1553.876 1004.19 1551.357 C 1019.271 1544.191 1033.69 1545.224 1041.333 1530.361 C 1051.197 1530.539 1058.918 1528.575 1063.937 1523.902 C 1056.479 1510.526 1033.047 1519.952 1028.412 1528.749 C 997.068 1525.136 965.849 1542.727 941.213 1548.13 C 931.087 1550.351 920.904 1548.807 912.15 1551.357 C 896.712 1555.851 877.496 1571.75 860.474 1557.816 C 866.358 1543.602 882.949 1548.484 894.384 1544.897 C 901.58 1542.643 906.465 1535.989 913.765 1533.594 C 922.068 1530.869 931.518 1531.555 939.598 1528.749 C 946.475 1526.364 952.015 1520.188 958.979 1517.443 C 984.96 1507.219 1016.805 1510.523 1034.874 1489.991 C 1001.606 1466.378 960.231 1507.969 913.765 1493.224 C 930.616 1477.245 972.16 1485.954 976.738 1457.699 C 954.511 1443.038 922.862 1468.827 897.614 1456.084 C 904.746 1442.103 924.887 1450.92 936.369 1446.395 C 948.654 1441.554 959.265 1431.311 975.124 1428.633 C 987.665 1426.517 999.695 1431.802 1010.649 1422.174 C 1002.195 1406.947 967.046 1418.409 957.364 1404.411 C 979.84 1396.747 1010.037 1396.801 1034.874 1391.493 C 1042.961 1351.278 1063.917 1356.347 1081.703 1385.033 C 1091.385 1400.656 1102.133 1409.693 1109.151 1425.403 C 1140.929 1470.059 1185.948 1501.47 1225.416 1538.438 C 1239.703 1543.528 1249.187 1553.425 1257.711 1564.275 C 1265.459 1565.139 1268.618 1570.596 1278.707 1569.119 C 1280.443 1573.304 1284.544 1575.124 1285.163 1580.423 C 1292.379 1586.125 1302.091 1583.804 1309.385 1586.882 C 1315.464 1589.449 1318.542 1595.662 1323.921 1598.185 C 1344.166 1607.679 1359.884 1600.85 1386.894 1603.03 C 1402.487 1604.288 1420.172 1602.777 1438.571 1598.185 C 1449.373 1590.152 1463.617 1585.556 1480.552 1583.652 C 1484.613 1581.792 1485.635 1576.89 1488.626 1573.964 C 1505.649 1571.07 1518.715 1564.221 1527.381 1552.971 Z " fill-rule="evenodd" fill="rgb(55,53,53)"/><radialGradient id="_rgradient_4" fx="0.5" fy="0.5" cx="0.5" cy="0.5" r="0.5" gradientTransform="matrix(999.032,0,0,741.511,1107.601,794.827)" gradientUnits="userSpaceOnUse"><stop offset="0%" stop-opacity="1" style="stop-color:rgb(221,226,107)"/><stop offset="10%" stop-opacity="1" style="stop-color:rgb(200,213,100)"/><stop offset="20%" stop-opacity="1" style="stop-color:rgb(89,148,66)"/><stop offset="30.000000000000004%" stop-opacity="1" style="stop-color:rgb(88,148,66)"/><stop offset="40%" stop-opacity="1" style="stop-color:rgb(87,146,66)"/><stop offset="50%" stop-opacity="1" style="stop-color:rgb(82,142,64)"/><stop offset="60%" stop-opacity="1" style="stop-color:rgb(74,134,60)"/><stop offset="70%" stop-opacity="1" style="stop-color:rgb(61,122,55)"/><stop offset="80%" stop-opacity="1" style="stop-color:rgb(44,105,47)"/><stop offset="89.99999999999999%" stop-opacity="1" style="stop-color:rgb(44,105,47)"/><stop offset="99.99999999999999%" stop-opacity="1" style="stop-color:rgb(44,105,47)"/></radialGradient><path d=" M 2086.106 1371.306 C 2086.106 1371.037 2097.204 1359.333 2103.932 1363.232 C 2113.116 1368.618 2096.363 1392.601 2091.014 1398.761 C 2082.267 1408.854 2072.41 1419.515 2063.563 1426.243 C 2055.257 1432.503 2043.142 1436.672 2032.882 1443.972 C 2008.626 1461.297 1975.523 1484.846 1945.683 1497.297 C 1938.756 1500.153 1930.141 1500.254 1921.428 1503.753 C 1908.916 1508.731 1898.619 1516.91 1889.166 1518.252 C 1871.403 1520.812 1847.719 1526.494 1830.461 1527.066 C 1828.476 1527.137 1824.406 1525.619 1820.066 1523.87 L 1819.73 1525.519 C 1820.638 1526.127 1797.462 1526.461 1797.462 1527.032 L 1795.78 1526.528 C 1782.354 1520.91 1786.394 1515.059 1782.556 1508.563 C 1777.745 1500.422 1766.916 1503.15 1751.875 1502.104 L 1749.049 1499.685 L 1745.416 1500.526 C 1725.063 1472.469 1680.892 1481.213 1646.947 1481.112 C 1598.305 1481.014 1556.284 1493.391 1517.731 1508.563 C 1501.28 1515.059 1485.334 1524.445 1472.517 1527.944 C 1465.217 1529.963 1456.638 1528.381 1448.295 1529.556 C 1423.535 1533.159 1388.615 1541.902 1357.867 1531.174 C 1351.172 1528.849 1345.756 1523.13 1338.523 1519.87 C 1332.703 1517.276 1325.47 1517.546 1320.727 1515.022 C 1312.989 1510.888 1298.355 1499.312 1288.465 1492.415 C 1259.23 1472.2 1223.94 1441.55 1201.232 1414.906 C 1192.926 1405.116 1189.458 1392.366 1181.889 1382.644 C 1178.255 1377.971 1172.368 1375.949 1168.97 1371.306 C 1163.52 1364.006 1156.893 1352.366 1152.789 1343.855 C 1150.468 1339.014 1150.468 1332.181 1147.978 1327.707 C 1144.21 1321.049 1136.237 1318.086 1133.445 1309.944 C 1130.586 1301.77 1132.907 1291.408 1130.215 1282.493 C 1124.934 1265.336 1115.851 1250.133 1114.034 1230.854 C 1112.789 1217.232 1114.303 1202.194 1112.419 1188.835 C 1111.41 1181.67 1107.709 1174.575 1107.608 1167.847 C 1107.373 1152.57 1112.857 1134.538 1114.034 1117.785 C 1115.043 1104.126 1112.083 1090.064 1114.034 1077.415 C 1115.447 1068.601 1123.151 1058.142 1126.986 1046.734 C 1130.922 1034.96 1130.989 1021.436 1135.06 1011.209 C 1137.078 1006.095 1142.125 1002.331 1144.749 996.676 C 1153.159 978.513 1157.431 954.994 1167.356 936.929 C 1174.959 923.072 1187.002 909.713 1194.773 896.559 C 1213.444 865.04 1238.474 841.387 1270.668 817.434 C 1285.101 806.74 1287.624 794.898 1307.842 794.827 L 1307.001 802.363 L 1314.268 804.516 C 1302.83 824.297 1273.393 838.998 1256.169 857.804 C 1246.884 867.93 1229.155 890.571 1235.143 896.559 C 1245.202 906.618 1270.803 864.801 1281.972 867.496 L 1286.816 873.955 L 1293.309 878.796 C 1263.806 921.992 1220.509 959.943 1214.184 1020.897 C 1229.962 1021.675 1235.715 996.978 1243.217 991.835 C 1246.547 989.581 1257.885 984.565 1261.013 986.99 C 1273.73 997.015 1244.596 1033.143 1238.373 1046.734 C 1233.629 1057.197 1231.577 1070.855 1228.718 1080.645 C 1225.185 1092.692 1219.735 1103.12 1217.414 1111.329 C 1213.747 1124.177 1211.493 1146.952 1220.644 1148.469 C 1229.727 1150.017 1231.88 1127.204 1235.143 1121.014 C 1239.853 1112.237 1256.236 1094.576 1264.243 1098.407 C 1269.659 1101.035 1269.726 1122.902 1267.472 1132.318 C 1264.209 1145.744 1251.762 1159.668 1248.095 1175.917 C 1240.526 1209.36 1231.745 1242.123 1238.373 1271.223 C 1253.713 1256.323 1255.732 1231.022 1267.472 1208.216 C 1270.302 1202.696 1290.517 1165.794 1299.768 1171.076 C 1312.922 1178.679 1294.285 1218.507 1291.694 1227.624 C 1280.794 1265.605 1273.999 1310.856 1277.127 1358.391 C 1296.337 1354.822 1294.049 1332.588 1299.768 1311.593 C 1301.618 1304.7 1308.044 1296.589 1311.038 1287.337 C 1314.167 1277.787 1313.595 1268.128 1317.497 1259.886 C 1321.938 1250.635 1345.016 1201.686 1359.482 1213.057 C 1366.614 1218.675 1358.069 1241.588 1354.637 1253.427 C 1345.924 1283.603 1338.153 1300.289 1333.679 1335.818 C 1331.828 1350.314 1329.709 1379.653 1335.293 1382.644 C 1348.582 1389.745 1352.888 1345.305 1354.637 1339.048 C 1356.79 1331.509 1363.384 1314.927 1369.204 1298.678 C 1373.779 1285.79 1378.758 1271.257 1383.737 1259.886 C 1387.539 1251.173 1407.185 1217.501 1416.033 1224.394 C 1427.471 1233.313 1413.88 1264.734 1411.189 1276.034 C 1408.867 1285.76 1409.776 1296.858 1407.925 1306.715 C 1405.907 1317.719 1400.793 1327.303 1399.851 1335.818 C 1397.9 1353.947 1401.197 1374.068 1399.851 1389.103 C 1398.371 1405.923 1396.084 1410.162 1401.466 1426.243 C 1402.812 1430.149 1402.105 1440.376 1409.574 1439.131 C 1416.908 1384.628 1431.34 1305.944 1451.558 1259.886 C 1453.647 1255.109 1460.675 1248.852 1464.476 1240.509 C 1470.229 1227.826 1470.364 1210.702 1482.206 1214.709 C 1494.384 1218.78 1485.704 1251.341 1483.82 1261.534 C 1475.713 1306.143 1460.271 1382.748 1480.591 1426.243 C 1497.512 1377.227 1495.258 1325.86 1512.886 1267.994 C 1516.52 1256.118 1522.811 1221.737 1533.912 1224.394 C 1545.653 1227.19 1539.463 1277.514 1538.757 1293.797 C 1537.478 1322.661 1537.377 1347.757 1538.757 1369.695 C 1539.059 1374.839 1540.809 1416.218 1550.06 1416.557 C 1557.26 1416.793 1567.285 1342.038 1569.404 1330.937 C 1577.478 1289.322 1581.717 1249.595 1604.929 1227.624 L 1611.389 1232.435 L 1619.496 1232.435 C 1608.697 1280.508 1595.846 1369.695 1627.536 1405.217 C 1633.121 1351.058 1636.889 1316.844 1653.407 1271.223 C 1656.973 1261.299 1671.674 1241.05 1680.861 1250.197 C 1686.005 1255.378 1679.916 1280.239 1679.21 1290.567 C 1677.427 1317.043 1674.268 1366.331 1675.98 1380.995 C 1676.619 1386.28 1680.185 1413.795 1692.128 1410.065 C 1701.682 1407.101 1704.205 1334.738 1708.276 1322.863 C 1710.799 1315.633 1723.889 1292.417 1734.146 1297.026 C 1746.597 1302.678 1732.666 1364.141 1734.146 1380.995 C 1734.822 1388.867 1737.981 1396.874 1740.605 1405.217 C 1740.807 1405.923 1743.162 1426.482 1751.875 1423.013 C 1758.102 1420.524 1755.172 1402.896 1756.719 1395.532 C 1758.237 1388.564 1766.543 1359.232 1774.516 1340.625 C 1777.88 1332.723 1788.918 1316.101 1797.089 1318.022 C 1815.087 1322.291 1799.478 1353.275 1797.089 1374.536 C 1795.377 1390.078 1795.272 1432.197 1810.007 1431.053 C 1827.232 1429.741 1816.1 1394.96 1824.574 1372.925 C 1827.804 1364.444 1844.56 1342.075 1850.377 1343.855 C 1858.32 1346.314 1855.494 1369.624 1855.255 1377.766 C 1854.885 1389.611 1852.093 1450.633 1863.295 1455.275 C 1876.92 1460.964 1873.728 1429.846 1877.828 1411.676 C 1879.107 1406.058 1891.15 1370.465 1900.435 1371.306 C 1921.192 1373.258 1898.824 1441.183 1919.85 1443.972 C 1935.258 1446.058 1930.814 1405.489 1940.805 1390.684 L 1947.769 1393.779 L 1953.723 1389.103 C 1960.048 1398.156 1957.357 1420.927 1966.679 1419.787 C 1977.979 1418.374 1967.789 1371.411 1984.404 1368.077 C 2008.66 1363.269 1999.408 1415.377 2016.734 1413.294 C 2034.328 1411.208 2015.22 1354.889 2036.111 1350.314 C 2055.623 1346.075 2054.819 1375.007 2066.792 1377.766 C 2073.016 1379.249 2079.441 1374.704 2086.106 1371.306 Z " fill="url(#_rgradient_4)"/><path d=" M 1512.114 1531.978 C 1530.415 1524.207 1547.976 1514.72 1567.017 1508.564" fill="none" vector-effect="non-scaling-stroke" stroke-width="0.65" stroke="rgb(55,53,53)" stroke-linejoin="miter" stroke-linecap="square" stroke-miterlimit="3"/><path d=" M 1797.494 1527.067 C 1797.461 1527.067 1797.461 1527.033 1797.461 1527.033 C 1797.461 1526.461 1820.64 1526.128 1819.728 1525.519" fill="none" vector-effect="non-scaling-stroke" stroke-width="0.65" stroke="rgb(55,53,53)" stroke-linejoin="miter" stroke-linecap="square" stroke-miterlimit="3"/><path d=" M 1795.779 1526.528 C 1782.357 1520.91 1786.393 1515.059 1782.555 1508.563 C 1777.748 1500.422 1766.915 1503.15 1751.874 1502.104" fill="none" vector-effect="non-scaling-stroke" stroke-width="0.65" stroke="rgb(55,53,53)" stroke-linejoin="miter" stroke-linecap="square" stroke-miterlimit="3"/><line x1="1751.875" y1="1502.105" x2="1749.049" y2="1499.683" vector-effect="non-scaling-stroke" stroke-width="0.65" stroke="rgb(55,53,53)" stroke-linejoin="miter" stroke-linecap="square" stroke-miterlimit="3"/><line x1="1749.049" y1="1499.684" x2="1745.416" y2="1500.525" vector-effect="non-scaling-stroke" stroke-width="0.65" stroke="rgb(55,53,53)" stroke-linejoin="miter" stroke-linecap="square" stroke-miterlimit="3"/><path d=" M 1745.416 1500.525 C 1725.063 1472.468 1680.892 1481.214 1646.947 1481.11 C 1598.305 1481.013 1556.284 1493.393 1517.731 1508.565 C 1501.28 1515.058 1485.334 1524.444 1472.517 1527.942 C 1465.217 1529.961 1456.638 1528.38 1448.295 1529.557 C 1423.535 1533.157 1388.615 1541.904 1357.867 1531.172 C 1351.172 1528.851 1345.756 1523.132 1338.523 1519.869 C 1332.703 1517.275 1325.47 1517.547 1320.727 1515.024 C 1312.989 1510.886 1298.355 1499.314 1288.465 1492.417 C 1259.23 1472.199 1223.94 1441.551 1201.233 1414.907 C 1192.926 1405.118 1189.458 1392.368 1181.889 1382.645 C 1178.255 1377.969 1172.368 1375.951 1168.97 1371.308 C 1163.52 1364.008 1156.893 1352.368 1152.789 1343.857 C 1150.468 1339.012 1150.468 1332.183 1147.978 1327.709 C 1144.21 1321.048 1136.237 1318.087 1133.445 1309.946 C 1130.586 1301.771 1132.907 1291.41 1130.215 1282.491 C 1124.934 1265.338 1115.851 1250.132 1114.034 1230.855 C 1112.789 1217.23 1114.303 1202.193 1112.419 1188.837 C 1111.41 1181.671 1107.709 1174.573 1107.608 1167.845 C 1107.373 1152.572 1112.857 1134.54 1114.034 1117.786 C 1115.043 1104.128 1112.083 1090.066 1114.034 1077.417 C 1115.447 1068.603 1123.151 1058.14 1126.986 1046.736 C 1130.922 1034.961 1130.989 1021.437 1135.06 1011.21 C 1137.078 1006.097 1142.125 1002.329 1144.749 996.677 C 1153.159 978.511 1157.431 954.996 1167.356 936.93 C 1174.959 923.07 1187.002 909.714 1194.773 896.561 C 1213.444 865.039 1238.474 841.389 1270.668 817.436 C 1285.101 806.738 1287.624 794.896 1307.842 794.829" fill="none" vector-effect="non-scaling-stroke" stroke-width="0.65" stroke="rgb(55,53,53)" stroke-linejoin="miter" stroke-linecap="square" stroke-miterlimit="3"/><line x1="1307.843" y1="794.829" x2="1307.002" y2="802.365" vector-effect="non-scaling-stroke" stroke-width="0.65" stroke="rgb(55,53,53)" stroke-linejoin="miter" stroke-linecap="square" stroke-miterlimit="3"/><line x1="1307.002" y1="802.364" x2="1314.268" y2="804.517" vector-effect="non-scaling-stroke" stroke-width="0.65" stroke="rgb(55,53,53)" stroke-linejoin="miter" stroke-linecap="square" stroke-miterlimit="3"/><path d=" M 1314.269 804.517 C 1302.831 824.298 1273.394 839 1256.17 857.805 C 1246.885 867.931 1229.156 890.572 1235.144 896.56 C 1245.203 906.619 1270.804 864.803 1281.973 867.494" fill="none" vector-effect="non-scaling-stroke" stroke-width="0.65" stroke="rgb(55,53,53)" stroke-linejoin="miter" stroke-linecap="square" stroke-miterlimit="3"/><line x1="1281.973" y1="867.495" x2="1286.817" y2="873.954" vector-effect="non-scaling-stroke" stroke-width="0.65" stroke="rgb(55,53,53)" stroke-linejoin="miter" stroke-linecap="square" stroke-miterlimit="3"/><path d=" M 1286.817 873.954 C 1287.927 873.247 1288.936 872.406 1289.777 871.464" fill="none" vector-effect="non-scaling-stroke" stroke-width="0.65" stroke="rgb(55,53,53)" stroke-linejoin="miter" stroke-linecap="square" stroke-miterlimit="3"/><line x1="1286.817" y1="873.954" x2="1293.31" y2="878.798" vector-effect="non-scaling-stroke" stroke-width="0.65" stroke="rgb(55,53,53)" stroke-linejoin="miter" stroke-linecap="square" stroke-miterlimit="3"/><path d=" M 1293.31 878.798 C 1263.807 921.993 1220.51 959.941 1214.186 1020.899 C 1229.964 1021.673 1235.716 996.98 1243.218 991.833 C 1246.549 989.579 1257.886 984.566 1261.015 986.988 C 1273.731 997.013 1244.598 1033.144 1238.374 1046.735 C 1233.631 1057.198 1231.578 1070.856 1228.719 1080.646 C 1225.187 1092.69 1219.737 1103.118 1217.415 1111.327 C 1213.748 1124.178 1211.494 1146.953 1220.645 1148.467 C 1229.728 1150.015 1231.881 1127.206 1235.144 1121.016 C 1239.854 1112.235 1256.238 1094.574 1264.244 1098.409 C 1269.66 1101.033 1269.728 1122.9 1267.474 1132.319 C 1264.211 1145.742 1251.763 1159.67 1248.096 1175.918 C 1240.527 1209.358 1231.747 1242.125 1238.374 1271.225 C 1253.714 1256.321 1255.733 1231.023 1267.474 1208.214 C 1270.3 1202.697 1290.518 1165.792 1299.769 1171.074 C 1312.923 1178.677 1294.286 1218.508 1291.696 1227.625 C 1280.796 1265.606 1274 1310.854 1277.129 1358.389 C 1296.338 1354.823 1294.05 1332.586 1299.769 1311.594 C 1301.62 1304.698 1308.045 1296.59 1311.039 1287.339 C 1314.168 1277.785 1313.596 1268.13 1317.499 1259.887 C 1321.939 1250.636 1345.017 1201.688 1359.483 1213.059 C 1366.615 1218.677 1358.07 1241.586 1354.639 1253.428 C 1345.926 1283.605 1338.154 1300.291 1333.68 1335.816 C 1331.83 1350.315 1329.71 1379.651 1335.295 1382.645 C 1348.583 1389.743 1352.889 1345.303 1354.639 1339.046 C 1356.792 1331.51 1363.385 1314.925 1369.205 1298.676 C 1373.781 1285.791 1378.76 1271.258 1383.738 1259.887 C 1387.54 1251.174 1407.187 1217.499 1416.034 1224.396 C 1427.472 1233.311 1413.881 1264.732 1411.19 1276.035 C 1408.869 1285.758 1409.777 1296.859 1407.927 1306.716 C 1405.908 1317.717 1400.795 1327.305 1399.853 1335.816 C 1397.901 1353.949 1401.198 1374.066 1399.853 1389.104 C 1398.372 1405.925 1396.085 1410.164 1401.467 1426.244 C 1402.813 1430.147 1402.107 1440.374 1409.575 1439.129 C 1416.909 1384.63 1431.341 1305.942 1451.56 1259.887 C 1453.645 1255.11 1460.676 1248.853 1464.478 1240.51 C 1470.23 1227.827 1470.365 1210.704 1482.207 1214.707 C 1494.385 1218.778 1485.706 1251.342 1483.822 1261.536 C 1475.714 1306.144 1460.273 1382.746 1480.592 1426.244 C 1497.514 1377.229 1495.26 1325.858 1512.888 1267.995 C 1516.521 1256.12 1522.812 1221.738 1533.914 1224.396 C 1545.655 1227.188 1539.465 1277.515 1538.758 1293.798 C 1537.48 1322.662 1537.379 1347.759 1538.758 1369.693 C 1539.061 1374.84 1540.81 1416.219 1550.062 1416.555 C 1557.261 1416.791 1567.286 1342.04 1569.405 1330.938 C 1577.479 1289.324 1581.718 1249.593 1604.931 1227.625" fill="none" vector-effect="non-scaling-stroke" stroke-width="0.65" stroke="rgb(55,53,53)" stroke-linejoin="miter" stroke-linecap="square" stroke-miterlimit="3"/><line x1="1604.93" y1="1227.625" x2="1611.389" y2="1232.436" vector-effect="non-scaling-stroke" stroke-width="0.65" stroke="rgb(55,53,53)" stroke-linejoin="miter" stroke-linecap="square" stroke-miterlimit="3"/><path d=" M 1611.389 1232.435 C 1611.927 1230.386 1612.23 1228.973 1612.435 1228.401" fill="none" vector-effect="non-scaling-stroke" stroke-width="0.65" stroke="rgb(55,53,53)" stroke-linejoin="miter" stroke-linecap="square" stroke-miterlimit="3"/><line x1="1611.389" y1="1232.435" x2="1619.497" y2="1232.435" vector-effect="non-scaling-stroke" stroke-width="0.65" stroke="rgb(55,53,53)" stroke-linejoin="miter" stroke-linecap="square" stroke-miterlimit="3"/><path d=" M 1619.497 1232.435 C 1608.698 1280.509 1595.847 1369.695 1627.537 1405.217 C 1633.122 1351.058 1636.89 1316.845 1653.408 1271.224 C 1656.974 1261.299 1671.675 1241.051 1680.859 1250.198 C 1686.006 1255.378 1679.917 1280.239 1679.211 1290.567 C 1677.428 1317.043 1674.265 1366.331 1675.981 1380.995 C 1676.617 1386.277 1680.186 1413.796 1692.129 1410.065 C 1701.683 1407.101 1704.206 1334.738 1708.277 1322.863 C 1710.8 1315.63 1723.886 1292.418 1734.147 1297.027 C 1746.594 1302.678 1732.667 1364.141 1734.147 1380.995 C 1734.82 1388.868 1737.982 1396.874 1740.606 1405.217 C 1740.808 1405.924 1743.163 1426.482 1751.876 1423.014 C 1758.1 1420.524 1755.173 1402.896 1756.72 1395.529 C 1758.234 1388.565 1766.544 1359.229 1774.517 1340.626 C 1777.881 1332.723 1788.915 1316.101 1797.09 1318.019 C 1815.088 1322.291 1799.479 1353.275 1797.09 1374.536 C 1795.374 1390.079 1795.273 1432.198 1810.008 1431.054 C 1827.233 1429.742 1816.098 1394.96 1824.575 1372.925 C 1827.805 1364.444 1844.558 1342.076 1850.378 1343.855 C 1858.317 1346.314 1855.492 1369.625 1855.256 1377.766 C 1854.886 1389.611 1852.094 1450.633 1863.296 1455.276 C 1876.921 1460.964 1873.725 1429.846 1877.829 1411.676 C 1879.108 1406.058 1891.151 1370.466 1900.436 1371.307 C 1921.193 1373.258 1898.822 1441.183 1919.848 1443.972 C 1935.255 1446.058 1930.815 1405.486 1940.806 1390.684" fill="none" vector-effect="non-scaling-stroke" stroke-width="0.65" stroke="rgb(55,53,53)" stroke-linejoin="miter" stroke-linecap="square" stroke-miterlimit="3"/><line x1="1940.805" y1="1390.684" x2="1947.769" y2="1393.779" vector-effect="non-scaling-stroke" stroke-width="0.65" stroke="rgb(55,53,53)" stroke-linejoin="miter" stroke-linecap="square" stroke-miterlimit="3"/><path d=" M 1947.77 1393.779 C 1947.636 1392.302 1947.905 1391.158 1948.073 1389.88" fill="none" vector-effect="non-scaling-stroke" stroke-width="0.65" stroke="rgb(55,53,53)" stroke-linejoin="miter" stroke-linecap="square" stroke-miterlimit="3"/><line x1="1947.77" y1="1393.779" x2="1953.725" y2="1389.103" vector-effect="non-scaling-stroke" stroke-width="0.65" stroke="rgb(55,53,53)" stroke-linejoin="miter" stroke-linecap="square" stroke-miterlimit="3"/><path d=" M 2086.137 1371.308 L 2086.103 1371.308 C 2086.103 1371.039 2097.205 1359.331 2103.933 1363.234 C 2113.117 1368.616 2096.364 1392.603 2091.015 1398.759 C 2082.268 1408.852 2072.411 1419.516 2063.564 1426.244 C 2055.254 1432.501 2043.143 1436.673 2032.883 1443.973 C 2008.627 1461.299 1975.524 1484.848 1945.684 1497.295 C 1938.754 1500.154 1930.142 1500.255 1921.429 1503.754 C 1908.914 1508.733 1898.62 1516.908 1889.167 1518.253 C 1871.404 1520.81 1847.72 1526.495 1830.462 1527.067 C 1828.478 1527.135 1824.407 1525.621 1820.067 1523.871 C 1810.95 1520.242 1800.555 1515.764 1805.231 1523.367" fill="none" vector-effect="non-scaling-stroke" stroke-width="0.65" stroke="rgb(55,53,53)" stroke-linejoin="miter" stroke-linecap="square" stroke-miterlimit="3"/><path d=" M 1953.723 1389.104 C 1960.048 1398.154 1957.356 1420.929 1966.678 1419.785 C 1977.979 1418.372 1967.789 1371.409 1984.404 1368.078 C 2008.66 1363.267 1999.408 1415.378 2016.733 1413.292 C 2034.328 1411.206 2015.22 1354.891 2036.111 1350.315 C 2055.623 1346.077 2054.819 1375.008 2066.792 1377.767 C 2073.016 1379.247 2079.441 1374.705 2086.105 1371.308" fill="none" vector-effect="non-scaling-stroke" stroke-width="0.65" stroke="rgb(55,53,53)" stroke-linejoin="miter" stroke-linecap="square" stroke-miterlimit="3"/><path d=" M 2050.741 1222.881 C 2053.204 1222.908 2054.277 1234.847 2049.126 1232.57 C 2047.956 1227.635 2050.775 1226.686 2050.741 1222.881 Z " fill-rule="evenodd" fill="rgb(254,254,254)"/><path d=" M 2076.577 1230.956 C 2075.813 1235.609 2069.579 1239.636 2065.27 1235.797 C 2068.759 1233.9 2072.688 1232.447 2076.577 1230.956 Z " fill-rule="evenodd" fill="rgb(254,254,254)"/><path d=" M 2071.728 1256.792 C 2066.722 1256.412 2055.879 1259.413 2060.428 1268.092 C 2050.675 1262.474 2065.222 1246.629 2071.728 1256.792 Z " fill-rule="evenodd" fill="rgb(254,254,254)"/></g><linearGradient id="_lgradient_21" x1="0.000013965237904756123" y1="0.4999901228089154" x2="0.9999948773361851" y2="0.4999901228089154" gradientTransform="matrix(97.457,0,0,142.358,2030.792,1169.724)" gradientUnits="userSpaceOnUse"><stop offset="0%" stop-opacity="1" style="stop-color:rgb(150,190,64)"/><stop offset="10%" stop-opacity="1" style="stop-color:rgb(94,99,82)"/><stop offset="20%" stop-opacity="1" style="stop-color:rgb(55,58,60)"/><stop offset="30.000000000000004%" stop-opacity="1" style="stop-color:rgb(44,47,53)"/><stop offset="40%" stop-opacity="1" style="stop-color:rgb(43,46,52)"/><stop offset="50%" stop-opacity="1" style="stop-color:rgb(54,56,59)"/><stop offset="60%" stop-opacity="1" style="stop-color:rgb(90,92,79)"/><stop offset="70%" stop-opacity="1" style="stop-color:rgb(121,126,90)"/><stop offset="80%" stop-opacity="1" style="stop-color:rgb(148,157,91)"/><stop offset="89.99999999999999%" stop-opacity="1" style="stop-color:rgb(171,186,83)"/><stop offset="99.99999999999999%" stop-opacity="1" style="stop-color:rgb(189,213,66)"/></linearGradient><path d=" M 2063.657 1181.034 C 2057.766 1200.442 2035.163 1211.738 2034.591 1231.089 L 2034.591 1231.089 C 2035.375 1229.185 2036.313 1227.429 2037.817 1226.248 L 2037.817 1226.248 C 2033.689 1234.497 2039.822 1253.01 2031.358 1256.922 L 2031.358 1256.922 C 2034.537 1252.566 2032.323 1242.816 2032.976 1235.933 L 2032.976 1235.933 C 2029.326 1230.753 2032.246 1246.47 2031.358 1252.081 L 2031.358 1252.081 C 2027.711 1275.334 2041.864 1315.647 2068.501 1311.828 L 2068.501 1311.828 C 2077.117 1302.984 2069.729 1289.756 2073.346 1281.147 L 2073.346 1281.147 C 2078.954 1283.075 2084.975 1284.586 2089.493 1287.61 L 2089.493 1287.61 C 2086.55 1281.359 2071.805 1278.429 2076.578 1269.841 L 2076.578 1269.841 C 2078.651 1277.457 2085.177 1280.616 2092.723 1282.766 L 2092.723 1282.766 C 2082.806 1270.597 2071.108 1241.195 2091.105 1235.933 L 2091.105 1235.933 C 2096.881 1234.416 2100.699 1236.63 2104.46 1238.847 L 2104.46 1238.847 C 2108.8 1241.397 2113.063 1243.95 2120.174 1240.781 L 2120.174 1240.781 C 2115.542 1237.874 2111.162 1234.716 2107.256 1231.089 L 2107.256 1231.089 C 2110.688 1231.032 2113.584 1232.973 2116.336 1234.917 L 2116.336 1234.917 C 2120.208 1237.652 2123.804 1240.387 2128.248 1237.545 L 2128.248 1237.545 C 2110.277 1231.126 2088.646 1212.075 2070.116 1229.474 L 2070.116 1229.474 C 2068.003 1208.997 2099.572 1188.038 2089.493 1169.724 L 2089.493 1169.724 C 2078.129 1170.736 2071.956 1176.953 2063.657 1181.034 Z " fill="url(#_lgradient_21)"/><linearGradient id="_lgradient_22" x1="0.000013965237904756123" y1="0.4999901228089154" x2="0.9999948773361851" y2="0.4999901228089154" gradientTransform="matrix(97.457,0,0,142.358,2030.792,1173.088)" gradientUnits="userSpaceOnUse"><stop offset="0%" stop-opacity="1" style="stop-color:rgb(150,190,64)"/><stop offset="10%" stop-opacity="1" style="stop-color:rgb(94,99,82)"/><stop offset="20%" stop-opacity="1" style="stop-color:rgb(55,58,60)"/><stop offset="30.000000000000004%" stop-opacity="1" style="stop-color:rgb(44,47,53)"/><stop offset="40%" stop-opacity="1" style="stop-color:rgb(43,46,52)"/><stop offset="50%" stop-opacity="1" style="stop-color:rgb(54,56,59)"/><stop offset="60%" stop-opacity="1" style="stop-color:rgb(90,92,79)"/><stop offset="70%" stop-opacity="1" style="stop-color:rgb(121,126,90)"/><stop offset="80%" stop-opacity="1" style="stop-color:rgb(148,157,91)"/><stop offset="89.99999999999999%" stop-opacity="1" style="stop-color:rgb(171,186,83)"/><stop offset="99.99999999999999%" stop-opacity="1" style="stop-color:rgb(189,213,66)"/></linearGradient><path d=" M 2063.657 1184.398 C 2057.766 1203.809 2035.163 1215.103 2034.591 1234.453 L 2034.591 1234.453 C 2035.375 1232.549 2036.313 1230.793 2037.817 1229.612 L 2037.817 1229.612 C 2033.689 1237.861 2039.822 1256.374 2031.358 1260.286 L 2031.358 1260.286 C 2034.537 1255.93 2032.323 1246.181 2032.976 1239.297 L 2032.976 1239.297 C 2029.326 1234.117 2032.246 1249.834 2031.358 1255.445 L 2031.358 1255.445 C 2027.711 1278.698 2041.864 1319.011 2068.501 1315.192 L 2068.501 1315.192 C 2077.117 1306.348 2069.729 1293.12 2073.346 1284.512 L 2073.346 1284.512 C 2078.954 1286.439 2084.975 1287.95 2089.493 1290.974 L 2089.493 1290.974 C 2086.55 1284.723 2071.805 1281.793 2076.578 1273.208 L 2076.578 1273.208 C 2078.651 1280.821 2085.177 1283.983 2092.723 1286.13 L 2092.723 1286.13 C 2082.806 1273.962 2071.108 1244.559 2091.105 1239.297 L 2091.105 1239.297 C 2096.884 1237.78 2100.703 1239.994 2104.464 1242.207 L 2104.464 1242.207 C 2108.8 1244.761 2113.063 1247.314 2120.174 1244.145 L 2120.174 1244.145 C 2115.542 1241.239 2111.162 1238.08 2107.256 1234.453 L 2107.256 1234.453 C 2110.688 1234.396 2113.584 1236.337 2116.336 1238.282 L 2116.336 1238.282 C 2120.208 1241.017 2123.804 1243.748 2128.248 1240.909 L 2128.248 1240.909 C 2110.277 1234.49 2088.646 1215.439 2070.116 1232.838 L 2070.116 1232.838 C 2068.003 1212.361 2099.572 1191.402 2089.493 1173.088 L 2089.493 1173.088 C 2078.129 1174.1 2071.956 1180.317 2063.657 1184.398 Z " fill="url(#_lgradient_22)"/><linearGradient id="_lgradient_23" x1="0.000013965237904756123" y1="0.4999915666276431" x2="0.9999948773361851" y2="0.4999915666276431" gradientTransform="matrix(97.457,0,0,142.357,2034.156,1166.36)" gradientUnits="userSpaceOnUse"><stop offset="0%" stop-opacity="1" style="stop-color:rgb(150,190,64)"/><stop offset="10%" stop-opacity="1" style="stop-color:rgb(94,99,82)"/><stop offset="20%" stop-opacity="1" style="stop-color:rgb(55,58,60)"/><stop offset="30.000000000000004%" stop-opacity="1" style="stop-color:rgb(44,47,53)"/><stop offset="40%" stop-opacity="1" style="stop-color:rgb(43,46,52)"/><stop offset="50%" stop-opacity="1" style="stop-color:rgb(54,56,59)"/><stop offset="60%" stop-opacity="1" style="stop-color:rgb(90,92,79)"/><stop offset="70%" stop-opacity="1" style="stop-color:rgb(121,126,90)"/><stop offset="80%" stop-opacity="1" style="stop-color:rgb(148,157,91)"/><stop offset="89.99999999999999%" stop-opacity="1" style="stop-color:rgb(171,186,83)"/><stop offset="99.99999999999999%" stop-opacity="1" style="stop-color:rgb(189,213,66)"/></linearGradient><path d=" M 2067.021 1177.67 C 2061.13 1197.078 2038.527 1208.374 2037.955 1227.725 L 2037.955 1227.725 C 2038.739 1225.821 2039.677 1224.065 2041.181 1222.881 L 2041.181 1222.881 C 2037.053 1231.133 2043.186 1249.642 2034.722 1253.558 L 2034.722 1253.558 C 2037.901 1249.202 2035.687 1239.452 2036.34 1232.569 L 2036.34 1232.569 C 2032.69 1227.388 2035.61 1243.106 2034.722 1248.717 L 2034.722 1248.717 C 2031.075 1271.97 2045.228 1312.279 2071.865 1308.464 L 2071.865 1308.464 C 2080.481 1299.62 2073.093 1286.392 2076.71 1277.783 L 2076.71 1277.783 C 2082.318 1279.711 2088.336 1281.221 2092.858 1284.242 L 2092.858 1284.242 C 2089.914 1277.995 2075.169 1275.065 2079.943 1266.476 L 2079.943 1266.476 C 2082.018 1274.093 2088.541 1277.252 2096.084 1279.401 L 2096.084 1279.401 C 2086.17 1267.233 2074.472 1237.831 2094.469 1232.569 L 2094.469 1232.569 C 2100.245 1231.052 2104.064 1233.266 2107.825 1235.483 L 2107.825 1235.483 C 2112.161 1238.033 2116.427 1240.586 2123.539 1237.417 L 2123.539 1237.417 C 2118.906 1234.51 2114.526 1231.351 2110.617 1227.725 L 2110.617 1227.725 C 2114.052 1227.668 2116.948 1229.612 2119.7 1231.553 L 2119.7 1231.553 C 2123.572 1234.288 2127.168 1237.023 2131.612 1234.184 L 2131.612 1234.184 C 2113.641 1227.762 2092.01 1208.707 2073.48 1226.11 L 2073.48 1226.11 C 2071.367 1205.633 2102.936 1184.674 2092.858 1166.36 L 2092.858 1166.36 C 2081.493 1167.372 2075.32 1173.589 2067.021 1177.67 Z " fill="url(#_lgradient_23)"/><clipPath id="_clipPath_Nh1cbkwgTC08xeFr21U5Alpe14Ljy3kv"><path d=" M 763.507 560.7 L 2446.116 560.7 L 2446.116 1754.028 L 763.507 1754.028 L 763.507 560.7 Z " fill="rgb(255,255,255)"/></clipPath><g clip-path="url(#_clipPath_Nh1cbkwgTC08xeFr21U5Alpe14Ljy3kv)"><path d=" M 2126.5 1237.415 C 2134.227 1232.971 2141.686 1242.646 2147.492 1245.489 C 2147.449 1248.204 2134.537 1237.324 2126.5 1237.415 Z " fill-rule="evenodd" fill="rgb(55,53,53)"/><path d=" M 2094.199 1289.086 C 2105.055 1295.007 2140.961 1306.815 2149.102 1310.079 C 2127.467 1306.418 2109.681 1298.91 2094.199 1289.086 Z " fill-rule="evenodd" fill="rgb(55,53,53)"/><linearGradient id="_lgradient_24" x1="0" y1="0.5000101517462905" x2="1.0000001415511444" y2="0.5000101517462905" gradientTransform="matrix(277.952,0,0,85.255,2078.466,1236.901)" gradientUnits="userSpaceOnUse"><stop offset="0%" stop-opacity="1" style="stop-color:rgb(55,55,23)"/><stop offset="10%" stop-opacity="1" style="stop-color:rgb(62,60,25)"/><stop offset="20%" stop-opacity="1" style="stop-color:rgb(131,116,39)"/><stop offset="30.000000000000004%" stop-opacity="1" style="stop-color:rgb(135,112,38)"/><stop offset="40%" stop-opacity="1" style="stop-color:rgb(139,109,37)"/><stop offset="50%" stop-opacity="1" style="stop-color:rgb(143,105,36)"/><stop offset="60%" stop-opacity="1" style="stop-color:rgb(147,102,35)"/><stop offset="70%" stop-opacity="1" style="stop-color:rgb(151,98,34)"/><stop offset="80%" stop-opacity="1" style="stop-color:rgb(155,94,33)"/><stop offset="89.99999999999999%" stop-opacity="1" style="stop-color:rgb(159,90,32)"/><stop offset="99.99999999999999%" stop-opacity="1" style="stop-color:rgb(163,85,31)"/></linearGradient><path d=" M 2215.723 1316.404 C 2203.444 1321.584 2204.049 1317.211 2197.257 1322.156 C 2191.434 1316.235 2190.529 1313.746 2177.674 1312.064 C 2169.335 1311.26 2164.322 1306.214 2160.82 1300.256 C 2123.983 1295.109 2092.158 1284.949 2078.466 1256.656 L 2078.466 1251.815 L 2080.081 1251.815 C 2080.081 1241.686 2084.121 1238.662 2091.384 1237.282 C 2116.215 1232.536 2146.825 1273.985 2176.968 1258.275 C 2177.136 1257.901 2180.164 1250.937 2186.219 1254.238 C 2195.44 1259.284 2213.506 1262.042 2220.567 1264.734 C 2227.497 1267.354 2229.216 1273.447 2233.485 1274.422 C 2272.577 1283.57 2311.601 1247.271 2341.676 1242.123 C 2351.634 1245.39 2346.218 1256.69 2348.135 1266.345 C 2350.12 1276.404 2357.76 1285.924 2356.213 1293.797 C 2351.802 1316.202 2309.01 1317.584 2281.929 1319.633 C 2255.995 1321.621 2228.574 1310.991 2215.723 1316.404 Z " fill="url(#_lgradient_24)"/></g></g></g><path d=" M -177.982 4166.581 L -177.982 4166.581 L -177.982 4166.581 Q -229.187 4166.581 -257.276 4205.057 L -257.276 4205.057 L -257.276 4205.057 Q -285.366 4243.534 -285.366 4312.295 L -285.366 4312.295 L -285.366 4312.295 Q -285.366 4455.377 -177.982 4455.377 L -177.982 4455.377 L -177.982 4455.377 Q -132.921 4455.377 -68.842 4432.846 L -68.842 4432.846 L -68.842 4508.922 L -68.842 4508.922 Q -121.51 4530.867 -186.467 4530.867 L -186.467 4530.867 L -186.467 4530.867 Q -279.806 4530.867 -329.256 4474.249 L -329.256 4474.249 L -329.256 4474.249 Q -378.705 4417.631 -378.705 4311.71 L -378.705 4311.71 L -378.705 4311.71 Q -378.705 4244.997 -354.419 4194.816 L -354.419 4194.816 L -354.419 4194.816 Q -330.134 4144.636 -284.634 4117.863 L -284.634 4117.863 L -284.634 4117.863 Q -239.135 4091.09 -177.982 4091.09 L -177.982 4091.09 L -177.982 4091.09 Q -115.658 4091.09 -52.749 4121.228 L -52.749 4121.228 L -82.009 4194.963 L -82.009 4194.963 Q -106.002 4183.551 -130.288 4175.066 L -130.288 4175.066 L -130.288 4175.066 Q -154.574 4166.581 -177.982 4166.581 Z  M 430.411 4310.54 L 430.411 4310.54 L 430.411 4310.54 Q 430.411 4416.753 377.743 4473.81 L 377.743 4473.81 L 377.743 4473.81 Q 325.075 4530.867 226.762 4530.867 L 226.762 4530.867 L 226.762 4530.867 Q 128.448 4530.867 75.78 4473.81 L 75.78 4473.81 L 75.78 4473.81 Q 23.112 4416.753 23.112 4309.954 L 23.112 4309.954 L 23.112 4309.954 Q 23.112 4203.156 75.927 4146.83 L 75.927 4146.83 L 75.927 4146.83 Q 128.741 4090.505 227.347 4090.505 L 227.347 4090.505 L 227.347 4090.505 Q 325.953 4090.505 378.182 4147.269 L 378.182 4147.269 L 378.182 4147.269 Q 430.411 4204.033 430.411 4310.54 Z  M 118.207 4310.54 L 118.207 4310.54 L 118.207 4310.54 Q 118.207 4382.227 145.419 4418.509 L 145.419 4418.509 L 145.419 4418.509 Q 172.631 4454.791 226.762 4454.791 L 226.762 4454.791 L 226.762 4454.791 Q 335.316 4454.791 335.316 4310.54 L 335.316 4310.54 L 335.316 4310.54 Q 335.316 4165.995 227.347 4165.995 L 227.347 4165.995 L 227.347 4165.995 Q 173.216 4165.995 145.712 4202.424 L 145.712 4202.424 L 145.712 4202.424 Q 118.207 4238.853 118.207 4310.54 Z  M 918.546 4097.234 L 918.546 4525.015 L 803.261 4525.015 L 617.168 4201.4 L 614.534 4201.4 L 614.534 4201.4 Q 620.094 4287.132 620.094 4323.707 L 620.094 4323.707 L 620.094 4525.015 L 539.044 4525.015 L 539.044 4097.234 L 653.45 4097.234 L 839.251 4417.631 L 841.299 4417.631 L 841.299 4417.631 Q 836.91 4334.24 836.91 4299.713 L 836.91 4299.713 L 836.91 4097.234 L 918.546 4097.234 L 918.546 4097.234 Z  M 1135.44 4355.893 L 1135.44 4525.015 L 1046.197 4525.015 L 1046.197 4097.234 L 1291.396 4097.234 L 1291.396 4171.555 L 1135.44 4171.555 L 1135.44 4281.865 L 1280.569 4281.865 L 1280.569 4355.893 L 1135.44 4355.893 L 1135.44 4355.893 Z  M 1641.423 4450.11 L 1641.423 4525.015 L 1395.054 4525.015 L 1395.054 4097.234 L 1641.423 4097.234 L 1641.423 4171.555 L 1485.76 4171.555 L 1485.76 4265.479 L 1630.597 4265.479 L 1630.597 4339.8 L 1485.76 4339.8 L 1485.76 4450.11 L 1641.423 4450.11 L 1641.423 4450.11 Z  M 1841.347 4171.555 L 1841.347 4287.132 L 1870.606 4287.132 L 1870.606 4287.132 Q 1913.619 4287.132 1934.101 4272.794 L 1934.101 4272.794 L 1934.101 4272.794 Q 1954.583 4258.457 1954.583 4227.734 L 1954.583 4227.734 L 1954.583 4227.734 Q 1954.583 4197.304 1933.662 4184.429 L 1933.662 4184.429 L 1933.662 4184.429 Q 1912.741 4171.555 1868.851 4171.555 L 1868.851 4171.555 L 1841.347 4171.555 L 1841.347 4171.555 Z  M 1889.625 4360.867 L 1841.347 4360.867 L 1841.347 4525.015 L 1750.641 4525.015 L 1750.641 4097.234 L 1875.288 4097.234 L 1875.288 4097.234 Q 1962.483 4097.234 2004.325 4128.982 L 2004.325 4128.982 L 2004.325 4128.982 Q 2046.166 4160.729 2046.166 4225.393 L 2046.166 4225.393 L 2046.166 4225.393 Q 2046.166 4263.139 2025.392 4292.545 L 2025.392 4292.545 L 2025.392 4292.545 Q 2004.617 4321.951 1966.579 4338.629 L 1966.579 4338.629 L 1966.579 4338.629 Q 2063.137 4482.881 2092.397 4525.015 L 2092.397 4525.015 L 1991.743 4525.015 L 1889.625 4360.867 L 1889.625 4360.867 Z  M 2412.579 4450.11 L 2412.579 4525.015 L 2166.21 4525.015 L 2166.21 4097.234 L 2412.579 4097.234 L 2412.579 4171.555 L 2256.916 4171.555 L 2256.916 4265.479 L 2401.753 4265.479 L 2401.753 4339.8 L 2256.916 4339.8 L 2256.916 4450.11 L 2412.579 4450.11 L 2412.579 4450.11 Z  M 2901.299 4097.234 L 2901.299 4525.015 L 2786.014 4525.015 L 2599.921 4201.4 L 2597.288 4201.4 L 2597.288 4201.4 Q 2602.847 4287.132 2602.847 4323.707 L 2602.847 4323.707 L 2602.847 4525.015 L 2521.797 4525.015 L 2521.797 4097.234 L 2636.203 4097.234 L 2822.004 4417.631 L 2824.052 4417.631 L 2824.052 4417.631 Q 2819.663 4334.24 2819.663 4299.713 L 2819.663 4299.713 L 2819.663 4097.234 L 2901.299 4097.234 L 2901.299 4097.234 Z  M 3210.655 4166.581 L 3210.655 4166.581 L 3210.655 4166.581 Q 3159.45 4166.581 3131.36 4205.057 L 3131.36 4205.057 L 3131.36 4205.057 Q 3103.271 4243.534 3103.271 4312.295 L 3103.271 4312.295 L 3103.271 4312.295 Q 3103.271 4455.377 3210.655 4455.377 L 3210.655 4455.377 L 3210.655 4455.377 Q 3255.715 4455.377 3319.794 4432.846 L 3319.794 4432.846 L 3319.794 4508.922 L 3319.794 4508.922 Q 3267.126 4530.867 3202.169 4530.867 L 3202.169 4530.867 L 3202.169 4530.867 Q 3108.83 4530.867 3059.381 4474.249 L 3059.381 4474.249 L 3059.381 4474.249 Q 3009.931 4417.631 3009.931 4311.71 L 3009.931 4311.71 L 3009.931 4311.71 Q 3009.931 4244.997 3034.217 4194.816 L 3034.217 4194.816 L 3034.217 4194.816 Q 3058.503 4144.636 3104.002 4117.863 L 3104.002 4117.863 L 3104.002 4117.863 Q 3149.501 4091.09 3210.655 4091.09 L 3210.655 4091.09 L 3210.655 4091.09 Q 3272.978 4091.09 3335.887 4121.228 L 3335.887 4121.228 L 3306.627 4194.963 L 3306.627 4194.963 Q 3282.634 4183.551 3258.348 4175.066 L 3258.348 4175.066 L 3258.348 4175.066 Q 3234.063 4166.581 3210.655 4166.581 Z  M 3677.137 4450.11 L 3677.137 4525.015 L 3430.768 4525.015 L 3430.768 4097.234 L 3677.137 4097.234 L 3677.137 4171.555 L 3521.474 4171.555 L 3521.474 4265.479 L 3666.31 4265.479 L 3666.31 4339.8 L 3521.474 4339.8 L 3521.474 4450.11 L 3677.137 4450.11 L 3677.137 4450.11 Z  M 1683.619 3837.179 L 1683.619 3837.179 L 1683.619 3837.179 Q 1683.619 3892.539 1643.777 3924.413 L 1643.777 3924.413 L 1643.777 3924.413 Q 1603.934 3956.287 1532.917 3956.287 L 1532.917 3956.287 L 1532.917 3956.287 Q 1467.492 3956.287 1417.165 3931.682 L 1417.165 3931.682 L 1417.165 3851.159 L 1417.165 3851.159 Q 1458.545 3869.612 1487.203 3877.161 L 1487.203 3877.161 L 1487.203 3877.161 Q 1515.862 3884.71 1539.627 3884.71 L 1539.627 3884.71 L 1539.627 3884.71 Q 1568.146 3884.71 1583.384 3873.806 L 1583.384 3873.806 L 1583.384 3873.806 Q 1598.622 3862.902 1598.622 3841.373 L 1598.622 3841.373 L 1598.622 3841.373 Q 1598.622 3829.35 1591.912 3819.984 L 1591.912 3819.984 L 1591.912 3819.984 Q 1585.201 3810.617 1572.2 3801.95 L 1572.2 3801.95 L 1572.2 3801.95 Q 1559.199 3793.283 1519.217 3774.27 L 1519.217 3774.27 L 1519.217 3774.27 Q 1481.751 3756.656 1463.018 3740.439 L 1463.018 3740.439 L 1463.018 3740.439 Q 1444.285 3724.223 1433.102 3702.694 L 1433.102 3702.694 L 1433.102 3702.694 Q 1421.918 3681.165 1421.918 3652.367 L 1421.918 3652.367 L 1421.918 3652.367 Q 1421.918 3598.125 1458.685 3567.09 L 1458.685 3567.09 L 1458.685 3567.09 Q 1495.451 3536.055 1560.318 3536.055 L 1560.318 3536.055 L 1560.318 3536.055 Q 1592.191 3536.055 1621.129 3543.604 L 1621.129 3543.604 L 1621.129 3543.604 Q 1650.068 3551.153 1681.662 3564.853 L 1681.662 3564.853 L 1653.702 3632.236 L 1653.702 3632.236 Q 1620.99 3618.815 1599.601 3613.503 L 1599.601 3613.503 L 1599.601 3613.503 Q 1578.212 3608.19 1557.522 3608.19 L 1557.522 3608.19 L 1557.522 3608.19 Q 1532.917 3608.19 1519.776 3619.654 L 1519.776 3619.654 L 1519.776 3619.654 Q 1506.635 3631.117 1506.635 3649.571 L 1506.635 3649.571 L 1506.635 3649.571 Q 1506.635 3661.034 1511.948 3669.562 L 1511.948 3669.562 L 1511.948 3669.562 Q 1517.26 3678.089 1528.863 3686.058 L 1528.863 3686.058 L 1528.863 3686.058 Q 1540.466 3694.026 1583.804 3714.716 L 1583.804 3714.716 L 1583.804 3714.716 Q 1641.121 3742.117 1662.37 3769.657 L 1662.37 3769.657 L 1662.37 3769.657 Q 1683.619 3797.197 1683.619 3837.179 Z  M 2135.393 3745.751 L 2135.393 3745.751 L 2135.393 3745.751 Q 2135.393 3847.244 2085.066 3901.766 L 2085.066 3901.766 L 2085.066 3901.766 Q 2034.739 3956.287 1940.795 3956.287 L 1940.795 3956.287 L 1940.795 3956.287 Q 1846.851 3956.287 1796.523 3901.766 L 1796.523 3901.766 L 1796.523 3901.766 Q 1746.196 3847.244 1746.196 3745.192 L 1746.196 3745.192 L 1746.196 3745.192 Q 1746.196 3643.14 1796.663 3589.318 L 1796.663 3589.318 L 1796.663 3589.318 Q 1847.13 3535.496 1941.354 3535.496 L 1941.354 3535.496 L 1941.354 3535.496 Q 2035.577 3535.496 2085.485 3589.737 L 2085.485 3589.737 L 2085.485 3589.737 Q 2135.393 3643.979 2135.393 3745.751 Z  M 1837.065 3745.751 L 1837.065 3745.751 L 1837.065 3745.751 Q 1837.065 3814.252 1863.067 3848.922 L 1863.067 3848.922 L 1863.067 3848.922 Q 1889.07 3883.592 1940.795 3883.592 L 1940.795 3883.592 L 1940.795 3883.592 Q 2044.525 3883.592 2044.525 3745.751 L 2044.525 3745.751 L 2044.525 3745.751 Q 2044.525 3607.631 1941.354 3607.631 L 1941.354 3607.631 L 1941.354 3607.631 Q 1889.629 3607.631 1863.347 3642.441 L 1863.347 3642.441 L 1863.347 3642.441 Q 1837.065 3677.251 1837.065 3745.751 Z  M 2473.092 3541.926 L 2559.487 3541.926 L 2559.487 3806.424 L 2559.487 3806.424 Q 2559.487 3851.718 2539.216 3885.829 L 2539.216 3885.829 L 2539.216 3885.829 Q 2518.946 3919.939 2480.641 3938.113 L 2480.641 3938.113 L 2480.641 3938.113 Q 2442.337 3956.287 2390.052 3956.287 L 2390.052 3956.287 L 2390.052 3956.287 Q 2311.206 3956.287 2267.59 3915.885 L 2267.59 3915.885 L 2267.59 3915.885 Q 2223.973 3875.484 2223.973 3805.305 L 2223.973 3805.305 L 2223.973 3541.926 L 2310.368 3541.926 L 2310.368 3792.164 L 2310.368 3792.164 Q 2310.368 3839.416 2329.38 3861.504 L 2329.38 3861.504 L 2329.38 3861.504 Q 2348.393 3883.592 2392.289 3883.592 L 2392.289 3883.592 L 2392.289 3883.592 Q 2434.788 3883.592 2453.94 3861.364 L 2453.94 3861.364 L 2453.94 3861.364 Q 2473.092 3839.136 2473.092 3791.605 L 2473.092 3791.605 L 2473.092 3541.926 L 2473.092 3541.926 Z  M 2752.915 3612.944 L 2752.915 3723.384 L 2780.874 3723.384 L 2780.874 3723.384 Q 2821.975 3723.384 2841.547 3709.684 L 2841.547 3709.684 L 2841.547 3709.684 Q 2861.118 3695.983 2861.118 3666.626 L 2861.118 3666.626 L 2861.118 3666.626 Q 2861.118 3637.548 2841.127 3625.246 L 2841.127 3625.246 L 2841.127 3625.246 Q 2821.136 3612.944 2779.197 3612.944 L 2779.197 3612.944 L 2752.915 3612.944 L 2752.915 3612.944 Z  M 2799.048 3793.842 L 2752.915 3793.842 L 2752.915 3950.695 L 2666.24 3950.695 L 2666.24 3541.926 L 2785.348 3541.926 L 2785.348 3541.926 Q 2868.667 3541.926 2908.65 3572.262 L 2908.65 3572.262 L 2908.65 3572.262 Q 2948.632 3602.599 2948.632 3664.389 L 2948.632 3664.389 L 2948.632 3664.389 Q 2948.632 3700.457 2928.78 3728.556 L 2928.78 3728.556 L 2928.78 3728.556 Q 2908.929 3756.656 2872.582 3772.592 L 2872.582 3772.592 L 2872.582 3772.592 Q 2964.848 3910.433 2992.808 3950.695 L 2992.808 3950.695 L 2896.627 3950.695 L 2799.048 3793.842 L 2799.048 3793.842 Z  M 3224.54 3608.19 L 3224.54 3608.19 L 3224.54 3608.19 Q 3175.611 3608.19 3148.77 3644.957 L 3148.77 3644.957 L 3148.77 3644.957 Q 3121.929 3681.724 3121.929 3747.429 L 3121.929 3747.429 L 3121.929 3747.429 Q 3121.929 3884.151 3224.54 3884.151 L 3224.54 3884.151 L 3224.54 3884.151 Q 3267.598 3884.151 3328.829 3862.622 L 3328.829 3862.622 L 3328.829 3935.317 L 3328.829 3935.317 Q 3278.502 3956.287 3216.432 3956.287 L 3216.432 3956.287 L 3216.432 3956.287 Q 3127.241 3956.287 3079.989 3902.185 L 3079.989 3902.185 L 3079.989 3902.185 Q 3032.738 3848.083 3032.738 3746.87 L 3032.738 3746.87 L 3032.738 3746.87 Q 3032.738 3683.122 3055.944 3635.171 L 3055.944 3635.171 L 3055.944 3635.171 Q 3079.151 3587.221 3122.628 3561.638 L 3122.628 3561.638 L 3122.628 3561.638 Q 3166.105 3536.055 3224.54 3536.055 L 3224.54 3536.055 L 3224.54 3536.055 Q 3284.094 3536.055 3344.207 3564.853 L 3344.207 3564.853 L 3316.247 3635.311 L 3316.247 3635.311 Q 3293.321 3624.407 3270.114 3616.299 L 3270.114 3616.299 L 3270.114 3616.299 Q 3246.908 3608.19 3224.54 3608.19 Z  M 3657.861 3879.118 L 3657.861 3950.695 L 3422.442 3950.695 L 3422.442 3541.926 L 3657.861 3541.926 L 3657.861 3612.944 L 3509.116 3612.944 L 3509.116 3702.694 L 3647.516 3702.694 L 3647.516 3773.711 L 3509.116 3773.711 L 3509.116 3879.118 L 3657.861 3879.118 L 3657.861 3879.118 Z  M 29.793 3745.751 L 29.793 3745.751 L 29.793 3745.751 Q 29.793 3847.244 -20.534 3901.766 L -20.534 3901.766 L -20.534 3901.766 Q -70.861 3956.287 -164.805 3956.287 L -164.805 3956.287 L -164.805 3956.287 Q -258.749 3956.287 -309.076 3901.766 L -309.076 3901.766 L -309.076 3901.766 Q -359.403 3847.244 -359.403 3745.192 L -359.403 3745.192 L -359.403 3745.192 Q -359.403 3643.14 -308.936 3589.318 L -308.936 3589.318 L -308.936 3589.318 Q -258.469 3535.496 -164.246 3535.496 L -164.246 3535.496 L -164.246 3535.496 Q -70.022 3535.496 -20.114 3589.737 L -20.114 3589.737 L -20.114 3589.737 Q 29.793 3643.979 29.793 3745.751 Z  M -268.535 3745.751 L -268.535 3745.751 L -268.535 3745.751 Q -268.535 3814.252 -242.532 3848.922 L -242.532 3848.922 L -242.532 3848.922 Q -216.53 3883.592 -164.805 3883.592 L -164.805 3883.592 L -164.805 3883.592 Q -61.075 3883.592 -61.075 3745.751 L -61.075 3745.751 L -61.075 3745.751 Q -61.075 3607.631 -164.246 3607.631 L -164.246 3607.631 L -164.246 3607.631 Q -215.971 3607.631 -242.253 3642.441 L -242.253 3642.441 L -242.253 3642.441 Q -268.535 3677.251 -268.535 3745.751 Z  M 207.844 3612.944 L 207.844 3734.288 L 236.362 3734.288 L 236.362 3734.288 Q 276.344 3734.288 296.196 3718.491 L 296.196 3718.491 L 296.196 3718.491 Q 316.047 3702.694 316.047 3672.497 L 316.047 3672.497 L 316.047 3672.497 Q 316.047 3642.021 299.411 3627.483 L 299.411 3627.483 L 299.411 3627.483 Q 282.775 3612.944 247.267 3612.944 L 247.267 3612.944 L 207.844 3612.944 L 207.844 3612.944 Z  M 403.56 3669.422 L 403.56 3669.422 L 403.56 3669.422 Q 403.56 3735.406 362.32 3770.356 L 362.32 3770.356 L 362.32 3770.356 Q 321.08 3805.305 245.03 3805.305 L 245.03 3805.305 L 207.844 3805.305 L 207.844 3950.695 L 121.169 3950.695 L 121.169 3541.926 L 251.74 3541.926 L 251.74 3541.926 Q 326.112 3541.926 364.836 3573.94 L 364.836 3573.94 L 364.836 3573.94 Q 403.56 3605.954 403.56 3669.422 Z  M 722.806 3879.118 L 722.806 3950.695 L 487.387 3950.695 L 487.387 3541.926 L 722.806 3541.926 L 722.806 3612.944 L 574.061 3612.944 L 574.061 3702.694 L 712.461 3702.694 L 712.461 3773.711 L 574.061 3773.711 L 574.061 3879.118 L 722.806 3879.118 L 722.806 3879.118 Z  M 1177.376 3541.926 L 1177.376 3950.695 L 1067.215 3950.695 L 889.393 3641.462 L 886.876 3641.462 L 886.876 3641.462 Q 892.189 3723.384 892.189 3758.333 L 892.189 3758.333 L 892.189 3950.695 L 814.741 3950.695 L 814.741 3541.926 L 924.063 3541.926 L 1101.606 3848.083 L 1103.563 3848.083 L 1103.563 3848.083 Q 1099.369 3768.399 1099.369 3735.406 L 1099.369 3735.406 L 1099.369 3541.926 L 1177.376 3541.926 L 1177.376 3541.926 Z  M -352.738 3394.067 L -352.738 3061.349 L -249.191 3061.349 L -249.191 3061.349 Q -178.414 3061.349 -146.439 3081.49 L -146.439 3081.49 L -146.439 3081.49 Q -114.465 3101.63 -114.465 3145.553 L -114.465 3145.553 L -114.465 3145.553 Q -114.465 3175.365 -128.461 3194.482 L -128.461 3194.482 L -128.461 3194.482 Q -142.457 3213.598 -165.67 3217.467 L -165.67 3217.467 L -165.67 3219.743 L -165.67 3219.743 Q -134.036 3226.798 -120.04 3246.142 L -120.04 3246.142 L -120.04 3246.142 Q -106.044 3265.486 -106.044 3297.574 L -106.044 3297.574 L -106.044 3297.574 Q -106.044 3343.09 -138.929 3368.579 L -138.929 3368.579 L -138.929 3368.579 Q -171.814 3394.067 -228.254 3394.067 L -228.254 3394.067 L -352.738 3394.067 L -352.738 3394.067 Z  M -282.189 3119.154 L -282.189 3193.116 L -241.225 3193.116 L -241.225 3193.116 Q -212.551 3193.116 -199.693 3184.241 L -199.693 3184.241 L -199.693 3184.241 Q -186.834 3175.365 -186.834 3154.883 L -186.834 3154.883 L -186.834 3154.883 Q -186.834 3135.767 -200.83 3127.46 L -200.83 3127.46 L -200.83 3127.46 Q -214.826 3119.154 -245.094 3119.154 L -245.094 3119.154 L -282.189 3119.154 L -282.189 3119.154 Z  M -238.495 3249.1 L -282.189 3249.1 L -282.189 3335.807 L -236.219 3335.807 L -236.219 3335.807 Q -207.089 3335.807 -193.207 3324.656 L -193.207 3324.656 L -193.207 3324.656 Q -179.324 3313.505 -179.324 3290.52 L -179.324 3290.52 L -179.324 3290.52 Q -179.324 3249.1 -238.495 3249.1 L -238.495 3249.1 L -238.495 3249.1 Z  M 34.286 3394.067 L -36.263 3394.067 L -36.263 3061.349 L 34.286 3061.349 L 34.286 3394.067 L 34.286 3394.067 Z  M 423.36 3227.253 L 423.36 3227.253 L 423.36 3227.253 Q 423.36 3309.864 382.396 3354.241 L 382.396 3354.241 L 382.396 3354.241 Q 341.432 3398.619 264.966 3398.619 L 264.966 3398.619 L 264.966 3398.619 Q 188.499 3398.619 147.536 3354.241 L 147.536 3354.241 L 147.536 3354.241 Q 106.572 3309.864 106.572 3226.798 L 106.572 3226.798 L 106.572 3226.798 Q 106.572 3143.732 147.649 3099.923 L 147.649 3099.923 L 147.649 3099.923 Q 188.727 3056.115 265.421 3056.115 L 265.421 3056.115 L 265.421 3056.115 Q 342.114 3056.115 382.737 3100.265 L 382.737 3100.265 L 382.737 3100.265 Q 423.36 3144.415 423.36 3227.253 Z  M 180.534 3227.253 L 180.534 3227.253 L 180.534 3227.253 Q 180.534 3283.009 201.699 3311.229 L 201.699 3311.229 L 201.699 3311.229 Q 222.864 3339.449 264.966 3339.449 L 264.966 3339.449 L 264.966 3339.449 Q 349.397 3339.449 349.397 3227.253 L 349.397 3227.253 L 349.397 3227.253 Q 349.397 3114.83 265.421 3114.83 L 265.421 3114.83 L 265.421 3114.83 Q 223.319 3114.83 201.927 3143.163 L 201.927 3143.163 L 201.927 3143.163 Q 180.534 3171.496 180.534 3227.253 Z  M 566.194 3394.067 L 495.645 3394.067 L 495.645 3061.349 L 566.194 3061.349 L 566.194 3394.067 L 566.194 3394.067 Z  M 948.439 3061.349 L 948.439 3394.067 L 858.774 3394.067 L 714.035 3142.367 L 711.986 3142.367 L 711.986 3142.367 Q 716.31 3209.047 716.31 3237.494 L 716.31 3237.494 L 716.31 3394.067 L 653.271 3394.067 L 653.271 3061.349 L 742.254 3061.349 L 886.766 3310.546 L 888.359 3310.546 L 888.359 3310.546 Q 884.945 3245.687 884.945 3218.833 L 884.945 3218.833 L 884.945 3061.349 L 948.439 3061.349 L 948.439 3061.349 Z  M 1104.928 3262.527 L 1104.928 3394.067 L 1035.517 3394.067 L 1035.517 3061.349 L 1226.227 3061.349 L 1226.227 3119.154 L 1104.928 3119.154 L 1104.928 3204.95 L 1217.807 3204.95 L 1217.807 3262.527 L 1104.928 3262.527 L 1104.928 3262.527 Z  M 1596.639 3227.253 L 1596.639 3227.253 L 1596.639 3227.253 Q 1596.639 3309.864 1555.675 3354.241 L 1555.675 3354.241 L 1555.675 3354.241 Q 1514.711 3398.619 1438.245 3398.619 L 1438.245 3398.619 L 1438.245 3398.619 Q 1361.779 3398.619 1320.815 3354.241 L 1320.815 3354.241 L 1320.815 3354.241 Q 1279.851 3309.864 1279.851 3226.798 L 1279.851 3226.798 L 1279.851 3226.798 Q 1279.851 3143.732 1320.929 3099.923 L 1320.929 3099.923 L 1320.929 3099.923 Q 1362.006 3056.115 1438.7 3056.115 L 1438.7 3056.115 L 1438.7 3056.115 Q 1515.394 3056.115 1556.016 3100.265 L 1556.016 3100.265 L 1556.016 3100.265 Q 1596.639 3144.415 1596.639 3227.253 Z  M 1353.814 3227.253 L 1353.814 3227.253 L 1353.814 3227.253 Q 1353.814 3283.009 1374.978 3311.229 L 1374.978 3311.229 L 1374.978 3311.229 Q 1396.143 3339.449 1438.245 3339.449 L 1438.245 3339.449 L 1438.245 3339.449 Q 1522.676 3339.449 1522.676 3227.253 L 1522.676 3227.253 L 1522.676 3227.253 Q 1522.676 3114.83 1438.7 3114.83 L 1438.7 3114.83 L 1438.7 3114.83 Q 1396.598 3114.83 1375.206 3143.163 L 1375.206 3143.163 L 1375.206 3143.163 Q 1353.814 3171.496 1353.814 3227.253 Z  M 1739.473 3119.154 L 1739.473 3209.047 L 1762.231 3209.047 L 1762.231 3209.047 Q 1795.685 3209.047 1811.615 3197.895 L 1811.615 3197.895 L 1811.615 3197.895 Q 1827.546 3186.744 1827.546 3162.848 L 1827.546 3162.848 L 1827.546 3162.848 Q 1827.546 3139.18 1811.274 3129.167 L 1811.274 3129.167 L 1811.274 3129.167 Q 1795.002 3119.154 1760.865 3119.154 L 1760.865 3119.154 L 1739.473 3119.154 L 1739.473 3119.154 Z  M 1777.023 3266.396 L 1739.473 3266.396 L 1739.473 3394.067 L 1668.924 3394.067 L 1668.924 3061.349 L 1765.872 3061.349 L 1765.872 3061.349 Q 1833.69 3061.349 1866.234 3086.041 L 1866.234 3086.041 L 1866.234 3086.041 Q 1898.777 3110.733 1898.777 3161.028 L 1898.777 3161.028 L 1898.777 3161.028 Q 1898.777 3190.385 1882.619 3213.257 L 1882.619 3213.257 L 1882.619 3213.257 Q 1866.461 3236.128 1836.876 3249.1 L 1836.876 3249.1 L 1836.876 3249.1 Q 1911.977 3361.296 1934.735 3394.067 L 1934.735 3394.067 L 1856.448 3394.067 L 1777.023 3266.396 L 1777.023 3266.396 Z  M 2185.441 3394.067 L 2120.809 3394.067 L 2040.701 3133.036 L 2038.653 3133.036 L 2038.653 3133.036 Q 2042.977 3212.688 2042.977 3239.315 L 2042.977 3239.315 L 2042.977 3394.067 L 1979.938 3394.067 L 1979.938 3061.349 L 2075.976 3061.349 L 2154.718 3315.781 L 2156.083 3315.781 L 2239.604 3061.349 L 2335.642 3061.349 L 2335.642 3394.067 L 2269.872 3394.067 L 2269.872 3236.584 L 2269.872 3236.584 Q 2269.872 3225.432 2270.213 3210.867 L 2270.213 3210.867 L 2270.213 3210.867 Q 2270.555 3196.302 2273.285 3133.491 L 2273.285 3133.491 L 2271.237 3133.491 L 2185.441 3394.067 L 2185.441 3394.067 Z  M 2702.412 3394.067 L 2626.401 3394.067 L 2602.278 3314.87 L 2480.979 3314.87 L 2456.856 3394.067 L 2380.845 3394.067 L 2498.275 3059.983 L 2584.527 3059.983 L 2702.412 3394.067 L 2702.412 3394.067 Z  M 2498.73 3255.7 L 2585.437 3255.7 L 2585.437 3255.7 Q 2551.983 3148.056 2547.773 3133.946 L 2547.773 3133.946 L 2547.773 3133.946 Q 2543.563 3119.836 2541.742 3111.644 L 2541.742 3111.644 L 2541.742 3111.644 Q 2534.232 3140.773 2498.73 3255.7 L 2498.73 3255.7 L 2498.73 3255.7 Z  M 2875.969 3120.064 L 2875.969 3394.067 L 2805.42 3394.067 L 2805.42 3120.064 L 2715.072 3120.064 L 2715.072 3061.349 L 2966.318 3061.349 L 2966.318 3120.064 L 2875.969 3120.064 L 2875.969 3120.064 Z  M 3091.401 3394.067 L 3020.852 3394.067 L 3020.852 3061.349 L 3091.401 3061.349 L 3091.401 3394.067 L 3091.401 3394.067 Z  M 3319.804 3115.285 L 3319.804 3115.285 L 3319.804 3115.285 Q 3279.978 3115.285 3258.131 3145.211 L 3258.131 3145.211 L 3258.131 3145.211 Q 3236.283 3175.138 3236.283 3228.618 L 3236.283 3228.618 L 3236.283 3228.618 Q 3236.283 3339.904 3319.804 3339.904 L 3319.804 3339.904 L 3319.804 3339.904 Q 3354.851 3339.904 3404.691 3322.38 L 3404.691 3322.38 L 3404.691 3381.551 L 3404.691 3381.551 Q 3363.727 3398.619 3313.204 3398.619 L 3313.204 3398.619 L 3313.204 3398.619 Q 3240.607 3398.619 3202.147 3354.583 L 3202.147 3354.583 L 3202.147 3354.583 Q 3163.686 3310.546 3163.686 3228.163 L 3163.686 3228.163 L 3163.686 3228.163 Q 3163.686 3176.276 3182.575 3137.246 L 3182.575 3137.246 L 3182.575 3137.246 Q 3201.464 3098.216 3236.852 3077.393 L 3236.852 3077.393 L 3236.852 3077.393 Q 3272.24 3056.57 3319.804 3056.57 L 3319.804 3056.57 L 3319.804 3056.57 Q 3368.278 3056.57 3417.207 3080.01 L 3417.207 3080.01 L 3394.45 3137.36 L 3394.45 3137.36 Q 3375.788 3128.484 3356.899 3121.885 L 3356.899 3121.885 L 3356.899 3121.885 Q 3338.01 3115.285 3319.804 3115.285 Z  M 3675.196 3301.671 L 3675.196 3301.671 L 3675.196 3301.671 Q 3675.196 3346.731 3642.766 3372.675 L 3642.766 3372.675 L 3642.766 3372.675 Q 3610.336 3398.619 3552.531 3398.619 L 3552.531 3398.619 L 3552.531 3398.619 Q 3499.278 3398.619 3458.314 3378.592 L 3458.314 3378.592 L 3458.314 3313.05 L 3458.314 3313.05 Q 3491.996 3328.07 3515.323 3334.214 L 3515.323 3334.214 L 3515.323 3334.214 Q 3538.649 3340.359 3557.993 3340.359 L 3557.993 3340.359 L 3557.993 3340.359 Q 3581.206 3340.359 3593.609 3331.483 L 3593.609 3331.483 L 3593.609 3331.483 Q 3606.012 3322.608 3606.012 3305.084 L 3606.012 3305.084 L 3606.012 3305.084 Q 3606.012 3295.299 3600.55 3287.675 L 3600.55 3287.675 L 3600.55 3287.675 Q 3595.088 3280.051 3584.506 3272.996 L 3584.506 3272.996 L 3584.506 3272.996 Q 3573.924 3265.941 3541.38 3250.466 L 3541.38 3250.466 L 3541.38 3250.466 Q 3510.885 3236.128 3495.637 3222.929 L 3495.637 3222.929 L 3495.637 3222.929 Q 3480.389 3209.729 3471.286 3192.206 L 3471.286 3192.206 L 3471.286 3192.206 Q 3462.183 3174.683 3462.183 3151.242 L 3462.183 3151.242 L 3462.183 3151.242 Q 3462.183 3107.092 3492.11 3081.831 L 3492.11 3081.831 L 3492.11 3081.831 Q 3522.036 3056.57 3574.834 3056.57 L 3574.834 3056.57 L 3574.834 3056.57 Q 3600.778 3056.57 3624.332 3062.714 L 3624.332 3062.714 L 3624.332 3062.714 Q 3647.886 3068.859 3673.603 3080.01 L 3673.603 3080.01 L 3650.845 3134.856 L 3650.845 3134.856 Q 3624.218 3123.933 3606.809 3119.609 L 3606.809 3119.609 L 3606.809 3119.609 Q 3589.399 3115.285 3572.558 3115.285 L 3572.558 3115.285 L 3572.558 3115.285 Q 3552.531 3115.285 3541.835 3124.615 L 3541.835 3124.615 L 3541.835 3124.615 Q 3531.139 3133.946 3531.139 3148.966 L 3531.139 3148.966 L 3531.139 3148.966 Q 3531.139 3158.297 3535.463 3165.238 L 3535.463 3165.238 L 3535.463 3165.238 Q 3539.787 3172.179 3549.232 3178.665 L 3549.232 3178.665 L 3549.232 3178.665 Q 3558.676 3185.151 3593.951 3201.992 L 3593.951 3201.992 L 3593.951 3201.992 Q 3640.604 3224.294 3657.9 3246.711 L 3657.9 3246.711 L 3657.9 3246.711 Q 3675.196 3269.127 3675.196 3301.671 Z " fill="rgb(255,255,255)"/></g></svg>