<?xml version="1.0" standalone="no"?><!-- Generator: Gravit.io --><svg xmlns="http://www.w3.org/2000/svg" xmlns:xlink="http://www.w3.org/1999/xlink" style="isolation:isolate" viewBox="273.99 83.333 1758.333 1758.333" width="1758.333" height="1758.333"><defs><clipPath id="_clipPath_Bt5ZzqFxAcyy9sRlyP35QQw3rGAT6Kyc"><rect x="273.99" y="83.333" width="1758.333" height="1758.333"/></clipPath></defs><g clip-path="url(#_clipPath_Bt5ZzqFxAcyy9sRlyP35QQw3rGAT6Kyc)"><g><g opacity="0.85"><rect x="273.99" y="83.333" width="1758.333" height="1758.333" transform="matrix(1,0,0,1,0,0)" fill="rgb(102,189,126)"/></g><g><path d=" M 695.199 683.364 C 727.435 633.545 790.759 639.302 850.414 615.44 C 910.07 591.577 961.88 539.767 985.324 481.156 C 1008.768 422.545 1002.971 358.772 1053.331 326.187 C 1103.691 293.601 1208.047 293.601 1257.866 325.837 C 1307.685 358.073 1301.824 422.545 1325.268 481.156 C 1348.713 539.768 1400.712 591.767 1460.158 615.545 C 1519.603 639.323 1583.157 633.545 1615.393 683.365 C 1647.63 733.185 1647.63 838.683 1615.393 888.503 C 1583.157 938.323 1518.685 932.462 1460.074 955.906 C 1401.464 979.35 1348.713 1032.1 1325.269 1090.711 C 1301.824 1149.323 1307.685 1213.794 1257.865 1246.031 C 1208.045 1278.267 1102.547 1278.267 1052.727 1246.031 C 1002.907 1213.795 1008.768 1149.322 985.324 1090.712 C 961.88 1032.101 909.129 979.35 850.519 955.906 C 791.908 932.462 727.436 938.323 695.199 888.503 C 662.963 838.683 662.963 733.183 695.199 683.364 Z " fill-rule="evenodd" fill="none" vector-effect="non-scaling-stroke" stroke-width="17.583" stroke="rgb(255,255,255)" stroke-linejoin="miter" stroke-linecap="butt" stroke-miterlimit="4"/><path d=" M 902.502 388.074 C 960.523 375.642 1001.229 424.489 1060.285 449.799 C 1119.341 475.108 1192.612 475.108 1250.634 450.241 C 1308.656 425.375 1349.65 376.181 1408.302 388.75 C 1466.954 401.318 1540.744 475.108 1553.177 533.13 C 1565.611 591.152 1515.877 632.596 1491.011 690.618 C 1466.144 748.641 1466.144 822.179 1491.364 881.027 C 1516.585 939.874 1565.61 980.729 1553.177 1038.751 C 1540.743 1096.773 1466.145 1171.371 1408.122 1183.805 C 1350.1 1196.239 1308.656 1146.506 1250.634 1121.639 C 1192.612 1096.773 1118.012 1096.773 1059.99 1121.639 C 1001.968 1146.506 960.524 1196.238 902.501 1183.805 C 844.478 1171.371 769.88 1096.773 757.447 1038.751 C 745.013 980.728 794.746 939.284 819.613 881.262 C 844.479 823.24 844.479 748.64 819.613 690.619 C 794.747 632.597 745.013 591.153 757.447 533.13 C 769.88 475.108 844.48 400.507 902.502 388.074 L 902.502 388.074 Z " fill-rule="evenodd" fill="none" vector-effect="non-scaling-stroke" stroke-width="52.75" stroke="rgb(255,255,255)" stroke-linejoin="miter" stroke-linecap="butt" stroke-miterlimit="4"/></g></g><g><linearGradient id="_lgradient_15" x1="0.3764485132505324" y1="1.0425847643096884" x2="0.638516668577901" y2="0.07551902024893475" gradientTransform="matrix(330.095,0,0,259.792,1007.951,651.703)" gradientUnits="userSpaceOnUse"><stop offset="0%" stop-opacity="1" style="stop-color:rgb(243,219,81)"/><stop offset="10%" stop-opacity="1" style="stop-color:rgb(244,222,97)"/><stop offset="20%" stop-opacity="1" style="stop-color:rgb(245,224,113)"/><stop offset="30.000000000000004%" stop-opacity="1" style="stop-color:rgb(245,227,127)"/><stop offset="40%" stop-opacity="1" style="stop-color:rgb(246,229,141)"/><stop offset="50%" stop-opacity="1" style="stop-color:rgb(247,231,154)"/><stop offset="60%" stop-opacity="1" style="stop-color:rgb(248,233,165)"/><stop offset="70%" stop-opacity="1" style="stop-color:rgb(248,235,175)"/><stop offset="80%" stop-opacity="1" style="stop-color:rgb(249,236,184)"/><stop offset="89.99999999999999%" stop-opacity="1" style="stop-color:rgb(249,238,191)"/><stop offset="99.99999999999999%" stop-opacity="1" style="stop-color:rgb(250,238,195)"/></linearGradient><path d=" M 1122.696 652.463 C 1115.185 654.113 1106.495 652.232 1098.156 656.513 L 1098.156 656.513 C 1089.835 660.782 1082.435 664.942 1080.866 665.353 L 1080.866 665.353 C 1077.536 666.222 1063.935 671.713 1055.496 680.843 L 1055.496 680.843 C 1050.505 686.233 1043.635 693.983 1038.826 699.512 L 1038.826 699.512 C 1030.926 708.582 1031.806 716.672 1029.546 718.832 L 1029.546 718.832 C 1024.945 723.242 1013.565 746.163 1009.475 765.513 L 1009.475 765.513 C 1006.046 781.733 1009.475 794.583 1009.475 800.102 L 1009.475 800.102 C 1009.475 802.552 1008.956 817.612 1012.826 830.172 L 1012.826 830.172 C 1017.615 845.732 1027.075 859.303 1028.155 861.982 L 1028.155 861.982 C 1030.305 867.323 1048.345 885.383 1063.155 895.512 L 1063.155 895.512 C 1071.255 901.043 1078.665 900.852 1081.335 902.692 L 1081.335 902.692 C 1084.615 904.933 1096.545 913.222 1109.496 911.172 L 1109.496 911.172 C 1115.105 910.293 1122.485 910.063 1128.495 907.512 L 1128.495 907.512 C 1131.945 906.042 1134.185 901.892 1137.315 901.293 L 1137.315 901.293 C 1147.755 899.302 1155.035 893.332 1158.696 893.332 L 1158.696 893.332 C 1165.865 893.332 1172.545 894.703 1178.696 892.172 L 1178.696 892.172 C 1181.736 890.922 1192.266 894.552 1210.495 899.173 L 1210.495 899.173 C 1211.395 899.402 1219.516 902.913 1220.825 903.512 L 1220.825 903.512 C 1226.515 906.103 1229.205 904.982 1233.495 905.843 L 1233.495 905.843 C 1241.275 907.402 1245.575 903.692 1253.155 902.513 L 1253.155 902.513 C 1267.005 900.353 1280.306 892.043 1291.826 889.842 L 1291.826 889.842 C 1308.145 886.722 1318.906 859.502 1320.415 857.012 L 1320.415 857.012 C 1321.865 854.623 1342.365 849.172 1337.175 834.512 L 1337.175 834.512 C 1333.455 824.003 1340.805 799.752 1336.826 789.173 L 1336.826 789.173 C 1331.326 774.533 1313.156 756.082 1313.156 753.173 L 1313.156 753.173 C 1313.156 746.402 1230.885 724.193 1227.965 718.423 L 1227.965 718.423 C 1225.735 714.033 1226.276 698.772 1213.156 693.842 L 1213.156 693.842 C 1204.745 690.672 1206.575 681.952 1203.825 680.173 L 1203.825 680.173 C 1200.965 678.332 1198.435 672.932 1193.155 668.513 L 1193.155 668.513 C 1190.816 666.552 1185.915 664.693 1183.495 661.512 L 1183.495 661.512 C 1176.056 651.733 1143.975 652.463 1138.845 652.463 L 1138.845 652.463 C 1137.825 652.463 1134.454 651.703 1130.009 651.703 L 1130.009 651.703 C 1127.787 651.703 1125.295 651.893 1122.696 652.463 Z " fill="url(#_lgradient_15)"/><clipPath id="_clipPath_9MIHIWPNG1lgU4YKdBWGGgJKYYk4EtAB"><path d=" M 915.92 614.307 L 1416.08 614.307 L 1416.08 969.027 L 915.92 969.027 L 915.92 614.307 Z " fill="rgb(255,255,255)"/></clipPath><g clip-path="url(#_clipPath_9MIHIWPNG1lgU4YKdBWGGgJKYYk4EtAB)"><path d=" M 997.08 785.187 C 997.879 789.192 997.879 796.542 997.08 800.547 L 997.08 785.187 Z " fill-rule="evenodd" fill="rgb(254,254,254)"/><path d=" M 1348.915 802.462 L 1348.915 823.592 C 1348.285 823.752 1348.165 824.432 1347.485 824.552 C 1334.145 827.062 1336.295 813.852 1335.485 802.462 C 1334.335 786.512 1327.845 776.282 1320.595 766.462 C 1316.595 761.042 1312.355 754.872 1306.675 751.102 C 1292.295 741.552 1267.865 739.142 1250.525 731.902 C 1241.016 727.942 1231.785 722.552 1225.075 714.142 C 1222.365 710.742 1221.415 707.752 1218.835 703.582 C 1214.465 696.522 1208.885 690.132 1203.955 682.942 C 1196.915 672.672 1189.945 667.222 1178.525 661.822 C 1175.745 660.512 1173.215 658.842 1170.835 657.982 C 1155.265 652.362 1129.385 650.732 1113.245 653.662 C 1105.595 655.052 1097.495 658.742 1089.725 661.822 C 1070.235 669.562 1056.265 682.182 1043.635 697.822 C 1039.995 702.342 1036.425 707.492 1033.555 713.182 C 1028.995 722.262 1023.525 729.922 1020.115 740.062 C 1019.085 743.152 1019.155 746.302 1018.205 749.182 C 1017.425 751.512 1015.475 753.572 1014.835 755.902 C 1013.895 759.372 1013.695 763.792 1012.915 767.902 C 1011.255 776.702 1009.605 791.642 1010.995 802.941 C 1011.475 806.802 1013.305 810.742 1013.875 814.941 C 1015.655 827.962 1019.455 837.972 1024.435 848.062 C 1028.815 856.932 1036.765 866.632 1044.595 874.462 C 1052.655 882.522 1060.535 891.102 1069.075 896.062 C 1072.255 897.912 1076.015 899.092 1079.155 900.861 C 1085.945 904.702 1096.975 911.842 1108.915 910.462 C 1112.005 910.111 1114.745 907.782 1118.035 907.102 C 1120.845 906.532 1124.115 907.392 1127.155 906.632 C 1129.925 905.932 1132.175 903.512 1134.835 902.302 C 1136.865 901.392 1139.305 901.282 1141.555 900.382 C 1144.635 899.172 1147.245 896.972 1150.205 896.062 C 1162.025 892.432 1177.476 888.072 1192.915 891.262 C 1195.575 891.812 1198.035 893.901 1200.595 894.632 C 1202.905 895.272 1205.315 894.972 1207.325 895.592 C 1214.595 897.802 1221.095 902.002 1228.445 903.262 C 1242.226 905.632 1259.535 900.092 1270.675 896.062 C 1278.255 893.332 1283.155 889.892 1289.405 885.982 C 1304.476 876.542 1316.595 866.552 1325.405 850.462 C 1326.835 847.842 1328.665 845.772 1329.715 843.742 C 1331.535 840.262 1330.855 836.762 1333.556 836.062 C 1336.005 835.441 1341.365 838.672 1342.205 840.861 C 1343.726 844.852 1340.715 850.162 1338.835 853.822 C 1333.105 865.062 1329.365 869.361 1320.115 878.302 C 1315.806 882.482 1310.775 887.002 1306.205 889.822 C 1296.245 895.972 1284.965 898.422 1276.445 904.702 C 1274.016 905.052 1273.755 903.232 1271.155 903.742 C 1269.476 906.861 1264.835 907.022 1262.035 909.022 C 1257.766 908.651 1253.575 908.272 1249.565 909.022 C 1247.925 909.332 1246.405 910.702 1244.755 910.941 C 1237.955 911.952 1231.585 908.782 1224.595 909.982 C 1221.655 905.662 1217.325 905.232 1210.675 905.182 C 1209.186 903.932 1207.445 901.292 1204.915 900.382 C 1202.785 899.622 1199.575 900.782 1197.245 899.901 C 1195.335 899.191 1194.085 897.002 1192.445 896.552 C 1184.965 894.462 1177.395 896.842 1170.835 896.552 C 1162.345 901.242 1150.895 901.012 1141.555 904.702 C 1140.065 905.302 1138.685 906.812 1137.245 907.592 C 1132.995 909.872 1128.595 911.042 1125.725 914.782 C 1118.665 912.022 1110.735 917.672 1104.115 918.142 L 1092.595 918.142 C 1088.085 917.062 1084.645 914.901 1079.155 914.782 C 1057.705 904.532 1039.435 890.062 1024.915 872.062 C 1022.715 869.332 1021.445 866.592 1019.635 863.901 C 1018.675 862.472 1017.065 861.972 1016.285 860.552 C 1015.545 859.212 1015.755 857.232 1014.835 855.742 C 1013.805 854.072 1012.025 853.032 1010.995 851.422 C 1009.295 848.732 1007.435 845.382 1006.205 842.302 C 1004.875 839.002 1002.875 834.932 1001.875 831.262 C 999.665 823.082 1000.315 814.332 997.075 805.822 L 997.075 800.552 C 997.875 796.542 997.875 789.192 997.075 785.182 L 997.075 778.462 C 998.725 771.792 999.295 760.922 1001.395 753.022 C 1002.005 750.742 1003.375 748.382 1004.285 745.822 C 1006.145 740.542 1007.615 736.652 1009.555 731.902 C 1013.365 722.622 1017.345 712.932 1022.035 704.062 C 1028.785 691.342 1040.545 679.832 1050.835 670.462 C 1058.825 663.202 1068.555 657.632 1079.635 652.222 C 1083.325 650.432 1086.615 647.752 1089.725 646.942 C 1092.685 646.182 1096.115 646.672 1099.325 645.982 C 1108.185 644.092 1116.015 641.662 1125.725 641.662 C 1142.545 641.662 1158.225 642.812 1171.325 647.422 C 1176.525 649.262 1180.275 653.032 1186.205 654.142 C 1201.726 666.402 1211.476 683.152 1223.155 699.262 C 1226.436 703.782 1229.186 709.532 1233.245 713.662 C 1235.306 715.772 1238.945 717.432 1241.875 719.422 C 1251.726 726.102 1263.525 730.732 1277.405 734.302 C 1286.825 736.732 1297.145 737.762 1305.715 741.982 C 1309.915 744.052 1314.405 748.472 1319.155 751.582 C 1324.056 754.792 1328.965 757.862 1332.115 761.662 C 1341.165 772.592 1344.925 787.482 1348.915 802.462 Z " fill="rgb(55,53,53)"/><path d=" M 1330.582 798.044 C 1332.683 796.145 1336.662 796.124 1336.342 791.804 C 1332.846 791.994 1329.638 795.011 1330.582 798.044 Z " fill-rule="evenodd" fill="rgb(55,53,53)"/><path d=" M 1141.984 909.262 C 1147.296 911.676 1153.253 909.917 1155.423 905.422 C 1158.122 907.396 1161.096 905.405 1164.063 906.382 C 1172.476 900.294 1184.163 905 1193.825 903.022 C 1196.941 905.186 1202.562 904.843 1204.864 907.823 C 1208.182 905.908 1209.96 909.263 1213.023 910.222 C 1217.301 909.399 1220.7 911.214 1223.104 913.582 C 1228.785 913.351 1232.355 915.388 1237.505 917.422 C 1239.317 917.634 1239.756 916.476 1240.864 915.982 C 1245.249 919.499 1253.494 917.443 1256.223 913.582 C 1266.88 918.607 1269.771 907.346 1281.183 908.782 C 1284.977 906.166 1288.106 902.01 1294.624 903.502 C 1290.738 910.816 1284.294 915.572 1277.825 920.302 C 1275.311 920.255 1276.723 916.283 1274.463 915.982 C 1266.851 918.128 1263.976 925.015 1257.183 927.982 C 1255.714 927.691 1254.683 926.963 1253.343 926.542 C 1248.456 930.471 1243.325 936.659 1237.505 938.062 C 1238.877 932.875 1241.843 929.283 1243.744 924.622 C 1241.17 923.19 1239.743 926.568 1237.023 926.542 C 1235.96 928.038 1234.742 929.379 1234.144 931.342 C 1227.704 935.142 1223.87 941.548 1216.864 944.782 C 1217.821 936.923 1226.234 932.405 1228.864 924.622 C 1217.204 927.05 1212.252 940.325 1200.063 943.822 C 1199.619 939.698 1201.706 938.104 1204.383 937.102 C 1206.242 931.76 1210.783 929.101 1213.023 924.142 C 1209.541 924.374 1205.864 927.145 1202.943 929.422 C 1200.037 931.689 1197.146 934.261 1195.264 937.102 C 1192.769 938.448 1190.196 939.714 1189.023 942.382 C 1185.873 942.526 1183.838 946.026 1181.343 945.262 C 1184.877 934.874 1195.16 931.238 1198.624 920.782 C 1186.885 923.32 1180.144 935.45 1170.785 942.382 C 1167.992 944.45 1164.176 946.62 1160.704 947.182 C 1161.57 944.279 1163.723 941.157 1165.505 939.022 C 1169.482 934.254 1174.398 930.119 1178.943 926.062 C 1179.295 922.411 1183.161 922.278 1183.264 918.382 C 1176.614 918.94 1171.779 924.52 1166.943 928.462 C 1159.647 934.412 1153.044 942.198 1145.824 947.662 C 1142.932 949.851 1139.115 952.358 1135.264 952.462 C 1140.501 939.618 1153.79 934.827 1159.264 922.222 C 1154.087 921.258 1150.499 926.021 1147.264 928.942 C 1140.742 934.833 1134.529 940.687 1127.585 946.222 C 1124.404 948.756 1120.938 950.826 1117.505 953.422 C 1115.465 954.962 1114.158 958.533 1110.783 957.742 C 1110.173 953.931 1113.051 953.61 1115.104 952.462 C 1117.324 948.283 1120.412 944.97 1124.223 942.382 C 1125.99 937.202 1131.148 935.113 1134.303 931.342 C 1135.021 930.485 1135.048 928.929 1135.744 927.982 C 1136.906 926.398 1140.553 925.626 1139.104 922.702 C 1125.757 931.116 1114.27 941.388 1103.585 952.462 C 1099.077 953.278 1097.122 959.064 1092.064 957.742 C 1092.162 954.64 1094.242 953.52 1096.383 952.462 C 1102.856 945.015 1110.027 938.266 1115.585 929.902 C 1109.589 929.382 1106.43 935.763 1101.184 937.582 C 1096.158 943.888 1087.59 948.932 1080.544 953.902 C 1077.973 955.715 1076.231 958.514 1071.423 958.702 C 1073.139 950.817 1081.622 949.7 1084.863 943.342 C 1086.065 942.944 1086.749 942.027 1088.223 941.902 C 1089.331 938.689 1092.214 937.252 1093.505 934.222 C 1089.382 932.671 1085.165 936.309 1081.984 938.542 C 1075.497 943.095 1068.55 947.577 1061.824 952.462 C 1053.742 954.793 1048.184 962.165 1039.263 962.062 C 1046.122 953.241 1056.48 947.918 1065.663 941.422 C 1066.063 940.221 1066.979 939.537 1067.104 938.062 C 1069.128 936.886 1072.736 937.295 1072.863 934.222 C 1070.206 930.215 1067.044 935.382 1064.703 936.622 C 1063.236 937.4 1061.13 937.442 1059.904 938.062 C 1058.087 938.981 1056.977 940.777 1055.104 941.902 C 1051.178 944.261 1046.296 945.826 1042.144 948.142 C 1034.787 952.243 1025.55 959.028 1015.743 961.102 C 1016.019 958.586 1018.179 955.912 1020.064 954.382 C 1026.098 949.481 1035.216 946.132 1042.144 941.422 C 1043.805 940.292 1044.902 938.247 1046.464 937.102 C 1050.063 934.462 1055.339 933.746 1057.025 929.422 C 1053.738 925.56 1049.018 930.835 1046.943 932.782 C 1025.869 938.747 1013.243 953.16 989.824 956.782 C 994.973 949.41 1004.051 946.658 1011.903 942.382 C 1018.581 938.745 1024.426 933.357 1031.584 930.862 C 1033.439 928.557 1036.03 926.99 1037.824 924.622 C 1031.751 922.797 1025.518 926.599 1020.544 928.942 C 1014.582 931.75 1008.486 935.687 1001.824 938.062 C 992.834 941.266 985.76 946.684 974.943 946.702 C 975.257 943.496 978.306 943.024 981.183 942.382 C 992.975 932.894 1009.659 928.297 1021.983 919.342 C 1020.828 915.929 1017.038 917.481 1015.263 917.902 C 1008.775 919.441 1001.314 923.986 995.584 926.542 C 989.779 929.131 983.021 930.877 976.863 932.782 C 970.505 934.749 964.491 938.554 957.663 937.582 C 958.014 933.243 962.829 934.028 965.343 932.782 C 967.306 931.81 968.446 929.819 970.143 928.942 C 971.957 928.005 974.212 928.289 976.383 927.502 C 978.655 926.679 980.338 924.61 982.623 923.662 C 985.649 922.408 988.294 922.63 990.784 921.262 C 991.983 920.603 992.831 919.088 994.144 918.382 C 996.09 917.335 998.551 917.444 1000.383 916.462 C 1001.937 915.63 1002.832 913.899 1004.223 913.102 C 1007.113 911.448 1010.724 912.579 1012.863 909.742 C 1008.62 905.846 1004.125 909.754 1000.863 911.182 C 997.747 912.546 993.413 912.456 990.303 913.582 C 988.595 914.2 987.291 915.811 985.505 916.462 C 982.033 917.727 978.043 917.162 974.943 918.382 C 972.337 919.408 970.76 921.881 967.743 922.222 C 963.464 922.705 959.714 921.126 956.223 923.662 C 960.063 918.565 967.401 915.714 974.463 913.102 C 976.959 912.179 979.779 912.509 982.144 911.662 C 983.652 911.121 984.888 909.531 986.464 908.782 C 990.946 906.652 995.232 906.959 997.505 902.541 C 1000.437 902.594 1002.731 902.01 1004.223 900.621 C 1002.007 896.645 995.041 899.447 993.663 902.062 C 984.346 900.988 975.066 906.217 967.743 907.823 C 964.733 908.483 961.706 908.024 959.104 908.782 C 954.515 910.118 948.803 914.844 943.743 910.702 C 945.492 906.477 950.424 907.928 953.823 906.862 C 955.962 906.192 957.414 904.214 959.584 903.502 C 962.052 902.692 964.861 902.896 967.263 902.062 C 969.307 901.353 970.954 899.517 973.024 898.701 C 980.747 895.662 990.214 896.644 995.584 890.541 C 985.695 883.522 973.396 895.885 959.584 891.502 C 964.593 886.752 976.942 889.341 978.303 880.942 C 971.696 876.584 962.288 884.25 954.783 880.462 C 956.903 876.306 962.89 878.927 966.303 877.582 C 969.955 876.143 973.109 873.098 977.823 872.302 C 981.551 871.673 985.127 873.244 988.383 870.382 C 985.87 865.856 975.422 869.263 972.544 865.102 C 979.225 862.824 988.201 862.84 995.584 861.262 C 997.988 849.308 1004.217 850.815 1009.505 859.342 C 1012.382 863.986 1015.577 866.672 1017.663 871.342 C 1027.109 884.616 1040.492 893.953 1052.223 904.942 C 1056.471 906.455 1059.29 909.397 1061.824 912.622 C 1064.126 912.879 1065.065 914.501 1068.064 914.062 C 1068.581 915.306 1069.799 915.847 1069.984 917.422 C 1072.128 919.117 1075.016 918.427 1077.184 919.342 C 1078.99 920.105 1079.906 921.952 1081.505 922.702 C 1087.522 925.524 1092.195 923.494 1100.223 924.142 C 1104.859 924.516 1110.115 924.067 1115.585 922.702 C 1118.796 920.314 1123.029 918.948 1128.063 918.382 C 1129.27 917.829 1129.574 916.372 1130.464 915.502 C 1135.523 914.642 1139.408 912.606 1141.984 909.262 Z " fill-rule="evenodd" fill="rgb(55,53,53)"/><radialGradient id="_rgradient_3" fx="0.5" fy="0.5" cx="0.5" cy="0.5" r="0.5" gradientTransform="matrix(296.965,0,0,220.416,1017.203,683.902)" gradientUnits="userSpaceOnUse"><stop offset="0%" stop-opacity="1" style="stop-color:rgb(221,226,107)"/><stop offset="10%" stop-opacity="1" style="stop-color:rgb(200,213,100)"/><stop offset="20%" stop-opacity="1" style="stop-color:rgb(89,148,66)"/><stop offset="30.000000000000004%" stop-opacity="1" style="stop-color:rgb(88,148,66)"/><stop offset="40%" stop-opacity="1" style="stop-color:rgb(87,146,66)"/><stop offset="50%" stop-opacity="1" style="stop-color:rgb(82,142,64)"/><stop offset="60%" stop-opacity="1" style="stop-color:rgb(74,134,60)"/><stop offset="70%" stop-opacity="1" style="stop-color:rgb(61,122,55)"/><stop offset="80%" stop-opacity="1" style="stop-color:rgb(44,105,47)"/><stop offset="89.99999999999999%" stop-opacity="1" style="stop-color:rgb(44,105,47)"/><stop offset="99.99999999999999%" stop-opacity="1" style="stop-color:rgb(44,105,47)"/></radialGradient><path d=" M 1308.066 855.262 C 1308.066 855.182 1311.365 851.703 1313.365 852.862 C 1316.095 854.463 1311.115 861.592 1309.525 863.423 C 1306.925 866.423 1303.995 869.592 1301.365 871.592 C 1298.896 873.453 1295.295 874.692 1292.245 876.862 C 1285.035 882.012 1275.195 889.012 1266.325 892.713 C 1264.266 893.562 1261.705 893.592 1259.115 894.632 C 1255.396 896.112 1252.335 898.543 1249.525 898.942 C 1244.245 899.703 1237.205 901.392 1232.075 901.562 C 1231.485 901.583 1230.275 901.132 1228.985 900.612 L 1228.885 901.102 C 1229.155 901.283 1222.266 901.382 1222.266 901.552 L 1221.766 901.402 C 1217.775 899.732 1218.976 897.993 1217.835 896.062 C 1216.405 893.642 1213.186 894.453 1208.715 894.142 L 1207.875 893.423 L 1206.795 893.673 C 1200.745 885.333 1187.615 887.932 1177.525 887.902 C 1163.066 887.873 1150.575 891.552 1139.115 896.062 C 1134.225 897.993 1129.485 900.783 1125.675 901.823 C 1123.505 902.423 1120.955 901.953 1118.475 902.302 C 1111.115 903.373 1100.735 905.972 1091.595 902.783 C 1089.605 902.092 1087.995 900.392 1085.845 899.423 C 1084.115 898.652 1081.965 898.732 1080.555 897.982 C 1078.255 896.753 1073.905 893.312 1070.965 891.262 C 1062.275 885.253 1051.785 876.142 1045.035 868.222 C 1042.566 865.312 1041.535 861.522 1039.285 858.632 C 1038.205 857.243 1036.455 856.642 1035.445 855.262 C 1033.825 853.092 1031.855 849.632 1030.635 847.102 C 1029.945 845.663 1029.945 843.632 1029.205 842.302 C 1028.085 840.323 1025.715 839.442 1024.885 837.022 C 1024.035 834.592 1024.725 831.512 1023.925 828.862 C 1022.355 823.762 1019.655 819.243 1019.115 813.512 C 1018.745 809.463 1019.195 804.993 1018.635 801.022 C 1018.335 798.892 1017.235 796.783 1017.205 794.783 C 1017.135 790.242 1018.765 784.882 1019.115 779.902 C 1019.415 775.842 1018.535 771.662 1019.115 767.902 C 1019.535 765.282 1021.825 762.173 1022.965 758.782 C 1024.135 755.282 1024.155 751.262 1025.365 748.222 C 1025.965 746.702 1027.465 745.583 1028.245 743.902 C 1030.745 738.503 1032.015 731.512 1034.965 726.142 C 1037.225 722.023 1040.805 718.052 1043.115 714.142 C 1048.665 704.773 1056.105 697.742 1065.675 690.622 C 1069.965 687.443 1070.715 683.923 1076.725 683.902 L 1076.475 686.142 L 1078.635 686.782 C 1075.235 692.662 1066.485 697.032 1061.365 702.622 C 1058.605 705.632 1053.335 712.362 1055.115 714.142 C 1058.105 717.132 1065.715 704.702 1069.035 705.503 L 1070.475 707.423 L 1072.405 708.862 C 1063.635 721.702 1050.765 732.983 1048.885 751.102 C 1053.575 751.333 1055.285 743.992 1057.515 742.463 C 1058.505 741.793 1061.875 740.302 1062.805 741.023 C 1066.585 744.003 1057.925 754.742 1056.075 758.782 C 1054.665 761.892 1054.055 765.952 1053.205 768.862 C 1052.155 772.443 1050.535 775.543 1049.845 777.983 C 1048.755 781.802 1048.085 788.572 1050.805 789.023 C 1053.505 789.483 1054.145 782.702 1055.115 780.862 C 1056.515 778.253 1061.385 773.003 1063.765 774.142 C 1065.375 774.923 1065.395 781.423 1064.725 784.222 C 1063.755 788.213 1060.055 792.352 1058.965 797.182 C 1056.715 807.123 1054.105 816.862 1056.075 825.512 C 1060.635 821.083 1061.235 813.562 1064.725 806.783 C 1065.566 805.142 1071.575 794.173 1074.325 795.743 C 1078.235 798.003 1072.695 809.842 1071.925 812.552 C 1068.685 823.842 1066.665 837.293 1067.595 851.423 C 1073.305 850.362 1072.625 843.753 1074.325 837.512 C 1074.875 835.463 1076.785 833.052 1077.675 830.302 C 1078.605 827.463 1078.435 824.592 1079.595 822.142 C 1080.915 819.392 1087.775 804.842 1092.075 808.222 C 1094.195 809.892 1091.655 816.703 1090.635 820.222 C 1088.045 829.192 1085.735 834.152 1084.405 844.713 C 1083.855 849.022 1083.225 857.743 1084.885 858.632 C 1088.835 860.743 1090.115 847.533 1090.635 845.673 C 1091.275 843.432 1093.235 838.503 1094.965 833.673 C 1096.325 829.842 1097.805 825.522 1099.285 822.142 C 1100.415 819.552 1106.255 809.543 1108.885 811.592 C 1112.285 814.243 1108.245 823.583 1107.445 826.942 C 1106.755 829.833 1107.025 833.132 1106.475 836.062 C 1105.875 839.333 1104.355 842.182 1104.075 844.713 C 1103.495 850.102 1104.475 856.083 1104.075 860.552 C 1103.635 865.552 1102.955 866.812 1104.555 871.592 C 1104.955 872.753 1104.745 875.793 1106.965 875.423 C 1109.145 859.222 1113.435 835.833 1119.445 822.142 C 1120.066 820.722 1122.155 818.862 1123.285 816.382 C 1124.995 812.612 1125.035 807.522 1128.555 808.713 C 1132.175 809.923 1129.595 819.602 1129.035 822.632 C 1126.625 835.892 1122.035 858.663 1128.075 871.592 C 1133.105 857.022 1132.435 841.753 1137.675 824.552 C 1138.755 821.022 1140.625 810.802 1143.925 811.592 C 1147.415 812.423 1145.575 827.382 1145.365 832.222 C 1144.985 840.802 1144.955 848.262 1145.365 854.783 C 1145.455 856.312 1145.975 868.612 1148.725 868.713 C 1150.865 868.783 1153.845 846.562 1154.475 843.262 C 1156.875 830.892 1158.135 819.083 1165.035 812.552 L 1166.955 813.982 L 1169.365 813.982 C 1166.155 828.272 1162.335 854.783 1171.755 865.342 C 1173.415 849.243 1174.535 839.073 1179.445 825.512 C 1180.505 822.562 1184.875 816.543 1187.606 819.262 C 1189.135 820.802 1187.325 828.192 1187.115 831.262 C 1186.585 839.132 1185.646 853.783 1186.155 858.142 C 1186.345 859.713 1187.405 867.892 1190.955 866.783 C 1193.795 865.902 1194.545 844.392 1195.755 840.862 C 1196.505 838.713 1200.396 831.812 1203.445 833.182 C 1207.146 834.862 1203.005 853.132 1203.445 858.142 C 1203.646 860.482 1204.585 862.862 1205.365 865.342 C 1205.425 865.552 1206.125 871.663 1208.715 870.632 C 1210.566 869.892 1209.695 864.652 1210.155 862.463 C 1210.606 860.392 1213.075 851.673 1215.445 846.142 C 1216.445 843.793 1219.726 838.852 1222.155 839.423 C 1227.505 840.692 1222.865 849.902 1222.155 856.222 C 1221.646 860.842 1221.615 873.362 1225.995 873.022 C 1231.115 872.632 1227.806 862.293 1230.325 855.743 C 1231.285 853.222 1236.266 846.573 1237.995 847.102 C 1240.356 847.833 1239.516 854.762 1239.445 857.182 C 1239.335 860.703 1238.505 878.842 1241.835 880.222 C 1245.885 881.913 1244.936 872.663 1246.155 867.262 C 1246.535 865.592 1250.115 855.012 1252.875 855.262 C 1259.045 855.842 1252.396 876.033 1258.646 876.862 C 1263.226 877.482 1261.905 865.423 1264.875 861.022 L 1266.945 861.942 L 1268.715 860.552 C 1270.595 863.243 1269.795 870.012 1272.566 869.673 C 1275.925 869.253 1272.896 855.293 1277.835 854.302 C 1285.045 852.873 1282.295 868.362 1287.445 867.743 C 1292.675 867.123 1286.995 850.382 1293.205 849.022 C 1299.005 847.762 1298.766 856.362 1302.325 857.182 C 1304.175 857.623 1306.085 856.272 1308.066 855.262 Z " fill="url(#_rgradient_3)"/><path d=" M 1137.445 903.022 C 1142.885 900.712 1148.105 897.892 1153.765 896.062" fill="none" vector-effect="non-scaling-stroke" stroke-width="0.65" stroke="rgb(55,53,53)" stroke-linejoin="miter" stroke-linecap="square" stroke-miterlimit="3"/><path d=" M 1222.275 901.562 C 1222.265 901.562 1222.265 901.552 1222.265 901.552 C 1222.265 901.382 1229.156 901.283 1228.885 901.102" fill="none" vector-effect="non-scaling-stroke" stroke-width="0.65" stroke="rgb(55,53,53)" stroke-linejoin="miter" stroke-linecap="square" stroke-miterlimit="3"/><path d=" M 1221.766 901.402 C 1217.776 899.732 1218.976 897.993 1217.835 896.062 C 1216.406 893.642 1213.186 894.453 1208.715 894.142" fill="none" vector-effect="non-scaling-stroke" stroke-width="0.65" stroke="rgb(55,53,53)" stroke-linejoin="miter" stroke-linecap="square" stroke-miterlimit="3"/><line x1="1208.715" y1="894.142" x2="1207.875" y2="893.422" vector-effect="non-scaling-stroke" stroke-width="0.65" stroke="rgb(55,53,53)" stroke-linejoin="miter" stroke-linecap="square" stroke-miterlimit="3"/><line x1="1207.875" y1="893.422" x2="1206.795" y2="893.672" vector-effect="non-scaling-stroke" stroke-width="0.65" stroke="rgb(55,53,53)" stroke-linejoin="miter" stroke-linecap="square" stroke-miterlimit="3"/><path d=" M 1206.795 893.672 C 1200.745 885.332 1187.615 887.932 1177.525 887.901 C 1163.066 887.872 1150.575 891.552 1139.115 896.062 C 1134.225 897.992 1129.485 900.782 1125.675 901.822 C 1123.505 902.422 1120.955 901.952 1118.475 902.302 C 1111.115 903.372 1100.735 905.972 1091.595 902.782 C 1089.605 902.092 1087.995 900.392 1085.845 899.422 C 1084.115 898.651 1081.965 898.732 1080.555 897.982 C 1078.255 896.752 1073.905 893.312 1070.965 891.262 C 1062.275 885.252 1051.785 876.142 1045.035 868.222 C 1042.566 865.312 1041.535 861.522 1039.285 858.632 C 1038.205 857.242 1036.455 856.642 1035.445 855.262 C 1033.825 853.092 1031.855 849.632 1030.635 847.102 C 1029.945 845.662 1029.945 843.632 1029.205 842.302 C 1028.085 840.322 1025.715 839.442 1024.885 837.022 C 1024.035 834.592 1024.725 831.512 1023.925 828.861 C 1022.355 823.762 1019.655 819.242 1019.115 813.512 C 1018.745 809.462 1019.195 804.992 1018.635 801.022 C 1018.335 798.892 1017.235 796.782 1017.205 794.782 C 1017.135 790.242 1018.765 784.882 1019.115 779.902 C 1019.415 775.842 1018.535 771.662 1019.115 767.902 C 1019.535 765.282 1021.825 762.172 1022.965 758.782 C 1024.135 755.282 1024.155 751.262 1025.365 748.222 C 1025.965 746.702 1027.465 745.582 1028.245 743.902 C 1030.745 738.502 1032.015 731.512 1034.965 726.142 C 1037.225 722.022 1040.805 718.052 1043.115 714.142 C 1048.665 704.772 1056.105 697.742 1065.675 690.622 C 1069.965 687.442 1070.715 683.922 1076.725 683.902" fill="none" vector-effect="non-scaling-stroke" stroke-width="0.65" stroke="rgb(55,53,53)" stroke-linejoin="miter" stroke-linecap="square" stroke-miterlimit="3"/><line x1="1076.725" y1="683.902" x2="1076.475" y2="686.142" vector-effect="non-scaling-stroke" stroke-width="0.65" stroke="rgb(55,53,53)" stroke-linejoin="miter" stroke-linecap="square" stroke-miterlimit="3"/><line x1="1076.475" y1="686.142" x2="1078.635" y2="686.782" vector-effect="non-scaling-stroke" stroke-width="0.65" stroke="rgb(55,53,53)" stroke-linejoin="miter" stroke-linecap="square" stroke-miterlimit="3"/><path d=" M 1078.635 686.782 C 1075.235 692.662 1066.485 697.032 1061.365 702.622 C 1058.605 705.632 1053.335 712.362 1055.115 714.142 C 1058.105 717.132 1065.715 704.702 1069.035 705.502" fill="none" vector-effect="non-scaling-stroke" stroke-width="0.65" stroke="rgb(55,53,53)" stroke-linejoin="miter" stroke-linecap="square" stroke-miterlimit="3"/><line x1="1069.035" y1="705.502" x2="1070.475" y2="707.422" vector-effect="non-scaling-stroke" stroke-width="0.65" stroke="rgb(55,53,53)" stroke-linejoin="miter" stroke-linecap="square" stroke-miterlimit="3"/><path d=" M 1070.475 707.422 C 1070.805 707.212 1071.105 706.962 1071.355 706.682" fill="none" vector-effect="non-scaling-stroke" stroke-width="0.65" stroke="rgb(55,53,53)" stroke-linejoin="miter" stroke-linecap="square" stroke-miterlimit="3"/><line x1="1070.475" y1="707.422" x2="1072.405" y2="708.862" vector-effect="non-scaling-stroke" stroke-width="0.65" stroke="rgb(55,53,53)" stroke-linejoin="miter" stroke-linecap="square" stroke-miterlimit="3"/><path d=" M 1072.405 708.862 C 1063.635 721.702 1050.765 732.982 1048.885 751.102 C 1053.575 751.332 1055.285 743.992 1057.515 742.462 C 1058.505 741.792 1061.875 740.302 1062.805 741.022 C 1066.585 744.002 1057.925 754.742 1056.075 758.782 C 1054.665 761.892 1054.055 765.952 1053.205 768.862 C 1052.155 772.442 1050.535 775.542 1049.845 777.982 C 1048.755 781.802 1048.085 788.572 1050.805 789.022 C 1053.505 789.482 1054.145 782.702 1055.115 780.862 C 1056.515 778.252 1061.385 773.002 1063.765 774.142 C 1065.375 774.922 1065.395 781.422 1064.725 784.222 C 1063.755 788.212 1060.055 792.352 1058.965 797.182 C 1056.715 807.122 1054.105 816.862 1056.075 825.512 C 1060.635 821.082 1061.235 813.562 1064.725 806.782 C 1065.565 805.142 1071.575 794.172 1074.325 795.742 C 1078.235 798.002 1072.695 809.842 1071.925 812.552 C 1068.685 823.842 1066.665 837.292 1067.595 851.422 C 1073.305 850.362 1072.625 843.752 1074.325 837.512 C 1074.875 835.462 1076.785 833.052 1077.675 830.302 C 1078.605 827.462 1078.435 824.592 1079.595 822.142 C 1080.915 819.392 1087.775 804.842 1092.075 808.222 C 1094.195 809.892 1091.655 816.702 1090.635 820.222 C 1088.045 829.192 1085.735 834.152 1084.405 844.712 C 1083.855 849.022 1083.225 857.742 1084.885 858.632 C 1088.835 860.742 1090.115 847.532 1090.635 845.672 C 1091.275 843.432 1093.235 838.502 1094.965 833.672 C 1096.325 829.842 1097.805 825.522 1099.285 822.142 C 1100.415 819.552 1106.255 809.542 1108.885 811.592 C 1112.285 814.242 1108.245 823.582 1107.445 826.942 C 1106.755 829.832 1107.025 833.132 1106.475 836.062 C 1105.875 839.332 1104.355 842.182 1104.075 844.712 C 1103.495 850.102 1104.475 856.082 1104.075 860.552 C 1103.635 865.552 1102.955 866.812 1104.555 871.592 C 1104.955 872.752 1104.745 875.792 1106.965 875.422 C 1109.145 859.222 1113.435 835.832 1119.445 822.142 C 1120.065 820.722 1122.155 818.862 1123.285 816.382 C 1124.995 812.612 1125.035 807.522 1128.555 808.712 C 1132.175 809.922 1129.595 819.602 1129.035 822.632 C 1126.625 835.892 1122.035 858.662 1128.075 871.592 C 1133.105 857.022 1132.435 841.752 1137.675 824.552 C 1138.755 821.022 1140.625 810.802 1143.925 811.592 C 1147.415 812.422 1145.575 827.382 1145.365 832.222 C 1144.985 840.802 1144.955 848.262 1145.365 854.782 C 1145.455 856.312 1145.975 868.612 1148.725 868.712 C 1150.865 868.782 1153.845 846.562 1154.475 843.262 C 1156.875 830.892 1158.135 819.082 1165.035 812.552" fill="none" vector-effect="non-scaling-stroke" stroke-width="0.65" stroke="rgb(55,53,53)" stroke-linejoin="miter" stroke-linecap="square" stroke-miterlimit="3"/><line x1="1165.035" y1="812.552" x2="1166.955" y2="813.982" vector-effect="non-scaling-stroke" stroke-width="0.65" stroke="rgb(55,53,53)" stroke-linejoin="miter" stroke-linecap="square" stroke-miterlimit="3"/><path d=" M 1166.955 813.982 C 1167.115 813.373 1167.205 812.953 1167.266 812.783" fill="none" vector-effect="non-scaling-stroke" stroke-width="0.65" stroke="rgb(55,53,53)" stroke-linejoin="miter" stroke-linecap="square" stroke-miterlimit="3"/><line x1="1166.955" y1="813.982" x2="1169.365" y2="813.982" vector-effect="non-scaling-stroke" stroke-width="0.65" stroke="rgb(55,53,53)" stroke-linejoin="miter" stroke-linecap="square" stroke-miterlimit="3"/><path d=" M 1169.365 813.982 C 1166.155 828.272 1162.335 854.783 1171.755 865.342 C 1173.415 849.243 1174.535 839.073 1179.445 825.512 C 1180.505 822.562 1184.875 816.543 1187.605 819.262 C 1189.135 820.802 1187.325 828.192 1187.115 831.262 C 1186.585 839.132 1185.645 853.783 1186.155 858.142 C 1186.344 859.712 1187.405 867.892 1190.955 866.783 C 1193.795 865.902 1194.545 844.392 1195.755 840.862 C 1196.505 838.712 1200.395 831.812 1203.445 833.182 C 1207.145 834.862 1203.005 853.132 1203.445 858.142 C 1203.645 860.482 1204.585 862.862 1205.365 865.342 C 1205.425 865.552 1206.125 871.663 1208.715 870.632 C 1210.565 869.892 1209.695 864.652 1210.155 862.462 C 1210.605 860.392 1213.075 851.672 1215.445 846.142 C 1216.445 843.793 1219.725 838.852 1222.155 839.422 C 1227.505 840.692 1222.865 849.902 1222.155 856.222 C 1221.645 860.842 1221.615 873.362 1225.995 873.022 C 1231.115 872.632 1227.805 862.293 1230.325 855.743 C 1231.285 853.222 1236.265 846.573 1237.995 847.102 C 1240.355 847.833 1239.515 854.762 1239.445 857.182 C 1239.335 860.703 1238.505 878.842 1241.835 880.222 C 1245.885 881.913 1244.935 872.663 1246.155 867.262 C 1246.535 865.592 1250.115 855.012 1252.875 855.262 C 1259.045 855.842 1252.395 876.033 1258.645 876.862 C 1263.225 877.482 1261.905 865.422 1264.875 861.022" fill="none" vector-effect="non-scaling-stroke" stroke-width="0.65" stroke="rgb(55,53,53)" stroke-linejoin="miter" stroke-linecap="square" stroke-miterlimit="3"/><line x1="1264.875" y1="861.022" x2="1266.945" y2="861.942" vector-effect="non-scaling-stroke" stroke-width="0.65" stroke="rgb(55,53,53)" stroke-linejoin="miter" stroke-linecap="square" stroke-miterlimit="3"/><path d=" M 1266.945 861.942 C 1266.905 861.503 1266.985 861.163 1267.035 860.783" fill="none" vector-effect="non-scaling-stroke" stroke-width="0.65" stroke="rgb(55,53,53)" stroke-linejoin="miter" stroke-linecap="square" stroke-miterlimit="3"/><line x1="1266.945" y1="861.942" x2="1268.715" y2="860.552" vector-effect="non-scaling-stroke" stroke-width="0.65" stroke="rgb(55,53,53)" stroke-linejoin="miter" stroke-linecap="square" stroke-miterlimit="3"/><path d=" M 1308.075 855.262 L 1308.065 855.262 C 1308.065 855.182 1311.365 851.702 1313.365 852.862 C 1316.095 854.462 1311.115 861.592 1309.525 863.422 C 1306.925 866.422 1303.995 869.592 1301.365 871.592 C 1298.895 873.452 1295.295 874.692 1292.245 876.862 C 1285.035 882.012 1275.195 889.012 1266.325 892.712 C 1264.265 893.562 1261.705 893.592 1259.115 894.632 C 1255.395 896.112 1252.335 898.542 1249.525 898.942 C 1244.245 899.702 1237.205 901.392 1232.075 901.562 C 1231.485 901.582 1230.275 901.132 1228.985 900.612 C 1226.275 899.533 1223.185 898.202 1224.575 900.462" fill="none" vector-effect="non-scaling-stroke" stroke-width="0.65" stroke="rgb(55,53,53)" stroke-linejoin="miter" stroke-linecap="square" stroke-miterlimit="3"/><path d=" M 1268.715 860.552 C 1270.595 863.242 1269.795 870.012 1272.566 869.672 C 1275.925 869.252 1272.896 855.292 1277.835 854.302 C 1285.045 852.872 1282.295 868.362 1287.445 867.742 C 1292.675 867.122 1286.995 850.382 1293.205 849.022 C 1299.005 847.762 1298.766 856.362 1302.325 857.182 C 1304.175 857.622 1306.085 856.272 1308.066 855.262" fill="none" vector-effect="non-scaling-stroke" stroke-width="0.65" stroke="rgb(55,53,53)" stroke-linejoin="miter" stroke-linecap="square" stroke-miterlimit="3"/><path d=" M 1297.554 811.142 C 1298.286 811.15 1298.605 814.699 1297.074 814.022 C 1296.726 812.555 1297.564 812.273 1297.554 811.142 Z " fill-rule="evenodd" fill="rgb(254,254,254)"/><path d=" M 1305.234 813.542 C 1305.006 814.925 1303.153 816.122 1301.873 814.981 C 1302.91 814.417 1304.077 813.985 1305.234 813.542 Z " fill-rule="evenodd" fill="rgb(254,254,254)"/><path d=" M 1303.792 821.222 C 1302.304 821.109 1299.081 822.001 1300.433 824.581 C 1297.534 822.911 1301.858 818.201 1303.792 821.222 Z " fill-rule="evenodd" fill="rgb(254,254,254)"/></g><linearGradient id="_lgradient_16" x1="0.000013965237904756123" y1="0.4999901228089154" x2="0.9999948773361851" y2="0.4999901228089154" gradientTransform="matrix(28.969,0,0,42.316,1291.624,795.341)" gradientUnits="userSpaceOnUse"><stop offset="0%" stop-opacity="1" style="stop-color:rgb(150,190,64)"/><stop offset="10%" stop-opacity="1" style="stop-color:rgb(94,99,82)"/><stop offset="20%" stop-opacity="1" style="stop-color:rgb(55,58,60)"/><stop offset="30.000000000000004%" stop-opacity="1" style="stop-color:rgb(44,47,53)"/><stop offset="40%" stop-opacity="1" style="stop-color:rgb(43,46,52)"/><stop offset="50%" stop-opacity="1" style="stop-color:rgb(54,56,59)"/><stop offset="60%" stop-opacity="1" style="stop-color:rgb(90,92,79)"/><stop offset="70%" stop-opacity="1" style="stop-color:rgb(121,126,90)"/><stop offset="80%" stop-opacity="1" style="stop-color:rgb(148,157,91)"/><stop offset="89.99999999999999%" stop-opacity="1" style="stop-color:rgb(171,186,83)"/><stop offset="99.99999999999999%" stop-opacity="1" style="stop-color:rgb(189,213,66)"/></linearGradient><path d=" M 1301.393 798.703 C 1299.642 804.472 1292.923 807.83 1292.753 813.582 L 1292.753 813.582 C 1292.986 813.016 1293.265 812.494 1293.712 812.143 L 1293.712 812.143 C 1292.485 814.595 1294.308 820.098 1291.792 821.261 L 1291.792 821.261 C 1292.737 819.966 1292.079 817.068 1292.273 815.022 L 1292.273 815.022 C 1291.188 813.482 1292.056 818.154 1291.792 819.822 L 1291.792 819.822 C 1290.708 826.734 1294.915 838.717 1302.833 837.582 L 1302.833 837.582 C 1305.394 834.953 1303.198 831.021 1304.273 828.462 L 1304.273 828.462 C 1305.94 829.035 1307.73 829.484 1309.073 830.383 L 1309.073 830.383 C 1308.198 828.525 1303.815 827.654 1305.234 825.101 L 1305.234 825.101 C 1305.85 827.365 1307.79 828.304 1310.033 828.943 L 1310.033 828.943 C 1307.085 825.326 1303.608 816.586 1309.552 815.022 L 1309.552 815.022 C 1311.269 814.571 1312.404 815.229 1313.522 815.888 L 1313.522 815.888 C 1314.812 816.646 1316.079 817.405 1318.193 816.463 L 1318.193 816.463 C 1316.816 815.599 1315.514 814.66 1314.353 813.582 L 1314.353 813.582 C 1315.373 813.565 1316.234 814.142 1317.052 814.72 L 1317.052 814.72 C 1318.203 815.533 1319.272 816.346 1320.593 815.501 L 1320.593 815.501 C 1315.251 813.593 1308.821 807.93 1303.313 813.102 L 1303.313 813.102 C 1302.685 807.015 1312.069 800.785 1309.073 795.341 L 1309.073 795.341 C 1305.695 795.642 1303.86 797.49 1301.393 798.703 Z " fill="url(#_lgradient_16)"/><linearGradient id="_lgradient_17" x1="0.000013965237904756123" y1="0.4999901228089154" x2="0.9999948773361851" y2="0.4999901228089154" gradientTransform="matrix(28.969,0,0,42.316,1291.624,796.341)" gradientUnits="userSpaceOnUse"><stop offset="0%" stop-opacity="1" style="stop-color:rgb(150,190,64)"/><stop offset="10%" stop-opacity="1" style="stop-color:rgb(94,99,82)"/><stop offset="20%" stop-opacity="1" style="stop-color:rgb(55,58,60)"/><stop offset="30.000000000000004%" stop-opacity="1" style="stop-color:rgb(44,47,53)"/><stop offset="40%" stop-opacity="1" style="stop-color:rgb(43,46,52)"/><stop offset="50%" stop-opacity="1" style="stop-color:rgb(54,56,59)"/><stop offset="60%" stop-opacity="1" style="stop-color:rgb(90,92,79)"/><stop offset="70%" stop-opacity="1" style="stop-color:rgb(121,126,90)"/><stop offset="80%" stop-opacity="1" style="stop-color:rgb(148,157,91)"/><stop offset="89.99999999999999%" stop-opacity="1" style="stop-color:rgb(171,186,83)"/><stop offset="99.99999999999999%" stop-opacity="1" style="stop-color:rgb(189,213,66)"/></linearGradient><path d=" M 1301.393 799.703 C 1299.642 805.473 1292.923 808.83 1292.753 814.582 L 1292.753 814.582 C 1292.986 814.016 1293.265 813.494 1293.712 813.143 L 1293.712 813.143 C 1292.485 815.595 1294.308 821.098 1291.792 822.261 L 1291.792 822.261 C 1292.737 820.966 1292.079 818.068 1292.273 816.022 L 1292.273 816.022 C 1291.188 814.482 1292.056 819.154 1291.792 820.822 L 1291.792 820.822 C 1290.708 827.734 1294.915 839.717 1302.833 838.582 L 1302.833 838.582 C 1305.394 835.953 1303.198 832.021 1304.273 829.462 L 1304.273 829.462 C 1305.94 830.035 1307.73 830.484 1309.073 831.383 L 1309.073 831.383 C 1308.198 829.525 1303.815 828.654 1305.234 826.102 L 1305.234 826.102 C 1305.85 828.365 1307.79 829.305 1310.033 829.943 L 1310.033 829.943 C 1307.085 826.326 1303.608 817.586 1309.552 816.022 L 1309.552 816.022 C 1311.27 815.571 1312.405 816.229 1313.523 816.887 L 1313.523 816.887 C 1314.812 817.646 1316.079 818.405 1318.193 817.463 L 1318.193 817.463 C 1316.816 816.599 1315.514 815.66 1314.353 814.582 L 1314.353 814.582 C 1315.373 814.565 1316.234 815.142 1317.052 815.72 L 1317.052 815.72 C 1318.203 816.533 1319.272 817.345 1320.593 816.501 L 1320.593 816.501 C 1315.251 814.593 1308.821 808.93 1303.313 814.102 L 1303.313 814.102 C 1302.685 808.015 1312.069 801.785 1309.073 796.341 L 1309.073 796.341 C 1305.695 796.642 1303.86 798.49 1301.393 799.703 Z " fill="url(#_lgradient_17)"/><linearGradient id="_lgradient_18" x1="0.000013965237904756123" y1="0.4999915666276431" x2="0.9999948773361851" y2="0.4999915666276431" gradientTransform="matrix(28.969,0,0,42.316,1292.624,794.341)" gradientUnits="userSpaceOnUse"><stop offset="0%" stop-opacity="1" style="stop-color:rgb(150,190,64)"/><stop offset="10%" stop-opacity="1" style="stop-color:rgb(94,99,82)"/><stop offset="20%" stop-opacity="1" style="stop-color:rgb(55,58,60)"/><stop offset="30.000000000000004%" stop-opacity="1" style="stop-color:rgb(44,47,53)"/><stop offset="40%" stop-opacity="1" style="stop-color:rgb(43,46,52)"/><stop offset="50%" stop-opacity="1" style="stop-color:rgb(54,56,59)"/><stop offset="60%" stop-opacity="1" style="stop-color:rgb(90,92,79)"/><stop offset="70%" stop-opacity="1" style="stop-color:rgb(121,126,90)"/><stop offset="80%" stop-opacity="1" style="stop-color:rgb(148,157,91)"/><stop offset="89.99999999999999%" stop-opacity="1" style="stop-color:rgb(171,186,83)"/><stop offset="99.99999999999999%" stop-opacity="1" style="stop-color:rgb(189,213,66)"/></linearGradient><path d=" M 1302.393 797.703 C 1300.642 803.472 1293.923 806.83 1293.753 812.582 L 1293.753 812.582 C 1293.986 812.016 1294.265 811.494 1294.712 811.142 L 1294.712 811.142 C 1293.485 813.595 1295.308 819.097 1292.792 820.261 L 1292.792 820.261 C 1293.737 818.966 1293.079 816.068 1293.273 814.022 L 1293.273 814.022 C 1292.188 812.482 1293.056 817.154 1292.792 818.822 L 1292.792 818.822 C 1291.708 825.734 1295.915 837.716 1303.833 836.582 L 1303.833 836.582 C 1306.394 833.953 1304.198 830.021 1305.273 827.462 L 1305.273 827.462 C 1306.94 828.035 1308.729 828.484 1310.073 829.382 L 1310.073 829.382 C 1309.198 827.525 1304.815 826.654 1306.234 824.101 L 1306.234 824.101 C 1306.851 826.365 1308.79 827.304 1311.032 827.943 L 1311.032 827.943 C 1308.085 824.326 1304.608 815.586 1310.552 814.022 L 1310.552 814.022 C 1312.269 813.571 1313.404 814.229 1314.522 814.888 L 1314.522 814.888 C 1315.811 815.646 1317.079 816.405 1319.193 815.463 L 1319.193 815.463 C 1317.816 814.599 1316.514 813.66 1315.352 812.582 L 1315.352 812.582 C 1316.373 812.565 1317.234 813.143 1318.052 813.72 L 1318.052 813.72 C 1319.203 814.533 1320.272 815.346 1321.593 814.502 L 1321.593 814.502 C 1316.251 812.593 1309.821 806.929 1304.313 812.102 L 1304.313 812.102 C 1303.685 806.015 1313.069 799.785 1310.073 794.341 L 1310.073 794.341 C 1306.695 794.642 1304.86 796.49 1302.393 797.703 Z " fill="url(#_lgradient_18)"/><clipPath id="_clipPath_JXsf28rc6axKBqfQCsnPXP8jnHeJWuLR"><path d=" M 914.92 614.307 L 1415.08 614.307 L 1415.08 969.027 L 914.92 969.027 L 914.92 614.307 Z " fill="rgb(255,255,255)"/></clipPath><g clip-path="url(#_clipPath_JXsf28rc6axKBqfQCsnPXP8jnHeJWuLR)"><path d=" M 1320.073 815.462 C 1322.37 814.141 1324.587 817.017 1326.313 817.862 C 1326.3 818.669 1322.462 815.435 1320.073 815.462 Z " fill-rule="evenodd" fill="rgb(55,53,53)"/><path d=" M 1310.472 830.822 C 1313.699 832.582 1324.372 836.092 1326.792 837.062 C 1320.361 835.974 1315.074 833.742 1310.472 830.822 Z " fill-rule="evenodd" fill="rgb(55,53,53)"/><linearGradient id="_lgradient_19" x1="0" y1="0.5000101517462905" x2="1.0000001415511444" y2="0.5000101517462905" gradientTransform="matrix(82.622,0,0,25.342,1305.795,815.309)" gradientUnits="userSpaceOnUse"><stop offset="0%" stop-opacity="1" style="stop-color:rgb(55,55,23)"/><stop offset="10%" stop-opacity="1" style="stop-color:rgb(62,60,25)"/><stop offset="20%" stop-opacity="1" style="stop-color:rgb(131,116,39)"/><stop offset="30.000000000000004%" stop-opacity="1" style="stop-color:rgb(135,112,38)"/><stop offset="40%" stop-opacity="1" style="stop-color:rgb(139,109,37)"/><stop offset="50%" stop-opacity="1" style="stop-color:rgb(143,105,36)"/><stop offset="60%" stop-opacity="1" style="stop-color:rgb(147,102,35)"/><stop offset="70%" stop-opacity="1" style="stop-color:rgb(151,98,34)"/><stop offset="80%" stop-opacity="1" style="stop-color:rgb(155,94,33)"/><stop offset="89.99999999999999%" stop-opacity="1" style="stop-color:rgb(159,90,32)"/><stop offset="99.99999999999999%" stop-opacity="1" style="stop-color:rgb(163,85,31)"/></linearGradient><path d=" M 1346.595 838.942 C 1342.945 840.482 1343.125 839.182 1341.106 840.652 C 1339.375 838.892 1339.106 838.152 1335.285 837.652 C 1332.806 837.413 1331.316 835.913 1330.275 834.142 C 1319.325 832.612 1309.865 829.592 1305.795 821.182 L 1305.795 819.743 L 1306.275 819.743 C 1306.275 816.732 1307.476 815.833 1309.635 815.423 C 1317.016 814.012 1326.115 826.333 1335.075 821.663 C 1335.125 821.552 1336.025 819.482 1337.825 820.463 C 1340.566 821.963 1345.936 822.783 1348.035 823.583 C 1350.095 824.362 1350.606 826.173 1351.875 826.463 C 1363.495 829.182 1375.095 818.392 1384.035 816.862 C 1386.995 817.833 1385.385 821.192 1385.955 824.062 C 1386.545 827.052 1388.816 829.882 1388.356 832.222 C 1387.045 838.882 1374.325 839.293 1366.275 839.902 C 1358.566 840.493 1350.415 837.333 1346.595 838.942 Z " fill="url(#_lgradient_19)"/></g></g><path d=" M 572.602 1704.022 L 572.602 1361.797 L 669.277 1361.797 L 669.277 1361.797 Q 737.394 1361.797 767.825 1382.162 L 767.825 1382.162 L 767.825 1382.162 Q 798.255 1402.527 798.255 1446.534 L 798.255 1446.534 L 798.255 1446.534 Q 798.255 1476.964 781.284 1496.744 L 781.284 1496.744 L 781.284 1496.744 Q 764.313 1516.524 731.776 1522.376 L 731.776 1522.376 L 731.776 1524.717 L 731.776 1524.717 Q 809.725 1538.059 809.725 1606.644 L 809.725 1606.644 L 809.725 1606.644 Q 809.725 1652.524 778.709 1678.273 L 778.709 1678.273 L 778.709 1678.273 Q 747.694 1704.022 691.983 1704.022 L 691.983 1704.022 L 572.602 1704.022 L 572.602 1704.022 Z  M 612.396 1396.207 L 612.396 1508.331 L 677.938 1508.331 L 677.938 1508.331 Q 720.072 1508.331 738.565 1495.105 L 738.565 1495.105 L 738.565 1495.105 Q 757.057 1481.88 757.057 1450.513 L 757.057 1450.513 L 757.057 1450.513 Q 757.057 1421.721 736.458 1408.964 L 736.458 1408.964 L 736.458 1408.964 Q 715.859 1396.207 670.916 1396.207 L 670.916 1396.207 L 612.396 1396.207 L 612.396 1396.207 Z  M 680.513 1542.038 L 612.396 1542.038 L 612.396 1670.08 L 683.79 1670.08 L 683.79 1670.08 Q 725.222 1670.08 746.172 1654.046 L 746.172 1654.046 L 746.172 1654.046 Q 767.122 1638.011 767.122 1603.836 L 767.122 1603.836 L 767.122 1603.836 Q 767.122 1572.001 745.704 1557.02 L 745.704 1557.02 L 745.704 1557.02 Q 724.286 1542.038 680.513 1542.038 L 680.513 1542.038 L 680.513 1542.038 Z  M 1180.273 1532.441 L 1180.273 1532.441 L 1180.273 1532.441 Q 1180.273 1614.603 1138.724 1661.653 L 1138.724 1661.653 L 1138.724 1661.653 Q 1097.175 1708.703 1023.206 1708.703 L 1023.206 1708.703 L 1023.206 1708.703 Q 947.598 1708.703 906.517 1662.473 L 906.517 1662.473 L 906.517 1662.473 Q 865.436 1616.242 865.436 1531.973 L 865.436 1531.973 L 865.436 1531.973 Q 865.436 1448.407 906.634 1402.41 L 906.634 1402.41 L 906.634 1402.41 Q 947.832 1356.413 1023.674 1356.413 L 1023.674 1356.413 L 1023.674 1356.413 Q 1097.409 1356.413 1138.841 1403.229 L 1138.841 1403.229 L 1138.841 1403.229 Q 1180.273 1450.045 1180.273 1532.441 Z  M 907.57 1532.441 L 907.57 1532.441 L 907.57 1532.441 Q 907.57 1601.963 937.181 1637.894 L 937.181 1637.894 L 937.181 1637.894 Q 966.792 1673.825 1023.206 1673.825 L 1023.206 1673.825 L 1023.206 1673.825 Q 1080.087 1673.825 1109.113 1638.011 L 1109.113 1638.011 L 1109.113 1638.011 Q 1138.139 1602.197 1138.139 1532.441 L 1138.139 1532.441 L 1138.139 1532.441 Q 1138.139 1463.388 1109.23 1427.69 L 1109.23 1427.69 L 1109.23 1427.69 Q 1080.321 1391.993 1023.674 1391.993 L 1023.674 1391.993 L 1023.674 1391.993 Q 966.792 1391.993 937.181 1427.925 L 937.181 1427.925 L 937.181 1427.925 Q 907.57 1463.856 907.57 1532.441 Z  M 1449.699 1612.965 L 1449.699 1612.965 L 1449.699 1612.965 Q 1449.699 1658.142 1416.928 1683.423 L 1416.928 1683.423 L 1416.928 1683.423 Q 1384.157 1708.703 1327.978 1708.703 L 1327.978 1708.703 L 1327.978 1708.703 Q 1267.117 1708.703 1234.346 1693.02 L 1234.346 1693.02 L 1234.346 1654.631 L 1234.346 1654.631 Q 1255.413 1663.526 1280.225 1668.676 L 1280.225 1668.676 L 1280.225 1668.676 Q 1305.038 1673.825 1329.382 1673.825 L 1329.382 1673.825 L 1329.382 1673.825 Q 1369.176 1673.825 1389.306 1658.727 L 1389.306 1658.727 L 1389.306 1658.727 Q 1409.437 1643.629 1409.437 1616.71 L 1409.437 1616.71 L 1409.437 1616.71 Q 1409.437 1598.92 1402.298 1587.567 L 1402.298 1587.567 L 1402.298 1587.567 Q 1395.158 1576.214 1378.422 1566.617 L 1378.422 1566.617 L 1378.422 1566.617 Q 1361.685 1557.02 1327.509 1544.847 L 1327.509 1544.847 L 1327.509 1544.847 Q 1279.757 1527.76 1259.275 1504.352 L 1259.275 1504.352 L 1259.275 1504.352 Q 1238.793 1480.944 1238.793 1443.257 L 1238.793 1443.257 L 1238.793 1443.257 Q 1238.793 1403.697 1268.521 1380.289 L 1268.521 1380.289 L 1268.521 1380.289 Q 1298.249 1356.881 1347.172 1356.881 L 1347.172 1356.881 L 1347.172 1356.881 Q 1398.201 1356.881 1441.038 1375.608 L 1441.038 1375.608 L 1428.632 1410.252 L 1428.632 1410.252 Q 1386.263 1392.461 1346.236 1392.461 L 1346.236 1392.461 L 1346.236 1392.461 Q 1314.635 1392.461 1296.845 1406.038 L 1296.845 1406.038 L 1296.845 1406.038 Q 1279.055 1419.615 1279.055 1443.725 L 1279.055 1443.725 L 1279.055 1443.725 Q 1279.055 1461.515 1285.609 1472.868 L 1285.609 1472.868 L 1285.609 1472.868 Q 1292.163 1484.221 1307.73 1493.701 L 1307.73 1493.701 L 1307.73 1493.701 Q 1323.296 1503.181 1355.365 1514.651 L 1355.365 1514.651 L 1355.365 1514.651 Q 1409.203 1533.846 1429.451 1555.849 L 1429.451 1555.849 L 1429.451 1555.849 Q 1449.699 1577.853 1449.699 1612.965 Z  M 1666.223 1392.461 L 1666.223 1392.461 L 1666.223 1392.461 Q 1609.81 1392.461 1577.155 1430.031 L 1577.155 1430.031 L 1577.155 1430.031 Q 1544.501 1467.601 1544.501 1532.909 L 1544.501 1532.909 L 1544.501 1532.909 Q 1544.501 1600.09 1575.985 1636.724 L 1575.985 1636.724 L 1575.985 1636.724 Q 1607.469 1673.357 1665.755 1673.357 L 1665.755 1673.357 L 1665.755 1673.357 Q 1701.569 1673.357 1747.449 1660.483 L 1747.449 1660.483 L 1747.449 1695.361 L 1747.449 1695.361 Q 1711.868 1708.703 1659.669 1708.703 L 1659.669 1708.703 L 1659.669 1708.703 Q 1584.061 1708.703 1542.98 1662.824 L 1542.98 1662.824 L 1542.98 1662.824 Q 1501.899 1616.944 1501.899 1532.441 L 1501.899 1532.441 L 1501.899 1532.441 Q 1501.899 1479.539 1521.679 1439.746 L 1521.679 1439.746 L 1521.679 1439.746 Q 1541.458 1399.952 1578.794 1378.417 L 1578.794 1378.417 L 1578.794 1378.417 Q 1616.13 1356.881 1666.691 1356.881 L 1666.691 1356.881 L 1666.691 1356.881 Q 1720.529 1356.881 1760.791 1376.544 L 1760.791 1376.544 L 1743.937 1410.72 L 1743.937 1410.72 Q 1705.08 1392.461 1666.223 1392.461 Z " fill="rgb(255,255,255)"/></g></svg>