<?xml version="1.0" standalone="no"?><!-- Generator: Gravit.io --><svg xmlns="http://www.w3.org/2000/svg" xmlns:xlink="http://www.w3.org/1999/xlink" style="isolation:isolate" viewBox="-3150 2658.333 8625 2308.333" width="8625" height="2308.333"><defs><clipPath id="_clipPath_dRM4yGV8ySCvzzYvbgQPmrwSRGwnmA4L"><rect x="-3150" y="2658.333" width="8625" height="2308.333"/></clipPath></defs><g clip-path="url(#_clipPath_dRM4yGV8ySCvzzYvbgQPmrwSRGwnmA4L)"><g opacity="0.85"><rect x="-3150" y="2658.333" width="8625" height="2308.333" transform="matrix(1,0,0,1,0,0)" fill="rgb(102,189,126)"/></g><g><g><g><path d=" M -1508.792 3650.369 C -1457.848 3571.638 -1357.773 3580.735 -1263.497 3543.024 C -1169.22 3505.313 -1087.342 3423.435 -1050.292 3330.809 C -1013.242 3238.183 -1022.404 3137.4 -942.817 3085.903 C -863.23 3034.406 -698.312 3034.406 -619.58 3085.35 C -540.848 3136.294 -550.111 3238.183 -513.06 3330.809 C -476.01 3423.436 -393.833 3505.613 -299.888 3543.191 C -205.944 3580.768 -105.505 3571.638 -54.561 3650.37 C -3.616 3729.103 -3.616 3895.827 -54.561 3974.56 C -105.506 4053.294 -207.394 4044.031 -300.02 4081.081 C -392.645 4118.131 -476.009 4201.495 -513.06 4294.121 C -550.111 4386.747 -540.849 4488.634 -619.582 4539.58 C -698.315 4590.526 -865.039 4590.526 -943.771 4539.581 C -1022.504 4488.636 -1013.242 4386.747 -1050.292 4294.121 C -1087.343 4201.496 -1170.707 4118.131 -1263.332 4081.081 C -1355.957 4044.031 -1457.846 4053.294 -1508.791 3974.561 C -1559.736 3895.828 -1559.736 3729.1 -1508.792 3650.369 Z " fill-rule="evenodd" fill="none" vector-effect="non-scaling-stroke" stroke-width="27.788" stroke="rgb(255,255,255)" stroke-linejoin="miter" stroke-linecap="butt" stroke-miterlimit="4"/><path d=" M -1181.181 3183.707 C -1089.486 3164.059 -1025.156 3241.256 -931.827 3281.253 C -838.498 3321.251 -722.704 3321.251 -631.009 3281.953 C -539.314 3242.655 -474.528 3164.912 -381.838 3184.774 C -289.148 3204.637 -172.533 3321.252 -152.884 3412.947 C -133.235 3504.641 -211.831 3570.138 -251.129 3661.833 C -290.428 3753.529 -290.428 3869.745 -250.57 3962.745 C -210.713 4055.746 -133.236 4120.31 -152.885 4212.005 C -172.534 4303.701 -290.426 4421.592 -382.122 4441.242 C -473.818 4460.892 -539.315 4382.296 -631.009 4342.998 C -722.704 4303.7 -840.598 4303.7 -932.294 4342.998 C -1023.989 4382.296 -1089.484 4460.89 -1181.181 4441.241 C -1272.878 4421.592 -1390.77 4303.701 -1410.419 4212.005 C -1430.068 4120.309 -1351.472 4054.813 -1312.174 3963.118 C -1272.877 3871.423 -1272.877 3753.528 -1312.174 3661.834 C -1351.471 3570.139 -1430.068 3504.642 -1410.419 3412.946 C -1390.77 3321.25 -1272.875 3203.356 -1181.181 3183.707 L -1181.181 3183.707 Z " fill-rule="evenodd" fill="none" vector-effect="non-scaling-stroke" stroke-width="83.364" stroke="rgb(255,255,255)" stroke-linejoin="miter" stroke-linecap="butt" stroke-miterlimit="4"/></g></g><g><linearGradient id="_lgradient_30" x1="0.3764485132505324" y1="1.0425847643096884" x2="0.638516668577901" y2="0.07551902024893475" gradientTransform="matrix(521.667,0,0,410.563,-1053.994,3597.984)" gradientUnits="userSpaceOnUse"><stop offset="0%" stop-opacity="1" style="stop-color:rgb(243,219,81)"/><stop offset="10%" stop-opacity="1" style="stop-color:rgb(244,222,97)"/><stop offset="20%" stop-opacity="1" style="stop-color:rgb(245,224,113)"/><stop offset="30.000000000000004%" stop-opacity="1" style="stop-color:rgb(245,227,127)"/><stop offset="40%" stop-opacity="1" style="stop-color:rgb(246,229,141)"/><stop offset="50%" stop-opacity="1" style="stop-color:rgb(247,231,154)"/><stop offset="60%" stop-opacity="1" style="stop-color:rgb(248,233,165)"/><stop offset="70%" stop-opacity="1" style="stop-color:rgb(248,235,175)"/><stop offset="80%" stop-opacity="1" style="stop-color:rgb(249,236,184)"/><stop offset="89.99999999999999%" stop-opacity="1" style="stop-color:rgb(249,238,191)"/><stop offset="99.99999999999999%" stop-opacity="1" style="stop-color:rgb(250,238,195)"/></linearGradient><path d=" M -872.656 3599.185 C -884.526 3601.793 -898.26 3598.82 -911.438 3605.585 L -911.438 3605.585 C -924.588 3612.332 -936.283 3618.906 -938.762 3619.556 L -938.762 3619.556 C -944.025 3620.929 -965.519 3629.607 -978.856 3644.035 L -978.856 3644.035 C -986.743 3652.554 -997.6 3664.801 -1005.2 3673.539 L -1005.2 3673.539 C -1017.685 3687.873 -1016.294 3700.658 -1019.866 3704.071 L -1019.866 3704.071 C -1027.137 3711.041 -1045.122 3747.264 -1051.585 3777.844 L -1051.585 3777.844 C -1057.004 3803.477 -1051.585 3823.785 -1051.585 3832.507 L -1051.585 3832.507 C -1051.585 3836.378 -1052.405 3860.179 -1046.29 3880.028 L -1046.29 3880.028 C -1038.721 3904.618 -1023.771 3926.065 -1022.064 3930.299 L -1022.064 3930.299 C -1018.667 3938.739 -990.157 3967.281 -966.752 3983.288 L -966.752 3983.288 C -953.951 3992.029 -942.241 3991.727 -938.021 3994.635 L -938.021 3994.635 C -932.838 3998.176 -913.984 4011.276 -893.517 4008.036 L -893.517 4008.036 C -884.653 4006.647 -872.99 4006.284 -863.492 4002.252 L -863.492 4002.252 C -858.04 3999.929 -854.5 3993.371 -849.553 3992.424 L -849.553 3992.424 C -833.054 3989.277 -821.549 3979.843 -815.764 3979.843 L -815.764 3979.843 C -804.434 3979.843 -793.877 3982.009 -784.157 3978.01 L -784.157 3978.01 C -779.352 3976.034 -762.711 3981.771 -733.903 3989.074 L -733.903 3989.074 C -732.481 3989.436 -719.647 3994.984 -717.578 3995.931 L -717.578 3995.931 C -708.586 4000.025 -704.335 3998.254 -697.555 3999.615 L -697.555 3999.615 C -685.26 4002.078 -678.464 3996.215 -666.485 3994.352 L -666.485 3994.352 C -644.597 3990.938 -623.577 3977.806 -605.371 3974.327 L -605.371 3974.327 C -579.582 3969.397 -562.575 3926.379 -560.191 3922.444 L -560.191 3922.444 C -557.899 3918.669 -525.502 3910.054 -533.704 3886.886 L -533.704 3886.886 C -539.583 3870.279 -527.967 3831.953 -534.256 3815.235 L -534.256 3815.235 C -542.947 3792.099 -571.662 3762.939 -571.662 3758.342 L -571.662 3758.342 C -571.662 3747.642 -701.68 3712.544 -706.294 3703.425 L -706.294 3703.425 C -709.818 3696.487 -708.963 3672.37 -729.698 3664.578 L -729.698 3664.578 C -742.99 3659.569 -740.098 3645.788 -744.444 3642.977 L -744.444 3642.977 C -748.964 3640.067 -752.962 3631.533 -761.306 3624.55 L -761.306 3624.55 C -765.003 3621.451 -772.748 3618.513 -776.572 3613.486 L -776.572 3613.486 C -788.329 3598.031 -839.028 3599.185 -847.135 3599.185 L -847.135 3599.185 C -848.747 3599.185 -854.074 3597.984 -861.099 3597.984 L -861.099 3597.984 C -864.611 3597.984 -868.549 3598.284 -872.656 3599.185 Z " fill="url(#_lgradient_30)"/><clipPath id="_clipPath_VizNhT1eGiM7eLYPTGkR7gVQGiFKcbfT"><path d=" M -1199.435 3538.885 L -409.006 3538.885 L -409.006 4099.467 L -1199.435 4099.467 L -1199.435 3538.885 Z " fill="rgb(255,255,255)"/></clipPath><g clip-path="url(#_clipPath_VizNhT1eGiM7eLYPTGkR7gVQGiFKcbfT)"><path d=" M -1071.173 3808.936 C -1069.911 3815.265 -1069.911 3826.881 -1071.173 3833.21 L -1071.173 3808.936 Z " fill-rule="evenodd" fill="rgb(254,254,254)"/><path d=" M -515.151 3836.237 L -515.151 3869.63 C -516.146 3869.883 -516.336 3870.957 -517.41 3871.147 C -538.492 3875.114 -535.095 3854.237 -536.375 3836.237 C -538.192 3811.03 -548.449 3794.863 -559.906 3779.344 C -566.227 3770.779 -572.928 3761.028 -581.905 3755.07 C -604.63 3739.978 -643.238 3736.169 -670.641 3724.727 C -685.669 3718.469 -700.257 3709.951 -710.861 3696.66 C -715.144 3691.287 -716.645 3686.562 -720.723 3679.972 C -727.629 3668.815 -736.447 3658.716 -744.238 3647.353 C -755.364 3631.123 -766.379 3622.51 -784.427 3613.976 C -788.82 3611.906 -792.818 3609.267 -796.58 3607.908 C -821.186 3599.026 -862.085 3596.45 -887.592 3601.081 C -899.682 3603.277 -912.483 3609.109 -924.762 3613.976 C -955.563 3626.208 -977.64 3646.152 -997.6 3670.869 C -1003.353 3678.012 -1008.995 3686.151 -1013.53 3695.143 C -1020.737 3709.493 -1029.381 3721.598 -1034.77 3737.623 C -1036.398 3742.506 -1036.287 3747.484 -1037.789 3752.036 C -1039.021 3755.718 -1042.103 3758.974 -1043.114 3762.656 C -1044.6 3768.14 -1044.916 3775.125 -1046.149 3781.62 C -1048.772 3795.527 -1051.38 3819.138 -1049.183 3836.994 C -1048.424 3843.096 -1045.532 3849.322 -1044.632 3855.958 C -1041.819 3876.536 -1035.813 3892.355 -1027.943 3908.301 C -1021.021 3922.319 -1008.457 3937.648 -996.083 3950.022 C -983.346 3962.76 -970.892 3976.319 -957.396 3984.158 C -952.371 3987.082 -946.429 3988.946 -941.466 3991.742 C -930.736 3997.812 -913.304 4009.096 -894.435 4006.915 C -889.552 4006.36 -885.221 4002.68 -880.022 4001.605 C -875.581 4000.704 -870.414 4002.063 -865.609 4000.862 C -861.232 3999.756 -857.676 3995.932 -853.472 3994.019 C -850.264 3992.581 -846.408 3992.407 -842.852 3990.985 C -837.985 3989.073 -833.86 3985.596 -829.182 3984.158 C -810.502 3978.421 -786.084 3971.531 -761.685 3976.572 C -757.482 3977.441 -753.594 3980.743 -749.548 3981.898 C -745.898 3982.909 -742.089 3982.435 -738.913 3983.415 C -727.423 3986.908 -717.151 3993.545 -705.535 3995.536 C -683.757 3999.282 -656.402 3990.527 -638.797 3984.158 C -626.818 3979.844 -619.074 3974.407 -609.197 3968.228 C -585.38 3953.309 -566.227 3937.522 -552.305 3912.094 C -550.045 3907.953 -547.153 3904.682 -545.493 3901.474 C -542.617 3895.974 -543.692 3890.443 -539.423 3889.337 C -535.553 3888.355 -527.082 3893.462 -525.755 3896.921 C -523.351 3903.228 -528.109 3911.62 -531.08 3917.404 C -540.136 3935.167 -546.046 3941.961 -560.665 3956.091 C -567.474 3962.697 -575.425 3969.84 -582.647 3974.297 C -598.388 3984.016 -616.214 3987.888 -629.679 3997.812 C -633.517 3998.365 -633.93 3995.489 -638.039 3996.295 C -640.692 4001.224 -648.026 4001.479 -652.451 4004.639 C -659.198 4004.053 -665.821 4003.454 -672.158 4004.639 C -674.75 4005.129 -677.152 4007.294 -679.76 4007.672 C -690.506 4009.27 -700.573 4004.26 -711.62 4006.156 C -716.266 3999.329 -723.109 3998.65 -733.618 3998.571 C -735.971 3996.595 -738.723 3992.423 -742.721 3990.985 C -746.087 3989.784 -751.16 3991.617 -754.842 3990.225 C -757.861 3989.103 -759.836 3985.643 -762.428 3984.932 C -774.249 3981.629 -786.212 3985.391 -796.58 3984.932 C -809.997 3992.344 -828.092 3991.981 -842.852 3997.812 C -845.207 3998.76 -847.388 4001.147 -849.664 4002.379 C -856.38 4005.983 -863.334 4007.832 -867.869 4013.742 C -879.027 4009.38 -891.559 4018.309 -902.021 4019.052 L -920.226 4019.052 C -927.354 4017.345 -932.79 4013.93 -941.466 4013.742 C -975.365 3997.543 -1004.238 3974.676 -1027.184 3946.229 C -1030.661 3941.915 -1032.668 3937.585 -1035.529 3933.332 C -1037.046 3931.074 -1039.59 3930.284 -1040.823 3928.04 C -1041.992 3925.922 -1041.661 3922.793 -1043.114 3920.438 C -1044.742 3917.799 -1047.555 3916.155 -1049.183 3913.611 C -1051.87 3909.36 -1054.809 3904.066 -1056.753 3899.198 C -1058.855 3893.983 -1062.015 3887.551 -1063.596 3881.751 C -1067.088 3868.824 -1066.061 3854.996 -1071.181 3841.547 L -1071.181 3833.219 C -1069.917 3826.881 -1069.917 3815.266 -1071.181 3808.929 L -1071.181 3798.309 C -1068.574 3787.768 -1067.673 3770.589 -1064.354 3758.104 C -1063.39 3754.501 -1061.225 3750.772 -1059.787 3746.726 C -1056.848 3738.382 -1054.525 3732.234 -1051.459 3724.727 C -1045.438 3710.062 -1039.148 3694.748 -1031.736 3680.73 C -1021.069 3660.628 -1002.484 3642.438 -986.222 3627.631 C -973.595 3616.157 -958.218 3607.355 -940.708 3598.805 C -934.876 3595.976 -929.677 3591.741 -924.762 3590.461 C -920.084 3589.26 -914.663 3590.034 -909.591 3588.944 C -895.589 3585.957 -883.214 3582.116 -867.869 3582.116 C -841.288 3582.116 -816.508 3583.934 -795.805 3591.219 C -787.587 3594.127 -781.661 3600.085 -772.29 3601.839 C -747.761 3621.214 -732.352 3647.685 -713.896 3673.145 C -708.71 3680.288 -704.364 3689.375 -697.95 3695.902 C -694.693 3699.236 -688.942 3701.86 -684.311 3705.005 C -668.743 3715.561 -650.097 3722.878 -628.161 3728.52 C -613.275 3732.36 -596.965 3733.988 -583.422 3740.657 C -576.784 3743.929 -569.688 3750.914 -562.182 3755.829 C -554.436 3760.902 -546.679 3765.753 -541.7 3771.759 C -527.398 3789.032 -521.456 3812.563 -515.151 3836.237 Z " fill="rgb(55,53,53)"/><path d=" M -544.123 3829.255 C -540.803 3826.254 -534.515 3826.221 -535.02 3819.394 C -540.545 3819.694 -545.615 3824.462 -544.123 3829.255 Z " fill-rule="evenodd" fill="rgb(55,53,53)"/><path d=" M -842.175 4005.018 C -833.779 4008.833 -824.365 4006.054 -820.935 3998.95 C -816.672 4002.069 -811.972 3998.923 -807.281 4000.467 C -793.987 3990.846 -775.516 3998.283 -760.248 3995.157 C -755.324 3998.577 -746.439 3998.035 -742.801 4002.744 C -737.559 3999.718 -734.748 4005.02 -729.907 4006.536 C -723.146 4005.235 -717.775 4008.103 -713.977 4011.846 C -704.999 4011.48 -699.357 4014.7 -691.218 4017.914 C -688.355 4018.249 -687.66 4016.419 -685.908 4015.638 C -678.979 4021.196 -665.949 4017.947 -661.636 4011.846 C -644.796 4019.787 -640.225 4001.99 -622.19 4004.26 C -616.194 4000.126 -611.25 3993.558 -600.949 3995.916 C -607.092 4007.474 -617.275 4014.99 -627.499 4022.465 C -631.472 4022.391 -629.239 4016.114 -632.81 4015.638 C -644.841 4019.03 -649.383 4029.914 -660.119 4034.603 C -662.44 4034.143 -664.071 4032.992 -666.187 4032.327 C -673.91 4038.536 -682.021 4048.315 -691.218 4050.533 C -689.049 4042.335 -684.361 4036.659 -681.357 4029.293 C -685.426 4027.03 -687.682 4032.368 -691.979 4032.327 C -693.659 4034.691 -695.585 4036.81 -696.53 4039.913 C -706.706 4045.918 -712.765 4056.042 -723.837 4061.153 C -722.325 4048.733 -709.031 4041.592 -704.873 4029.293 C -723.3 4033.13 -731.126 4054.109 -750.388 4059.635 C -751.09 4053.118 -747.792 4050.599 -743.561 4049.015 C -740.625 4040.573 -733.447 4036.371 -729.907 4028.534 C -735.41 4028.901 -741.221 4033.28 -745.837 4036.878 C -750.43 4040.461 -754.998 4044.526 -757.974 4049.015 C -761.916 4051.143 -765.983 4053.143 -767.836 4057.36 C -772.815 4057.587 -776.031 4063.118 -779.973 4061.911 C -774.389 4045.494 -758.138 4039.748 -752.663 4023.224 C -771.216 4027.235 -781.867 4046.405 -796.66 4057.36 C -801.073 4060.628 -807.102 4064.057 -812.589 4064.945 C -811.221 4060.358 -807.82 4055.424 -805.004 4052.05 C -798.717 4044.515 -790.95 4037.98 -783.765 4031.568 C -783.211 4025.798 -777.101 4025.588 -776.938 4019.431 C -787.448 4020.313 -795.089 4029.131 -802.73 4035.361 C -814.26 4044.764 -824.697 4057.069 -836.105 4065.704 C -840.675 4069.163 -846.708 4073.125 -852.795 4073.29 C -844.519 4052.992 -823.518 4045.42 -814.867 4025.5 C -823.048 4023.976 -828.719 4031.503 -833.831 4036.12 C -844.136 4045.43 -853.955 4054.681 -864.931 4063.428 C -869.956 4067.433 -875.434 4070.704 -880.861 4074.807 C -884.083 4077.24 -886.149 4082.884 -891.482 4081.634 C -892.448 4075.611 -887.898 4075.104 -884.655 4073.29 C -881.145 4066.685 -876.265 4061.45 -870.242 4057.36 C -867.451 4049.173 -859.298 4045.872 -854.312 4039.913 C -853.178 4038.558 -853.135 4036.099 -852.035 4034.603 C -850.199 4032.099 -844.437 4030.879 -846.727 4026.258 C -867.818 4039.555 -885.973 4055.789 -902.859 4073.29 C -909.982 4074.579 -913.071 4083.723 -921.065 4081.634 C -920.91 4076.732 -917.624 4074.962 -914.239 4073.29 C -904.01 4061.521 -892.677 4050.855 -883.895 4037.637 C -893.369 4036.815 -898.361 4046.899 -906.654 4049.774 C -914.596 4059.74 -928.135 4067.711 -939.27 4075.565 C -943.334 4078.43 -946.087 4082.854 -953.685 4083.151 C -950.975 4070.69 -937.567 4068.925 -932.445 4058.877 C -930.545 4058.248 -929.466 4056.799 -927.135 4056.601 C -925.385 4051.523 -920.829 4049.252 -918.789 4044.464 C -925.305 4042.013 -931.968 4047.762 -936.996 4051.291 C -947.247 4058.486 -958.225 4065.57 -968.856 4073.29 C -981.627 4076.973 -990.411 4088.624 -1004.509 4088.461 C -993.671 4074.521 -977.3 4066.108 -962.788 4055.842 C -962.157 4053.945 -960.708 4052.864 -960.512 4050.533 C -957.312 4048.674 -951.61 4049.32 -951.409 4044.464 C -955.61 4038.131 -960.605 4046.297 -964.305 4048.257 C -966.625 4049.486 -969.951 4049.553 -971.89 4050.533 C -974.76 4051.985 -976.515 4054.823 -979.475 4056.601 C -985.679 4060.329 -993.394 4062.802 -999.958 4066.462 C -1011.583 4072.944 -1026.18 4083.666 -1041.679 4086.944 C -1041.244 4082.968 -1037.829 4078.742 -1034.85 4076.324 C -1025.314 4068.579 -1010.905 4063.286 -999.958 4055.842 C -997.331 4054.057 -995.597 4050.825 -993.13 4049.015 C -987.443 4044.843 -979.103 4043.712 -976.44 4036.878 C -981.633 4030.775 -989.094 4039.111 -992.372 4042.188 C -1025.676 4051.615 -1045.631 4074.393 -1082.642 4080.117 C -1074.503 4068.466 -1060.156 4064.117 -1047.747 4057.36 C -1037.194 4051.612 -1027.957 4043.097 -1016.644 4039.154 C -1013.713 4035.511 -1009.618 4033.035 -1006.785 4029.293 C -1016.381 4026.408 -1026.232 4032.417 -1034.092 4036.12 C -1043.514 4040.557 -1053.147 4046.779 -1063.677 4050.533 C -1077.883 4055.596 -1089.063 4064.158 -1106.157 4064.187 C -1105.661 4059.12 -1100.844 4058.374 -1096.296 4057.36 C -1077.66 4042.365 -1051.295 4035.1 -1031.817 4020.948 C -1033.643 4015.555 -1039.632 4018.007 -1042.437 4018.673 C -1052.691 4021.105 -1064.482 4028.288 -1073.537 4032.327 C -1082.711 4036.418 -1093.393 4039.178 -1103.123 4042.188 C -1113.171 4045.297 -1122.675 4051.31 -1133.466 4049.774 C -1132.911 4042.917 -1125.302 4044.157 -1121.329 4042.188 C -1118.226 4040.652 -1116.425 4037.506 -1113.743 4036.12 C -1110.876 4034.639 -1107.312 4035.088 -1103.881 4033.844 C -1100.291 4032.543 -1097.633 4029.274 -1094.02 4027.775 C -1089.238 4025.794 -1085.058 4026.145 -1081.124 4023.983 C -1079.228 4022.941 -1077.888 4020.547 -1075.814 4019.431 C -1072.737 4017.777 -1068.848 4017.949 -1065.953 4016.397 C -1063.499 4015.082 -1062.083 4012.347 -1059.884 4011.087 C -1055.317 4008.473 -1049.611 4010.26 -1046.23 4005.777 C -1052.936 3999.62 -1060.039 4005.796 -1065.194 4008.053 C -1070.119 4010.208 -1076.968 4010.066 -1081.883 4011.846 C -1084.582 4012.822 -1086.643 4015.368 -1089.467 4016.397 C -1094.954 4018.396 -1101.258 4017.503 -1106.157 4019.431 C -1110.276 4021.053 -1112.768 4024.961 -1117.536 4025.5 C -1124.298 4026.263 -1130.224 4023.768 -1135.741 4027.775 C -1129.673 4019.72 -1118.076 4015.215 -1106.916 4011.087 C -1102.971 4009.628 -1098.515 4010.15 -1094.779 4008.811 C -1092.394 4007.956 -1090.441 4005.444 -1087.952 4004.26 C -1080.867 4000.894 -1074.093 4001.379 -1070.503 3994.397 C -1065.869 3994.481 -1062.242 3993.558 -1059.884 3991.363 C -1063.388 3985.079 -1074.395 3989.507 -1076.573 3993.64 C -1091.297 3991.943 -1105.963 4000.206 -1117.536 4002.744 C -1122.293 4003.787 -1127.076 4003.062 -1131.188 4004.26 C -1138.441 4006.371 -1147.468 4013.84 -1155.464 4007.294 C -1152.7 4000.617 -1144.906 4002.91 -1139.534 4001.226 C -1136.154 4000.167 -1133.859 3997.041 -1130.43 3995.916 C -1126.53 3994.636 -1122.09 3994.958 -1118.294 3993.64 C -1115.064 3992.519 -1112.461 3989.618 -1109.19 3988.328 C -1096.985 3983.526 -1082.025 3985.078 -1073.537 3975.433 C -1089.165 3964.34 -1108.602 3983.878 -1130.43 3976.951 C -1122.514 3969.445 -1102.998 3973.536 -1100.847 3960.263 C -1111.289 3953.376 -1126.157 3965.491 -1138.017 3959.504 C -1134.667 3952.936 -1125.205 3957.078 -1119.811 3954.953 C -1114.04 3952.679 -1109.056 3947.867 -1101.606 3946.609 C -1095.714 3945.615 -1090.063 3948.097 -1084.917 3943.574 C -1088.889 3936.422 -1105.4 3941.806 -1109.948 3935.23 C -1099.39 3931.63 -1085.205 3931.655 -1073.537 3929.162 C -1069.738 3910.27 -1059.894 3912.652 -1051.539 3926.127 C -1046.99 3933.466 -1041.941 3937.711 -1038.645 3945.091 C -1023.717 3966.069 -1002.568 3980.825 -984.028 3998.191 C -977.316 4000.582 -972.861 4005.232 -968.856 4010.328 C -965.217 4010.735 -963.733 4013.298 -958.993 4012.604 C -958.178 4014.57 -956.251 4015.425 -955.961 4017.914 C -952.571 4020.593 -948.008 4019.502 -944.582 4020.948 C -941.726 4022.154 -940.28 4025.073 -937.753 4026.258 C -928.243 4030.718 -920.859 4027.51 -908.171 4028.534 C -900.846 4029.125 -892.538 4028.416 -883.895 4026.258 C -878.82 4022.484 -872.129 4020.326 -864.174 4019.431 C -862.266 4018.557 -861.786 4016.255 -860.381 4014.88 C -852.384 4013.521 -846.246 4010.303 -842.175 4005.018 Z " fill-rule="evenodd" fill="rgb(55,53,53)"/><radialGradient id="_rgradient_6" fx="0.5" fy="0.5" cx="0.5" cy="0.5" r="0.5" gradientTransform="matrix(469.309,0,0,348.335,-1039.373,3648.87)" gradientUnits="userSpaceOnUse"><stop offset="0%" stop-opacity="1" style="stop-color:rgb(221,226,107)"/><stop offset="10%" stop-opacity="1" style="stop-color:rgb(200,213,100)"/><stop offset="20%" stop-opacity="1" style="stop-color:rgb(89,148,66)"/><stop offset="30.000000000000004%" stop-opacity="1" style="stop-color:rgb(88,148,66)"/><stop offset="40%" stop-opacity="1" style="stop-color:rgb(87,146,66)"/><stop offset="50%" stop-opacity="1" style="stop-color:rgb(82,142,64)"/><stop offset="60%" stop-opacity="1" style="stop-color:rgb(74,134,60)"/><stop offset="70%" stop-opacity="1" style="stop-color:rgb(61,122,55)"/><stop offset="80%" stop-opacity="1" style="stop-color:rgb(44,105,47)"/><stop offset="89.99999999999999%" stop-opacity="1" style="stop-color:rgb(44,105,47)"/><stop offset="99.99999999999999%" stop-opacity="1" style="stop-color:rgb(44,105,47)"/></radialGradient><path d=" M -579.706 3919.679 C -579.706 3919.552 -574.493 3914.054 -571.332 3915.886 C -567.018 3918.416 -574.888 3929.682 -577.401 3932.576 C -581.51 3937.317 -586.14 3942.325 -590.296 3945.486 C -594.198 3948.427 -599.889 3950.385 -604.709 3953.814 C -616.104 3961.953 -631.654 3973.016 -645.672 3978.865 C -648.926 3980.206 -652.973 3980.254 -657.066 3981.897 C -662.944 3984.236 -667.781 3988.078 -672.222 3988.709 C -680.566 3989.911 -691.692 3992.58 -699.799 3992.849 C -700.731 3992.882 -702.644 3992.17 -704.682 3991.348 L -704.84 3992.122 C -704.414 3992.408 -715.301 3992.565 -715.301 3992.833 L -716.091 3992.596 C -722.398 3989.957 -720.5 3987.209 -722.303 3984.157 C -724.563 3980.333 -729.65 3981.614 -736.716 3981.123 L -738.043 3979.987 L -739.75 3980.382 C -749.311 3967.202 -770.061 3971.309 -786.007 3971.261 C -808.857 3971.216 -828.598 3977.03 -846.708 3984.157 C -854.436 3987.209 -861.927 3991.618 -867.948 3993.262 C -871.378 3994.21 -875.408 3993.467 -879.327 3994.019 C -890.958 3995.711 -907.362 3999.818 -921.807 3994.779 C -924.952 3993.687 -927.496 3991 -930.894 3989.469 C -933.628 3988.25 -937.026 3988.377 -939.254 3987.191 C -942.889 3985.249 -949.763 3979.811 -954.409 3976.571 C -968.143 3967.075 -984.721 3952.677 -995.388 3940.16 C -999.29 3935.561 -1000.919 3929.572 -1004.475 3925.005 C -1006.182 3922.809 -1008.947 3921.86 -1010.544 3919.679 C -1013.104 3916.249 -1016.217 3910.781 -1018.145 3906.783 C -1019.235 3904.509 -1019.235 3901.299 -1020.405 3899.197 C -1022.175 3896.07 -1025.92 3894.678 -1027.232 3890.853 C -1028.575 3887.013 -1027.485 3882.145 -1028.749 3877.957 C -1031.23 3869.898 -1035.497 3862.756 -1036.351 3853.699 C -1036.935 3847.3 -1036.224 3840.236 -1037.109 3833.96 C -1037.583 3830.594 -1039.322 3827.261 -1039.369 3824.101 C -1039.48 3816.924 -1036.904 3808.454 -1036.351 3800.583 C -1035.877 3794.167 -1037.267 3787.561 -1036.351 3781.619 C -1035.687 3777.479 -1032.068 3772.565 -1030.266 3767.206 C -1028.417 3761.675 -1028.386 3755.322 -1026.473 3750.518 C -1025.525 3748.116 -1023.155 3746.347 -1021.922 3743.691 C -1017.971 3735.158 -1015.964 3724.11 -1011.302 3715.624 C -1007.731 3709.114 -1002.073 3702.839 -998.422 3696.66 C -989.651 3681.853 -977.893 3670.742 -962.77 3659.49 C -955.99 3654.466 -954.805 3648.903 -945.307 3648.87 L -945.702 3652.41 L -942.288 3653.421 C -947.661 3662.714 -961.489 3669.62 -969.581 3678.454 C -973.943 3683.211 -982.271 3693.847 -979.458 3696.66 C -974.733 3701.385 -962.706 3681.741 -957.46 3683.007 L -955.184 3686.041 L -952.134 3688.315 C -965.993 3708.607 -986.333 3726.435 -989.304 3755.069 C -981.892 3755.434 -979.189 3743.833 -975.665 3741.417 C -974.101 3740.358 -968.775 3738.002 -967.305 3739.141 C -961.331 3743.85 -975.017 3760.822 -977.941 3767.206 C -980.169 3772.121 -981.133 3778.538 -982.476 3783.136 C -984.136 3788.796 -986.696 3793.695 -987.786 3797.551 C -989.509 3803.586 -990.568 3814.285 -986.269 3814.998 C -982.002 3815.725 -980.991 3805.008 -979.458 3802.101 C -977.246 3797.977 -969.549 3789.681 -965.788 3791.481 C -963.244 3792.715 -963.212 3802.987 -964.271 3807.411 C -965.804 3813.718 -971.651 3820.259 -973.374 3827.892 C -976.929 3843.602 -981.054 3858.993 -977.941 3872.663 C -970.734 3865.664 -969.786 3853.778 -964.271 3843.065 C -962.942 3840.472 -953.445 3823.137 -949.099 3825.618 C -942.92 3829.189 -951.675 3847.899 -952.892 3852.182 C -958.013 3870.024 -961.205 3891.281 -959.735 3913.612 C -950.711 3911.935 -951.786 3901.491 -949.099 3891.628 C -948.23 3888.389 -945.212 3884.579 -943.805 3880.233 C -942.336 3875.747 -942.604 3871.209 -940.771 3867.338 C -938.685 3862.992 -927.844 3839.997 -921.048 3845.339 C -917.698 3847.978 -921.712 3858.742 -923.324 3864.303 C -927.417 3878.479 -931.068 3886.318 -933.17 3903.008 C -934.039 3909.817 -935.034 3923.6 -932.411 3925.005 C -926.169 3928.341 -924.146 3907.464 -923.324 3904.525 C -922.312 3900.983 -919.215 3893.194 -916.481 3885.561 C -914.332 3879.506 -911.993 3872.679 -909.654 3867.338 C -907.868 3863.244 -898.639 3847.427 -894.483 3850.665 C -889.109 3854.854 -895.494 3869.615 -896.758 3874.923 C -897.849 3879.492 -897.422 3884.706 -898.291 3889.336 C -899.239 3894.505 -901.642 3899.008 -902.084 3903.008 C -903.001 3911.524 -901.452 3920.976 -902.084 3928.039 C -902.779 3935.941 -903.854 3937.932 -901.325 3945.486 C -900.693 3947.321 -901.025 3952.125 -897.517 3951.54 C -894.072 3925.937 -887.292 3888.974 -877.794 3867.338 C -876.813 3865.093 -873.511 3862.154 -871.725 3858.235 C -869.023 3852.277 -868.96 3844.233 -863.397 3846.115 C -857.676 3848.027 -861.753 3863.323 -862.638 3868.112 C -866.447 3889.067 -873.701 3925.054 -864.156 3945.486 C -856.206 3922.46 -857.265 3898.33 -848.984 3871.146 C -847.277 3865.568 -844.322 3849.416 -839.107 3850.665 C -833.592 3851.978 -836.499 3875.619 -836.831 3883.267 C -837.432 3896.827 -837.479 3908.616 -836.831 3918.922 C -836.689 3921.338 -835.867 3940.776 -831.521 3940.936 C -828.139 3941.047 -823.43 3905.93 -822.434 3900.715 C -818.641 3881.166 -816.65 3862.503 -805.746 3852.182 L -802.711 3854.442 L -798.903 3854.442 C -803.976 3877.025 -810.013 3918.922 -795.126 3935.609 C -792.502 3910.167 -790.732 3894.094 -782.973 3872.663 C -781.298 3868.001 -774.392 3858.489 -770.076 3862.786 C -767.659 3865.22 -770.52 3876.899 -770.852 3881.75 C -771.689 3894.188 -773.173 3917.341 -772.369 3924.23 C -772.068 3926.713 -770.393 3939.639 -764.783 3937.886 C -760.295 3936.494 -759.11 3902.5 -757.197 3896.922 C -756.012 3893.526 -749.863 3882.62 -745.044 3884.785 C -739.196 3887.44 -745.74 3916.313 -745.044 3924.23 C -744.727 3927.928 -743.243 3931.689 -742.01 3935.609 C -741.915 3935.941 -740.809 3945.598 -736.716 3943.969 C -733.791 3942.799 -735.167 3934.518 -734.44 3931.059 C -733.728 3927.786 -729.826 3914.007 -726.08 3905.266 C -724.5 3901.554 -719.315 3893.745 -715.476 3894.648 C -707.021 3896.653 -714.354 3911.208 -715.476 3921.196 C -716.28 3928.497 -716.329 3948.283 -709.408 3947.746 C -701.316 3947.129 -706.545 3930.79 -702.565 3920.439 C -701.047 3916.455 -693.176 3905.947 -690.443 3906.783 C -686.712 3907.938 -688.04 3918.889 -688.152 3922.713 C -688.326 3928.277 -689.637 3956.943 -684.375 3959.124 C -677.974 3961.797 -679.474 3947.178 -677.548 3938.643 C -676.947 3936.004 -671.289 3919.284 -666.928 3919.679 C -657.177 3920.595 -667.685 3952.504 -657.807 3953.814 C -650.569 3954.794 -652.657 3935.737 -647.963 3928.782 L -644.692 3930.236 L -641.895 3928.039 C -638.924 3932.292 -640.188 3942.989 -635.809 3942.453 C -630.501 3941.789 -635.287 3919.728 -627.482 3918.162 C -616.088 3915.903 -620.434 3940.381 -612.295 3939.403 C -604.03 3938.423 -613.006 3911.967 -603.192 3909.817 C -594.026 3907.826 -594.404 3921.417 -588.779 3922.713 C -585.856 3923.41 -582.837 3921.275 -579.706 3919.679 Z " fill="url(#_rgradient_6)"/><path d=" M -849.347 3995.157 C -840.75 3991.506 -832.5 3987.049 -823.556 3984.157" fill="none" vector-effect="non-scaling-stroke" stroke-width="0.65" stroke="rgb(55,53,53)" stroke-linejoin="miter" stroke-linecap="square" stroke-miterlimit="3"/><path d=" M -715.286 3992.849 C -715.301 3992.849 -715.301 3992.834 -715.301 3992.834 C -715.301 3992.565 -704.413 3992.408 -704.841 3992.122" fill="none" vector-effect="non-scaling-stroke" stroke-width="0.65" stroke="rgb(55,53,53)" stroke-linejoin="miter" stroke-linecap="square" stroke-miterlimit="3"/><path d=" M -716.091 3992.596 C -722.397 3989.957 -720.5 3987.209 -722.304 3984.157 C -724.562 3980.333 -729.651 3981.614 -736.716 3981.123" fill="none" vector-effect="non-scaling-stroke" stroke-width="0.65" stroke="rgb(55,53,53)" stroke-linejoin="miter" stroke-linecap="square" stroke-miterlimit="3"/><line x1="-736.716" y1="3981.123" x2="-738.044" y2="3979.985" vector-effect="non-scaling-stroke" stroke-width="0.65" stroke="rgb(55,53,53)" stroke-linejoin="miter" stroke-linecap="square" stroke-miterlimit="3"/><line x1="-738.043" y1="3979.986" x2="-739.75" y2="3980.381" vector-effect="non-scaling-stroke" stroke-width="0.65" stroke="rgb(55,53,53)" stroke-linejoin="miter" stroke-linecap="square" stroke-miterlimit="3"/><path d=" M -739.75 3980.381 C -749.311 3967.201 -770.061 3971.31 -786.007 3971.261 C -808.857 3971.215 -828.598 3977.031 -846.708 3984.158 C -854.436 3987.208 -861.927 3991.617 -867.948 3993.261 C -871.378 3994.209 -875.408 3993.466 -879.327 3994.019 C -890.958 3995.71 -907.362 3999.819 -921.807 3994.778 C -924.952 3993.687 -927.496 3991.001 -930.894 3989.468 C -933.628 3988.249 -937.026 3988.377 -939.254 3987.192 C -942.889 3985.248 -949.763 3979.812 -954.409 3976.572 C -968.143 3967.074 -984.721 3952.677 -995.388 3940.161 C -999.29 3935.562 -1000.919 3929.573 -1004.475 3925.005 C -1006.182 3922.809 -1008.947 3921.86 -1010.544 3919.68 C -1013.104 3916.25 -1016.217 3910.782 -1018.145 3906.784 C -1019.235 3904.508 -1019.235 3901.3 -1020.405 3899.198 C -1022.175 3896.069 -1025.92 3894.678 -1027.232 3890.854 C -1028.575 3887.014 -1027.485 3882.146 -1028.749 3877.957 C -1031.23 3869.898 -1035.497 3862.755 -1036.351 3853.7 C -1036.935 3847.299 -1036.224 3840.235 -1037.109 3833.961 C -1037.583 3830.595 -1039.322 3827.261 -1039.369 3824.1 C -1039.48 3816.925 -1036.904 3808.454 -1036.351 3800.584 C -1035.877 3794.168 -1037.267 3787.562 -1036.351 3781.62 C -1035.687 3777.48 -1032.068 3772.565 -1030.266 3767.207 C -1028.417 3761.676 -1028.386 3755.323 -1026.473 3750.519 C -1025.525 3748.117 -1023.155 3746.347 -1021.922 3743.692 C -1017.971 3735.158 -1015.964 3724.111 -1011.302 3715.625 C -1007.731 3709.113 -1002.073 3702.84 -998.422 3696.66 C -989.651 3681.852 -977.893 3670.743 -962.769 3659.49 C -955.99 3654.465 -954.805 3648.902 -945.307 3648.87" fill="none" vector-effect="non-scaling-stroke" stroke-width="0.65" stroke="rgb(55,53,53)" stroke-linejoin="miter" stroke-linecap="square" stroke-miterlimit="3"/><line x1="-945.306" y1="3648.87" x2="-945.701" y2="3652.41" vector-effect="non-scaling-stroke" stroke-width="0.65" stroke="rgb(55,53,53)" stroke-linejoin="miter" stroke-linecap="square" stroke-miterlimit="3"/><line x1="-945.701" y1="3652.41" x2="-942.288" y2="3653.421" vector-effect="non-scaling-stroke" stroke-width="0.65" stroke="rgb(55,53,53)" stroke-linejoin="miter" stroke-linecap="square" stroke-miterlimit="3"/><path d=" M -942.288 3653.422 C -947.661 3662.714 -961.489 3669.62 -969.58 3678.455 C -973.942 3683.211 -982.271 3693.847 -979.458 3696.66 C -974.732 3701.385 -962.706 3681.742 -957.459 3683.006" fill="none" vector-effect="non-scaling-stroke" stroke-width="0.65" stroke="rgb(55,53,53)" stroke-linejoin="miter" stroke-linecap="square" stroke-miterlimit="3"/><line x1="-957.459" y1="3683.006" x2="-955.183" y2="3686.041" vector-effect="non-scaling-stroke" stroke-width="0.65" stroke="rgb(55,53,53)" stroke-linejoin="miter" stroke-linecap="square" stroke-miterlimit="3"/><path d=" M -955.183 3686.04 C -954.662 3685.708 -954.188 3685.313 -953.793 3684.871" fill="none" vector-effect="non-scaling-stroke" stroke-width="0.65" stroke="rgb(55,53,53)" stroke-linejoin="miter" stroke-linecap="square" stroke-miterlimit="3"/><line x1="-955.183" y1="3686.04" x2="-952.133" y2="3688.316" vector-effect="non-scaling-stroke" stroke-width="0.65" stroke="rgb(55,53,53)" stroke-linejoin="miter" stroke-linecap="square" stroke-miterlimit="3"/><path d=" M -952.133 3688.316 C -965.993 3708.608 -986.332 3726.434 -989.303 3755.07 C -981.891 3755.433 -979.189 3743.834 -975.665 3741.416 C -974.1 3740.357 -968.774 3738.002 -967.304 3739.14 C -961.331 3743.849 -975.017 3760.822 -977.94 3767.207 C -980.169 3772.122 -981.133 3778.538 -982.476 3783.137 C -984.135 3788.795 -986.695 3793.694 -987.786 3797.55 C -989.508 3803.587 -990.567 3814.286 -986.269 3814.997 C -982.002 3815.724 -980.99 3805.009 -979.457 3802.101 C -977.245 3797.977 -969.549 3789.68 -965.787 3791.481 C -963.243 3792.714 -963.211 3802.986 -964.27 3807.411 C -965.803 3813.717 -971.65 3820.259 -973.373 3827.893 C -976.929 3843.601 -981.054 3858.994 -977.94 3872.664 C -970.734 3865.663 -969.786 3853.779 -964.27 3843.064 C -962.943 3840.472 -953.445 3823.136 -949.099 3825.617 C -942.92 3829.188 -951.675 3847.9 -952.892 3852.183 C -958.012 3870.025 -961.204 3891.28 -959.735 3913.611 C -950.711 3911.936 -951.785 3901.49 -949.099 3891.628 C -948.23 3888.388 -945.211 3884.58 -943.805 3880.234 C -942.335 3875.746 -942.604 3871.21 -940.77 3867.338 C -938.684 3862.992 -927.843 3839.998 -921.048 3845.34 C -917.697 3847.979 -921.711 3858.741 -923.323 3864.304 C -927.416 3878.48 -931.067 3886.318 -933.169 3903.007 C -934.038 3909.818 -935.034 3923.599 -932.41 3925.005 C -926.168 3928.34 -924.145 3907.463 -923.323 3904.524 C -922.312 3900.984 -919.214 3893.193 -916.48 3885.56 C -914.331 3879.507 -911.992 3872.68 -909.653 3867.338 C -907.867 3863.245 -898.638 3847.426 -894.482 3850.665 C -889.109 3854.853 -895.493 3869.614 -896.758 3874.924 C -897.848 3879.491 -897.421 3884.706 -898.291 3889.337 C -899.239 3894.504 -901.641 3899.008 -902.083 3903.007 C -903 3911.525 -901.451 3920.975 -902.083 3928.039 C -902.779 3935.941 -903.853 3937.932 -901.325 3945.487 C -900.693 3947.32 -901.025 3952.124 -897.516 3951.539 C -894.071 3925.938 -887.291 3888.973 -877.793 3867.338 C -876.814 3865.094 -873.511 3862.155 -871.725 3858.235 C -869.022 3852.277 -868.959 3844.233 -863.396 3846.114 C -857.675 3848.026 -861.753 3863.324 -862.638 3868.113 C -866.446 3889.068 -873.7 3925.053 -864.155 3945.487 C -856.206 3922.461 -857.265 3898.329 -848.984 3871.147 C -847.277 3865.568 -844.322 3849.417 -839.106 3850.665 C -833.591 3851.977 -836.499 3875.619 -836.831 3883.268 C -837.431 3896.828 -837.479 3908.617 -836.831 3918.921 C -836.688 3921.339 -835.867 3940.777 -831.521 3940.935 C -828.139 3941.046 -823.429 3905.93 -822.434 3900.715 C -818.641 3881.166 -816.65 3862.502 -805.745 3852.183" fill="none" vector-effect="non-scaling-stroke" stroke-width="0.65" stroke="rgb(55,53,53)" stroke-linejoin="miter" stroke-linecap="square" stroke-miterlimit="3"/><line x1="-805.745" y1="3852.183" x2="-802.711" y2="3854.442" vector-effect="non-scaling-stroke" stroke-width="0.65" stroke="rgb(55,53,53)" stroke-linejoin="miter" stroke-linecap="square" stroke-miterlimit="3"/><path d=" M -802.711 3854.442 C -802.458 3853.48 -802.316 3852.816 -802.22 3852.547" fill="none" vector-effect="non-scaling-stroke" stroke-width="0.65" stroke="rgb(55,53,53)" stroke-linejoin="miter" stroke-linecap="square" stroke-miterlimit="3"/><line x1="-802.711" y1="3854.442" x2="-798.903" y2="3854.442" vector-effect="non-scaling-stroke" stroke-width="0.65" stroke="rgb(55,53,53)" stroke-linejoin="miter" stroke-linecap="square" stroke-miterlimit="3"/><path d=" M -798.902 3854.442 C -803.975 3877.025 -810.012 3918.922 -795.125 3935.609 C -792.502 3910.167 -790.732 3894.095 -782.972 3872.663 C -781.297 3868.001 -774.391 3858.489 -770.077 3862.786 C -767.659 3865.22 -770.519 3876.899 -770.851 3881.75 C -771.689 3894.188 -773.174 3917.342 -772.368 3924.23 C -772.07 3926.712 -770.393 3939.639 -764.783 3937.886 C -760.294 3936.494 -759.109 3902.501 -757.197 3896.922 C -756.012 3893.524 -749.864 3882.62 -745.044 3884.785 C -739.197 3887.44 -745.739 3916.313 -745.044 3924.23 C -744.728 3927.928 -743.242 3931.69 -742.01 3935.609 C -741.915 3935.941 -740.809 3945.598 -736.716 3943.969 C -733.792 3942.799 -735.167 3934.518 -734.44 3931.057 C -733.729 3927.786 -729.825 3914.005 -726.08 3905.266 C -724.499 3901.554 -719.316 3893.745 -715.476 3894.646 C -707.021 3896.653 -714.354 3911.208 -715.476 3921.196 C -716.282 3928.497 -716.329 3948.283 -709.407 3947.746 C -701.316 3947.13 -706.547 3930.79 -702.564 3920.439 C -701.047 3916.455 -693.177 3905.947 -690.443 3906.783 C -686.713 3907.938 -688.041 3918.889 -688.151 3922.713 C -688.325 3928.278 -689.637 3956.944 -684.374 3959.125 C -677.974 3961.797 -679.475 3947.179 -677.547 3938.643 C -676.947 3936.004 -671.289 3919.284 -666.927 3919.679 C -657.176 3920.596 -667.686 3952.504 -657.809 3953.815 C -650.571 3954.794 -652.657 3935.735 -647.963 3928.782" fill="none" vector-effect="non-scaling-stroke" stroke-width="0.65" stroke="rgb(55,53,53)" stroke-linejoin="miter" stroke-linecap="square" stroke-miterlimit="3"/><line x1="-647.963" y1="3928.782" x2="-644.692" y2="3930.236" vector-effect="non-scaling-stroke" stroke-width="0.65" stroke="rgb(55,53,53)" stroke-linejoin="miter" stroke-linecap="square" stroke-miterlimit="3"/><path d=" M -644.691 3930.236 C -644.755 3929.542 -644.628 3929.004 -644.549 3928.404" fill="none" vector-effect="non-scaling-stroke" stroke-width="0.65" stroke="rgb(55,53,53)" stroke-linejoin="miter" stroke-linecap="square" stroke-miterlimit="3"/><line x1="-644.691" y1="3930.236" x2="-641.894" y2="3928.039" vector-effect="non-scaling-stroke" stroke-width="0.65" stroke="rgb(55,53,53)" stroke-linejoin="miter" stroke-linecap="square" stroke-miterlimit="3"/><path d=" M -579.692 3919.679 L -579.708 3919.679 C -579.708 3919.553 -574.492 3914.053 -571.332 3915.887 C -567.017 3918.415 -574.887 3929.683 -577.4 3932.575 C -581.509 3937.316 -586.14 3942.326 -590.296 3945.487 C -594.199 3948.426 -599.889 3950.386 -604.709 3953.815 C -616.103 3961.954 -631.654 3973.016 -645.671 3978.864 C -648.927 3980.207 -652.973 3980.254 -657.066 3981.898 C -662.945 3984.237 -667.781 3988.077 -672.221 3988.709 C -680.566 3989.91 -691.691 3992.581 -699.798 3992.85 C -700.731 3992.881 -702.643 3992.17 -704.682 3991.348 C -708.965 3989.643 -713.848 3987.54 -711.651 3991.111" fill="none" vector-effect="non-scaling-stroke" stroke-width="0.65" stroke="rgb(55,53,53)" stroke-linejoin="miter" stroke-linecap="square" stroke-miterlimit="3"/><path d=" M -641.895 3928.039 C -638.924 3932.291 -640.188 3942.99 -635.809 3942.452 C -630.501 3941.789 -635.288 3919.727 -627.482 3918.162 C -616.088 3915.902 -620.434 3940.382 -612.295 3939.402 C -604.03 3938.422 -613.006 3911.967 -603.192 3909.818 C -594.026 3907.827 -594.404 3921.418 -588.779 3922.714 C -585.856 3923.409 -582.837 3921.276 -579.707 3919.679" fill="none" vector-effect="non-scaling-stroke" stroke-width="0.65" stroke="rgb(55,53,53)" stroke-linejoin="miter" stroke-linecap="square" stroke-miterlimit="3"/><path d=" M -596.319 3849.954 C -595.163 3849.967 -594.658 3855.575 -597.078 3854.505 C -597.628 3852.187 -596.304 3851.741 -596.319 3849.954 Z " fill-rule="evenodd" fill="rgb(254,254,254)"/><path d=" M -584.183 3853.747 C -584.542 3855.933 -587.47 3857.825 -589.494 3856.022 C -587.856 3855.13 -586.01 3854.448 -584.183 3853.747 Z " fill-rule="evenodd" fill="rgb(254,254,254)"/><path d=" M -586.461 3865.884 C -588.812 3865.706 -593.906 3867.115 -591.769 3871.192 C -596.351 3868.553 -589.517 3861.11 -586.461 3865.884 Z " fill-rule="evenodd" fill="rgb(254,254,254)"/></g><linearGradient id="_lgradient_31" x1="0.000013965237904756123" y1="0.4999901228089154" x2="0.9999948773361851" y2="0.4999901228089154" gradientTransform="matrix(45.782,0,0,66.874,-605.691,3824.983)" gradientUnits="userSpaceOnUse"><stop offset="0%" stop-opacity="1" style="stop-color:rgb(150,190,64)"/><stop offset="10%" stop-opacity="1" style="stop-color:rgb(94,99,82)"/><stop offset="20%" stop-opacity="1" style="stop-color:rgb(55,58,60)"/><stop offset="30.000000000000004%" stop-opacity="1" style="stop-color:rgb(44,47,53)"/><stop offset="40%" stop-opacity="1" style="stop-color:rgb(43,46,52)"/><stop offset="50%" stop-opacity="1" style="stop-color:rgb(54,56,59)"/><stop offset="60%" stop-opacity="1" style="stop-color:rgb(90,92,79)"/><stop offset="70%" stop-opacity="1" style="stop-color:rgb(121,126,90)"/><stop offset="80%" stop-opacity="1" style="stop-color:rgb(148,157,91)"/><stop offset="89.99999999999999%" stop-opacity="1" style="stop-color:rgb(171,186,83)"/><stop offset="99.99999999999999%" stop-opacity="1" style="stop-color:rgb(189,213,66)"/></linearGradient><path d=" M -590.252 3830.296 C -593.019 3839.413 -603.638 3844.72 -603.906 3853.81 L -603.906 3853.81 C -603.538 3852.915 -603.097 3852.09 -602.391 3851.536 L -602.391 3851.536 C -604.33 3855.411 -601.449 3864.107 -605.425 3865.945 L -605.425 3865.945 C -603.932 3863.899 -604.972 3859.319 -604.665 3856.085 L -604.665 3856.085 C -606.38 3853.652 -605.008 3861.035 -605.425 3863.671 L -605.425 3863.671 C -607.138 3874.595 -600.49 3893.532 -587.976 3891.738 L -587.976 3891.738 C -583.929 3887.583 -587.4 3881.369 -585.701 3877.325 L -585.701 3877.325 C -583.066 3878.231 -580.237 3878.94 -578.115 3880.361 L -578.115 3880.361 C -579.498 3877.425 -586.425 3876.048 -584.182 3872.014 L -584.182 3872.014 C -583.209 3875.592 -580.143 3877.076 -576.598 3878.086 L -576.598 3878.086 C -581.257 3872.369 -586.752 3858.557 -577.358 3856.085 L -577.358 3856.085 C -574.645 3855.373 -572.851 3856.413 -571.084 3857.454 L -571.084 3857.454 C -569.045 3858.652 -567.043 3859.851 -563.702 3858.363 L -563.702 3858.363 C -565.878 3856.997 -567.936 3855.513 -569.771 3853.81 L -569.771 3853.81 C -568.159 3853.783 -566.798 3854.695 -565.505 3855.608 L -565.505 3855.608 C -563.686 3856.893 -561.997 3858.178 -559.909 3856.842 L -559.909 3856.842 C -568.352 3853.827 -578.513 3844.878 -587.218 3853.051 L -587.218 3853.051 C -588.21 3843.432 -573.38 3833.586 -578.115 3824.983 L -578.115 3824.983 C -583.453 3825.458 -586.353 3828.379 -590.252 3830.296 Z " fill="url(#_lgradient_31)"/><linearGradient id="_lgradient_32" x1="0.000013965237904756123" y1="0.4999901228089154" x2="0.9999948773361851" y2="0.4999901228089154" gradientTransform="matrix(45.782,0,0,66.874,-605.691,3826.563)" gradientUnits="userSpaceOnUse"><stop offset="0%" stop-opacity="1" style="stop-color:rgb(150,190,64)"/><stop offset="10%" stop-opacity="1" style="stop-color:rgb(94,99,82)"/><stop offset="20%" stop-opacity="1" style="stop-color:rgb(55,58,60)"/><stop offset="30.000000000000004%" stop-opacity="1" style="stop-color:rgb(44,47,53)"/><stop offset="40%" stop-opacity="1" style="stop-color:rgb(43,46,52)"/><stop offset="50%" stop-opacity="1" style="stop-color:rgb(54,56,59)"/><stop offset="60%" stop-opacity="1" style="stop-color:rgb(90,92,79)"/><stop offset="70%" stop-opacity="1" style="stop-color:rgb(121,126,90)"/><stop offset="80%" stop-opacity="1" style="stop-color:rgb(148,157,91)"/><stop offset="89.99999999999999%" stop-opacity="1" style="stop-color:rgb(171,186,83)"/><stop offset="99.99999999999999%" stop-opacity="1" style="stop-color:rgb(189,213,66)"/></linearGradient><path d=" M -590.252 3831.876 C -593.019 3840.995 -603.638 3846.3 -603.906 3855.39 L -603.906 3855.39 C -603.538 3854.496 -603.097 3853.671 -602.391 3853.116 L -602.391 3853.116 C -604.33 3856.991 -601.449 3865.688 -605.425 3867.526 L -605.425 3867.526 C -603.932 3865.479 -604.972 3860.899 -604.665 3857.666 L -604.665 3857.666 C -606.38 3855.232 -605.008 3862.615 -605.425 3865.251 L -605.425 3865.251 C -607.138 3876.175 -600.49 3895.112 -587.976 3893.319 L -587.976 3893.319 C -583.929 3889.164 -587.4 3882.95 -585.701 3878.906 L -585.701 3878.906 C -583.066 3879.811 -580.237 3880.521 -578.115 3881.942 L -578.115 3881.942 C -579.498 3879.005 -586.425 3877.629 -584.182 3873.596 L -584.182 3873.596 C -583.209 3877.172 -580.143 3878.658 -576.598 3879.666 L -576.598 3879.666 C -581.257 3873.95 -586.752 3860.137 -577.358 3857.666 L -577.358 3857.666 C -574.643 3856.953 -572.849 3857.993 -571.082 3859.033 L -571.082 3859.033 C -569.045 3860.232 -567.043 3861.432 -563.702 3859.943 L -563.702 3859.943 C -565.878 3858.578 -567.936 3857.094 -569.771 3855.39 L -569.771 3855.39 C -568.159 3855.363 -566.798 3856.275 -565.505 3857.189 L -565.505 3857.189 C -563.686 3858.473 -561.997 3859.757 -559.909 3858.423 L -559.909 3858.423 C -568.352 3855.407 -578.513 3846.458 -587.218 3854.631 L -587.218 3854.631 C -588.21 3845.012 -573.38 3835.166 -578.115 3826.563 L -578.115 3826.563 C -583.453 3827.039 -586.353 3829.959 -590.252 3831.876 Z " fill="url(#_lgradient_32)"/><linearGradient id="_lgradient_33" x1="0.000013965237904756123" y1="0.4999915666276431" x2="0.9999948773361851" y2="0.4999915666276431" gradientTransform="matrix(45.782,0,0,66.874,-604.111,3823.402)" gradientUnits="userSpaceOnUse"><stop offset="0%" stop-opacity="1" style="stop-color:rgb(150,190,64)"/><stop offset="10%" stop-opacity="1" style="stop-color:rgb(94,99,82)"/><stop offset="20%" stop-opacity="1" style="stop-color:rgb(55,58,60)"/><stop offset="30.000000000000004%" stop-opacity="1" style="stop-color:rgb(44,47,53)"/><stop offset="40%" stop-opacity="1" style="stop-color:rgb(43,46,52)"/><stop offset="50%" stop-opacity="1" style="stop-color:rgb(54,56,59)"/><stop offset="60%" stop-opacity="1" style="stop-color:rgb(90,92,79)"/><stop offset="70%" stop-opacity="1" style="stop-color:rgb(121,126,90)"/><stop offset="80%" stop-opacity="1" style="stop-color:rgb(148,157,91)"/><stop offset="89.99999999999999%" stop-opacity="1" style="stop-color:rgb(171,186,83)"/><stop offset="99.99999999999999%" stop-opacity="1" style="stop-color:rgb(189,213,66)"/></linearGradient><path d=" M -588.672 3828.715 C -591.439 3837.832 -602.057 3843.139 -602.326 3852.229 L -602.326 3852.229 C -601.958 3851.335 -601.517 3850.51 -600.81 3849.954 L -600.81 3849.954 C -602.75 3853.83 -599.869 3862.525 -603.845 3864.365 L -603.845 3864.365 C -602.351 3862.318 -603.391 3857.738 -603.085 3854.505 L -603.085 3854.505 C -604.799 3852.071 -603.428 3859.455 -603.845 3862.091 L -603.845 3862.091 C -605.558 3873.014 -598.909 3891.95 -586.396 3890.158 L -586.396 3890.158 C -582.349 3886.003 -585.819 3879.789 -584.12 3875.745 L -584.12 3875.745 C -581.486 3876.651 -578.659 3877.36 -576.535 3878.779 L -576.535 3878.779 C -577.917 3875.845 -584.844 3874.468 -582.602 3870.433 L -582.602 3870.433 C -581.627 3874.011 -578.562 3875.495 -575.019 3876.505 L -575.019 3876.505 C -579.676 3870.789 -585.171 3856.977 -575.778 3854.505 L -575.778 3854.505 C -573.064 3853.792 -571.271 3854.832 -569.504 3855.874 L -569.504 3855.874 C -567.467 3857.072 -565.463 3858.271 -562.122 3856.782 L -562.122 3856.782 C -564.298 3855.417 -566.356 3853.933 -568.192 3852.229 L -568.192 3852.229 C -566.578 3852.202 -565.218 3853.116 -563.925 3854.028 L -563.925 3854.028 C -562.106 3855.313 -560.417 3856.597 -558.329 3855.264 L -558.329 3855.264 C -566.771 3852.247 -576.933 3843.296 -585.638 3851.471 L -585.638 3851.471 C -586.63 3841.851 -571.8 3832.006 -576.535 3823.402 L -576.535 3823.402 C -581.873 3823.878 -584.773 3826.798 -588.672 3828.715 Z " fill="url(#_lgradient_33)"/><clipPath id="_clipPath_F5vAglLDj7MhIKQhht1KNes0UD7PJNlt"><path d=" M -1201.015 3538.885 L -410.587 3538.885 L -410.587 4099.467 L -1201.015 4099.467 L -1201.015 3538.885 Z " fill="rgb(255,255,255)"/></clipPath><g clip-path="url(#_clipPath_F5vAglLDj7MhIKQhht1KNes0UD7PJNlt)"><path d=" M -560.731 3856.782 C -557.101 3854.694 -553.597 3859.239 -550.869 3860.574 C -550.89 3861.85 -556.955 3856.739 -560.731 3856.782 Z " fill-rule="evenodd" fill="rgb(55,53,53)"/><path d=" M -575.904 3881.055 C -570.805 3883.836 -553.938 3889.383 -550.113 3890.916 C -560.276 3889.197 -568.632 3885.669 -575.904 3881.055 Z " fill-rule="evenodd" fill="rgb(55,53,53)"/><linearGradient id="_lgradient_34" x1="0" y1="0.5000101517462905" x2="1.0000001415511444" y2="0.5000101517462905" gradientTransform="matrix(130.572,0,0,40.05,-583.295,3856.54)" gradientUnits="userSpaceOnUse"><stop offset="0%" stop-opacity="1" style="stop-color:rgb(55,55,23)"/><stop offset="10%" stop-opacity="1" style="stop-color:rgb(62,60,25)"/><stop offset="20%" stop-opacity="1" style="stop-color:rgb(131,116,39)"/><stop offset="30.000000000000004%" stop-opacity="1" style="stop-color:rgb(135,112,38)"/><stop offset="40%" stop-opacity="1" style="stop-color:rgb(139,109,37)"/><stop offset="50%" stop-opacity="1" style="stop-color:rgb(143,105,36)"/><stop offset="60%" stop-opacity="1" style="stop-color:rgb(147,102,35)"/><stop offset="70%" stop-opacity="1" style="stop-color:rgb(151,98,34)"/><stop offset="80%" stop-opacity="1" style="stop-color:rgb(155,94,33)"/><stop offset="89.99999999999999%" stop-opacity="1" style="stop-color:rgb(159,90,32)"/><stop offset="99.99999999999999%" stop-opacity="1" style="stop-color:rgb(163,85,31)"/></linearGradient><path d=" M -518.817 3893.887 C -524.585 3896.321 -524.301 3894.267 -527.492 3896.59 C -530.227 3893.808 -530.652 3892.639 -536.691 3891.849 C -540.609 3891.471 -542.963 3889.101 -544.608 3886.302 C -561.913 3883.884 -576.863 3879.111 -583.295 3865.82 L -583.295 3863.546 L -582.537 3863.546 C -582.537 3858.788 -580.639 3857.367 -577.227 3856.719 C -565.562 3854.489 -551.183 3873.961 -537.023 3866.581 C -536.944 3866.405 -535.521 3863.134 -532.677 3864.684 C -528.345 3867.055 -519.859 3868.351 -516.541 3869.615 C -513.286 3870.846 -512.478 3873.708 -510.473 3874.166 C -492.109 3878.463 -473.777 3861.411 -459.649 3858.993 C -454.971 3860.528 -457.515 3865.836 -456.614 3870.372 C -455.682 3875.097 -452.093 3879.569 -452.82 3883.267 C -454.892 3893.793 -474.994 3894.442 -487.716 3895.405 C -499.899 3896.339 -512.78 3891.345 -518.817 3893.887 Z " fill="url(#_lgradient_34)"/></g></g></g><path d=" M 724.185 4167.414 L 724.185 4167.414 L 724.185 4167.414 Q 672.98 4167.414 644.89 4205.891 L 644.89 4205.891 L 644.89 4205.891 Q 616.801 4244.368 616.801 4313.129 L 616.801 4313.129 L 616.801 4313.129 Q 616.801 4456.21 724.185 4456.21 L 724.185 4456.21 L 724.185 4456.21 Q 769.245 4456.21 833.325 4433.68 L 833.325 4433.68 L 833.325 4509.756 L 833.325 4509.756 Q 780.657 4531.701 715.7 4531.701 L 715.7 4531.701 L 715.7 4531.701 Q 622.36 4531.701 572.911 4475.083 L 572.911 4475.083 L 572.911 4475.083 Q 523.462 4418.465 523.462 4312.543 L 523.462 4312.543 L 523.462 4312.543 Q 523.462 4245.831 547.747 4195.65 L 547.747 4195.65 L 547.747 4195.65 Q 572.033 4145.469 617.532 4118.696 L 617.532 4118.696 L 617.532 4118.696 Q 663.032 4091.923 724.185 4091.923 L 724.185 4091.923 L 724.185 4091.923 Q 786.509 4091.923 849.418 4122.061 L 849.418 4122.061 L 820.158 4195.796 L 820.158 4195.796 Q 796.165 4184.385 771.879 4175.899 L 771.879 4175.899 L 771.879 4175.899 Q 747.593 4167.414 724.185 4167.414 Z  M 1332.578 4311.373 L 1332.578 4311.373 L 1332.578 4311.373 Q 1332.578 4417.587 1279.91 4474.644 L 1279.91 4474.644 L 1279.91 4474.644 Q 1227.242 4531.701 1128.928 4531.701 L 1128.928 4531.701 L 1128.928 4531.701 Q 1030.615 4531.701 977.947 4474.644 L 977.947 4474.644 L 977.947 4474.644 Q 925.279 4417.587 925.279 4310.788 L 925.279 4310.788 L 925.279 4310.788 Q 925.279 4203.989 978.093 4147.663 L 978.093 4147.663 L 978.093 4147.663 Q 1030.908 4091.338 1129.514 4091.338 L 1129.514 4091.338 L 1129.514 4091.338 Q 1228.12 4091.338 1280.349 4148.102 L 1280.349 4148.102 L 1280.349 4148.102 Q 1332.578 4204.867 1332.578 4311.373 Z  M 1020.374 4311.373 L 1020.374 4311.373 L 1020.374 4311.373 Q 1020.374 4383.06 1047.586 4419.342 L 1047.586 4419.342 L 1047.586 4419.342 Q 1074.797 4455.625 1128.928 4455.625 L 1128.928 4455.625 L 1128.928 4455.625 Q 1237.483 4455.625 1237.483 4311.373 L 1237.483 4311.373 L 1237.483 4311.373 Q 1237.483 4166.829 1129.514 4166.829 L 1129.514 4166.829 L 1129.514 4166.829 Q 1075.383 4166.829 1047.878 4203.257 L 1047.878 4203.257 L 1047.878 4203.257 Q 1020.374 4239.686 1020.374 4311.373 Z  M 1820.712 4098.068 L 1820.712 4525.849 L 1705.428 4525.849 L 1519.334 4202.233 L 1516.701 4202.233 L 1516.701 4202.233 Q 1522.26 4287.965 1522.26 4324.54 L 1522.26 4324.54 L 1522.26 4525.849 L 1441.21 4525.849 L 1441.21 4098.068 L 1555.617 4098.068 L 1741.418 4418.465 L 1743.466 4418.465 L 1743.466 4418.465 Q 1739.077 4335.074 1739.077 4300.547 L 1739.077 4300.547 L 1739.077 4098.068 L 1820.712 4098.068 L 1820.712 4098.068 Z  M 2037.607 4356.726 L 2037.607 4525.849 L 1948.364 4525.849 L 1948.364 4098.068 L 2193.562 4098.068 L 2193.562 4172.388 L 2037.607 4172.388 L 2037.607 4282.698 L 2182.736 4282.698 L 2182.736 4356.726 L 2037.607 4356.726 L 2037.607 4356.726 Z  M 2543.59 4450.943 L 2543.59 4525.849 L 2297.221 4525.849 L 2297.221 4098.068 L 2543.59 4098.068 L 2543.59 4172.388 L 2387.927 4172.388 L 2387.927 4266.313 L 2532.763 4266.313 L 2532.763 4340.633 L 2387.927 4340.633 L 2387.927 4450.943 L 2543.59 4450.943 L 2543.59 4450.943 Z  M 2743.513 4172.388 L 2743.513 4287.965 L 2772.773 4287.965 L 2772.773 4287.965 Q 2815.785 4287.965 2836.267 4273.628 L 2836.267 4273.628 L 2836.267 4273.628 Q 2856.749 4259.29 2856.749 4228.567 L 2856.749 4228.567 L 2856.749 4228.567 Q 2856.749 4198.137 2835.828 4185.263 L 2835.828 4185.263 L 2835.828 4185.263 Q 2814.908 4172.388 2771.018 4172.388 L 2771.018 4172.388 L 2743.513 4172.388 L 2743.513 4172.388 Z  M 2791.792 4361.7 L 2743.513 4361.7 L 2743.513 4525.849 L 2652.807 4525.849 L 2652.807 4098.068 L 2777.455 4098.068 L 2777.455 4098.068 Q 2864.649 4098.068 2906.491 4129.815 L 2906.491 4129.815 L 2906.491 4129.815 Q 2948.333 4161.562 2948.333 4226.226 L 2948.333 4226.226 L 2948.333 4226.226 Q 2948.333 4263.972 2927.558 4293.378 L 2927.558 4293.378 L 2927.558 4293.378 Q 2906.784 4322.784 2868.746 4339.463 L 2868.746 4339.463 L 2868.746 4339.463 Q 2965.304 4483.714 2994.564 4525.849 L 2994.564 4525.849 L 2893.909 4525.849 L 2791.792 4361.7 L 2791.792 4361.7 Z  M 3314.746 4450.943 L 3314.746 4525.849 L 3068.377 4525.849 L 3068.377 4098.068 L 3314.746 4098.068 L 3314.746 4172.388 L 3159.083 4172.388 L 3159.083 4266.313 L 3303.92 4266.313 L 3303.92 4340.633 L 3159.083 4340.633 L 3159.083 4450.943 L 3314.746 4450.943 L 3314.746 4450.943 Z  M 3803.465 4098.068 L 3803.465 4525.849 L 3688.181 4525.849 L 3502.088 4202.233 L 3499.454 4202.233 L 3499.454 4202.233 Q 3505.014 4287.965 3505.014 4324.54 L 3505.014 4324.54 L 3505.014 4525.849 L 3423.964 4525.849 L 3423.964 4098.068 L 3538.37 4098.068 L 3724.171 4418.465 L 3726.219 4418.465 L 3726.219 4418.465 Q 3721.83 4335.074 3721.83 4300.547 L 3721.83 4300.547 L 3721.83 4098.068 L 3803.465 4098.068 L 3803.465 4098.068 Z  M 4112.821 4167.414 L 4112.821 4167.414 L 4112.821 4167.414 Q 4061.616 4167.414 4033.527 4205.891 L 4033.527 4205.891 L 4033.527 4205.891 Q 4005.437 4244.368 4005.437 4313.129 L 4005.437 4313.129 L 4005.437 4313.129 Q 4005.437 4456.21 4112.821 4456.21 L 4112.821 4456.21 L 4112.821 4456.21 Q 4157.882 4456.21 4221.961 4433.68 L 4221.961 4433.68 L 4221.961 4509.756 L 4221.961 4509.756 Q 4169.293 4531.701 4104.336 4531.701 L 4104.336 4531.701 L 4104.336 4531.701 Q 4010.997 4531.701 3961.547 4475.083 L 3961.547 4475.083 L 3961.547 4475.083 Q 3912.098 4418.465 3912.098 4312.543 L 3912.098 4312.543 L 3912.098 4312.543 Q 3912.098 4245.831 3936.384 4195.65 L 3936.384 4195.65 L 3936.384 4195.65 Q 3960.669 4145.469 4006.169 4118.696 L 4006.169 4118.696 L 4006.169 4118.696 Q 4051.668 4091.923 4112.821 4091.923 L 4112.821 4091.923 L 4112.821 4091.923 Q 4175.145 4091.923 4238.054 4122.061 L 4238.054 4122.061 L 4208.794 4195.796 L 4208.794 4195.796 Q 4184.801 4184.385 4160.515 4175.899 L 4160.515 4175.899 L 4160.515 4175.899 Q 4136.229 4167.414 4112.821 4167.414 Z  M 4579.303 4450.943 L 4579.303 4525.849 L 4332.934 4525.849 L 4332.934 4098.068 L 4579.303 4098.068 L 4579.303 4172.388 L 4423.64 4172.388 L 4423.64 4266.313 L 4568.477 4266.313 L 4568.477 4340.633 L 4423.64 4340.633 L 4423.64 4450.943 L 4579.303 4450.943 L 4579.303 4450.943 Z  M 2585.786 3838.012 L 2585.786 3838.012 L 2585.786 3838.012 Q 2585.786 3893.372 2545.943 3925.246 L 2545.943 3925.246 L 2545.943 3925.246 Q 2506.101 3957.12 2435.084 3957.12 L 2435.084 3957.12 L 2435.084 3957.12 Q 2369.659 3957.12 2319.331 3932.516 L 2319.331 3932.516 L 2319.331 3851.992 L 2319.331 3851.992 Q 2360.711 3870.445 2389.37 3877.994 L 2389.37 3877.994 L 2389.37 3877.994 Q 2418.029 3885.544 2441.794 3885.544 L 2441.794 3885.544 L 2441.794 3885.544 Q 2470.313 3885.544 2485.551 3874.639 L 2485.551 3874.639 L 2485.551 3874.639 Q 2500.789 3863.735 2500.789 3842.206 L 2500.789 3842.206 L 2500.789 3842.206 Q 2500.789 3830.184 2494.078 3820.817 L 2494.078 3820.817 L 2494.078 3820.817 Q 2487.368 3811.451 2474.367 3802.783 L 2474.367 3802.783 L 2474.367 3802.783 Q 2461.366 3794.116 2421.384 3775.103 L 2421.384 3775.103 L 2421.384 3775.103 Q 2383.918 3757.489 2365.185 3741.272 L 2365.185 3741.272 L 2365.185 3741.272 Q 2346.452 3725.056 2335.268 3703.527 L 2335.268 3703.527 L 2335.268 3703.527 Q 2324.085 3681.998 2324.085 3653.2 L 2324.085 3653.2 L 2324.085 3653.2 Q 2324.085 3598.958 2360.851 3567.923 L 2360.851 3567.923 L 2360.851 3567.923 Q 2397.618 3536.888 2462.484 3536.888 L 2462.484 3536.888 L 2462.484 3536.888 Q 2494.358 3536.888 2523.296 3544.437 L 2523.296 3544.437 L 2523.296 3544.437 Q 2552.234 3551.986 2583.829 3565.687 L 2583.829 3565.687 L 2555.869 3633.069 L 2555.869 3633.069 Q 2523.156 3619.648 2501.767 3614.336 L 2501.767 3614.336 L 2501.767 3614.336 Q 2480.378 3609.024 2459.688 3609.024 L 2459.688 3609.024 L 2459.688 3609.024 Q 2435.084 3609.024 2421.943 3620.487 L 2421.943 3620.487 L 2421.943 3620.487 Q 2408.802 3631.951 2408.802 3650.404 L 2408.802 3650.404 L 2408.802 3650.404 Q 2408.802 3661.867 2414.114 3670.395 L 2414.114 3670.395 L 2414.114 3670.395 Q 2419.426 3678.923 2431.03 3686.891 L 2431.03 3686.891 L 2431.03 3686.891 Q 2442.633 3694.86 2485.97 3715.55 L 2485.97 3715.55 L 2485.97 3715.55 Q 2543.287 3742.95 2564.536 3770.49 L 2564.536 3770.49 L 2564.536 3770.49 Q 2585.786 3798.03 2585.786 3838.012 Z  M 3037.56 3746.585 L 3037.56 3746.585 L 3037.56 3746.585 Q 3037.56 3848.078 2987.233 3902.599 L 2987.233 3902.599 L 2987.233 3902.599 Q 2936.905 3957.12 2842.961 3957.12 L 2842.961 3957.12 L 2842.961 3957.12 Q 2749.017 3957.12 2698.69 3902.599 L 2698.69 3902.599 L 2698.69 3902.599 Q 2648.363 3848.078 2648.363 3746.025 L 2648.363 3746.025 L 2648.363 3746.025 Q 2648.363 3643.973 2698.83 3590.151 L 2698.83 3590.151 L 2698.83 3590.151 Q 2749.297 3536.329 2843.521 3536.329 L 2843.521 3536.329 L 2843.521 3536.329 Q 2937.744 3536.329 2987.652 3590.571 L 2987.652 3590.571 L 2987.652 3590.571 Q 3037.56 3644.812 3037.56 3746.585 Z  M 2739.231 3746.585 L 2739.231 3746.585 L 2739.231 3746.585 Q 2739.231 3815.086 2765.234 3849.755 L 2765.234 3849.755 L 2765.234 3849.755 Q 2791.236 3884.425 2842.961 3884.425 L 2842.961 3884.425 L 2842.961 3884.425 Q 2946.691 3884.425 2946.691 3746.585 L 2946.691 3746.585 L 2946.691 3746.585 Q 2946.691 3608.465 2843.521 3608.465 L 2843.521 3608.465 L 2843.521 3608.465 Q 2791.795 3608.465 2765.513 3643.274 L 2765.513 3643.274 L 2765.513 3643.274 Q 2739.231 3678.084 2739.231 3746.585 Z  M 3375.259 3542.76 L 3461.654 3542.76 L 3461.654 3807.257 L 3461.654 3807.257 Q 3461.654 3852.551 3441.383 3886.662 L 3441.383 3886.662 L 3441.383 3886.662 Q 3421.112 3920.773 3382.808 3938.946 L 3382.808 3938.946 L 3382.808 3938.946 Q 3344.503 3957.12 3292.219 3957.12 L 3292.219 3957.12 L 3292.219 3957.12 Q 3213.373 3957.12 3169.756 3916.718 L 3169.756 3916.718 L 3169.756 3916.718 Q 3126.139 3876.317 3126.139 3806.138 L 3126.139 3806.138 L 3126.139 3542.76 L 3212.534 3542.76 L 3212.534 3792.997 L 3212.534 3792.997 Q 3212.534 3840.249 3231.547 3862.337 L 3231.547 3862.337 L 3231.547 3862.337 Q 3250.559 3884.425 3294.456 3884.425 L 3294.456 3884.425 L 3294.456 3884.425 Q 3336.954 3884.425 3356.106 3862.197 L 3356.106 3862.197 L 3356.106 3862.197 Q 3375.259 3839.97 3375.259 3792.438 L 3375.259 3792.438 L 3375.259 3542.76 L 3375.259 3542.76 Z  M 3655.082 3613.777 L 3655.082 3724.217 L 3683.041 3724.217 L 3683.041 3724.217 Q 3724.142 3724.217 3743.713 3710.517 L 3743.713 3710.517 L 3743.713 3710.517 Q 3763.285 3696.817 3763.285 3667.459 L 3763.285 3667.459 L 3763.285 3667.459 Q 3763.285 3638.381 3743.294 3626.079 L 3743.294 3626.079 L 3743.294 3626.079 Q 3723.303 3613.777 3681.364 3613.777 L 3681.364 3613.777 L 3655.082 3613.777 L 3655.082 3613.777 Z  M 3701.215 3794.675 L 3655.082 3794.675 L 3655.082 3951.528 L 3568.407 3951.528 L 3568.407 3542.76 L 3687.515 3542.76 L 3687.515 3542.76 Q 3770.834 3542.76 3810.816 3573.096 L 3810.816 3573.096 L 3810.816 3573.096 Q 3850.798 3603.432 3850.798 3665.222 L 3850.798 3665.222 L 3850.798 3665.222 Q 3850.798 3701.29 3830.947 3729.39 L 3830.947 3729.39 L 3830.947 3729.39 Q 3811.096 3757.489 3774.748 3773.426 L 3774.748 3773.426 L 3774.748 3773.426 Q 3867.015 3911.266 3894.974 3951.528 L 3894.974 3951.528 L 3798.794 3951.528 L 3701.215 3794.675 L 3701.215 3794.675 Z  M 4126.707 3609.024 L 4126.707 3609.024 L 4126.707 3609.024 Q 4077.778 3609.024 4050.937 3645.791 L 4050.937 3645.791 L 4050.937 3645.791 Q 4024.095 3682.557 4024.095 3748.262 L 4024.095 3748.262 L 4024.095 3748.262 Q 4024.095 3884.984 4126.707 3884.984 L 4126.707 3884.984 L 4126.707 3884.984 Q 4169.765 3884.984 4230.996 3863.456 L 4230.996 3863.456 L 4230.996 3936.15 L 4230.996 3936.15 Q 4180.669 3957.12 4118.599 3957.12 L 4118.599 3957.12 L 4118.599 3957.12 Q 4029.408 3957.12 3982.156 3903.018 L 3982.156 3903.018 L 3982.156 3903.018 Q 3934.904 3848.917 3934.904 3747.703 L 3934.904 3747.703 L 3934.904 3747.703 Q 3934.904 3683.955 3958.111 3636.005 L 3958.111 3636.005 L 3958.111 3636.005 Q 3981.317 3588.054 4024.794 3562.471 L 4024.794 3562.471 L 4024.794 3562.471 Q 4068.271 3536.888 4126.707 3536.888 L 4126.707 3536.888 L 4126.707 3536.888 Q 4186.261 3536.888 4246.374 3565.687 L 4246.374 3565.687 L 4218.414 3636.145 L 4218.414 3636.145 Q 4195.487 3625.24 4172.281 3617.132 L 4172.281 3617.132 L 4172.281 3617.132 Q 4149.074 3609.024 4126.707 3609.024 Z  M 4560.028 3879.952 L 4560.028 3951.528 L 4324.608 3951.528 L 4324.608 3542.76 L 4560.028 3542.76 L 4560.028 3613.777 L 4411.283 3613.777 L 4411.283 3703.527 L 4549.682 3703.527 L 4549.682 3774.544 L 4411.283 3774.544 L 4411.283 3879.952 L 4560.028 3879.952 L 4560.028 3879.952 Z  M 931.96 3746.585 L 931.96 3746.585 L 931.96 3746.585 Q 931.96 3848.078 881.633 3902.599 L 881.633 3902.599 L 881.633 3902.599 Q 831.306 3957.12 737.362 3957.12 L 737.362 3957.12 L 737.362 3957.12 Q 643.418 3957.12 593.091 3902.599 L 593.091 3902.599 L 593.091 3902.599 Q 542.763 3848.078 542.763 3746.025 L 542.763 3746.025 L 542.763 3746.025 Q 542.763 3643.973 593.23 3590.151 L 593.23 3590.151 L 593.23 3590.151 Q 643.697 3536.329 737.921 3536.329 L 737.921 3536.329 L 737.921 3536.329 Q 832.145 3536.329 882.052 3590.571 L 882.052 3590.571 L 882.052 3590.571 Q 931.96 3644.812 931.96 3746.585 Z  M 633.632 3746.585 L 633.632 3746.585 L 633.632 3746.585 Q 633.632 3815.086 659.634 3849.755 L 659.634 3849.755 L 659.634 3849.755 Q 685.637 3884.425 737.362 3884.425 L 737.362 3884.425 L 737.362 3884.425 Q 841.092 3884.425 841.092 3746.585 L 841.092 3746.585 L 841.092 3746.585 Q 841.092 3608.465 737.921 3608.465 L 737.921 3608.465 L 737.921 3608.465 Q 686.196 3608.465 659.914 3643.274 L 659.914 3643.274 L 659.914 3643.274 Q 633.632 3678.084 633.632 3746.585 Z  M 1110.01 3613.777 L 1110.01 3735.121 L 1138.529 3735.121 L 1138.529 3735.121 Q 1178.511 3735.121 1198.362 3719.324 L 1198.362 3719.324 L 1198.362 3719.324 Q 1218.214 3703.527 1218.214 3673.331 L 1218.214 3673.331 L 1218.214 3673.331 Q 1218.214 3642.855 1201.578 3628.316 L 1201.578 3628.316 L 1201.578 3628.316 Q 1184.942 3613.777 1149.433 3613.777 L 1149.433 3613.777 L 1110.01 3613.777 L 1110.01 3613.777 Z  M 1305.727 3670.255 L 1305.727 3670.255 L 1305.727 3670.255 Q 1305.727 3736.24 1264.487 3771.189 L 1264.487 3771.189 L 1264.487 3771.189 Q 1223.246 3806.138 1147.196 3806.138 L 1147.196 3806.138 L 1110.01 3806.138 L 1110.01 3951.528 L 1023.336 3951.528 L 1023.336 3542.76 L 1153.907 3542.76 L 1153.907 3542.76 Q 1228.279 3542.76 1267.003 3574.773 L 1267.003 3574.773 L 1267.003 3574.773 Q 1305.727 3606.787 1305.727 3670.255 Z  M 1624.973 3879.952 L 1624.973 3951.528 L 1389.554 3951.528 L 1389.554 3542.76 L 1624.973 3542.76 L 1624.973 3613.777 L 1476.228 3613.777 L 1476.228 3703.527 L 1614.628 3703.527 L 1614.628 3774.544 L 1476.228 3774.544 L 1476.228 3879.952 L 1624.973 3879.952 L 1624.973 3879.952 Z  M 2079.543 3542.76 L 2079.543 3951.528 L 1969.382 3951.528 L 1791.56 3642.296 L 1789.043 3642.296 L 1789.043 3642.296 Q 1794.355 3724.217 1794.355 3759.166 L 1794.355 3759.166 L 1794.355 3951.528 L 1716.908 3951.528 L 1716.908 3542.76 L 1826.229 3542.76 L 2003.772 3848.917 L 2005.73 3848.917 L 2005.73 3848.917 Q 2001.536 3769.232 2001.536 3736.24 L 2001.536 3736.24 L 2001.536 3542.76 L 2079.543 3542.76 L 2079.543 3542.76 Z  M 549.428 3394.901 L 549.428 3062.182 L 652.976 3062.182 L 652.976 3062.182 Q 723.753 3062.182 755.727 3082.323 L 755.727 3082.323 L 755.727 3082.323 Q 787.702 3102.463 787.702 3146.386 L 787.702 3146.386 L 787.702 3146.386 Q 787.702 3176.199 773.706 3195.315 L 773.706 3195.315 L 773.706 3195.315 Q 759.71 3214.432 736.497 3218.3 L 736.497 3218.3 L 736.497 3220.576 L 736.497 3220.576 Q 768.13 3227.631 782.126 3246.975 L 782.126 3246.975 L 782.126 3246.975 Q 796.122 3266.319 796.122 3298.408 L 796.122 3298.408 L 796.122 3298.408 Q 796.122 3343.923 763.237 3369.412 L 763.237 3369.412 L 763.237 3369.412 Q 730.352 3394.901 673.913 3394.901 L 673.913 3394.901 L 549.428 3394.901 L 549.428 3394.901 Z  M 619.977 3119.987 L 619.977 3193.95 L 660.941 3193.95 L 660.941 3193.95 Q 689.616 3193.95 702.474 3185.074 L 702.474 3185.074 L 702.474 3185.074 Q 715.332 3176.199 715.332 3155.717 L 715.332 3155.717 L 715.332 3155.717 Q 715.332 3136.6 701.336 3128.294 L 701.336 3128.294 L 701.336 3128.294 Q 687.34 3119.987 657.072 3119.987 L 657.072 3119.987 L 619.977 3119.987 L 619.977 3119.987 Z  M 663.672 3249.934 L 619.977 3249.934 L 619.977 3336.641 L 665.948 3336.641 L 665.948 3336.641 Q 695.078 3336.641 708.96 3325.489 L 708.96 3325.489 L 708.96 3325.489 Q 722.842 3314.338 722.842 3291.353 L 722.842 3291.353 L 722.842 3291.353 Q 722.842 3249.934 663.672 3249.934 L 663.672 3249.934 L 663.672 3249.934 Z  M 936.453 3394.901 L 865.904 3394.901 L 865.904 3062.182 L 936.453 3062.182 L 936.453 3394.901 L 936.453 3394.901 Z  M 1325.526 3228.086 L 1325.526 3228.086 L 1325.526 3228.086 Q 1325.526 3310.697 1284.562 3355.075 L 1284.562 3355.075 L 1284.562 3355.075 Q 1243.598 3399.452 1167.132 3399.452 L 1167.132 3399.452 L 1167.132 3399.452 Q 1090.666 3399.452 1049.702 3355.075 L 1049.702 3355.075 L 1049.702 3355.075 Q 1008.738 3310.697 1008.738 3227.631 L 1008.738 3227.631 L 1008.738 3227.631 Q 1008.738 3144.565 1049.816 3100.757 L 1049.816 3100.757 L 1049.816 3100.757 Q 1090.894 3056.948 1167.587 3056.948 L 1167.587 3056.948 L 1167.587 3056.948 Q 1244.281 3056.948 1284.904 3101.098 L 1284.904 3101.098 L 1284.904 3101.098 Q 1325.526 3145.248 1325.526 3228.086 Z  M 1082.701 3228.086 L 1082.701 3228.086 L 1082.701 3228.086 Q 1082.701 3283.843 1103.866 3312.062 L 1103.866 3312.062 L 1103.866 3312.062 Q 1125.03 3340.282 1167.132 3340.282 L 1167.132 3340.282 L 1167.132 3340.282 Q 1251.563 3340.282 1251.563 3228.086 L 1251.563 3228.086 L 1251.563 3228.086 Q 1251.563 3115.663 1167.587 3115.663 L 1167.587 3115.663 L 1167.587 3115.663 Q 1125.486 3115.663 1104.093 3143.996 L 1104.093 3143.996 L 1104.093 3143.996 Q 1082.701 3172.33 1082.701 3228.086 Z  M 1468.36 3394.901 L 1397.811 3394.901 L 1397.811 3062.182 L 1468.36 3062.182 L 1468.36 3394.901 L 1468.36 3394.901 Z  M 1850.606 3062.182 L 1850.606 3394.901 L 1760.941 3394.901 L 1616.201 3143.2 L 1614.153 3143.2 L 1614.153 3143.2 Q 1618.477 3209.88 1618.477 3238.327 L 1618.477 3238.327 L 1618.477 3394.901 L 1555.438 3394.901 L 1555.438 3062.182 L 1644.421 3062.182 L 1788.933 3311.38 L 1790.526 3311.38 L 1790.526 3311.38 Q 1787.112 3246.52 1787.112 3219.666 L 1787.112 3219.666 L 1787.112 3062.182 L 1850.606 3062.182 L 1850.606 3062.182 Z  M 2007.095 3263.361 L 2007.095 3394.901 L 1937.684 3394.901 L 1937.684 3062.182 L 2128.394 3062.182 L 2128.394 3119.987 L 2007.095 3119.987 L 2007.095 3205.784 L 2119.973 3205.784 L 2119.973 3263.361 L 2007.095 3263.361 L 2007.095 3263.361 Z  M 2498.806 3228.086 L 2498.806 3228.086 L 2498.806 3228.086 Q 2498.806 3310.697 2457.842 3355.075 L 2457.842 3355.075 L 2457.842 3355.075 Q 2416.878 3399.452 2340.412 3399.452 L 2340.412 3399.452 L 2340.412 3399.452 Q 2263.946 3399.452 2222.982 3355.075 L 2222.982 3355.075 L 2222.982 3355.075 Q 2182.018 3310.697 2182.018 3227.631 L 2182.018 3227.631 L 2182.018 3227.631 Q 2182.018 3144.565 2223.095 3100.757 L 2223.095 3100.757 L 2223.095 3100.757 Q 2264.173 3056.948 2340.867 3056.948 L 2340.867 3056.948 L 2340.867 3056.948 Q 2417.56 3056.948 2458.183 3101.098 L 2458.183 3101.098 L 2458.183 3101.098 Q 2498.806 3145.248 2498.806 3228.086 Z  M 2255.98 3228.086 L 2255.98 3228.086 L 2255.98 3228.086 Q 2255.98 3283.843 2277.145 3312.062 L 2277.145 3312.062 L 2277.145 3312.062 Q 2298.31 3340.282 2340.412 3340.282 L 2340.412 3340.282 L 2340.412 3340.282 Q 2424.843 3340.282 2424.843 3228.086 L 2424.843 3228.086 L 2424.843 3228.086 Q 2424.843 3115.663 2340.867 3115.663 L 2340.867 3115.663 L 2340.867 3115.663 Q 2298.765 3115.663 2277.373 3143.996 L 2277.373 3143.996 L 2277.373 3143.996 Q 2255.98 3172.33 2255.98 3228.086 Z  M 2641.64 3119.987 L 2641.64 3209.88 L 2664.397 3209.88 L 2664.397 3209.88 Q 2697.851 3209.88 2713.782 3198.729 L 2713.782 3198.729 L 2713.782 3198.729 Q 2729.712 3187.577 2729.712 3163.682 L 2729.712 3163.682 L 2729.712 3163.682 Q 2729.712 3140.014 2713.44 3130 L 2713.44 3130 L 2713.44 3130 Q 2697.169 3119.987 2663.032 3119.987 L 2663.032 3119.987 L 2641.64 3119.987 L 2641.64 3119.987 Z  M 2679.19 3267.23 L 2641.64 3267.23 L 2641.64 3394.901 L 2571.091 3394.901 L 2571.091 3062.182 L 2668.039 3062.182 L 2668.039 3062.182 Q 2735.857 3062.182 2768.4 3086.874 L 2768.4 3086.874 L 2768.4 3086.874 Q 2800.944 3111.567 2800.944 3161.861 L 2800.944 3161.861 L 2800.944 3161.861 Q 2800.944 3191.219 2784.786 3214.09 L 2784.786 3214.09 L 2784.786 3214.09 Q 2768.628 3236.962 2739.043 3249.934 L 2739.043 3249.934 L 2739.043 3249.934 Q 2814.144 3362.129 2836.901 3394.901 L 2836.901 3394.901 L 2758.615 3394.901 L 2679.19 3267.23 L 2679.19 3267.23 Z  M 3087.607 3394.901 L 3022.975 3394.901 L 2942.868 3133.869 L 2940.82 3133.869 L 2940.82 3133.869 Q 2945.144 3213.521 2945.144 3240.148 L 2945.144 3240.148 L 2945.144 3394.901 L 2882.105 3394.901 L 2882.105 3062.182 L 2978.142 3062.182 L 3056.884 3316.614 L 3058.25 3316.614 L 3141.771 3062.182 L 3237.808 3062.182 L 3237.808 3394.901 L 3172.038 3394.901 L 3172.038 3237.417 L 3172.038 3237.417 Q 3172.038 3226.266 3172.38 3211.701 L 3172.38 3211.701 L 3172.38 3211.701 Q 3172.721 3197.136 3175.452 3134.324 L 3175.452 3134.324 L 3173.404 3134.324 L 3087.607 3394.901 L 3087.607 3394.901 Z  M 3604.579 3394.901 L 3528.568 3394.901 L 3504.445 3315.704 L 3383.146 3315.704 L 3359.023 3394.901 L 3283.012 3394.901 L 3400.442 3060.817 L 3486.694 3060.817 L 3604.579 3394.901 L 3604.579 3394.901 Z  M 3400.897 3256.533 L 3487.604 3256.533 L 3487.604 3256.533 Q 3454.15 3148.889 3449.94 3134.779 L 3449.94 3134.779 L 3449.94 3134.779 Q 3445.73 3120.67 3443.909 3112.477 L 3443.909 3112.477 L 3443.909 3112.477 Q 3436.399 3141.607 3400.897 3256.533 L 3400.897 3256.533 L 3400.897 3256.533 Z  M 3778.136 3120.897 L 3778.136 3394.901 L 3707.587 3394.901 L 3707.587 3120.897 L 3617.239 3120.897 L 3617.239 3062.182 L 3868.484 3062.182 L 3868.484 3120.897 L 3778.136 3120.897 L 3778.136 3120.897 Z  M 3993.567 3394.901 L 3923.018 3394.901 L 3923.018 3062.182 L 3993.567 3062.182 L 3993.567 3394.901 L 3993.567 3394.901 Z  M 4221.971 3116.118 L 4221.971 3116.118 L 4221.971 3116.118 Q 4182.145 3116.118 4160.297 3146.045 L 4160.297 3146.045 L 4160.297 3146.045 Q 4138.45 3175.971 4138.45 3229.452 L 4138.45 3229.452 L 4138.45 3229.452 Q 4138.45 3340.737 4221.971 3340.737 L 4221.971 3340.737 L 4221.971 3340.737 Q 4257.018 3340.737 4306.857 3323.214 L 4306.857 3323.214 L 4306.857 3382.384 L 4306.857 3382.384 Q 4265.893 3399.452 4215.371 3399.452 L 4215.371 3399.452 L 4215.371 3399.452 Q 4142.774 3399.452 4104.313 3355.416 L 4104.313 3355.416 L 4104.313 3355.416 Q 4065.853 3311.38 4065.853 3228.997 L 4065.853 3228.997 L 4065.853 3228.997 Q 4065.853 3177.109 4084.742 3138.079 L 4084.742 3138.079 L 4084.742 3138.079 Q 4103.63 3099.05 4139.019 3078.226 L 4139.019 3078.226 L 4139.019 3078.226 Q 4174.407 3057.403 4221.971 3057.403 L 4221.971 3057.403 L 4221.971 3057.403 Q 4270.445 3057.403 4319.374 3080.844 L 4319.374 3080.844 L 4296.616 3138.193 L 4296.616 3138.193 Q 4277.955 3129.318 4259.066 3122.718 L 4259.066 3122.718 L 4259.066 3122.718 Q 4240.177 3116.118 4221.971 3116.118 Z  M 4577.362 3302.504 L 4577.362 3302.504 L 4577.362 3302.504 Q 4577.362 3347.564 4544.933 3373.508 L 4544.933 3373.508 L 4544.933 3373.508 Q 4512.503 3399.452 4454.698 3399.452 L 4454.698 3399.452 L 4454.698 3399.452 Q 4401.445 3399.452 4360.481 3379.425 L 4360.481 3379.425 L 4360.481 3313.883 L 4360.481 3313.883 Q 4394.162 3328.903 4417.489 3335.048 L 4417.489 3335.048 L 4417.489 3335.048 Q 4440.816 3341.192 4460.16 3341.192 L 4460.16 3341.192 L 4460.16 3341.192 Q 4483.373 3341.192 4495.776 3332.317 L 4495.776 3332.317 L 4495.776 3332.317 Q 4508.179 3323.441 4508.179 3305.918 L 4508.179 3305.918 L 4508.179 3305.918 Q 4508.179 3296.132 4502.717 3288.508 L 4502.717 3288.508 L 4502.717 3288.508 Q 4497.255 3280.884 4486.673 3273.829 L 4486.673 3273.829 L 4486.673 3273.829 Q 4476.09 3266.774 4443.547 3251.299 L 4443.547 3251.299 L 4443.547 3251.299 Q 4413.051 3236.962 4397.804 3223.762 L 4397.804 3223.762 L 4397.804 3223.762 Q 4382.556 3210.563 4373.453 3193.039 L 4373.453 3193.039 L 4373.453 3193.039 Q 4364.35 3175.516 4364.35 3152.075 L 4364.35 3152.075 L 4364.35 3152.075 Q 4364.35 3107.925 4394.276 3082.664 L 4394.276 3082.664 L 4394.276 3082.664 Q 4424.203 3057.403 4477.001 3057.403 L 4477.001 3057.403 L 4477.001 3057.403 Q 4502.945 3057.403 4526.499 3063.548 L 4526.499 3063.548 L 4526.499 3063.548 Q 4550.053 3069.692 4575.769 3080.844 L 4575.769 3080.844 L 4553.012 3135.69 L 4553.012 3135.69 Q 4526.385 3124.766 4508.975 3120.442 L 4508.975 3120.442 L 4508.975 3120.442 Q 4491.566 3116.118 4474.725 3116.118 L 4474.725 3116.118 L 4474.725 3116.118 Q 4454.698 3116.118 4444.002 3125.449 L 4444.002 3125.449 L 4444.002 3125.449 Q 4433.306 3134.779 4433.306 3149.8 L 4433.306 3149.8 L 4433.306 3149.8 Q 4433.306 3159.13 4437.63 3166.071 L 4437.63 3166.071 L 4437.63 3166.071 Q 4441.954 3173.013 4451.398 3179.498 L 4451.398 3179.498 L 4451.398 3179.498 Q 4460.843 3185.984 4496.117 3202.825 L 4496.117 3202.825 L 4496.117 3202.825 Q 4542.771 3225.128 4560.067 3247.544 L 4560.067 3247.544 L 4560.067 3247.544 Q 4577.362 3269.961 4577.362 3302.504 Z " fill="rgb(255,255,255)"/><path d=" M -2339.893 4031.96 L -2339.893 4031.96 L -2339.893 4031.96 Q -2206.65 4031.96 -2135.073 4098.031 L -2135.073 4098.031 L -2135.073 4098.031 Q -2063.497 4164.102 -2063.497 4287.434 L -2063.497 4287.434 L -2063.497 4287.434 Q -2063.497 4410.767 -2135.073 4476.838 L -2135.073 4476.838 L -2135.073 4476.838 Q -2206.65 4542.909 -2340.627 4542.909 L -2340.627 4542.909 L -2340.627 4542.909 Q -2474.604 4542.909 -2545.264 4476.654 L -2545.264 4476.654 L -2545.264 4476.654 Q -2615.923 4410.4 -2615.923 4286.7 L -2615.923 4286.7 L -2615.923 4286.7 Q -2615.923 4163.001 -2544.713 4097.481 L -2544.713 4097.481 L -2544.713 4097.481 Q -2473.503 4031.96 -2339.893 4031.96 Z  M -2339.893 4423.614 L -2339.893 4423.614 L -2339.893 4423.614 Q -2249.963 4423.614 -2204.448 4389.477 L -2204.448 4389.477 L -2204.448 4389.477 Q -2158.932 4355.341 -2158.932 4287.434 L -2158.932 4287.434 L -2158.932 4287.434 Q -2158.932 4151.255 -2339.893 4151.255 L -2339.893 4151.255 L -2339.893 4151.255 Q -2521.221 4151.255 -2521.221 4286.7 L -2521.221 4286.7 L -2521.221 4286.7 Q -2521.221 4354.607 -2475.522 4389.11 L -2475.522 4389.11 L -2475.522 4389.11 Q -2429.823 4423.614 -2339.893 4423.614 Z  M -2070.838 3915.371 L -2607.48 3915.371 L -2607.48 3748.359 L -2607.48 3748.359 Q -2607.48 3634.203 -2574.995 3582.631 L -2574.995 3582.631 L -2574.995 3582.631 Q -2542.511 3531.059 -2471.668 3531.059 L -2471.668 3531.059 L -2471.668 3531.059 Q -2423.583 3531.059 -2392.75 3553.633 L -2392.75 3553.633 L -2392.75 3553.633 Q -2361.917 3576.207 -2355.677 3613.648 L -2355.677 3613.648 L -2352.006 3613.648 L -2352.006 3613.648 Q -2340.627 3562.626 -2309.427 3540.052 L -2309.427 3540.052 L -2309.427 3540.052 Q -2278.227 3517.478 -2226.471 3517.478 L -2226.471 3517.478 L -2226.471 3517.478 Q -2153.059 3517.478 -2111.949 3570.518 L -2111.949 3570.518 L -2111.949 3570.518 Q -2070.838 3623.558 -2070.838 3714.589 L -2070.838 3714.589 L -2070.838 3915.371 L -2070.838 3915.371 Z  M -2514.247 3801.583 L -2394.952 3801.583 L -2394.952 3735.512 L -2394.952 3735.512 Q -2394.952 3689.262 -2409.268 3668.523 L -2409.268 3668.523 L -2409.268 3668.523 Q -2423.583 3647.784 -2456.618 3647.784 L -2456.618 3647.784 L -2456.618 3647.784 Q -2487.451 3647.784 -2500.849 3670.358 L -2500.849 3670.358 L -2500.849 3670.358 Q -2514.247 3692.933 -2514.247 3741.752 L -2514.247 3741.752 L -2514.247 3801.583 L -2514.247 3801.583 Z  M -2304.655 3731.107 L -2304.655 3801.583 L -2164.805 3801.583 L -2164.805 3727.436 L -2164.805 3727.436 Q -2164.805 3680.453 -2182.791 3658.062 L -2182.791 3658.062 L -2182.791 3658.062 Q -2200.777 3635.671 -2237.85 3635.671 L -2237.85 3635.671 L -2237.85 3635.671 Q -2304.655 3635.671 -2304.655 3731.107 L -2304.655 3731.107 L -2304.655 3731.107 Z  M -2282.999 3292.973 L -2070.838 3292.973 L -2070.838 3404.926 L -2607.48 3404.926 L -2607.48 3097.33 L -2514.247 3097.33 L -2514.247 3292.973 L -2375.865 3292.973 L -2375.865 3110.911 L -2282.999 3110.911 L -2282.999 3292.973 L -2282.999 3292.973 Z " fill="rgb(255,255,255)"/></g></svg>