<?xml version="1.0" standalone="no"?><!-- Generator: Gravit.io --><svg xmlns="http://www.w3.org/2000/svg" xmlns:xlink="http://www.w3.org/1999/xlink" style="isolation:isolate" viewBox="-1678.24 350.538 4688.69 1388.442" width="4688.69" height="1388.442"><defs><clipPath id="_clipPath_CBjNIRMWjedO2tO1LMERPzXAls3cvEd6"><rect x="-1678.24" y="350.538" width="4688.69" height="1388.442"/></clipPath></defs><g clip-path="url(#_clipPath_CBjNIRMWjedO2tO1LMERPzXAls3cvEd6)"><g opacity="0.85"><rect x="-1678.24" y="350.538" width="4688.69" height="1388.442" transform="matrix(1,0,0,1,0,0)" fill="rgb(102,189,126)"/></g><g><g><g><path d=" M -1358.597 942.167 C -1326.361 892.348 -1263.037 898.105 -1203.382 874.243 C -1143.726 850.38 -1091.916 798.57 -1068.472 739.959 C -1045.028 681.348 -1050.825 617.575 -1000.465 584.99 C -950.105 552.404 -845.749 552.404 -795.93 584.64 C -746.111 616.876 -751.972 681.348 -728.528 739.959 C -705.083 798.571 -653.084 850.57 -593.638 874.348 C -534.193 898.126 -470.639 892.349 -438.403 942.168 C -406.166 991.988 -406.166 1097.486 -438.403 1147.306 C -470.639 1197.126 -535.111 1191.265 -593.722 1214.709 C -652.332 1238.153 -705.083 1290.904 -728.527 1349.515 C -751.972 1408.126 -746.111 1472.597 -795.931 1504.834 C -845.751 1537.071 -951.249 1537.071 -1001.069 1504.834 C -1050.889 1472.598 -1045.028 1408.126 -1068.472 1349.515 C -1091.916 1290.904 -1144.667 1238.154 -1203.277 1214.709 C -1261.888 1191.265 -1326.36 1197.126 -1358.597 1147.306 C -1390.833 1097.487 -1390.833 991.986 -1358.597 942.167 Z " fill-rule="evenodd" fill="none" vector-effect="non-scaling-stroke" stroke-width="17.583" stroke="rgb(255,255,255)" stroke-linejoin="miter" stroke-linecap="butt" stroke-miterlimit="4"/><path d=" M -1151.294 646.878 C -1093.273 634.445 -1052.567 683.292 -993.511 708.602 C -934.455 733.911 -861.184 733.911 -803.162 709.045 C -745.14 684.178 -704.146 634.984 -645.494 647.553 C -586.842 660.121 -513.052 733.912 -500.619 791.933 C -488.185 849.955 -537.919 891.399 -562.785 949.422 C -587.652 1007.444 -587.652 1080.982 -562.432 1139.83 C -537.211 1198.678 -488.186 1239.532 -500.619 1297.554 C -513.053 1355.576 -587.651 1430.175 -645.674 1442.608 C -703.696 1455.042 -745.14 1405.309 -803.162 1380.443 C -861.184 1355.576 -935.784 1355.576 -993.806 1380.442 C -1051.828 1405.309 -1093.272 1455.041 -1151.295 1442.608 C -1209.318 1430.175 -1283.916 1355.577 -1296.349 1297.554 C -1308.783 1239.532 -1259.05 1198.087 -1234.183 1140.066 C -1209.317 1082.044 -1209.317 1007.443 -1234.183 949.422 C -1259.049 891.4 -1308.783 849.956 -1296.349 791.933 C -1283.916 733.911 -1209.316 659.311 -1151.294 646.878 L -1151.294 646.878 Z " fill-rule="evenodd" fill="none" vector-effect="non-scaling-stroke" stroke-width="52.75" stroke="rgb(255,255,255)" stroke-linejoin="miter" stroke-linecap="butt" stroke-miterlimit="4"/></g></g><g><linearGradient id="_lgradient_10" x1="0.3764485132505324" y1="1.0425847643096884" x2="0.638516668577901" y2="0.07551902024893475" gradientTransform="matrix(330.095,0,0,259.792,-1045.845,904.795)" gradientUnits="userSpaceOnUse"><stop offset="0%" stop-opacity="1" style="stop-color:rgb(243,219,81)"/><stop offset="10%" stop-opacity="1" style="stop-color:rgb(244,222,97)"/><stop offset="20%" stop-opacity="1" style="stop-color:rgb(245,224,113)"/><stop offset="30.000000000000004%" stop-opacity="1" style="stop-color:rgb(245,227,127)"/><stop offset="40%" stop-opacity="1" style="stop-color:rgb(246,229,141)"/><stop offset="50%" stop-opacity="1" style="stop-color:rgb(247,231,154)"/><stop offset="60%" stop-opacity="1" style="stop-color:rgb(248,233,165)"/><stop offset="70%" stop-opacity="1" style="stop-color:rgb(248,235,175)"/><stop offset="80%" stop-opacity="1" style="stop-color:rgb(249,236,184)"/><stop offset="89.99999999999999%" stop-opacity="1" style="stop-color:rgb(249,238,191)"/><stop offset="99.99999999999999%" stop-opacity="1" style="stop-color:rgb(250,238,195)"/></linearGradient><path d=" M -931.1 905.555 C -938.611 907.205 -947.301 905.324 -955.64 909.605 L -955.64 909.605 C -963.961 913.874 -971.361 918.034 -972.93 918.445 L -972.93 918.445 C -976.26 919.314 -989.861 924.805 -998.3 933.935 L -998.3 933.935 C -1003.291 939.325 -1010.161 947.075 -1014.97 952.604 L -1014.97 952.604 C -1022.87 961.674 -1021.99 969.764 -1024.25 971.924 L -1024.25 971.924 C -1028.851 976.334 -1040.231 999.255 -1044.321 1018.605 L -1044.321 1018.605 C -1047.75 1034.825 -1044.321 1047.675 -1044.321 1053.194 L -1044.321 1053.194 C -1044.321 1055.644 -1044.84 1070.704 -1040.97 1083.264 L -1040.97 1083.264 C -1036.181 1098.824 -1026.721 1112.395 -1025.641 1115.074 L -1025.641 1115.074 C -1023.491 1120.415 -1005.451 1138.475 -990.641 1148.604 L -990.641 1148.604 C -982.541 1154.135 -975.131 1153.944 -972.461 1155.784 L -972.461 1155.784 C -969.181 1158.025 -957.251 1166.314 -944.3 1164.264 L -944.3 1164.264 C -938.691 1163.385 -931.311 1163.155 -925.301 1160.604 L -925.301 1160.604 C -921.851 1159.134 -919.611 1154.984 -916.481 1154.385 L -916.481 1154.385 C -906.041 1152.394 -898.761 1146.424 -895.1 1146.424 L -895.1 1146.424 C -887.931 1146.424 -881.251 1147.795 -875.1 1145.264 L -875.1 1145.264 C -872.06 1144.014 -861.53 1147.644 -843.301 1152.265 L -843.301 1152.265 C -842.401 1152.494 -834.28 1156.005 -832.971 1156.604 L -832.971 1156.604 C -827.281 1159.195 -824.591 1158.074 -820.301 1158.935 L -820.301 1158.935 C -812.521 1160.494 -808.221 1156.784 -800.641 1155.605 L -800.641 1155.605 C -786.791 1153.445 -773.49 1145.135 -761.97 1142.934 L -761.97 1142.934 C -745.651 1139.814 -734.89 1112.594 -733.381 1110.104 L -733.381 1110.104 C -731.931 1107.715 -711.431 1102.264 -716.621 1087.604 L -716.621 1087.604 C -720.341 1077.095 -712.991 1052.844 -716.97 1042.265 L -716.97 1042.265 C -722.47 1027.625 -740.64 1009.174 -740.64 1006.265 L -740.64 1006.265 C -740.64 999.494 -822.911 977.285 -825.831 971.515 L -825.831 971.515 C -828.061 967.125 -827.52 951.864 -840.64 946.934 L -840.64 946.934 C -849.051 943.764 -847.221 935.044 -849.971 933.265 L -849.971 933.265 C -852.831 931.424 -855.361 926.024 -860.641 921.605 L -860.641 921.605 C -862.98 919.644 -867.881 917.785 -870.301 914.604 L -870.301 914.604 C -877.74 904.825 -909.821 905.555 -914.951 905.555 L -914.951 905.555 C -915.971 905.555 -919.342 904.795 -923.787 904.795 L -923.787 904.795 C -926.009 904.795 -928.501 904.985 -931.1 905.555 Z " fill="url(#_lgradient_10)"/><clipPath id="_clipPath_hUIpZOeizrSLfe3tEofSD1DogLPQ2TnZ"><path d=" M -1137.876 867.399 L -637.716 867.399 L -637.716 1222.119 L -1137.876 1222.119 L -1137.876 867.399 Z " fill="rgb(255,255,255)"/></clipPath><g clip-path="url(#_clipPath_hUIpZOeizrSLfe3tEofSD1DogLPQ2TnZ)"><path d=" M -1056.716 1038.279 C -1055.917 1042.284 -1055.917 1049.634 -1056.716 1053.639 L -1056.716 1038.279 Z " fill-rule="evenodd" fill="rgb(254,254,254)"/><path d=" M -704.881 1055.555 L -704.881 1076.685 C -705.511 1076.845 -705.631 1077.525 -706.311 1077.645 C -719.651 1080.155 -717.501 1066.945 -718.311 1055.555 C -719.461 1039.605 -725.951 1029.375 -733.201 1019.555 C -737.201 1014.135 -741.441 1007.965 -747.121 1004.195 C -761.501 994.645 -785.931 992.235 -803.271 984.995 C -812.78 981.035 -822.011 975.645 -828.721 967.235 C -831.431 963.835 -832.381 960.845 -834.961 956.675 C -839.331 949.615 -844.911 943.225 -849.841 936.035 C -856.881 925.765 -863.851 920.315 -875.271 914.915 C -878.051 913.605 -880.581 911.935 -882.961 911.075 C -898.531 905.455 -924.411 903.825 -940.551 906.755 C -948.201 908.145 -956.301 911.835 -964.071 914.915 C -983.561 922.655 -997.531 935.275 -1010.161 950.915 C -1013.801 955.435 -1017.371 960.585 -1020.241 966.275 C -1024.801 975.355 -1030.271 983.015 -1033.681 993.155 C -1034.711 996.245 -1034.641 999.395 -1035.591 1002.275 C -1036.371 1004.605 -1038.321 1006.665 -1038.961 1008.995 C -1039.901 1012.465 -1040.101 1016.885 -1040.881 1020.995 C -1042.541 1029.795 -1044.191 1044.735 -1042.801 1056.034 C -1042.321 1059.895 -1040.491 1063.835 -1039.921 1068.034 C -1038.141 1081.055 -1034.341 1091.065 -1029.361 1101.155 C -1024.981 1110.025 -1017.031 1119.725 -1009.201 1127.555 C -1001.141 1135.615 -993.261 1144.195 -984.721 1149.155 C -981.541 1151.005 -977.781 1152.185 -974.641 1153.954 C -967.851 1157.795 -956.821 1164.935 -944.881 1163.555 C -941.791 1163.204 -939.051 1160.875 -935.761 1160.195 C -932.951 1159.625 -929.681 1160.485 -926.641 1159.725 C -923.871 1159.025 -921.621 1156.605 -918.961 1155.395 C -916.931 1154.485 -914.491 1154.375 -912.241 1153.475 C -909.161 1152.265 -906.551 1150.065 -903.591 1149.155 C -891.771 1145.525 -876.32 1141.165 -860.881 1144.355 C -858.221 1144.905 -855.761 1146.994 -853.201 1147.725 C -850.891 1148.365 -848.481 1148.065 -846.471 1148.685 C -839.201 1150.895 -832.701 1155.095 -825.351 1156.355 C -811.57 1158.725 -794.261 1153.185 -783.121 1149.155 C -775.541 1146.425 -770.641 1142.985 -764.391 1139.075 C -749.32 1129.635 -737.201 1119.645 -728.391 1103.555 C -726.961 1100.935 -725.131 1098.865 -724.081 1096.835 C -722.261 1093.355 -722.941 1089.855 -720.24 1089.155 C -717.791 1088.534 -712.431 1091.765 -711.591 1093.954 C -710.07 1097.945 -713.081 1103.255 -714.961 1106.915 C -720.691 1118.155 -724.431 1122.454 -733.681 1131.395 C -737.99 1135.575 -743.021 1140.095 -747.591 1142.915 C -757.551 1149.065 -768.831 1151.515 -777.351 1157.795 C -779.78 1158.145 -780.041 1156.325 -782.641 1156.835 C -784.32 1159.954 -788.961 1160.115 -791.761 1162.115 C -796.03 1161.744 -800.221 1161.365 -804.231 1162.115 C -805.871 1162.425 -807.391 1163.795 -809.041 1164.034 C -815.841 1165.045 -822.211 1161.875 -829.201 1163.075 C -832.141 1158.755 -836.471 1158.325 -843.121 1158.275 C -844.61 1157.025 -846.351 1154.385 -848.881 1153.475 C -851.011 1152.715 -854.221 1153.875 -856.551 1152.994 C -858.461 1152.284 -859.711 1150.095 -861.351 1149.645 C -868.831 1147.555 -876.401 1149.935 -882.961 1149.645 C -891.451 1154.335 -902.901 1154.105 -912.241 1157.795 C -913.731 1158.395 -915.111 1159.905 -916.551 1160.685 C -920.801 1162.965 -925.201 1164.135 -928.071 1167.875 C -935.131 1165.115 -943.061 1170.765 -949.681 1171.235 L -961.201 1171.235 C -965.711 1170.155 -969.151 1167.994 -974.641 1167.875 C -996.091 1157.625 -1014.361 1143.155 -1028.881 1125.155 C -1031.081 1122.425 -1032.351 1119.685 -1034.161 1116.994 C -1035.121 1115.565 -1036.731 1115.065 -1037.511 1113.645 C -1038.251 1112.305 -1038.041 1110.325 -1038.961 1108.835 C -1039.991 1107.165 -1041.771 1106.125 -1042.801 1104.515 C -1044.501 1101.825 -1046.361 1098.475 -1047.591 1095.395 C -1048.921 1092.095 -1050.921 1088.025 -1051.921 1084.355 C -1054.131 1076.175 -1053.481 1067.425 -1056.721 1058.915 L -1056.721 1053.645 C -1055.921 1049.635 -1055.921 1042.285 -1056.721 1038.275 L -1056.721 1031.555 C -1055.071 1024.885 -1054.501 1014.015 -1052.401 1006.115 C -1051.791 1003.835 -1050.421 1001.475 -1049.511 998.915 C -1047.651 993.635 -1046.181 989.745 -1044.241 984.995 C -1040.431 975.715 -1036.451 966.025 -1031.761 957.155 C -1025.011 944.435 -1013.251 932.925 -1002.961 923.555 C -994.971 916.295 -985.241 910.725 -974.161 905.315 C -970.471 903.525 -967.181 900.845 -964.071 900.035 C -961.111 899.275 -957.681 899.765 -954.471 899.075 C -945.611 897.185 -937.781 894.755 -928.071 894.755 C -911.251 894.755 -895.571 895.905 -882.471 900.515 C -877.271 902.355 -873.521 906.125 -867.591 907.235 C -852.07 919.495 -842.32 936.245 -830.641 952.355 C -827.36 956.875 -824.61 962.625 -820.551 966.755 C -818.49 968.865 -814.851 970.525 -811.921 972.515 C -802.07 979.195 -790.271 983.825 -776.391 987.395 C -766.971 989.825 -756.651 990.855 -748.081 995.075 C -743.881 997.145 -739.391 1001.565 -734.641 1004.675 C -729.74 1007.885 -724.831 1010.955 -721.681 1014.755 C -712.631 1025.685 -708.871 1040.575 -704.881 1055.555 Z " fill="rgb(55,53,53)"/><path d=" M -723.214 1051.137 C -721.113 1049.238 -717.134 1049.217 -717.454 1044.897 C -720.95 1045.087 -724.158 1048.104 -723.214 1051.137 Z " fill-rule="evenodd" fill="rgb(55,53,53)"/><path d=" M -911.813 1162.354 C -906.5 1164.768 -900.543 1163.009 -898.373 1158.514 C -895.675 1160.488 -892.701 1158.497 -889.733 1159.474 C -881.321 1153.386 -869.633 1158.092 -859.972 1156.114 C -856.856 1158.278 -851.234 1157.935 -848.932 1160.915 C -845.615 1159 -843.836 1162.355 -840.773 1163.314 C -836.495 1162.491 -833.096 1164.306 -830.693 1166.674 C -825.012 1166.443 -821.442 1168.48 -816.292 1170.514 C -814.48 1170.726 -814.04 1169.568 -812.932 1169.074 C -808.547 1172.591 -800.302 1170.535 -797.573 1166.674 C -786.917 1171.699 -784.025 1160.438 -772.613 1161.874 C -768.819 1159.258 -765.69 1155.102 -759.172 1156.594 C -763.059 1163.908 -769.503 1168.664 -775.972 1173.394 C -778.486 1173.347 -777.073 1169.375 -779.333 1169.074 C -786.946 1171.22 -789.82 1178.107 -796.613 1181.074 C -798.082 1180.783 -799.114 1180.055 -800.453 1179.634 C -805.34 1183.563 -810.472 1189.751 -816.292 1191.154 C -814.919 1185.967 -811.953 1182.375 -810.052 1177.714 C -812.627 1176.282 -814.054 1179.66 -816.773 1179.634 C -817.836 1181.13 -819.055 1182.471 -819.653 1184.434 C -826.092 1188.234 -829.926 1194.64 -836.932 1197.874 C -835.975 1190.015 -827.563 1185.497 -824.932 1177.714 C -836.592 1180.142 -841.544 1193.417 -853.733 1196.914 C -854.177 1192.79 -852.09 1191.196 -849.413 1190.194 C -847.555 1184.852 -843.013 1182.193 -840.773 1177.234 C -844.255 1177.466 -847.932 1180.237 -850.853 1182.514 C -853.759 1184.781 -856.65 1187.353 -858.533 1190.194 C -861.027 1191.54 -863.601 1192.806 -864.773 1195.474 C -867.924 1195.618 -869.959 1199.118 -872.453 1198.354 C -868.92 1187.966 -858.637 1184.33 -855.172 1173.874 C -866.912 1176.412 -873.652 1188.542 -883.012 1195.474 C -885.805 1197.542 -889.62 1199.712 -893.092 1200.274 C -892.226 1197.371 -890.074 1194.249 -888.292 1192.114 C -884.314 1187.346 -879.399 1183.211 -874.853 1179.154 C -874.502 1175.503 -870.636 1175.37 -870.533 1171.474 C -877.183 1172.032 -882.018 1177.612 -886.853 1181.554 C -894.149 1187.504 -900.753 1195.29 -907.972 1200.754 C -910.864 1202.943 -914.681 1205.45 -918.533 1205.554 C -913.296 1192.71 -900.007 1187.919 -894.533 1175.314 C -899.71 1174.35 -903.298 1179.113 -906.533 1182.034 C -913.054 1187.925 -919.267 1193.779 -926.212 1199.314 C -929.392 1201.848 -932.858 1203.918 -936.292 1206.514 C -938.331 1208.054 -939.638 1211.625 -943.013 1210.834 C -943.624 1207.023 -940.745 1206.702 -938.693 1205.554 C -936.472 1201.375 -933.384 1198.062 -929.573 1195.474 C -927.807 1190.294 -922.648 1188.205 -919.493 1184.434 C -918.775 1183.577 -918.748 1182.021 -918.052 1181.074 C -916.89 1179.49 -913.244 1178.718 -914.693 1175.794 C -928.039 1184.208 -939.527 1194.48 -950.212 1205.554 C -954.719 1206.37 -956.674 1212.156 -961.732 1210.834 C -961.634 1207.732 -959.555 1206.612 -957.413 1205.554 C -950.94 1198.107 -943.769 1191.358 -938.212 1182.994 C -944.207 1182.474 -947.366 1188.855 -952.613 1190.674 C -957.639 1196.98 -966.206 1202.024 -973.252 1206.994 C -975.823 1208.807 -977.565 1211.606 -982.373 1211.794 C -980.658 1203.909 -972.174 1202.792 -968.933 1196.434 C -967.731 1196.036 -967.048 1195.119 -965.573 1194.994 C -964.466 1191.781 -961.583 1190.344 -960.292 1187.314 C -964.415 1185.763 -968.631 1189.401 -971.813 1191.634 C -978.299 1196.187 -985.246 1200.669 -991.973 1205.554 C -1000.054 1207.885 -1005.612 1215.257 -1014.533 1215.154 C -1007.675 1206.333 -997.316 1201.01 -988.133 1194.514 C -987.734 1193.313 -986.817 1192.629 -986.693 1191.154 C -984.668 1189.978 -981.06 1190.387 -980.933 1187.314 C -983.591 1183.307 -986.752 1188.474 -989.093 1189.714 C -990.561 1190.492 -992.666 1190.534 -993.893 1191.154 C -995.709 1192.073 -996.819 1193.869 -998.692 1194.994 C -1002.618 1197.353 -1007.5 1198.918 -1011.653 1201.234 C -1019.009 1205.335 -1028.246 1212.12 -1038.053 1214.194 C -1037.778 1211.678 -1035.617 1209.004 -1033.732 1207.474 C -1027.698 1202.573 -1018.58 1199.224 -1011.653 1194.514 C -1009.991 1193.384 -1008.894 1191.339 -1007.333 1190.194 C -1003.734 1187.554 -998.457 1186.838 -996.772 1182.514 C -1000.058 1178.652 -1004.779 1183.927 -1006.853 1185.874 C -1027.927 1191.839 -1040.554 1206.252 -1063.973 1209.874 C -1058.823 1202.502 -1049.745 1199.75 -1041.893 1195.474 C -1035.215 1191.837 -1029.37 1186.449 -1022.212 1183.954 C -1020.357 1181.649 -1017.766 1180.082 -1015.973 1177.714 C -1022.045 1175.889 -1028.279 1179.691 -1033.252 1182.034 C -1039.214 1184.842 -1045.31 1188.779 -1051.973 1191.154 C -1060.962 1194.358 -1068.036 1199.776 -1078.853 1199.794 C -1078.539 1196.588 -1075.491 1196.116 -1072.613 1195.474 C -1060.821 1185.986 -1044.138 1181.389 -1031.813 1172.434 C -1032.968 1169.021 -1036.758 1170.573 -1038.533 1170.994 C -1045.021 1172.533 -1052.482 1177.078 -1058.212 1179.634 C -1064.017 1182.223 -1070.776 1183.969 -1076.933 1185.874 C -1083.291 1187.841 -1089.305 1191.646 -1096.133 1190.674 C -1095.782 1186.335 -1090.967 1187.12 -1088.453 1185.874 C -1086.49 1184.902 -1085.35 1182.911 -1083.653 1182.034 C -1081.839 1181.097 -1079.584 1181.381 -1077.413 1180.594 C -1075.141 1179.771 -1073.459 1177.702 -1071.173 1176.754 C -1068.147 1175.5 -1065.502 1175.722 -1063.013 1174.354 C -1061.813 1173.695 -1060.965 1172.18 -1059.653 1171.474 C -1057.706 1170.427 -1055.245 1170.536 -1053.413 1169.554 C -1051.86 1168.722 -1050.964 1166.991 -1049.573 1166.194 C -1046.683 1164.54 -1043.072 1165.671 -1040.933 1162.834 C -1045.176 1158.938 -1049.671 1162.846 -1052.933 1164.274 C -1056.049 1165.638 -1060.383 1165.548 -1063.493 1166.674 C -1065.201 1167.292 -1066.505 1168.903 -1068.292 1169.554 C -1071.764 1170.819 -1075.753 1170.254 -1078.853 1171.474 C -1081.459 1172.5 -1083.036 1174.973 -1086.053 1175.314 C -1090.332 1175.797 -1094.082 1174.218 -1097.573 1176.754 C -1093.733 1171.657 -1086.395 1168.806 -1079.333 1166.194 C -1076.837 1165.271 -1074.017 1165.601 -1071.653 1164.754 C -1070.144 1164.213 -1068.908 1162.623 -1067.333 1161.874 C -1062.85 1159.744 -1058.564 1160.051 -1056.292 1155.633 C -1053.36 1155.686 -1051.065 1155.102 -1049.573 1153.713 C -1051.79 1149.737 -1058.755 1152.539 -1060.133 1155.154 C -1069.45 1154.08 -1078.73 1159.309 -1086.053 1160.915 C -1089.063 1161.575 -1092.09 1161.116 -1094.692 1161.874 C -1099.281 1163.21 -1104.993 1167.936 -1110.053 1163.794 C -1108.304 1159.569 -1103.372 1161.02 -1099.973 1159.954 C -1097.834 1159.284 -1096.382 1157.306 -1094.212 1156.594 C -1091.744 1155.784 -1088.935 1155.988 -1086.533 1155.154 C -1084.489 1154.445 -1082.842 1152.609 -1080.772 1151.793 C -1073.049 1148.754 -1063.583 1149.736 -1058.212 1143.633 C -1068.101 1136.614 -1080.4 1148.977 -1094.212 1144.594 C -1089.203 1139.844 -1076.854 1142.433 -1075.493 1134.034 C -1082.1 1129.676 -1091.508 1137.342 -1099.013 1133.554 C -1096.893 1129.398 -1090.906 1132.019 -1087.493 1130.674 C -1083.841 1129.235 -1080.687 1126.19 -1075.973 1125.394 C -1072.245 1124.765 -1068.669 1126.336 -1065.413 1123.474 C -1067.926 1118.948 -1078.374 1122.355 -1081.252 1118.194 C -1074.571 1115.916 -1065.595 1115.932 -1058.212 1114.354 C -1055.808 1102.4 -1049.579 1103.907 -1044.292 1112.434 C -1041.414 1117.078 -1038.219 1119.764 -1036.133 1124.434 C -1026.687 1137.708 -1013.305 1147.045 -1001.573 1158.034 C -997.326 1159.547 -994.507 1162.489 -991.973 1165.714 C -989.67 1165.971 -988.731 1167.593 -985.732 1167.154 C -985.216 1168.398 -983.997 1168.939 -983.813 1170.514 C -981.668 1172.209 -978.781 1171.519 -976.613 1172.434 C -974.806 1173.197 -973.891 1175.044 -972.292 1175.794 C -966.274 1178.616 -961.602 1176.586 -953.573 1177.234 C -948.938 1177.608 -943.681 1177.159 -938.212 1175.794 C -935.001 1173.406 -930.767 1172.04 -925.733 1171.474 C -924.526 1170.921 -924.222 1169.464 -923.333 1168.594 C -918.273 1167.734 -914.389 1165.698 -911.813 1162.354 Z " fill-rule="evenodd" fill="rgb(55,53,53)"/><radialGradient id="_rgradient_2" fx="0.5" fy="0.5" cx="0.5" cy="0.5" r="0.5" gradientTransform="matrix(296.965,0,0,220.416,-1036.593,936.994)" gradientUnits="userSpaceOnUse"><stop offset="0%" stop-opacity="1" style="stop-color:rgb(221,226,107)"/><stop offset="10%" stop-opacity="1" style="stop-color:rgb(200,213,100)"/><stop offset="20%" stop-opacity="1" style="stop-color:rgb(89,148,66)"/><stop offset="30.000000000000004%" stop-opacity="1" style="stop-color:rgb(88,148,66)"/><stop offset="40%" stop-opacity="1" style="stop-color:rgb(87,146,66)"/><stop offset="50%" stop-opacity="1" style="stop-color:rgb(82,142,64)"/><stop offset="60%" stop-opacity="1" style="stop-color:rgb(74,134,60)"/><stop offset="70%" stop-opacity="1" style="stop-color:rgb(61,122,55)"/><stop offset="80%" stop-opacity="1" style="stop-color:rgb(44,105,47)"/><stop offset="89.99999999999999%" stop-opacity="1" style="stop-color:rgb(44,105,47)"/><stop offset="99.99999999999999%" stop-opacity="1" style="stop-color:rgb(44,105,47)"/></radialGradient><path d=" M -745.73 1108.354 C -745.73 1108.274 -742.431 1104.795 -740.431 1105.954 C -737.701 1107.555 -742.681 1114.684 -744.271 1116.515 C -746.871 1119.515 -749.801 1122.684 -752.431 1124.684 C -754.9 1126.545 -758.501 1127.784 -761.551 1129.954 C -768.761 1135.104 -778.601 1142.104 -787.471 1145.805 C -789.53 1146.654 -792.091 1146.684 -794.681 1147.724 C -798.4 1149.204 -801.461 1151.635 -804.271 1152.034 C -809.551 1152.795 -816.591 1154.484 -821.721 1154.654 C -822.311 1154.675 -823.521 1154.224 -824.811 1153.704 L -824.911 1154.194 C -824.641 1154.375 -831.53 1154.474 -831.53 1154.644 L -832.03 1154.494 C -836.021 1152.824 -834.82 1151.085 -835.961 1149.154 C -837.391 1146.734 -840.61 1147.545 -845.081 1147.234 L -845.921 1146.515 L -847.001 1146.765 C -853.051 1138.425 -866.181 1141.024 -876.271 1140.994 C -890.73 1140.965 -903.221 1144.644 -914.681 1149.154 C -919.571 1151.085 -924.311 1153.875 -928.121 1154.915 C -930.291 1155.515 -932.841 1155.045 -935.321 1155.394 C -942.681 1156.465 -953.061 1159.064 -962.201 1155.875 C -964.191 1155.184 -965.801 1153.484 -967.951 1152.515 C -969.681 1151.744 -971.831 1151.824 -973.241 1151.074 C -975.541 1149.845 -979.891 1146.404 -982.831 1144.354 C -991.521 1138.345 -1002.011 1129.234 -1008.761 1121.314 C -1011.23 1118.404 -1012.261 1114.614 -1014.511 1111.724 C -1015.591 1110.335 -1017.341 1109.734 -1018.351 1108.354 C -1019.971 1106.184 -1021.941 1102.724 -1023.161 1100.194 C -1023.851 1098.755 -1023.851 1096.724 -1024.591 1095.394 C -1025.711 1093.415 -1028.081 1092.534 -1028.911 1090.114 C -1029.761 1087.684 -1029.071 1084.604 -1029.871 1081.954 C -1031.441 1076.854 -1034.141 1072.335 -1034.681 1066.604 C -1035.051 1062.555 -1034.601 1058.085 -1035.161 1054.114 C -1035.461 1051.984 -1036.561 1049.875 -1036.591 1047.875 C -1036.661 1043.334 -1035.031 1037.974 -1034.681 1032.994 C -1034.381 1028.934 -1035.261 1024.754 -1034.681 1020.994 C -1034.261 1018.374 -1031.971 1015.265 -1030.831 1011.874 C -1029.661 1008.374 -1029.641 1004.354 -1028.431 1001.314 C -1027.831 999.794 -1026.331 998.675 -1025.551 996.994 C -1023.051 991.595 -1021.781 984.604 -1018.831 979.234 C -1016.571 975.115 -1012.991 971.144 -1010.681 967.234 C -1005.131 957.865 -997.691 950.834 -988.121 943.714 C -983.831 940.535 -983.081 937.015 -977.071 936.994 L -977.321 939.234 L -975.161 939.874 C -978.561 945.754 -987.311 950.124 -992.431 955.714 C -995.191 958.724 -1000.461 965.454 -998.681 967.234 C -995.691 970.224 -988.081 957.794 -984.761 958.595 L -983.321 960.515 L -981.391 961.954 C -990.161 974.794 -1003.031 986.075 -1004.911 1004.194 C -1000.221 1004.425 -998.511 997.084 -996.281 995.555 C -995.291 994.885 -991.921 993.394 -990.991 994.115 C -987.211 997.095 -995.871 1007.834 -997.721 1011.874 C -999.131 1014.984 -999.741 1019.044 -1000.591 1021.954 C -1001.641 1025.535 -1003.261 1028.635 -1003.951 1031.075 C -1005.041 1034.894 -1005.711 1041.664 -1002.991 1042.115 C -1000.291 1042.575 -999.651 1035.794 -998.681 1033.954 C -997.281 1031.345 -992.411 1026.095 -990.031 1027.234 C -988.421 1028.015 -988.401 1034.515 -989.071 1037.314 C -990.041 1041.305 -993.741 1045.444 -994.831 1050.274 C -997.081 1060.215 -999.691 1069.954 -997.721 1078.604 C -993.161 1074.175 -992.561 1066.654 -989.071 1059.875 C -988.23 1058.234 -982.221 1047.265 -979.471 1048.835 C -975.561 1051.095 -981.101 1062.934 -981.871 1065.644 C -985.111 1076.934 -987.131 1090.385 -986.201 1104.515 C -980.491 1103.454 -981.171 1096.845 -979.471 1090.604 C -978.921 1088.555 -977.011 1086.144 -976.121 1083.394 C -975.191 1080.555 -975.361 1077.684 -974.201 1075.234 C -972.881 1072.484 -966.021 1057.934 -961.721 1061.314 C -959.601 1062.984 -962.141 1069.795 -963.161 1073.314 C -965.751 1082.284 -968.061 1087.244 -969.391 1097.805 C -969.941 1102.114 -970.571 1110.835 -968.911 1111.724 C -964.961 1113.835 -963.681 1100.625 -963.161 1098.765 C -962.521 1096.524 -960.561 1091.595 -958.831 1086.765 C -957.471 1082.934 -955.991 1078.614 -954.511 1075.234 C -953.381 1072.644 -947.541 1062.635 -944.911 1064.684 C -941.511 1067.335 -945.551 1076.675 -946.351 1080.034 C -947.041 1082.925 -946.771 1086.224 -947.321 1089.154 C -947.921 1092.425 -949.441 1095.274 -949.721 1097.805 C -950.301 1103.194 -949.321 1109.175 -949.721 1113.644 C -950.161 1118.644 -950.841 1119.904 -949.241 1124.684 C -948.841 1125.845 -949.051 1128.885 -946.831 1128.515 C -944.651 1112.314 -940.361 1088.925 -934.351 1075.234 C -933.73 1073.814 -931.641 1071.954 -930.511 1069.474 C -928.801 1065.704 -928.761 1060.614 -925.241 1061.805 C -921.621 1063.015 -924.201 1072.694 -924.761 1075.724 C -927.171 1088.984 -931.761 1111.755 -925.721 1124.684 C -920.691 1110.114 -921.361 1094.845 -916.121 1077.644 C -915.041 1074.114 -913.171 1063.894 -909.871 1064.684 C -906.381 1065.515 -908.221 1080.474 -908.431 1085.314 C -908.811 1093.894 -908.841 1101.354 -908.431 1107.875 C -908.341 1109.404 -907.821 1121.704 -905.071 1121.805 C -902.931 1121.875 -899.951 1099.654 -899.321 1096.354 C -896.921 1083.984 -895.661 1072.175 -888.761 1065.644 L -886.841 1067.074 L -884.431 1067.074 C -887.641 1081.364 -891.461 1107.875 -882.041 1118.434 C -880.381 1102.335 -879.261 1092.165 -874.351 1078.604 C -873.291 1075.654 -868.921 1069.635 -866.19 1072.354 C -864.661 1073.894 -866.471 1081.284 -866.681 1084.354 C -867.211 1092.224 -868.15 1106.875 -867.641 1111.234 C -867.451 1112.805 -866.391 1120.984 -862.841 1119.875 C -860.001 1118.994 -859.251 1097.484 -858.041 1093.954 C -857.291 1091.805 -853.4 1084.904 -850.351 1086.274 C -846.65 1087.954 -850.791 1106.224 -850.351 1111.234 C -850.15 1113.574 -849.211 1115.954 -848.431 1118.434 C -848.371 1118.644 -847.671 1124.755 -845.081 1123.724 C -843.23 1122.984 -844.101 1117.744 -843.641 1115.555 C -843.19 1113.484 -840.721 1104.765 -838.351 1099.234 C -837.351 1096.885 -834.07 1091.944 -831.641 1092.515 C -826.291 1093.784 -830.931 1102.994 -831.641 1109.314 C -832.15 1113.934 -832.181 1126.454 -827.801 1126.114 C -822.681 1125.724 -825.99 1115.385 -823.471 1108.835 C -822.511 1106.314 -817.53 1099.665 -815.801 1100.194 C -813.44 1100.925 -814.28 1107.854 -814.351 1110.274 C -814.461 1113.795 -815.291 1131.934 -811.961 1133.314 C -807.911 1135.005 -808.86 1125.755 -807.641 1120.354 C -807.261 1118.684 -803.681 1108.104 -800.921 1108.354 C -794.751 1108.934 -801.4 1129.125 -795.15 1129.954 C -790.57 1130.574 -791.891 1118.515 -788.921 1114.114 L -786.851 1115.034 L -785.081 1113.644 C -783.201 1116.335 -784.001 1123.104 -781.23 1122.765 C -777.871 1122.345 -780.9 1108.385 -775.961 1107.394 C -768.751 1105.965 -771.501 1121.454 -766.351 1120.835 C -761.121 1120.215 -766.801 1103.474 -760.591 1102.114 C -754.791 1100.854 -755.03 1109.454 -751.471 1110.274 C -749.621 1110.715 -747.711 1109.364 -745.73 1108.354 Z " fill="url(#_rgradient_2)"/><path d=" M -916.351 1156.114 C -910.911 1153.804 -905.691 1150.984 -900.031 1149.154" fill="none" vector-effect="non-scaling-stroke" stroke-width="0.65" stroke="rgb(55,53,53)" stroke-linejoin="miter" stroke-linecap="square" stroke-miterlimit="3"/><path d=" M -831.521 1154.654 C -831.531 1154.654 -831.531 1154.644 -831.531 1154.644 C -831.531 1154.474 -824.641 1154.375 -824.912 1154.194" fill="none" vector-effect="non-scaling-stroke" stroke-width="0.65" stroke="rgb(55,53,53)" stroke-linejoin="miter" stroke-linecap="square" stroke-miterlimit="3"/><path d=" M -832.03 1154.494 C -836.02 1152.824 -834.82 1151.085 -835.961 1149.154 C -837.39 1146.734 -840.61 1147.545 -845.081 1147.234" fill="none" vector-effect="non-scaling-stroke" stroke-width="0.65" stroke="rgb(55,53,53)" stroke-linejoin="miter" stroke-linecap="square" stroke-miterlimit="3"/><line x1="-845.081" y1="1147.234" x2="-845.921" y2="1146.514" vector-effect="non-scaling-stroke" stroke-width="0.65" stroke="rgb(55,53,53)" stroke-linejoin="miter" stroke-linecap="square" stroke-miterlimit="3"/><line x1="-845.921" y1="1146.515" x2="-847.001" y2="1146.765" vector-effect="non-scaling-stroke" stroke-width="0.65" stroke="rgb(55,53,53)" stroke-linejoin="miter" stroke-linecap="square" stroke-miterlimit="3"/><path d=" M -847.001 1146.765 C -853.051 1138.425 -866.181 1141.025 -876.271 1140.994 C -890.73 1140.965 -903.221 1144.645 -914.681 1149.155 C -919.571 1151.085 -924.311 1153.875 -928.121 1154.915 C -930.291 1155.515 -932.841 1155.045 -935.321 1155.395 C -942.681 1156.465 -953.061 1159.065 -962.201 1155.875 C -964.191 1155.185 -965.801 1153.485 -967.951 1152.515 C -969.681 1151.744 -971.831 1151.825 -973.241 1151.075 C -975.541 1149.845 -979.891 1146.405 -982.831 1144.355 C -991.521 1138.345 -1002.011 1129.235 -1008.761 1121.315 C -1011.23 1118.405 -1012.261 1114.615 -1014.511 1111.725 C -1015.591 1110.335 -1017.341 1109.735 -1018.351 1108.355 C -1019.971 1106.185 -1021.941 1102.725 -1023.161 1100.195 C -1023.851 1098.755 -1023.851 1096.725 -1024.591 1095.395 C -1025.711 1093.415 -1028.081 1092.535 -1028.911 1090.115 C -1029.761 1087.685 -1029.071 1084.605 -1029.871 1081.954 C -1031.441 1076.855 -1034.141 1072.335 -1034.681 1066.605 C -1035.051 1062.555 -1034.601 1058.085 -1035.161 1054.115 C -1035.461 1051.985 -1036.561 1049.875 -1036.591 1047.875 C -1036.661 1043.335 -1035.031 1037.975 -1034.681 1032.995 C -1034.381 1028.935 -1035.261 1024.755 -1034.681 1020.995 C -1034.261 1018.375 -1031.971 1015.265 -1030.831 1011.875 C -1029.661 1008.375 -1029.641 1004.355 -1028.431 1001.315 C -1027.831 999.795 -1026.331 998.675 -1025.551 996.995 C -1023.051 991.595 -1021.781 984.605 -1018.831 979.235 C -1016.571 975.115 -1012.991 971.145 -1010.681 967.235 C -1005.131 957.865 -997.691 950.835 -988.121 943.715 C -983.831 940.535 -983.081 937.015 -977.071 936.995" fill="none" vector-effect="non-scaling-stroke" stroke-width="0.65" stroke="rgb(55,53,53)" stroke-linejoin="miter" stroke-linecap="square" stroke-miterlimit="3"/><line x1="-977.071" y1="936.995" x2="-977.321" y2="939.235" vector-effect="non-scaling-stroke" stroke-width="0.65" stroke="rgb(55,53,53)" stroke-linejoin="miter" stroke-linecap="square" stroke-miterlimit="3"/><line x1="-977.321" y1="939.234" x2="-975.161" y2="939.874" vector-effect="non-scaling-stroke" stroke-width="0.65" stroke="rgb(55,53,53)" stroke-linejoin="miter" stroke-linecap="square" stroke-miterlimit="3"/><path d=" M -975.161 939.874 C -978.561 945.754 -987.311 950.124 -992.431 955.714 C -995.191 958.724 -1000.461 965.454 -998.681 967.234 C -995.691 970.224 -988.081 957.794 -984.761 958.594" fill="none" vector-effect="non-scaling-stroke" stroke-width="0.65" stroke="rgb(55,53,53)" stroke-linejoin="miter" stroke-linecap="square" stroke-miterlimit="3"/><line x1="-984.761" y1="958.595" x2="-983.321" y2="960.515" vector-effect="non-scaling-stroke" stroke-width="0.65" stroke="rgb(55,53,53)" stroke-linejoin="miter" stroke-linecap="square" stroke-miterlimit="3"/><path d=" M -983.321 960.515 C -982.991 960.305 -982.691 960.055 -982.441 959.775" fill="none" vector-effect="non-scaling-stroke" stroke-width="0.65" stroke="rgb(55,53,53)" stroke-linejoin="miter" stroke-linecap="square" stroke-miterlimit="3"/><line x1="-983.321" y1="960.515" x2="-981.391" y2="961.955" vector-effect="non-scaling-stroke" stroke-width="0.65" stroke="rgb(55,53,53)" stroke-linejoin="miter" stroke-linecap="square" stroke-miterlimit="3"/><path d=" M -981.391 961.954 C -990.161 974.794 -1003.031 986.074 -1004.911 1004.194 C -1000.221 1004.424 -998.511 997.084 -996.281 995.554 C -995.291 994.884 -991.921 993.394 -990.991 994.114 C -987.211 997.094 -995.871 1007.834 -997.721 1011.874 C -999.131 1014.984 -999.741 1019.044 -1000.591 1021.954 C -1001.641 1025.534 -1003.261 1028.634 -1003.951 1031.074 C -1005.041 1034.894 -1005.711 1041.664 -1002.991 1042.114 C -1000.291 1042.574 -999.651 1035.794 -998.681 1033.954 C -997.281 1031.344 -992.411 1026.094 -990.031 1027.234 C -988.421 1028.014 -988.401 1034.514 -989.071 1037.314 C -990.041 1041.304 -993.741 1045.444 -994.831 1050.274 C -997.081 1060.214 -999.691 1069.954 -997.721 1078.604 C -993.161 1074.174 -992.561 1066.654 -989.071 1059.874 C -988.231 1058.234 -982.221 1047.264 -979.471 1048.834 C -975.561 1051.094 -981.101 1062.934 -981.871 1065.644 C -985.111 1076.934 -987.131 1090.384 -986.201 1104.514 C -980.491 1103.454 -981.171 1096.844 -979.471 1090.604 C -978.921 1088.554 -977.011 1086.144 -976.121 1083.394 C -975.191 1080.554 -975.361 1077.684 -974.201 1075.234 C -972.881 1072.484 -966.021 1057.934 -961.721 1061.314 C -959.601 1062.984 -962.141 1069.794 -963.161 1073.314 C -965.751 1082.284 -968.061 1087.244 -969.391 1097.804 C -969.941 1102.114 -970.571 1110.834 -968.911 1111.724 C -964.961 1113.834 -963.681 1100.624 -963.161 1098.764 C -962.521 1096.524 -960.561 1091.594 -958.831 1086.764 C -957.471 1082.934 -955.991 1078.614 -954.511 1075.234 C -953.381 1072.644 -947.541 1062.634 -944.911 1064.684 C -941.511 1067.334 -945.551 1076.674 -946.351 1080.034 C -947.041 1082.924 -946.771 1086.224 -947.321 1089.154 C -947.921 1092.424 -949.441 1095.274 -949.721 1097.804 C -950.301 1103.194 -949.321 1109.174 -949.721 1113.644 C -950.161 1118.644 -950.841 1119.904 -949.241 1124.684 C -948.841 1125.844 -949.051 1128.884 -946.831 1128.514 C -944.651 1112.314 -940.361 1088.924 -934.351 1075.234 C -933.731 1073.814 -931.641 1071.954 -930.511 1069.474 C -928.801 1065.704 -928.761 1060.614 -925.241 1061.804 C -921.621 1063.014 -924.201 1072.694 -924.761 1075.724 C -927.171 1088.984 -931.761 1111.754 -925.721 1124.684 C -920.691 1110.114 -921.361 1094.844 -916.121 1077.644 C -915.041 1074.114 -913.171 1063.894 -909.871 1064.684 C -906.381 1065.514 -908.221 1080.474 -908.431 1085.314 C -908.811 1093.894 -908.841 1101.354 -908.431 1107.874 C -908.341 1109.404 -907.821 1121.704 -905.071 1121.804 C -902.931 1121.874 -899.951 1099.654 -899.321 1096.354 C -896.921 1083.984 -895.661 1072.174 -888.761 1065.644" fill="none" vector-effect="non-scaling-stroke" stroke-width="0.65" stroke="rgb(55,53,53)" stroke-linejoin="miter" stroke-linecap="square" stroke-miterlimit="3"/><line x1="-888.761" y1="1065.644" x2="-886.841" y2="1067.074" vector-effect="non-scaling-stroke" stroke-width="0.65" stroke="rgb(55,53,53)" stroke-linejoin="miter" stroke-linecap="square" stroke-miterlimit="3"/><path d=" M -886.841 1067.074 C -886.681 1066.465 -886.591 1066.045 -886.53 1065.875" fill="none" vector-effect="non-scaling-stroke" stroke-width="0.65" stroke="rgb(55,53,53)" stroke-linejoin="miter" stroke-linecap="square" stroke-miterlimit="3"/><line x1="-886.841" y1="1067.074" x2="-884.431" y2="1067.074" vector-effect="non-scaling-stroke" stroke-width="0.65" stroke="rgb(55,53,53)" stroke-linejoin="miter" stroke-linecap="square" stroke-miterlimit="3"/><path d=" M -884.431 1067.074 C -887.641 1081.364 -891.461 1107.875 -882.041 1118.434 C -880.381 1102.335 -879.261 1092.165 -874.351 1078.604 C -873.291 1075.654 -868.921 1069.635 -866.191 1072.354 C -864.661 1073.894 -866.471 1081.284 -866.681 1084.354 C -867.211 1092.224 -868.151 1106.875 -867.641 1111.234 C -867.452 1112.804 -866.391 1120.984 -862.841 1119.875 C -860.001 1118.994 -859.251 1097.484 -858.041 1093.954 C -857.291 1091.804 -853.401 1084.904 -850.351 1086.274 C -846.651 1087.954 -850.791 1106.224 -850.351 1111.234 C -850.151 1113.574 -849.211 1115.954 -848.431 1118.434 C -848.371 1118.644 -847.671 1124.755 -845.081 1123.724 C -843.231 1122.984 -844.101 1117.744 -843.641 1115.554 C -843.191 1113.484 -840.721 1104.764 -838.351 1099.234 C -837.351 1096.885 -834.071 1091.944 -831.641 1092.514 C -826.291 1093.784 -830.931 1102.994 -831.641 1109.314 C -832.151 1113.934 -832.181 1126.454 -827.801 1126.114 C -822.681 1125.724 -825.991 1115.385 -823.471 1108.835 C -822.511 1106.314 -817.531 1099.665 -815.801 1100.194 C -813.441 1100.925 -814.281 1107.854 -814.351 1110.274 C -814.461 1113.795 -815.291 1131.934 -811.961 1133.314 C -807.911 1135.005 -808.861 1125.755 -807.641 1120.354 C -807.261 1118.684 -803.681 1108.104 -800.921 1108.354 C -794.751 1108.934 -801.401 1129.125 -795.151 1129.954 C -790.571 1130.574 -791.891 1118.514 -788.921 1114.114" fill="none" vector-effect="non-scaling-stroke" stroke-width="0.65" stroke="rgb(55,53,53)" stroke-linejoin="miter" stroke-linecap="square" stroke-miterlimit="3"/><line x1="-788.921" y1="1114.114" x2="-786.851" y2="1115.034" vector-effect="non-scaling-stroke" stroke-width="0.65" stroke="rgb(55,53,53)" stroke-linejoin="miter" stroke-linecap="square" stroke-miterlimit="3"/><path d=" M -786.851 1115.034 C -786.891 1114.595 -786.811 1114.255 -786.761 1113.875" fill="none" vector-effect="non-scaling-stroke" stroke-width="0.65" stroke="rgb(55,53,53)" stroke-linejoin="miter" stroke-linecap="square" stroke-miterlimit="3"/><line x1="-786.851" y1="1115.034" x2="-785.081" y2="1113.644" vector-effect="non-scaling-stroke" stroke-width="0.65" stroke="rgb(55,53,53)" stroke-linejoin="miter" stroke-linecap="square" stroke-miterlimit="3"/><path d=" M -745.721 1108.354 L -745.731 1108.354 C -745.731 1108.274 -742.431 1104.794 -740.431 1105.954 C -737.701 1107.554 -742.681 1114.684 -744.271 1116.514 C -746.871 1119.514 -749.801 1122.684 -752.431 1124.684 C -754.901 1126.544 -758.501 1127.784 -761.551 1129.954 C -768.761 1135.104 -778.601 1142.104 -787.471 1145.804 C -789.531 1146.654 -792.091 1146.684 -794.681 1147.724 C -798.401 1149.204 -801.461 1151.634 -804.271 1152.034 C -809.551 1152.794 -816.591 1154.484 -821.721 1154.654 C -822.311 1154.674 -823.521 1154.224 -824.811 1153.704 C -827.521 1152.625 -830.611 1151.294 -829.221 1153.554" fill="none" vector-effect="non-scaling-stroke" stroke-width="0.65" stroke="rgb(55,53,53)" stroke-linejoin="miter" stroke-linecap="square" stroke-miterlimit="3"/><path d=" M -785.081 1113.644 C -783.201 1116.334 -784.001 1123.104 -781.23 1122.764 C -777.871 1122.344 -780.9 1108.384 -775.961 1107.394 C -768.751 1105.964 -771.501 1121.454 -766.351 1120.834 C -761.121 1120.214 -766.801 1103.474 -760.591 1102.114 C -754.791 1100.854 -755.03 1109.454 -751.471 1110.274 C -749.621 1110.714 -747.711 1109.364 -745.73 1108.354" fill="none" vector-effect="non-scaling-stroke" stroke-width="0.65" stroke="rgb(55,53,53)" stroke-linejoin="miter" stroke-linecap="square" stroke-miterlimit="3"/><path d=" M -756.242 1064.234 C -755.51 1064.242 -755.191 1067.791 -756.722 1067.114 C -757.07 1065.647 -756.232 1065.365 -756.242 1064.234 Z " fill-rule="evenodd" fill="rgb(254,254,254)"/><path d=" M -748.563 1066.635 C -748.79 1068.018 -750.643 1069.215 -751.924 1068.074 C -750.887 1067.51 -749.719 1067.078 -748.563 1066.635 Z " fill-rule="evenodd" fill="rgb(254,254,254)"/><path d=" M -750.004 1074.314 C -751.492 1074.201 -754.715 1075.093 -753.363 1077.673 C -756.262 1076.003 -751.938 1071.293 -750.004 1074.314 Z " fill-rule="evenodd" fill="rgb(254,254,254)"/></g><linearGradient id="_lgradient_11" x1="0.000013965237904756123" y1="0.4999901228089154" x2="0.9999948773361851" y2="0.4999901228089154" gradientTransform="matrix(28.969,0,0,42.316,-762.172,1048.433)" gradientUnits="userSpaceOnUse"><stop offset="0%" stop-opacity="1" style="stop-color:rgb(150,190,64)"/><stop offset="10%" stop-opacity="1" style="stop-color:rgb(94,99,82)"/><stop offset="20%" stop-opacity="1" style="stop-color:rgb(55,58,60)"/><stop offset="30.000000000000004%" stop-opacity="1" style="stop-color:rgb(44,47,53)"/><stop offset="40%" stop-opacity="1" style="stop-color:rgb(43,46,52)"/><stop offset="50%" stop-opacity="1" style="stop-color:rgb(54,56,59)"/><stop offset="60%" stop-opacity="1" style="stop-color:rgb(90,92,79)"/><stop offset="70%" stop-opacity="1" style="stop-color:rgb(121,126,90)"/><stop offset="80%" stop-opacity="1" style="stop-color:rgb(148,157,91)"/><stop offset="89.99999999999999%" stop-opacity="1" style="stop-color:rgb(171,186,83)"/><stop offset="99.99999999999999%" stop-opacity="1" style="stop-color:rgb(189,213,66)"/></linearGradient><path d=" M -752.403 1051.795 C -754.154 1057.564 -760.873 1060.922 -761.043 1066.674 L -761.043 1066.674 C -760.81 1066.108 -760.531 1065.586 -760.084 1065.235 L -760.084 1065.235 C -761.311 1067.687 -759.488 1073.19 -762.004 1074.353 L -762.004 1074.353 C -761.059 1073.058 -761.717 1070.16 -761.523 1068.114 L -761.523 1068.114 C -762.608 1066.574 -761.74 1071.246 -762.004 1072.914 L -762.004 1072.914 C -763.088 1079.826 -758.881 1091.809 -750.963 1090.674 L -750.963 1090.674 C -748.402 1088.045 -750.598 1084.113 -749.523 1081.554 L -749.523 1081.554 C -747.856 1082.127 -746.066 1082.576 -744.723 1083.475 L -744.723 1083.475 C -745.598 1081.617 -749.981 1080.746 -748.562 1078.193 L -748.562 1078.193 C -747.946 1080.457 -746.006 1081.396 -743.763 1082.035 L -743.763 1082.035 C -746.711 1078.418 -750.188 1069.678 -744.244 1068.114 L -744.244 1068.114 C -742.527 1067.663 -741.392 1068.321 -740.274 1068.98 L -740.274 1068.98 C -738.984 1069.738 -737.717 1070.497 -735.603 1069.555 L -735.603 1069.555 C -736.98 1068.691 -738.282 1067.752 -739.443 1066.674 L -739.443 1066.674 C -738.423 1066.657 -737.562 1067.234 -736.744 1067.812 L -736.744 1067.812 C -735.593 1068.625 -734.524 1069.438 -733.203 1068.593 L -733.203 1068.593 C -738.545 1066.685 -744.975 1061.022 -750.483 1066.194 L -750.483 1066.194 C -751.111 1060.107 -741.727 1053.877 -744.723 1048.433 L -744.723 1048.433 C -748.101 1048.734 -749.936 1050.582 -752.403 1051.795 Z " fill="url(#_lgradient_11)"/><linearGradient id="_lgradient_12" x1="0.000013965237904756123" y1="0.4999901228089154" x2="0.9999948773361851" y2="0.4999901228089154" gradientTransform="matrix(28.969,0,0,42.316,-762.172,1049.433)" gradientUnits="userSpaceOnUse"><stop offset="0%" stop-opacity="1" style="stop-color:rgb(150,190,64)"/><stop offset="10%" stop-opacity="1" style="stop-color:rgb(94,99,82)"/><stop offset="20%" stop-opacity="1" style="stop-color:rgb(55,58,60)"/><stop offset="30.000000000000004%" stop-opacity="1" style="stop-color:rgb(44,47,53)"/><stop offset="40%" stop-opacity="1" style="stop-color:rgb(43,46,52)"/><stop offset="50%" stop-opacity="1" style="stop-color:rgb(54,56,59)"/><stop offset="60%" stop-opacity="1" style="stop-color:rgb(90,92,79)"/><stop offset="70%" stop-opacity="1" style="stop-color:rgb(121,126,90)"/><stop offset="80%" stop-opacity="1" style="stop-color:rgb(148,157,91)"/><stop offset="89.99999999999999%" stop-opacity="1" style="stop-color:rgb(171,186,83)"/><stop offset="99.99999999999999%" stop-opacity="1" style="stop-color:rgb(189,213,66)"/></linearGradient><path d=" M -752.403 1052.795 C -754.154 1058.565 -760.873 1061.922 -761.043 1067.674 L -761.043 1067.674 C -760.81 1067.108 -760.531 1066.586 -760.084 1066.235 L -760.084 1066.235 C -761.311 1068.687 -759.488 1074.19 -762.004 1075.353 L -762.004 1075.353 C -761.059 1074.058 -761.717 1071.16 -761.523 1069.114 L -761.523 1069.114 C -762.608 1067.574 -761.74 1072.246 -762.004 1073.914 L -762.004 1073.914 C -763.088 1080.826 -758.881 1092.809 -750.963 1091.674 L -750.963 1091.674 C -748.402 1089.045 -750.598 1085.113 -749.523 1082.554 L -749.523 1082.554 C -747.856 1083.127 -746.066 1083.576 -744.723 1084.475 L -744.723 1084.475 C -745.598 1082.617 -749.981 1081.746 -748.562 1079.194 L -748.562 1079.194 C -747.946 1081.457 -746.006 1082.397 -743.763 1083.035 L -743.763 1083.035 C -746.711 1079.418 -750.188 1070.678 -744.244 1069.114 L -744.244 1069.114 C -742.526 1068.663 -741.391 1069.321 -740.273 1069.979 L -740.273 1069.979 C -738.984 1070.738 -737.717 1071.497 -735.603 1070.555 L -735.603 1070.555 C -736.98 1069.691 -738.282 1068.752 -739.443 1067.674 L -739.443 1067.674 C -738.423 1067.657 -737.562 1068.234 -736.744 1068.812 L -736.744 1068.812 C -735.593 1069.625 -734.524 1070.437 -733.203 1069.593 L -733.203 1069.593 C -738.545 1067.685 -744.975 1062.022 -750.483 1067.194 L -750.483 1067.194 C -751.111 1061.107 -741.727 1054.877 -744.723 1049.433 L -744.723 1049.433 C -748.101 1049.734 -749.936 1051.582 -752.403 1052.795 Z " fill="url(#_lgradient_12)"/><linearGradient id="_lgradient_13" x1="0.000013965237904756123" y1="0.4999915666276431" x2="0.9999948773361851" y2="0.4999915666276431" gradientTransform="matrix(28.969,0,0,42.316,-761.172,1047.433)" gradientUnits="userSpaceOnUse"><stop offset="0%" stop-opacity="1" style="stop-color:rgb(150,190,64)"/><stop offset="10%" stop-opacity="1" style="stop-color:rgb(94,99,82)"/><stop offset="20%" stop-opacity="1" style="stop-color:rgb(55,58,60)"/><stop offset="30.000000000000004%" stop-opacity="1" style="stop-color:rgb(44,47,53)"/><stop offset="40%" stop-opacity="1" style="stop-color:rgb(43,46,52)"/><stop offset="50%" stop-opacity="1" style="stop-color:rgb(54,56,59)"/><stop offset="60%" stop-opacity="1" style="stop-color:rgb(90,92,79)"/><stop offset="70%" stop-opacity="1" style="stop-color:rgb(121,126,90)"/><stop offset="80%" stop-opacity="1" style="stop-color:rgb(148,157,91)"/><stop offset="89.99999999999999%" stop-opacity="1" style="stop-color:rgb(171,186,83)"/><stop offset="99.99999999999999%" stop-opacity="1" style="stop-color:rgb(189,213,66)"/></linearGradient><path d=" M -751.403 1050.795 C -753.154 1056.564 -759.873 1059.922 -760.043 1065.674 L -760.043 1065.674 C -759.81 1065.108 -759.531 1064.586 -759.084 1064.234 L -759.084 1064.234 C -760.311 1066.687 -758.488 1072.189 -761.004 1073.353 L -761.004 1073.353 C -760.059 1072.058 -760.717 1069.16 -760.523 1067.114 L -760.523 1067.114 C -761.608 1065.574 -760.74 1070.246 -761.004 1071.914 L -761.004 1071.914 C -762.088 1078.826 -757.881 1090.808 -749.963 1089.674 L -749.963 1089.674 C -747.402 1087.045 -749.598 1083.113 -748.523 1080.554 L -748.523 1080.554 C -746.856 1081.127 -745.067 1081.576 -743.723 1082.474 L -743.723 1082.474 C -744.598 1080.617 -748.981 1079.746 -747.562 1077.193 L -747.562 1077.193 C -746.945 1079.457 -745.006 1080.396 -742.764 1081.035 L -742.764 1081.035 C -745.711 1077.418 -749.188 1068.678 -743.244 1067.114 L -743.244 1067.114 C -741.527 1066.663 -740.392 1067.321 -739.274 1067.98 L -739.274 1067.98 C -737.985 1068.738 -736.717 1069.497 -734.603 1068.555 L -734.603 1068.555 C -735.98 1067.691 -737.282 1066.752 -738.444 1065.674 L -738.444 1065.674 C -737.423 1065.657 -736.562 1066.235 -735.744 1066.812 L -735.744 1066.812 C -734.593 1067.625 -733.524 1068.438 -732.203 1067.594 L -732.203 1067.594 C -737.545 1065.685 -743.975 1060.021 -749.483 1065.194 L -749.483 1065.194 C -750.111 1059.107 -740.727 1052.877 -743.723 1047.433 L -743.723 1047.433 C -747.101 1047.734 -748.936 1049.582 -751.403 1050.795 Z " fill="url(#_lgradient_13)"/><clipPath id="_clipPath_5Y5KTNxWs3vZxxlN9HeBXvF4WU2yQTQM"><path d=" M -1138.876 867.399 L -638.716 867.399 L -638.716 1222.119 L -1138.876 1222.119 L -1138.876 867.399 Z " fill="rgb(255,255,255)"/></clipPath><g clip-path="url(#_clipPath_5Y5KTNxWs3vZxxlN9HeBXvF4WU2yQTQM)"><path d=" M -733.723 1068.555 C -731.426 1067.234 -729.209 1070.11 -727.483 1070.955 C -727.496 1071.762 -731.334 1068.528 -733.723 1068.555 Z " fill-rule="evenodd" fill="rgb(55,53,53)"/><path d=" M -743.324 1083.914 C -740.097 1085.674 -729.424 1089.184 -727.004 1090.154 C -733.435 1089.066 -738.722 1086.834 -743.324 1083.914 Z " fill-rule="evenodd" fill="rgb(55,53,53)"/><linearGradient id="_lgradient_14" x1="0" y1="0.5000101517462905" x2="1.0000001415511444" y2="0.5000101517462905" gradientTransform="matrix(82.622,0,0,25.342,-748.001,1068.402)" gradientUnits="userSpaceOnUse"><stop offset="0%" stop-opacity="1" style="stop-color:rgb(55,55,23)"/><stop offset="10%" stop-opacity="1" style="stop-color:rgb(62,60,25)"/><stop offset="20%" stop-opacity="1" style="stop-color:rgb(131,116,39)"/><stop offset="30.000000000000004%" stop-opacity="1" style="stop-color:rgb(135,112,38)"/><stop offset="40%" stop-opacity="1" style="stop-color:rgb(139,109,37)"/><stop offset="50%" stop-opacity="1" style="stop-color:rgb(143,105,36)"/><stop offset="60%" stop-opacity="1" style="stop-color:rgb(147,102,35)"/><stop offset="70%" stop-opacity="1" style="stop-color:rgb(151,98,34)"/><stop offset="80%" stop-opacity="1" style="stop-color:rgb(155,94,33)"/><stop offset="89.99999999999999%" stop-opacity="1" style="stop-color:rgb(159,90,32)"/><stop offset="99.99999999999999%" stop-opacity="1" style="stop-color:rgb(163,85,31)"/></linearGradient><path d=" M -707.201 1092.034 C -710.851 1093.574 -710.671 1092.274 -712.69 1093.744 C -714.421 1091.984 -714.69 1091.244 -718.511 1090.744 C -720.99 1090.505 -722.48 1089.005 -723.521 1087.234 C -734.471 1085.704 -743.931 1082.684 -748.001 1074.274 L -748.001 1072.835 L -747.521 1072.835 C -747.521 1069.824 -746.32 1068.925 -744.161 1068.515 C -736.78 1067.104 -727.681 1079.425 -718.721 1074.755 C -718.671 1074.644 -717.771 1072.574 -715.971 1073.555 C -713.23 1075.055 -707.86 1075.875 -705.761 1076.675 C -703.701 1077.454 -703.19 1079.265 -701.921 1079.555 C -690.301 1082.274 -678.701 1071.484 -669.761 1069.954 C -666.801 1070.925 -668.411 1074.284 -667.841 1077.154 C -667.251 1080.144 -664.98 1082.974 -665.44 1085.314 C -666.751 1091.974 -679.471 1092.385 -687.521 1092.994 C -695.23 1093.585 -703.381 1090.425 -707.201 1092.034 Z " fill="url(#_lgradient_14)"/></g></g></g><path d=" M 266.688 1407.055 L 266.688 706.305 L 464.642 706.305 L 464.642 706.305 Q 604.121 706.305 666.432 748.005 L 666.432 748.005 L 666.432 748.005 Q 728.742 789.704 728.742 879.815 L 728.742 879.815 L 728.742 879.815 Q 728.742 942.125 693.992 982.626 L 693.992 982.626 L 693.992 982.626 Q 659.242 1023.128 592.618 1035.111 L 592.618 1035.111 L 592.618 1039.904 L 592.618 1039.904 Q 752.228 1067.224 752.228 1207.662 L 752.228 1207.662 L 752.228 1207.662 Q 752.228 1301.607 688.719 1354.331 L 688.719 1354.331 L 688.719 1354.331 Q 625.211 1407.055 511.135 1407.055 L 511.135 1407.055 L 266.688 1407.055 L 266.688 1407.055 Z  M 348.17 776.763 L 348.17 1006.352 L 482.377 1006.352 L 482.377 1006.352 Q 568.652 1006.352 606.518 979.271 L 606.518 979.271 L 606.518 979.271 Q 644.383 952.19 644.383 887.963 L 644.383 887.963 L 644.383 887.963 Q 644.383 829.008 602.204 802.885 L 602.204 802.885 L 602.204 802.885 Q 560.025 776.763 467.998 776.763 L 467.998 776.763 L 348.17 776.763 L 348.17 776.763 Z  M 487.649 1075.373 L 348.17 1075.373 L 348.17 1337.555 L 494.36 1337.555 L 494.36 1337.555 Q 579.197 1337.555 622.095 1304.722 L 622.095 1304.722 L 622.095 1304.722 Q 664.994 1271.889 664.994 1201.91 L 664.994 1201.91 L 664.994 1201.91 Q 664.994 1136.724 621.137 1106.048 L 621.137 1106.048 L 621.137 1106.048 Q 577.28 1075.373 487.649 1075.373 L 487.649 1075.373 L 487.649 1075.373 Z  M 1510.974 1055.721 L 1510.974 1055.721 L 1510.974 1055.721 Q 1510.974 1223.958 1425.897 1320.3 L 1425.897 1320.3 L 1425.897 1320.3 Q 1340.819 1416.641 1189.358 1416.641 L 1189.358 1416.641 L 1189.358 1416.641 Q 1034.541 1416.641 950.422 1321.977 L 950.422 1321.977 L 950.422 1321.977 Q 866.303 1227.314 866.303 1054.762 L 866.303 1054.762 L 866.303 1054.762 Q 866.303 883.649 950.662 789.465 L 950.662 789.465 L 950.662 789.465 Q 1035.02 695.281 1190.316 695.281 L 1190.316 695.281 L 1190.316 695.281 Q 1341.299 695.281 1426.136 791.142 L 1426.136 791.142 L 1426.136 791.142 Q 1510.974 887.004 1510.974 1055.721 Z  M 952.579 1055.721 L 952.579 1055.721 L 952.579 1055.721 Q 952.579 1198.076 1013.212 1271.65 L 1013.212 1271.65 L 1013.212 1271.65 Q 1073.844 1345.224 1189.358 1345.224 L 1189.358 1345.224 L 1189.358 1345.224 Q 1305.83 1345.224 1365.264 1271.889 L 1365.264 1271.889 L 1365.264 1271.889 Q 1424.698 1198.555 1424.698 1055.721 L 1424.698 1055.721 L 1424.698 1055.721 Q 1424.698 914.325 1365.504 841.23 L 1365.504 841.23 L 1365.504 841.23 Q 1306.309 768.136 1190.316 768.136 L 1190.316 768.136 L 1190.316 768.136 Q 1073.844 768.136 1013.212 841.709 L 1013.212 841.709 L 1013.212 841.709 Q 952.579 915.283 952.579 1055.721 Z  M 2062.659 1220.603 L 2062.659 1220.603 L 2062.659 1220.603 Q 2062.659 1313.11 1995.556 1364.875 L 1995.556 1364.875 L 1995.556 1364.875 Q 1928.452 1416.641 1813.418 1416.641 L 1813.418 1416.641 L 1813.418 1416.641 Q 1688.798 1416.641 1621.694 1384.527 L 1621.694 1384.527 L 1621.694 1305.92 L 1621.694 1305.92 Q 1664.832 1324.134 1715.639 1334.679 L 1715.639 1334.679 L 1715.639 1334.679 Q 1766.446 1345.224 1816.294 1345.224 L 1816.294 1345.224 L 1816.294 1345.224 Q 1897.776 1345.224 1938.997 1314.308 L 1938.997 1314.308 L 1938.997 1314.308 Q 1980.218 1283.393 1980.218 1228.272 L 1980.218 1228.272 L 1980.218 1228.272 Q 1980.218 1191.845 1965.599 1168.598 L 1965.599 1168.598 L 1965.599 1168.598 Q 1950.98 1145.352 1916.709 1125.7 L 1916.709 1125.7 L 1916.709 1125.7 Q 1882.439 1106.048 1812.459 1081.124 L 1812.459 1081.124 L 1812.459 1081.124 Q 1714.68 1046.135 1672.741 998.204 L 1672.741 998.204 L 1672.741 998.204 Q 1630.801 950.273 1630.801 873.104 L 1630.801 873.104 L 1630.801 873.104 Q 1630.801 792.101 1691.674 744.17 L 1691.674 744.17 L 1691.674 744.17 Q 1752.546 696.239 1852.721 696.239 L 1852.721 696.239 L 1852.721 696.239 Q 1957.211 696.239 2044.924 734.584 L 2044.924 734.584 L 2019.521 805.522 L 2019.521 805.522 Q 1932.766 769.094 1850.804 769.094 L 1850.804 769.094 L 1850.804 769.094 Q 1786.097 769.094 1749.67 796.894 L 1749.67 796.894 L 1749.67 796.894 Q 1713.242 824.694 1713.242 874.063 L 1713.242 874.063 L 1713.242 874.063 Q 1713.242 910.49 1726.663 933.737 L 1726.663 933.737 L 1726.663 933.737 Q 1740.084 956.983 1771.958 976.395 L 1771.958 976.395 L 1771.958 976.395 Q 1803.832 995.807 1869.497 1019.294 L 1869.497 1019.294 L 1869.497 1019.294 Q 1979.738 1058.597 2021.199 1103.652 L 2021.199 1103.652 L 2021.199 1103.652 Q 2062.659 1148.707 2062.659 1220.603 Z  M 2506.02 769.094 L 2506.02 769.094 L 2506.02 769.094 Q 2390.506 769.094 2323.643 846.023 L 2323.643 846.023 L 2323.643 846.023 Q 2256.779 922.952 2256.779 1056.68 L 2256.779 1056.68 L 2256.779 1056.68 Q 2256.779 1194.241 2321.246 1269.253 L 2321.246 1269.253 L 2321.246 1269.253 Q 2385.713 1344.265 2505.061 1344.265 L 2505.061 1344.265 L 2505.061 1344.265 Q 2578.395 1344.265 2672.34 1317.903 L 2672.34 1317.903 L 2672.34 1389.32 L 2672.34 1389.32 Q 2599.485 1416.641 2492.599 1416.641 L 2492.599 1416.641 L 2492.599 1416.641 Q 2337.782 1416.641 2253.663 1322.696 L 2253.663 1322.696 L 2253.663 1322.696 Q 2169.545 1228.752 2169.545 1055.721 L 2169.545 1055.721 L 2169.545 1055.721 Q 2169.545 947.397 2210.046 865.915 L 2210.046 865.915 L 2210.046 865.915 Q 2250.548 784.432 2326.998 740.336 L 2326.998 740.336 L 2326.998 740.336 Q 2403.448 696.239 2506.978 696.239 L 2506.978 696.239 L 2506.978 696.239 Q 2617.219 696.239 2699.661 736.501 L 2699.661 736.501 L 2665.15 806.48 L 2665.15 806.48 Q 2585.585 769.094 2506.02 769.094 Z " fill="rgb(255,255,255)"/><path d=" M -87.471 945.314 L -87.471 945.314 L -87.471 945.314 Q -153.284 945.314 -190.971 912.032 L -190.971 912.032 L -190.971 912.032 Q -228.659 878.751 -228.659 819.5 L -228.659 819.5 L -228.659 819.5 Q -228.659 758.938 -191.628 726.031 L -191.628 726.031 L -191.628 726.031 Q -154.596 693.125 -87.096 693.125 L -87.096 693.125 L -87.096 693.125 Q -20.158 693.125 16.686 726.125 L 16.686 726.125 L 16.686 726.125 Q 53.53 759.125 53.53 819.875 L 53.53 819.875 L 53.53 819.875 Q 53.53 878.938 16.03 912.126 L 16.03 912.126 L 16.03 912.126 Q -21.47 945.314 -87.471 945.314 Z  M -87.471 726.875 L -87.471 726.875 L -87.471 726.875 Q -143.159 726.875 -171.94 750.594 L -171.94 750.594 L -171.94 750.594 Q -200.721 774.313 -200.721 819.5 L -200.721 819.5 L -200.721 819.5 Q -200.721 865.063 -172.034 888.313 L -172.034 888.313 L -172.034 888.313 Q -143.346 911.563 -87.471 911.563 L -87.471 911.563 L -87.471 911.563 Q -32.158 911.563 -3.564 888.407 L -3.564 888.407 L -3.564 888.407 Q 25.03 865.251 25.03 819.875 L 25.03 819.875 L 25.03 819.875 Q 25.03 774.313 -3.752 750.594 L -3.752 750.594 L -3.752 750.594 Q -32.533 726.875 -87.471 726.875 Z  M -224.909 1006.439 L 49.218 1006.439 L 49.218 1083.877 L 49.218 1083.877 Q 49.218 1138.44 32.905 1162.815 L 32.905 1162.815 L 32.905 1162.815 Q 16.592 1187.19 -18.658 1187.19 L -18.658 1187.19 L -18.658 1187.19 Q -43.033 1187.19 -58.877 1173.596 L -58.877 1173.596 L -58.877 1173.596 Q -74.721 1160.003 -79.408 1133.94 L -79.408 1133.94 L -81.283 1133.94 L -81.283 1133.94 Q -91.971 1196.378 -146.909 1196.378 L -146.909 1196.378 L -146.909 1196.378 Q -183.659 1196.378 -204.284 1171.534 L -204.284 1171.534 L -204.284 1171.534 Q -224.909 1146.69 -224.909 1102.065 L -224.909 1102.065 L -224.909 1006.439 L -224.909 1006.439 Z  M 21.655 1038.314 L -68.158 1038.314 L -68.158 1090.815 L -68.158 1090.815 Q -68.158 1124.565 -57.564 1139.377 L -57.564 1139.377 L -57.564 1139.377 Q -46.971 1154.19 -21.845 1154.19 L -21.845 1154.19 L -21.845 1154.19 Q 1.217 1154.19 11.436 1137.69 L 11.436 1137.69 L 11.436 1137.69 Q 21.655 1121.19 21.655 1085.19 L 21.655 1085.19 L 21.655 1038.314 L 21.655 1038.314 Z  M -95.158 1092.877 L -95.158 1038.314 L -197.721 1038.314 L -197.721 1095.502 L -197.721 1095.502 Q -197.721 1128.69 -184.878 1145.471 L -184.878 1145.471 L -184.878 1145.471 Q -172.034 1162.253 -144.659 1162.253 L -144.659 1162.253 L -144.659 1162.253 Q -119.158 1162.253 -107.158 1145.096 L -107.158 1145.096 L -107.158 1145.096 Q -95.158 1127.94 -95.158 1092.877 L -95.158 1092.877 L -95.158 1092.877 Z  M -107.721 1287.128 L -224.909 1287.128 L -224.909 1255.253 L 49.218 1255.253 L 49.218 1408.067 L 20.905 1408.067 L 20.905 1287.128 L -79.408 1287.128 L -79.408 1400.754 L -107.721 1400.754 L -107.721 1287.128 L -107.721 1287.128 Z " fill="rgb(255,255,255)"/></g></svg>