<?xml version="1.0" standalone="no"?><!-- Generator: Gravit.io --><svg xmlns="http://www.w3.org/2000/svg" xmlns:xlink="http://www.w3.org/1999/xlink" style="isolation:isolate" viewBox="338.097 -864.909 1950.865 1380.818" width="1950.865" height="1380.818"><g><g><linearGradient id="_lgradient_5" x1="0.3764485132505324" y1="1.0425847643096884" x2="0.638516668577901" y2="0.07551902024893475" gradientTransform="matrix(1284.962,0,0,1011.292,700.238,-719.337)" gradientUnits="userSpaceOnUse"><stop offset="0%" stop-opacity="1" style="stop-color:rgb(243,219,81)"/><stop offset="10%" stop-opacity="1" style="stop-color:rgb(244,222,97)"/><stop offset="20%" stop-opacity="1" style="stop-color:rgb(245,224,113)"/><stop offset="30.000000000000004%" stop-opacity="1" style="stop-color:rgb(245,227,127)"/><stop offset="40%" stop-opacity="1" style="stop-color:rgb(246,229,141)"/><stop offset="50%" stop-opacity="1" style="stop-color:rgb(247,231,154)"/><stop offset="60%" stop-opacity="1" style="stop-color:rgb(248,233,165)"/><stop offset="70%" stop-opacity="1" style="stop-color:rgb(248,235,175)"/><stop offset="80%" stop-opacity="1" style="stop-color:rgb(249,236,184)"/><stop offset="89.99999999999999%" stop-opacity="1" style="stop-color:rgb(249,238,191)"/><stop offset="99.99999999999999%" stop-opacity="1" style="stop-color:rgb(250,238,195)"/></linearGradient><path d=" M 1146.906 -716.379 C 1117.668 -709.956 1083.84 -717.278 1051.379 -700.613 L 1051.379 -700.613 C 1018.988 -683.995 990.182 -667.802 984.074 -666.202 L 984.074 -666.202 C 971.112 -662.819 918.167 -641.444 885.317 -605.904 L 885.317 -605.904 C 865.888 -584.922 839.145 -554.754 820.425 -533.231 L 820.425 -533.231 C 789.673 -497.924 793.099 -466.432 784.301 -458.024 L 784.301 -458.024 C 766.391 -440.857 722.092 -351.633 706.171 -276.309 L 706.171 -276.309 C 692.823 -213.17 706.171 -163.148 706.171 -141.665 L 706.171 -141.665 C 706.171 -132.128 704.15 -73.504 719.215 -24.611 L 719.215 -24.611 C 737.857 35.959 774.682 88.787 778.886 99.215 L 778.886 99.215 C 787.256 120.006 857.48 190.308 915.131 229.738 L 915.131 229.738 C 946.662 251.268 975.506 250.525 985.9 257.687 L 985.9 257.687 C 998.668 266.411 1045.108 298.677 1095.522 290.697 L 1095.522 290.697 C 1117.356 287.276 1146.084 286.38 1169.48 276.45 L 1169.48 276.45 C 1182.909 270.728 1191.629 254.573 1203.813 252.241 L 1203.813 252.241 C 1244.453 244.491 1272.792 221.252 1287.043 221.252 L 1287.043 221.252 C 1314.95 221.252 1340.953 226.588 1364.897 216.736 L 1364.897 216.736 C 1376.731 211.87 1417.721 226.001 1488.681 243.989 L 1488.681 243.989 C 1492.184 244.88 1523.797 258.547 1528.892 260.879 L 1528.892 260.879 C 1551.042 270.965 1561.513 266.601 1578.213 269.953 L 1578.213 269.953 C 1608.498 276.022 1625.237 261.58 1654.743 256.99 L 1654.743 256.99 C 1708.657 248.582 1760.434 216.234 1805.278 207.666 L 1805.278 207.666 C 1868.803 195.521 1910.692 89.562 1916.566 79.869 L 1916.566 79.869 C 1922.211 70.569 2002.011 49.35 1981.808 -7.717 L 1981.808 -7.717 C 1967.327 -48.625 1995.938 -143.027 1980.449 -184.208 L 1980.449 -184.208 C 1959.039 -241.197 1888.309 -313.021 1888.309 -324.345 L 1888.309 -324.345 C 1888.309 -350.703 1568.053 -437.155 1556.686 -459.616 L 1556.686 -459.616 C 1548.006 -476.705 1550.111 -536.112 1499.039 -555.303 L 1499.039 -555.303 C 1466.298 -567.643 1473.421 -601.587 1462.717 -608.512 L 1462.717 -608.512 C 1451.583 -615.679 1441.735 -636.699 1421.181 -653.901 L 1421.181 -653.901 C 1412.076 -661.535 1392.998 -668.771 1383.578 -681.154 L 1383.578 -681.154 C 1354.62 -719.22 1229.739 -716.379 1209.769 -716.379 L 1209.769 -716.379 C 1205.798 -716.379 1192.676 -719.337 1175.373 -719.337 L 1175.373 -719.337 C 1166.724 -719.337 1157.023 -718.598 1146.906 -716.379 Z " fill="url(#_lgradient_5)"/><clipPath id="_clipPath_WKzBjkSD3BIdMtxLeKXEBYgw8CQl3H8j"><path d=" M 341.989 -864.909 L 2288.961 -864.909 L 2288.961 515.909 L 341.989 515.909 L 341.989 -864.909 Z " fill="rgb(255,255,255)"/></clipPath><g clip-path="url(#_clipPath_WKzBjkSD3BIdMtxLeKXEBYgw8CQl3H8j)"><path d=" M 657.921 -199.723 C 661.032 -184.133 661.032 -155.522 657.921 -139.932 L 657.921 -199.723 Z " fill-rule="evenodd" fill="rgb(254,254,254)"/><path d=" M 2027.508 -132.476 L 2027.508 -50.223 C 2025.056 -49.6 2024.589 -46.953 2021.942 -46.486 C 1970.013 -36.716 1978.383 -88.138 1975.23 -132.476 C 1970.753 -194.564 1945.489 -234.387 1917.267 -272.613 C 1901.697 -293.712 1885.191 -317.729 1863.081 -332.405 C 1807.104 -369.58 1712.005 -378.962 1644.506 -407.145 C 1607.49 -422.56 1571.557 -443.541 1545.437 -476.279 C 1534.888 -489.514 1531.19 -501.153 1521.146 -517.386 C 1504.135 -544.868 1482.414 -569.743 1463.223 -597.731 C 1435.818 -637.709 1408.686 -658.924 1364.232 -679.945 C 1353.41 -685.044 1343.561 -691.545 1334.297 -694.893 C 1273.687 -716.77 1172.944 -723.115 1110.116 -711.709 C 1080.337 -706.299 1048.806 -691.935 1018.56 -679.945 C 942.691 -649.816 888.31 -600.69 839.146 -539.808 C 824.976 -522.213 811.079 -502.165 799.907 -480.016 C 782.157 -444.67 760.863 -414.852 747.589 -375.38 C 743.58 -363.352 743.852 -351.09 740.154 -339.879 C 737.118 -330.809 729.527 -322.79 727.036 -313.72 C 723.377 -300.212 722.598 -283.007 719.562 -267.008 C 713.1 -232.752 706.677 -174.595 712.088 -130.611 C 713.956 -115.582 721.08 -100.244 723.299 -83.899 C 730.228 -33.212 745.02 5.754 764.406 45.031 C 781.456 79.559 812.403 117.318 842.883 147.798 C 874.258 179.173 904.932 212.573 938.176 231.881 C 950.555 239.082 965.191 243.675 977.414 250.562 C 1003.846 265.514 1046.782 293.307 1093.261 287.935 C 1105.289 286.569 1115.955 277.503 1128.762 274.856 C 1139.701 272.637 1152.43 275.985 1164.264 273.026 C 1175.047 270.301 1183.805 260.881 1194.16 256.171 C 1202.062 252.629 1211.56 252.2 1220.319 248.697 C 1232.308 243.987 1242.468 235.423 1253.99 231.881 C 1300.002 217.75 1360.148 200.778 1420.248 213.196 C 1430.602 215.337 1440.178 223.468 1450.143 226.314 C 1459.136 228.805 1468.517 227.638 1476.341 230.051 C 1504.641 238.654 1529.944 255.003 1558.555 259.908 C 1612.2 269.134 1679.579 247.568 1722.944 231.881 C 1752.451 221.254 1771.525 207.863 1795.854 192.642 C 1854.521 155.895 1901.697 117.007 1935.991 54.374 C 1941.558 44.175 1948.681 36.117 1952.769 28.215 C 1959.853 14.668 1957.206 1.044 1967.721 -1.681 C 1977.254 -4.099 1998.119 8.479 2001.388 17 C 2007.309 32.536 1995.588 53.206 1988.27 67.453 C 1965.965 111.207 1951.406 127.942 1915.399 162.746 C 1898.625 179.018 1879.041 196.613 1861.251 207.59 C 1822.48 231.53 1778.57 241.067 1745.405 265.514 C 1735.949 266.876 1734.933 259.791 1724.812 261.776 C 1718.276 273.918 1700.21 274.545 1689.311 282.33 C 1672.693 280.886 1656.379 279.41 1640.769 282.33 C 1634.385 283.537 1628.468 288.87 1622.045 289.8 C 1595.575 293.736 1570.778 281.396 1543.568 286.067 C 1532.124 269.25 1515.268 267.577 1489.382 267.382 C 1483.586 262.516 1476.809 252.239 1466.96 248.697 C 1458.669 245.739 1446.173 250.254 1437.103 246.825 C 1429.668 244.061 1424.802 235.54 1418.418 233.788 C 1389.301 225.652 1359.833 234.917 1334.297 233.788 C 1301.248 252.045 1256.676 251.149 1220.319 265.514 C 1214.518 267.849 1209.147 273.727 1203.541 276.763 C 1186.997 285.639 1169.869 290.193 1158.697 304.752 C 1131.215 294.008 1100.346 316.002 1074.576 317.831 L 1029.732 317.831 C 1012.176 313.627 998.785 305.215 977.414 304.752 C 893.916 264.852 822.796 208.524 766.274 138.456 C 757.71 127.829 752.767 117.163 745.721 106.688 C 741.984 101.125 735.717 99.178 732.68 93.651 C 729.8 88.435 730.617 80.727 727.036 74.927 C 723.026 68.426 716.097 64.378 712.088 58.111 C 705.47 47.639 698.23 34.599 693.442 22.609 C 688.265 9.763 680.479 -6.08 676.587 -20.366 C 667.984 -52.209 670.514 -86.27 657.902 -119.396 L 657.902 -139.911 C 661.016 -155.521 661.016 -184.132 657.902 -199.742 L 657.902 -225.901 C 664.325 -251.865 666.543 -294.179 674.718 -324.931 C 677.093 -333.806 682.426 -342.993 685.968 -352.958 C 693.208 -373.512 698.931 -388.654 706.482 -407.145 C 721.314 -443.269 736.807 -480.989 755.063 -515.517 C 781.339 -565.033 827.117 -609.838 867.173 -646.312 C 898.276 -674.573 936.152 -696.255 979.283 -717.315 C 993.647 -724.283 1006.454 -734.715 1018.56 -737.868 C 1030.082 -740.827 1043.434 -738.919 1055.93 -741.605 C 1090.419 -748.963 1120.899 -758.422 1158.697 -758.422 C 1224.172 -758.422 1285.21 -753.945 1336.204 -736 C 1356.446 -728.837 1371.044 -714.162 1394.128 -709.841 C 1454.546 -662.116 1492.5 -596.914 1537.963 -534.202 C 1550.735 -516.607 1561.44 -494.224 1577.24 -478.148 C 1585.263 -469.934 1599.428 -463.472 1610.834 -455.726 C 1649.181 -429.722 1695.111 -411.699 1749.142 -397.802 C 1785.811 -388.343 1825.984 -384.334 1859.344 -367.906 C 1875.693 -359.848 1893.172 -342.643 1911.662 -330.536 C 1930.74 -318.041 1949.849 -306.09 1962.111 -291.298 C 1997.34 -248.751 2011.977 -190.789 2027.508 -132.476 Z " fill="rgb(55,53,53)"/><path d=" M 1956.144 -149.674 C 1964.322 -157.066 1979.811 -157.148 1978.566 -173.964 C 1964.957 -173.224 1952.469 -161.48 1956.144 -149.674 Z " fill-rule="evenodd" fill="rgb(55,53,53)"/><path d=" M 1221.986 283.264 C 1242.668 292.661 1265.857 285.814 1274.304 268.316 C 1284.807 276 1296.384 268.25 1307.937 272.053 C 1340.682 248.354 1386.18 266.673 1423.788 258.973 C 1435.917 267.397 1457.802 266.062 1466.763 277.662 C 1479.675 270.208 1486.6 283.268 1498.523 287.001 C 1515.176 283.797 1528.408 290.862 1537.762 300.08 C 1559.876 299.181 1573.773 307.11 1593.821 315.028 C 1600.874 315.853 1602.587 311.346 1606.9 309.423 C 1623.97 323.113 1656.065 315.11 1666.688 300.08 C 1708.169 319.641 1719.426 275.805 1763.85 281.395 C 1778.619 271.212 1790.799 255.034 1816.172 260.842 C 1801.041 289.313 1775.956 307.827 1750.774 326.239 C 1740.988 326.056 1746.488 310.594 1737.691 309.423 C 1708.056 317.777 1696.868 344.586 1670.425 356.135 C 1664.707 355.002 1660.689 352.168 1655.477 350.53 C 1636.453 365.824 1616.476 389.912 1593.821 395.374 C 1599.165 375.182 1610.711 361.2 1618.111 343.056 C 1608.087 337.481 1602.533 350.631 1591.948 350.53 C 1587.81 356.353 1583.065 361.573 1580.737 369.215 C 1555.672 384.007 1540.748 408.943 1513.475 421.532 C 1517.201 390.94 1549.946 373.352 1560.188 343.056 C 1514.799 352.507 1495.522 404.183 1448.074 417.796 C 1446.346 401.742 1454.47 395.537 1464.891 391.637 C 1472.123 370.842 1489.804 360.491 1498.523 341.187 C 1484.969 342.09 1470.656 352.877 1459.285 361.741 C 1447.973 370.565 1436.719 380.577 1429.389 391.637 C 1419.681 396.876 1409.661 401.804 1405.099 412.19 C 1392.833 412.75 1384.911 426.375 1375.203 423.401 C 1388.956 382.964 1428.984 368.81 1442.473 328.108 C 1396.772 337.987 1370.535 385.206 1334.1 412.19 C 1323.228 420.24 1308.377 428.687 1294.861 430.875 C 1298.233 419.574 1306.61 407.421 1313.546 399.11 C 1329.032 380.55 1348.164 364.454 1365.86 348.661 C 1367.227 334.449 1382.276 333.931 1382.677 318.765 C 1356.79 320.937 1337.969 342.659 1319.148 358.004 C 1290.747 381.165 1265.04 411.474 1236.938 432.743 C 1225.68 441.265 1210.822 451.023 1195.827 451.428 C 1216.213 401.431 1267.943 382.781 1289.252 333.713 C 1269.1 329.961 1255.133 348.501 1242.54 359.872 C 1217.155 382.804 1192.97 405.592 1165.935 427.138 C 1153.557 437.002 1140.064 445.06 1126.697 455.165 C 1118.76 461.16 1113.672 475.061 1100.534 471.982 C 1098.156 457.147 1109.363 455.897 1117.351 451.428 C 1125.996 435.161 1138.017 422.264 1152.852 412.19 C 1159.726 392.026 1179.809 383.894 1192.09 369.215 C 1194.885 365.879 1194.99 359.822 1197.7 356.135 C 1202.223 349.969 1216.416 346.964 1210.775 335.582 C 1158.823 368.335 1114.104 408.321 1072.511 451.428 C 1054.966 454.605 1047.356 477.128 1027.667 471.982 C 1028.048 459.907 1036.141 455.547 1044.479 451.428 C 1069.677 422.439 1097.591 396.168 1119.223 363.609 C 1095.886 361.585 1083.589 386.424 1063.164 393.505 C 1043.599 418.052 1010.251 437.687 982.823 457.034 C 972.815 464.091 966.034 474.987 947.317 475.719 C 953.993 445.025 987.019 440.677 999.635 415.927 C 1004.314 414.378 1006.973 410.808 1012.715 410.321 C 1017.024 397.814 1028.247 392.22 1033.272 380.426 C 1017.223 374.388 1000.811 388.55 988.424 397.242 C 963.176 414.965 936.134 432.412 909.948 451.428 C 878.491 460.502 856.855 489.199 822.128 488.798 C 848.824 454.461 889.149 433.74 924.896 408.453 C 926.449 403.778 930.018 401.115 930.501 395.374 C 938.384 390.796 952.429 392.388 952.923 380.426 C 942.576 364.827 930.271 384.941 921.159 389.768 C 915.444 392.797 907.25 392.96 902.474 395.374 C 895.404 398.951 891.084 405.942 883.793 410.321 C 868.51 419.504 849.506 425.596 833.339 434.612 C 804.705 450.576 768.748 476.988 730.572 485.061 C 731.643 475.267 740.055 464.858 747.392 458.902 C 770.881 439.824 806.375 426.788 833.339 408.453 C 839.809 404.054 844.079 396.094 850.156 391.637 C 864.166 381.36 884.707 378.573 891.267 361.741 C 878.475 346.707 860.098 367.241 852.024 374.82 C 769.99 398.04 720.836 454.145 629.673 468.245 C 649.721 439.548 685.059 428.835 715.624 412.19 C 741.62 398.032 764.372 377.058 792.236 367.346 C 799.457 358.373 809.543 352.274 816.523 343.056 C 792.886 335.951 768.619 350.751 749.261 359.872 C 726.053 370.803 702.323 386.128 676.386 395.374 C 641.394 407.846 613.857 428.936 571.75 429.006 C 572.972 416.526 584.837 414.689 596.04 412.19 C 641.943 375.256 706.885 357.361 754.862 322.502 C 750.366 309.216 735.613 315.258 728.704 316.897 C 703.448 322.888 674.404 340.58 652.099 350.53 C 629.502 360.608 603.191 367.404 579.224 374.82 C 554.474 382.477 531.063 397.289 504.484 393.505 C 505.85 376.615 524.594 379.67 534.38 374.82 C 542.021 371.036 546.459 363.286 553.065 359.872 C 560.126 356.225 568.904 357.33 577.355 354.267 C 586.2 351.063 592.747 343.009 601.646 339.319 C 613.425 334.437 623.721 335.301 633.41 329.976 C 638.082 327.411 641.383 321.513 646.49 318.765 C 654.069 314.69 663.649 315.114 670.78 311.291 C 676.826 308.052 680.313 301.314 685.728 298.212 C 696.978 291.773 711.035 296.176 719.361 285.132 C 702.844 269.966 685.347 285.179 672.649 290.738 C 660.519 296.047 643.648 295.697 631.542 300.08 C 624.893 302.486 619.817 308.757 612.861 311.291 C 599.345 316.216 583.817 314.016 571.75 318.765 C 561.606 322.759 555.467 332.386 543.723 333.713 C 527.066 335.593 512.468 329.447 498.879 339.319 C 513.827 319.478 542.391 308.38 569.881 298.212 C 579.598 294.619 590.575 295.903 599.777 292.606 C 605.651 290.5 610.463 284.311 616.594 281.395 C 634.045 273.104 650.729 274.299 659.573 257.101 C 670.987 257.307 679.92 255.034 685.728 249.627 C 677.098 234.15 649.985 245.057 644.621 255.236 C 608.353 251.056 572.229 271.411 543.723 277.662 C 532.006 280.231 520.222 278.445 510.094 281.395 C 492.23 286.596 469.995 304.993 450.298 288.869 C 457.106 272.423 476.305 278.071 489.536 273.921 C 497.863 271.313 503.515 263.614 511.962 260.842 C 521.569 257.689 532.504 258.483 541.854 255.236 C 549.811 252.476 556.222 245.329 564.28 242.153 C 594.343 230.323 631.191 234.146 652.099 210.389 C 613.604 183.066 565.728 231.191 511.962 214.13 C 531.461 195.639 579.531 205.717 584.829 173.023 C 559.11 156.058 522.488 185.9 493.273 171.154 C 501.526 154.976 524.831 165.179 538.117 159.943 C 552.333 154.342 564.611 142.488 582.961 139.39 C 597.473 136.941 611.393 143.057 624.068 131.916 C 614.285 114.297 573.615 127.56 562.411 111.362 C 588.418 102.495 623.359 102.557 652.099 96.414 C 661.457 49.881 685.705 55.747 706.286 88.94 C 717.489 107.018 729.926 117.474 738.046 135.653 C 774.816 187.324 826.909 223.67 872.578 266.447 C 889.11 272.337 900.084 283.789 909.948 296.343 C 918.912 297.344 922.568 303.658 934.242 301.949 C 936.251 306.791 940.996 308.897 941.712 315.028 C 950.062 321.626 961.3 318.94 969.739 322.502 C 976.774 325.472 980.335 332.662 986.56 335.582 C 1009.986 346.567 1028.173 338.665 1059.427 341.187 C 1077.47 342.643 1097.934 340.895 1119.223 335.582 C 1131.722 326.286 1148.204 320.968 1167.8 318.765 C 1172.498 316.613 1173.682 310.941 1177.142 307.554 C 1196.839 304.206 1211.959 296.281 1221.986 283.264 Z " fill-rule="evenodd" fill="rgb(55,53,53)"/><radialGradient id="_rgradient_1" fx="0.5" fy="0.5" cx="0.5" cy="0.5" r="0.5" gradientTransform="matrix(1155.995,0,0,858.014,736.253,-593.996)" gradientUnits="userSpaceOnUse"><stop offset="0%" stop-opacity="1" style="stop-color:rgb(221,226,107)"/><stop offset="10%" stop-opacity="1" style="stop-color:rgb(200,213,100)"/><stop offset="20%" stop-opacity="1" style="stop-color:rgb(89,148,66)"/><stop offset="30.000000000000004%" stop-opacity="1" style="stop-color:rgb(88,148,66)"/><stop offset="40%" stop-opacity="1" style="stop-color:rgb(87,146,66)"/><stop offset="50%" stop-opacity="1" style="stop-color:rgb(82,142,64)"/><stop offset="60%" stop-opacity="1" style="stop-color:rgb(74,134,60)"/><stop offset="70%" stop-opacity="1" style="stop-color:rgb(61,122,55)"/><stop offset="80%" stop-opacity="1" style="stop-color:rgb(44,105,47)"/><stop offset="89.99999999999999%" stop-opacity="1" style="stop-color:rgb(44,105,47)"/><stop offset="99.99999999999999%" stop-opacity="1" style="stop-color:rgb(44,105,47)"/></radialGradient><path d=" M 1868.495 73.057 C 1868.495 72.745 1881.337 59.202 1889.123 63.714 C 1899.75 69.946 1880.364 97.697 1874.175 104.825 C 1864.054 116.503 1852.648 128.839 1842.41 136.624 C 1832.799 143.869 1818.782 148.692 1806.909 157.139 C 1778.843 177.186 1740.538 204.435 1706.01 218.842 C 1697.995 222.147 1688.026 222.264 1677.944 226.312 C 1663.467 232.073 1651.551 241.536 1640.613 243.09 C 1620.059 246.052 1592.655 252.627 1572.685 253.288 C 1570.389 253.37 1565.678 251.615 1560.657 249.59 L 1560.268 251.498 C 1561.319 252.202 1534.502 252.588 1534.502 253.25 L 1532.555 252.666 C 1517.02 246.165 1521.695 239.395 1517.253 231.879 C 1511.687 222.458 1499.156 225.615 1481.752 224.405 L 1478.482 221.606 L 1474.278 222.579 C 1450.727 190.114 1399.616 200.231 1360.339 200.114 C 1304.054 200.001 1255.43 214.323 1210.82 231.879 C 1191.785 239.395 1173.333 250.256 1158.502 254.304 C 1150.055 256.64 1140.129 254.811 1130.475 256.169 C 1101.825 260.338 1061.418 270.455 1025.839 258.041 C 1018.093 255.352 1011.825 248.734 1003.456 244.962 C 996.722 241.961 988.352 242.272 982.864 239.353 C 973.91 234.568 956.977 221.174 945.533 213.194 C 911.705 189.802 870.871 154.336 844.595 123.506 C 834.984 112.178 830.971 97.425 822.212 86.175 C 818.008 80.768 811.196 78.429 807.264 73.057 C 800.958 64.609 793.289 51.141 788.54 41.292 C 785.854 35.691 785.854 27.784 782.974 22.607 C 778.614 14.904 769.388 11.474 766.157 2.054 C 762.848 -7.406 765.534 -19.395 762.42 -29.711 C 756.309 -49.563 745.798 -67.155 743.696 -89.464 C 742.256 -105.225 744.008 -122.625 741.828 -138.083 C 740.66 -146.375 736.378 -154.585 736.261 -162.37 C 735.989 -180.047 742.334 -200.912 743.696 -220.297 C 744.864 -236.102 741.439 -252.373 743.696 -267.01 C 745.331 -277.208 754.245 -289.311 758.683 -302.511 C 763.238 -316.135 763.315 -331.784 768.026 -343.618 C 770.361 -349.535 776.2 -353.891 779.237 -360.434 C 788.968 -381.451 793.912 -408.665 805.396 -429.569 C 814.193 -445.603 828.129 -461.061 837.121 -476.281 C 858.726 -512.752 887.687 -540.121 924.94 -567.837 C 941.64 -580.212 944.559 -593.914 967.955 -593.996 L 966.981 -585.277 L 975.39 -582.785 C 962.154 -559.896 928.093 -542.885 908.163 -521.125 C 897.419 -509.408 876.904 -483.21 883.833 -476.281 C 895.473 -464.642 925.096 -513.028 938.02 -509.91 L 943.625 -502.436 L 951.138 -496.834 C 916.999 -446.852 866.9 -402.939 859.582 -332.407 C 877.839 -331.508 884.495 -360.084 893.176 -366.036 C 897.03 -368.644 910.148 -374.448 913.768 -371.641 C 928.483 -360.041 894.772 -318.237 887.57 -302.511 C 882.082 -290.405 879.707 -274.6 876.398 -263.273 C 872.311 -249.333 866.005 -237.265 863.319 -227.767 C 859.076 -212.901 856.468 -186.547 867.056 -184.792 C 877.566 -183.001 880.057 -209.398 883.833 -216.56 C 889.283 -226.716 908.241 -247.153 917.505 -242.719 C 923.772 -239.679 923.85 -214.376 921.242 -203.481 C 917.466 -187.945 903.063 -171.833 898.82 -153.031 C 890.062 -114.334 879.902 -76.423 887.57 -42.751 C 905.321 -59.992 907.657 -89.269 921.242 -115.658 C 924.516 -122.045 947.907 -164.744 958.612 -158.633 C 973.833 -149.835 952.267 -103.75 949.27 -93.201 C 936.657 -49.252 928.794 3.109 932.414 58.112 C 954.642 53.982 951.995 28.255 958.612 3.961 C 960.753 -4.015 968.188 -13.4 971.653 -24.105 C 975.273 -35.157 974.611 -46.332 979.127 -55.87 C 984.265 -66.575 1010.969 -123.213 1027.708 -110.056 C 1035.96 -103.555 1026.073 -77.042 1022.102 -63.344 C 1012.02 -28.426 1003.028 -9.118 997.851 31.993 C 995.71 48.766 993.257 82.714 999.719 86.175 C 1015.095 94.392 1020.078 42.97 1022.102 35.729 C 1024.593 27.006 1032.223 7.819 1038.957 -10.983 C 1044.251 -25.896 1050.013 -42.712 1055.774 -55.87 C 1060.173 -65.952 1082.906 -104.914 1093.144 -96.938 C 1106.379 -86.618 1090.652 -50.26 1087.538 -37.185 C 1084.852 -25.931 1085.903 -13.089 1083.762 -1.683 C 1081.427 11.05 1075.51 22.14 1074.42 31.993 C 1072.162 52.97 1075.977 76.252 1074.42 93.649 C 1072.707 113.112 1070.06 118.017 1076.288 136.624 C 1077.845 141.144 1077.028 152.978 1085.67 151.537 C 1094.156 88.472 1110.856 -2.575 1134.251 -55.87 C 1136.668 -61.397 1144.8 -68.638 1149.199 -78.292 C 1155.855 -92.967 1156.011 -112.781 1169.713 -108.145 C 1183.805 -103.434 1173.762 -65.757 1171.582 -53.962 C 1162.2 -2.345 1144.333 86.296 1167.845 136.624 C 1187.425 79.908 1184.817 20.47 1205.215 -46.488 C 1209.419 -60.229 1216.698 -100.013 1229.544 -96.938 C 1243.129 -93.703 1235.967 -35.472 1235.149 -16.631 C 1233.67 16.768 1233.553 45.808 1235.149 71.192 C 1235.5 77.144 1237.524 125.024 1248.229 125.417 C 1256.559 125.69 1268.16 39.19 1270.612 26.344 C 1279.954 -21.808 1284.859 -67.777 1311.719 -93.201 L 1319.193 -87.634 L 1328.574 -87.634 C 1316.079 -32.007 1301.208 71.192 1337.878 112.295 C 1344.34 49.626 1348.699 10.038 1367.813 -42.751 C 1371.939 -54.235 1388.95 -77.665 1399.581 -67.081 C 1405.533 -61.086 1398.487 -32.319 1397.67 -20.368 C 1395.606 10.267 1391.951 67.299 1393.933 84.268 C 1394.672 90.383 1398.798 122.221 1412.618 117.904 C 1423.673 114.475 1426.592 30.743 1431.302 17.002 C 1434.222 8.636 1449.368 -18.227 1461.237 -12.894 C 1475.644 -6.355 1459.525 64.765 1461.237 84.268 C 1462.02 93.376 1465.675 102.641 1468.711 112.295 C 1468.945 113.112 1471.67 136.901 1481.752 132.887 C 1488.957 130.007 1485.567 109.609 1487.357 101.088 C 1489.113 93.026 1498.724 59.086 1507.95 37.555 C 1511.842 28.411 1524.614 9.177 1534.07 11.4 C 1554.896 16.34 1536.834 52.192 1534.07 76.794 C 1532.088 94.778 1531.968 143.514 1549.018 142.191 C 1568.948 140.673 1556.067 100.426 1565.873 74.929 C 1569.61 65.115 1589 39.233 1595.73 41.292 C 1604.921 44.138 1601.651 71.11 1601.374 80.531 C 1600.946 94.237 1597.715 164.846 1610.678 170.218 C 1626.443 176.801 1622.749 140.793 1627.494 119.769 C 1628.974 113.268 1642.91 72.083 1653.653 73.057 C 1677.671 75.314 1651.789 153.912 1676.118 157.139 C 1693.947 159.552 1688.804 112.61 1700.366 95.478 L 1708.424 99.06 L 1715.314 93.649 C 1722.632 104.124 1719.518 130.474 1730.304 129.154 C 1743.38 127.519 1731.589 73.177 1750.815 69.32 C 1778.881 63.757 1768.177 124.051 1788.224 121.641 C 1808.583 119.228 1786.472 54.06 1810.646 48.766 C 1833.224 43.861 1832.293 77.338 1846.147 80.531 C 1853.349 82.247 1860.784 76.988 1868.495 73.057 Z " fill="url(#_rgradient_1)"/><path d=" M 1204.321 258.972 C 1225.497 249.98 1245.817 239.003 1267.85 231.879" fill="none" vector-effect="non-scaling-stroke" stroke-width="0.65" stroke="rgb(55,53,53)" stroke-linejoin="miter" stroke-linecap="square" stroke-miterlimit="3"/><path d=" M 1534.539 253.289 C 1534.5 253.289 1534.5 253.25 1534.5 253.25 C 1534.5 252.589 1561.321 252.203 1560.266 251.499" fill="none" vector-effect="non-scaling-stroke" stroke-width="0.65" stroke="rgb(55,53,53)" stroke-linejoin="miter" stroke-linecap="square" stroke-miterlimit="3"/><path d=" M 1532.554 252.666 C 1517.022 246.165 1521.694 239.395 1517.252 231.879 C 1511.689 222.458 1499.155 225.615 1481.751 224.405" fill="none" vector-effect="non-scaling-stroke" stroke-width="0.65" stroke="rgb(55,53,53)" stroke-linejoin="miter" stroke-linecap="square" stroke-miterlimit="3"/><line x1="1481.751" y1="224.405" x2="1478.482" y2="221.603" vector-effect="non-scaling-stroke" stroke-width="0.65" stroke="rgb(55,53,53)" stroke-linejoin="miter" stroke-linecap="square" stroke-miterlimit="3"/><line x1="1478.482" y1="221.604" x2="1474.278" y2="222.577" vector-effect="non-scaling-stroke" stroke-width="0.65" stroke="rgb(55,53,53)" stroke-linejoin="miter" stroke-linecap="square" stroke-miterlimit="3"/><path d=" M 1474.278 222.577 C 1450.727 190.112 1399.616 200.233 1360.339 200.112 C 1304.054 199.999 1255.43 214.325 1210.82 231.881 C 1191.785 239.393 1173.333 250.254 1158.502 254.303 C 1150.055 256.638 1140.129 254.809 1130.475 256.171 C 1101.825 260.336 1061.418 270.457 1025.839 258.039 C 1018.093 255.354 1011.825 248.736 1003.456 244.96 C 996.722 241.959 988.352 242.274 982.864 239.355 C 973.91 234.567 956.977 221.176 945.533 213.196 C 911.705 189.801 870.871 154.338 844.595 123.508 C 834.984 112.18 830.971 97.427 822.212 86.177 C 818.008 80.766 811.196 78.43 807.264 73.059 C 800.958 64.611 793.289 51.143 788.54 41.294 C 785.854 35.689 785.854 27.786 782.974 22.609 C 778.614 14.902 769.388 11.476 766.157 2.056 C 762.848 -7.404 765.534 -19.393 762.42 -29.713 C 756.309 -49.561 745.798 -67.156 743.696 -89.462 C 742.256 -105.227 744.008 -122.627 741.828 -138.081 C 740.66 -146.373 736.378 -154.587 736.261 -162.372 C 735.989 -180.045 742.334 -200.91 743.696 -220.295 C 744.864 -236.1 741.439 -252.371 743.696 -267.008 C 745.331 -277.206 754.245 -289.313 758.683 -302.509 C 763.238 -316.133 763.315 -331.782 768.026 -343.616 C 770.361 -349.533 776.2 -353.893 779.237 -360.432 C 788.968 -381.453 793.912 -408.663 805.396 -429.567 C 814.193 -445.605 828.129 -461.059 837.121 -476.279 C 858.725 -512.754 887.687 -540.119 924.94 -567.835 C 941.64 -580.214 944.559 -593.916 967.955 -593.994" fill="none" vector-effect="non-scaling-stroke" stroke-width="0.65" stroke="rgb(55,53,53)" stroke-linejoin="miter" stroke-linecap="square" stroke-miterlimit="3"/><line x1="967.955" y1="-593.994" x2="966.982" y2="-585.275" vector-effect="non-scaling-stroke" stroke-width="0.65" stroke="rgb(55,53,53)" stroke-linejoin="miter" stroke-linecap="square" stroke-miterlimit="3"/><line x1="966.982" y1="-585.276" x2="975.39" y2="-582.784" vector-effect="non-scaling-stroke" stroke-width="0.65" stroke="rgb(55,53,53)" stroke-linejoin="miter" stroke-linecap="square" stroke-miterlimit="3"/><path d=" M 975.391 -582.784 C 962.156 -559.895 928.095 -542.883 908.164 -521.123 C 897.42 -509.406 876.906 -483.208 883.835 -476.279 C 895.474 -464.64 925.097 -513.027 938.021 -509.912" fill="none" vector-effect="non-scaling-stroke" stroke-width="0.65" stroke="rgb(55,53,53)" stroke-linejoin="miter" stroke-linecap="square" stroke-miterlimit="3"/><line x1="938.021" y1="-509.912" x2="943.626" y2="-502.438" vector-effect="non-scaling-stroke" stroke-width="0.65" stroke="rgb(55,53,53)" stroke-linejoin="miter" stroke-linecap="square" stroke-miterlimit="3"/><path d=" M 943.626 -502.438 C 944.911 -503.255 946.078 -504.229 947.052 -505.319" fill="none" vector-effect="non-scaling-stroke" stroke-width="0.65" stroke="rgb(55,53,53)" stroke-linejoin="miter" stroke-linecap="square" stroke-miterlimit="3"/><line x1="943.626" y1="-502.438" x2="951.139" y2="-496.833" vector-effect="non-scaling-stroke" stroke-width="0.65" stroke="rgb(55,53,53)" stroke-linejoin="miter" stroke-linecap="square" stroke-miterlimit="3"/><path d=" M 951.14 -496.833 C 917.001 -446.851 866.902 -402.941 859.583 -332.405 C 877.84 -331.51 884.497 -360.082 893.177 -366.038 C 897.031 -368.646 910.15 -374.446 913.77 -371.644 C 928.484 -360.043 894.773 -318.236 887.572 -302.509 C 882.083 -290.403 879.709 -274.599 876.4 -263.271 C 872.313 -249.335 866.006 -237.268 863.32 -227.77 C 859.077 -212.899 856.469 -186.546 867.057 -184.794 C 877.568 -183.004 880.059 -209.396 883.835 -216.559 C 889.285 -226.719 908.242 -247.155 917.507 -242.718 C 923.774 -239.681 923.852 -214.379 921.244 -203.479 C 917.468 -187.947 903.065 -171.832 898.822 -153.03 C 890.063 -114.336 879.903 -76.421 887.572 -42.75 C 905.323 -59.994 907.658 -89.267 921.244 -115.66 C 924.514 -122.044 947.909 -164.747 958.614 -158.635 C 973.834 -149.838 952.269 -103.748 949.271 -93.199 C 936.659 -49.25 928.796 3.106 932.416 58.11 C 954.643 53.984 951.996 28.253 958.614 3.963 C 960.755 -4.017 968.19 -13.399 971.654 -24.104 C 975.274 -35.159 974.613 -46.331 979.128 -55.868 C 984.267 -66.573 1010.97 -123.212 1027.709 -110.054 C 1035.962 -103.554 1026.074 -77.044 1022.104 -63.342 C 1012.022 -28.425 1003.029 -9.117 997.852 31.99 C 995.711 48.768 993.259 82.712 999.721 86.176 C 1015.097 94.39 1020.079 42.968 1022.104 35.727 C 1024.595 27.007 1032.225 7.817 1038.959 -10.985 C 1044.253 -25.894 1050.014 -42.711 1055.775 -55.868 C 1060.174 -65.95 1082.908 -104.916 1093.145 -96.936 C 1106.381 -86.62 1090.654 -50.263 1087.54 -37.183 C 1084.854 -25.933 1085.905 -13.087 1083.764 -1.682 C 1081.428 11.047 1075.511 22.142 1074.421 31.99 C 1072.164 52.972 1075.979 76.25 1074.421 93.651 C 1072.709 113.114 1070.062 118.019 1076.29 136.626 C 1077.847 141.141 1077.03 152.975 1085.671 151.535 C 1094.157 88.473 1110.857 -2.577 1134.252 -55.868 C 1136.666 -61.396 1144.801 -68.636 1149.2 -78.29 C 1155.857 -92.965 1156.012 -112.779 1169.715 -108.147 C 1183.806 -103.437 1173.763 -65.756 1171.583 -53.961 C 1162.202 -2.343 1144.334 86.293 1167.846 136.626 C 1187.426 79.909 1184.818 20.468 1205.216 -46.487 C 1209.42 -60.228 1216.7 -100.011 1229.545 -96.936 C 1243.131 -93.705 1235.968 -35.47 1235.151 -16.63 C 1233.672 16.77 1233.555 45.809 1235.151 71.19 C 1235.501 77.145 1237.526 125.026 1248.23 125.415 C 1256.561 125.687 1268.161 39.192 1270.613 26.346 C 1279.956 -21.807 1284.861 -67.78 1311.72 -93.199" fill="none" vector-effect="non-scaling-stroke" stroke-width="0.65" stroke="rgb(55,53,53)" stroke-linejoin="miter" stroke-linecap="square" stroke-miterlimit="3"/><line x1="1311.72" y1="-93.199" x2="1319.194" y2="-87.632" vector-effect="non-scaling-stroke" stroke-width="0.65" stroke="rgb(55,53,53)" stroke-linejoin="miter" stroke-linecap="square" stroke-miterlimit="3"/><path d=" M 1319.194 -87.634 C 1319.816 -90.004 1320.167 -91.639 1320.404 -92.301" fill="none" vector-effect="non-scaling-stroke" stroke-width="0.65" stroke="rgb(55,53,53)" stroke-linejoin="miter" stroke-linecap="square" stroke-miterlimit="3"/><line x1="1319.194" y1="-87.634" x2="1328.575" y2="-87.634" vector-effect="non-scaling-stroke" stroke-width="0.65" stroke="rgb(55,53,53)" stroke-linejoin="miter" stroke-linecap="square" stroke-miterlimit="3"/><path d=" M 1328.575 -87.634 C 1316.08 -32.007 1301.21 71.192 1337.879 112.295 C 1344.341 49.627 1348.701 10.038 1367.814 -42.751 C 1371.94 -54.234 1388.951 -77.664 1399.578 -67.08 C 1405.534 -61.085 1398.488 -32.318 1397.671 -20.368 C 1395.608 10.268 1391.949 67.3 1393.934 84.268 C 1394.669 90.379 1398.8 122.222 1412.619 117.905 C 1423.674 114.475 1426.593 30.743 1431.304 17.002 C 1434.223 8.633 1449.366 -18.227 1461.238 -12.894 C 1475.642 -6.354 1459.526 64.766 1461.238 84.268 C 1462.017 93.377 1465.676 102.641 1468.713 112.295 C 1468.946 113.113 1471.671 136.901 1481.753 132.888 C 1488.954 130.007 1485.568 109.609 1487.358 101.084 C 1489.11 93.026 1498.725 59.082 1507.951 37.556 C 1511.844 28.412 1524.612 9.178 1534.071 11.397 C 1554.897 16.34 1536.835 52.192 1534.071 76.794 C 1532.086 94.778 1531.969 143.515 1549.019 142.191 C 1568.949 140.673 1556.065 100.427 1565.874 74.929 C 1569.611 65.116 1588.997 39.233 1595.731 41.293 C 1604.918 44.138 1601.648 71.111 1601.376 80.531 C 1600.947 94.237 1597.716 164.847 1610.679 170.219 C 1626.445 176.801 1622.746 140.794 1627.496 119.769 C 1628.975 113.268 1642.911 72.084 1653.655 73.057 C 1677.673 75.315 1651.786 153.912 1676.115 157.139 C 1693.944 159.553 1688.806 112.607 1700.367 95.479" fill="none" vector-effect="non-scaling-stroke" stroke-width="0.65" stroke="rgb(55,53,53)" stroke-linejoin="miter" stroke-linecap="square" stroke-miterlimit="3"/><line x1="1700.366" y1="95.479" x2="1708.424" y2="99.06" vector-effect="non-scaling-stroke" stroke-width="0.65" stroke="rgb(55,53,53)" stroke-linejoin="miter" stroke-linecap="square" stroke-miterlimit="3"/><path d=" M 1708.425 99.06 C 1708.27 97.351 1708.581 96.027 1708.775 94.548" fill="none" vector-effect="non-scaling-stroke" stroke-width="0.65" stroke="rgb(55,53,53)" stroke-linejoin="miter" stroke-linecap="square" stroke-miterlimit="3"/><line x1="1708.425" y1="99.06" x2="1715.315" y2="93.649" vector-effect="non-scaling-stroke" stroke-width="0.65" stroke="rgb(55,53,53)" stroke-linejoin="miter" stroke-linecap="square" stroke-miterlimit="3"/><path d=" M 1868.532 73.058 L 1868.493 73.058 C 1868.493 72.747 1881.339 59.2 1889.124 63.716 C 1899.751 69.944 1880.365 97.699 1874.176 104.823 C 1864.055 116.501 1852.649 128.84 1842.412 136.626 C 1832.797 143.866 1818.783 148.693 1806.91 157.14 C 1778.844 177.188 1740.54 204.437 1706.011 218.84 C 1697.992 222.148 1688.027 222.265 1677.945 226.314 C 1663.464 232.075 1651.553 241.534 1640.614 243.091 C 1620.061 246.05 1592.656 252.628 1572.686 253.29 C 1570.39 253.368 1565.68 251.616 1560.658 249.592 C 1550.109 245.392 1538.08 240.211 1543.491 249.008" fill="none" vector-effect="non-scaling-stroke" stroke-width="0.65" stroke="rgb(55,53,53)" stroke-linejoin="miter" stroke-linecap="square" stroke-miterlimit="3"/><path d=" M 1715.313 93.651 C 1722.632 104.122 1719.517 130.475 1730.304 129.152 C 1743.38 127.517 1731.589 73.175 1750.815 69.321 C 1778.881 63.755 1768.176 124.052 1788.224 121.639 C 1808.582 119.226 1786.472 54.062 1810.646 48.768 C 1833.223 43.863 1832.293 77.34 1846.147 80.532 C 1853.348 82.245 1860.783 76.99 1868.495 73.058" fill="none" vector-effect="non-scaling-stroke" stroke-width="0.65" stroke="rgb(55,53,53)" stroke-linejoin="miter" stroke-linecap="square" stroke-miterlimit="3"/><path d=" M 1827.574 -98.688 C 1830.424 -98.657 1831.666 -84.842 1825.706 -87.478 C 1824.351 -93.188 1827.613 -94.286 1827.574 -98.688 Z " fill-rule="evenodd" fill="rgb(254,254,254)"/><path d=" M 1857.469 -89.344 C 1856.586 -83.961 1849.372 -79.301 1844.386 -83.743 C 1848.423 -85.938 1852.969 -87.62 1857.469 -89.344 Z " fill-rule="evenodd" fill="rgb(254,254,254)"/><path d=" M 1851.858 -59.45 C 1846.066 -59.89 1833.52 -56.417 1838.783 -46.374 C 1827.498 -52.875 1844.33 -71.21 1851.858 -59.45 Z " fill-rule="evenodd" fill="rgb(254,254,254)"/></g><linearGradient id="_lgradient_6" x1="0.000013965237904756123" y1="0.4999901228089154" x2="0.9999948773361851" y2="0.4999901228089154" gradientTransform="matrix(112.769,0,0,164.724,1804.49,-160.198)" gradientUnits="userSpaceOnUse"><stop offset="0%" stop-opacity="1" style="stop-color:rgb(150,190,64)"/><stop offset="10%" stop-opacity="1" style="stop-color:rgb(94,99,82)"/><stop offset="20%" stop-opacity="1" style="stop-color:rgb(55,58,60)"/><stop offset="30.000000000000004%" stop-opacity="1" style="stop-color:rgb(44,47,53)"/><stop offset="40%" stop-opacity="1" style="stop-color:rgb(43,46,52)"/><stop offset="50%" stop-opacity="1" style="stop-color:rgb(54,56,59)"/><stop offset="60%" stop-opacity="1" style="stop-color:rgb(90,92,79)"/><stop offset="70%" stop-opacity="1" style="stop-color:rgb(121,126,90)"/><stop offset="80%" stop-opacity="1" style="stop-color:rgb(148,157,91)"/><stop offset="89.99999999999999%" stop-opacity="1" style="stop-color:rgb(171,186,83)"/><stop offset="99.99999999999999%" stop-opacity="1" style="stop-color:rgb(189,213,66)"/></linearGradient><path d=" M 1842.519 -147.111 C 1835.703 -124.654 1809.548 -111.582 1808.886 -89.191 L 1808.886 -89.191 C 1809.793 -91.394 1810.879 -93.426 1812.619 -94.793 L 1812.619 -94.793 C 1807.843 -85.248 1814.94 -63.826 1805.146 -59.299 L 1805.146 -59.299 C 1808.824 -64.34 1806.263 -75.621 1807.018 -83.586 L 1807.018 -83.586 C 1802.794 -89.58 1806.173 -71.394 1805.146 -64.901 L 1805.146 -64.901 C 1800.926 -37.994 1817.302 8.652 1848.125 4.234 L 1848.125 4.234 C 1858.094 -6 1849.546 -21.306 1853.73 -31.268 L 1853.73 -31.268 C 1860.219 -29.037 1867.187 -27.289 1872.415 -23.79 L 1872.415 -23.79 C 1869.009 -31.023 1851.947 -34.413 1857.471 -44.351 L 1857.471 -44.351 C 1859.869 -35.538 1867.421 -31.883 1876.152 -29.395 L 1876.152 -29.395 C 1864.677 -43.475 1851.142 -77.497 1874.28 -83.586 L 1874.28 -83.586 C 1880.964 -85.341 1885.382 -82.78 1889.734 -80.215 L 1889.734 -80.215 C 1894.755 -77.264 1899.687 -74.309 1907.917 -77.976 L 1907.917 -77.976 C 1902.556 -81.34 1897.488 -84.995 1892.969 -89.191 L 1892.969 -89.191 C 1896.939 -89.257 1900.291 -87.011 1903.475 -84.761 L 1903.475 -84.761 C 1907.956 -81.596 1912.117 -78.432 1917.259 -81.721 L 1917.259 -81.721 C 1896.464 -89.148 1871.434 -111.193 1849.993 -91.06 L 1849.993 -91.06 C 1847.549 -114.754 1884.078 -139.006 1872.415 -160.198 L 1872.415 -160.198 C 1859.266 -159.026 1852.123 -151.832 1842.519 -147.111 Z " fill="url(#_lgradient_6)"/><linearGradient id="_lgradient_7" x1="0.000013965237904756123" y1="0.4999901228089154" x2="0.9999948773361851" y2="0.4999901228089154" gradientTransform="matrix(112.769,0,0,164.724,1804.49,-156.305)" gradientUnits="userSpaceOnUse"><stop offset="0%" stop-opacity="1" style="stop-color:rgb(150,190,64)"/><stop offset="10%" stop-opacity="1" style="stop-color:rgb(94,99,82)"/><stop offset="20%" stop-opacity="1" style="stop-color:rgb(55,58,60)"/><stop offset="30.000000000000004%" stop-opacity="1" style="stop-color:rgb(44,47,53)"/><stop offset="40%" stop-opacity="1" style="stop-color:rgb(43,46,52)"/><stop offset="50%" stop-opacity="1" style="stop-color:rgb(54,56,59)"/><stop offset="60%" stop-opacity="1" style="stop-color:rgb(90,92,79)"/><stop offset="70%" stop-opacity="1" style="stop-color:rgb(121,126,90)"/><stop offset="80%" stop-opacity="1" style="stop-color:rgb(148,157,91)"/><stop offset="89.99999999999999%" stop-opacity="1" style="stop-color:rgb(171,186,83)"/><stop offset="99.99999999999999%" stop-opacity="1" style="stop-color:rgb(189,213,66)"/></linearGradient><path d=" M 1842.519 -143.218 C 1835.703 -120.757 1809.548 -107.689 1808.886 -85.298 L 1808.886 -85.298 C 1809.793 -87.502 1810.879 -89.534 1812.619 -90.9 L 1812.619 -90.9 C 1807.843 -81.355 1814.94 -59.934 1805.146 -55.406 L 1805.146 -55.406 C 1808.824 -60.447 1806.263 -71.728 1807.018 -79.693 L 1807.018 -79.693 C 1802.794 -85.688 1806.173 -67.501 1805.146 -61.008 L 1805.146 -61.008 C 1800.926 -34.102 1817.302 12.545 1848.125 8.126 L 1848.125 8.126 C 1858.094 -2.108 1849.546 -17.414 1853.73 -27.375 L 1853.73 -27.375 C 1860.219 -25.145 1867.187 -23.397 1872.415 -19.897 L 1872.415 -19.897 C 1869.009 -27.13 1851.947 -30.52 1857.471 -40.455 L 1857.471 -40.455 C 1859.869 -31.645 1867.421 -27.986 1876.152 -25.503 L 1876.152 -25.503 C 1864.677 -39.583 1851.142 -73.605 1874.28 -79.693 L 1874.28 -79.693 C 1880.968 -81.448 1885.386 -78.887 1889.738 -76.326 L 1889.738 -76.326 C 1894.755 -73.371 1899.687 -70.417 1907.917 -74.084 L 1907.917 -74.084 C 1902.556 -77.447 1897.488 -81.102 1892.969 -85.298 L 1892.969 -85.298 C 1896.939 -85.365 1900.291 -83.118 1903.475 -80.869 L 1903.475 -80.869 C 1907.956 -77.704 1912.117 -74.543 1917.259 -77.828 L 1917.259 -77.828 C 1896.464 -85.256 1871.434 -107.3 1849.993 -87.167 L 1849.993 -87.167 C 1847.549 -110.862 1884.078 -135.113 1872.415 -156.305 L 1872.415 -156.305 C 1859.266 -155.133 1852.123 -147.94 1842.519 -143.218 Z " fill="url(#_lgradient_7)"/><linearGradient id="_lgradient_8" x1="0.000013965237904756123" y1="0.4999915666276431" x2="0.9999948773361851" y2="0.4999915666276431" gradientTransform="matrix(112.769,0,0,164.724,1808.383,-164.091)" gradientUnits="userSpaceOnUse"><stop offset="0%" stop-opacity="1" style="stop-color:rgb(150,190,64)"/><stop offset="10%" stop-opacity="1" style="stop-color:rgb(94,99,82)"/><stop offset="20%" stop-opacity="1" style="stop-color:rgb(55,58,60)"/><stop offset="30.000000000000004%" stop-opacity="1" style="stop-color:rgb(44,47,53)"/><stop offset="40%" stop-opacity="1" style="stop-color:rgb(43,46,52)"/><stop offset="50%" stop-opacity="1" style="stop-color:rgb(54,56,59)"/><stop offset="60%" stop-opacity="1" style="stop-color:rgb(90,92,79)"/><stop offset="70%" stop-opacity="1" style="stop-color:rgb(121,126,90)"/><stop offset="80%" stop-opacity="1" style="stop-color:rgb(148,157,91)"/><stop offset="89.99999999999999%" stop-opacity="1" style="stop-color:rgb(171,186,83)"/><stop offset="99.99999999999999%" stop-opacity="1" style="stop-color:rgb(189,213,66)"/></linearGradient><path d=" M 1846.412 -151.003 C 1839.596 -128.546 1813.441 -115.475 1812.779 -93.084 L 1812.779 -93.084 C 1813.686 -95.287 1814.772 -97.319 1816.512 -98.689 L 1816.512 -98.689 C 1811.736 -89.141 1818.832 -67.723 1809.038 -63.192 L 1809.038 -63.192 C 1812.717 -68.233 1810.155 -79.514 1810.911 -87.478 L 1810.911 -87.478 C 1806.687 -93.473 1810.066 -75.286 1809.038 -68.793 L 1809.038 -68.793 C 1804.819 -41.887 1821.195 4.755 1852.017 0.341 L 1852.017 0.341 C 1861.987 -9.893 1853.438 -25.199 1857.623 -35.16 L 1857.623 -35.16 C 1864.112 -32.93 1871.076 -31.182 1876.308 -27.686 L 1876.308 -27.686 C 1872.902 -34.915 1855.84 -38.306 1861.364 -48.244 L 1861.364 -48.244 C 1863.766 -39.431 1871.314 -35.776 1880.041 -33.288 L 1880.041 -33.288 C 1868.569 -47.368 1855.034 -81.39 1878.172 -87.478 L 1878.172 -87.478 C 1884.856 -89.234 1889.275 -86.673 1893.627 -84.107 L 1893.627 -84.107 C 1898.644 -81.157 1903.58 -78.202 1911.809 -81.869 L 1911.809 -81.869 C 1906.449 -85.232 1901.381 -88.887 1896.858 -93.084 L 1896.858 -93.084 C 1900.832 -93.15 1904.184 -90.9 1907.368 -88.654 L 1907.368 -88.654 C 1911.848 -85.489 1916.01 -82.324 1921.152 -85.61 L 1921.152 -85.61 C 1900.357 -93.041 1875.327 -115.089 1853.886 -94.952 L 1853.886 -94.952 C 1851.441 -118.647 1887.97 -142.899 1876.308 -164.091 L 1876.308 -164.091 C 1863.158 -162.919 1856.015 -155.725 1846.412 -151.003 Z " fill="url(#_lgradient_8)"/><clipPath id="_clipPath_WoAuycYEuwhIq3Hd2XlyQ9LJSJdOXU9M"><path d=" M 338.097 -864.909 L 2285.068 -864.909 L 2285.068 515.909 L 338.097 515.909 L 338.097 -864.909 Z " fill="rgb(255,255,255)"/></clipPath><g clip-path="url(#_clipPath_WoAuycYEuwhIq3Hd2XlyQ9LJSJdOXU9M)"><path d=" M 1915.236 -81.871 C 1924.178 -87.013 1932.808 -75.818 1939.527 -72.528 C 1939.476 -69.387 1924.536 -81.976 1915.236 -81.871 Z " fill-rule="evenodd" fill="rgb(55,53,53)"/><path d=" M 1877.86 -22.081 C 1890.422 -15.23 1931.969 -1.567 1941.389 2.209 C 1916.355 -2.026 1895.775 -10.715 1877.86 -22.081 Z " fill-rule="evenodd" fill="rgb(55,53,53)"/><linearGradient id="_lgradient_9" x1="0" y1="0.5000101517462905" x2="1.0000001415511444" y2="0.5000101517462905" gradientTransform="matrix(321.623,0,0,98.65,1859.655,-82.466)" gradientUnits="userSpaceOnUse"><stop offset="0%" stop-opacity="1" style="stop-color:rgb(55,55,23)"/><stop offset="10%" stop-opacity="1" style="stop-color:rgb(62,60,25)"/><stop offset="20%" stop-opacity="1" style="stop-color:rgb(131,116,39)"/><stop offset="30.000000000000004%" stop-opacity="1" style="stop-color:rgb(135,112,38)"/><stop offset="40%" stop-opacity="1" style="stop-color:rgb(139,109,37)"/><stop offset="50%" stop-opacity="1" style="stop-color:rgb(143,105,36)"/><stop offset="60%" stop-opacity="1" style="stop-color:rgb(147,102,35)"/><stop offset="70%" stop-opacity="1" style="stop-color:rgb(151,98,34)"/><stop offset="80%" stop-opacity="1" style="stop-color:rgb(155,94,33)"/><stop offset="89.99999999999999%" stop-opacity="1" style="stop-color:rgb(159,90,32)"/><stop offset="99.99999999999999%" stop-opacity="1" style="stop-color:rgb(163,85,31)"/></linearGradient><path d=" M 2018.477 9.528 C 2004.269 15.522 2004.969 10.462 1997.11 16.184 C 1990.372 9.333 1989.325 6.452 1974.451 4.506 C 1964.801 3.576 1959.001 -2.263 1954.948 -9.157 C 1912.323 -15.113 1875.498 -26.869 1859.655 -59.607 L 1859.655 -65.208 L 1861.523 -65.208 C 1861.523 -76.929 1866.199 -80.429 1874.603 -82.025 C 1903.335 -87.517 1938.755 -39.555 1973.633 -57.734 C 1973.828 -58.166 1977.331 -66.224 1984.338 -62.405 C 1995.008 -56.566 2015.912 -53.374 2024.083 -50.26 C 2032.101 -47.228 2034.091 -40.178 2039.031 -39.049 C 2084.264 -28.465 2129.419 -70.467 2164.22 -76.423 C 2175.742 -72.643 2169.475 -59.568 2171.694 -48.396 C 2173.99 -36.756 2182.831 -25.74 2181.04 -16.631 C 2175.937 9.294 2126.422 10.894 2095.085 13.265 C 2065.077 15.565 2033.347 3.264 2018.477 9.528 Z " fill="url(#_lgradient_9)"/></g></g></g></svg>